<?xml version="1.0" encoding="UTF-8" standalone="no"?>
<!-- Created with Inkscape (http://www.inkscape.org/) -->

<svg
   xmlns:dc="http://purl.org/dc/elements/1.1/"
   xmlns:cc="http://creativecommons.org/ns#"
   xmlns:rdf="http://www.w3.org/1999/02/22-rdf-syntax-ns#"
   xmlns:svg="http://www.w3.org/2000/svg"
   xmlns="http://www.w3.org/2000/svg"
   xmlns:sodipodi="http://sodipodi.sourceforge.net/DTD/sodipodi-0.dtd"
   xmlns:inkscape="http://www.inkscape.org/namespaces/inkscape"
   version="1.0"
   width="28"
   height="23.95211"
   id="svg2"
   sodipodi:docname="GeogebraLogo.svg"
   inkscape:version="0.92.4 (5da689c313, 2019-01-14)">
  <metadata
     id="metadata42">
    <rdf:RDF>
      <cc:Work
         rdf:about="">
        <dc:format>image/svg+xml</dc:format>
        <dc:type
           rdf:resource="http://purl.org/dc/dcmitype/StillImage" />
        <dc:title></dc:title>
      </cc:Work>
    </rdf:RDF>
  </metadata>
  <sodipodi:namedview
     pagecolor="#ffffff"
     bordercolor="#666666"
     borderopacity="1"
     objecttolerance="10"
     gridtolerance="10"
     guidetolerance="10"
     inkscape:pageopacity="0"
     inkscape:pageshadow="2"
     inkscape:window-width="1920"
     inkscape:window-height="1017"
     id="namedview40"
     showgrid="false"
     fit-margin-top="0"
     fit-margin-left="0"
     fit-margin-right="0"
     fit-margin-bottom="0"
     inkscape:zoom="8.4285714"
     inkscape:cx="13.171956"
     inkscape:cy="11.90566"
     inkscape:window-x="-8"
     inkscape:window-y="-8"
     inkscape:window-maximized="1"
     inkscape:current-layer="svg2" />
  <desc
     id="desc6">Creator: FreeHEP Graphics2D Driver Producer: geogebra.d.a Revision: 1.10  Source:  Date: Samstag, 7. August 2010 14:06 Uhr MESZ</desc>
  <defs
     id="defs85" />
  <path
     style="fill:none;stroke:#666666;stroke-width:3;stroke-linecap:round;stroke-linejoin:round;stroke-miterlimit:10;stroke-dasharray:none;stroke-dashoffset:0;stroke-opacity:1"
     d="M 3.4380153,17.292909 C 5.6218249,21.858989 11.99228,23.360436 17.666825,20.646484 23.341369,17.932532 26.171169,12.030899 23.98736,7.4648181 21.803551,2.8987371 15.433096,1.3972905 9.7585509,4.1112428 4.0840059,6.8251952 1.2542058,12.726828 3.4380153,17.292909 Z"
     id="path22"
     inkscape:connector-curvature="0" />
  <g
     style="stroke-width:1;stroke-linecap:square;stroke-linejoin:miter;stroke-miterlimit:10;stroke-dasharray:none;stroke-dashoffset:0"
     transform="matrix(0.85543235,0,0,0.85543235,-0.54234988,-1.2831453)"
     id="g24">
    <g
       id="g26"
       style="fill:#9999ff;fill-opacity:1;fill-rule:nonzero;stroke:none">
      <path
         d="m 19,5 c 0,1.6568542 -1.343146,3 -3,3 -1.656854,0 -3,-1.3431458 -3,-3 0,-1.6568542 1.343146,-3 3,-3 1.656854,0 3,1.3431458 3,3 z"
         id="path28"
         inkscape:connector-curvature="0" />
    </g>
  </g>
  <g
     style="stroke-width:1;stroke-linecap:square;stroke-linejoin:miter;stroke-miterlimit:10;stroke-dasharray:none;stroke-dashoffset:0"
     transform="matrix(0.85543235,0,0,0.85543235,-0.54234988,-1.2831453)"
     id="g30">
    <g
       id="g32"
       style="fill:none;stroke:#000000;stroke-linecap:round;stroke-linejoin:round;stroke-opacity:1">
      <path
         d="m 19,5 c 0,1.6568542 -1.343146,3 -3,3 -1.656854,0 -3,-1.3431458 -3,-3 0,-1.6568542 1.343146,-3 3,-3 1.656854,0 3,1.3431458 3,3 z"
         id="path34"
         inkscape:connector-curvature="0" />
    </g>
  </g>
  <g
     style="stroke-width:1;stroke-linecap:square;stroke-linejoin:miter;stroke-miterlimit:10;stroke-dasharray:none;stroke-dashoffset:0"
     transform="matrix(0.85543235,0,0,0.85543235,-0.54234988,-1.2831453)"
     id="g36">
    <g
       id="g38"
       style="fill:#9999ff;fill-opacity:1;fill-rule:nonzero;stroke:none">
      <path
         d="m 8,13 c 0,1.656854 -1.3431458,3 -3,3 -1.6568542,0 -3,-1.343146 -3,-3 0,-1.656854 1.3431458,-3 3,-3 1.6568542,0 3,1.343146 3,3 z"
         id="path40"
         inkscape:connector-curvature="0" />
    </g>
  </g>
  <g
     style="stroke-width:1;stroke-linecap:square;stroke-linejoin:miter;stroke-miterlimit:10;stroke-dasharray:none;stroke-dashoffset:0"
     transform="matrix(0.85543235,0,0,0.85543235,-0.54234988,-1.2831453)"
     id="g42">
    <g
       id="g44"
       style="fill:none;stroke:#000000;stroke-linecap:round;stroke-linejoin:round;stroke-opacity:1">
      <path
         d="m 8,13 c 0,1.656854 -1.3431458,3 -3,3 -1.6568542,0 -3,-1.343146 -3,-3 0,-1.656854 1.3431458,-3 3,-3 1.6568542,0 3,1.343146 3,3 z"
         id="path46"
         inkscape:connector-curvature="0" />
    </g>
  </g>
  <g
     style="stroke-width:1;stroke-linecap:square;stroke-linejoin:miter;stroke-miterlimit:10;stroke-dasharray:none;stroke-dashoffset:0"
     transform="matrix(0.85543235,0,0,0.85543235,-0.54234988,-1.2831453)"
     id="g48">
    <g
       id="g50"
       style="fill:#9999ff;fill-opacity:1;fill-rule:nonzero;stroke:none">
      <path
         d="m 12,26 c 0,1.656854 -1.343146,3 -3,3 -1.6568542,0 -3,-1.343146 -3,-3 0,-1.656854 1.3431458,-3 3,-3 1.656854,0 3,1.343146 3,3 z"
         id="path52"
         inkscape:connector-curvature="0" />
    </g>
  </g>
  <g
     style="stroke-width:1;stroke-linecap:square;stroke-linejoin:miter;stroke-miterlimit:10;stroke-dasharray:none;stroke-dashoffset:0"
     transform="matrix(0.85543235,0,0,0.85543235,-0.54234988,-1.2831453)"
     id="g54">
    <g
       id="g56"
       style="fill:none;stroke:#000000;stroke-linecap:round;stroke-linejoin:round;stroke-opacity:1">
      <path
         d="m 12,26 c 0,1.656854 -1.343146,3 -3,3 -1.6568542,0 -3,-1.343146 -3,-3 0,-1.656854 1.3431458,-3 3,-3 1.656854,0 3,1.343146 3,3 z"
         id="path58"
         inkscape:connector-curvature="0" />
    </g>
  </g>
  <g
     style="stroke-width:1;stroke-linecap:square;stroke-linejoin:miter;stroke-miterlimit:10;stroke-dasharray:none;stroke-dashoffset:0"
     transform="matrix(0.85543235,0,0,0.85543235,-0.54234988,-1.2831453)"
     id="g60">
    <g
       id="g62"
       style="fill:#9999ff;fill-opacity:1;fill-rule:nonzero;stroke:none">
      <path
         d="m 27,24 c 0,1.656854 -1.343146,3 -3,3 -1.656854,0 -3,-1.343146 -3,-3 0,-1.656854 1.343146,-3 3,-3 1.656854,0 3,1.343146 3,3 z"
         id="path64"
         inkscape:connector-curvature="0" />
    </g>
  </g>
  <g
     style="stroke-width:1;stroke-linecap:square;stroke-linejoin:miter;stroke-miterlimit:10;stroke-dasharray:none;stroke-dashoffset:0"
     transform="matrix(0.85543235,0,0,0.85543235,-0.54234988,-1.2831453)"
     id="g66">
    <g
       id="g68"
       style="fill:none;stroke:#000000;stroke-linecap:round;stroke-linejoin:round;stroke-opacity:1">
      <path
         d="m 27,24 c 0,1.656854 -1.343146,3 -3,3 -1.656854,0 -3,-1.343146 -3,-3 0,-1.656854 1.343146,-3 3,-3 1.656854,0 3,1.343146 3,3 z"
         id="path70"
         inkscape:connector-curvature="0" />
    </g>
  </g>
  <g
     style="stroke-width:1;stroke-linecap:square;stroke-linejoin:miter;stroke-miterlimit:10;stroke-dasharray:none;stroke-dashoffset:0"
     transform="matrix(0.85543235,0,0,0.85543235,-0.54234988,-1.2831453)"
     id="g72">
    <g
       id="g74"
       style="fill:#9999ff;fill-opacity:1;fill-rule:nonzero;stroke:none">
      <path
         d="m 32,11 c 0,1.656854 -1.343146,3 -3,3 -1.656854,0 -3,-1.343146 -3,-3 0,-1.6568542 1.343146,-3 3,-3 1.656854,0 3,1.3431458 3,3 z"
         id="path76"
         inkscape:connector-curvature="0" />
    </g>
  </g>
  <g
     style="stroke-width:1;stroke-linecap:square;stroke-linejoin:miter;stroke-miterlimit:10;stroke-dasharray:none;stroke-dashoffset:0"
     transform="matrix(0.85543235,0,0,0.85543235,-0.54234988,-1.2831453)"
     id="g78">
    <g
       id="g80"
       style="fill:none;stroke:#000000;stroke-linecap:round;stroke-linejoin:round;stroke-opacity:1">
      <path
         d="m 32,11 c 0,1.656854 -1.343146,3 -3,3 -1.656854,0 -3,-1.343146 -3,-3 0,-1.6568542 1.343146,-3 3,-3 1.656854,0 3,1.3431458 3,3 z"
         id="path82"
         inkscape:connector-curvature="0" />
    </g>
  </g>
</svg>
