<svg xmlns="http://www.w3.org/2000/svg" xmlns:xlink="http://www.w3.org/1999/xlink" xml:space="preserve" viewBox="0 0 96.69 178.35">
  <defs>
    <path id="a" d="M0 0h390.61v55.56H0Z"/>
  </defs>
  <defs>
    <clipPath id="b" clipPathUnits="userSpaceOnUse">
      <use xlink:href="#a"/>
    </clipPath>
    <clipPath id="c" clipPathUnits="userSpaceOnUse">
      <use xlink:href="#a"/>
    </clipPath>
    <clipPath id="e" clipPathUnits="userSpaceOnUse">
      <path d="M0 0h391v56H0Z"/>
    </clipPath>
    <clipPath id="f" clipPathUnits="userSpaceOnUse">
      <path d="M0 0h390.61v255.68H0Z"/>
    </clipPath>
    <clipPath id="g" clipPathUnits="userSpaceOnUse">
      <path d="M0 0h390.61v255.69H0Z"/>
    </clipPath>
    <radialGradient id="d" cx="230" cy="324.27" r="190" fx="230" fy="324.27" gradientTransform="rotate(-45 190.52 -401.35) scale(.06564)" gradientUnits="userSpaceOnUse" spreadMethod="pad">
      <stop offset="0" stop-color="#8c8c8c"/>
      <stop offset=".43" stop-color="#9cbdcc"/>
      <stop offset=".52" stop-color="#8c8c8c"/>
      <stop offset=".71" stop-color="#fff"/>
      <stop offset=".89" stop-color="#8c8c8c"/>
      <stop offset="1" stop-color="#9cbdcc"/>
    </radialGradient>
  </defs>
  <path fill="#de151a" fill-opacity=".4" stroke="#000" stroke-miterlimit="10" stroke-width=".53" d="M.27 177.93V47.39L96.42.43v130.53Z"/>
  <path fill="#d3d3d3" fill-rule="evenodd" d="M15.83 148.3V61.8l65.03-31.75v86.5Zm.46-.97v-85L80.4 31.02v85Z"/>
  <path fill="#ededed" d="M16.29 77.93v-15.6L80.4 31.02V46.6Z"/>
  <path fill="#fff" d="M16.29 147.33V77.57L80.4 46.25v69.77Z"/>
  <path fill="#f8f8f8" d="M16.29 77.27v1.3l64.11-31.3v-1.31z"/>
  <path fill="none" stroke="#dcdcdc" stroke-miterlimit="10" stroke-width=".6" d="M.6 56.22h83.84M.6 55.78h83.84" transform="matrix(.76465 -.3735 0 -1.25275 15.83 148.3)"/>
  <g clip-path="url(#b)" transform="matrix(.16413 -.08017 0 -.2689 16.29 77.27)">
    <g clip-path="url(#c)">
      <path fill="url(#d)" d="M358.19 14.4a11.28 11.28 0 1 0 15.95 15.95A11.28 11.28 0 0 0 358.2 14.4zm3.36 3.36a6.53 6.53 0 1 1 9.23 9.24 6.53 6.53 0 0 1-9.23-9.24z" transform="matrix(1 0 0 -1 0 55.56)"/>
      <path fill="none" stroke="#a0a0a0" stroke-width=".18" d="M358.19 41.16a11.28 11.28 0 1 1 15.95-15.96 11.28 11.28 0 0 1-15.95 15.96zm3.36-3.36a6.53 6.53 0 1 0 9.23-9.24 6.53 6.53 0 0 0-9.23 9.24z"/>
      <g clip-path="url(#e)" opacity=".81" transform="matrix(1 0 0 -1 0 55.56)">
        <path fill="red" stroke="red" stroke-linecap="round" stroke-linejoin="round" stroke-width=".18" d="M358.19 14.4c-.89.88-1.6 1.87-2.12 2.93l4.25 2.13a6.59 6.59 0 0 1 2.92-2.93l-2.12-4.25a11.42 11.42 0 0 0-2.93 2.12zm-2.12 13.03a11.22 11.22 0 0 0 5.05 5.04l2.12-4.25a6.5 6.5 0 0 1-2.92-2.92zm15.14-15.15-2.12 4.26a6.57 6.57 0 0 1 2.92 2.92l4.25-2.13a11.4 11.4 0 0 0-5.05-5.05zm-2.12 15.94 2.12 4.25a11.29 11.29 0 0 0 5.05-5.04l-4.25-2.13a6.48 6.48 0 0 1-2.92 2.92z"/>
      </g>
      <path d="M7.82 42.19c-2.17 0-3.25 1.17-3.25 3.5 0 .76.11 1.4.33 1.94.22.54.56.96 1.05 1.25.48.3 1.1.44 1.87.44.76 0 1.38-.15 1.86-.44.48-.29.83-.7 1.05-1.25a6.07 6.07 0 0 0 .21-3.13 3.25 3.25 0 0 0-.4-1.04c-.2-.32-.45-.58-.78-.79l.72-.94a.19.19 0 0 0 .05-.14.2.2 0 0 0-.06-.15.22.22 0 0 0-.15-.06H9.25a.38.38 0 0 0-.33.17l-.46.68c-.19-.03-.4-.04-.64-.04Zm-.48 1.74a.21.21 0 0 0-.05.13c0 .05.03.1.07.15.04.04.1.07.16.07h.9c.08 0 .13-.03.17-.1l.51-.66c.16.18.28.4.35.63.08.24.12.48.14.7.02.24.03.51.03.85 0 .83-.11 1.52-.35 2.04-.23.53-.72.79-1.45.79-.74 0-1.23-.26-1.46-.8a6.4 6.4 0 0 1-.23-3.39c.08-.39.26-.71.53-.97s.65-.39 1.16-.39l.14.01zm4.87-.34v2.91c.03.2.14.3.33.33h.7a.3.3 0 0 0 .23-.1c.06-.07.1-.14.1-.23v-2.88c0-.22.01-.38.04-.46a.25.25 0 0 1 .16-.18c.08-.04.23-.05.44-.05.19 0 .35.05.5.15.13.1.24.25.33.41.07.17.11.35.11.53v2.48c.03.2.13.3.33.33h.7c.2-.02.3-.13.33-.33v-3.77c-.03-.2-.13-.3-.33-.33h-.67c-.2.02-.3.13-.32.33v.35a1.67 1.67 0 0 0-.56-.57 1.37 1.37 0 0 0-.75-.22c-.28 0-.5.02-.7.05-.18.04-.35.1-.5.2a.9.9 0 0 0-.34.39c-.08.17-.13.4-.13.66zm5.17 1.05c0 .38.05.7.15 1a1.83 1.83 0 0 0 1.16 1.2c.29.1.62.15 1 .15 1.35 0 2.02-.72 2.02-2.15a.36.36 0 0 0-.33-.37h-2.73c0-.43.1-.78.29-1.04.19-.27.49-.4.9-.4.6 0 1.12.2 1.56.62l.08.02a.1.1 0 0 0 .07-.03.1.1 0 0 0 .04-.08l.06-.68c0-.05-.02-.1-.06-.11a3.67 3.67 0 0 0-1.75-.48c-.51 0-.96.09-1.33.27-.37.17-.65.43-.85.78-.19.35-.29.79-.29 1.3zm1.28.38h1.93c0 .82-.3 1.24-.9 1.24a.89.89 0 0 1-.76-.36 1.43 1.43 0 0 1-.27-.88zm3.73-2.26a.12.12 0 0 0-.08.12l.16.85c.01.08.05.11.12.11.04 0 .07-.01.1-.05a1.78 1.78 0 0 1 1.43-.7c.22 0 .4.03.54.1.13.06.2.2.2.4 0 .13-.06.24-.17.32a.97.97 0 0 1-.39.17l-.56.1c-.38.09-.7.25-.97.49-.26.24-.4.54-.4.9 0 .35.08.63.23.85.15.21.34.36.6.45.25.08.56.12.91.12.23 0 .54-.04.95-.12.4-.08.61-.19.61-.32l-.12-.72c-.02-.08-.06-.12-.13-.12-.03 0-.05 0-.07.03a1.9 1.9 0 0 1-1.32.53c-.21 0-.37-.03-.5-.1-.1-.05-.17-.17-.17-.36 0-.1.05-.2.15-.28.1-.08.2-.13.33-.15l.62-.12c.24-.04.47-.14.69-.27.2-.14.38-.3.5-.5.13-.21.2-.44.2-.7 0-.53-.16-.92-.46-1.15-.3-.23-.73-.35-1.28-.35a3.18 3.18 0 0 0-1.73.47zm5.51-.46c-.65 0-.97.52-.97 1.56v2.23h-.3c-.2.02-.32.14-.34.33v.08c.02.2.13.3.33.33h.33v.94c.02.2.14.3.34.32h.6a.3.3 0 0 0 .23-.1.3.3 0 0 0 .1-.22v-.94h.98c.2-.02.3-.13.33-.33v-.08c-.03-.2-.14-.3-.34-.33h-.97v-2.08c0-.62.12-.92.34-.92.14 0 .27.02.4.07.12.05.23.1.33.17l.17.1c.02 0 .04 0 .06-.02a.12.12 0 0 0 .05-.06l.13-.47v-.04c0-.05-.02-.09-.06-.1a3.79 3.79 0 0 0-1.75-.45zm2.67.43v3.77c.02.2.13.3.33.33h.67a.3.3 0 0 0 .22-.1.37.37 0 0 0 .1-.23v-3.77c-.02-.2-.13-.3-.32-.33h-.67c-.2.02-.3.14-.33.33Zm.26 5.1c-.2.02-.3.14-.33.33v.63c.03.2.14.3.33.33h.8c.1-.01.18-.04.23-.1a.4.4 0 0 0 .1-.23v-.63c-.03-.2-.14-.3-.33-.33zm1.94-3.27c0 .52.09.96.26 1.33.18.36.44.64.79.83.34.18.78.27 1.31.27s.96-.09 1.31-.27c.35-.2.61-.47.78-.83.18-.37.26-.8.26-1.33a3 3 0 0 0-.15-1 1.78 1.78 0 0 0-1.2-1.13 3.35 3.35 0 0 0-1-.14c-.5 0-.93.09-1.29.25-.34.17-.61.42-.8.75-.18.34-.27.76-.27 1.27Zm2.36-1.47c.31 0 .54.07.68.22.15.16.24.34.27.55a6.3 6.3 0 0 1 0 1.66.92.92 0 0 1-.27.52c-.15.14-.38.22-.68.22-.3 0-.53-.08-.68-.22a.92.92 0 0 1-.27-.52 6.05 6.05 0 0 1 0-1.66 1 1 0 0 1 .27-.55c.14-.15.37-.22.68-.22zm3.22-.36v3.83c.01.1.05.17.1.23a.4.4 0 0 0 .23.1h.64a.4.4 0 0 0 .22-.1c.06-.06.1-.14.1-.23v-.58c.16.29.37.52.64.7.28.17.57.26.9.26.34 0 .62-.05.84-.14a.9.9 0 0 0 .48-.45 2 2 0 0 0 .15-.85v-2.77c-.03-.2-.14-.3-.34-.33h-.7c-.19.02-.3.14-.32.33v2.74c0 .27-.04.45-.1.57-.07.1-.22.16-.46.16a.88.88 0 0 1-.53-.16 1.21 1.21 0 0 1-.5-.98v-2.33a.37.37 0 0 0-.1-.23.37.37 0 0 0-.22-.1h-.7c-.2.02-.3.14-.33.33z"/>
      <path stroke="#000" stroke-miterlimit="10" stroke-width="1.13" d="M47 50.8h8.71V40.7H47Z"/>
      <path fill="#fff" d="M49.59 42.73v.08c.01.1.05.17.1.23a.4.4 0 0 0 .22.1h.88v4.9a3.42 3.42 0 0 0-1-.12.32.32 0 0 0-.23.09.37.37 0 0 0-.13.24v.08c.03.19.14.3.33.33.72 0 1.26.18 1.62.56.07.06.14.1.23.1h.21a.35.35 0 0 0 .33-.32v-5.86h.8a.44.44 0 0 0 .22-.1.4.4 0 0 0 .1-.23v-.08c-.03-.2-.14-.3-.33-.33h-3.03c-.19.02-.3.13-.32.33z"/>
      <path d="m61.14 49.14-3.63-8.87c-.08-.2-.19-.28-.32-.28a.28.28 0 0 0-.2.08.28.28 0 0 0-.1.22c0 .04.03.1.07.2l3.64 8.87.06.14c.02.04.05.07.1.1a.29.29 0 0 0 .36-.03.3.3 0 0 0 .1-.22c0-.04-.03-.1-.08-.21zm1.08-5.88c-.02 0-.02.03-.02.06s0 .05.02.06l.41.66c.02.04.05.05.1.05s.08-.02.1-.07a1.45 1.45 0 0 1 1.33-.88c.3 0 .52.06.66.18.15.11.24.27.27.45a7.14 7.14 0 0 1 .03 1.43c-.01.21-.07.4-.15.57-.09.17-.21.26-.38.26-.26 0-.44-.05-.57-.15a2.1 2.1 0 0 1-.36-.4c-.12-.16-.23-.24-.34-.26h-.35c-.2.02-.3.13-.33.34v3.22c.02.2.13.31.33.33h2.96a.4.4 0 0 0 .23-.1.37.37 0 0 0 .1-.23v-.35c-.03-.2-.13-.3-.33-.33h-2v-1.45a2.43 2.43 0 0 0 1.57-.04c.26-.1.47-.25.63-.45.16-.19.28-.42.37-.7a3.45 3.45 0 0 0-.05-1.96 1.84 1.84 0 0 0-1.25-1.17c-.3-.1-.65-.14-1.04-.14s-.76.1-1.1.29c-.35.19-.63.45-.84.78zM9 31.54a2.1 2.1 0 0 0 1.66-2.04c0-.56-.18-1.04-.54-1.45-.37-.42-.91-.62-1.65-.62a3.2 3.2 0 0 0-1.93.53l-.45-.45c-.06-.05-.12-.08-.18-.08-.08 0-.13.02-.14.05a.5.5 0 0 0-.03.22v1.76c0 .12 0 .2.03.23.02.03.09.05.2.05a.5.5 0 0 0 .12-.01l.07-.04.02-.06.01-.11c.02-.34.11-.62.27-.86.17-.24.38-.4.63-.5a3.4 3.4 0 0 1 1.38-.28c.45 0 .78.12.97.35.2.23.29.5.29.78 0 .3-.13.58-.39.84a.7.7 0 0 1-.34.2l-.89.22c-.58.13-.98.23-1.2.32a2 2 0 0 0-.65.45c-.35.37-.52.8-.52 1.29 0 .55.18 1 .56 1.38.37.37.9.56 1.6.56.66 0 1.2-.18 1.66-.53l.43.42c.08.08.14.11.2.11.07 0 .12-.02.14-.05a.54.54 0 0 0 .03-.22v-1.77c0-.12-.02-.2-.04-.22-.02-.03-.09-.05-.2-.05-.1 0-.15.01-.17.03-.03.03-.05.1-.07.22-.07.42-.22.75-.44 1-.23.26-.47.44-.72.52-.25.08-.52.13-.81.13-.44 0-.75-.11-.95-.32a1 1 0 0 1-.29-.7c0-.27.1-.5.3-.67.19-.17.4-.28.63-.33zm5.77-.07c-.16.03-.37.05-.62.05a1.19 1.19 0 0 1-.99-.46 1.32 1.32 0 0 1-.18-.48 3.58 3.58 0 0 1-.08-.85c0-1.24.44-1.87 1.34-1.87.59 0 .99.27 1.2.8.04.06.06.1.08.11.02.02.08.03.16.03.16 0 .23-.05.23-.14a.65.65 0 0 0-.07-.21 2.38 2.38 0 0 0-.26-.4c-.12-.16-.31-.3-.58-.4a2.4 2.4 0 0 0-.94-.17c-.74 0-1.32.2-1.75.61-.43.4-.65.94-.65 1.59 0 .62.2 1.15.61 1.58.41.44 1.02.65 1.84.65 1.12 0 1.68-.3 1.68-.89 0-.2-.06-.34-.18-.44a.61.61 0 0 0-.43-.17.6.6 0 0 0-.41.17.55.55 0 0 0-.19.44c0 .18.06.33.2.45zm6.7-1.83c0-.62-.21-1.14-.65-1.55a2.54 2.54 0 0 0-1.81-.61c-.78 0-1.39.2-1.82.61-.43.4-.65.93-.65 1.55 0 .67.22 1.2.66 1.63.43.43 1.03.64 1.8.64s1.37-.21 1.81-.64c.44-.42.66-.96.66-1.63zm-2.46-1.78c.2 0 .37.03.51.07.15.06.27.13.35.24.1.11.16.21.2.31.06.1.1.24.12.41a4.11 4.11 0 0 1 .04.86c0 .66-.06 1.1-.2 1.32-.2.33-.55.5-1.02.5-.52 0-.87-.2-1.06-.57a3.12 3.12 0 0 1-.17-1.25v-.44l.04-.42a1.19 1.19 0 0 1 .32-.72.9.9 0 0 1 .35-.24c.14-.04.32-.07.52-.07zm5.69-.33c-.23.02-.68.03-1.33.03-.14 0-.55 0-1.22-.03V28h.67v2.98c0 .19-.04.3-.1.33a1.7 1.7 0 0 1-.57.05v.46l1.6.07v-1.1c.27.74.7 1.1 1.29 1.1.27 0 .5-.07.71-.21a.65.65 0 0 0 .31-.58.54.54 0 0 0-.18-.43.6.6 0 0 0-.4-.16.6.6 0 0 0-.42.16.54.54 0 0 0-.18.43c0 .18.07.32.19.45a.97.97 0 0 1-.6-.2 1.2 1.2 0 0 1-.37-.49 3.02 3.02 0 0 1-.24-1.17v-1.7h.84zm6.14 2.11h-2.92c0-1.19.45-1.78 1.37-1.78.32 0 .6.07.85.22.25.14.43.32.53.56.04.08.06.13.1.16.01.03.07.04.14.04.16 0 .24-.06.24-.18a.6.6 0 0 0-.1-.26 1.61 1.61 0 0 0-.9-.77c-.28-.1-.6-.15-.95-.15-.76 0-1.38.2-1.83.62-.46.42-.69.95-.69 1.6 0 .64.22 1.16.64 1.58.42.42 1 .63 1.75.63.66 0 1.18-.17 1.54-.52a2 2 0 0 0 .54-1.49c0-.12-.02-.2-.06-.22-.05-.03-.13-.04-.25-.04zm-2.92.32h2.31c-.03 1.07-.42 1.6-1.16 1.6-.4 0-.7-.16-.92-.5-.13-.2-.2-.57-.23-1.1zm9.06 1.11c0-.2-.08-.38-.23-.53a.73.73 0 0 0-.53-.22c-.2 0-.38.07-.53.22a.73.73 0 0 0-.22.53c0 .2.07.38.22.53a.73.73 0 0 0 1.06 0 .72.72 0 0 0 .23-.53zm0-2.78c0-.2-.08-.39-.23-.54a.73.73 0 0 0-.53-.22c-.2 0-.38.08-.53.22a.73.73 0 0 0-.22.54c0 .2.07.38.22.53.15.15.33.22.53.22s.39-.07.53-.22a.72.72 0 0 0 .23-.53z"/>
      <path fill="#ff3b21" stroke="#ff3b21" stroke-miterlimit="10" stroke-width="1.13" d="M41.55 35.46h8.96v-9.63h-8.95z"/>
      <path fill="#fff" d="M46.68 33.56v-5.57h1.35v-.46c-.28.02-.93.03-1.93.03-1 0-1.63 0-1.92-.03V28h1.34v5a4 4 0 0 0-1.25-.2h-.2v.46h.2c.8 0 1.45.18 1.94.55.06.04.13.06.21.06.12 0 .19-.02.22-.06a.57.57 0 0 0 .04-.24z"/>
      <path d="M104.97 45.93v-2.8c0-.18-.02-.29-.05-.32-.04-.04-.14-.06-.3-.06a.7.7 0 0 0-.28.04c-.03.03-.06.1-.07.24a3.2 3.2 0 0 1-1.04 1.94c-.55.47-1.18.71-1.91.71-1.11 0-2-.33-2.67-1-.57-.6-.86-1.6-.86-3.01 0-1.31.26-2.28.77-2.9.63-.75 1.56-1.12 2.8-1.12.74 0 1.41.23 2.02.67.6.45.93 1.07.98 1.88 0 .1.03.17.07.2a.5.5 0 0 0 .23.03c.12 0 .2-.02.24-.05.05-.03.07-.1.07-.23 0-.8-.37-1.52-1.1-2.16a4.14 4.14 0 0 0-2.82-.95c-1.6 0-2.89.43-3.84 1.3a4.31 4.31 0 0 0-1.42 3.33A4.3 4.3 0 0 0 97.2 45c.95.87 2.23 1.3 3.84 1.3.98 0 1.84-.3 2.57-.89l.87.77c.08.08.17.12.24.12.11 0 .18-.03.2-.07a.71.71 0 0 0 .04-.3zm7.93-5.9a2.8 2.8 0 0 0-.87-2.1 3.45 3.45 0 0 0-2.46-.82c-1.05 0-1.87.27-2.46.82a2.76 2.76 0 0 0-.87 2.1c0 .9.3 1.64.88 2.21.59.58 1.4.87 2.45.87a3.4 3.4 0 0 0 2.45-.87c.59-.57.89-1.31.89-2.2zm-3.33-2.4c.27 0 .5.03.7.1.2.06.36.17.47.32a1.63 1.63 0 0 1 .43.97 6.16 6.16 0 0 1 .06 1.16c0 .9-.09 1.5-.27 1.79-.28.44-.74.67-1.39.67-.7 0-1.17-.26-1.44-.76a4.3 4.3 0 0 1-.22-1.7v-.6l.06-.56a1.65 1.65 0 0 1 .43-.97.99.99 0 0 1 .47-.32c.2-.07.43-.1.7-.1zm4.36.17h.9v4.04c0 .24-.04.4-.13.44-.1.05-.35.07-.77.07v.61l2.25.1v-1.4a2.4 2.4 0 0 0 2.29 1.4c.67 0 1.17-.14 1.5-.43.34-.3.51-.77.51-1.45V37.8h.9v-.62a41.56 41.56 0 0 1-3.29 0v.62h.9v3.53c0 .47-.06.8-.18.99a.6.6 0 0 1-.54.28 2 2 0 0 1-1.95-2.07V37.8h.9v-.62a41.56 41.56 0 0 1-3.29 0zm10.52 3.23c.57-.1.98-.19 1.23-.26.24-.07.48-.2.72-.37.48-.38.72-.84.72-1.39 0-.3-.05-.57-.14-.8a1.3 1.3 0 0 0-.4-.54 3.48 3.48 0 0 0-.5-.33 1.92 1.92 0 0 0-.58-.16 7.6 7.6 0 0 0-.8-.07c-.63 0-1.14.13-1.54.41a3.58 3.58 0 0 0-.34-.22c-.19-.13-.32-.2-.4-.2-.1 0-.16.03-.19.08a.68.68 0 0 0-.04.29v1.43c0 .16.01.26.04.31.04.04.12.06.27.06.1 0 .18 0 .22-.02.04-.02.07-.07.1-.16a2.66 2.66 0 0 1 .48-.96c.13-.18.32-.31.55-.41.25-.1.53-.14.85-.14 1 0 1.5.32 1.5.98 0 .18-.06.34-.15.46a.9.9 0 0 1-.42.31 3.34 3.34 0 0 1-.9.25c-.42.07-.71.13-.88.17-.17.03-.35.1-.57.18-.21.1-.4.22-.57.36-.35.3-.52.67-.52 1.1 0 .27.05.51.14.72.1.21.23.38.4.5l.5.28c.17.08.36.13.58.15l.47.05a4 4 0 0 0 1.64-.23c.34.16.53.25.58.25.1 0 .18-.03.2-.07a.8.8 0 0 0 .04-.3V41.7c0-.17-.01-.27-.05-.31-.03-.04-.12-.06-.26-.06-.13 0-.22.01-.25.05a.52.52 0 0 0-.05.21c-.08.73-.59 1.1-1.55 1.1-.98 0-1.46-.27-1.46-.81a.6.6 0 0 1 .12-.38c.08-.1.21-.2.38-.25a6.59 6.59 0 0 1 .83-.22zm6.02 1.35v-3.61c0-.76.26-1.14.76-1.14.21 0 .4.1.55.3.16.19.24.5.24.9v.67h.6v-.7c0-.48-.13-.89-.41-1.21a1.48 1.48 0 0 0-1.16-.48c-1.38 0-2.07.56-2.07 1.68v3.59h-1.07v.46a1.7 1.7 0 0 1 1.43.8c.34.53.51 1.14.52 1.85h.61v-2.5h1.91v-.61zm6.94-5.2c-.3.03-.91.04-1.8.04l-1.65-.04v.62h.9v4.04c0 .24-.04.4-.13.44a2.3 2.3 0 0 1-.77.07v.61l2.17.1V41.6c.36.99.94 1.48 1.74 1.48.37 0 .7-.1.97-.3a.9.9 0 0 0 .42-.77.74.74 0 0 0-.24-.59.82.82 0 0 0-.56-.21c-.2 0-.4.07-.55.2a.74.74 0 0 0-.25.6c0 .23.09.43.25.6-.3 0-.57-.09-.8-.26a1.5 1.5 0 0 1-.5-.66 4.66 4.66 0 0 1-.33-1.6V37.8h1.13zm7.99.95a2.03 2.03 0 0 0-1.88-1.02c-.74 0-1.32.11-1.73.36-.42.23-.62.68-.62 1.32v3.05c0 .24-.05.4-.14.44-.1.05-.35.07-.76.07v.61l2.39.1v-4.45c0-.4.06-.68.17-.82.11-.14.4-.21.87-.21.48 0 .87.16 1.18.48.3.32.45.75.45 1.28v2.5c0 .24-.05.4-.14.44a2.3 2.3 0 0 1-.76.07v.61l2.39.1v-4.75c0-.25.04-.4.13-.44.1-.05.35-.07.77-.07v-.62l-2.31-.07zm5.57 4.94V37.8h.8v-.62l-1.52.04-1.6-.04v.62h.9v4.04c0 .24-.04.4-.13.44-.09.05-.33.07-.73.07v.61zm.13 2.18c0-.28-.1-.53-.3-.72a1 1 0 0 0-.73-.3 1 1 0 0 0-.71.3c-.2.2-.3.44-.3.72 0 .28.1.52.3.72.2.2.44.3.71.3a1 1 0 0 0 .73-.3c.2-.19.3-.43.3-.72zm5.04-8.07c-.32.03-.92.04-1.8.04l-1.65-.04v.62h.9v4.04c0 .24-.05.4-.14.44-.1.05-.34.07-.76.07v.61l2.17.1V41.6c.36.99.94 1.48 1.74 1.48.36 0 .69-.1.97-.3a.9.9 0 0 0 .41-.77.74.74 0 0 0-.24-.59.8.8 0 0 0-.55-.21c-.21 0-.4.07-.56.2a.74.74 0 0 0-.24.6c0 .23.08.43.25.6-.3 0-.57-.09-.8-.26-.23-.17-.4-.39-.51-.66a4.3 4.3 0 0 1-.33-1.6V37.8h1.14zm8.31 2.85h-3.95c0-1.6.62-2.4 1.85-2.4.43 0 .81.1 1.16.28.34.2.58.45.72.77a.7.7 0 0 0 .11.22c.04.03.1.05.21.05.21 0 .32-.08.32-.24a.9.9 0 0 0-.13-.35 2.17 2.17 0 0 0-1.23-1.04 3.6 3.6 0 0 0-1.27-.21c-1.04 0-1.87.28-2.49.84a2.79 2.79 0 0 0-.93 2.18c0 .85.29 1.56.86 2.12.57.58 1.36.86 2.37.86.9 0 1.6-.24 2.08-.7.5-.5.74-1.17.74-2.02 0-.17-.03-.27-.09-.3a.7.7 0 0 0-.33-.06zm-3.95.44h3.13c-.05 1.44-.57 2.17-1.57 2.17a1.4 1.4 0 0 1-1.25-.68 3.31 3.31 0 0 1-.31-1.5zm12.08 5.79V37.8h.9v-.62l-1.6.04-1.61-.04v.62h.9v7.23c0 .24-.05.39-.14.44a2.3 2.3 0 0 1-.76.07v.61Zm7.28-6.23h-3.95c0-1.6.62-2.4 1.86-2.4.42 0 .81.1 1.15.28.34.2.58.45.72.77a.7.7 0 0 0 .12.22c.03.03.1.05.2.05.22 0 .32-.08.32-.24 0-.08-.04-.2-.13-.35a2.17 2.17 0 0 0-1.23-1.04 3.52 3.52 0 0 0-1.27-.21c-1.04 0-1.86.28-2.48.84a2.8 2.8 0 0 0-.93 2.18c0 .85.28 1.56.85 2.12a3.2 3.2 0 0 0 2.38.86c.9 0 1.59-.24 2.08-.7.48-.5.73-1.17.73-2.02 0-.17-.03-.27-.09-.3a.7.7 0 0 0-.33-.06zm-3.95.44h3.13c-.04 1.44-.57 2.17-1.57 2.17a1.4 1.4 0 0 1-1.24-.68 3.31 3.31 0 0 1-.32-1.5zm11.91.56c.57-.1.98-.19 1.23-.26s.49-.2.72-.37c.48-.38.72-.84.72-1.39a2 2 0 0 0-.14-.8 1.3 1.3 0 0 0-.4-.54 3.48 3.48 0 0 0-.5-.33 1.92 1.92 0 0 0-.58-.16 8.43 8.43 0 0 0-.8-.07c-.62 0-1.14.13-1.54.41a5.17 5.17 0 0 0-.73-.41c-.1 0-.17.02-.2.07a.74.74 0 0 0-.04.29v1.43c0 .16.02.26.05.31.03.04.12.06.27.06.1 0 .18 0 .21-.02.04-.02.07-.07.1-.16.05-.18.12-.34.18-.48.06-.14.17-.3.3-.48.14-.18.32-.31.56-.41.24-.1.52-.14.84-.14 1 0 1.5.32 1.5.98a.7.7 0 0 1-.15.46.9.9 0 0 1-.42.31 3.36 3.36 0 0 1-.89.25c-.42.07-.72.13-.88.17a2.51 2.51 0 0 0-1.14.54c-.35.3-.53.67-.53 1.1 0 .27.05.51.15.72.1.21.23.38.4.5l.5.28c.17.08.36.13.57.15l.47.05.32.02c.55 0 1-.09 1.32-.25a3 3 0 0 0 .59.25c.1 0 .17-.03.2-.07a.7.7 0 0 0 .03-.3V41.7c0-.17-.01-.27-.04-.31-.03-.04-.12-.06-.27-.06-.13 0-.21.01-.24.05-.03.03-.05.1-.06.21-.07.73-.59 1.1-1.54 1.1-.98 0-1.47-.27-1.47-.81 0-.15.04-.28.13-.38.08-.1.2-.2.38-.25a6.59 6.59 0 0 1 .82-.22zm9.81 1.07-2.82-5.97c-.2-.43-.49-.8-.86-1.1-.37-.31-.8-.46-1.26-.46-.39 0-.72.11-.99.35s-.4.52-.4.85c0 .25.07.43.22.56.15.14.32.2.52.2a.8.8 0 0 0 .55-.2.72.72 0 0 0 .21-.55c0-.34-.14-.57-.42-.69a.9.9 0 0 1 .32-.05c.21 0 .41.04.59.14.18.09.34.22.47.4a4.67 4.67 0 0 1 .57.98l.3.62-2.44 5.2h-.84v.6l.7-.01a31.68 31.68 0 0 1 2.41.02v-.61h-.7l1.66-3.54 1.5 3.22c.05.04.06.1.06.16 0 .1-.2.16-.6.16v.6l1.18-.03c.37 0 .72.01 1.03.04v-.61a4 4 0 0 1-.6-.04.6.6 0 0 1-.26-.08.5.5 0 0 1-.1-.16zm1.9-4.3h.9v4.04c0 .24-.04.4-.13.44-.1.05-.35.07-.77.07v.61l2.25.1v-1.4a2.4 2.4 0 0 0 2.3 1.4c1.13 0 1.78-.41 1.97-1.25.47.84 1.2 1.26 2.2 1.26.7 0 1.2-.15 1.53-.45.33-.3.49-.77.49-1.44V37.8h.9v-.62a41.56 41.56 0 0 1-3.29 0v.62h.9v3.53c0 .48-.06.81-.18 1a.62.62 0 0 1-.55.27 2 2 0 0 1-1.95-2.07V37.8h.9v-.62a41.56 41.56 0 0 1-3.29 0v.62h.9v3.53c0 .48-.06.81-.18 1a.62.62 0 0 1-.56.27 2 2 0 0 1-1.32-.54 1.92 1.92 0 0 1-.62-1.53V37.8h.9v-.62a41.56 41.56 0 0 1-3.3 0zm17.42 7.1-1.97-1.06-.4.48.69.81.78.92c.2.23.41.34.61.34.21 0 .4-.08.55-.25a.8.8 0 0 0 .24-.56.61.61 0 0 0-.1-.34.64.64 0 0 0-.16-.2l-.24-.14zm.88-4.87h-3.96c0-1.6.63-2.4 1.86-2.4.43 0 .81.1 1.15.28.35.2.59.45.73.77a.7.7 0 0 0 .11.22c.04.03.1.05.21.05.21 0 .32-.08.32-.24a.8.8 0 0 0-.14-.35 2.17 2.17 0 0 0-1.22-1.04 3.6 3.6 0 0 0-1.27-.21c-1.04 0-1.87.28-2.49.84a2.79 2.79 0 0 0-.93 2.18c0 .85.29 1.56.86 2.12a3.2 3.2 0 0 0 2.37.86c.9 0 1.6-.24 2.08-.7.49-.5.74-1.17.74-2.02 0-.17-.03-.27-.09-.3a.7.7 0 0 0-.33-.06zm-3.96.44H217c-.04 1.44-.56 2.17-1.57 2.17a1.4 1.4 0 0 1-1.24-.68 3.32 3.32 0 0 1-.31-1.5zm7.65 1.91v-3.61c0-.76.25-1.14.75-1.14.21 0 .4.1.55.3.16.19.23.5.23.9v.67h.62v-.7c0-.48-.14-.89-.42-1.21a1.46 1.46 0 0 0-1.16-.48c-1.38 0-2.07.56-2.07 1.68v3.59h-1.07v.46c.6.02 1.08.29 1.42.8.34.53.52 1.14.53 1.85h.62v-2.5h1.9v-.61zm6.94-5.2c-.32.03-.92.04-1.8.04l-1.66-.04v.62h.9v4.04c0 .24-.04.4-.13.44-.09.05-.35.07-.77.07v.61l2.18.1V41.6c.35.99.93 1.48 1.73 1.48.37 0 .7-.1.97-.3a.9.9 0 0 0 .42-.77.74.74 0 0 0-.24-.59.81.81 0 0 0-.56-.21.8.8 0 0 0-.55.2c-.17.15-.24.34-.24.6 0 .23.08.43.24.6-.3 0-.57-.09-.8-.26a1.5 1.5 0 0 1-.5-.66 4.24 4.24 0 0 1-.33-1.6V37.8h1.14zm5.19 5.89V37.8h.81v-.62l-1.53.04-1.59-.04v.62h.9v4.04c0 .24-.05.4-.13.44-.09.05-.33.07-.73.07v.61zm.13 2.18c0-.28-.1-.53-.3-.72a.99.99 0 0 0-.71-.3c-.29 0-.52.1-.72.3-.2.2-.3.44-.3.72 0 .28.1.52.3.72.2.2.43.3.72.3a1 1 0 0 0 .71-.3c.2-.19.3-.43.3-.72zm6.66-6.21v1.82c0 .37-.16.75-.47 1.12-.3.38-.7.56-1.15.56-.47 0-.88-.2-1.23-.6-.35-.4-.53-1.02-.53-1.87 0-.82.15-1.44.47-1.86.3-.42.68-.63 1.13-.63.64 0 1.17.3 1.58.9.13.2.2.38.2.56zm2.31-4.4a47.87 47.87 0 0 1-3.3 0v.62h.9v2.55a2.73 2.73 0 0 0-1.82-.7 3.2 3.2 0 0 0-2.26.8 2.81 2.81 0 0 0-.88 2.18c0 .9.3 1.61.9 2.16.6.54 1.39.82 2.35.82a2.36 2.36 0 0 0 1.98-1.04l.7 1.04h.53v-7.81h.9zm5.81 3.49a2.03 2.03 0 0 0-1.88-1.02 3.4 3.4 0 0 0-1.74.36c-.41.23-.62.68-.62 1.32v3.05c0 .24-.05.4-.14.44a2.2 2.2 0 0 1-.76.07v.61l2.39.1v-4.45c0-.4.06-.68.17-.82.11-.14.4-.21.88-.21s.87.16 1.17.48c.3.32.45.75.45 1.28v2.5c0 .24-.05.4-.14.44-.09.05-.35.07-.77.07v.61l2.4.1v-4.75c0-.25.05-.4.14-.44.09-.05.34-.07.76-.07v-.62l-2.31-.07zm8.67 1.9h-3.95c0-1.6.62-2.4 1.86-2.4.42 0 .8.1 1.15.28.34.2.58.45.72.77a.7.7 0 0 0 .11.22c.04.03.11.05.21.05.21 0 .32-.08.32-.24a.9.9 0 0 0-.13-.35 2.16 2.16 0 0 0-1.22-1.04c-.38-.14-.8-.21-1.28-.21-1.04 0-1.87.28-2.49.84a2.79 2.79 0 0 0-.93 2.18c0 .85.3 1.56.86 2.12a3.2 3.2 0 0 0 2.38.86c.9 0 1.59-.24 2.07-.7.5-.5.74-1.17.74-2.02 0-.17-.03-.27-.09-.3a.71.71 0 0 0-.33-.06zm-3.95.44h3.13c-.05 1.44-.57 2.17-1.57 2.17a1.4 1.4 0 0 1-1.25-.68 3.26 3.26 0 0 1-.3-1.5zm17.02-2.67v-.62l-2.4-.07v.64a2.82 2.82 0 0 0-1.83-.64c-.96 0-1.72.27-2.29.82a2.86 2.86 0 0 0-.85 2.14c0 .91.3 1.63.91 2.18.62.54 1.4.82 2.38.82.66 0 1.25-.2 1.76-.59v2.55c0 .24-.05.39-.14.44-.09.05-.34.07-.77.07v.61l2.32.1v-7.94c0-.25.05-.4.14-.44.1-.05.35-.07.76-.07zm-2.4 4c-.4.53-.92.8-1.56.8a1.6 1.6 0 0 1-1.4-.68c-.22-.34-.33-.96-.33-1.85v-.51c0-.13.02-.3.05-.53a1.78 1.78 0 0 1 .41-1 1 1 0 0 1 .47-.34c.19-.08.4-.11.66-.11.67 0 1.24.32 1.7.95zm8.62-3.67a2.03 2.03 0 0 0-1.88-1.02c-.74 0-1.32.11-1.73.36-.42.23-.63.68-.63 1.32v3.05c0 .24-.04.4-.13.44-.1.05-.35.07-.77.07v.61l2.4.1v-4.45c0-.4.05-.68.17-.82.1-.14.4-.21.87-.21.48 0 .87.16 1.17.48.3.32.45.75.45 1.28v2.5c0 .24-.04.4-.13.44-.1.05-.35.07-.77.07v.61l2.39.1v-4.75c0-.25.05-.4.14-.44.09-.05.35-.07.77-.07v-.62l-2.32-.07zm9.86 3.36V38.7c0-.13 0-.21.02-.24a1.75 1.75 0 0 1 1.51-.89c.48 0 .9.2 1.24.62.35.41.52 1.04.52 1.9a3.1 3.1 0 0 1-.45 1.81c-.31.42-.7.63-1.16.63a2 2 0 0 1-1.66-.81.78.78 0 0 1-.02-.24zm.9-6.84a48.28 48.28 0 0 1-3.3 0v.6h.9v6.6c0 .24-.04.39-.13.43-.1.05-.35.07-.77.07v.61l2.32.1v-.63c.55.42 1.2.64 1.97.64.94 0 1.68-.28 2.24-.83.56-.54.84-1.26.84-2.14 0-.9-.3-1.63-.91-2.18-.6-.54-1.4-.81-2.39-.81-.64 0-1.2.2-1.68.58v-2.43h.91zm12.09 5.38c0-.84-.3-1.54-.88-2.1a3.44 3.44 0 0 0-2.46-.82c-1.05 0-1.87.27-2.46.82a2.77 2.77 0 0 0-.87 2.1c0 .9.3 1.64.88 2.21.59.58 1.4.87 2.45.87a3.4 3.4 0 0 0 2.45-.87c.59-.57.89-1.31.89-2.2zm-3.34-2.4c.27 0 .5.03.7.1a1 1 0 0 1 .47.32 1.73 1.73 0 0 1 .43.97 8.05 8.05 0 0 1 .06 1.16c0 .9-.09 1.5-.27 1.79-.28.44-.74.67-1.39.67-.7 0-1.17-.26-1.44-.76a4.5 4.5 0 0 1-.22-1.7v-.6l.06-.56a1.65 1.65 0 0 1 .43-.97 1 1 0 0 1 .47-.32c.2-.07.43-.1.7-.1zm6.7 5.44V37.8h.8v-.62l-1.53.04-1.59-.04v.62h.9v4.04c0 .24-.04.4-.13.44-.09.05-.33.07-.73.07v.61zm.12 2.18c0-.28-.1-.53-.3-.72a.99.99 0 0 0-.71-.3c-.28 0-.52.1-.72.3-.2.2-.3.44-.3.72 0 .28.1.52.3.72.2.2.44.3.72.3a1 1 0 0 0 .71-.3c.2-.19.3-.43.3-.72zm1.71-7.45h.9v4.04c0 .24-.05.4-.14.44a2.3 2.3 0 0 1-.76.07v.61l2.24.1v-1.4a2.4 2.4 0 0 0 2.3 1.4c.67 0 1.17-.14 1.5-.43.34-.3.5-.77.5-1.45V37.8h.91v-.62a41.56 41.56 0 0 1-3.3 0v.62h.9v3.53c0 .47-.05.8-.18.99a.6.6 0 0 1-.53.28 1.99 1.99 0 0 1-1.95-2.07V37.8h.9v-.62a41.56 41.56 0 0 1-3.29 0zm10.18 4.58v-3.61c0-.76.26-1.14.76-1.14.21 0 .4.1.55.3.16.19.24.5.24.9v.67h.61v-.7c0-.48-.14-.89-.42-1.21a1.47 1.47 0 0 0-1.16-.48c-1.38 0-2.07.56-2.07 1.68v3.59h-1.07v.46c.6.02 1.09.29 1.43.8.34.53.51 1.14.52 1.85h.61v-2.5h1.91v-.61z"/>
      <path fill="#039" d="m330.54 46.1 1.23-8.04c.02-.11.04-.18.06-.2.02-.02.07-.04.15-.05a8.29 8.29 0 0 1 .8-.02.3.3 0 0 0 .16-.06c.05-.03.07-.09.07-.17 0-.11-.02-.2-.08-.26-.05-.06-.1-.1-.13-.1a12.67 12.67 0 0 0-1.07.01h-.46l-.44.01-.98-.02-.97-.02c-.2 0-.29.08-.29.24 0 .12.03.2.08.27.05.05.1.08.16.1a2 2 0 0 0 .24 0c.36 0 .65.03.86.07l-.3 1.91h-3.54l-1.2-1.83c.2-.1.45-.14.76-.14.23 0 .34-.08.34-.24 0-.25-.12-.38-.35-.38-.16 0-.4 0-.72.02a25.31 25.31 0 0 1-1.36 0l-.62-.02a.24.24 0 0 0-.17.07.23.23 0 0 0-.07.17c0 .11.02.2.07.26s.1.1.15.1l.2.02c.29 0 .53.03.71.08.19.06.3.12.36.17l.2.24 5.13 7.86c.09.14.17.23.24.27.08.04.19.06.33.06.17 0 .28-.02.33-.07.06-.04.1-.14.12-.3zm-1.58-1.95-2.46-3.76h3.04z"/>
      <path d="M97.83 24.24v-2.77c0-.14 0-.22.02-.25a1.76 1.76 0 0 1 1.51-.89c.48 0 .9.2 1.24.62.35.41.52 1.05.52 1.9a3.1 3.1 0 0 1-.45 1.81c-.3.42-.69.64-1.15.64a2 2 0 0 1-1.67-.82.75.75 0 0 1-.02-.24zm.9-6.84-1.64.04-1.65-.04v.6h.9v6.6c0 .24-.05.38-.14.43-.1.04-.34.06-.76.06v.62l2.31.1v-.64c.55.43 1.21.64 1.98.64.93 0 1.68-.28 2.23-.82.56-.55.84-1.27.84-2.15 0-.9-.3-1.63-.9-2.18a3.5 3.5 0 0 0-2.4-.81c-.63 0-1.2.2-1.67.59V18h.9zm9.47 3.54c-.37-.72-1.02-1.08-1.95-1.08a5.3 5.3 0 0 0-1.6.26c-.27.1-.5.26-.67.47-.16.2-.25.46-.25.75 0 1.25 1.42 1.94 4.25 2.06v.44c0 1.03-.48 1.55-1.44 1.55a4.7 4.7 0 0 1-.94-.1c.2-.13.29-.34.29-.64 0-.26-.08-.46-.25-.6a.84.84 0 0 0-1.13 0 .74.74 0 0 0-.26.6c0 .8.78 1.2 2.34 1.2.95 0 1.66-.17 2.15-.54s.73-.86.73-1.47v-2.8c0-.13 0-.21.03-.27.02-.05.08-.1.2-.15.13-.05.32-.07.57-.07l.17-.01.11-.08a.33.33 0 0 0 .06-.21c0-.1-.02-.17-.06-.22a.23.23 0 0 0-.13-.08l-.23-.02h-.63c-.32 0-.58.04-.78.1a.73.73 0 0 0-.42.27c-.07.12-.11.22-.13.3-.02.09-.03.2-.03.34zm-.22 2.05a5.8 5.8 0 0 1-1.23-.18 3.35 3.35 0 0 1-.73-.27c-.2-.11-.38-.26-.53-.47-.15-.2-.23-.44-.23-.71 0-.29.11-.53.34-.73.24-.2.52-.3.85-.3.11 0 .24.01.39.05.14.03.3.1.5.18.18.09.34.24.46.44.12.22.18.47.18.75zm6.57-3.06c-.31.03-.91.04-1.8.04-.18 0-.73 0-1.65-.04v.62h.9v4.04c0 .24-.04.4-.13.44-.1.05-.35.07-.77.07v.62l2.17.1v-1.48c.36.99.94 1.48 1.74 1.48.37 0 .69-.1.97-.29a.9.9 0 0 0 .42-.78.74.74 0 0 0-.24-.59.85.85 0 0 0-1.11 0 .74.74 0 0 0-.25.59c0 .23.09.43.25.6-.3 0-.57-.09-.8-.26a1.5 1.5 0 0 1-.5-.66 4.22 4.22 0 0 1-.33-1.6v-2.28h1.13zm10.55 0c-.3.03-.9.04-1.8.04-.17 0-.73 0-1.64-.04v.62h.9v4.04c0 .24-.04.4-.13.44-.1.05-.35.07-.77.07v.62l2.17.1v-1.48c.36.99.94 1.48 1.74 1.48.36 0 .69-.1.97-.29a.9.9 0 0 0 .42-.78.74.74 0 0 0-.24-.59.84.84 0 0 0-1.11 0 .74.74 0 0 0-.25.59c0 .23.08.43.25.6-.3 0-.57-.09-.8-.26a1.5 1.5 0 0 1-.5-.66 4.47 4.47 0 0 1-.33-1.6v-2.28h1.13zm7.17 1.01c-.38-.72-1.03-1.08-1.95-1.08a5.33 5.33 0 0 0-1.6.26c-.28.1-.5.26-.67.47-.18.2-.26.46-.26.75 0 1.25 1.42 1.94 4.25 2.06v.44c0 1.03-.48 1.55-1.43 1.55a4.7 4.7 0 0 1-.95-.1c.2-.13.29-.34.29-.64 0-.26-.08-.46-.25-.6a.84.84 0 0 0-1.13 0c-.17.14-.25.34-.25.6 0 .8.77 1.2 2.34 1.2.94 0 1.65-.17 2.14-.54.49-.37.73-.86.73-1.47v-2.8c0-.13 0-.21.03-.27.01-.05.08-.1.21-.15.12-.05.3-.07.56-.07l.17-.01c.04-.01.07-.04.11-.08a.33.33 0 0 0 .06-.21c0-.1-.02-.17-.06-.22a.23.23 0 0 0-.13-.08l-.23-.02h-.62c-.33 0-.6.04-.79.1-.2.06-.34.15-.41.27a1.1 1.1 0 0 0-.14.3c-.02.09-.02.2-.02.34zm-.23 2.05a5.85 5.85 0 0 1-1.23-.18 3.34 3.34 0 0 1-.73-.27c-.2-.11-.38-.26-.53-.47-.15-.2-.23-.44-.23-.71 0-.29.12-.53.35-.73.23-.2.51-.3.84-.3.11 0 .24.01.39.05.14.03.3.1.5.18.18.09.34.24.46.44.12.22.18.47.18.75zm5.52 1.25v-2.77l.01-.25.13-.19c.4-.47.86-.7 1.39-.7.48 0 .89.2 1.24.62.35.41.52 1.05.52 1.9a3.1 3.1 0 0 1-.45 1.81c-.31.42-.7.64-1.15.64a2 2 0 0 1-1.67-.82.72.72 0 0 1-.02-.24zm.9-6.84-1.65.04-1.65-.04v.6h.9v6.6c0 .24-.04.38-.13.43-.1.04-.35.06-.77.06v.62l2.32.1v-.64c.55.43 1.2.64 1.97.64.94 0 1.68-.28 2.24-.82.56-.55.84-1.27.84-2.15 0-.9-.3-1.63-.91-2.18-.6-.54-1.4-.81-2.39-.81-.64 0-1.2.2-1.67.59V18h.9zm7.45 6.84v-2.77a1 1 0 0 1 .02-.25 1.76 1.76 0 0 1 1.51-.89c.49 0 .9.2 1.25.62.34.41.52 1.05.52 1.9 0 .78-.15 1.39-.46 1.81-.3.42-.69.64-1.15.64a2.01 2.01 0 0 1-1.66-.82.64.64 0 0 1-.03-.24zm.9-6.84-1.64.04-1.65-.04v.6h.9v6.6c0 .24-.04.38-.14.43-.09.04-.34.06-.76.06v.62l2.32.1v-.64c.55.43 1.2.64 1.97.64a3.1 3.1 0 0 0 2.24-.82c.55-.55.83-1.27.83-2.15 0-.9-.3-1.63-.9-2.18a3.45 3.45 0 0 0-2.39-.81c-.64 0-1.2.2-1.68.59V18h.9zm12.09 5.39c0-.85-.3-1.55-.88-2.1a3.45 3.45 0 0 0-2.46-.83c-1.05 0-1.87.27-2.46.82a2.78 2.78 0 0 0-.87 2.1c0 .9.3 1.64.88 2.21.59.58 1.41.87 2.45.87 1.04 0 1.85-.29 2.45-.87.6-.57.89-1.31.89-2.2zm-3.34-2.41c.27 0 .5.03.7.1.2.06.36.17.47.32.12.15.22.28.29.42.07.12.11.31.14.55a6.44 6.44 0 0 1 .07 1.16c0 .9-.1 1.5-.28 1.79-.28.44-.74.67-1.39.67-.7 0-1.17-.26-1.43-.76-.15-.3-.23-.86-.23-1.7l.01-.6c0-.13.02-.32.05-.56a1.65 1.65 0 0 1 .44-.97.98.98 0 0 1 .46-.32c.2-.07.43-.1.7-.1zm7.71-.45c-.31.03-.92.04-1.8.04-.19 0-.74 0-1.65-.04v.62h.9v4.04c0 .24-.05.4-.14.44-.09.05-.35.07-.76.07v.62l2.17.1v-1.48c.35.99.94 1.48 1.74 1.48.36 0 .68-.1.97-.29.27-.2.41-.45.41-.78a.74.74 0 0 0-.24-.59.8.8 0 0 0-.55-.21c-.21 0-.4.07-.56.2a.77.77 0 0 0-.24.6c0 .23.08.43.25.6-.3 0-.57-.09-.8-.26-.23-.17-.4-.39-.51-.66a4.22 4.22 0 0 1-.33-1.6v-2.28h1.14zm5.1 5.2v-3.61c0-.76.25-1.14.75-1.14.22 0 .4.1.56.3.15.19.23.5.23.9v.67h.62v-.7c0-.48-.14-.89-.43-1.21a1.46 1.46 0 0 0-1.16-.48c-1.37 0-2.06.56-2.06 1.68v3.59h-1.08v.46c.61.02 1.1.3 1.43.8.34.53.52 1.14.52 1.85h.62v-2.5h1.9v-.61zm12.25-4.19c-.37-.72-1.02-1.08-1.95-1.08a5.3 5.3 0 0 0-1.6.26c-.27.1-.5.26-.67.47-.17.2-.25.46-.25.75 0 1.25 1.42 1.94 4.25 2.06v.44c0 1.03-.48 1.55-1.44 1.55-.34 0-.65-.03-.94-.1.2-.13.29-.34.29-.64 0-.26-.08-.46-.25-.6a.85.85 0 0 0-1.13 0 .75.75 0 0 0-.26.6c0 .8.78 1.2 2.34 1.2.95 0 1.66-.17 2.15-.54s.73-.86.73-1.47v-2.8c0-.13 0-.21.03-.27.01-.05.08-.1.2-.15.13-.05.31-.07.57-.07l.17-.01a.24.24 0 0 0 .1-.08c.05-.05.07-.12.07-.21 0-.1-.02-.17-.06-.22a.24.24 0 0 0-.13-.08 1.6 1.6 0 0 0-.23-.02h-.63c-.32 0-.58.04-.78.1-.2.06-.34.15-.41.27a1 1 0 0 0-.14.3c-.02.09-.03.2-.03.34zM180.4 23a5.97 5.97 0 0 1-1.23-.18 3.43 3.43 0 0 1-.73-.27c-.2-.11-.38-.26-.53-.47-.15-.2-.23-.44-.23-.71 0-.29.12-.53.35-.73.23-.2.5-.3.84-.3.11 0 .24.01.38.05.15.03.31.1.5.18.2.09.34.24.47.44.12.22.18.47.18.75zm8.37-2.12a2.03 2.03 0 0 0-1.88-1.02 3.5 3.5 0 0 0-1.73.36c-.42.23-.62.68-.62 1.32v3.05c0 .24-.05.4-.14.44-.1.05-.35.07-.77.07v.62l2.4.1v-4.46c0-.4.05-.68.16-.82.12-.14.41-.21.88-.21.48 0 .87.16 1.17.48.3.32.45.75.45 1.28v2.5c0 .24-.04.4-.13.44-.1.05-.35.07-.77.07v.62l2.4.1v-4.76c0-.25.04-.4.13-.44.09-.05.35-.07.77-.07v-.62l-2.32-.07zm9.86 3.36v-2.77c0-.14 0-.22.02-.25a1.77 1.77 0 0 1 1.5-.89c.49 0 .9.2 1.25.62.35.41.52 1.05.52 1.9a3.1 3.1 0 0 1-.45 1.81c-.31.42-.7.64-1.15.64a2 2 0 0 1-1.67-.82.79.79 0 0 1-.02-.24zm.9-6.84-1.65.04-1.65-.04v.6h.9v6.6c0 .24-.04.38-.13.43-.1.04-.35.06-.77.06v.62l2.32.1v-.64c.55.43 1.2.64 1.97.64.94 0 1.68-.28 2.24-.82a2.9 2.9 0 0 0 .84-2.15c0-.9-.3-1.63-.91-2.18-.6-.54-1.4-.81-2.39-.81-.64 0-1.2.2-1.67.59V18h.9zm12.09 5.39c0-.85-.3-1.55-.88-2.1a3.45 3.45 0 0 0-2.46-.83c-1.05 0-1.87.27-2.46.82a2.77 2.77 0 0 0-.87 2.1c0 .9.3 1.64.88 2.21.59.58 1.4.87 2.45.87 1.04 0 1.85-.29 2.45-.87.59-.57.89-1.31.89-2.2zm-3.34-2.41c.27 0 .5.03.7.1.2.06.36.17.47.32a1.63 1.63 0 0 1 .43.97 6.44 6.44 0 0 1 .07 1.16c0 .9-.1 1.5-.28 1.79-.28.44-.74.67-1.39.67-.7 0-1.17-.26-1.44-.76a4.3 4.3 0 0 1-.22-1.7v-.6l.06-.56a1.65 1.65 0 0 1 .43-.97.98.98 0 0 1 .47-.32c.2-.07.43-.1.7-.1zm6.7 5.44v-5.27h.8v-.62l-1.52.04c-.26 0-.79 0-1.6-.04v.62h.9v4.04c0 .24-.04.4-.13.44-.09.05-.33.07-.73.07v.62zm.13 2.18c0-.28-.1-.53-.3-.72a1 1 0 0 0-.72-.3c-.28 0-.52.1-.72.3a1 1 0 0 0-.3.72c0 .28.1.52.3.72.2.2.44.3.72.3.27 0 .51-.1.71-.3.2-.19.3-.43.3-.72zm1.69-7.45h.91v4.04c0 .24-.05.4-.14.44a2.2 2.2 0 0 1-.76.07v.62l2.25.1V24.4a2.4 2.4 0 0 0 2.29 1.4c.67 0 1.17-.14 1.5-.43.34-.3.5-.77.5-1.45v-3.38h.91v-.62a48.2 48.2 0 0 1-3.3 0v.62h.91v3.53c0 .47-.06.8-.18.99a.6.6 0 0 1-.54.28 1.98 1.98 0 0 1-1.95-2.07v-2.73h.9v-.62a48.31 48.31 0 0 1-3.3 0zm10.2 4.58v-3.61c0-.76.25-1.14.75-1.14.21 0 .4.1.55.3.16.19.24.5.24.9v.67h.61v-.7c0-.48-.14-.89-.42-1.21a1.45 1.45 0 0 0-1.16-.48c-1.38 0-2.07.56-2.07 1.68v3.59h-1.07v.46c.6.02 1.09.3 1.42.8.35.53.52 1.14.53 1.85h.62v-2.5h1.9v-.61z"/>
      <path fill="#006400" d="M245.02 25.75c0-.69-.14-1.38-.41-2.08a6.75 6.75 0 0 0-1.15-1.94 5.6 5.6 0 0 0-1.95-1.46 6.18 6.18 0 0 0-2.64-.56c-1.15 0-2.08.28-2.77.85-.7.56-1.05 1.39-1.05 2.49a5.75 5.75 0 0 0 1.01 3.27c.35.53.76 1 1.23 1.42a6.19 6.19 0 0 0 3.92 1.38c1.16 0 2.08-.28 2.77-.86.7-.58 1.04-1.42 1.04-2.5zM239 20.26c1.16 0 2.13.58 2.91 1.73.4.55.7 1.3.95 2.21.25.92.38 1.64.38 2.15 0 .77-.2 1.34-.62 1.7-.42.37-.93.55-1.54.55a3.4 3.4 0 0 1-2.72-1.37 6.27 6.27 0 0 1-1.09-2.33 9.5 9.5 0 0 1-.38-2.29c0-.78.2-1.36.58-1.75.4-.4.9-.6 1.53-.6z"/>
      <path d="M248.82 20.95c0-.28-.1-.52-.3-.71a.98.98 0 0 0-.72-.3 1 1 0 0 0-.72.3c-.2.2-.3.43-.3.71 0 .28.1.52.3.72.2.2.44.3.72.3.28 0 .52-.1.72-.3.2-.2.3-.44.3-.72zM6.77 19.5v-5.73h1.1v-.45a39.5 39.5 0 0 1-3.58 0v.45H5.4v5.73H4.3v.45a31 31 0 0 1 1.79-.03c.93 0 1.52.01 1.78.03v-.45zm3.59.53v-6.26h.67v-.45l-1.2.03-1.18-.03v.45h.67v5.35c0 .18-.04.29-.1.32-.08.04-.26.06-.57.06v.45zm7.04-6.71c-.23.02-.67.03-1.33.03l-1.22-.03v.45h.67v2.99c0 .18-.03.29-.1.32-.07.04-.26.06-.57.06v.45l1.6.08v-1.1c.27.74.7 1.1 1.3 1.1.27 0 .5-.07.71-.22.2-.14.31-.33.31-.57a.54.54 0 0 0-.18-.43.6.6 0 0 0-.41-.16.6.6 0 0 0-.41.15c-.12.1-.18.25-.18.44 0 .17.06.32.18.44a.96.96 0 0 1-.59-.19 1.14 1.14 0 0 1-.37-.49 3.35 3.35 0 0 1-.24-1.17v-1.7h.84zm6.14 2.11h-2.92c0-1.2.46-1.78 1.38-1.78.31 0 .6.07.85.21.25.14.43.33.53.56l.08.17c.03.02.08.04.16.04.16 0 .23-.06.23-.18a.66.66 0 0 0-.1-.26 1.61 1.61 0 0 0-.9-.77c-.27-.1-.58-.16-.94-.16-.77 0-1.38.2-1.84.62-.45.42-.68.96-.68 1.61 0 .64.2 1.16.63 1.58.42.42 1 .63 1.76.63.66 0 1.17-.18 1.53-.52.36-.37.55-.86.55-1.5 0-.12-.03-.2-.07-.21-.04-.03-.13-.04-.25-.04zm-2.92.31h2.31c-.03 1.07-.41 1.6-1.15 1.6-.4 0-.7-.16-.93-.5-.12-.2-.2-.56-.23-1.1zm5.59.42c.42-.07.72-.13.9-.19.19-.05.37-.14.54-.27.36-.29.53-.63.53-1.03 0-.22-.03-.42-.1-.6a.96.96 0 0 0-.3-.4 1.67 1.67 0 0 0-.8-.36l-.34-.04h-.25c-.46 0-.84.1-1.14.3a3.59 3.59 0 0 0-.54-.3c-.07 0-.12.01-.14.05a.5.5 0 0 0-.03.21v1.06c0 .12.01.2.03.23.02.03.09.04.2.04.08 0 .13 0 .16-.02.03 0 .05-.05.07-.1.04-.15.09-.26.13-.37.05-.1.13-.22.23-.35.1-.13.23-.23.41-.3.18-.07.39-.11.63-.11.73 0 1.1.24 1.1.72 0 .14-.04.26-.1.35a.68.68 0 0 1-.32.23 3.24 3.24 0 0 1-.65.18l-.66.13a2.2 2.2 0 0 0-.42.13c-.16.07-.3.16-.42.27-.26.22-.4.49-.4.81 0 .2.04.38.12.53.07.16.17.28.3.37.12.08.24.16.36.2.12.06.26.1.42.12l.35.04h.24c.4 0 .73-.05.97-.17.26.12.4.18.44.18.08 0 .13-.02.15-.05.02-.04.02-.11.02-.22v-.78c0-.12 0-.2-.03-.22-.02-.03-.09-.05-.2-.05-.1 0-.15.02-.18.04a.4.4 0 0 0-.04.16c-.05.54-.43.8-1.14.8-.72 0-1.08-.2-1.08-.6 0-.1.03-.2.09-.27a.63.63 0 0 1 .28-.18l.3-.1.31-.07zm4.45 1v-2.67c0-.56.18-.84.56-.84a.5.5 0 0 1 .4.21c.12.15.18.38.18.68v.5h.45v-.52c0-.36-.1-.66-.31-.9s-.5-.36-.86-.36c-1.01 0-1.53.42-1.53 1.25v2.65h-.79v.34c.45.02.8.22 1.06.6.25.38.38.83.38 1.36h.46V17.6h1.41v-.45zm6.69-1.73h-2.92c0-1.2.46-1.78 1.37-1.78.32 0 .6.07.85.21.25.14.43.33.53.56.03.08.06.14.09.17.02.02.08.04.16.04.15 0 .23-.06.23-.18a.6.6 0 0 0-.1-.26 1.61 1.61 0 0 0-.9-.77c-.28-.1-.6-.16-.95-.16-.77 0-1.37.2-1.83.62-.46.42-.69.96-.69 1.61 0 .64.21 1.16.63 1.58a2.4 2.4 0 0 0 1.76.63c.66 0 1.17-.18 1.53-.52a2 2 0 0 0 .55-1.5c0-.12-.02-.2-.07-.21-.04-.03-.12-.04-.24-.04zm-2.92.31h2.3c-.02 1.07-.41 1.6-1.15 1.6-.4 0-.7-.16-.92-.5-.13-.2-.2-.56-.23-1.1z"/>
      <path fill="gray" stroke="gray" stroke-miterlimit="10" stroke-width="1.13" d="M41.76 21.24h8.96v-9.62h-8.96z"/>
      <path fill="#fff" d="M46.88 19.34v-5.57h1.35v-.45a45.6 45.6 0 0 1-3.85 0v.45h1.35v5c-.4-.13-.82-.2-1.26-.2h-.19v.46h.2c.8 0 1.44.19 1.94.55a.3.3 0 0 0 .2.07c.13 0 .2-.02.22-.06a.56.56 0 0 0 .04-.25z"/>
      <path d="M58.97 15.43h-2.92c0-1.2.46-1.78 1.37-1.78.31 0 .6.07.85.21.25.14.43.33.54.56.03.08.05.14.08.17.02.02.08.04.15.04.16 0 .24-.06.24-.18a.6.6 0 0 0-.1-.26 1.61 1.61 0 0 0-.9-.77c-.28-.1-.6-.16-.95-.16-.76 0-1.37.2-1.83.62-.46.42-.69.96-.69 1.61 0 .64.21 1.16.64 1.58.42.42 1 .63 1.75.63.66 0 1.17-.18 1.53-.52a2 2 0 0 0 .55-1.5c0-.12-.02-.2-.07-.21-.04-.03-.12-.04-.24-.04zm-2.92.31h2.3c-.02 1.07-.4 1.6-1.15 1.6-.4 0-.7-.16-.92-.5-.13-.2-.2-.56-.23-1.1zm5.59.42c.41-.07.72-.13.9-.19.19-.05.36-.14.54-.27.35-.29.53-.63.53-1.03 0-.22-.04-.42-.1-.6a.93.93 0 0 0-.3-.4 2.2 2.2 0 0 0-.37-.23 1.8 1.8 0 0 0-.43-.13l-.35-.04h-.24c-.46 0-.84.1-1.14.3a2.7 2.7 0 0 0-.25-.16c-.14-.1-.23-.15-.29-.15-.08 0-.12.02-.14.06a.5.5 0 0 0-.04.21v1.06c0 .12.02.2.04.23s.09.04.2.04c.08 0 .13 0 .16-.02.03 0 .05-.05.07-.1a2.23 2.23 0 0 1 .35-.72c.1-.13.24-.23.42-.3.17-.07.38-.11.62-.11.74 0 1.1.24 1.1.72 0 .14-.03.26-.1.35a.67.67 0 0 1-.31.23l-.33.11-.33.07-.66.13c-.12.02-.26.07-.42.13-.16.07-.3.16-.42.27-.26.22-.39.49-.39.81 0 .2.04.38.11.53a.9.9 0 0 0 .3.37c.12.08.25.16.37.2.12.06.26.1.42.12l.35.04h.24c.4 0 .73-.05.97-.17.25.12.4.18.44.18.07 0 .12-.02.14-.05a.54.54 0 0 0 .03-.22v-.78c0-.12-.01-.2-.03-.22-.03-.03-.1-.05-.2-.05s-.16.02-.18.04c-.03.03-.04.08-.05.16-.05.54-.43.8-1.14.8-.72 0-1.08-.2-1.08-.6 0-.1.03-.2.1-.27a.63.63 0 0 1 .27-.18l.3-.1.32-.07zm4.38 0c.42-.07.72-.13.9-.19.19-.05.37-.14.54-.27.36-.29.53-.63.53-1.03 0-.22-.03-.42-.1-.6a.96.96 0 0 0-.3-.4c-.12-.1-.25-.17-.37-.23s-.26-.1-.43-.13l-.35-.04h-.23c-.47 0-.85.1-1.14.3a3.4 3.4 0 0 0-.55-.3c-.08 0-.12.01-.14.05a.48.48 0 0 0-.03.21v1.06c0 .12 0 .2.03.23s.1.04.2.04c.08 0 .13 0 .16-.02.03 0 .05-.05.07-.1a1.95 1.95 0 0 1 .36-.71c.1-.14.24-.24.41-.31.18-.07.39-.11.63-.11.73 0 1.1.24 1.1.72 0 .14-.04.26-.1.35a.7.7 0 0 1-.32.23 3.22 3.22 0 0 1-.66.18l-.65.13a1.73 1.73 0 0 0-.85.4c-.25.22-.38.49-.38.81 0 .2.04.38.1.53.08.16.17.28.3.37.12.08.25.16.37.2.13.06.27.1.42.12l.35.04h.24c.4 0 .73-.05.97-.17.25.12.4.18.44.18.08 0 .12-.02.14-.05a.54.54 0 0 0 .03-.22v-.78c0-.12 0-.2-.03-.22-.02-.03-.09-.05-.2-.05-.1 0-.16.02-.18.04a.4.4 0 0 0-.04.16c-.05.54-.43.8-1.14.8-.72 0-1.09-.2-1.09-.6 0-.1.04-.2.1-.27a.59.59 0 0 1 .28-.18l.3-.1.31-.07zm5.97-2.1c-.28-.53-.76-.8-1.44-.8a3.68 3.68 0 0 0-1.18.2c-.21.07-.37.19-.5.34a.85.85 0 0 0-.19.56c0 .93 1.05 1.43 3.14 1.52v.33c0 .76-.35 1.14-1.06 1.14-.25 0-.48-.02-.7-.07.15-.1.22-.25.22-.47 0-.2-.06-.34-.19-.45a.62.62 0 0 0-.83 0c-.13.1-.2.25-.2.45 0 .59.59.89 1.74.89.7 0 1.22-.14 1.58-.4.36-.28.54-.64.54-1.09v-2.08l.02-.2c.02-.03.07-.07.16-.1.09-.04.23-.06.42-.06h.12a.23.23 0 0 0 .08-.07c.03-.03.05-.08.05-.15a.26.26 0 0 0-.05-.16.18.18 0 0 0-.1-.06H73a2 2 0 0 0-.58.06.55.55 0 0 0-.3.2.72.72 0 0 0-.1.23c-.02.06-.02.14-.02.24zm-.17 1.52a5.11 5.11 0 0 1-.9-.14c-.22-.06-.4-.12-.55-.2a1.24 1.24 0 0 1-.39-.34.86.86 0 0 1-.17-.53c0-.2.09-.4.26-.54a.9.9 0 0 1 .62-.22c.08 0 .18.01.29.04a2 2 0 0 1 .36.13c.14.07.26.18.35.33.09.16.13.34.13.55zm4.12 2.09v-3.9h.6v-.45l-1.13.03-1.18-.03v.45h.66v2.99c0 .18-.03.29-.1.32a1.5 1.5 0 0 1-.53.06v.45zm.1 1.61c0-.2-.08-.39-.23-.53a.74.74 0 0 0-.53-.22c-.2 0-.38.07-.53.22a.73.73 0 0 0-.22.53c0 .2.07.39.22.53.15.15.32.23.53.23.2 0 .38-.07.53-.22a.73.73 0 0 0 .23-.54zm268.93-.22h1.5a3 3 0 0 0 .78-.08c.24-.07.44-.2.6-.37.18-.18.3-.4.4-.66.09-.27.13-.59.13-.96 0-.34-.04-.63-.13-.88a1.43 1.43 0 0 0-1.01-1.04 2.38 2.38 0 0 0-.72-.08h-1.55zm.82-.69v-2.7h.62c.23 0 .4.01.5.05.12.02.23.08.32.16.1.08.16.21.22.4.06.18.08.43.08.74 0 .32-.02.56-.08.73a.95.95 0 0 1-.24.4.75.75 0 0 1-.38.18 3.5 3.5 0 0 1-.67.04zm5-2.44.77-.14c-.1-.28-.26-.5-.47-.65a1.4 1.4 0 0 0-.82-.23c-.5 0-.88.17-1.13.51-.2.27-.3.6-.3 1.01 0 .5.13.88.39 1.16.25.27.58.4.97.4.44 0 .78-.13 1.04-.42.25-.29.37-.73.36-1.33h-1.96c0-.23.07-.41.2-.54a.6.6 0 0 1 .44-.2.5.5 0 0 1 .31.1c.09.07.15.18.2.33zm.03.78c0 .23-.06.4-.17.52a.54.54 0 0 1-.4.17.55.55 0 0 1-.43-.18.74.74 0 0 1-.16-.5zm1.35 1.23h.73v-.4c.26.3.57.46.92.46.18 0 .35-.04.49-.12a.85.85 0 0 0 .34-.34 1.21 1.21 0 0 0 .9.46c.21 0 .4-.05.55-.13a.77.77 0 0 0 .33-.38c.06-.13.09-.34.09-.62V15h-.78v1.69c0 .29-.03.47-.08.56a.39.39 0 0 1-.34.16.54.54 0 0 1-.31-.1.56.56 0 0 1-.2-.29 2.13 2.13 0 0 1-.07-.61V15h-.78v1.61c0 .29-.01.47-.04.55a.34.34 0 0 1-.13.19.42.42 0 0 1-.24.06.58.58 0 0 1-.33-.1.56.56 0 0 1-.2-.28 2.02 2.02 0 0 1-.06-.6V15h-.79zm5.7-.9-.7.12c.08.29.2.5.4.63.2.14.5.2.88.2.34 0 .6-.03.77-.11.17-.08.3-.18.36-.31.07-.13.1-.36.1-.7v-.92c0-.25 0-.45.03-.57.03-.12.07-.25.14-.4h-.76l-.08.24a.36.36 0 0 1-.03.09 1.24 1.24 0 0 0-.91-.4c-.3 0-.54.09-.72.25a.83.83 0 0 0-.26.63.8.8 0 0 0 .45.75c.14.07.35.12.62.18.36.07.62.14.75.2v.07c0 .15-.03.26-.1.32-.08.06-.22.1-.42.1a.6.6 0 0 1-.33-.08.6.6 0 0 1-.19-.3zm1.04-.64-.47-.12a1.6 1.6 0 0 1-.42-.13.33.33 0 0 1-.15-.27.4.4 0 0 1 .12-.3.43.43 0 0 1 .3-.11c.15 0 .28.04.42.14.1.07.15.16.19.26l.01.38zm4.22-1.41h-.78v1.5c0 .32-.01.53-.05.62a.41.41 0 0 1-.16.22.47.47 0 0 1-.26.07.64.64 0 0 1-.37-.1.59.59 0 0 1-.23-.3 2.57 2.57 0 0 1-.06-.68V15h-.78v2.95h.73v-.44a1.19 1.19 0 0 0 1.44.4.82.82 0 0 0 .33-.23c.07-.1.13-.2.15-.33.03-.12.04-.3.04-.52zm3.5 0h-.72v.43c-.13-.17-.27-.3-.43-.38a1.1 1.1 0 0 0-.5-.13c-.33 0-.62.15-.87.42-.24.27-.36.66-.36 1.14 0 .5.12.89.36 1.14.23.26.53.39.88.39.33 0 .62-.14.86-.41v1.47h.78zm-2.08 1.53c0-.3.04-.54.13-.68.13-.2.3-.3.52-.3a.6.6 0 0 1 .46.22c.13.15.2.39.2.7 0 .33-.07.57-.19.72a.58.58 0 0 1-.47.22.57.57 0 0 1-.46-.22c-.13-.14-.19-.36-.19-.66zm4.55-.6.8-.13c-.11-.28-.27-.5-.49-.65a1.4 1.4 0 0 0-.81-.23c-.51 0-.89.17-1.14.51-.19.27-.29.6-.29 1.01 0 .5.13.88.39 1.16.25.27.58.4.97.4.43 0 .78-.13 1.04-.42.25-.29.36-.73.35-1.33h-1.95c0-.23.07-.41.19-.54a.6.6 0 0 1 .45-.2.5.5 0 0 1 .3.1c.09.07.15.18.2.33zm.05.8c0 .22-.06.4-.17.51a.55.55 0 0 1-.41.17.55.55 0 0 1-.43-.18.75.75 0 0 1-.16-.5zm2.16-1.73h-.78v2.95h.72v-.42c.13.2.24.32.34.39.1.06.2.09.33.09.18 0 .35-.05.52-.14l-.24-.69a.66.66 0 0 1-.36.14.41.41 0 0 1-.29-.1.64.64 0 0 1-.18-.33 4.68 4.68 0 0 1-.06-.98zm6.72 0h-.9l-.35.92h-1.62l-.34-.92h-.88l1.6 4.07h.86zm-1.52 1.6-.55 1.52-.55-1.52zm1.95 1.75v.72h.78v-.72zm0-3.35v2.95h.78v-2.95zm4.28 0h-.72v.43c-.12-.17-.27-.3-.43-.38a1.08 1.08 0 0 0-1.36.29c-.25.27-.37.66-.37 1.14 0 .5.12.89.36 1.14a1.15 1.15 0 0 0 1.75-.02v1.47h.77zm-2.08 1.53c0-.3.05-.54.13-.68.13-.2.3-.3.53-.3a.6.6 0 0 1 .46.22c.12.15.19.39.19.7 0 .33-.06.57-.18.72a.58.58 0 0 1-.48.22.57.57 0 0 1-.46-.22c-.12-.14-.19-.36-.19-.66zm4.56-.6.78-.13c-.1-.28-.26-.5-.47-.65a1.42 1.42 0 0 0-.82-.23c-.5 0-.89.17-1.14.51-.19.27-.28.6-.28 1.01 0 .5.12.88.38 1.16.26.27.58.4.98.4.43 0 .78-.13 1.03-.42s.37-.73.36-1.33h-1.96c.01-.23.07-.41.2-.54a.6.6 0 0 1 .44-.2c.12 0 .23.04.31.1.08.07.15.18.19.33zm.05.8a.8.8 0 0 1-.18.51.55.55 0 0 1-.4.17.55.55 0 0 1-.43-.18.75.75 0 0 1-.16-.5z"/>
    </g>
  </g>
  <g clip-path="url(#f)" transform="matrix(.16413 -.08017 0 -.2689 16.29 147.33)">
    <g clip-path="url(#g)">
      <path fill="none" stroke="#069" stroke-linecap="square" stroke-miterlimit="10" stroke-width="1.42" d="m298.5 71.84 5.7-5.69m-5.7 0 5.7 5.69"/>
      <path fill="none" stroke="#fff" stroke-linecap="round" stroke-linejoin="round" stroke-miterlimit="10" stroke-opacity=".7" stroke-width="1.42" d="M-.57 256.06h392.9V-1.51H-.58Z"/>
      <path fill="none" stroke="#606060" stroke-linecap="round" stroke-linejoin="round" stroke-miterlimit="10" stroke-opacity=".7" stroke-width="1.42" d="M198.43 128.13 95.52 187.26m50.99-33.23 3.4 5.91m-5.87-4.5 3.4 5.92m50.99-33.23 102.92-59.14m-51 33.24-3.4-5.92m5.87 4.5-3.4-5.92"/>
      <path fill="none" stroke="#c00" stroke-linecap="square" stroke-miterlimit="10" stroke-width="1.42" d="m298.5 71.84 5.7-5.69m-5.7 0 5.7 5.69"/>
      <path fill="#c00" d="m301.98 79.34 4.55 7.64c.1.14.2.2.34.22.13 0 .2-.05.22-.13a.81.81 0 0 0 .03-.19l.8-8.17c.02-.22.08-.34.16-.39h.01v-.01c.1-.05.33-.07.68-.07.2 0 .3-.05.3-.14 0-.18-.08-.26-.23-.26l-1.47.04h-.01l-1.63-.04c-.13 0-.2.04-.2.14.08.17.19.25.32.26.63 0 .95.14.95.43l-.21 2.19h-3.28l-1-1.68a1.17 1.17 0 0 1-.18-.48c0-.27.2-.42.61-.46.14 0 .2-.05.2-.16 0-.16-.07-.24-.24-.24l-1.25.04h-.05l-1.1-.04h-.03c-.11 0-.17.04-.17.14 0 .16.06.24.2.25v.01h.07c.55.04 1 .27 1.35.7.09.12.17.25.26.4zm1.57 1.92h3l-.42 4.32zm8.24 6.36-1.64-3.84c-.04-.09-.08-.13-.12-.13a.4.4 0 0 0-.28.1.08.08 0 0 0-.03.06l.02.13 1.11 4c.08.25.21.38.4.4l.09.02c.2 0 .36-.1.45-.27a.44.44 0 0 0 .06-.21.6.6 0 0 0-.07-.26z"/>
      <path fill="#ededed" d="M1.14 255.49h92.68v-20.47H1.14Z"/>
      <path fill="#039" d="M3.68 250.55h3.25c.64 0 1.13-.03 1.45-.08a2.11 2.11 0 0 0 1.47-1.01c.16-.29.24-.6.24-.95 0-.39-.1-.74-.3-1.05a1.9 1.9 0 0 0-.83-.72 1.97 1.97 0 0 0 1.54-1.96 2.43 2.43 0 0 0-.97-1.93c-.3-.2-.66-.34-1.1-.38-.27-.03-.93-.05-1.98-.06H3.68Zm1.64-1.35v-1.89H6.4c.63 0 1.03.02 1.19.03.28.04.5.13.66.3.16.15.24.37.24.63a.9.9 0 0 1-.2.61.97.97 0 0 1-.62.3c-.16 0-.63.02-1.4.02Zm0-3.24v-2.18h1.52c.6 0 .97.02 1.13.05.24.05.44.16.6.33a1 1 0 0 1 .23.69c0 .25-.07.45-.18.62a.98.98 0 0 1-.52.37 5.8 5.8 0 0 1-1.46.12Zm6.19-.52c0 .52.13 1.03.38 1.51.26.49.63.86 1.1 1.11.46.26.98.38 1.56.38a2.94 2.94 0 0 0 3.04-3.06 3 3 0 0 0-.86-2.22 2.91 2.91 0 0 0-2.17-.88 3.3 3.3 0 0 0-1.54.37c-.5.24-.87.6-1.12 1.07a3.55 3.55 0 0 0-.4 1.72zm1.6-.08c0-.58.14-1.03.41-1.35a1.37 1.37 0 0 1 2.06 0 2 2 0 0 1 .42 1.36c0 .58-.15 1.03-.42 1.34-.28.3-.62.46-1.03.46-.4 0-.75-.15-1.03-.46a2 2 0 0 1-.41-1.35zm11.07-2.95h-1.56v3.01a4.4 4.4 0 0 1-.1 1.23.83.83 0 0 1-.32.44.93.93 0 0 1-.55.15c-.26 0-.5-.07-.72-.22a1.1 1.1 0 0 1-.45-.58c-.08-.25-.12-.7-.12-1.36v-2.67h-1.55v5.9h1.45v-.87a2.36 2.36 0 0 0 2.89.82 1.54 1.54 0 0 0 .95-1.14c.06-.24.08-.6.08-1.04zm6.95 0h-1.56v3.01a4.7 4.7 0 0 1-.1 1.23.84.84 0 0 1-.32.44.92.92 0 0 1-.55.15c-.27 0-.51-.07-.73-.22a1.14 1.14 0 0 1-.44-.58c-.08-.25-.12-.7-.12-1.36v-2.67h-1.55v5.9h1.44v-.87a2.37 2.37 0 0 0 2.89.82 1.54 1.54 0 0 0 .95-1.14c.06-.24.1-.6.1-1.04zm5 1.88 1.55-.26c-.2-.57-.51-1-.95-1.3-.43-.3-.96-.45-1.61-.45-1.03 0-1.8.33-2.28 1a3.4 3.4 0 0 0-.58 2.04c0 .97.25 1.74.76 2.3.51.55 1.16.82 1.94.82.88 0 1.57-.29 2.07-.87.5-.58.75-1.47.74-2.66h-3.92c.02-.46.15-.82.38-1.08.25-.26.54-.39.9-.39a1 1 0 0 1 .62.2c.16.14.29.35.37.65zm.08 1.58c-.01.45-.13.79-.35 1.02-.22.24-.49.35-.8.35a1.1 1.1 0 0 1-.85-.36 1.44 1.44 0 0 1-.33-1.01zm7.48-3.46h-1.56v5.9h1.45v-.84c.24.4.46.66.66.78.2.13.43.2.68.2.36 0 .7-.1 1.02-.3l-.47-1.36c-.27.17-.5.25-.74.25a.87.87 0 0 1-.55-.18c-.16-.12-.28-.33-.36-.65a9.42 9.42 0 0 1-.13-1.98zm6.34 1.88 1.56-.26c-.2-.57-.51-1-.94-1.3a2.8 2.8 0 0 0-1.62-.45c-1.03 0-1.8.33-2.28 1a3.4 3.4 0 0 0-.58 2.04c0 .97.25 1.74.76 2.3.51.55 1.16.82 1.94.82a2.6 2.6 0 0 0 2.07-.87c.5-.58.75-1.47.74-2.66h-3.91c0-.46.13-.82.37-1.08a1.17 1.17 0 0 1 1.52-.19c.16.14.29.35.37.65zm.1 1.58c-.02.45-.14.79-.36 1.02-.22.24-.49.35-.8.35a1.1 1.1 0 0 1-.85-.36 1.42 1.42 0 0 1-.33-1.01zm-1.9 3.37.76 1.66h1.75l-1.52-1.66zm4.67-.93h1.46v-.87a2.12 2.12 0 0 0 1.84 1c.68 0 1.25-.26 1.73-.8s.72-1.28.72-2.24c0-1-.24-1.76-.72-2.3a2.24 2.24 0 0 0-2.64-.63c-.26.13-.54.36-.82.67v-2.97H52.9zm1.55-2.85c0-.67.13-1.15.39-1.47.26-.32.58-.48.96-.48.36 0 .66.15.9.45.25.29.37.76.37 1.42 0 .62-.12 1.08-.37 1.38a1.2 1.2 0 0 1-1.88.01c-.25-.3-.37-.73-.37-1.31zm5.07-.02c0 .52.13 1.03.39 1.51.26.49.62.86 1.1 1.11.46.26.98.38 1.56.38a2.94 2.94 0 0 0 3.04-3.06c0-.9-.29-1.64-.86-2.22a2.92 2.92 0 0 0-2.18-.88c-.53 0-1.05.12-1.54.37-.49.24-.86.6-1.12 1.07a3.55 3.55 0 0 0-.39 1.72zm1.6-.08c0-.58.15-1.03.42-1.35.28-.3.62-.46 1.03-.46.41 0 .75.16 1.03.46.28.32.41.77.41 1.36 0 .58-.13 1.03-.4 1.34a1.4 1.4 0 0 1-2.07 0 2 2 0 0 1-.41-1.35zm11.08-2.95h-1.56v3.01a4.7 4.7 0 0 1-.1 1.23.85.85 0 0 1-.32.44.93.93 0 0 1-.55.15c-.26 0-.51-.07-.73-.22a1.12 1.12 0 0 1-.44-.58c-.08-.25-.12-.7-.12-1.36v-2.67h-1.55v5.9h1.44v-.87c.52.67 1.17 1 1.95 1 .35 0 .66-.06.94-.18a1.53 1.53 0 0 0 .95-1.14c.06-.24.1-.6.1-1.04zm1.03 1.68 1.57.24c.07-.3.2-.53.4-.69.2-.15.5-.23.86-.23.4 0 .7.07.91.22.14.1.21.24.21.41a.4.4 0 0 1-.12.3c-.08.07-.25.14-.51.2a8.41 8.41 0 0 0-2.4.77c-.47.31-.7.75-.7 1.32 0 .51.2.94.6 1.29.4.35 1.04.52 1.88.52.8 0 1.4-.13 1.8-.4a2 2 0 0 0 .81-1.16l-1.47-.26a.93.93 0 0 1-.36.52 1.3 1.3 0 0 1-.75.19c-.4 0-.7-.07-.88-.18a.37.37 0 0 1-.17-.32c0-.1.04-.2.14-.28.14-.1.63-.25 1.46-.44a4.43 4.43 0 0 0 1.74-.7c.33-.28.5-.66.5-1.15 0-.55-.23-1.01-.68-1.4-.46-.39-1.13-.58-2.01-.58-.8 0-1.44.16-1.9.49-.48.32-.79.76-.93 1.32zm10.29.2 1.55-.26c-.2-.57-.5-1-.94-1.3-.43-.3-.97-.45-1.62-.45-1.03 0-1.78.33-2.28 1a3.4 3.4 0 0 0-.58 2.04c0 .97.26 1.74.77 2.3.51.55 1.15.82 1.93.82a2.6 2.6 0 0 0 2.08-.87c.5-.58.75-1.47.73-2.66h-3.9c0-.46.13-.82.37-1.08a1.17 1.17 0 0 1 1.52-.19c.16.14.28.35.37.65zm.09 1.58c-.01.45-.13.79-.35 1.02-.23.24-.5.35-.8.35a1.1 1.1 0 0 1-.85-.36 1.43 1.43 0 0 1-.33-1.01zm6.6-1.36-.41 4.13v1.9h1.68v-1.9l-.4-4.13zm-.35-2.1v1.56h1.56v-1.56z"/>
      <path fill="#65bb4e" d="M256.43 24.65V7.02a2.27 2.27 0 0 1 2.27-2.28h125.66a2.27 2.27 0 0 1 2.27 2.28v17.63a2.27 2.27 0 0 1-2.27 2.27H258.7a2.27 2.27 0 0 1-2.27-2.27z"/>
      <path fill="none" stroke="#000" stroke-linecap="round" stroke-linejoin="round" stroke-miterlimit="10" stroke-width=".57" d="M256.71 24.36V6.74A2.27 2.27 0 0 1 259 4.46h125.65a2.27 2.27 0 0 1 2.28 2.28v17.62a2.27 2.27 0 0 1-2.28 2.27H259a2.27 2.27 0 0 1-2.28-2.27z"/>
      <path fill="#fff" d="M263.7 8.72v9.78h1.92l4-6.53v6.53h1.82V8.72h-1.97l-3.94 6.37V8.72zm9.39 3.65c0 .62.15 1.22.46 1.8.3.58.73 1.03 1.3 1.33.56.31 1.19.46 1.88.46 1.07 0 1.95-.34 2.64-1.04a3.62 3.62 0 0 0 1.02-2.63c0-1.07-.35-1.96-1.04-2.67a3.53 3.53 0 0 0-2.61-1.06c-.65 0-1.26.15-1.85.45-.6.29-1.04.72-1.34 1.28a4.4 4.4 0 0 0-.46 2.08zm1.92-.1c0-.7.17-1.24.5-1.62a1.6 1.6 0 0 1 1.23-.55c.48 0 .9.18 1.23.55.33.38.5.92.5 1.63 0 .7-.17 1.23-.5 1.6a1.6 1.6 0 0 1-1.23.56c-.49 0-.9-.19-1.24-.56a2.41 2.41 0 0 1-.49-1.62zm11.5-3.55v1.06a2.84 2.84 0 0 0-3.63-.9c-.37.21-.64.5-.81.88-.17.37-.25.9-.25 1.57v4.47h1.87v-3.25c0-.99.04-1.6.1-1.82.07-.23.2-.4.37-.54.19-.13.42-.2.7-.2a1.47 1.47 0 0 1 1.38.92c.1.26.14.9.14 1.9v3h1.87v-7.1zm5.62 0-2.85 7.08h1.97l1.34-3.61.38-1.2.2.6c.05.2.12.4.19.6l1.35 3.61h1.92l-2.81-7.08zm9.75 2.26 1.87-.31a3.1 3.1 0 0 0-1.14-1.57 3.36 3.36 0 0 0-1.95-.54c-1.23 0-2.14.4-2.72 1.21-.47.65-.7 1.46-.7 2.44 0 1.17.3 2.1.91 2.76.62.66 1.39 1 2.33 1 1.05 0 1.88-.35 2.49-1.05.6-.7.9-1.76.87-3.2h-4.69c.01-.55.17-.98.46-1.29.29-.3.64-.46 1.07-.46.3 0 .54.08.74.24.2.16.36.42.46.77zm.1 1.9c-.01.54-.15.94-.42 1.22s-.6.43-.97.43a1.3 1.3 0 0 1-1.01-.45c-.27-.3-.4-.7-.4-1.2zm3.39-4.16v9.78h1.87V8.72zm3.78 0v9.78h1.88V8.72zm7.9 2.26 1.87-.31a3.13 3.13 0 0 0-1.15-1.57 3.33 3.33 0 0 0-1.93-.54c-1.24 0-2.15.4-2.73 1.21-.47.65-.7 1.46-.7 2.44 0 1.17.3 2.1.92 2.76.6.66 1.38 1 2.32 1 1.05 0 1.88-.35 2.5-1.05.6-.7.89-1.76.86-3.2h-4.69c.02-.55.17-.98.46-1.29.29-.3.65-.46 1.07-.46.3 0 .55.08.75.24.2.16.35.42.45.77zm.11 1.9c-.02.54-.16.94-.43 1.22-.26.28-.58.43-.96.43-.41 0-.75-.15-1.02-.45-.27-.3-.4-.7-.39-1.2zm11.8-6.84V9.6a2.65 2.65 0 0 0-2.1-1.04c-.8 0-1.46.3-1.98.91a4.2 4.2 0 0 0-.93 2.87c0 1.14.3 2.03.87 2.67.58.64 1.3.95 2.15.95.46 0 .87-.1 1.21-.3.35-.2.66-.5.92-.9v1.04h1.73V6.04zm.06 6.31c0 .72-.15 1.26-.44 1.62-.3.35-.67.53-1.12.53-.45 0-.83-.18-1.14-.54-.3-.36-.44-.93-.44-1.72 0-.77.14-1.33.43-1.68.3-.34.65-.51 1.08-.51.43 0 .81.19 1.14.57.33.39.49.97.49 1.73zm8.3-3.63v1.06c-.25-.37-.6-.66-1.01-.88a2.82 2.82 0 0 0-2.61-.02c-.38.21-.65.5-.82.88-.17.37-.25.9-.25 1.57v4.47h1.87v-3.25c0-.99.03-1.6.1-1.82.07-.23.2-.4.38-.54.18-.13.41-.2.7-.2.32 0 .6.1.85.27.25.18.43.39.52.65.1.26.14.9.14 1.9v3h1.87v-7.1zm7.79 2.26 1.86-.31a3.1 3.1 0 0 0-1.14-1.57 3.36 3.36 0 0 0-1.94-.54c-1.23 0-2.14.4-2.73 1.21-.47.65-.7 1.46-.7 2.44 0 1.17.3 2.1.92 2.76.6.66 1.39 1 2.32 1 1.05 0 1.89-.35 2.5-1.05.6-.7.89-1.76.87-3.2h-4.7c.02-.55.17-.98.46-1.29.29-.3.65-.46 1.08-.46.29 0 .54.08.74.24.2.16.35.42.46.77zm.1 1.9c-.02.54-.16.94-.43 1.22-.26.28-.58.43-.97.43-.4 0-.74-.15-1-.45-.28-.3-.4-.7-.4-1.2zm2.72-2.14 1.88.3c.08-.37.24-.65.49-.84.24-.2.59-.29 1.02-.29.49 0 .86.1 1.1.27.16.13.25.3.25.5 0 .15-.05.27-.14.35-.1.1-.3.18-.63.25a10 10 0 0 0-2.87.92c-.56.38-.84.9-.84 1.59 0 .61.24 1.13.72 1.55.5.42 1.25.62 2.26.62.97 0 1.68-.15 2.16-.47.47-.32.8-.78.97-1.4l-1.77-.33c-.07.28-.21.5-.42.64-.22.14-.52.22-.91.22-.5 0-.84-.07-1.05-.2a.46.46 0 0 1-.22-.4c0-.12.06-.24.18-.33.18-.12.76-.3 1.76-.53 1-.23 1.69-.5 2.08-.83.4-.33.59-.8.59-1.4 0-.64-.27-1.2-.81-1.66-.54-.47-1.34-.7-2.4-.7-.97 0-1.74.19-2.3.58-.56.39-.93.92-1.1 1.6zm11.5 5.06v-1.49h-1.28v-2.85c0-.58.01-.92.03-1.01a.4.4 0 0 1 .17-.23.5.5 0 0 1 .31-.1c.18 0 .43.06.76.18l.16-1.45a3.76 3.76 0 0 0-1.48-.29c-.34 0-.64.06-.91.18-.27.1-.47.25-.6.43-.13.19-.22.43-.26.74-.04.22-.06.65-.06 1.31v3.1h-.87v1.48h.87v1.4l1.88 1.1v-2.5zm1.3.96v1.74h1.86v-1.74zm0-8.04v7.08h1.86V8.72zm3.36 3.65c0 .62.15 1.22.45 1.8.3.58.74 1.03 1.3 1.33.57.31 1.2.46 1.89.46a3.54 3.54 0 0 0 3.66-3.67c0-1.07-.35-1.96-1.04-2.67a3.53 3.53 0 0 0-2.61-1.06 4.1 4.1 0 0 0-1.85.45 3 3 0 0 0-1.35 1.28c-.3.57-.45 1.26-.45 2.08zm1.92-.1c0-.7.16-1.24.49-1.62a1.6 1.6 0 0 1 1.24-.55c.49 0 .9.18 1.22.55.34.38.5.92.5 1.63 0 .7-.16 1.23-.5 1.6-.33.37-.73.56-1.22.56-.5 0-.9-.19-1.24-.56-.33-.37-.5-.91-.5-1.62zm13.28-3.55h-1.87v3.62c0 .77-.04 1.26-.13 1.48-.08.22-.2.4-.38.52-.19.12-.4.19-.65.19-.33 0-.62-.1-.88-.27a1.32 1.32 0 0 1-.52-.7c-.1-.3-.14-.84-.14-1.63v-3.2h-1.88v7.07h1.74v-1.04c.62.8 1.4 1.2 2.33 1.2.41 0 .8-.07 1.13-.22a1.87 1.87 0 0 0 1.15-1.36c.06-.3.1-.71.1-1.26z"/>
    </g>
  </g>
  <g font-family="Utopia" font-weight="700">
    <text font-size="10.04" style="-inkscape-font-specification:Utopia-Bold" transform="matrix(.76465 -.3735 0 1.25275 4.99 58.79)"><tspan x="0 6.75 12.2 15.31 21.3 27.61 34.92" y="0">Calquen</tspan></text>
    <text font-size="6.52" style="-inkscape-font-specification:Utopia-Bold" transform="matrix(.76465 -.3735 0 1.25275 36.59 39.73)"><tspan x="0" y="0">o</tspan></text>
    <text font-size="10.04" style="-inkscape-font-specification:Utopia-Bold" transform="matrix(.76465 -.3735 0 1.25275 40.97 41.21)"><tspan x="0" y="0">9</tspan></text>
  </g>
</svg>
