<svg xmlns="http://www.w3.org/2000/svg" xmlns:xlink="http://www.w3.org/1999/xlink" xml:space="preserve" viewBox="0 0 328.82 282.25">
  <defs>
    <path id="a" d="M0 0h384v384H0Z"/>
    <path id="b" d="M0 0h387.78v239.24H0Z"/>
  </defs>
  <defs>
    <clipPath id="c" clipPathUnits="userSpaceOnUse">
      <use xlink:href="#a"/>
    </clipPath>
    <clipPath id="d" clipPathUnits="userSpaceOnUse">
      <use xlink:href="#a"/>
    </clipPath>
    <clipPath id="e" clipPathUnits="userSpaceOnUse">
      <use xlink:href="#a"/>
    </clipPath>
    <clipPath id="f" clipPathUnits="userSpaceOnUse">
      <use xlink:href="#a"/>
    </clipPath>
    <clipPath id="g" clipPathUnits="userSpaceOnUse">
      <use xlink:href="#a"/>
    </clipPath>
    <clipPath id="h" clipPathUnits="userSpaceOnUse">
      <use xlink:href="#a"/>
    </clipPath>
    <clipPath id="i" clipPathUnits="userSpaceOnUse">
      <use xlink:href="#a"/>
    </clipPath>
    <clipPath id="j" clipPathUnits="userSpaceOnUse">
      <use xlink:href="#a"/>
    </clipPath>
    <clipPath id="k" clipPathUnits="userSpaceOnUse">
      <use xlink:href="#a"/>
    </clipPath>
    <clipPath id="l" clipPathUnits="userSpaceOnUse">
      <use xlink:href="#a"/>
    </clipPath>
    <clipPath id="m" clipPathUnits="userSpaceOnUse">
      <use xlink:href="#a"/>
    </clipPath>
    <clipPath id="n" clipPathUnits="userSpaceOnUse">
      <use xlink:href="#a"/>
    </clipPath>
    <clipPath id="o" clipPathUnits="userSpaceOnUse">
      <use xlink:href="#b"/>
    </clipPath>
    <clipPath id="p" clipPathUnits="userSpaceOnUse">
      <use xlink:href="#b"/>
    </clipPath>
  </defs>
  <path fill="#d3d3d3" fill-rule="evenodd" d="M0 282.25V0h328.82v282.25Zm.8-.8V.8h327.23v280.65Z"/>
  <path fill="#ededed" d="M.8 77.53V.8h327.23v76.73z"/>
  <path fill="#fff" d="M.8 281.45V77.15h327.23v204.3Z"/>
  <path fill="#f8f8f8" d="M.8 75.5v4.06h327.23V75.5z"/>
  <path fill="none" stroke="#dcdcdc" stroke-miterlimit="10" stroke-width=".8" d="M.8 75.9h327.23M.8 79.16h327.23"/>
  <path fill="#f8f8f8" d="M.8.8v26.86h327.23V.8z"/>
  <path fill="none" stroke="#dcdcdc" stroke-miterlimit="10" stroke-width=".8" d="M.8 28.06h327.23"/>
  <g clip-path="url(#c)" transform="matrix(.04224 0 0 -.04224 305.96 22.34)">
    <g clip-path="url(#d)" opacity=".5">
      <path fill="#999" d="M260.29 248.97V195.4l100.46 70.09-100.46 70.05v-53.27h-57.77c-113.55 0-179.27-18.96-179.27-116.93 0-97.95 65.72-116.9 179.27-116.9h130.03v33.1H202.52c-96.74 0-144 18.91-144 83.8 0 67.08 47.26 83.81 144 83.81h57.77z"/>
    </g>
  </g>
  <g clip-path="url(#e)" transform="matrix(.04224 0 0 -.04224 281.6 22.34)">
    <g clip-path="url(#f)" opacity=".5">
      <path fill="#999" d="M123.71 248.97V195.4L23.25 265.5l100.46 70.05v-53.27h57.77c113.55 0 179.27-18.96 179.27-116.93 0-97.95-65.72-116.9-179.27-116.9H51.45v33.1h130.03c96.74 0 144 18.91 144 83.8 0 67.08-47.26 83.81-144 83.81h-57.77z"/>
    </g>
  </g>
  <path fill="#fff" stroke="#6161ff" stroke-miterlimit="10" stroke-width="1.01" d="M21.58 4.1H6.38a2.53 2.53 0 0 0-2.54 2.53v15.2c0 1.4 1.13 2.54 2.53 2.54h15.2c1.4 0 2.54-1.14 2.54-2.54V6.63c0-1.4-1.13-2.54-2.53-2.54z"/>
  <g clip-path="url(#g)" transform="matrix(.04224 0 0 -.04224 5.87 22.34)">
    <g clip-path="url(#h)">
      <path fill="#fff" stroke="#000" stroke-miterlimit="10" stroke-width="9.75" d="m224.08 64.37 30.84 15.42-51.4 105.4 64.25 6.42L126.4 314.99l-2.57-194.07 47.55 48.84z"/>
    </g>
  </g>
  <path fill="#fff" stroke="#dcdcdc" stroke-miterlimit="10" stroke-width=".51" d="M45.15 4.1h-15.2a2.53 2.53 0 0 0-2.54 2.53v15.2c0 1.4 1.13 2.54 2.53 2.54h15.2c1.4 0 2.54-1.14 2.54-2.54V6.63c0-1.4-1.13-2.54-2.53-2.54z"/>
  <g clip-path="url(#i)" transform="matrix(.04224 0 0 -.04224 29.43 22.34)">
    <g clip-path="url(#j)">
      <path d="M282.13-9.99C244.52 135.93 137.09 259.82-12.6 329.91l4.14 8.84C143.87 267.4 253.23 141.19 291.57-7.55Z"/>
      <path fill="none" stroke="#000" stroke-miterlimit="10" stroke-width="9.75" d="m-6.97 89.48 401.49 183.86"/>
      <path fill="red" d="M215.93 179.38a26.25 26.25 0 1 0-52.5 0 26.25 26.25 0 0 0 52.5 0z"/>
      <path d="M189.68 199.63a20.28 20.28 0 0 0 20.25-20.25 20.27 20.27 0 0 0-20.25-20.25 20.27 20.27 0 0 0-20.25 20.25 20.27 20.27 0 0 0 20.25 20.25m0 9.75a30 30 0 1 1 0-60 30 30 0 0 1 0 60z"/>
    </g>
  </g>
  <path fill="#fff" stroke="#dcdcdc" stroke-miterlimit="10" stroke-width=".51" d="M68.47 4.1H53.26a2.53 2.53 0 0 0-2.54 2.53v15.2c0 1.4 1.14 2.54 2.54 2.54h15.2c1.4 0 2.54-1.14 2.54-2.54V6.63c0-1.4-1.13-2.54-2.53-2.54z"/>
  <g clip-path="url(#k)" transform="matrix(.04224 0 0 -.04224 52.75 22.34)">
    <g clip-path="url(#l)">
      <path fill="none" stroke="#000" stroke-width="9.75" d="M391.67 331.8 90 120.59"/>
      <path fill="#00f" d="M297.75 247.53a26.25 26.25 0 1 0-52.5 0 26.25 26.25 0 0 0 52.5 0z"/>
      <path d="M271.5 267.78a20.28 20.28 0 0 0 20.25-20.25 20.27 20.27 0 0 0-20.25-20.25 20.27 20.27 0 0 0-20.25 20.25 20.27 20.27 0 0 0 20.25 20.25m0 9.75a30 30 0 1 1 0-60 30 30 0 0 1 0 60z"/>
      <path fill="#00f" d="M116.25 121.27a26.25 26.25 0 1 0-52.5 0 26.25 26.25 0 0 0 52.5 0z"/>
      <path d="M90 141.52a20.27 20.27 0 0 0 20.25-20.25A20.28 20.28 0 0 0 90 101.02a20.28 20.28 0 0 0-20.25 20.25A20.27 20.27 0 0 0 90 141.52m0 9.75a30 30 0 1 1 0-60 30 30 0 0 1 0 60z"/>
    </g>
  </g>
  <path fill="#fff" stroke="#dcdcdc" stroke-miterlimit="10" stroke-width=".51" d="M91.78 4.1h-15.2a2.53 2.53 0 0 0-2.54 2.53v15.2c0 1.4 1.14 2.54 2.54 2.54h15.2c1.4 0 2.54-1.14 2.54-2.54V6.63c0-1.4-1.14-2.54-2.54-2.54z"/>
  <g clip-path="url(#m)" transform="matrix(.04224 0 0 -.04224 76.07 22.34)">
    <g clip-path="url(#n)">
      <path fill="none" stroke="#000" stroke-width="9.75" d="M330.08 192c0-76.13-61.82-137.84-138.08-137.84-76.26 0-138.08 61.72-138.08 137.84 0 76.13 61.82 137.84 138.08 137.84 76.26 0 138.08-61.71 138.08-137.84z"/>
      <path fill="#00f" d="M331 271.91a26.25 26.25 0 1 0-52.5 0 26.25 26.25 0 0 0 52.5 0z"/>
      <path d="M321.34 283.53a20.27 20.27 0 0 0-4.98-28.2 20.27 20.27 0 0 0-28.2 4.97 20.28 20.28 0 0 0 4.97 28.2 20.28 20.28 0 0 0 28.2-4.97m7.99 5.6a30 30 0 1 1-49.15-34.42 30 30 0 0 1 49.15 34.41z"/>
      <path fill="#00f" d="M218.25 192a26.25 26.25 0 1 0-52.5 0 26.25 26.25 0 0 0 52.5 0z"/>
      <path d="M208.59 203.62a20.28 20.28 0 0 0-4.97-28.2 20.27 20.27 0 0 0-28.21 4.97 20.28 20.28 0 0 0 4.97 28.2 20.28 20.28 0 0 0 28.21-4.97m7.98 5.59a30 30 0 1 1-49.14-34.41 30 30 0 0 1 49.14 34.4z"/>
    </g>
  </g>
  <g clip-path="url(#o)" transform="matrix(.84387 0 0 -.84387 .8 281.45)">
    <g clip-path="url(#p)">
      <path fill="#598aae" d="M3.23 221.63h381.32V141.5H3.23Z"/>
      <path fill="#fff" d="M18.74 201.66v11.03c.03.36.23.55.6.6h1.47c.17-.02.3-.08.4-.2.11-.1.18-.23.2-.4v-11.03a.67.67 0 0 0-.2-.41.64.64 0 0 0-.4-.19h-1.47c-.36.04-.56.24-.6.6zm5.29 0v11.03c.02.17.08.3.18.4.11.12.25.18.41.2h1.22a.61.61 0 0 0 .41-.19c.1-.1.17-.24.19-.41v-11.03c-.05-.36-.24-.56-.6-.6h-1.22c-.35.04-.55.24-.6.6zm10 .06c-.08.03-.12.1-.12.2l.28 1.56c.02.14.1.2.21.2a.2.2 0 0 0 .18-.08 3.2 3.2 0 0 1 2.6-1.3c.42 0 .75.07 1 .2.24.12.36.36.36.73a.7.7 0 0 1-.31.59c-.2.15-.44.25-.7.3l-1.03.2a3.7 3.7 0 0 0-1.77.87c-.47.45-.71 1-.71 1.65 0 .64.13 1.15.4 1.54.27.4.63.66 1.1.82.46.15 1.01.23 1.66.23.41 0 .98-.08 1.73-.23.74-.15 1.11-.34 1.11-.58l-.22-1.32c-.03-.15-.1-.22-.23-.22a.16.16 0 0 0-.13.06c-.7.64-1.5.96-2.41.96-.38 0-.68-.05-.9-.16-.2-.1-.31-.33-.31-.66 0-.2.09-.37.27-.52.18-.14.38-.23.6-.27l1.13-.22a3.6 3.6 0 0 0 1.25-.5c.39-.24.7-.55.93-.92.22-.37.34-.79.34-1.25 0-.98-.28-1.68-.83-2.1a3.75 3.75 0 0 0-2.33-.64 6.28 6.28 0 0 0-3.15.86zm8.47 7.32c-.12 0-.19.08-.19.22 0 .05 0 .08.02.1l.58 1.55h-.4a.2.2 0 0 0-.15.06.2.2 0 0 0-.07.15v1.98c0 .05.03.09.07.13.04.03.1.05.15.05h1.97a.2.2 0 0 0 .13-.05.17.17 0 0 0 .07-.13v-2.04l-.02-.03-1.22-1.9a.19.19 0 0 0-.16-.09zm6.72-8.18c-.46 0-.88.12-1.26.37a2.72 2.72 0 0 0-1.23 2.27c0 .67.3 1.2.88 1.58.59.4 1.27.65 2.05.79.77.13 1.53.2 2.27.2v.59c0 1.02-.37 1.53-1.12 1.53a4.08 4.08 0 0 1-1.99-.53c-.28-.17-.56-.4-.84-.68a.25.25 0 0 0-.18-.09.22.22 0 0 0-.15.07.19.19 0 0 0-.07.14l-.13 1.39c0 .1.05.18.15.22a7.27 7.27 0 0 0 5.02.47c.52-.17.95-.46 1.28-.86.33-.4.5-.95.5-1.63v-5.03c-.05-.36-.24-.56-.6-.6h-1.22c-.36.04-.55.24-.6.6v.6a3.5 3.5 0 0 0-2.77-1.4zm1 1.35c.44 0 .84.14 1.19.44s.52.67.52 1.1v1.52c-.4 0-.81-.06-1.25-.18a2.76 2.76 0 0 1-1.13-.58 1.3 1.3 0 0 1-.46-1.02c0-.32.11-.62.32-.89a1 1 0 0 1 .81-.4zm5.62-2.31c0 .36.1.68.32.96.2.27.48.47.83.59-.3.39-.46.85-.46 1.4 0 .54.16 1.02.49 1.45-.29.26-.5.58-.65.94a3.4 3.4 0 0 0-.21 1.2c0 1.02.33 1.76.98 2.21a4.5 4.5 0 0 0 2.6.68c1.06 0 1.9-.2 2.5-.6a4.32 4.32 0 0 0 2.2.6c.13 0 .2-.06.23-.17l.18-1.02a.23.23 0 0 0-.07-.17.2.2 0 0 0-.15-.07 6.14 6.14 0 0 1-1.85.3c.18-.23.3-.5.4-.8.08-.31.13-.63.13-.96 0-1.04-.33-1.78-.98-2.23a4.46 4.46 0 0 0-2.6-.68 4.7 4.7 0 0 0-2.21.44c-.02-.12-.04-.2-.04-.27a.99.99 0 0 1 1-.98h1.82c.86 0 1.6-.06 2.23-.17a2.87 2.87 0 0 0 1.55-.79c.42-.4.62-1.03.62-1.86 0-1.65-1.47-2.47-4.42-2.47-2.96 0-4.44.82-4.44 2.47zm1.88 0c0-.8.85-1.2 2.54-1.2 1.7 0 2.56.4 2.56 1.2 0 .55-.84.82-2.52.82h-1.82c-.5 0-.76-.27-.76-.82zm2.02 4.9c.37 0 .65.06.82.18.18.13.3.3.35.52.05.22.07.53.07.92v.03c0 .58-.07.99-.21 1.24-.15.24-.5.36-1.03.36-.37 0-.64-.06-.83-.18a.87.87 0 0 1-.35-.52 4.09 4.09 0 0 1-.08-.9v-.03c0-.4.03-.7.08-.92.05-.22.17-.4.35-.52.19-.12.46-.19.83-.19zm6.42-3.14v6.87c.04.36.24.56.6.6h1.22c.17-.02.3-.08.41-.19.1-.1.17-.24.18-.41v-6.87c-.04-.36-.23-.56-.59-.6h-1.22c-.36.04-.56.24-.6.6zm.48 9.3c-.36.03-.56.24-.6.6v1.15c.04.36.24.56.6.59h1.46a.63.63 0 0 0 .42-.18c.1-.11.16-.25.18-.41v-1.15c-.05-.36-.25-.57-.6-.6zm6.27-10.1c-1.17 0-1.76.95-1.76 2.86v4.07h-.56c-.36.04-.56.24-.6.6v.14c.04.36.24.56.6.6h.61v1.71c.04.36.24.55.6.6h1.11a.67.67 0 0 0 .42-.2c.1-.1.17-.23.19-.4v-1.71h1.77c.36-.04.56-.24.6-.6v-.14c-.04-.36-.24-.56-.6-.6h-1.77v-3.8c0-1.12.2-1.68.6-1.68.26 0 .5.04.73.13.22.09.43.2.62.32.18.12.28.18.3.18a.2.2 0 0 0 .12-.04.28.28 0 0 0 .09-.11l.23-.87v-.07c0-.09-.03-.15-.1-.19a6.89 6.89 0 0 0-3.2-.8zm13.83 0a3.4 3.4 0 0 0-2.03.56c-.51.37-.88.87-1.1 1.5a6.64 6.64 0 0 0-.33 2.18c0 1.27.27 2.3.82 3.07.55.77 1.45 1.16 2.7 1.16a3.37 3.37 0 0 0 2.23-.87v4.23c.04.36.25.56.6.6h1.22c.17-.02.3-.08.41-.2.1-.1.17-.23.19-.4v-11.03c-.04-.36-.24-.56-.6-.6h-1.27c-.36.04-.56.24-.6.6v.2a3.03 3.03 0 0 0-2.24-1zm.7 1.35a1.96 1.96 0 0 1 1.53.77v4.49a2.1 2.1 0 0 1-2.36.28 1.42 1.42 0 0 1-.58-.62c-.12-.26-.2-.56-.24-.89a9.7 9.7 0 0 1-.06-1.14c0-.92.1-1.63.3-2.14.2-.5.67-.75 1.42-.75zm5.61 2.94c0 .67.09 1.28.27 1.82.18.54.45.99.8 1.35.36.36.8.64 1.32.83.53.18 1.13.28 1.82.28 2.45 0 3.68-1.31 3.68-3.93a.63.63 0 0 0-.17-.45.64.64 0 0 0-.43-.22h-4.96c0-.79.17-1.42.51-1.9.35-.48.9-.72 1.65-.72a4 4 0 0 1 2.83 1.12c.06.02.11.04.15.04a.2.2 0 0 0 .14-.06.17.17 0 0 0 .07-.13l.11-1.24c0-.1-.04-.17-.11-.2a6.37 6.37 0 0 0-5.61-.4c-.68.32-1.2.8-1.55 1.43a4.87 4.87 0 0 0-.52 2.38zm2.34.68h3.52c0 1.5-.55 2.26-1.65 2.26-.6 0-1.07-.22-1.39-.66a2.63 2.63 0 0 1-.48-1.6zm16.82-4.97c-1.37 0-2.42.36-3.12 1.1-.71.72-1.07 1.77-1.07 3.14 0 .9.16 1.68.47 2.34.3.65.77 1.14 1.4 1.48.62.34 1.4.51 2.32.51a5.4 5.4 0 0 0 2.02-.3 12 12 0 0 0 .98-.42c.07-.07.11-.14.11-.22l-.25-1.37c-.02-.1-.09-.16-.21-.16a.16.16 0 0 0-.13.05c-.42.38-.8.64-1.15.77-.34.14-.8.2-1.37.2-.73 0-1.2-.26-1.4-.78a5.68 5.68 0 0 1-.33-2.09v-.03c0-.52.04-.97.12-1.37.07-.4.24-.73.49-1 .26-.27.63-.4 1.12-.4 1.06 0 1.98.36 2.74 1.09.04.02.09.04.14.04.05 0 .1-.02.14-.05a.17.17 0 0 0 .07-.15l.12-1.35c0-.1-.03-.18-.1-.21-.96-.54-2-.82-3.1-.82zm4.32 4.13c0 .95.15 1.76.47 2.42.32.67.8 1.17 1.43 1.51.63.34 1.43.51 2.4.51.96 0 1.75-.17 2.39-.51.63-.34 1.1-.84 1.42-1.5.31-.67.47-1.48.47-2.43 0-.7-.1-1.3-.28-1.82a3.25 3.25 0 0 0-2.18-2.05 6 6 0 0 0-1.82-.26c-.93 0-1.7.15-2.35.45-.64.3-1.12.76-1.46 1.38a4.8 4.8 0 0 0-.5 2.3zm4.3-2.68c.56 0 .98.14 1.24.41.26.28.42.61.48 1 .06.4.1.9.1 1.53a9.5 9.5 0 0 1-.1 1.49c-.06.38-.22.7-.5.96-.26.26-.67.39-1.22.39-.56 0-.97-.13-1.25-.4a1.66 1.66 0 0 1-.5-.95 9.97 9.97 0 0 1-.08-1.5c0-.62.03-1.12.09-1.52.06-.39.22-.72.48-1 .27-.27.69-.41 1.26-.41zm5.87-.65v6.98a.64.64 0 0 0 .6.6h1.16c.17-.03.3-.09.41-.2a.6.6 0 0 0 .18-.4v-1.06c.28.52.66.94 1.16 1.27.5.32 1.05.48 1.63.48a4 4 0 0 0 1.54-.25c.4-.17.69-.44.87-.82.18-.39.27-.9.27-1.55v-5.05c-.04-.36-.24-.56-.6-.6h-1.27c-.36.04-.56.24-.6.6v5a2 2 0 0 1-.19 1.02c-.12.2-.4.3-.83.3-.36 0-.68-.1-.96-.3a2.24 2.24 0 0 1-.9-1.79v-4.23a.68.68 0 0 0-.2-.41.66.66 0 0 0-.4-.19h-1.28c-.35.04-.55.24-.6.6zm9.53.06c-.09.03-.13.1-.13.2l.28 1.56c.03.14.1.2.22.2a.2.2 0 0 0 .17-.08 3.22 3.22 0 0 1 2.6-1.3c.42 0 .75.07 1 .2.24.12.36.36.36.73a.7.7 0 0 1-.3.59c-.21.15-.45.25-.7.3l-1.03.2c-.7.14-1.3.44-1.77.87-.48.45-.72 1-.72 1.65 0 .64.14 1.15.4 1.54.27.4.64.66 1.1.82.46.15 1.02.23 1.67.23.4 0 .98-.08 1.72-.23.74-.15 1.12-.34 1.12-.58l-.23-1.32c-.03-.15-.1-.22-.23-.22a.16.16 0 0 0-.12.06c-.7.64-1.5.96-2.42.96a2 2 0 0 1-.89-.16c-.21-.1-.32-.33-.32-.66 0-.2.09-.37.27-.52.18-.14.38-.23.6-.27l1.13-.22a3.46 3.46 0 0 0 2.18-1.42c.23-.37.34-.79.34-1.25 0-.98-.27-1.68-.82-2.1a3.76 3.76 0 0 0-2.34-.64 5.88 5.88 0 0 0-3.15.86zm10.04-.86c-1.18 0-1.77.95-1.77 2.86v4.07h-.56c-.36.04-.56.24-.6.6v.14c.04.36.24.56.6.6h.61v1.71c.04.36.24.55.61.6h1.1a.68.68 0 0 0 .42-.2c.1-.1.17-.23.19-.4v-1.71h1.77c.36-.04.56-.24.6-.6v-.14c-.04-.36-.24-.56-.6-.6h-1.77v-3.8c0-1.12.2-1.68.61-1.68.26 0 .5.04.72.13.23.09.43.2.62.32.18.12.29.18.3.18.04 0 .08 0 .12-.04a.25.25 0 0 0 .09-.11l.23-.87v-.07c0-.09-.03-.15-.1-.19a6.9 6.9 0 0 0-3.2-.8zm4.88.8v6.98c.02.17.08.3.19.4.1.11.24.17.4.2h1.14c.17-.03.3-.09.4-.2.11-.1.18-.23.2-.4v-1.3c.25.59.61 1.06 1.08 1.43.47.37 1 .56 1.59.56.15 0 .23-.07.23-.2v-1.45c0-.04-.02-.1-.06-.14a.17.17 0 0 0-.13-.07c-.44 0-.86-.1-1.27-.28a2.43 2.43 0 0 1-.99-.78 1.92 1.92 0 0 1-.37-1.18v-3.57c-.04-.36-.24-.56-.6-.6h-1.21c-.36.04-.56.24-.6.6zm6.54 1.57v5.3c.04.36.24.56.6.6h1.26a.65.65 0 0 0 .6-.6v-5.25c0-.4.03-.69.06-.84a.47.47 0 0 1 .3-.33c.16-.06.43-.1.8-.1.35 0 .65.1.9.3.27.18.47.43.61.74.14.3.21.63.21.97v4.5c.05.37.25.57.6.6h1.27c.37-.03.56-.23.6-.6v-6.86c-.04-.36-.23-.56-.6-.6h-1.21c-.36.04-.55.24-.6.6v.63a3.02 3.02 0 0 0-1.01-1.03c-.43-.27-.89-.4-1.37-.4-.5 0-.9.03-1.26.1-.35.06-.65.18-.92.34-.26.16-.47.4-.62.71a2.9 2.9 0 0 0-.22 1.22zm9.9-1.57v6.87c.04.36.23.56.59.6h1.22a.6.6 0 0 0 .4-.19c.11-.1.18-.24.2-.41v-6.87c-.05-.36-.25-.56-.6-.6h-1.22c-.36.04-.56.24-.6.6zm.47 9.3c-.36.03-.56.24-.6.6v1.15c.04.36.24.56.6.59h1.46a.62.62 0 0 0 .42-.18c.1-.11.16-.25.18-.41v-1.15c-.05-.36-.26-.57-.6-.6zm4.04-9.3v6.98c.02.17.08.3.18.4.1.11.24.17.41.2h1.13c.17-.03.3-.09.41-.2.11-.1.17-.23.2-.4v-1.3c.25.59.61 1.06 1.08 1.43.47.37 1 .56 1.58.56.16 0 .24-.07.24-.2v-1.45c0-.04-.02-.1-.06-.14-.04-.05-.08-.07-.13-.07-.44 0-.86-.1-1.27-.28a2.44 2.44 0 0 1-1-.78 1.92 1.92 0 0 1-.37-1.18v-3.57c-.03-.36-.23-.56-.59-.6h-1.22c-.35.04-.55.24-.6.6zm6.05 3.49c0 .67.1 1.28.28 1.82.18.54.45.99.8 1.35.36.36.8.64 1.32.83.52.18 1.13.28 1.81.28 2.46 0 3.69-1.31 3.69-3.93a.64.64 0 0 0-.17-.45.65.65 0 0 0-.44-.22h-4.96c0-.79.18-1.42.52-1.9s.9-.72 1.65-.72a4 4 0 0 1 2.83 1.12c.06.02.1.04.15.04a.2.2 0 0 0 .14-.06.17.17 0 0 0 .06-.13l.11-1.24c0-.1-.03-.17-.1-.2a6.34 6.34 0 0 0-5.62-.4 3.4 3.4 0 0 0-1.54 1.43 4.86 4.86 0 0 0-.53 2.38zm2.35.68h3.52c0 1.5-.56 2.26-1.66 2.26a1.6 1.6 0 0 1-1.38-.66 2.63 2.63 0 0 1-.48-1.6zm9.88-4.4a1.4 1.4 0 0 0-.97-.37c-.42 0-.76.13-1 .4-.25.28-.37.6-.37.97a1.3 1.3 0 0 0 1.36 1.38c.47 0 .87-.21 1.17-.63.3-.41.45-.94.45-1.58a5.4 5.4 0 0 0-1.47-3.5c-.32-.3-.53-.46-.65-.46-.07 0-.14.04-.22.12-.08.09-.11.16-.11.22 0 .07.08.18.26.33a4.35 4.35 0 0 1 1.55 3.12zm10.74-.57c-.46 0-.88.12-1.26.37a2.68 2.68 0 0 0-1.23 2.27c0 .67.3 1.2.89 1.58.59.4 1.27.65 2.05.79.77.13 1.53.2 2.27.2v.59c0 1.02-.38 1.53-1.13 1.53a4.08 4.08 0 0 1-1.98-.53c-.28-.17-.56-.4-.84-.68a.24.24 0 0 0-.17-.09.23.23 0 0 0-.16.07.19.19 0 0 0-.07.14l-.13 1.39c0 .1.05.18.15.22a7.27 7.27 0 0 0 5.01.47c.53-.17.96-.46 1.28-.86.34-.4.5-.95.5-1.63v-5.03c-.04-.36-.24-.56-.6-.6h-1.21c-.36.04-.56.24-.6.6v.6a3.02 3.02 0 0 0-1.2-1.02 3.52 3.52 0 0 0-1.57-.38zm1 1.35c.45 0 .85.14 1.2.44s.52.67.52 1.1v1.52c-.4 0-.81-.06-1.26-.18a2.72 2.72 0 0 1-1.12-.58 1.3 1.3 0 0 1-.46-1.02c0-.32.1-.62.32-.89a1 1 0 0 1 .8-.4zm7.88-.51-2.18 6.79a.58.58 0 0 0-.04.15c0 .12.06.23.16.33s.22.16.35.16h.9a.9.9 0 0 0 .54-.18.89.89 0 0 0 .33-.46l1.7-5.31 1.72 5.31c.06.18.17.34.33.46a.9.9 0 0 0 .53.18h.86c.13 0 .24-.05.34-.16.1-.1.16-.21.16-.33a.54.54 0 0 0-.04-.15l-2.18-6.8a.89.89 0 0 0-.34-.45.9.9 0 0 0-.53-.18h-1.74a.87.87 0 0 0-.52.18.97.97 0 0 0-.35.46zm6.7 3.45c0 .67.09 1.28.27 1.82.19.54.46.99.81 1.35.36.36.8.64 1.32.83a5.5 5.5 0 0 0 1.81.28c2.46 0 3.68-1.31 3.68-3.93a.66.66 0 0 0-.6-.67h-4.96c0-.79.17-1.42.51-1.9.35-.48.9-.72 1.65-.72a4 4 0 0 1 2.83 1.12c.06.02.11.04.15.04a.2.2 0 0 0 .15-.06.17.17 0 0 0 .06-.13l.1-1.24c0-.1-.03-.17-.1-.2a6.35 6.35 0 0 0-5.61-.4c-.68.32-1.2.8-1.54 1.43a4.86 4.86 0 0 0-.54 2.38zm2.35.68h3.51c0 1.5-.55 2.26-1.65 2.26a1.6 1.6 0 0 1-1.38-.66 2.63 2.63 0 0 1-.48-1.6zm10.95-4.97c-1.38 0-2.42.36-3.13 1.1-.7.72-1.06 1.77-1.06 3.14 0 .9.16 1.68.46 2.34a3.3 3.3 0 0 0 1.4 1.48c.62.34 1.4.51 2.33.51a5.95 5.95 0 0 0 2.99-.72c.08-.07.12-.14.12-.22l-.25-1.37c-.02-.1-.1-.16-.22-.16a.16.16 0 0 0-.12.05c-.43.38-.8.64-1.15.77-.35.14-.8.2-1.37.2-.73 0-1.2-.26-1.41-.78a5.6 5.6 0 0 1-.32-2.09v-.03c0-.52.04-.97.11-1.37.08-.4.24-.73.5-1 .25-.27.63-.4 1.12-.4a3.8 3.8 0 0 1 2.73 1.09.3.3 0 0 0 .14.04.3.3 0 0 0 .15-.05.18.18 0 0 0 .07-.15l.12-1.35c0-.1-.04-.18-.1-.21-.97-.54-2-.82-3.11-.82zm10.68.8v11.03c.01.17.08.3.18.4.1.12.24.18.41.2h1.22a.68.68 0 0 0 .42-.19c.1-.1.16-.24.18-.41v-11.03c-.05-.36-.24-.56-.6-.6h-1.22c-.36.04-.55.24-.6.6zm4.02 3.49c0 .67.08 1.28.27 1.82.18.54.45.99.8 1.35.36.36.8.64 1.32.83.52.18 1.13.28 1.82.28 2.45 0 3.68-1.31 3.68-3.93a.64.64 0 0 0-.17-.45.65.65 0 0 0-.44-.22h-4.96c0-.79.17-1.42.52-1.9.34-.48.9-.72 1.65-.72 1.08 0 2.02.37 2.83 1.12.06.02.1.04.15.04a.2.2 0 0 0 .14-.06.17.17 0 0 0 .06-.13l.11-1.24c0-.1-.04-.17-.1-.2a6.34 6.34 0 0 0-5.62-.4 3.4 3.4 0 0 0-1.54 1.43 4.86 4.86 0 0 0-.53 2.38zm2.34.68h3.52c0 1.5-.56 2.26-1.65 2.26a1.6 1.6 0 0 1-1.39-.66 2.62 2.62 0 0 1-.48-1.6zm6.78-4.11c-.09.03-.13.1-.13.2l.29 1.56c.02.14.09.2.21.2a.2.2 0 0 0 .17-.08 3.21 3.21 0 0 1 2.6-1.3c.42 0 .75.07 1 .2.24.12.37.36.37.73a.7.7 0 0 1-.31.59c-.2.15-.44.25-.7.3l-1.03.2a3.7 3.7 0 0 0-1.77.87c-.48.45-.72 1-.72 1.65 0 .64.14 1.15.4 1.54.28.4.64.66 1.1.82.47.15 1.02.23 1.67.23.4 0 .98-.08 1.72-.23.75-.15 1.12-.34 1.12-.58l-.22-1.32c-.04-.15-.11-.22-.24-.22a.17.17 0 0 0-.12.06c-.7.64-1.5.96-2.42.96-.38 0-.67-.05-.88-.16-.22-.1-.33-.33-.33-.66 0-.2.1-.37.27-.52.18-.14.38-.23.6-.27l1.13-.22a3.39 3.39 0 0 0 2.18-1.42c.23-.37.34-.79.34-1.25 0-.98-.27-1.68-.82-2.1a3.74 3.74 0 0 0-2.33-.64 6.32 6.32 0 0 0-3.15.86zm13.17 3.27c0 .95.16 1.76.47 2.42.32.67.8 1.17 1.43 1.51.64.34 1.43.51 2.4.51.96 0 1.75-.17 2.39-.51.63-.34 1.1-.84 1.42-1.5a5.6 5.6 0 0 0 .47-2.43c0-.7-.09-1.3-.28-1.82a3.2 3.2 0 0 0-2.18-2.05 6.02 6.02 0 0 0-1.82-.26c-.92 0-1.7.15-2.35.45-.64.3-1.12.76-1.45 1.38a4.8 4.8 0 0 0-.5 2.3zm4.3-2.68c.56 0 .98.14 1.24.41.26.28.42.61.49 1a12.49 12.49 0 0 1 0 3.02c-.07.38-.23.7-.5.96s-.68.39-1.23.39c-.56 0-.97-.13-1.24-.4a1.65 1.65 0 0 1-.5-.95 9.97 9.97 0 0 1-.1-1.5c0-.62.04-1.12.1-1.52.06-.39.22-.72.49-1 .26-.27.68-.41 1.25-.41zm5.87.92v5.3c.04.36.24.56.6.6h1.27c.17-.02.3-.08.4-.2a.6.6 0 0 0 .2-.4v-5.25c0-.4.02-.69.06-.84a.46.46 0 0 1 .3-.33c.16-.06.42-.1.8-.1.34 0 .64.1.9.3.26.18.46.43.6.74.15.3.22.63.22.97v4.5c.04.37.24.57.6.6h1.27c.36-.03.56-.23.6-.6v-6.86c-.04-.36-.24-.56-.6-.6h-1.22c-.35.04-.55.24-.59.6v.63c-.25-.42-.6-.77-1.02-1.03-.42-.27-.88-.4-1.36-.4-.5 0-.92.03-1.26.1-.35.06-.66.18-.92.34-.27.16-.48.4-.63.71a2.9 2.9 0 0 0-.22 1.22zm12.14-2.37c-1.18 0-1.77.95-1.77 2.86v4.07h-.56c-.36.04-.56.24-.6.6v.14c.04.36.24.56.6.6h.62v1.71c.03.36.23.55.6.6h1.1a.67.67 0 0 0 .42-.2.6.6 0 0 0 .19-.4v-1.71h1.77c.36-.04.56-.24.6-.6v-.14c-.04-.36-.24-.56-.6-.6h-1.77v-3.8c0-1.12.2-1.68.6-1.68.27 0 .5.04.73.13.23.09.43.2.62.32.18.12.29.18.3.18a.2.2 0 0 0 .12-.04.28.28 0 0 0 .09-.11l.23-.87v-.07c0-.09-.03-.15-.1-.19a6.89 6.89 0 0 0-3.2-.8zm4.88.8v6.87c.04.36.24.56.6.6H296a.66.66 0 0 0 .6-.6l-.01-6.87c-.04-.36-.24-.56-.6-.6h-1.22c-.35.04-.55.24-.59.6zm.47 9.3c-.35.03-.55.24-.6.6v1.15c.05.36.25.56.6.59h1.46a.6.6 0 0 0 .42-.18c.1-.11.17-.25.19-.41v-1.15c-.06-.36-.26-.57-.6-.6zm4.04-9.3v11.03c.01.17.08.3.18.4.1.12.24.18.41.2h1.22a.63.63 0 0 0 .41-.19c.11-.1.17-.24.18-.41v-11.03c-.03-.36-.23-.56-.59-.6h-1.22c-.35.04-.55.24-.6.6zm4.14.06c-.09.03-.13.1-.13.2l.28 1.56c.03.14.1.2.22.2a.2.2 0 0 0 .17-.08 3.21 3.21 0 0 1 2.6-1.3c.42 0 .75.07 1 .2.24.12.37.36.37.73a.7.7 0 0 1-.31.59c-.21.15-.44.25-.7.3l-1.03.2c-.7.14-1.3.44-1.77.87-.48.45-.72 1-.72 1.65 0 .64.13 1.15.4 1.54.27.4.64.66 1.1.82.46.15 1.02.23 1.67.23.4 0 .98-.08 1.72-.23.74-.15 1.12-.34 1.12-.58l-.23-1.32c-.03-.15-.1-.22-.23-.22a.16.16 0 0 0-.12.06c-.7.64-1.5.96-2.42.96a2 2 0 0 1-.89-.16c-.21-.1-.32-.33-.32-.66 0-.2.09-.37.27-.52.18-.14.38-.23.6-.27l1.13-.22a3.6 3.6 0 0 0 1.25-.5c.39-.24.7-.55.93-.92.23-.37.34-.79.34-1.25 0-.98-.27-1.68-.82-2.1a3.77 3.77 0 0 0-2.33-.64 6.32 6.32 0 0 0-3.15.86zm14.11-.06v6.13h-.36c-.35.03-.55.23-.6.6v.14c.03.18.1.32.2.42.1.1.23.16.4.18h.36v1.43c0 1.02.31 1.76.95 2.22.63.47 1.48.7 2.54.7.34 0 .7-.02 1.1-.08.4-.05.6-.15.64-.3v-1.43a.2.2 0 0 0-.07-.15c-.05-.05-.1-.07-.14-.07-.02 0-.12.07-.28.2a3 3 0 0 1-.55.34c-.2.1-.44.15-.7.15-.76 0-1.14-.34-1.14-1v-2.01h1.11c.36-.04.57-.24.6-.6v-.14c-.03-.36-.24-.56-.6-.6h-1.05v-6.13c-.04-.36-.24-.56-.6-.6h-1.21c-.36.04-.56.24-.6.6zm4.98 3.33c0 .95.16 1.76.47 2.42.32.67.8 1.17 1.43 1.51.64.34 1.43.51 2.4.51a5 5 0 0 0 2.38-.51 3.25 3.25 0 0 0 1.43-1.5 5.6 5.6 0 0 0 .47-2.43c0-.7-.09-1.3-.28-1.82a3.22 3.22 0 0 0-2.18-2.05 6.03 6.03 0 0 0-1.82-.26c-.92 0-1.7.15-2.35.45-.64.3-1.12.76-1.45 1.38a4.8 4.8 0 0 0-.5 2.3zm4.3-2.68c.56 0 .97.14 1.24.41.26.28.42.61.49 1a12.2 12.2 0 0 1-.01 3.02c-.06.38-.22.7-.5.96-.26.26-.67.39-1.22.39-.56 0-.97-.13-1.24-.4a1.65 1.65 0 0 1-.5-.95 9.97 9.97 0 0 1-.1-1.5c0-.62.04-1.12.1-1.52.06-.39.22-.72.49-1 .26-.27.68-.41 1.25-.41zm5.87.92v5.3c.04.36.24.56.6.6h1.27a.6.6 0 0 0 .4-.2.6.6 0 0 0 .2-.4v-5.25c0-.4.02-.69.06-.84a.46.46 0 0 1 .3-.33c.15-.06.42-.1.8-.1.34 0 .64.1.9.3.26.18.46.43.6.74.15.3.22.63.22.97v4.5c.04.37.24.57.6.6h1.27c.36-.03.56-.23.6-.6v-6.86c-.04-.36-.24-.56-.6-.6h-1.22c-.35.04-.55.24-.59.6v.63c-.25-.42-.6-.77-1.02-1.03a2.5 2.5 0 0 0-1.36-.4c-.5 0-.92.03-1.26.1-.35.06-.66.18-.92.34-.27.16-.48.4-.63.71a2.9 2.9 0 0 0-.22 1.22zm9.9-1.57v6.98c.02.17.08.3.19.4.1.11.24.17.4.2h1.14a.7.7 0 0 0 .4-.2c.11-.1.18-.23.2-.4v-1.3a3.7 3.7 0 0 0 1.08 1.43c.47.37 1 .56 1.59.56.15 0 .23-.07.23-.2v-1.45c0-.04-.02-.1-.06-.14-.04-.05-.08-.07-.13-.07-.44 0-.86-.1-1.27-.28a2.44 2.44 0 0 1-.99-.78 1.94 1.94 0 0 1-.37-1.18v-3.57c-.05-.36-.24-.56-.6-.6h-1.22c-.35.04-.55.24-.6.6zm6.53 0v6.98c.02.17.08.3.19.4.1.11.24.17.4.2h1.18a.7.7 0 0 0 .4-.2.6.6 0 0 0 .19-.4v-1.06c.28.52.66.94 1.16 1.27.5.32 1.04.48 1.63.48.63 0 1.14-.09 1.54-.25.4-.17.68-.44.86-.82.18-.39.27-.9.27-1.55v-5.05c-.03-.36-.24-.56-.6-.6h-1.26c-.36.04-.57.24-.6.6v5c0 .48-.07.81-.19 1.02-.12.2-.4.3-.83.3-.36 0-.68-.1-.96-.3a2.24 2.24 0 0 1-.9-1.79v-4.23a.67.67 0 0 0-.2-.41.65.65 0 0 0-.4-.19h-1.28c-.36.04-.55.24-.6.6zm9.9 0v6.87c.05.36.24.56.6.6h1.22a.6.6 0 0 0 .4-.19c.11-.1.18-.24.2-.41v-6.87c-.05-.36-.25-.56-.6-.6h-1.22c-.36.04-.55.24-.6.6zm.48 9.3c-.36.03-.56.24-.6.6v1.15c.04.36.24.56.6.59h1.46a.62.62 0 0 0 .42-.18.7.7 0 0 0 .18-.41v-1.15c-.06-.36-.26-.57-.6-.6zm3.67-9.24c-.09.03-.13.1-.13.2l.28 1.56c.03.14.1.2.21.2a.2.2 0 0 0 .18-.08 3.2 3.2 0 0 1 2.6-1.3c.42 0 .75.07 1 .2.24.12.36.36.36.73a.7.7 0 0 1-.3.59c-.22.15-.45.25-.7.3l-1.04.2c-.7.14-1.28.44-1.76.87-.48.45-.72 1-.72 1.65 0 .64.13 1.15.4 1.54.27.4.64.66 1.1.82a5.4 5.4 0 0 0 1.66.23c.41 0 .98-.08 1.73-.23.74-.15 1.11-.34 1.11-.58l-.22-1.32c-.03-.15-.1-.22-.23-.22a.16.16 0 0 0-.12.06c-.7.64-1.51.96-2.42.96-.38 0-.68-.05-.9-.16-.2-.1-.31-.33-.31-.66 0-.2.09-.37.27-.52.18-.14.38-.23.6-.27l1.13-.22a3.46 3.46 0 0 0 2.18-1.42c.22-.37.34-.79.34-1.25 0-.98-.28-1.68-.83-2.1a3.75 3.75 0 0 0-2.33-.64 6.33 6.33 0 0 0-3.14.86zm10.53-.29c-.27-.25-.6-.37-.97-.37-.42 0-.76.13-1 .4-.25.28-.38.6-.38.97a1.33 1.33 0 0 0 1.36 1.38c.48 0 .87-.21 1.18-.63.3-.41.44-.94.44-1.58 0-.72-.16-1.41-.5-2.06a5.4 5.4 0 0 0-.96-1.44c-.32-.3-.54-.46-.65-.46-.07 0-.14.04-.22.12-.08.09-.12.16-.12.22 0 .07.1.18.27.33a4.34 4.34 0 0 1 1.55 3.12zM82.04 177.95v11.03c.02.16.08.3.19.4.1.11.24.17.4.2h1.23c.17-.03.3-.09.41-.2.1-.1.16-.23.18-.4v-11.03c-.04-.37-.24-.57-.6-.6h-1.21c-.36.04-.56.24-.6.6zm4.02 3.48c0 .68.09 1.29.27 1.83.19.54.46.99.81 1.35.36.36.8.63 1.31.82.53.2 1.13.29 1.82.29 2.46 0 3.68-1.31 3.68-3.93a.65.65 0 0 0-.16-.46.69.69 0 0 0-.44-.21H88.4c0-.79.17-1.42.51-1.9.35-.49.9-.73 1.65-.73a4 4 0 0 1 2.83 1.13l.15.03c.05 0 .1-.01.15-.05a.17.17 0 0 0 .06-.14l.1-1.24c0-.1-.03-.17-.1-.2a6.5 6.5 0 0 0-3.19-.87c-.94 0-1.75.16-2.42.48-.68.32-1.2.8-1.54 1.43a4.8 4.8 0 0 0-.54 2.37zm2.34.69h3.52c0 1.5-.55 2.25-1.65 2.25-.6 0-1.06-.22-1.38-.65a2.63 2.63 0 0 1-.49-1.6zm12.65-4.12a.22.22 0 0 0-.13.2l.29 1.56c.02.14.1.21.21.21a.2.2 0 0 0 .17-.08 3.22 3.22 0 0 1 2.6-1.29c.42 0 .75.06 1 .18.24.12.37.37.37.74a.7.7 0 0 1-.31.58c-.2.16-.44.26-.7.31l-1.03.2a3.7 3.7 0 0 0-1.77.87c-.48.44-.72 1-.72 1.65 0 .63.14 1.15.4 1.54.28.39.64.66 1.1.82.47.15 1.02.23 1.67.23.4 0 .98-.08 1.72-.23.75-.15 1.12-.35 1.12-.58l-.22-1.33c-.04-.14-.11-.21-.24-.21a.16.16 0 0 0-.12.06c-.7.64-1.5.96-2.42.96-.38 0-.67-.05-.88-.16-.22-.11-.33-.33-.33-.67 0-.2.1-.37.27-.5.18-.15.38-.25.6-.28l1.14-.22a3.6 3.6 0 0 0 1.24-.5c.4-.25.7-.55.93-.92.23-.37.34-.8.34-1.25 0-.99-.27-1.68-.82-2.1a3.74 3.74 0 0 0-2.33-.64 6.36 6.36 0 0 0-3.15.85zm7.52-3.93-.12 1.43c0 .17.07.25.23.25a4.25 4.25 0 0 1 1.39-.45c.29 0 .54.1.78.29.23.2.4.43.5.72l.36 1.04-3.35 7.43a.45.45 0 0 0 .1.5c.1.09.2.14.33.14h.94a1.07 1.07 0 0 0 .97-.64c1.21-2.64 1.82-4.3 1.84-4.96 0 .25.06.63.2 1.14.14.51.32 1.12.55 1.84l.66 1.98a.85.85 0 0 0 .84.64h.88a.47.47 0 0 0 .48-.47c0-.08 0-.14-.02-.17l-2.89-8.47c-.16-.48-.4-.91-.7-1.3a3.5 3.5 0 0 0-1.1-.92 2.76 2.76 0 0 0-1.37-.36c-.3 0-.62.03-.95.08-.34.05-.52.13-.55.26zm9.07 3.88v6.97c.02.17.08.3.19.41.1.1.24.17.4.2h1.18c.16-.03.3-.1.4-.2.11-.1.17-.24.19-.4v-1.06a3.3 3.3 0 0 0 2.81 1.75 3.7 3.7 0 0 0 1.73-.34c.4-.22.7-.66.87-1.34a3.17 3.17 0 0 0 2.77 1.68c.95 0 1.64-.2 2.05-.6.42-.38.63-1.06.63-2.02v-5.05c-.04-.36-.24-.56-.6-.6h-1.27c-.36.04-.56.24-.6.6v5c0 .48-.06.82-.19 1.02-.12.2-.4.3-.85.3-.36 0-.69-.1-.97-.3a2.26 2.26 0 0 1-.9-1.78v-4.24c-.04-.36-.24-.56-.6-.6h-1.26c-.36.03-.56.23-.6.6v5c0 .48-.07.82-.2 1.02-.11.2-.4.3-.84.3-.36 0-.68-.1-.96-.3a2.26 2.26 0 0 1-.9-1.78v-4.24a.67.67 0 0 0-.2-.41.67.67 0 0 0-.4-.2h-1.28c-.36.05-.55.25-.6.61zm18.36 8.86c-.14 0-.2.08-.2.22 0 .05 0 .1.03.11l1.7 2.34c.02.06.07.1.17.1h2.05c.05 0 .1-.03.14-.07a.2.2 0 0 0 .06-.14.2.2 0 0 0-.09-.18l-2.82-2.33c-.03-.03-.07-.05-.1-.05zm-3.22-5.38c0 .68.1 1.29.28 1.83.19.54.45.99.8 1.35.36.36.8.63 1.32.82.53.2 1.13.29 1.82.29 2.45 0 3.68-1.31 3.68-3.93a.67.67 0 0 0-.16-.46.69.69 0 0 0-.44-.21h-4.96c0-.79.17-1.42.51-1.9.35-.49.9-.73 1.65-.73a4 4 0 0 1 2.83 1.13l.15.03c.05 0 .1-.01.14-.05a.18.18 0 0 0 .07-.14l.1-1.24c0-.1-.03-.17-.1-.2a6.55 6.55 0 0 0-3.19-.87 5.6 5.6 0 0 0-2.42.48c-.68.32-1.2.8-1.55 1.43a4.85 4.85 0 0 0-.53 2.37zm2.35.69h3.52c0 1.5-.55 2.25-1.65 2.25-.6 0-1.06-.22-1.39-.65a2.63 2.63 0 0 1-.48-1.6zm9.39-4.97c-1.17 0-1.76.95-1.76 2.86v4.07h-.56c-.36.04-.56.23-.6.6v.13c.04.36.24.57.6.6h.61v1.72c.04.35.24.55.6.6h1.11a.67.67 0 0 0 .42-.2c.1-.1.17-.23.19-.4v-1.71h1.77c.36-.04.56-.25.6-.6v-.14c-.04-.37-.24-.56-.6-.6h-1.77v-3.8c0-1.13.2-1.68.6-1.68.26 0 .5.04.73.13.22.09.43.2.61.32l.3.18a.2.2 0 0 0 .13-.04.26.26 0 0 0 .08-.11l.24-.87v-.07a.2.2 0 0 0-.1-.19 6.9 6.9 0 0 0-3.2-.8zm4.88.8v6.97c.02.17.08.3.19.41.1.1.24.17.4.2h1.14c.17-.03.3-.1.4-.2.11-.1.18-.24.2-.4v-1.3a3.7 3.7 0 0 0 1.08 1.43c.47.37 1 .56 1.59.56.15 0 .23-.07.23-.2v-1.45a.2.2 0 0 0-.06-.14.16.16 0 0 0-.13-.07c-.44 0-.86-.1-1.27-.28a2.42 2.42 0 0 1-.99-.78 1.93 1.93 0 0 1-.37-1.18v-3.57c-.04-.37-.24-.57-.6-.6H150c-.36.04-.56.24-.6.6zm6.55 0v6.86c.04.36.24.57.6.6h1.22c.16-.01.3-.07.4-.18.11-.1.17-.24.19-.42v-6.86c-.04-.37-.24-.57-.59-.6h-1.22c-.36.04-.56.24-.6.6zm.48 9.3c-.36.03-.56.24-.6.6v1.14c.04.36.24.56.6.6h1.46a.63.63 0 0 0 .42-.19c.1-.1.16-.24.18-.4v-1.15c-.06-.36-.26-.57-.6-.6zm7.2-10.1c-1.26 0-2.16.38-2.72 1.15a5.1 5.1 0 0 0-.83 3.08c0 1.32.3 2.36.88 3.1.6.76 1.52 1.14 2.8 1.14.42 0 .8-.11 1.17-.32.35-.2.66-.48.9-.82v.53c.05.36.25.56.6.6h1.22c.16-.01.3-.08.4-.19a.6.6 0 0 0 .2-.41v-10.48a.63.63 0 0 0-.2-.41.7.7 0 0 0-.4-.19h-1.27c-.36.04-.57.24-.6.6v3.63a3.1 3.1 0 0 0-.98-.75 2.68 2.68 0 0 0-1.17-.26zm.62 1.34c.32 0 .63.09.9.25s.5.39.68.67v3.73c-.12.3-.3.54-.53.74-.25.2-.52.29-.82.29-1.3 0-1.94-.93-1.94-2.79 0-1.92.57-2.89 1.71-2.89zm6.08 1.03v5.3c.04.35.24.56.6.6h1.26a.64.64 0 0 0 .42-.2c.1-.1.17-.24.2-.4v-5.26a4 4 0 0 1 .05-.84.47.47 0 0 1 .3-.32c.15-.07.42-.1.8-.1.34 0 .64.1.9.3.26.18.46.43.6.73.15.3.22.63.22.98v4.5c.04.36.24.57.6.6h1.27c.36-.03.56-.24.6-.6v-6.86c-.04-.36-.24-.56-.6-.6h-1.22c-.35.03-.55.23-.59.6v.63c-.25-.43-.6-.77-1.02-1.03a2.5 2.5 0 0 0-1.36-.4c-.5 0-.92.03-1.26.1-.35.06-.66.17-.92.33-.27.17-.48.4-.63.72-.14.32-.22.72-.22 1.22zm9.4 1.91c0 .68.1 1.29.28 1.83.18.54.45.99.8 1.35.36.36.8.63 1.32.82.52.2 1.13.29 1.81.29 2.46 0 3.69-1.31 3.69-3.93a.67.67 0 0 0-.17-.46.69.69 0 0 0-.44-.21h-4.96c0-.79.17-1.42.52-1.9.34-.49.9-.73 1.65-.73a4 4 0 0 1 2.83 1.13l.15.03c.05 0 .1-.01.14-.05a.18.18 0 0 0 .06-.14l.11-1.24c0-.1-.03-.17-.1-.2a6.53 6.53 0 0 0-3.2-.87 5.6 5.6 0 0 0-2.42.48c-.68.32-1.19.8-1.54 1.43a4.85 4.85 0 0 0-.53 2.37zm2.35.69h3.52c0 1.5-.55 2.25-1.65 2.25-.6 0-1.07-.22-1.4-.65a2.63 2.63 0 0 1-.47-1.6zm16.1-4.97a3.4 3.4 0 0 0-2.04.56 3 3 0 0 0-1.1 1.5 6.64 6.64 0 0 0-.33 2.17c0 1.28.27 2.3.82 3.08.56.77 1.45 1.16 2.7 1.16a3.35 3.35 0 0 0 2.23-.87v4.23c.05.36.25.56.6.6h1.22a.7.7 0 0 0 .41-.2c.11-.1.17-.24.19-.4v-11.03c-.04-.36-.24-.56-.6-.6h-1.27c-.36.04-.56.24-.6.6v.19a3 3 0 0 0-2.23-.99zm.7 1.34c.3 0 .58.07.85.2a2 2 0 0 1 .68.58v4.49c-.4.34-.83.51-1.3.51a2.1 2.1 0 0 1-1.06-.23 1.41 1.41 0 0 1-.59-.62c-.12-.26-.2-.56-.24-.9a11 11 0 0 1-.05-1.14c0-.91.1-1.62.3-2.13.19-.5.66-.76 1.4-.76zm6.09 1.03v5.3c.04.35.23.56.6.6h1.26a.68.68 0 0 0 .6-.6v-5.26a4 4 0 0 1 .07-.84.47.47 0 0 1 .3-.32c.15-.07.42-.1.8-.1.34 0 .64.1.9.3.26.18.46.43.6.73.15.3.22.63.22.98v4.5c.04.36.24.57.6.6h1.26c.37-.03.57-.24.6-.6v-6.86c-.03-.36-.23-.56-.6-.6h-1.21c-.36.03-.55.23-.6.6v.63a2.88 2.88 0 0 0-1.02-1.03c-.42-.27-.87-.4-1.35-.4-.5 0-.92.03-1.27.1-.34.06-.65.17-.92.33-.26.17-.47.4-.62.72a2.8 2.8 0 0 0-.23 1.22z"/>
      <path fill="#99e0ff" d="M220.73 174.53v10.28c.04.36.24.57.6.6h1.22c.16-.01.3-.07.4-.18.1-.1.17-.24.19-.42v-.18c.74.65 1.65.99 2.7.99 2.04 0 3.06-1.41 3.06-4.24 0-.86-.13-1.61-.38-2.24a3.05 3.05 0 0 0-1.22-1.47 3.99 3.99 0 0 0-2.15-.52c-.75 0-1.4.29-1.95.87v-3.5a.62.62 0 0 0-.2-.4.72.72 0 0 0-.4-.19h-1.28a.68.68 0 0 0-.4.19.63.63 0 0 0-.19.4zm2.47 4.62c.16-.2.36-.35.59-.48.23-.12.47-.18.71-.18.74 0 1.25.28 1.52.83.28.55.41 1.24.41 2.06 0 1.86-.57 2.79-1.72 2.79-.57 0-1.07-.18-1.51-.55zm7.46 2.13c0 .95.16 1.76.47 2.42.32.66.8 1.17 1.43 1.5.63.35 1.44.52 2.4.52s1.75-.17 2.39-.51c.63-.34 1.1-.85 1.42-1.5a5.6 5.6 0 0 0 .48-2.43c0-.7-.1-1.3-.29-1.82a3.25 3.25 0 0 0-2.18-2.06 5.87 5.87 0 0 0-1.82-.25c-.93 0-1.7.15-2.34.45-.64.3-1.13.76-1.46 1.37a4.8 4.8 0 0 0-.5 2.3zm4.3-2.68c.56 0 .98.13 1.24.41.26.28.42.61.48 1 .07.4.1.9.1 1.53 0 .61-.03 1.11-.1 1.49-.06.37-.22.7-.49.95-.27.26-.68.4-1.23.4-.56 0-.97-.14-1.24-.4a1.63 1.63 0 0 1-.5-.95 10 10 0 0 1-.1-1.5c0-.62.04-1.13.1-1.52.06-.39.22-.72.49-1s.68-.41 1.25-.41zm5.89-.65v6.86c.04.36.24.57.6.6h1.21a.6.6 0 0 0 .41-.18c.1-.1.17-.24.18-.42v-6.86c-.03-.37-.23-.57-.59-.6h-1.22c-.35.04-.55.24-.6.6zm.47 9.3c-.35.03-.56.24-.6.6v1.14c.04.36.25.56.6.6h1.46a.63.63 0 0 0 .6-.6v-1.14c-.05-.36-.25-.57-.6-.6zm4.02-9.3v6.97c.02.17.08.3.19.41.1.1.24.17.4.2h1.17c.17-.03.3-.1.42-.2.1-.1.16-.24.18-.4v-1.06a3.27 3.27 0 0 0 2.79 1.75c.63 0 1.14-.1 1.54-.25.4-.17.68-.45.86-.83.18-.38.27-.9.27-1.54v-5.05c-.04-.36-.24-.56-.6-.6h-1.27c-.36.04-.56.24-.6.6v5c0 .47-.06.81-.18 1.02-.13.2-.4.3-.83.3-.36 0-.68-.1-.97-.3a2.25 2.25 0 0 1-.9-1.78v-4.24a.68.68 0 0 0-.19-.41.67.67 0 0 0-.41-.2h-1.27c-.36.05-.56.25-.6.61zm12.14-.8c-1.18 0-1.76.95-1.76 2.86v4.07h-.56c-.37.04-.57.23-.6.6v.13c.03.36.23.57.6.6h.6v1.72c.04.35.24.55.61.6h1.11c.17-.02.3-.09.41-.2a.6.6 0 0 0 .19-.4v-1.71h1.77c.37-.04.56-.25.6-.6v-.14c-.04-.37-.23-.56-.6-.6h-1.77v-3.8c0-1.13.2-1.68.61-1.68.26 0 .5.04.72.13.23.09.43.2.62.32l.3.18a.2.2 0 0 0 .12-.04.24.24 0 0 0 .09-.11l.23-.87v-.07c0-.1-.03-.15-.1-.19a6.89 6.89 0 0 0-3.19-.8zm10.45.67.01.16 3.8 10.96a.95.95 0 0 0 .89.63h2c.2 0 .39-.06.56-.18a.88.88 0 0 0 .33-.45l3.8-10.96a.4.4 0 0 0 .02-.16.44.44 0 0 0-.14-.33.45.45 0 0 0-.33-.14h-1.41a.95.95 0 0 0-.9.63l-.36 1.02-.3.9h-4.84a52.1 52.1 0 0 0-.67-1.92.92.92 0 0 0-.34-.45.91.91 0 0 0-.54-.18h-1.11a.46.46 0 0 0-.34.14.46.46 0 0 0-.13.33zm3.67 3.67h3.74a395.82 395.82 0 0 0-1.6 4.87c-.17.52-.25.84-.25.94h-.02a13 13 0 0 0-.54-1.9c-.36-1.11-.8-2.42-1.33-3.91z"/>
      <path fill="#fff" d="M287 174.53v10.28c.04.36.24.57.6.6h1.22c.16-.01.3-.07.4-.18.11-.1.17-.24.19-.42v-.18c.75.65 1.64.99 2.7.99 2.04 0 3.07-1.41 3.07-4.24 0-.86-.13-1.61-.4-2.24a3.04 3.04 0 0 0-1.21-1.47 3.97 3.97 0 0 0-2.15-.52c-.75 0-1.4.29-1.95.87v-3.5a.63.63 0 0 0-.2-.4.7.7 0 0 0-.4-.19h-1.27a.71.71 0 0 0-.4.19.64.64 0 0 0-.2.4zm2.47 4.62c.16-.2.36-.35.6-.48.22-.12.46-.18.7-.18.75 0 1.25.28 1.53.83.27.55.4 1.24.4 2.06 0 1.86-.57 2.79-1.72 2.79-.57 0-1.07-.18-1.5-.55zm9.4-2c-.46 0-.88.12-1.26.36a2.71 2.71 0 0 0-1.22 2.26c0 .69.29 1.22.88 1.6.58.39 1.27.65 2.05.78.77.14 1.53.2 2.27.2v.6c0 1.02-.38 1.53-1.13 1.53a4.1 4.1 0 0 1-1.06-.13 3.5 3.5 0 0 1-.92-.4c-.29-.17-.56-.4-.84-.68a.25.25 0 0 0-.18-.09c-.06 0-.1.02-.16.06a.2.2 0 0 0-.06.15l-.13 1.39c0 .1.05.18.15.21a7.27 7.27 0 0 0 5.01.48c.53-.17.96-.46 1.28-.86.34-.4.5-.95.5-1.63v-5.03c-.04-.37-.24-.57-.6-.6h-1.22c-.35.04-.55.24-.59.6v.6a3.5 3.5 0 0 0-2.77-1.4zm1 1.34c.45 0 .84.15 1.2.45.35.3.52.66.52 1.1v1.51c-.4 0-.82-.06-1.26-.17a2.68 2.68 0 0 1-1.12-.59 1.38 1.38 0 0 1-.14-1.9 1 1 0 0 1 .8-.4zm5.72-.54v6.97c.02.17.08.3.19.41.1.1.24.17.4.2h1.14c.16-.03.3-.1.41-.2.1-.1.17-.24.18-.4v-1.3c.26.58.63 1.06 1.1 1.43.46.37.99.56 1.58.56.15 0 .23-.07.23-.2v-1.45c0-.05-.02-.1-.05-.14a.16.16 0 0 0-.14-.07c-.43 0-.86-.1-1.27-.28a2.4 2.4 0 0 1-.98-.78 1.93 1.93 0 0 1-.38-1.18v-3.57c-.04-.37-.24-.57-.6-.6h-1.22c-.35.04-.55.24-.59.6zm-186.83-23.71v6.97c.02.17.08.3.18.4a.7.7 0 0 0 .41.2h1.14c.16-.02.3-.09.4-.2.11-.1.18-.23.2-.4v-1.29a3.7 3.7 0 0 0 1.08 1.43c.47.36 1 .55 1.59.55.15 0 .23-.07.23-.2v-1.44a.2.2 0 0 0-.06-.14.16.16 0 0 0-.13-.08c-.44 0-.86-.09-1.27-.27a2.4 2.4 0 0 1-.99-.79 1.93 1.93 0 0 1-.37-1.17v-3.57c-.05-.37-.24-.57-.6-.6h-1.22c-.35.03-.55.23-.6.6zm8.54-.8c-.46 0-.87.12-1.26.36a2.68 2.68 0 0 0-1.23 2.26c0 .68.3 1.22.89 1.6.59.39 1.27.64 2.05.78.77.13 1.53.2 2.27.2v.6c0 1.02-.37 1.52-1.13 1.52a4.1 4.1 0 0 1-1.06-.13 3.39 3.39 0 0 1-.92-.4c-.28-.17-.56-.4-.84-.68a.21.21 0 0 0-.17-.08.24.24 0 0 0-.16.06.2.2 0 0 0-.07.14l-.13 1.4c0 .1.05.17.15.2a7.27 7.27 0 0 0 5.02.48c.52-.16.95-.45 1.28-.86.33-.4.49-.95.49-1.62v-5.03c-.04-.37-.24-.57-.59-.6h-1.22c-.36.03-.56.23-.6.6v.59a3.5 3.5 0 0 0-2.77-1.4zm1.01 1.34c.44 0 .84.15 1.19.44.35.3.52.67.52 1.1v1.52c-.4 0-.81-.06-1.26-.18a2.71 2.71 0 0 1-1.12-.58 1.3 1.3 0 0 1-.46-1.01c0-.33.1-.63.32-.9a1 1 0 0 1 .81-.4zm6.25-3.97v10.29c.04.36.24.56.6.6h1.22c.16-.01.3-.08.4-.18.11-.1.17-.25.2-.42v-.19a3.9 3.9 0 0 0 2.7.99c2.03 0 3.05-1.41 3.05-4.23 0-.87-.12-1.62-.38-2.25a3.05 3.05 0 0 0-1.22-1.46 3.99 3.99 0 0 0-2.15-.52c-.75 0-1.4.28-1.95.87v-3.5a.63.63 0 0 0-.19-.4.71.71 0 0 0-.41-.2h-1.27a.68.68 0 0 0-.4.2.64.64 0 0 0-.2.4zm2.47 4.62c.16-.2.36-.35.6-.47.22-.12.46-.18.7-.18.74 0 1.26.27 1.52.82.28.55.42 1.24.42 2.07 0 1.86-.58 2.79-1.72 2.79-.58 0-1.08-.19-1.52-.56zm7.41-4.62v10.29c.04.36.24.56.6.6h1.22a.6.6 0 0 0 .4-.18c.11-.1.18-.25.2-.42v-.19c.74.66 1.64.99 2.7.99 2.04 0 3.06-1.41 3.06-4.23a5.9 5.9 0 0 0-.39-2.25 3.03 3.03 0 0 0-1.22-1.46 3.96 3.96 0 0 0-2.14-.52c-.76 0-1.4.28-1.96.87v-3.5a.64.64 0 0 0-.19-.4.71.71 0 0 0-.4-.2h-1.28a.68.68 0 0 0-.4.2.64.64 0 0 0-.2.4zm2.47 4.62c.16-.2.36-.35.6-.47.22-.12.46-.18.7-.18.75 0 1.25.27 1.53.82.27.55.4 1.24.4 2.07 0 1.86-.57 2.79-1.71 2.79-.58 0-1.08-.19-1.52-.56zm7.47 2.13c0 .96.15 1.76.47 2.43.31.66.8 1.16 1.42 1.5.64.34 1.44.52 2.4.52s1.76-.18 2.4-.52a3.2 3.2 0 0 0 1.41-1.5c.32-.67.48-1.47.48-2.43 0-.7-.1-1.3-.28-1.82a3.26 3.26 0 0 0-2.19-2.05 6 6 0 0 0-1.82-.25c-.92 0-1.7.14-2.34.45-.64.3-1.13.76-1.46 1.37a4.8 4.8 0 0 0-.5 2.3zm4.3-2.68c.56 0 .97.14 1.23.42.27.28.43.6.49 1a10.2 10.2 0 0 1 0 3.02 1.6 1.6 0 0 1-.5.95c-.27.26-.68.4-1.23.4-.55 0-.97-.14-1.24-.4a1.65 1.65 0 0 1-.5-.96 10 10 0 0 1-.09-1.49c0-.62.03-1.13.1-1.52.05-.4.22-.72.48-1 .27-.28.69-.42 1.25-.42zm5.34-.64v6.97a.67.67 0 0 0 .58.6h1.15c.16-.02.3-.09.4-.2a.6.6 0 0 0 .19-.4v-1.29a3.7 3.7 0 0 0 1.09 1.43c.47.36 1 .55 1.59.55.15 0 .23-.07.23-.2v-1.44a.2.2 0 0 0-.06-.14c-.04-.06-.08-.08-.13-.08-.44 0-.86-.09-1.27-.27a2.4 2.4 0 0 1-.99-.79 1.93 1.93 0 0 1-.37-1.17v-3.57c-.05-.37-.24-.57-.6-.6h-1.22c-.36.03-.56.23-.6.6zm8.78-.8c-1.17 0-1.76.95-1.76 2.85v4.07h-.56c-.36.04-.56.24-.6.6v.14c.04.36.24.56.6.6h.61v1.71c.04.36.24.56.6.6h1.12a.68.68 0 0 0 .41-.19c.1-.1.17-.24.19-.4v-1.72h1.77c.36-.04.56-.24.6-.6v-.14c-.04-.36-.24-.56-.6-.6h-1.77v-3.8c0-1.12.2-1.68.6-1.68.27 0 .5.04.73.13a4.5 4.5 0 0 1 .92.51c.04 0 .08-.02.12-.04a.27.27 0 0 0 .09-.12l.23-.87v-.06c0-.1-.03-.16-.1-.2a6.89 6.89 0 0 0-3.2-.8zm12.74 0c-.46 0-.88.12-1.26.36a2.68 2.68 0 0 0-1.23 2.26c0 .68.3 1.22.89 1.6a5.4 5.4 0 0 0 2.04.78c.78.13 1.54.2 2.28.2v.6c0 1.02-.38 1.52-1.13 1.52a4.1 4.1 0 0 1-1.06-.13 3.37 3.37 0 0 1-.93-.4 4.6 4.6 0 0 1-.83-.68.24.24 0 0 0-.18-.08.24.24 0 0 0-.16.06.2.2 0 0 0-.06.14l-.13 1.4c0 .1.04.17.15.2a7.26 7.26 0 0 0 5.01.48 2.6 2.6 0 0 0 1.28-.86c.33-.4.5-.95.5-1.62v-5.03c-.04-.37-.24-.57-.6-.6h-1.21c-.36.03-.56.23-.6.6v.59a3.5 3.5 0 0 0-2.77-1.4zm1 1.34c.45 0 .84.15 1.2.44.35.3.52.67.52 1.1v1.52c-.4 0-.81-.06-1.26-.18a2.72 2.72 0 0 1-1.13-.58 1.3 1.3 0 0 1-.45-1.01c0-.33.1-.63.32-.9a1 1 0 0 1 .8-.4zm6.25 1.02v5.3c.04.36.24.56.6.6h1.27c.16-.01.3-.08.4-.19a.68.68 0 0 0 .2-.41v-5.25a4 4 0 0 1 .06-.84.49.49 0 0 1 .3-.33c.15-.06.42-.1.8-.1.34 0 .64.1.9.3a2.15 2.15 0 0 1 .82 1.71v4.5c.04.37.24.57.6.61H200c.37-.04.57-.24.6-.6v-6.86c-.03-.37-.23-.57-.6-.6h-1.2c-.36.03-.56.23-.6.6v.63c-.26-.43-.6-.77-1.02-1.04a2.6 2.6 0 0 0-1.36-.4c-.5 0-.92.04-1.27.1-.34.06-.65.18-.92.34-.26.16-.47.4-.62.72-.15.31-.22.72-.22 1.21z"/>
      <path fill="#6f0" d="M208.55 150.81v10.29c.04.36.24.56.6.6h1.22c.16-.01.3-.08.4-.18.11-.1.17-.25.2-.42v-.19c.74.66 1.63.99 2.69.99 2.04 0 3.06-1.41 3.06-4.23a5.9 5.9 0 0 0-.38-2.25 3.03 3.03 0 0 0-1.22-1.46 3.98 3.98 0 0 0-2.15-.52c-.75 0-1.4.28-1.95.87v-3.5a.62.62 0 0 0-.2-.4.71.71 0 0 0-.4-.2h-1.28a.69.69 0 0 0-.4.2c-.1.1-.17.24-.19.4zm2.47 4.62a1.8 1.8 0 0 1 1.3-.65c.75 0 1.25.27 1.53.82.27.55.4 1.24.4 2.07 0 1.86-.57 2.79-1.72 2.79-.57 0-1.07-.19-1.51-.56zm7.46 2.13c0 .96.16 1.76.47 2.43.32.66.8 1.16 1.43 1.5a5 5 0 0 0 2.4.52 5 5 0 0 0 2.39-.52c.64-.34 1.1-.84 1.42-1.5a5.6 5.6 0 0 0 .48-2.43c0-.7-.1-1.3-.29-1.82a3.2 3.2 0 0 0-2.18-2.05 6.03 6.03 0 0 0-1.82-.25c-.92 0-1.7.14-2.34.45-.64.3-1.13.76-1.46 1.37a4.8 4.8 0 0 0-.5 2.3zm4.3-2.68c.56 0 .98.14 1.24.42.26.28.42.6.49 1 .06.39.09.9.09 1.52s-.03 1.12-.1 1.5c-.06.37-.22.69-.49.95s-.68.4-1.23.4c-.55 0-.97-.14-1.24-.4a1.65 1.65 0 0 1-.5-.96 10 10 0 0 1-.1-1.49c0-.62.04-1.13.1-1.52.06-.4.22-.72.5-1 .26-.28.67-.42 1.24-.42zm5.89-.64v6.86c.04.36.24.56.6.6h1.21a.7.7 0 0 0 .42-.18.7.7 0 0 0 .18-.42v-6.86c-.05-.37-.24-.57-.6-.6h-1.22c-.35.03-.55.23-.6.6zm.47 9.3c-.35.03-.55.23-.6.6v1.14c.05.36.25.56.6.6h1.47a.64.64 0 0 0 .41-.2.7.7 0 0 0 .19-.4v-1.14c-.06-.37-.26-.57-.6-.6zm4.02-9.3v6.97c.02.17.08.3.19.4.1.11.24.18.4.2h1.18c.16-.02.3-.09.4-.2a.6.6 0 0 0 .19-.4v-1.06c.28.52.66.95 1.16 1.27.5.32 1.04.48 1.63.48.63 0 1.14-.08 1.54-.25.4-.17.68-.44.86-.82.18-.38.27-.9.27-1.55v-5.04c-.04-.37-.24-.57-.6-.6h-1.26c-.37.03-.57.23-.6.6v5c0 .47-.07.8-.2 1.01-.11.2-.39.31-.82.31-.36 0-.68-.1-.97-.3a2.26 2.26 0 0 1-.9-1.79v-4.23a.69.69 0 0 0-.19-.42.65.65 0 0 0-.4-.18h-1.28c-.36.03-.56.23-.6.6zm12.14-.8c-1.18 0-1.77.95-1.77 2.85v4.07h-.55c-.36.04-.57.24-.6.6v.14c.03.36.24.56.6.6h.61v1.71c.04.36.23.56.6.6h1.11a.7.7 0 0 0 .42-.19c.1-.1.16-.24.18-.4v-1.72h1.77c.37-.04.56-.24.6-.6v-.14c-.04-.36-.23-.56-.6-.6h-1.77v-3.8c0-1.12.2-1.68.61-1.68.26 0 .5.04.72.13.23.1.43.2.62.32l.3.19c.05 0 .08-.02.12-.04a.3.3 0 0 0 .1-.12l.23-.87v-.06c0-.1-.04-.16-.1-.2a6.89 6.89 0 0 0-3.2-.8zm16.7-.2c-3.94 0-5.91 2.14-5.91 6.4 0 1.37.2 2.55.59 3.53.4.98 1.04 1.74 1.91 2.27.88.53 2.02.8 3.41.8 1.4 0 2.52-.27 3.4-.8a4.62 4.62 0 0 0 1.9-2.27c.4-.98.6-2.16.6-3.53 0-2.06-.48-3.63-1.43-4.74-.96-1.1-2.45-1.66-4.47-1.66Zm0 1.48c1.33 0 2.2.5 2.62 1.48.42.99.63 2.25.63 3.79 0 .9-.08 1.7-.24 2.4a3.3 3.3 0 0 1-.94 1.73c-.47.45-1.16.68-2.07.68-.9 0-1.6-.23-2.07-.68a3.3 3.3 0 0 1-.96-1.73c-.15-.7-.23-1.5-.23-2.4 0-1.54.2-2.8.63-3.79.42-.98 1.3-1.48 2.63-1.48z"/>
      <path fill="#fff" d="M270.7 153.64a.22.22 0 0 0-.15.05.22.22 0 0 0-.06.16v1.97c0 .05.02.1.06.13.05.04.1.06.16.06h1.97a.2.2 0 0 0 .13-.06.17.17 0 0 0 .06-.13v-1.97a.22.22 0 0 0-.06-.16.2.2 0 0 0-.13-.05z"/>
      <path d="M54.82 68.06h-3.2v-2.5h2.21l.18.01h1.22v-.68h-4.45v6.67h4.3v-.63h-1.93l-.18.01h-1.33v-2.29h3.19zm5.01-.3V64.9h-.75v3.03a1.06 1.06 0 0 1-.2.52.78.78 0 0 1-.29.18c-.13.05-.27.07-.45.07a.78.78 0 0 1-.74-.43 2.1 2.1 0 0 1-.23-1V64.9h-.76v4.34h.7v-.68c.36.49.83.73 1.4.73.88 0 1.32-.5 1.32-1.52zm7.97 1.16-.12-.62c-.25.16-.48.28-.67.34-.2.05-.42.08-.69.08a1.2 1.2 0 0 1-.8-.27 1.37 1.37 0 0 1-.45-.63 2.4 2.4 0 0 1-.13-.78c0-.48.13-.87.37-1.18.25-.3.57-.46.97-.46.56 0 1.07.17 1.51.52l.06-.65c-.48-.33-1-.5-1.58-.5-.59 0-1.08.23-1.49.68-.4.44-.6.97-.6 1.58 0 .61.2 1.15.6 1.61.38.47.9.7 1.53.7.3 0 .55-.03.76-.09.2-.06.45-.17.73-.33zm4.18-1.24v-2.8h-.72v.35a2.6 2.6 0 0 0-1.6-.45c-.38 0-.65.13-.83.39a1.4 1.4 0 0 0-.27.8c0 .41.25.72.75.94.51.22 1.15.33 1.92.34v.42c0 .34-.08.6-.24.8-.16.2-.36.3-.6.3-.52 0-1-.16-1.46-.48l-.05.63a3 3 0 0 0 1.51.42c.45 0 .83-.16 1.14-.47.3-.31.45-.7.45-1.2zm-.75-1.52v.6c-1.32-.06-1.98-.32-1.98-.76 0-.2.09-.35.27-.46.17-.12.39-.17.63-.17.3 0 .55.06.75.18.22.12.33.33.33.61zm4.87 2.87-.12-.63c-.42.25-.87.37-1.38.37-.54 0-.82-.2-.82-.6 0-.09.02-.17.06-.24a.57.57 0 0 1 .13-.17.66.66 0 0 1 .23-.12l.25-.08.3-.07c.28-.05.5-.1.65-.16.15-.06.3-.16.48-.32l.05-.05a.76.76 0 0 0 .1-.13l.1-.17a.9.9 0 0 0 .1-.25l.03-.29c0-.45-.16-.8-.47-1.03-.27-.2-.65-.31-1.12-.31a3.6 3.6 0 0 0-1.62.43l.11.65c.48-.31.98-.47 1.5-.47.61 0 .91.22.91.66 0 .1-.02.19-.07.26a.69.69 0 0 1-.38.31c-.09.04-.17.07-.23.08l-.23.05-.45.1a1.87 1.87 0 0 0-.59.26c-.35.26-.52.58-.52.96 0 .24.05.45.15.62.1.17.21.3.34.37.12.09.27.15.45.2a2.58 2.58 0 0 0 .66.08c.48 0 .95-.1 1.4-.31zm7.79 2.57v-6.71h-.76v.5a2 2 0 0 0-1.43-.61c-.46 0-.85.22-1.18.65-.32.44-.48.97-.48 1.6 0 .62.17 1.16.5 1.6.33.43.74.65 1.21.65.52 0 .99-.18 1.41-.53v2.84zm-.76-5.37v1.93c-.24.35-.55.53-.93.53a1.4 1.4 0 0 1-.97-.4c-.29-.27-.43-.7-.43-1.27 0-.55.13-.97.39-1.24s.56-.41.91-.41c.27 0 .5.09.72.27.2.2.31.39.31.59zm5.57.77h-3c.02-.47.16-.86.43-1.17.28-.3.6-.46 1-.46.53 0 1.03.18 1.46.54l.06-.63c-.46-.33-.97-.5-1.54-.5a1.9 1.9 0 0 0-1.47.67c-.41.44-.61.98-.61 1.62 0 .62.19 1.16.57 1.6.38.45.83.67 1.37.67a1.5 1.5 0 0 0 1.34-.7 3 3 0 0 0 .38-1.64zm-2.95.53h2.4c-.07.41-.2.72-.43.92a1.04 1.04 0 0 1-1.51-.04 1.7 1.7 0 0 1-.46-.88zm7.97-.57v-2.07h-.73v4.34h.67v-.88c.42.62.98.93 1.7.93v-.64a1.62 1.62 0 0 1-1.64-1.68zm5.8 4.64-1.45-1.62h-.59l1.28 1.61zm.25-4.6h-2.98c0-.47.15-.86.42-1.17.28-.3.61-.46 1-.46.54 0 1.02.18 1.47.54l.05-.63c-.46-.33-.97-.5-1.53-.5-.58 0-1.07.22-1.48.67-.4.44-.61.98-.61 1.62 0 .62.2 1.16.57 1.6.38.45.84.67 1.37.67.58 0 1.02-.24 1.34-.7a3 3 0 0 0 .38-1.64zm-2.94.53h2.39c-.06.41-.2.72-.42.92a1.05 1.05 0 0 1-1.51-.04 1.71 1.71 0 0 1-.46-.88zm7.43 1.64V64.9h-.73v.46a2.45 2.45 0 0 0-1.67-.57c-.38 0-.64.1-.8.3-.15.2-.22.48-.22.86v3.23h.75v-3.2c0-.23.05-.4.14-.5.1-.1.3-.16.62-.16.33 0 .6.1.82.28.22.18.33.44.33.78v2.8zm4.1-.14-.11-.63c-.41.25-.87.37-1.37.37-.55 0-.82-.2-.82-.6a.5.5 0 0 1 .05-.24.64.64 0 0 1 .13-.17.75.75 0 0 1 .23-.12l.25-.08.31-.07c.28-.05.49-.1.64-.16.15-.06.31-.16.48-.32l.05-.05.1-.13.1-.17a.88.88 0 0 0 .1-.25l.03-.29c0-.45-.15-.8-.46-1.03a1.9 1.9 0 0 0-1.12-.31c-.52 0-1.06.14-1.63.43l.12.65c.47-.31.97-.47 1.5-.47.6 0 .9.22.9.66 0 .1-.02.19-.06.26a.67.67 0 0 1-.38.31c-.1.04-.17.07-.23.08l-.24.05a13.48 13.48 0 0 0-.73.19c-.11.04-.21.1-.3.17-.36.26-.53.58-.53.96a1.17 1.17 0 0 0 .49 1 2.55 2.55 0 0 0 1.11.27c.49 0 .95-.1 1.4-.31zm3.7 0-.11-.63a2.6 2.6 0 0 1-1.37.37c-.55 0-.82-.2-.82-.6 0-.09.01-.17.05-.24a.66.66 0 0 1 .13-.17.75.75 0 0 1 .22-.12l.26-.08.31-.07c.28-.05.49-.1.64-.16.15-.06.31-.16.48-.32l.05-.05a.7.7 0 0 0 .1-.13l.1-.17a1.21 1.21 0 0 0 .13-.53c0-.46-.16-.8-.46-1.04a1.9 1.9 0 0 0-1.12-.31c-.52 0-1.06.14-1.63.43l.12.65c.47-.31.97-.47 1.5-.47.6 0 .9.22.9.66 0 .1-.02.19-.06.26a.67.67 0 0 1-.38.31c-.1.04-.17.07-.23.08l-.24.05-.45.1a1.9 1.9 0 0 0-.59.26c-.35.26-.52.58-.52.96 0 .24.05.45.15.62a1.12 1.12 0 0 0 .8.56 2.57 2.57 0 0 0 .65.09c.49 0 .95-.1 1.4-.31zm1.97 2.43v-.86h-.86v.86zm-.07-2.29V64.9h-.72v4.28zm2.49-.55V66.2c0-.53.17-.8.5-.8.31 0 .6.1.87.32l.15-.57a3.05 3.05 0 0 0-1.41-.37c-.54 0-.8.42-.8 1.26v2.58h-.81v.55h.84v1.23h.66v-1.23h1.37v-.55zm5.8-1.62h-2.98c.01-.47.15-.86.43-1.17.27-.3.6-.46.99-.46.54 0 1.03.18 1.47.54l.06-.63c-.47-.33-.98-.5-1.54-.5a1.9 1.9 0 0 0-1.48.67c-.4.44-.61.98-.61 1.62 0 .62.2 1.16.57 1.6.38.45.84.67 1.37.67.58 0 1.02-.24 1.34-.7a3 3 0 0 0 .38-1.64zm-2.93.53h2.38c-.05.41-.2.72-.41.92a1.06 1.06 0 0 1-1.51-.04 1.71 1.71 0 0 1-.46-.88zm8.68 2.45-1.45 1.61h.76l1.28-1.61zm1.7-2.3v-2.8h-.72v.35a2.6 2.6 0 0 0-1.6-.45c-.38 0-.65.13-.83.39a1.4 1.4 0 0 0-.27.8c0 .41.25.72.75.94a5 5 0 0 0 1.92.34v.42c0 .34-.08.6-.24.8-.16.2-.36.3-.6.3-.52 0-1-.16-1.46-.48l-.06.63a3 3 0 0 0 1.52.42c.45 0 .83-.16 1.14-.47.3-.31.46-.7.46-1.2zm-.75-1.52v.6c-1.32-.06-1.98-.32-1.98-.76 0-.2.09-.35.26-.46.18-.12.4-.17.64-.17.3 0 .55.06.75.18.22.12.33.33.33.61zm5.55 5.44h.71v-6.71h-.72zm5.38-3.92v-2.8h-.73v.35a2.6 2.6 0 0 0-1.6-.45c-.37 0-.65.13-.83.39a1.4 1.4 0 0 0-.27.8c0 .41.25.72.76.94.5.22 1.14.33 1.91.34v.42c0 .34-.08.6-.24.8-.16.2-.36.3-.6.3-.52 0-1-.16-1.46-.48l-.05.63a3 3 0 0 0 1.51.42c.45 0 .83-.16 1.14-.47.3-.31.46-.7.46-1.2zm-.76-1.52v.6c-1.32-.06-1.98-.32-1.98-.76 0-.2.09-.35.27-.46.18-.12.39-.17.63-.17.3 0 .55.06.76.18.21.12.32.33.32.61zm6.31-.83v-2.32h-.75v6.16h.72v-.47c.46.39 1 .58 1.59.58.45 0 .82-.22 1.1-.66.3-.45.43-.97.43-1.58 0-.64-.17-1.18-.53-1.61a1.57 1.57 0 0 0-1.25-.65c-.48 0-.92.18-1.3.55zm0 2.77v-1.94a.6.6 0 0 1 .1-.34 1 1 0 0 1 .83-.45c.37 0 .7.16.99.47.28.32.42.72.42 1.2 0 .45-.13.83-.38 1.15-.26.31-.57.47-.93.47a1.2 1.2 0 0 1-1.03-.56zm4.7-1.14v-2.07h-.73v4.34h.68v-.88c.4.62.97.93 1.69.93v-.64a1.63 1.63 0 0 1-1.65-1.68zm5.78.04h-2.98c0-.47.15-.86.42-1.17.28-.3.61-.46 1-.46.54 0 1.02.18 1.47.54l.05-.63a2.6 2.6 0 0 0-1.53-.5 1.9 1.9 0 0 0-1.48.67c-.4.44-.61.98-.61 1.62 0 .62.19 1.16.57 1.6.38.45.84.67 1.37.67a1.5 1.5 0 0 0 1.33-.7 3 3 0 0 0 .39-1.64zm-2.94.53h2.39c-.06.41-.2.72-.42.92a1.05 1.05 0 0 1-1.51-.04 1.7 1.7 0 0 1-.46-.88zm10.12.23V64.9h-.75v2.8c0 .13-.01.23-.03.33-.01.09-.05.19-.1.3a.57.57 0 0 1-.3.28c-.13.06-.3.1-.52.1a.79.79 0 0 1-.73-.44c-.17-.3-.25-.62-.25-1V64.9h-.75v2.8c0 .13 0 .23-.02.33a1.5 1.5 0 0 1-.1.3.58.58 0 0 1-.3.28c-.14.06-.31.1-.52.1a.79.79 0 0 1-.74-.44c-.16-.3-.24-.62-.24-1V64.9h-.76v4.34h.7v-.7c.38.5.84.75 1.41.75.64 0 1.06-.26 1.24-.79.36.53.84.8 1.44.8.88 0 1.32-.51 1.32-1.53zm2.36 3.7v-.86h-.86v.86zm-.07-2.29V64.9h-.72v4.28zm3.05.81-1.45 1.61h.75l1.29-1.61zm2.02-2.98h-2.98c.01-.47.15-.86.43-1.17.27-.3.6-.46.99-.46.54 0 1.03.18 1.47.54l.05-.63c-.46-.33-.97-.5-1.53-.5a1.9 1.9 0 0 0-1.48.67c-.4.44-.6.98-.6 1.62 0 .62.18 1.16.56 1.6.38.45.84.67 1.37.67a1.5 1.5 0 0 0 1.34-.7 3 3 0 0 0 .38-1.64zm-2.93.53h2.38c-.06.41-.2.72-.41.92-.22.2-.47.3-.76.3-.27 0-.53-.11-.75-.34a1.7 1.7 0 0 1-.46-.88zm4.74-.57v-2.07h-.72v4.34h.67v-.88c.41.62.98.93 1.7.93v-.64a1.62 1.62 0 0 1-1.64-1.68zm5.79.04h-3c.02-.47.16-.86.44-1.17.28-.3.6-.46.99-.46.54 0 1.03.18 1.47.54l.06-.63c-.47-.33-.98-.5-1.54-.5-.58 0-1.07.22-1.48.67-.4.44-.6.98-.6 1.62 0 .62.18 1.16.56 1.6.38.45.84.67 1.37.67a1.5 1.5 0 0 0 1.34-.7 3 3 0 0 0 .39-1.64zm-2.94.53h2.39c-.06.41-.2.72-.42.92a1.06 1.06 0 0 1-1.51-.04 1.74 1.74 0 0 1-.46-.88zm8.13 1.09V66.2c0-.53.17-.8.5-.8.31 0 .6.1.86.32l.16-.57a3.08 3.08 0 0 0-1.41-.37c-.54 0-.8.42-.8 1.26v2.58h-.81v.55h.83v1.23h.67v-1.23h1.37v-.55zm5.8-1.62h-2.98c.01-.47.15-.86.42-1.17.28-.3.61-.46 1-.46.54 0 1.03.18 1.47.54l.05-.63c-.46-.33-.97-.5-1.54-.5a1.9 1.9 0 0 0-1.47.67c-.4.44-.61.98-.61 1.62 0 .62.19 1.16.57 1.6.38.45.83.67 1.37.67a1.5 1.5 0 0 0 1.34-.7 3 3 0 0 0 .38-1.64zm-2.93.53h2.38c-.06.41-.2.72-.42.92a1.05 1.05 0 0 1-1.51-.04 1.74 1.74 0 0 1-.45-.88zm7.42.23V64.9h-.75v2.8l-.01.23a1.08 1.08 0 0 1-.2.52.73.73 0 0 1-.28.18 1.2 1.2 0 0 1-.45.07.8.8 0 0 1-.74-.43c-.16-.3-.24-.62-.24-1V64.9h-.75v4.34h.7v-.68c.36.49.83.73 1.4.73.88 0 1.32-.5 1.32-1.52zm2.48.86V66.2c0-.53.17-.8.5-.8.31 0 .6.1.86.32l.16-.57a3.05 3.05 0 0 0-1.41-.37c-.54 0-.8.42-.8 1.26v2.58h-.82v.55h.84v1.23h.67v-1.23h1.37v-.55zm5.66-.94v-2.8h-.73v.35a2.6 2.6 0 0 0-1.6-.45c-.37 0-.65.13-.83.39a1.4 1.4 0 0 0-.27.8c0 .41.25.72.76.94.5.22 1.14.33 1.91.34v.42c0 .34-.08.6-.24.8-.16.2-.36.3-.6.3-.52 0-1-.16-1.46-.48l-.06.63a3 3 0 0 0 1.52.42c.45 0 .83-.16 1.14-.47.3-.31.46-.7.46-1.2zm-.76-1.52v.6c-1.32-.06-1.98-.32-1.98-.76 0-.2.09-.35.27-.46.18-.12.39-.17.63-.17.3 0 .55.06.75.18.22.12.33.33.33.61zm3.24 2.46V66.2c0-.53.16-.8.5-.8.3 0 .6.1.86.32l.16-.57a3.08 3.08 0 0 0-1.42-.37c-.53 0-.8.42-.8 1.26v2.58h-.8v.55h.83v1.23h.67v-1.23h1.36v-.55zm3.37 2.84v-.86h-.86v.86zm-.07-2.29V64.9h-.72v4.28zm5.11 0-1.66-4.28h-.85l-1.66 4.28h.76l.93-2.5a8.2 8.2 0 0 0 .4-1.27h.02c.05.3.24.9.58 1.77l.76 2zM216.7 67h-2.98c.01-.47.15-.86.43-1.17.27-.3.6-.46 1-.46.53 0 1.02.18 1.46.54l.06-.63c-.47-.33-.98-.5-1.54-.5-.58 0-1.07.22-1.48.67-.4.44-.6.98-.6 1.62 0 .62.18 1.16.56 1.6.38.45.84.67 1.37.67.58 0 1.03-.24 1.34-.7a3 3 0 0 0 .39-1.64zm-2.93.53h2.39c-.06.41-.2.72-.42.92a1.05 1.05 0 0 1-1.51-.04 1.7 1.7 0 0 1-.46-.88zM221 71.6h.72v-6.71H221zm5.52-4.6h-2.98c.01-.47.15-.86.43-1.17.27-.3.6-.46 1-.46.53 0 1.02.18 1.46.54l.05-.63c-.46-.33-.97-.5-1.53-.5-.58 0-1.07.22-1.48.67-.4.44-.6.98-.6 1.62 0 .62.18 1.16.56 1.6.38.45.84.67 1.37.67.58 0 1.03-.24 1.34-.7a3 3 0 0 0 .38-1.64zm-2.93.53h2.38c-.06.41-.2.72-.41.92-.22.2-.47.3-.76.3-.27 0-.53-.11-.75-.34a1.7 1.7 0 0 1-.46-.88zm9.75 1.5-.12-.63c-.4.25-.86.37-1.37.37-.54 0-.82-.2-.82-.6a.5.5 0 0 1 .06-.24.64.64 0 0 1 .13-.17.66.66 0 0 1 .22-.12 5.26 5.26 0 0 1 .57-.15c.28-.05.49-.1.64-.16.14-.06.3-.16.48-.32l.05-.05.1-.13.1-.17a1.27 1.27 0 0 0 .13-.53c0-.46-.16-.8-.47-1.04-.27-.2-.65-.31-1.12-.31a3.6 3.6 0 0 0-1.62.43l.11.65c.48-.31.98-.47 1.5-.47.6 0 .91.22.91.66a.5.5 0 0 1-.07.26.61.61 0 0 1-.15.19 1.54 1.54 0 0 1-.46.2l-.23.05a12.75 12.75 0 0 0-.74.19c-.1.04-.2.1-.3.17-.35.26-.53.58-.53.96a1.18 1.18 0 0 0 .5 1 2.6 2.6 0 0 0 1.12.27c.47 0 .93-.1 1.38-.31zm4.36-.11-.12-.62c-.26.16-.49.28-.68.34-.2.05-.42.08-.69.08a1.2 1.2 0 0 1-.8-.27 1.37 1.37 0 0 1-.45-.63 2.4 2.4 0 0 1-.13-.78c0-.48.13-.87.37-1.18.25-.3.58-.46.98-.46.55 0 1.06.17 1.5.52l.06-.65c-.47-.33-1-.5-1.57-.5-.6 0-1.1.23-1.49.68a2.47 2.47 0 0 0-.02 3.19c.4.47.9.7 1.54.7.3 0 .55-.03.76-.09.2-.06.45-.17.73-.33zm4.85-1.91c0-.62-.21-1.15-.62-1.58a2.01 2.01 0 0 0-1.5-.65 2 2 0 0 0-1.5.64c-.41.43-.63.96-.63 1.59 0 .64.21 1.19.63 1.64a1.99 1.99 0 0 0 3 .01c.41-.45.62-1 .62-1.65zm-2.13-1.61c.38 0 .7.15.97.45.27.3.4.71.4 1.26 0 .53-.13.94-.4 1.22a1.3 1.3 0 0 1-1.92 0c-.28-.27-.41-.68-.41-1.22 0-.55.13-.97.4-1.27.27-.3.6-.44.96-.44zm3.68 1.56v-2.07h-.73v4.34h.68v-.88c.41.62.97.93 1.69.93v-.64a1.62 1.62 0 0 1-1.64-1.68zm5.78.04h-2.98c.01-.47.15-.86.42-1.17.28-.3.61-.46 1-.46.54 0 1.03.18 1.47.54l.05-.63c-.46-.33-.97-.5-1.54-.5a1.9 1.9 0 0 0-1.47.67c-.4.44-.61.98-.61 1.62 0 .62.19 1.16.57 1.6.38.45.83.67 1.37.67a1.5 1.5 0 0 0 1.34-.7 3 3 0 0 0 .38-1.64zm-2.93.53h2.38c-.06.41-.2.72-.42.92a1.05 1.05 0 0 1-1.51-.04 1.71 1.71 0 0 1-.45-.88zm10.29.15v-2.8h-.72v.35a2.6 2.6 0 0 0-1.6-.45c-.38 0-.65.13-.83.39-.19.26-.28.53-.28.8 0 .41.26.72.76.94a5 5 0 0 0 1.92.34v.42c0 .34-.08.6-.24.8-.16.2-.36.3-.6.3-.52 0-1-.16-1.46-.48l-.06.63a3 3 0 0 0 1.52.42c.45 0 .83-.16 1.14-.47.3-.31.45-.7.45-1.2zm-.75-1.52v.6c-1.32-.06-1.98-.32-1.98-.76 0-.2.09-.35.26-.46.18-.12.4-.17.64-.17.3 0 .55.06.75.18.22.12.33.33.33.61zm5.75 3.01V64.9h-.72v.46a2.45 2.45 0 0 0-1.68-.57c-.37 0-.64.1-.8.3-.15.2-.22.48-.22.86v3.23h.75v-3.2c0-.23.05-.4.15-.5.09-.1.3-.16.6-.16.34 0 .61.1.83.28.23.18.33.44.33.78v2.8zm4.19-.51-.03.01a1.61 1.61 0 0 0-.14-2.07c-.3-.31-.66-.47-1.1-.47-.32 0-.6.1-.87.28a.55.55 0 0 1-.1-.35c0-.34.18-.5.55-.5h.85l.29-.01.39-.04a1.76 1.76 0 0 0 .88-.35.9.9 0 0 0 .32-.38c.07-.17.11-.36.11-.57 0-.37-.2-.68-.62-.93a2.82 2.82 0 0 0-1.52-.38c-.6 0-1.1.12-1.51.38-.42.25-.63.56-.63.92 0 .42.2.75.62 1-.17.2-.25.45-.25.73 0 .28.1.56.28.82-.21.28-.32.6-.32.96 0 .44.15.8.46 1.11.3.3.66.46 1.08.46.35 0 .66-.1.92-.3.47.2.98.3 1.52.3l.1-.6h-.1l-.25.02h-.21c-.08 0-.2 0-.37-.02l-.35-.02zm-1.26-1.98c.24 0 .44.09.61.25.17.17.26.43.26.78 0 .34-.1.6-.26.77a.84.84 0 0 1-.61.25.86.86 0 0 1-.6-.24c-.17-.16-.26-.42-.26-.78 0-.36.09-.63.26-.79a.87.87 0 0 1 .6-.24zm.43-1.82h-.87a.93.93 0 0 1-.36-.07.7.7 0 0 1-.23-.15.85.85 0 0 1-.16-.44c0-.22.14-.4.43-.54.28-.14.63-.21 1.03-.21s.75.07 1.04.2c.28.15.43.33.43.54 0 .45-.44.67-1.3.67zm9.15 2.9V64.9H274v2.8c0 .13-.01.23-.03.33-.01.09-.05.19-.1.3a.58.58 0 0 1-.3.28c-.13.06-.3.1-.52.1a.79.79 0 0 1-.73-.44c-.17-.3-.25-.62-.25-1V64.9h-.75v2.8c0 .13 0 .23-.02.33a1.5 1.5 0 0 1-.1.3.57.57 0 0 1-.3.28c-.14.06-.31.1-.53.1a.79.79 0 0 1-.73-.44c-.16-.3-.24-.62-.24-1V64.9h-.76v4.34h.7v-.7c.37.5.84.75 1.41.75.64 0 1.06-.26 1.24-.79.36.53.84.8 1.44.8.88 0 1.32-.51 1.32-1.53zm4.78-.76h-2.99c.01-.47.16-.86.43-1.17.28-.3.6-.46 1-.46.53 0 1.02.18 1.46.54l.06-.63c-.47-.33-.98-.5-1.54-.5-.58 0-1.07.22-1.47.67-.41.44-.61.98-.61 1.62 0 .62.18 1.16.57 1.6.38.45.83.67 1.37.67a1.5 1.5 0 0 0 1.33-.7 3 3 0 0 0 .39-1.64zm-2.94.53h2.39c-.06.41-.2.72-.42.92a1.05 1.05 0 0 1-1.51-.04 1.7 1.7 0 0 1-.46-.88zm7.43.23V64.9h-.75v3.03a1.08 1.08 0 0 1-.21.52.74.74 0 0 1-.28.18 1.2 1.2 0 0 1-.45.07.8.8 0 0 1-.74-.43 2.1 2.1 0 0 1-.24-1V64.9h-.75v4.34h.7v-.68c.36.49.83.73 1.4.73.88 0 1.32-.5 1.32-1.52zm2.48.86V66.2c0-.53.17-.8.5-.8.31 0 .6.1.87.32l.15-.57a3.07 3.07 0 0 0-1.41-.37c-.54 0-.8.42-.8 1.26v2.58H285v.55h.84v1.23h.66v-1.23h1.37v-.55zm5.8-1.62h-2.98c.01-.47.15-.86.43-1.17.27-.3.6-.46.99-.46.54 0 1.03.18 1.47.54l.06-.63c-.47-.33-.98-.5-1.54-.5-.58 0-1.07.22-1.48.67-.4.44-.6.98-.6 1.62 0 .62.18 1.16.56 1.6.38.45.84.67 1.37.67.58 0 1.03-.24 1.34-.7a3 3 0 0 0 .39-1.64zm-2.93.53h2.38c-.05.41-.2.72-.41.92a1.06 1.06 0 0 1-1.51-.04 1.7 1.7 0 0 1-.46-.88zM300 71.6v-6.71h-.75v.5a2 2 0 0 0-1.43-.61c-.47 0-.86.22-1.18.65a2.6 2.6 0 0 0-.48 1.6c0 .62.16 1.16.5 1.6.33.43.73.65 1.2.65.52 0 1-.18 1.42-.53v2.84zm-.75-5.37v1.93c-.25.35-.56.53-.94.53-.35 0-.67-.13-.96-.4-.3-.27-.44-.7-.44-1.27 0-.55.13-.97.4-1.24.25-.27.56-.41.9-.41.27 0 .51.09.72.27.21.2.32.39.32.59zm5.55.77h-2.98c.01-.47.16-.86.43-1.17.27-.3.6-.46.99-.46.54 0 1.03.18 1.47.54l.06-.63c-.47-.33-.98-.5-1.54-.5-.58 0-1.07.22-1.48.67-.4.44-.6.98-.6 1.62 0 .62.18 1.16.57 1.6.37.45.83.67 1.37.67a1.5 1.5 0 0 0 1.33-.7 3 3 0 0 0 .38-1.64zm-2.93.53h2.38c-.05.41-.2.72-.41.92a1.05 1.05 0 0 1-1.51-.04 1.71 1.71 0 0 1-.46-.88zm9.33 3.91v-6h1.21v-.55h-3.18v.56h1.2v5.02a3.36 3.36 0 0 0-1.26-.23v.56c.85.03 1.46.24 1.84.64zm6.7-6.11v-2.32h-.75v6.16h.73v-.47c.45.39.98.58 1.58.58.45 0 .82-.22 1.1-.66.3-.45.44-.97.44-1.58 0-.64-.18-1.18-.53-1.61a1.58 1.58 0 0 0-1.26-.65c-.48 0-.91.18-1.3.55zm0 2.77v-1.94c0-.13.04-.24.1-.34.23-.3.5-.45.83-.45.38 0 .7.16.99.47.28.32.42.72.42 1.2 0 .45-.12.83-.38 1.15-.26.31-.56.47-.93.47a1.2 1.2 0 0 1-1.02-.56zm8.25-1.09c0-.62-.2-1.15-.62-1.58a2 2 0 0 0-1.5-.65 2 2 0 0 0-1.5.64c-.4.43-.62.96-.62 1.59 0 .64.2 1.19.62 1.64a1.97 1.97 0 0 0 3 .01c.42-.45.62-1 .62-1.65zm-2.12-1.61c.38 0 .7.15.97.45.27.3.4.71.4 1.26 0 .53-.14.94-.4 1.22-.28.28-.6.42-.97.42a1.3 1.3 0 0 1-.96-.42c-.27-.27-.4-.68-.4-1.22 0-.55.13-.97.4-1.27.27-.3.59-.44.96-.44zm4 6.06v-.86h-.86v.86zm-.07-2.29V64.9h-.73v4.28zm5-1.41V64.9h-.75v3.03a1.06 1.06 0 0 1-.21.52.78.78 0 0 1-.28.18c-.13.05-.28.07-.45.07a.78.78 0 0 1-.74-.43 2.1 2.1 0 0 1-.23-1V64.9h-.76v4.34h.7v-.68c.37.49.83.73 1.4.73.88 0 1.32-.5 1.32-1.52zm2.48.86V66.2c0-.53.17-.8.5-.8.31 0 .6.1.86.32l.16-.57a3.06 3.06 0 0 0-1.4-.37c-.54 0-.81.42-.81 1.26v2.58h-.81v.55h.84v1.23h.67v-1.23h1.36v-.55zm2.74-2.93h.8v-.8h-.8zM29.04 58.46l-.15-.78c-.49.41-1.03.62-1.63.62a1.5 1.5 0 0 1-1.03-.35c-.25-.23-.38-.5-.38-.8 0-.32.11-.57.34-.76.13-.12.26-.2.37-.25.12-.05.33-.1.63-.18.49-.12.84-.23 1.04-.32a2 2 0 0 0 .62-.47c.35-.37.51-.82.51-1.32 0-.55-.2-1.03-.61-1.43a2.12 2.12 0 0 0-1.55-.61c-.78 0-1.52.22-2.23.66l.14.79a3.15 3.15 0 0 1 2.08-.79c.42 0 .76.13 1.02.4.26.25.4.55.4.88 0 .37-.15.67-.42.9-.13.11-.26.2-.38.24-.12.05-.38.13-.8.23-.35.09-.62.17-.82.26-.2.08-.4.23-.59.43a1.74 1.74 0 0 0 .09 2.55c.4.38.93.58 1.58.58.64 0 1.23-.16 1.76-.48zm2.45.13v-.86h-.86v.86zm-.07-2.28v-4.29h-.73v4.29zm5.01-1.41v-2.88h-.76v3.04a1.05 1.05 0 0 1-.2.51.79.79 0 0 1-.29.18c-.12.05-.27.08-.45.08a.79.79 0 0 1-.73-.44 2.08 2.08 0 0 1-.24-1v-2.37H33v4.35h.7v-.69c.37.49.84.74 1.4.74.88 0 1.33-.51 1.33-1.52zm5.32-.75c0-.63-.2-1.16-.63-1.59a2 2 0 0 0-1.5-.64 2 2 0 0 0-1.48.64 2.2 2.2 0 0 0-.63 1.59c0 .63.2 1.18.62 1.64.4.45.9.68 1.5.68.59 0 1.08-.23 1.5-.68.41-.45.62-1 .62-1.64zm-2.13-1.62c.38 0 .7.15.97.45.27.3.4.72.4 1.26s-.13.95-.4 1.22c-.27.28-.6.43-.96.43-.37 0-.69-.15-.96-.42-.27-.28-.4-.69-.4-1.23 0-.55.13-.97.4-1.27.27-.29.59-.44.95-.44zm6.63 2.37v-2.88h-.75v3.04c-.01.06-.03.15-.07.25-.03.1-.08.2-.14.26a.75.75 0 0 1-.28.18 1.1 1.1 0 0 1-.45.08.8.8 0 0 1-.74-.44 2.08 2.08 0 0 1-.23-1v-2.37h-.76v4.35h.7v-.69c.36.49.83.74 1.4.74.88 0 1.32-.51 1.32-1.52zM49 52.03c0-.63-.2-1.17-.6-1.64a.82.82 0 0 0-.28-.24c-.06 0-.1.04-.1.11 0 .04.04.09.11.16a2.18 2.18 0 0 1 .64 1.75l-.04-.02a.48.48 0 0 0-.34-.13c-.24 0-.4.11-.48.33a.43.43 0 0 0-.04.18c0 .23.1.4.3.48a.6.6 0 0 0 .22.04c.28 0 .47-.2.57-.57a2 2 0 0 0 .04-.45zm4.73 6.69h.72v-6.7h-.72zm5.52-4.58h-2.98c.01-.47.16-.86.43-1.17.27-.31.6-.47 1-.47.53 0 1.02.18 1.46.55l.06-.63c-.47-.34-.98-.5-1.54-.5-.58 0-1.07.22-1.48.66-.4.45-.6.98-.6 1.62 0 .63.18 1.16.56 1.6.38.45.84.67 1.38.67a1.5 1.5 0 0 0 1.33-.7c.26-.4.38-.94.38-1.63zm-2.93.53h2.38c-.06.41-.2.72-.41.91a1.06 1.06 0 0 1-1.51-.04 1.69 1.69 0 0 1-.46-.87zm9.75 1.5-.11-.63c-.41.24-.87.36-1.37.36-.55 0-.82-.2-.82-.6a.5.5 0 0 1 .05-.24.6.6 0 0 1 .13-.17.72.72 0 0 1 .23-.11 3.78 3.78 0 0 1 .56-.15c.28-.05.49-.1.64-.17.15-.05.3-.16.48-.31l.05-.06a1.63 1.63 0 0 0 .2-.3 1.17 1.17 0 0 0 .13-.54c0-.44-.16-.8-.47-1.03-.27-.2-.64-.3-1.12-.3-.51 0-1.05.14-1.62.42l.12.65c.47-.3.97-.47 1.5-.47.6 0 .9.22.9.67a.5.5 0 0 1-.07.26.71.71 0 0 1-.14.19 1.79 1.79 0 0 1-.46.2c-.06 0-.14.03-.23.05a13.24 13.24 0 0 0-.74.18c-.1.05-.21.1-.3.17-.36.27-.53.59-.53.97a1.19 1.19 0 0 0 .49.99c.12.08.27.14.45.19a2.57 2.57 0 0 0 .66.08c.49 0 .95-.1 1.4-.3zm4.35-.11-.12-.63c-.25.17-.48.28-.67.34-.2.06-.42.09-.69.09-.32 0-.59-.1-.8-.28a1.37 1.37 0 0 1-.45-.63 2.3 2.3 0 0 1-.13-.78c0-.47.12-.86.37-1.18.25-.3.57-.46.97-.46.56 0 1.06.18 1.51.52l.06-.64c-.48-.33-1-.5-1.58-.5-.59 0-1.09.23-1.48.67-.4.45-.6.97-.6 1.59 0 .6.19 1.14.58 1.6.4.47.9.7 1.54.7.3 0 .55-.03.76-.08.2-.06.45-.17.73-.33zm4.86-1.91c0-.63-.2-1.16-.62-1.59a2 2 0 0 0-1.5-.64 2 2 0 0 0-1.5.64 2.2 2.2 0 0 0-.62 1.59c0 .63.2 1.18.62 1.64.41.45.91.68 1.5.68s1.08-.23 1.5-.68c.41-.45.62-1 .62-1.64zm-2.12-1.62c.38 0 .7.15.97.45.27.3.4.72.4 1.26s-.14.95-.4 1.22c-.28.28-.6.43-.97.43-.36 0-.68-.15-.96-.42-.27-.28-.4-.69-.4-1.23 0-.55.13-.97.4-1.27.27-.29.59-.44.96-.44zm3.67 1.56v-2.07h-.73v4.35h.68v-.88a2 2 0 0 0 1.7.93v-.65a1.62 1.62 0 0 1-1.64-1.68zm5.78.05h-2.98c.01-.47.16-.86.43-1.17.27-.31.6-.47 1-.47.53 0 1.02.18 1.46.55l.05-.63a2.5 2.5 0 0 0-1.53-.5c-.58 0-1.07.22-1.48.66-.4.45-.6.98-.6 1.62 0 .63.19 1.16.56 1.6.38.45.84.67 1.38.67a1.5 1.5 0 0 0 1.33-.7c.26-.4.38-.94.38-1.63zm-2.93.53h2.38c-.06.41-.2.72-.41.91a1.05 1.05 0 0 1-1.51-.04 1.67 1.67 0 0 1-.46-.87zm10.3.14v-2.79h-.73v.35a2.6 2.6 0 0 0-1.6-.45c-.38 0-.65.13-.83.39a1.4 1.4 0 0 0-.27.8c0 .4.25.72.76.94.5.21 1.14.32 1.91.34v.41c0 .34-.08.61-.24.8-.16.2-.36.3-.6.3-.52 0-1-.16-1.46-.48l-.05.64a3 3 0 0 0 1.51.41c.45 0 .83-.15 1.14-.46.3-.32.46-.71.46-1.2zm-.76-1.51v.6c-1.32-.07-1.98-.32-1.98-.77 0-.2.1-.35.27-.46.17-.11.39-.17.63-.17.3 0 .56.06.76.19.21.12.32.32.32.6zm5.75 3.01v-4.29h-.72v.46c-.43-.38-1-.56-1.67-.56-.38 0-.65.1-.8.29-.15.2-.23.48-.23.86v3.24h.76v-3.2c0-.24.04-.4.13-.51.1-.1.3-.15.62-.15.33 0 .6.09.83.27.22.18.33.45.33.79v2.8zm4.19-.51h-.04a1.6 1.6 0 0 0-.13-2.07 1.53 1.53 0 0 0-1.97-.18.54.54 0 0 1-.11-.35c0-.34.19-.51.56-.51h.85l.28-.01.4-.04c.18-.02.33-.06.46-.12.14-.06.27-.14.41-.23a.92.92 0 0 0 .32-.38c.08-.17.12-.35.12-.56 0-.38-.2-.68-.62-.94a2.87 2.87 0 0 0-1.53-.38c-.59 0-1.09.13-1.5.38-.42.26-.63.56-.63.92 0 .42.2.75.62 1-.17.2-.25.45-.25.73 0 .29.1.56.28.83-.21.27-.32.59-.32.95a1.55 1.55 0 0 0 1.54 1.58c.35 0 .66-.11.91-.31.48.2.99.3 1.53.3l.1-.6h-.1l-.25.02h-.21c-.08 0-.2 0-.37-.02l-.35-.01zm-1.26-2c.23 0 .44.09.6.26.18.17.27.42.27.77 0 .35-.09.6-.26.78a.86.86 0 0 1-1.2 0c-.19-.16-.28-.42-.28-.78 0-.36.1-.62.27-.78a.86.86 0 0 1 .6-.25zm.43-1.82h-.87a.94.94 0 0 1-.37-.07.67.67 0 0 1-.22-.15.52.52 0 0 1-.12-.2 1.22 1.22 0 0 1-.04-.15v-.09c0-.21.14-.4.43-.54.28-.14.63-.21 1.04-.21.4 0 .74.07 1.02.21.29.15.43.32.43.53 0 .45-.43.67-1.3.67zm9.15 2.92v-2.88h-.75v2.81c0 .13-.02.23-.03.32-.02.09-.05.2-.1.3a.56.56 0 0 1-.3.28c-.13.07-.3.1-.52.1a.79.79 0 0 1-.74-.44 2.04 2.04 0 0 1-.24-1v-2.37h-.75v2.81a1.45 1.45 0 0 1-.13.62.56.56 0 0 1-.3.28c-.13.07-.3.1-.52.1a.8.8 0 0 1-.73-.44 2.04 2.04 0 0 1-.25-1v-2.37h-.75v4.35h.7v-.7c.37.5.84.75 1.41.75.64 0 1.05-.27 1.23-.8.36.53.84.8 1.44.8.88 0 1.33-.51 1.33-1.52zm4.78-.76h-2.98c0-.47.15-.86.43-1.17.27-.31.6-.47.99-.47.54 0 1.03.18 1.46.55l.06-.63a2.5 2.5 0 0 0-1.53-.5c-.58 0-1.08.22-1.48.66-.4.45-.6.98-.6 1.62 0 .63.18 1.16.56 1.6.38.45.84.67 1.37.67a1.5 1.5 0 0 0 1.33-.7c.26-.4.4-.94.4-1.63zm-2.94.53h2.4c-.07.41-.2.72-.42.91a1.06 1.06 0 0 1-1.51-.04 1.68 1.68 0 0 1-.47-.87zm7.43.23v-2.88H116v3.04c0 .06-.03.15-.06.25a.8.8 0 0 1-.15.26.79.79 0 0 1-.28.18c-.12.05-.27.08-.45.08a.79.79 0 0 1-.74-.44 2.08 2.08 0 0 1-.23-1v-2.37h-.75v4.35h.7v-.69c.36.49.82.74 1.39.74.88 0 1.32-.51 1.32-1.52zm2.49.85v-2.42c0-.53.16-.8.49-.8.32 0 .6.1.87.32l.15-.57a3.05 3.05 0 0 0-1.4-.36c-.54 0-.8.41-.8 1.25v2.58h-.82v.56h.84v1.23h.67V56.3h1.36v-.56zm5.79-1.61h-2.98c.01-.47.16-.86.43-1.17.27-.31.6-.47 1-.47.53 0 1.02.18 1.46.55l.06-.63c-.46-.34-.98-.5-1.54-.5-.58 0-1.07.22-1.48.66-.4.45-.6.98-.6 1.62 0 .63.19 1.16.57 1.6.37.45.83.67 1.37.67a1.5 1.5 0 0 0 1.33-.7c.26-.4.38-.94.38-1.63zm-2.93.53h2.38c-.05.41-.2.72-.41.91-.22.2-.47.3-.75.3s-.54-.1-.76-.33a1.67 1.67 0 0 1-.46-.88zm10.64 4.05v-6.7h-.76v.5c-.42-.4-.9-.6-1.43-.6-.46 0-.86.21-1.18.65a2.6 2.6 0 0 0-.48 1.6c0 .62.17 1.15.5 1.59.33.44.73.66 1.21.66.52 0 .99-.18 1.41-.53v2.83zm-.76-5.35v1.93c-.24.35-.55.53-.93.53-.36 0-.68-.14-.97-.41-.3-.27-.44-.7-.44-1.27 0-.55.14-.96.4-1.24.26-.27.56-.4.9-.4.28 0 .52.08.72.26.21.2.32.4.32.6zm5.55.77h-2.98c.01-.47.15-.86.43-1.17.27-.31.6-.47.99-.47.54 0 1.03.18 1.47.55l.05-.63a2.5 2.5 0 0 0-1.53-.5c-.58 0-1.07.22-1.48.66-.4.45-.6.98-.6 1.62 0 .63.18 1.16.56 1.6.38.45.84.67 1.37.67a1.5 1.5 0 0 0 1.34-.7c.26-.4.38-.94.38-1.63zm-2.93.53h2.38c-.05.41-.2.72-.41.91a1.06 1.06 0 0 1-1.51-.04 1.67 1.67 0 0 1-.46-.87zm10.86.5c0-.97-.13-1.74-.39-2.3-.16-.34-.38-.6-.66-.78a1.8 1.8 0 0 0-1.55-.18c-.2.06-.4.18-.6.37-.2.19-.36.43-.49.71a5.9 5.9 0 0 0-.33 2.18c0 .98.13 1.74.37 2.28a1.79 1.79 0 0 0 1.65 1.12c.28 0 .56-.08.85-.23.29-.15.52-.4.7-.72.3-.58.45-1.4.45-2.45zm-2-2.77c.5 0 .87.34 1.07 1.03.11.4.17 1.03.17 1.86a6.2 6.2 0 0 1-.18 1.78 3.52 3.52 0 0 1-.27.5.81.81 0 0 1-.34.3.9.9 0 0 1-.47.11c-.51 0-.87-.33-1.08-.97-.1-.36-.16-.93-.16-1.73 0-.82.05-1.43.16-1.82.2-.7.57-1.06 1.1-1.06zm3.34.42h.81v-.8h-.8zm3.23 4.92v-2c.3.27.65.4 1.04.4.5 0 .93-.2 1.29-.63.36-.42.54-.93.54-1.53s-.21-1.12-.63-1.54a2.15 2.15 0 0 0-2.55-.37c-.31.17-.58.4-.78.68l.31.55c.14-.27.35-.49.63-.65a1.72 1.72 0 0 1 1.06-.24c.06 0 .16.03.31.1a1 1 0 0 1 .37.23c.1.1.2.26.29.48.08.22.12.48.12.78 0 .53-.09.93-.28 1.18-.2.25-.43.38-.69.38a1.1 1.1 0 0 1-.67-.22 1.3 1.3 0 0 1-.41-.55h-.64v3.57h3.24v-.62zm8.12-5.28v-2.31h-.75v6.16h.72v-.47c.46.38.99.58 1.59.58.45 0 .81-.23 1.1-.67.29-.44.43-.97.43-1.58 0-.64-.17-1.18-.53-1.61a1.59 1.59 0 0 0-1.25-.64c-.48 0-.92.18-1.3.54zm0 2.78V53.3a.6.6 0 0 1 .1-.34 1 1 0 0 1 .83-.46c.37 0 .7.16.98.47.29.32.43.72.43 1.2 0 .45-.13.83-.39 1.15-.25.32-.56.48-.92.48a1.2 1.2 0 0 1-1.03-.56zm8.25-1.09c0-.63-.2-1.16-.62-1.59a2.02 2.02 0 0 0-1.5-.64c-.57 0-1.07.2-1.5.64-.4.43-.62.95-.62 1.59 0 .63.2 1.18.62 1.64.41.45.92.68 1.5.68.59 0 1.09-.23 1.5-.68.42-.45.63-1 .63-1.64zm-2.12-1.62c.38 0 .7.15.97.45.27.3.4.72.4 1.26s-.13.95-.4 1.22a1.3 1.3 0 0 1-1.92.01c-.27-.28-.41-.69-.41-1.23 0-.55.13-.97.4-1.27.27-.29.59-.44.96-.44zm4 6.06v-.86h-.86v.86zm-.07-2.28v-4.29h-.73v4.29zm5.01-1.41v-2.88h-.76v3.04a.9.9 0 0 1-.07.25c-.03.1-.08.2-.14.26a.74.74 0 0 1-.28.18c-.12.05-.27.08-.45.08a.78.78 0 0 1-.73-.44 2.04 2.04 0 0 1-.24-1v-2.37h-.76v4.35h.7v-.69c.37.49.83.74 1.4.74.88 0 1.33-.51 1.33-1.52zm2.48.85v-2.42c0-.53.16-.8.49-.8.31 0 .6.1.87.32l.15-.57a3.07 3.07 0 0 0-1.4-.36c-.54 0-.81.41-.81 1.25v2.58h-.8v.56h.83v1.23h.67V56.3h1.36v-.56zm9.01-1.61h-2.98c0-.47.15-.86.43-1.17.27-.31.6-.47.99-.47.54 0 1.03.18 1.46.55l.06-.63a2.5 2.5 0 0 0-1.53-.5c-.58 0-1.08.22-1.48.66-.4.45-.6.98-.6 1.62 0 .63.18 1.16.56 1.6.38.45.84.67 1.37.67a1.5 1.5 0 0 0 1.33-.7c.26-.4.4-.94.4-1.63zm-2.94.53h2.39c-.06.41-.2.72-.41.91a1.06 1.06 0 0 1-1.51-.04 1.69 1.69 0 0 1-.47-.87zm7.43.23v-2.88h-.75v3.04a1.04 1.04 0 0 1-.21.51.78.78 0 0 1-.28.18 1.1 1.1 0 0 1-.45.08.78.78 0 0 1-.74-.44 2.07 2.07 0 0 1-.24-1v-2.37h-.75v4.35h.7v-.69c.36.49.83.74 1.4.74.88 0 1.32-.51 1.32-1.52zm7.97 1.16-.12-.63c-.26.17-.48.28-.67.34-.2.06-.43.09-.69.09-.32 0-.59-.1-.8-.28a1.47 1.47 0 0 1-.46-.63 2.4 2.4 0 0 1-.12-.78c0-.47.12-.86.37-1.18.25-.3.57-.46.97-.46.56 0 1.07.18 1.51.52l.06-.64c-.48-.33-1-.5-1.57-.5-.6 0-1.1.23-1.5.67-.4.45-.6.97-.6 1.59 0 .6.2 1.14.6 1.6.38.47.9.7 1.53.7.3 0 .55-.03.75-.08.21-.06.46-.17.74-.33zm4.18-1.25v-2.79h-.72v.35a2.6 2.6 0 0 0-1.6-.45c-.38 0-.66.13-.84.39a1.4 1.4 0 0 0-.26.8c0 .4.25.72.75.94.5.21 1.14.32 1.92.34v.41c0 .34-.08.61-.25.8-.16.2-.35.3-.6.3-.51 0-1-.16-1.45-.48l-.06.64a3 3 0 0 0 1.52.41c.45 0 .83-.15 1.13-.46.3-.32.46-.71.46-1.2zm-.75-1.51v.6c-1.32-.07-1.98-.32-1.98-.77 0-.2.09-.35.26-.46.18-.11.4-.17.64-.17.3 0 .55.06.75.19.22.12.33.32.33.6zm4.86 2.87-.12-.63c-.4.24-.86.36-1.37.36-.54 0-.82-.2-.82-.6a.6.6 0 0 1 .19-.41.72.72 0 0 1 .22-.11 3.3 3.3 0 0 1 .57-.15c.27-.05.49-.1.64-.17.14-.05.3-.16.48-.31l.05-.06a1.63 1.63 0 0 0 .2-.3 1.22 1.22 0 0 0 .13-.54c0-.44-.16-.8-.47-1.03-.28-.2-.65-.3-1.12-.3-.52 0-1.06.14-1.62.42l.11.65c.48-.3.98-.47 1.5-.47.6 0 .9.22.9.67a.5.5 0 0 1-.06.26.83.83 0 0 1-.15.19 1.9 1.9 0 0 1-.46.2c-.06 0-.13.03-.23.05a13.57 13.57 0 0 0-.74.18c-.1.05-.2.1-.3.17-.35.27-.53.59-.53.97a1.19 1.19 0 0 0 .5.99c.12.08.27.14.45.19a2.6 2.6 0 0 0 .66.08c.49 0 .95-.1 1.4-.3zm7.8 2.55v-6.7h-.76v.5a2 2 0 0 0-1.43-.6c-.46 0-.85.21-1.18.65a2.6 2.6 0 0 0-.48 1.6c0 .62.16 1.15.5 1.59.33.44.73.66 1.21.66.52 0 .98-.18 1.41-.53v2.83zm-.76-5.35v1.93a1.1 1.1 0 0 1-.93.53c-.36 0-.68-.14-.97-.41-.3-.27-.44-.7-.44-1.27 0-.55.14-.96.4-1.24.26-.27.56-.4.9-.4.28 0 .52.08.72.26.21.2.32.4.32.6zm5.56.77h-2.99c.02-.47.16-.86.43-1.17.28-.31.6-.47 1-.47.53 0 1.02.18 1.46.55l.06-.63c-.47-.34-.98-.5-1.54-.5-.58 0-1.07.22-1.48.66-.4.45-.6.98-.6 1.62 0 .63.19 1.16.56 1.6.39.45.84.67 1.38.67a1.5 1.5 0 0 0 1.33-.7c.26-.4.39-.94.39-1.63zm-2.94.53h2.39c-.06.41-.2.72-.42.91-.22.2-.47.3-.75.3s-.53-.1-.76-.33a1.7 1.7 0 0 1-.46-.88zm7.96-.58v-2.07h-.73v4.35h.68v-.88a2 2 0 0 0 1.7.93v-.65a1.64 1.64 0 0 1-1.65-1.68zm5.8 4.63-1.44-1.6h-.6l1.3 1.6zm.26-4.58h-2.99c.02-.47.16-.86.43-1.17.28-.31.6-.47 1-.47.53 0 1.02.18 1.46.55l.06-.63c-.46-.34-.98-.5-1.54-.5-.58 0-1.07.22-1.47.66a2.3 2.3 0 0 0-.61 1.62c0 .63.19 1.16.57 1.6.38.45.83.67 1.37.67a1.5 1.5 0 0 0 1.33-.7c.26-.4.4-.94.4-1.63zm-2.94.53h2.39c-.06.41-.2.72-.42.91-.22.2-.47.3-.75.3s-.53-.1-.76-.33a1.7 1.7 0 0 1-.46-.88zm7.43 1.64v-4.29h-.72v.46a2.43 2.43 0 0 0-1.67-.56c-.39 0-.65.1-.8.29-.15.2-.23.48-.23.86v3.24h.75v-3.2c0-.24.05-.4.14-.51.1-.1.3-.15.62-.15.33 0 .6.09.83.27.22.18.33.45.33.79v2.8zm4.1-.14-.11-.63a2.7 2.7 0 0 1-1.37.36c-.55 0-.82-.2-.82-.6a.53.53 0 0 1 .4-.52 4.16 4.16 0 0 1 .57-.15c.28-.05.5-.1.64-.17.15-.05.3-.16.48-.31l.05-.06a3.36 3.36 0 0 0 .2-.3 1.17 1.17 0 0 0 .13-.54c0-.44-.16-.8-.47-1.03-.27-.2-.65-.3-1.12-.3-.51 0-1.05.14-1.62.42l.11.65a2.7 2.7 0 0 1 1.5-.47c.61 0 .91.22.91.67 0 .1-.02.18-.07.26a.82.82 0 0 1-.15.19.9.9 0 0 1-.22.12 2.09 2.09 0 0 1-.47.13c-.22.04-.37.07-.45.1a1.68 1.68 0 0 0-.59.25 1.22 1.22 0 0 0-.38 1.58c.1.17.22.3.35.38.12.08.27.14.45.19a2.54 2.54 0 0 0 .66.08c.48 0 .95-.1 1.4-.3zm3.71 0-.12-.63c-.41.24-.87.36-1.37.36-.55 0-.82-.2-.82-.6a.5.5 0 0 1 .06-.24.7.7 0 0 1 .13-.17.74.74 0 0 1 .22-.11 5.26 5.26 0 0 1 .56-.15c.28-.05.5-.1.64-.17.15-.05.31-.16.49-.31l.04-.06.1-.12c.03-.05.07-.1.1-.18a1.17 1.17 0 0 0 .13-.54c0-.44-.15-.8-.46-1.03-.28-.2-.65-.3-1.12-.3-.52 0-1.06.14-1.63.42l.12.65c.48-.3.98-.47 1.5-.47.6 0 .9.22.9.67a.5.5 0 0 1-.06.26.71.71 0 0 1-.15.19.99.99 0 0 1-.23.12l-.23.08c-.06 0-.14.03-.23.05a13.02 13.02 0 0 0-.74.18c-.1.05-.2.1-.3.17-.35.27-.53.59-.53.97a1.18 1.18 0 0 0 .49.99 2.48 2.48 0 0 0 1.12.28c.48 0 .94-.11 1.39-.31zm1.96 2.42v-.86h-.86v.86zm-.07-2.28v-4.29h-.73v4.29zm2.49-.56v-2.42c0-.53.16-.8.5-.8.3 0 .6.1.86.32l.16-.57a3.07 3.07 0 0 0-1.41-.36c-.53 0-.8.41-.8 1.25v2.58h-.81v.56h.84v1.23h.66V56.3h1.36v-.56zm5.8-1.61h-2.99c.02-.47.16-.86.44-1.17.27-.31.6-.47.99-.47.53 0 1.03.18 1.46.55l.06-.63c-.46-.34-.98-.5-1.54-.5-.57 0-1.07.22-1.47.66a2.3 2.3 0 0 0-.61 1.62c0 .63.19 1.16.57 1.6.38.45.83.67 1.37.67a1.5 1.5 0 0 0 1.33-.7c.26-.4.4-.94.4-1.63zm-2.94.53h2.39c-.06.41-.2.72-.42.91-.22.2-.47.3-.75.3s-.53-.1-.76-.33a1.7 1.7 0 0 1-.46-.88zm10.3.14v-2.79h-.72v.35a2.6 2.6 0 0 0-1.6-.45c-.38 0-.66.13-.84.39a1.4 1.4 0 0 0-.26.8c0 .4.25.72.75.94.5.21 1.14.32 1.92.34v.41c0 .34-.08.61-.25.8-.16.2-.35.3-.6.3-.51 0-1-.16-1.45-.48l-.06.64a3 3 0 0 0 1.52.41c.45 0 .83-.15 1.13-.46.3-.32.46-.71.46-1.2zm-.75-1.51v.6c-1.32-.07-1.98-.32-1.98-.77 0-.2.09-.35.26-.46.18-.11.4-.17.64-.17.3 0 .55.06.75.19.22.12.33.32.33.6zm3.09-.84v-2.31h-.76v6.16h.72v-.47c.46.38 1 .58 1.6.58.44 0 .81-.23 1.1-.67.29-.44.43-.97.43-1.58 0-.64-.18-1.18-.54-1.61a1.58 1.58 0 0 0-1.25-.64c-.48 0-.91.18-1.3.54zm0 2.78V53.3c0-.13.03-.25.1-.34a1 1 0 0 1 .82-.46c.38 0 .7.16.99.47.28.32.42.72.42 1.2 0 .45-.12.83-.38 1.15a1.18 1.18 0 0 1-1.96-.08zm4.7-1.15v-2.07h-.73v4.35h.68v-.88c.4.6.97.92 1.69.93v-.65a1.62 1.62 0 0 1-1.64-1.68zm4.03 3.02-1.45 1.61h.75l1.3-1.6zm2.02-2.97h-2.98c.01-.47.15-.86.43-1.17.27-.31.6-.47.99-.47.54 0 1.03.18 1.47.55l.06-.63c-.47-.34-.98-.5-1.54-.5-.58 0-1.07.22-1.48.66-.4.45-.61.98-.61 1.62 0 .63.2 1.16.57 1.6.38.45.84.67 1.37.67a1.5 1.5 0 0 0 1.34-.7c.26-.4.38-.94.38-1.63zm-2.93.53h2.38c-.05.41-.2.72-.41.91a1.06 1.06 0 0 1-1.51-.04 1.67 1.67 0 0 1-.46-.87zm6.53 1.5-.11-.63c-.41.24-.87.36-1.38.36-.54 0-.82-.2-.82-.6a.5.5 0 0 1 .06-.24.54.54 0 0 1 .13-.17.73.73 0 0 1 .22-.11 4.16 4.16 0 0 1 .57-.15c.27-.05.49-.1.64-.17.15-.05.3-.16.48-.31l.05-.06a1.63 1.63 0 0 0 .2-.3l.1-.24.03-.3c0-.44-.16-.8-.47-1.03-.28-.2-.65-.3-1.12-.3-.52 0-1.05.14-1.62.42l.11.65a2.7 2.7 0 0 1 1.5-.47c.6 0 .9.22.9.67a.5.5 0 0 1-.06.26.83.83 0 0 1-.15.19 1.9 1.9 0 0 1-.7.25c-.2.04-.36.07-.44.1a1.55 1.55 0 0 0-.6.25 1.23 1.23 0 0 0-.38 1.58c.12.17.23.3.35.38.13.08.28.14.46.19a2.57 2.57 0 0 0 .66.08c.48 0 .95-.1 1.4-.3zm4.39 2.55h.73v-6.7h-.73zm5.38-3.91v-2.79h-.73v.35c-.39-.3-.92-.45-1.6-.45-.37 0-.65.13-.83.39a1.4 1.4 0 0 0-.27.8c0 .4.26.72.76.94.5.21 1.14.32 1.92.34v.41c0 .34-.09.61-.25.8-.16.2-.35.3-.6.3-.52 0-1-.16-1.45-.48l-.06.64a3 3 0 0 0 1.52.41c.45 0 .83-.15 1.13-.46.3-.32.46-.71.46-1.2zm-.75-1.51v.6c-1.32-.07-1.98-.32-1.98-.77 0-.2.08-.35.26-.46.18-.11.39-.17.63-.17.3 0 .56.06.76.19.22.12.33.32.33.6zm6.31-.84v-2.31h-.76v6.16h.73v-.47c.46.38.98.58 1.58.58.45 0 .82-.23 1.1-.67.3-.44.44-.97.44-1.58 0-.64-.18-1.18-.53-1.61a1.6 1.6 0 0 0-1.26-.64c-.48 0-.9.18-1.3.54zm0 2.78V53.3c0-.13.03-.25.1-.34.22-.3.5-.46.82-.46.38 0 .7.16.99.47.28.32.43.72.43 1.2 0 .45-.13.83-.39 1.15a1.18 1.18 0 0 1-1.96-.08zm4.7-1.15v-2.07h-.74v4.35h.68v-.88a2 2 0 0 0 1.7.93v-.65a1.62 1.62 0 0 1-1.64-1.68zm5.78.05h-3c.02-.47.16-.86.44-1.17.27-.31.6-.47.99-.47.54 0 1.03.18 1.47.55l.06-.63c-.47-.34-.98-.5-1.54-.5-.58 0-1.07.22-1.48.66-.4.45-.6.98-.6 1.62 0 .63.18 1.16.56 1.6.38.45.84.67 1.37.67a1.5 1.5 0 0 0 1.34-.7c.26-.4.39-.94.39-1.63zm-2.94.53h2.39c-.06.41-.2.72-.42.91a1.06 1.06 0 0 1-1.51-.04 1.68 1.68 0 0 1-.46-.87zm10.11.23v-2.88h-.75v2.81c0 .13 0 .23-.03.32a.96.96 0 0 1-.1.3.56.56 0 0 1-.29.28c-.14.07-.32.1-.53.1a.79.79 0 0 1-.73-.44 2.04 2.04 0 0 1-.24-1v-2.37h-.76v2.81c0 .13 0 .23-.02.32s-.05.2-.1.3a.56.56 0 0 1-.3.28c-.14.07-.31.1-.52.1a.79.79 0 0 1-.74-.44 2.04 2.04 0 0 1-.24-1v-2.37h-.75v4.35h.7v-.7c.37.5.84.75 1.4.75.65 0 1.06-.27 1.24-.8.36.53.84.8 1.44.8.88 0 1.32-.51 1.32-1.52zm2.36 3.69v-.86h-.86v.86zm-.06-2.28v-4.29h-.73v4.29zm3.05.8-1.45 1.61h.75l1.29-1.6zm2.02-2.97h-2.99c.01-.47.16-.86.43-1.17.27-.31.6-.47 1-.47.53 0 1.02.18 1.46.55l.06-.63c-.46-.34-.98-.5-1.54-.5-.58 0-1.07.22-1.47.66a2.3 2.3 0 0 0-.61 1.62c0 .63.19 1.16.57 1.6.38.45.83.67 1.37.67a1.5 1.5 0 0 0 1.33-.7c.26-.4.39-.94.39-1.63zm-2.94.53h2.39c-.06.41-.2.72-.42.91-.22.2-.47.3-.75.3s-.53-.1-.76-.33a1.68 1.68 0 0 1-.46-.88zm4.74-.58v-2.07h-.72v4.35h.68v-.88c.4.6.97.92 1.69.93v-.65a1.64 1.64 0 0 1-1.65-1.68zm5.78.05h-2.98c.02-.47.16-.86.43-1.17.28-.31.6-.47 1-.47.54 0 1.02.18 1.46.55l.06-.63c-.47-.34-.98-.5-1.53-.5-.59 0-1.08.22-1.49.66-.4.45-.6.98-.6 1.62 0 .63.19 1.16.57 1.6.38.45.83.67 1.37.67a1.5 1.5 0 0 0 1.33-.7c.26-.4.39-.94.39-1.63zm-2.93.53h2.39c-.06.41-.2.72-.42.91a1.05 1.05 0 0 1-1.51-.04 1.67 1.67 0 0 1-.46-.87zm8.13 1.08v-2.42c0-.53.17-.8.5-.8.31 0 .6.1.87.32l.15-.57a3.06 3.06 0 0 0-1.4-.36c-.54 0-.81.41-.81 1.25v2.58h-.8v.56h.83v1.23h.67V56.3h1.36v-.56zm5.8-1.61h-2.98c.01-.47.16-.86.43-1.17.27-.31.6-.47.99-.47.54 0 1.03.18 1.47.55l.06-.63c-.47-.34-.98-.5-1.54-.5-.58 0-1.07.22-1.48.66-.4.45-.6.98-.6 1.62 0 .63.18 1.16.56 1.6.39.45.84.67 1.38.67a1.5 1.5 0 0 0 1.33-.7c.26-.4.38-.94.38-1.63zm-2.93.53h2.38c-.05.41-.2.72-.4.91a1.05 1.05 0 0 1-1.51-.04 1.67 1.67 0 0 1-.47-.87zm7.43.23v-2.88h-.76v3.04a1.05 1.05 0 0 1-.2.51.79.79 0 0 1-.29.18c-.12.05-.27.08-.45.08a.78.78 0 0 1-.74-.44 2.04 2.04 0 0 1-.23-1v-2.37h-.76v4.35h.7v-.69c.36.49.83.74 1.4.74.88 0 1.32-.51 1.32-1.52zm2.47.85v-2.42c0-.53.17-.8.5-.8.31 0 .6.1.87.32l.15-.57a3.06 3.06 0 0 0-1.4-.36c-.54 0-.81.41-.81 1.25v2.58h-.81v.56h.84v1.23h.66V56.3h1.37v-.56zm5.66-.94v-2.79h-.73v.35c-.39-.3-.92-.45-1.6-.45-.37 0-.65.13-.83.39a1.4 1.4 0 0 0-.27.8c0 .4.26.72.76.94.5.21 1.14.32 1.92.34v.41c0 .34-.08.61-.25.8-.16.2-.35.3-.6.3-.52 0-1-.16-1.45-.48l-.06.64c.48.27.99.41 1.52.41.45 0 .83-.15 1.13-.46.3-.32.46-.71.46-1.2zm-.75-1.51v.6c-1.32-.07-1.98-.32-1.98-.77 0-.2.08-.35.26-.46.18-.11.39-.17.64-.17.3 0 .55.06.75.19.22.12.33.32.33.6zm3.23 2.45v-2.42c0-.53.17-.8.5-.8.31 0 .6.1.86.32l.16-.57a3.05 3.05 0 0 0-1.41-.36c-.54 0-.8.41-.8 1.25v2.58h-.81v.56h.84v1.23h.66V56.3h1.36v-.56zm3.37 2.84v-.86h-.86v.86zm-.07-2.28v-4.29h-.72v4.29zm5.12 0-1.66-4.29h-.85l-1.66 4.29h.75l.94-2.5c.23-.63.36-1.06.4-1.28h.01c.05.3.24.9.58 1.77l.76 2.01zm4.14-2.17h-2.98c0-.47.15-.86.42-1.17.28-.31.6-.47 1-.47.54 0 1.02.18 1.46.55l.06-.63c-.46-.34-.98-.5-1.54-.5-.58 0-1.07.22-1.48.66-.4.45-.6.98-.6 1.62 0 .63.19 1.16.57 1.6.38.45.84.67 1.37.67a1.5 1.5 0 0 0 1.33-.7c.26-.4.39-.94.39-1.63zm-2.94.53h2.39c-.06.41-.2.72-.42.91-.22.2-.47.3-.75.3s-.53-.1-.76-.33a1.7 1.7 0 0 1-.46-.88zm4.17-1.85h.8v-.8h-.8zM92.94 45.85l-2.64-6.7h-.89l-2.64 6.7h.9l1.67-4.32c.35-.93.55-1.5.58-1.68h.01c.06.3.38 1.2.97 2.7l1.28 3.3zm4.4-4.57a2.2 2.2 0 0 0-.62-1.6 2.02 2.02 0 0 0-1.5-.64 2.19 2.19 0 0 0-2.11 2.23c0 .64.2 1.19.6 1.65a2 2 0 0 0 3.01 0c.41-.45.62-1 .62-1.64zm-2.13-1.62c.39 0 .7.15.98.45.26.3.4.72.4 1.26 0 .53-.14.94-.4 1.22a1.3 1.3 0 0 1-1.92 0c-.28-.27-.42-.68-.42-1.22 0-.55.14-.97.4-1.27.28-.3.6-.44.96-.44zm6.63 3.78v-4.29h-.72v.46a2.43 2.43 0 0 0-1.67-.57c-.38 0-.65.1-.8.3-.15.2-.23.48-.23.86v3.24h.76v-3.2c0-.24.04-.41.14-.51.09-.1.3-.15.61-.15.33 0 .6.09.83.27.22.18.33.45.33.79v2.8zm4.11-.14-.12-.63c-.4.24-.87.36-1.37.36-.55 0-.82-.2-.82-.6 0-.09.02-.17.06-.24a.68.68 0 0 1 .13-.17.65.65 0 0 1 .22-.11 4.65 4.65 0 0 1 .57-.15c.28-.05.49-.11.63-.17.15-.05.31-.16.49-.31l.05-.06.1-.12.1-.18a1.2 1.2 0 0 0 .13-.54c0-.44-.16-.8-.47-1.03-.27-.2-.65-.3-1.12-.3-.51 0-1.06.14-1.62.42l.11.65a2.7 2.7 0 0 1 1.5-.47c.6 0 .91.22.91.67 0 .1-.02.18-.07.26a.67.67 0 0 1-.15.18.7.7 0 0 1-.23.13l-.23.07-.23.05-.45.1a1.5 1.5 0 0 0-.6.26c-.34.27-.52.59-.52.97a1.19 1.19 0 0 0 .5.99c.12.08.27.14.45.18a2.18 2.18 0 0 0 .66.1c.48 0 .94-.11 1.39-.31zm7.8 2.55v-6.7H113v.5a2 2 0 0 0-1.43-.6c-.47 0-.86.21-1.18.64-.32.44-.48.97-.48 1.6 0 .63.16 1.16.5 1.6.32.44.73.66 1.2.66.52 0 1-.18 1.42-.54v2.84zM113 40.5v1.93c-.25.36-.56.54-.94.54a1.4 1.4 0 0 1-.97-.41c-.29-.27-.43-.7-.43-1.27 0-.55.13-.97.4-1.24.25-.27.56-.4.9-.4.27 0 .51.08.72.26.21.2.32.4.32.59zm3.12 5.22v-.86h-.86v.86zm-.07-2.28v-4.29h-.72v4.29zm4.12-.14-.11-.63a2.7 2.7 0 0 1-1.37.36c-.55 0-.82-.2-.82-.6 0-.09.01-.17.05-.24a.68.68 0 0 1 .13-.17.73.73 0 0 1 .22-.11 5.26 5.26 0 0 1 .57-.15c.28-.05.49-.11.64-.17.14-.05.3-.16.48-.31l.05-.06a2.38 2.38 0 0 0 .2-.3.94.94 0 0 0 .1-.25l.03-.28c0-.45-.16-.8-.47-1.04-.27-.2-.65-.3-1.12-.3-.51 0-1.06.14-1.62.42l.12.65a2.7 2.7 0 0 1 1.5-.47c.6 0 .9.22.9.67 0 .1-.02.18-.06.26a.78.78 0 0 1-.16.18.99.99 0 0 1-.22.13l-.23.07-.24.05-.45.1a1.58 1.58 0 0 0-.6.26 1.2 1.2 0 0 0-.51.97 1.17 1.17 0 0 0 .49.99c.12.08.27.14.45.18a2.25 2.25 0 0 0 .66.1c.49 0 .95-.11 1.4-.31zm1.93-3.7v-2.32h-.75v6.16h.73v-.48c.46.39.98.59 1.58.59.45 0 .82-.23 1.1-.67.3-.45.43-.97.43-1.58 0-.64-.17-1.18-.53-1.61a1.59 1.59 0 0 0-1.25-.65c-.48 0-.91.18-1.3.55zm0 2.77v-1.95c0-.12.04-.24.1-.33a1 1 0 0 1 .83-.46c.38 0 .7.16.99.47.28.32.42.72.42 1.2 0 .45-.12.83-.38 1.15-.25.32-.56.47-.93.47-.43 0-.77-.18-1.02-.55zm8.25-1.09c0-.63-.2-1.16-.62-1.6a2.02 2.02 0 0 0-1.5-.64 2.19 2.19 0 0 0-2.11 2.23c0 .64.2 1.19.61 1.65.41.45.92.68 1.5.68.59 0 1.08-.23 1.5-.68.41-.45.62-1 .62-1.64zm-2.12-1.62c.38 0 .7.15.97.45.27.3.4.72.4 1.26 0 .53-.13.94-.4 1.22a1.32 1.32 0 0 1-1.92 0c-.28-.27-.42-.68-.42-1.22 0-.55.14-.97.41-1.27.27-.3.59-.44.96-.44zm5.74 3.64-.12-.63c-.41.24-.87.36-1.37.36-.55 0-.82-.2-.82-.6 0-.09.02-.17.06-.24a.68.68 0 0 1 .12-.17.73.73 0 0 1 .23-.11 5.26 5.26 0 0 1 .56-.15c.28-.05.5-.11.64-.17.15-.05.3-.16.48-.31l.05-.06a2.38 2.38 0 0 0 .2-.3.94.94 0 0 0 .1-.25l.03-.28c0-.45-.15-.8-.46-1.04-.28-.2-.65-.3-1.12-.3-.52 0-1.06.14-1.63.42l.12.65a2.7 2.7 0 0 1 1.5-.47c.6 0 .9.22.9.67 0 .1-.02.18-.07.26a.69.69 0 0 1-.14.18.99.99 0 0 1-.23.13 2 2 0 0 1-.47.12l-.45.1a1.48 1.48 0 0 0-.59.26c-.35.27-.52.59-.52.97a1.19 1.19 0 0 0 .49.99c.13.08.27.14.45.18a2.18 2.18 0 0 0 .66.1c.49 0 .95-.11 1.4-.31zm4.38-2.04h-2.98c0-.46.15-.86.43-1.16.27-.31.6-.47.98-.47.55 0 1.04.18 1.47.54l.06-.62a2.5 2.5 0 0 0-1.53-.5c-.59 0-1.08.21-1.48.66-.4.44-.6.98-.6 1.62 0 .63.18 1.16.56 1.6.38.45.84.67 1.37.67a1.5 1.5 0 0 0 1.34-.7c.25-.4.38-.94.38-1.64zm-2.94.54h2.4c-.07.4-.2.71-.42.91a1.05 1.05 0 0 1-1.51-.04 1.68 1.68 0 0 1-.47-.87zm7.09 1.26-2.56-3.32h2.59v-.59h-3.62v.4l2.58 3.33h-.93l-.17-.01h-1.34v.57h3.46zm7.76 2.79v-6.7h-.76v.5c-.42-.4-.9-.6-1.43-.6-.46 0-.85.21-1.17.64a2.6 2.6 0 0 0-.49 1.6c0 .63.17 1.16.5 1.6.33.44.73.66 1.21.66.52 0 .99-.18 1.41-.54v2.84zm-.76-5.36v1.93c-.24.36-.55.54-.93.54-.36 0-.68-.14-.97-.41-.3-.27-.44-.7-.44-1.27 0-.55.14-.97.4-1.24s.56-.4.9-.4c.28 0 .52.08.72.26.22.2.32.4.32.59zm5.56.77h-2.99c.02-.46.16-.86.43-1.16.28-.31.6-.47 1-.47.53 0 1.02.18 1.46.54l.06-.62c-.47-.34-.98-.5-1.54-.5-.58 0-1.07.21-1.48.66-.4.44-.6.98-.6 1.62 0 .63.19 1.16.56 1.6.39.45.84.67 1.38.67a1.5 1.5 0 0 0 1.33-.7c.26-.4.39-.94.39-1.64zm-2.94.54h2.39c-.06.4-.2.71-.42.91a1.06 1.06 0 0 1-1.51-.04 1.68 1.68 0 0 1-.46-.87zm8.13-.84.74.69.43.45c.1.1.2.24.33.42s.22.36.28.53c.06.17.08.36.08.55 0 .4-.13.75-.38 1.04-.25.3-.59.44-1.02.44-.4 0-.68-.13-.87-.4a3.3 3.3 0 0 1-.47-1.1 1.8 1.8 0 0 1-.21.28 1 1 0 0 0-.07.09l-.12.17c.3 1.05.92 1.58 1.87 1.58a1.97 1.97 0 0 0 2.06-2.08 2.33 2.33 0 0 0-.5-1.28l-.46-.49-.42-.38a27.14 27.14 0 0 1-1.77-1.64h1.22a3 3 0 0 0 .17 0h1.76v-.68h-3.85v.62zm8.05 1.92v-2.42c0-.53.17-.8.5-.8.3 0 .6.1.86.32l.16-.57a3.06 3.06 0 0 0-1.41-.37c-.54 0-.8.42-.8 1.26v2.58h-.81v.56h.84v1.23h.67v-1.23h1.35v-.56zm5.8-1.62h-3c.03-.46.17-.86.44-1.16.27-.31.6-.47 1-.47.53 0 1.02.18 1.46.54l.06-.62c-.47-.34-.98-.5-1.54-.5-.58 0-1.07.21-1.48.66-.4.44-.6.98-.6 1.62 0 .63.18 1.16.56 1.6.38.45.84.67 1.37.67a1.5 1.5 0 0 0 1.34-.7c.26-.4.39-.94.39-1.64zm-2.94.54h2.39c-.06.4-.2.71-.42.91a1.04 1.04 0 0 1-1.51-.04 1.68 1.68 0 0 1-.46-.87zm7.43.23v-2.88h-.75v3.04a1.03 1.03 0 0 1-.21.5.75.75 0 0 1-.28.19c-.13.05-.28.08-.45.08a.78.78 0 0 1-.74-.44 2.05 2.05 0 0 1-.24-1v-2.37h-.75v4.34h.7v-.68c.36.49.83.74 1.4.74.88 0 1.32-.51 1.32-1.52zm2.48.85v-2.42c0-.53.17-.8.5-.8.3 0 .6.1.86.32l.16-.57a3.07 3.07 0 0 0-1.41-.37c-.53 0-.8.42-.8 1.26v2.58h-.81v.56h.84v1.23h.66v-1.23h1.36v-.56zm5.66-.94v-2.79H186v.34a2.6 2.6 0 0 0-1.6-.45c-.38 0-.65.13-.83.4a1.4 1.4 0 0 0-.27.8c0 .4.25.72.75.93a5 5 0 0 0 1.92.34v.42c0 .34-.08.61-.24.8-.16.2-.36.3-.6.3-.52 0-1-.16-1.46-.48l-.06.64c.49.27 1 .41 1.52.41.45 0 .83-.15 1.14-.46.3-.32.46-.72.46-1.2zm-.76-1.52v.6c-1.32-.06-1.98-.31-1.98-.76 0-.2.09-.35.27-.46.17-.11.39-.17.63-.17.3 0 .56.06.76.18.21.13.32.33.32.61zm3.24 2.46v-2.42c0-.53.17-.8.5-.8.31 0 .6.1.86.32l.16-.57a3.07 3.07 0 0 0-1.41-.37c-.54 0-.8.42-.8 1.26v2.58h-.82v.56h.84v1.23h.67v-1.23h1.36v-.56zm3.37 2.84v-.86h-.86v.86zm-.07-2.28v-4.29h-.72v4.29zm5.12 0-1.66-4.29h-.86l-1.66 4.29h.75l.94-2.5a7.2 7.2 0 0 0 .4-1.28h.02c.05.3.24.9.58 1.77l.76 2zm4.14-2.18h-2.99c.01-.46.16-.86.43-1.16.27-.31.6-.47.99-.47.54 0 1.03.18 1.47.54l.06-.62c-.47-.34-.98-.5-1.54-.5-.58 0-1.07.21-1.48.66-.4.44-.6.98-.6 1.62 0 .63.18 1.16.56 1.6.39.45.84.67 1.37.67a1.5 1.5 0 0 0 1.34-.7c.26-.4.39-.94.39-1.64zm-2.94.54h2.38c-.05.4-.19.71-.41.91-.22.2-.47.3-.76.3-.27 0-.52-.11-.75-.34a1.7 1.7 0 0 1-.46-.87zm6.54 1.5-.12-.63c-.41.24-.87.36-1.37.36-.54 0-.82-.2-.82-.6a.53.53 0 0 1 .19-.4.65.65 0 0 1 .22-.12 3.75 3.75 0 0 1 .57-.15c.27-.05.49-.11.64-.17.14-.05.3-.16.48-.31l.04-.06a2.83 2.83 0 0 0 .2-.3 1.25 1.25 0 0 0 .13-.54c0-.44-.15-.8-.46-1.03-.28-.2-.65-.3-1.12-.3-.52 0-1.06.14-1.63.42l.12.65a2.7 2.7 0 0 1 1.5-.47c.6 0 .9.22.9.67 0 .1-.02.18-.06.26a.76.76 0 0 1-.15.18.99.99 0 0 1-.23.13l-.23.07-.23.05-.46.1a1.71 1.71 0 0 0-.58.26 1.23 1.23 0 0 0-.38 1.58c.1.17.22.3.34.38.13.08.28.14.46.18a2.25 2.25 0 0 0 .66.1c.48 0 .95-.11 1.4-.31zm5.15-3.7v-2.32h-.75v6.16h.72v-.48c.45.39.98.59 1.58.59.45 0 .82-.23 1.11-.67.28-.45.43-.97.43-1.58 0-.64-.18-1.18-.53-1.61a1.6 1.6 0 0 0-1.26-.65c-.48 0-.91.18-1.3.55zm0 2.77v-1.95a.6.6 0 0 1 .1-.33c.22-.3.5-.46.82-.46.38 0 .7.16.99.47.28.32.42.72.42 1.2 0 .45-.12.83-.38 1.15-.25.32-.56.47-.93.47-.42 0-.77-.18-1.02-.55zm8.25-1.09c0-.63-.2-1.16-.62-1.6a2.03 2.03 0 0 0-1.5-.64 2.19 2.19 0 0 0-2.11 2.23c0 .64.2 1.19.6 1.65a2 2 0 0 0 3.01 0c.41-.45.62-1 .62-1.64zm-2.13-1.62c.38 0 .7.15.98.45.26.3.4.72.4 1.26 0 .53-.14.94-.41 1.22a1.3 1.3 0 0 1-1.91 0c-.28-.27-.42-.68-.42-1.22 0-.55.14-.97.4-1.27.28-.3.6-.44.97-.44zm5.74 3.64-.11-.63c-.41.24-.87.36-1.37.36-.55 0-.83-.2-.83-.6 0-.09.02-.17.06-.24a.68.68 0 0 1 .13-.17.73.73 0 0 1 .22-.11 5.26 5.26 0 0 1 .57-.15c.28-.05.49-.11.64-.17.15-.05.3-.16.48-.31l.05-.06a2.38 2.38 0 0 0 .2-.3.94.94 0 0 0 .1-.25l.03-.28c0-.45-.15-.8-.46-1.04a1.9 1.9 0 0 0-1.12-.3c-.52 0-1.06.14-1.63.42l.12.65a2.7 2.7 0 0 1 1.5-.47c.6 0 .9.22.9.67 0 .1-.02.18-.07.26a.69.69 0 0 1-.14.18.99.99 0 0 1-.23.13 2.26 2.26 0 0 1-.47.12l-.45.1a1.58 1.58 0 0 0-.59.26c-.35.27-.52.59-.52.97a1.19 1.19 0 0 0 .49.99c.12.08.27.14.45.18a2.18 2.18 0 0 0 .66.1c.49 0 .95-.11 1.4-.31zm3.7 0-.12-.63a2.6 2.6 0 0 1-1.36.36c-.55 0-.83-.2-.83-.6 0-.09.02-.17.06-.24a.68.68 0 0 1 .13-.17.73.73 0 0 1 .22-.11 4.94 4.94 0 0 1 .57-.15c.28-.05.49-.11.64-.17.15-.05.3-.16.48-.31l.05-.06a2.83 2.83 0 0 0 .2-.3.94.94 0 0 0 .1-.25l.03-.28c0-.45-.16-.8-.46-1.04-.28-.2-.66-.3-1.13-.3-.51 0-1.05.14-1.62.42l.12.65a2.7 2.7 0 0 1 1.5-.47c.6 0 .9.22.9.67 0 .1-.02.18-.06.26a.78.78 0 0 1-.16.18.99.99 0 0 1-.22.13 2.18 2.18 0 0 1-.47.12l-.45.1a1.6 1.6 0 0 0-.6.26 1.2 1.2 0 0 0-.51.97c0 .24.05.44.15.61.1.17.2.3.34.38.12.08.27.14.45.18a2.18 2.18 0 0 0 .66.1c.49 0 .95-.11 1.4-.31zm1.96 2.42v-.86h-.86v.86zm-.06-2.28v-4.29h-.73v4.29zm2.32 2.41v-2.88c.46.38.98.58 1.55.58.44 0 .81-.23 1.12-.67.3-.44.44-.96.44-1.58a2.5 2.5 0 0 0-.53-1.6 1.6 1.6 0 0 0-1.26-.66c-.47 0-.9.18-1.3.55v-.44h-.75v6.7zm.02-3.46v-2.14c.23-.41.54-.62.94-.62.35 0 .68.14.97.41.29.27.43.7.43 1.26s-.13.98-.4 1.25c-.26.27-.57.4-.9.4a1.2 1.2 0 0 1-1.04-.56zm4.24 3.46h.72v-6.7h-.72zm5.52-4.59h-2.99c.01-.46.16-.86.43-1.16.28-.31.6-.47 1-.47.53 0 1.02.18 1.46.54l.06-.62c-.47-.34-.98-.5-1.54-.5-.58 0-1.07.21-1.48.66-.4.44-.6.98-.6 1.62 0 .63.19 1.16.57 1.6.38.45.83.67 1.37.67a1.5 1.5 0 0 0 1.33-.7c.26-.4.39-.94.39-1.64zm-2.94.54h2.39c-.06.4-.2.71-.42.91a1.04 1.04 0 0 1-1.51-.04 1.67 1.67 0 0 1-.46-.87zm6.54 1.5-.11-.63c-.41.24-.87.36-1.37.36-.55 0-.82-.2-.82-.6a.54.54 0 0 1 .19-.41.64.64 0 0 1 .21-.11 4.16 4.16 0 0 1 .57-.15c.27-.05.49-.11.64-.17.15-.05.3-.16.48-.31l.05-.06a1.62 1.62 0 0 0 .2-.3c.04-.07.07-.15.1-.25l.03-.28c0-.45-.16-.8-.47-1.04-.28-.2-.65-.3-1.12-.3-.51 0-1.05.14-1.62.42l.11.65a2.7 2.7 0 0 1 1.5-.47c.6 0 .91.22.91.67 0 .1-.02.18-.07.26a.75.75 0 0 1-.15.18.7.7 0 0 1-.23.13l-.23.07-.23.05-.45.1a1.55 1.55 0 0 0-.59.26c-.35.27-.52.59-.52.97a1.17 1.17 0 0 0 .49.99c.12.08.27.14.45.18a2.25 2.25 0 0 0 .66.1c.48 0 .95-.11 1.4-.31zm5.85.94-1.44 1.61h.75l1.28-1.61zm1.71-2.3v-2.79h-.73v.34a2.6 2.6 0 0 0-1.6-.45c-.37 0-.65.13-.83.4-.18.25-.27.52-.27.8 0 .4.25.72.76.93.5.22 1.14.33 1.91.34v.42c0 .34-.08.61-.24.8-.16.2-.36.3-.6.3-.52 0-1-.16-1.46-.48l-.06.64a3 3 0 0 0 1.52.41c.45 0 .83-.15 1.14-.46.3-.32.46-.72.46-1.2zm-.76-1.52v.6c-1.32-.06-1.98-.31-1.98-.76 0-.2.09-.35.27-.46.17-.11.39-.17.63-.17.3 0 .55.06.76.18.21.13.32.33.32.61zm8.72 2.77-.11-.63c-.26.16-.49.28-.68.34-.2.06-.42.08-.69.08a1.2 1.2 0 0 1-.8-.27 1.37 1.37 0 0 1-.45-.63 2.3 2.3 0 0 1-.13-.78c0-.47.12-.86.37-1.18.25-.3.57-.46.97-.46.57 0 1.07.17 1.51.52l.06-.65c-.48-.32-1-.49-1.57-.49-.6 0-1.1.22-1.5.67-.4.44-.59.97-.59 1.59 0 .6.2 1.14.58 1.6.4.47.9.7 1.54.7a2.78 2.78 0 0 0 1.49-.41zm4.53-1.16v-2.88h-.75v3.04c0 .06-.03.14-.06.25a.8.8 0 0 1-.15.26.75.75 0 0 1-.28.18c-.12.05-.27.08-.45.08a.78.78 0 0 1-.74-.44 2.08 2.08 0 0 1-.23-1v-2.37h-.76v6.7h.73v-3c.36.46.81.7 1.37.7.88 0 1.32-.51 1.32-1.52zm4.65-.09v-2.79h-.72v.34a2.6 2.6 0 0 0-1.6-.45c-.38 0-.66.13-.84.4a1.4 1.4 0 0 0-.27.8c0 .4.25.72.76.93a5 5 0 0 0 1.92.34v.42c0 .34-.08.61-.24.8-.17.2-.37.3-.6.3-.52 0-1.01-.16-1.46-.48l-.06.64a3 3 0 0 0 1.52.41c.45 0 .83-.15 1.13-.46.31-.32.46-.72.46-1.2zm-.76-1.52v.6c-1.31-.06-1.97-.31-1.97-.76 0-.2.08-.35.26-.46.18-.11.4-.17.64-.17.3 0 .55.06.75.18.22.13.33.33.33.61zm5.75 3.13v-6.27h-.76v2.35a2.12 2.12 0 0 0-1.45-.59c-.46 0-.85.22-1.16.66-.32.44-.48.97-.48 1.58 0 .65.18 1.19.53 1.62.36.43.78.65 1.27.65.23 0 .45-.06.66-.15a1.72 1.72 0 0 0 .66-.51v.66zm-.72-3.05v1.35c0 .24-.1.48-.26.72a.83.83 0 0 1-.71.35c-.37 0-.7-.15-.98-.46-.28-.3-.42-.7-.42-1.18 0-.45.12-.84.38-1.16.25-.32.56-.49.93-.49.4 0 .72.18.96.55.06.09.1.2.1.32zm5.72 2.94v-4.29h-.72v.46a2.44 2.44 0 0 0-1.67-.57c-.38 0-.65.1-.8.3-.15.2-.23.48-.23.86v3.24h.76v-3.2c0-.24.04-.41.14-.51.1-.1.3-.15.61-.15.33 0 .6.09.83.27.22.18.33.45.33.79v2.8zm4.79-2.18h-2.98c.01-.46.16-.86.43-1.16.27-.31.6-.47 1-.47.53 0 1.02.18 1.46.54l.06-.62c-.47-.34-.98-.5-1.54-.5-.58 0-1.07.21-1.48.66-.4.44-.6.98-.6 1.62 0 .63.18 1.16.56 1.6.38.45.84.67 1.38.67a1.5 1.5 0 0 0 1.33-.7c.26-.4.38-.94.38-1.64zm-2.93.54h2.38c-.06.4-.2.71-.41.91-.22.2-.47.3-.75.3s-.54-.11-.76-.34a1.67 1.67 0 0 1-.46-.87zm8.14 1.08v-3.73h-.72v3.73h-.72v.56h.72v.87c0 .47.15.87.45 1.18.31.31.7.47 1.15.47.23 0 .5-.04.77-.1v-.65a1.94 1.94 0 0 1-1.03.14 1.14 1.14 0 0 1-.28-.1.6.6 0 0 1-.27-.24.83.83 0 0 1-.1-.42v-1.15h1.1v-.56zm5.79-1.6a2.2 2.2 0 0 0-.63-1.6 2.02 2.02 0 0 0-1.5-.64 2 2 0 0 0-1.48.65c-.42.43-.63.95-.63 1.59 0 .63.2 1.18.61 1.64a2 2 0 0 0 3.01 0c.4-.45.62-1 .62-1.64zm-2.13-1.62c.38 0 .7.15.97.45.27.3.4.72.4 1.26 0 .53-.13.94-.4 1.22a1.3 1.3 0 0 1-1.92 0c-.27-.27-.4-.68-.4-1.22 0-.55.13-.97.4-1.27.27-.3.58-.44.96-.44zm4 6.06v-.86h-.86v.86zm-.06-2.28v-4.29h-.73v4.29zm4.11-.14-.12-.63c-.4.24-.87.36-1.37.36-.55 0-.82-.2-.82-.6 0-.09.02-.17.06-.24a.68.68 0 0 1 .13-.17.65.65 0 0 1 .22-.11 4.65 4.65 0 0 1 .57-.15c.27-.05.48-.11.63-.17.15-.05.31-.16.48-.31l.05-.06.1-.12.1-.18a1.25 1.25 0 0 0 .13-.54c0-.44-.15-.8-.46-1.03-.28-.2-.65-.3-1.12-.3-.52 0-1.06.14-1.62.42l.11.65a2.7 2.7 0 0 1 1.5-.47c.6 0 .9.22.9.67 0 .1-.01.18-.06.26a.67.67 0 0 1-.15.18.7.7 0 0 1-.23.13 1.89 1.89 0 0 1-.46.12l-.45.1a1.5 1.5 0 0 0-.6.26c-.34.27-.52.59-.52.97a1.19 1.19 0 0 0 .49.99 2.27 2.27 0 0 0 1.12.28c.48 0 .94-.11 1.39-.31zm1.32-3.35h.8v-.8h-.8z"/>
      <path fill="#fff" d="M150.42 117.06V99.45a2.27 2.27 0 0 1 2.27-2.28h85.81a2.27 2.27 0 0 1 2.27 2.28v17.61a2.27 2.27 0 0 1-2.27 2.28h-85.8a2.27 2.27 0 0 1-2.28-2.28z"/>
      <path fill="none" stroke="#000" stroke-linecap="round" stroke-linejoin="round" stroke-miterlimit="10" stroke-width=".57" d="M150.7 116.78V99.17a2.27 2.27 0 0 1 2.27-2.28h85.82a2.27 2.27 0 0 1 2.27 2.28v17.6a2.27 2.27 0 0 1-2.27 2.28h-85.82a2.27 2.27 0 0 1-2.27-2.27z"/>
      <path fill="#006e92" d="m163.33 104.74 1.92-.6a4.34 4.34 0 0 0-1.46-2.38 4.16 4.16 0 0 0-2.6-.78 4.2 4.2 0 0 0-3.2 1.34 5.1 5.1 0 0 0-1.24 3.63c0 1.63.41 2.89 1.25 3.78a4.3 4.3 0 0 0 3.3 1.35c1.2 0 2.18-.35 2.93-1.05.44-.42.77-1.02 1-1.8l-1.96-.47a2.1 2.1 0 0 1-.72 1.2 2 2 0 0 1-1.33.44 2.2 2.2 0 0 1-1.76-.78c-.45-.52-.68-1.36-.68-2.52 0-1.24.22-2.12.67-2.64a2.17 2.17 0 0 1 1.73-.79 2 2 0 0 1 1.35.5c.38.34.65.86.8 1.57zm3.17.06c0 .62.15 1.22.46 1.8.3.58.74 1.02 1.3 1.33.56.3 1.19.46 1.88.46a3.53 3.53 0 0 0 3.66-3.67c0-1.08-.35-1.96-1.04-2.67a3.52 3.52 0 0 0-2.61-1.06 4.2 4.2 0 0 0-1.86.44c-.58.3-1.03.73-1.33 1.3-.3.56-.46 1.25-.46 2.07zm1.92-.11c0-.7.17-1.23.5-1.61a1.6 1.6 0 0 1 1.23-.56c.48 0 .9.19 1.23.56.32.38.49.92.49 1.63 0 .69-.17 1.22-.5 1.6a1.63 1.63 0 0 1-2.46-.01c-.32-.37-.5-.9-.5-1.61zm6.7 3.54h1.73v-.97a2.76 2.76 0 0 0 2.2 1.13c.45 0 .85-.1 1.18-.28.33-.19.6-.47.82-.85.3.38.65.66 1 .85.36.19.75.28 1.16.28.52 0 .95-.11 1.31-.32.36-.21.63-.52.8-.93.13-.3.2-.8.2-1.47v-4.52h-1.87v4.04c0 .7-.06 1.16-.19 1.36-.18.27-.44.4-.8.4a1.3 1.3 0 0 1-1.24-.94c-.1-.3-.15-.8-.15-1.46v-3.4h-1.88v3.88c0 .7-.03 1.13-.1 1.33a.82.82 0 0 1-.3.45 1 1 0 0 1-.58.14 1.4 1.4 0 0 1-.77-.23c-.23-.15-.4-.38-.5-.67-.1-.3-.15-.78-.15-1.46v-3.44h-1.86zm12.13 0h1.72v-.97a2.77 2.77 0 0 0 2.2 1.13c.46 0 .86-.1 1.19-.28.33-.19.6-.47.81-.85.32.38.65.66 1.01.85.36.19.75.28 1.15.28.52 0 .96-.11 1.32-.32.36-.21.62-.52.8-.93.13-.3.2-.8.2-1.47v-4.52h-1.87v4.04c0 .7-.07 1.16-.19 1.36a.9.9 0 0 1-.8.4 1.32 1.32 0 0 1-1.25-.94 5.3 5.3 0 0 1-.15-1.46v-3.4h-1.87v3.88c0 .7-.03 1.13-.1 1.33a.8.8 0 0 1-.31.45 1 1 0 0 1-.57.14c-.29 0-.54-.08-.77-.23-.24-.15-.4-.38-.5-.67-.1-.3-.15-.78-.15-1.46v-3.44h-1.87zm16.36-4.82 1.87-.32a3.09 3.09 0 0 0-1.14-1.56 3.35 3.35 0 0 0-1.94-.54c-1.24 0-2.14.4-2.73 1.2-.47.66-.7 1.47-.7 2.44 0 1.18.3 2.1.92 2.76a3 3 0 0 0 2.32 1c1.05 0 1.88-.35 2.49-1.04.6-.7.9-1.77.87-3.2h-4.68c0-.55.16-.98.45-1.3.3-.3.65-.45 1.07-.45.3 0 .55.08.74.24.2.16.36.41.46.77zm.11 1.9c-.02.53-.16.94-.43 1.22-.26.28-.59.42-.97.42-.4 0-.74-.15-1-.44-.27-.3-.4-.7-.4-1.2zm9.82-4.16h-1.88v3.62c0 .76-.04 1.26-.12 1.47-.08.23-.2.4-.4.53-.17.12-.39.18-.63.18a1.48 1.48 0 0 1-1.4-.97c-.1-.3-.15-.83-.15-1.62v-3.2h-1.87v7.07h1.74v-1.04c.62.8 1.39 1.2 2.32 1.2.42 0 .8-.08 1.14-.22.34-.16.6-.35.77-.58.18-.23.3-.5.37-.78.07-.3.1-.72.1-1.26zm8.06 4.99-1.85-.33c-.06.36-.2.64-.42.83-.22.18-.51.28-.86.28-.47 0-.84-.16-1.11-.49-.28-.32-.42-.86-.42-1.61 0-.84.15-1.43.43-1.78.28-.35.65-.52 1.13-.52.35 0 .65.1.87.3.23.2.4.55.48 1.05l1.83-.32a3.23 3.23 0 0 0-1.1-1.9 3.38 3.38 0 0 0-2.17-.66c-1.03 0-1.85.33-2.47.99a3.79 3.79 0 0 0-.92 2.7c0 1.17.3 2.08.92 2.74a3.3 3.3 0 0 0 2.5.97 3.4 3.4 0 0 0 2.06-.56c.5-.37.87-.93 1.1-1.7zm5.5-2.73 1.88-.32a3.08 3.08 0 0 0-1.14-1.56 3.37 3.37 0 0 0-1.94-.54c-1.24 0-2.14.4-2.73 1.2-.47.66-.7 1.47-.7 2.44 0 1.18.3 2.1.92 2.76.61.67 1.39 1 2.33 1 1.05 0 1.88-.35 2.48-1.04.6-.7.9-1.77.88-3.2h-4.69c.01-.55.16-.98.45-1.3.29-.3.65-.45 1.08-.45.3 0 .54.08.74.24.2.16.34.41.45.77zm.12 1.9c-.02.53-.16.94-.43 1.22-.26.28-.58.42-.96.42a1.3 1.3 0 0 1-1.01-.44c-.27-.3-.4-.7-.4-1.2zm5.17-4.16h-1.87v7.08h1.74v-1.01c.3.48.56.8.8.95.24.14.51.22.82.22.42 0 .83-.12 1.22-.36l-.58-1.63c-.31.2-.6.3-.88.3-.26 0-.48-.06-.66-.2-.19-.15-.33-.41-.44-.8-.1-.37-.15-1.16-.15-2.37z"/>
    </g>
  </g>
</svg>
