<?xml version="1.0" encoding="UTF-8" standalone="no"?>
<!-- Created with Inkscape (http://www.inkscape.org/) -->

<svg
   xmlns:dc="http://purl.org/dc/elements/1.1/"
   xmlns:cc="http://creativecommons.org/ns#"
   xmlns:rdf="http://www.w3.org/1999/02/22-rdf-syntax-ns#"
   xmlns:svg="http://www.w3.org/2000/svg"
   xmlns="http://www.w3.org/2000/svg"
   xmlns:sodipodi="http://sodipodi.sourceforge.net/DTD/sodipodi-0.dtd"
   xmlns:inkscape="http://www.inkscape.org/namespaces/inkscape"
   version="1.1"
   id="svg2"
   xml:space="preserve"
   width="328.82315"
   height="275.04623"
   viewBox="0 0 328.82315 275.04623"
   sodipodi:docname="image_22.svg"
   inkscape:version="0.92.4 (5da689c313, 2019-01-14)"><metadata
     id="metadata8"><rdf:RDF><cc:Work
         rdf:about=""><dc:format>image/svg+xml</dc:format><dc:type
           rdf:resource="http://purl.org/dc/dcmitype/StillImage" /><dc:title></dc:title></cc:Work></rdf:RDF></metadata><defs
     id="defs6"><clipPath
       clipPathUnits="userSpaceOnUse"
       id="clipPath106"><path
         d="M -16323,-16323 H 16323 V 16323 H -16323 Z M 0,0 V 206.28468 H 246.61736 V 0 Z"
         id="path104"
         inkscape:connector-curvature="0" /></clipPath><clipPath
       clipPathUnits="userSpaceOnUse"
       id="clipPath148"><path
         d="M 0,0 H 388.346 V 54.992 H 0 Z"
         id="path146"
         inkscape:connector-curvature="0" /></clipPath><clipPath
       clipPathUnits="userSpaceOnUse"
       id="clipPath156"><path
         d="M 0,0 H 388.34647 V 54.992126 H 0 Z"
         id="path154"
         inkscape:connector-curvature="0" /></clipPath><clipPath
       clipPathUnits="userSpaceOnUse"
       id="clipPath184"><path
         d="M 0,0 H 397.734 V 271.124 H 0 Z"
         id="path182"
         inkscape:connector-curvature="0" /></clipPath><clipPath
       clipPathUnits="userSpaceOnUse"
       id="clipPath192"><path
         d="M 0,0 H 397.73465 V 271.12463 H 0 Z"
         id="path190"
         inkscape:connector-curvature="0" /></clipPath></defs><sodipodi:namedview
     pagecolor="#ffffff"
     bordercolor="#666666"
     borderopacity="1"
     objecttolerance="10"
     gridtolerance="10"
     guidetolerance="10"
     inkscape:pageopacity="0"
     inkscape:pageshadow="2"
     inkscape:window-width="1496"
     inkscape:window-height="913"
     id="namedview4"
     showgrid="false"
     fit-margin-top="0"
     fit-margin-left="0"
     fit-margin-right="0"
     fit-margin-bottom="0"
     inkscape:zoom="0.21024124"
     inkscape:cx="-11.338646"
     inkscape:cy="-216.29599"
     inkscape:window-x="0"
     inkscape:window-y="0"
     inkscape:window-maximized="0"
     inkscape:current-layer="g10" /><g
     id="g10"
     inkscape:groupmode="layer"
     inkscape:label="main2"
     transform="matrix(1.3333333,0,0,-1.3333333,-408.18932,1052.6022)"><g
       id="g12"
       transform="translate(42.52,686.308)"><g
         id="g14"><g
           id="g16" /><g
           id="g18"><g
             id="g20"
             transform="translate(0,-13.549)"><g
               id="g22" /><g
               id="g24"
               transform="translate(0,13.549)" /></g><g
             id="g26"><g
               id="g28"><g
                 id="g30" /><g
                 id="g32"
                 transform="translate(123.307)"><g
                   id="g34" /><g
                   id="g36"
                   transform="translate(-123.307)" /></g></g><g
               id="g38"><g
                 id="g40" /><g
                 id="g42"
                 transform="translate(123.307)"><g
                   id="g44" /><g
                   id="g46"
                   transform="translate(-123.307)" /></g></g></g><g
             id="g48"><g
               id="g50"><g
                 id="g52" /></g></g></g></g><g
         id="g54"
         transform="translate(263.622,-103.141)"><g
           id="g56"><g
             id="g58" /><g
             id="g60"><g
               id="g62"
               transform="translate(0,192.733)"><g
                 id="g64" /><g
                 id="g66"
                 transform="translate(0,-192.733)" /></g><g
               id="g68"><g
                 id="g70"><g
                   id="g72" /><g
                   id="g74"
                   transform="translate(123.307,103.141)"><g
                     id="g76" /><g
                     id="g78"
                     transform="translate(-123.307,-103.141)" /></g></g><g
                 id="g80"><g
                   id="g82" /><g
                   id="g84"
                   transform="translate(123.307,103.141)"><g
                     id="g86" /><g
                     id="g88"
                     transform="translate(-123.307,-103.141)" /></g></g><g
                 id="g90"><g
                   id="g92" /><g
                   id="g94"
                   transform="translate(123.307,169.413)"><g
                     id="g96" /><g
                     id="g98"
                     transform="translate(-123.307,-169.413)" /></g></g></g><g
               id="g100"><g
                 id="g102"
                 clip-path="url(#clipPath106)" /></g><g
               id="g108"><path
                 d="M 0,0 V 206.28468 H 246.61736 V 0 Z M 0.59776,0.59776 V 205.6869 H 246.01958 V 0.59776 Z"
                 style="fill:#d3d3d3;fill-opacity:1;fill-rule:evenodd;stroke:none"
                 id="path110"
                 inkscape:connector-curvature="0" /></g><g
               id="g112"><path
                 d="m 0.59776,169.41544 v 36.27145 h 245.4218 v -36.27145 z"
                 style="fill:#ededed;fill-opacity:1;fill-rule:nonzero;stroke:none"
                 id="path114"
                 inkscape:connector-curvature="0" /></g><g
               id="g116"><path
                 d="M 0.59776,0.59776 V 169.6989 h 245.4218 V 0.59776 Z"
                 style="fill:#ffffff;fill-opacity:1;fill-rule:nonzero;stroke:none"
                 id="path118"
                 inkscape:connector-curvature="0" /></g><g
               id="g120"><path
                 d="m 0.59776,170.93385 v -3.03683 h 245.4218 v 3.03683 z"
                 style="fill:#f8f8f8;fill-opacity:1;fill-rule:nonzero;stroke:none"
                 id="path122"
                 inkscape:connector-curvature="0" /></g><g
               id="g124"><path
                 d="m 0.59776,170.63496 h 245.4218"
                 style="fill:none;stroke:#dcdcdc;stroke-width:0.59776002;stroke-linecap:butt;stroke-linejoin:miter;stroke-miterlimit:10;stroke-dasharray:none;stroke-opacity:1"
                 id="path126"
                 inkscape:connector-curvature="0" /></g><g
               id="g128"><path
                 d="m 0.59776,168.19589 h 245.4218"
                 style="fill:none;stroke:#dcdcdc;stroke-width:0.59776002;stroke-linecap:butt;stroke-linejoin:miter;stroke-miterlimit:10;stroke-dasharray:none;stroke-opacity:1"
                 id="path130"
                 inkscape:connector-curvature="0" /></g><g
               id="g132"><g
                 id="g134"
                 transform="translate(0.598,170.932)"><g
                   id="g136"><g
                     id="g138"
                     transform="scale(0.63196)"><g
                       id="g140"><g
                         id="g142"><g
                           id="g144"
                           clip-path="url(#clipPath148)"><g
                             id="g150"><g
                               id="g152" /><g
                               id="g164"><g
                                 clip-path="url(#clipPath156)"
                                 id="g162"><g
                                   transform="matrix(1,0,0,-1,0,54.992126)"
                                   id="g160"><g
                                   id="g158" /></g></g></g></g></g></g></g></g></g><g
                   id="g166"
                   transform="translate(-0.598,-170.932)" /></g></g><g
               id="g168"><g
                 id="g170"
                 transform="translate(0.598,0.598)"><g
                   id="g172"><g
                     id="g174"
                     transform="scale(0.61705)"><g
                       id="g176"><g
                         id="g178"><g
                           id="g180"
                           clip-path="url(#clipPath184)"><g
                             id="g186"><g
                               id="g188" /><g
                               id="g244"><g
                                 clip-path="url(#clipPath192)"
                                 id="g242"><g
                                   transform="matrix(1,0,0,-1,0,271.12463)"
                                   id="g240"><g
                                   id="g238"><path
                                   d="m 343.973,19 2.144,0.531 c -0.453,1.774 -1.262,3.125 -2.429,4.055 -1.172,0.926 -2.61,1.391 -4.313,1.391 -1.75,0 -3.172,-0.356 -4.27,-1.071 -1.089,-0.718 -1.925,-1.754 -2.5,-3.105 -0.574,-1.356 -0.863,-2.809 -0.863,-4.356 0,-1.691 0.324,-3.168 0.965,-4.429 0.645,-1.258 1.566,-2.215 2.762,-2.871 1.195,-0.657 2.508,-0.989 3.937,-0.989 1.637,0 3.008,0.414 4.114,1.242 1.105,0.829 1.875,1.997 2.316,3.497 l -2.113,0.496 c -0.379,-1.18 -0.926,-2.043 -1.645,-2.578 -0.715,-0.54 -1.613,-0.809 -2.703,-0.809 -1.258,0 -2.305,0.297 -3.148,0.894 -0.84,0.598 -1.426,1.403 -1.758,2.415 -0.34,1.011 -0.512,2.046 -0.512,3.113 0,1.383 0.199,2.594 0.602,3.629 0.41,1.035 1.039,1.804 1.886,2.316 0.856,0.508 1.77,0.762 2.746,0.762 1.211,0 2.239,-0.348 3.079,-1.047 0.839,-0.699 1.406,-1.727 1.703,-3.086 z m 3.804,-0.195 c 0,-2.176 0.602,-3.793 1.805,-4.844 1.016,-0.875 2.25,-1.313 3.703,-1.313 1.625,0 2.949,0.532 3.973,1.594 1.023,1.067 1.535,2.531 1.535,4.403 0,1.511 -0.23,2.707 -0.684,3.574 -0.445,0.871 -1.105,1.543 -1.976,2.023 -0.871,0.477 -1.82,0.719 -2.848,0.719 -1.652,0 -2.984,-0.531 -4,-1.59 -1.004,-1.058 -1.508,-2.582 -1.508,-4.566 z m 2.032,0 c 0,1.511 0.328,2.64 0.988,3.386 0.66,0.747 1.488,1.118 2.488,1.118 0.996,0 1.824,-0.375 2.473,-1.125 0.66,-0.75 0.988,-1.903 0.988,-3.45 0,-1.457 -0.328,-2.558 -0.988,-3.312 -0.664,-0.75 -1.488,-1.125 -2.473,-1.125 -1,0 -1.828,0.375 -2.488,1.125 -0.66,0.754 -0.988,1.879 -0.988,3.383 z M 361.141,10.73 V 8.441 h 2.011 v 2.289 z m 0,13.965 V 12.914 h 2.011 v 11.781 z m 5.031,0 V 12.914 h 1.816 v 1.684 c 0.864,-1.301 2.11,-1.95 3.739,-1.95 0.711,0 1.363,0.125 1.961,0.379 0.601,0.254 1.046,0.59 1.339,1.004 0.297,0.414 0.504,0.903 0.625,1.473 0.071,0.379 0.102,1.027 0.102,1.953 v 7.238 h -2.008 v -7.168 c 0,-0.816 -0.074,-1.425 -0.226,-1.828 -0.153,-0.402 -0.43,-0.722 -0.829,-0.961 -0.394,-0.234 -0.855,-0.351 -1.386,-0.351 -0.856,0 -1.59,0.269 -2.203,0.804 -0.614,0.539 -0.918,1.559 -0.918,3.063 v 6.441 z m 12.105,-4.293 1.989,-0.269 c 0.234,1.137 0.625,1.953 1.179,2.449 0.543,0.496 1.215,0.746 2.008,0.746 0.934,0 1.719,-0.324 2.363,-0.976 0.653,-0.649 0.977,-1.454 0.977,-2.414 0,-0.922 -0.301,-1.68 -0.898,-2.27 -0.598,-0.59 -1.36,-0.887 -2.282,-0.887 -0.379,0 -0.843,0.071 -1.394,0.215 l 0.203,-1.758 c 0.129,0.024 0.234,0.035 0.316,0.035 0.856,0 1.625,-0.222 2.305,-0.668 0.684,-0.441 1.023,-1.125 1.023,-2.046 0,-0.735 -0.25,-1.344 -0.75,-1.829 -0.5,-0.484 -1.14,-0.726 -1.918,-0.726 -0.765,0 -1.41,0.246 -1.929,0.734 -0.524,0.492 -0.856,1.223 -1,2.192 l -2,-0.356 c 0.25,-1.336 0.808,-2.371 1.672,-3.101 0.859,-0.735 1.937,-1.102 3.222,-1.102 0.887,0 1.703,0.188 2.453,0.567 0.743,0.378 1.309,0.898 1.704,1.562 0.402,0.664 0.601,1.359 0.601,2.094 0,0.699 -0.187,1.336 -0.566,1.914 -0.379,0.582 -0.938,1.043 -1.672,1.387 0.965,0.21 1.707,0.671 2.238,1.375 0.531,0.703 0.797,1.574 0.797,2.617 0,1.418 -0.52,2.621 -1.559,3.609 -1.027,0.988 -2.336,1.481 -3.925,1.481 -1.434,0 -2.618,-0.426 -3.555,-1.278 -0.941,-0.851 -1.473,-1.949 -1.602,-3.297 z"
                                   style="fill:#006699;fill-opacity:1;fill-rule:nonzero;stroke:none"
                                   id="path194"
                                   inkscape:connector-curvature="0" /><path
                                   d="m 344.145,256.762 2.144,0.535 c -0.453,1.777 -1.266,3.129 -2.43,4.055 -1.171,0.929 -2.613,1.394 -4.316,1.394 -1.746,0 -3.172,-0.359 -4.27,-1.078 -1.089,-0.711 -1.921,-1.742 -2.496,-3.098 -0.578,-1.355 -0.863,-2.808 -0.863,-4.363 0,-1.687 0.32,-3.16 0.965,-4.414 0.644,-1.266 1.562,-2.227 2.758,-2.887 1.199,-0.648 2.511,-0.976 3.941,-0.976 1.637,0 3.004,0.414 4.11,1.238 1.105,0.824 1.878,1.992 2.316,3.496 l -2.109,0.5 c -0.379,-1.187 -0.93,-2.051 -1.649,-2.586 -0.711,-0.539 -1.613,-0.808 -2.703,-0.808 -1.254,0 -2.305,0.3 -3.145,0.898 -0.839,0.598 -1.425,1.402 -1.757,2.418 -0.344,1.008 -0.512,2.043 -0.512,3.109 0,1.387 0.199,2.594 0.601,3.625 0.407,1.035 1.036,1.809 1.883,2.317 0.856,0.508 1.774,0.761 2.75,0.761 1.211,0 2.235,-0.351 3.078,-1.046 0.84,-0.696 1.407,-1.727 1.704,-3.09 z m 3.8,-0.192 c 0,-2.172 0.602,-3.785 1.809,-4.836 1.012,-0.879 2.246,-1.32 3.699,-1.32 1.629,0 2.953,0.535 3.977,1.602 1.019,1.062 1.531,2.527 1.531,4.394 0,1.516 -0.227,2.707 -0.68,3.578 -0.449,0.871 -1.105,1.543 -1.976,2.02 -0.871,0.48 -1.821,0.719 -2.852,0.719 -1.648,0 -2.98,-0.528 -3.996,-1.579 -1.008,-1.062 -1.512,-2.585 -1.512,-4.578 z m 2.035,0 c 0,1.516 0.329,2.645 0.989,3.395 0.656,0.742 1.484,1.113 2.484,1.113 1,0 1.824,-0.375 2.477,-1.125 0.66,-0.75 0.988,-1.898 0.988,-3.449 0,-1.453 -0.328,-2.555 -0.988,-3.305 -0.668,-0.758 -1.492,-1.136 -2.477,-1.136 -1,0 -1.828,0.378 -2.484,1.136 -0.66,0.75 -0.989,1.871 -0.989,3.371 z m 11.333,-8.074 v -2.281 h 2.007 v 2.281 z m 0,13.969 v -11.789 h 2.007 v 11.789 z m 5.031,0 v -11.789 h 1.816 v 1.691 c 0.863,-1.301 2.106,-1.953 3.735,-1.953 0.71,0 1.367,0.129 1.964,0.387 0.598,0.25 1.043,0.586 1.34,1 0.297,0.418 0.504,0.91 0.625,1.476 0.067,0.379 0.102,1.028 0.102,1.942 v 7.246 h -2.008 v -7.168 c 0,-0.817 -0.078,-1.426 -0.23,-1.828 -0.149,-0.399 -0.426,-0.723 -0.829,-0.965 -0.394,-0.234 -0.855,-0.352 -1.382,-0.352 -0.856,0 -1.59,0.27 -2.204,0.809 -0.613,0.535 -0.921,1.559 -0.921,3.062 v 6.442 z m 22.574,-1.922 v 1.922 h -10.742 c -0.008,-0.485 0.07,-0.949 0.238,-1.387 0.266,-0.734 0.699,-1.453 1.305,-2.156 0.605,-0.711 1.476,-1.539 2.613,-2.477 1.77,-1.437 2.965,-2.582 3.586,-3.429 0.621,-0.848 0.934,-1.649 0.934,-2.407 0,-0.789 -0.286,-1.453 -0.852,-2 -0.57,-0.543 -1.309,-0.816 -2.215,-0.816 -0.961,0 -1.73,0.289 -2.305,0.863 -0.585,0.582 -0.875,1.383 -0.875,2.395 l -2.054,-0.203 c 0.14,-1.532 0.672,-2.696 1.59,-3.496 0.914,-0.813 2.148,-1.215 3.699,-1.215 1.547,0 2.773,0.433 3.691,1.304 0.91,0.864 1.364,1.93 1.364,3.204 0,0.648 -0.133,1.293 -0.399,1.929 -0.266,0.629 -0.707,1.289 -1.328,1.989 -0.613,0.687 -1.637,1.64 -3.066,2.859 -1.204,1.008 -1.977,1.687 -2.317,2.043 -0.332,0.355 -0.613,0.715 -0.84,1.078 z"
                                   style="fill:#006699;fill-opacity:1;fill-rule:nonzero;stroke:none"
                                   id="path196"
                                   inkscape:connector-curvature="0" /><path
                                   d="m 21,256.762 2.145,0.535 c -0.45,1.777 -1.258,3.129 -2.43,4.055 -1.172,0.929 -2.61,1.394 -4.313,1.394 -1.75,0 -3.172,-0.359 -4.265,-1.078 -1.094,-0.711 -1.93,-1.742 -2.504,-3.098 -0.57,-1.355 -0.86,-2.808 -0.86,-4.363 0,-1.687 0.325,-3.16 0.969,-4.414 0.645,-1.266 1.563,-2.227 2.758,-2.887 1.195,-0.648 2.508,-0.976 3.938,-0.976 1.632,0 3.003,0.414 4.109,1.238 1.105,0.824 1.875,1.992 2.312,3.496 l -2.109,0.5 c -0.379,-1.187 -0.926,-2.051 -1.641,-2.586 -0.714,-0.539 -1.617,-0.808 -2.707,-0.808 -1.254,0 -2.3,0.3 -3.14,0.898 -0.84,0.598 -1.426,1.402 -1.766,2.418 -0.336,1.008 -0.504,2.043 -0.504,3.109 0,1.387 0.199,2.594 0.602,3.625 0.402,1.035 1.031,1.809 1.883,2.317 0.851,0.508 1.765,0.761 2.75,0.761 1.207,0 2.23,-0.351 3.07,-1.046 0.84,-0.696 1.406,-1.727 1.703,-3.09 z m 3.801,-0.192 c 0,-2.172 0.605,-3.785 1.812,-4.836 1.016,-0.879 2.254,-1.32 3.707,-1.32 1.621,0 2.942,0.535 3.965,1.602 1.024,1.062 1.535,2.527 1.535,4.394 0,1.516 -0.226,2.707 -0.675,3.578 -0.45,0.871 -1.11,1.543 -1.977,2.02 -0.871,0.48 -1.82,0.719 -2.848,0.719 -1.656,0 -2.988,-0.528 -4,-1.579 -1.011,-1.062 -1.519,-2.585 -1.519,-4.578 z m 2.043,0 c 0,1.516 0.328,2.645 0.984,3.395 0.656,0.742 1.485,1.113 2.492,1.113 0.993,0 1.817,-0.375 2.473,-1.125 0.656,-0.75 0.984,-1.898 0.984,-3.449 0,-1.453 -0.328,-2.555 -0.992,-3.305 -0.66,-0.758 -1.484,-1.136 -2.465,-1.136 -1.007,0 -1.836,0.378 -2.492,1.136 -0.656,0.75 -0.984,1.871 -0.984,3.371 z m 11.336,-8.074 v -2.281 h 2.004 v 2.281 z m 0,13.969 v -11.789 h 2.004 v 11.789 z m 5.027,0 v -11.789 h 1.809 v 1.691 c 0.863,-1.301 2.109,-1.953 3.742,-1.953 0.711,0 1.363,0.129 1.961,0.387 0.597,0.25 1.043,0.586 1.34,1 0.296,0.418 0.504,0.91 0.621,1.476 0.07,0.379 0.105,1.028 0.105,1.942 v 7.246 h -2.004 v -7.168 c 0,-0.817 -0.078,-1.426 -0.23,-1.828 -0.153,-0.399 -0.43,-0.723 -0.824,-0.965 -0.399,-0.234 -0.86,-0.352 -1.395,-0.352 -0.852,0 -1.586,0.27 -2.199,0.809 -0.613,0.535 -0.922,1.559 -0.922,3.062 v 6.442 z m 19.602,0 h -2.004 v -12.719 c -0.473,0.461 -1.102,0.918 -1.883,1.375 -0.781,0.453 -1.484,0.797 -2.109,1.031 v -1.929 c 1.121,-0.524 2.101,-1.157 2.937,-1.907 0.832,-0.75 1.422,-1.476 1.762,-2.179 h 1.297 z"
                                   style="fill:#006699;fill-opacity:1;fill-rule:nonzero;stroke:none"
                                   id="path198"
                                   inkscape:connector-curvature="0" /><path
                                   d="m 21,19 2.145,0.531 c -0.45,1.774 -1.258,3.125 -2.43,4.055 -1.172,0.926 -2.61,1.391 -4.313,1.391 -1.75,0 -3.172,-0.356 -4.265,-1.071 -1.094,-0.718 -1.93,-1.754 -2.504,-3.105 -0.57,-1.356 -0.86,-2.809 -0.86,-4.356 0,-1.691 0.325,-3.168 0.969,-4.429 0.645,-1.258 1.563,-2.215 2.758,-2.871 1.195,-0.657 2.508,-0.989 3.938,-0.989 1.632,0 3.003,0.414 4.109,1.242 1.105,0.829 1.875,1.997 2.312,3.497 l -2.109,0.496 c -0.379,-1.18 -0.926,-2.043 -1.641,-2.578 -0.714,-0.54 -1.617,-0.809 -2.707,-0.809 -1.254,0 -2.3,0.297 -3.14,0.894 -0.84,0.598 -1.426,1.403 -1.766,2.415 -0.336,1.011 -0.504,2.046 -0.504,3.113 0,1.383 0.199,2.594 0.602,3.629 0.402,1.035 1.031,1.804 1.883,2.316 0.851,0.508 1.765,0.762 2.75,0.762 1.207,0 2.23,-0.348 3.07,-1.047 C 20.137,21.387 20.703,20.359 21,19 Z m 3.801,-0.195 c 0,-2.176 0.605,-3.793 1.812,-4.844 1.016,-0.875 2.254,-1.313 3.707,-1.313 1.621,0 2.942,0.532 3.965,1.594 1.024,1.067 1.535,2.531 1.535,4.403 0,1.511 -0.226,2.707 -0.675,3.574 -0.45,0.871 -1.11,1.543 -1.977,2.023 -0.871,0.477 -1.82,0.719 -2.848,0.719 -1.656,0 -2.988,-0.531 -4,-1.59 -1.011,-1.058 -1.519,-2.582 -1.519,-4.566 z m 2.043,0 c 0,1.511 0.328,2.64 0.984,3.386 0.656,0.747 1.485,1.118 2.492,1.118 0.993,0 1.817,-0.375 2.473,-1.125 0.656,-0.75 0.984,-1.903 0.984,-3.45 0,-1.457 -0.328,-2.558 -0.992,-3.312 -0.66,-0.75 -1.484,-1.125 -2.465,-1.125 -1.007,0 -1.836,0.375 -2.492,1.125 -0.656,0.754 -0.984,1.879 -0.984,3.383 z M 38.18,10.73 V 8.441 h 2.004 v 2.289 z m 0,13.965 V 12.914 h 2.004 v 11.781 z m 5.027,0 V 12.914 h 1.809 v 1.684 c 0.863,-1.301 2.109,-1.95 3.742,-1.95 0.711,0 1.363,0.125 1.961,0.379 0.597,0.254 1.043,0.59 1.34,1.004 0.296,0.414 0.504,0.903 0.621,1.473 0.07,0.379 0.105,1.027 0.105,1.953 v 7.238 h -2.004 v -7.168 c 0,-0.816 -0.078,-1.425 -0.23,-1.828 -0.153,-0.402 -0.43,-0.722 -0.824,-0.961 -0.399,-0.234 -0.86,-0.351 -1.395,-0.351 -0.852,0 -1.586,0.269 -2.199,0.804 -0.613,0.539 -0.922,1.559 -0.922,3.063 v 6.441 z m 18.484,0 V 20.809 H 54.629 V 18.965 L 62.047,8.441 h 1.633 v 10.524 h 2.199 v 1.844 H 63.68 v 3.886 z m 0,-5.73 v -7.328 l -5.093,7.328 z"
                                   style="fill:#006699;fill-opacity:1;fill-rule:nonzero;stroke:none"
                                   id="path200"
                                   inkscape:connector-curvature="0" /><g
                                   id="g204"><path
                                   d="M 3.844,3.855 H 393.891 V 267.296 H 3.844 Z"
                                   style="fill:none;stroke:#000000;stroke-width:1.41974998;stroke-linecap:round;stroke-linejoin:round;stroke-miterlimit:10;stroke-dasharray:4.25925, 4.25925;stroke-dashoffset:0;stroke-opacity:1"
                                   id="path202"
                                   inkscape:connector-curvature="0" /></g><g
                                   id="g208"><path
                                   d="M 391.055,6.695 396.73,1.016"
                                   style="fill:none;stroke:#006699;stroke-width:1.41939497;stroke-linecap:square;stroke-linejoin:miter;stroke-miterlimit:10;stroke-dasharray:none;stroke-opacity:1"
                                   id="path206"
                                   inkscape:connector-curvature="0" /></g><g
                                   id="g212"><path
                                   d="m 391.055,1.016 5.675,5.679"
                                   style="fill:none;stroke:#006699;stroke-width:1.41939497;stroke-linecap:square;stroke-linejoin:miter;stroke-miterlimit:10;stroke-dasharray:none;stroke-opacity:1"
                                   id="path210"
                                   inkscape:connector-curvature="0" /></g><g
                                   id="g216"><path
                                   d="m 391.055,264.457 5.675,5.676"
                                   style="fill:none;stroke:#006699;stroke-width:1.41939497;stroke-linecap:square;stroke-linejoin:miter;stroke-miterlimit:10;stroke-dasharray:none;stroke-opacity:1"
                                   id="path214"
                                   inkscape:connector-curvature="0" /></g><g
                                   id="g220"><path
                                   d="m 391.055,270.133 5.675,-5.676"
                                   style="fill:none;stroke:#006699;stroke-width:1.41939497;stroke-linecap:square;stroke-linejoin:miter;stroke-miterlimit:10;stroke-dasharray:none;stroke-opacity:1"
                                   id="path218"
                                   inkscape:connector-curvature="0" /></g><g
                                   id="g224"><path
                                   d="M 1.004,270.133 6.68,264.457"
                                   style="fill:none;stroke:#006699;stroke-width:1.41939497;stroke-linecap:square;stroke-linejoin:miter;stroke-miterlimit:10;stroke-dasharray:none;stroke-opacity:1"
                                   id="path222"
                                   inkscape:connector-curvature="0" /></g><g
                                   id="g228"><path
                                   d="m 1.004,264.457 5.676,5.676"
                                   style="fill:none;stroke:#006699;stroke-width:1.41939497;stroke-linecap:square;stroke-linejoin:miter;stroke-miterlimit:10;stroke-dasharray:none;stroke-opacity:1"
                                   id="path226"
                                   inkscape:connector-curvature="0" /></g><g
                                   id="g232"><path
                                   d="M 1.004,1.016 6.68,6.695"
                                   style="fill:none;stroke:#006699;stroke-width:1.41939497;stroke-linecap:square;stroke-linejoin:miter;stroke-miterlimit:10;stroke-dasharray:none;stroke-opacity:1"
                                   id="path230"
                                   inkscape:connector-curvature="0" /></g><g
                                   id="g236"><path
                                   d="M 1.004,6.695 6.68,1.016"
                                   style="fill:none;stroke:#006699;stroke-width:1.41939497;stroke-linecap:square;stroke-linejoin:miter;stroke-miterlimit:10;stroke-dasharray:none;stroke-opacity:1"
                                   id="path234"
                                   inkscape:connector-curvature="0" /></g></g></g></g></g></g></g></g></g></g></g><g
                   id="g246"
                   transform="translate(-0.598,-0.598)" /></g></g></g></g></g></g></g></svg>