<svg xmlns="http://www.w3.org/2000/svg" xmlns:xlink="http://www.w3.org/1999/xlink" xml:space="preserve" viewBox="0 0 328.82 282.25">
  <defs>
    <path id="a" d="M0 0h384v384H0Z"/>
    <path id="b" d="M0 0h387.78v56.7H0Z"/>
    <path id="c" d="M0 0h387.78v239.24H0Z"/>
  </defs>
  <defs>
    <clipPath id="d" clipPathUnits="userSpaceOnUse">
      <use xlink:href="#a"/>
    </clipPath>
    <clipPath id="e" clipPathUnits="userSpaceOnUse">
      <use xlink:href="#a"/>
    </clipPath>
    <clipPath id="f" clipPathUnits="userSpaceOnUse">
      <use xlink:href="#a"/>
    </clipPath>
    <clipPath id="g" clipPathUnits="userSpaceOnUse">
      <use xlink:href="#a"/>
    </clipPath>
    <clipPath id="h" clipPathUnits="userSpaceOnUse">
      <use xlink:href="#a"/>
    </clipPath>
    <clipPath id="i" clipPathUnits="userSpaceOnUse">
      <use xlink:href="#a"/>
    </clipPath>
    <clipPath id="j" clipPathUnits="userSpaceOnUse">
      <use xlink:href="#a"/>
    </clipPath>
    <clipPath id="k" clipPathUnits="userSpaceOnUse">
      <use xlink:href="#a"/>
    </clipPath>
    <clipPath id="l" clipPathUnits="userSpaceOnUse">
      <use xlink:href="#a"/>
    </clipPath>
    <clipPath id="m" clipPathUnits="userSpaceOnUse">
      <use xlink:href="#a"/>
    </clipPath>
    <clipPath id="n" clipPathUnits="userSpaceOnUse">
      <use xlink:href="#a"/>
    </clipPath>
    <clipPath id="o" clipPathUnits="userSpaceOnUse">
      <use xlink:href="#a"/>
    </clipPath>
    <clipPath id="p" clipPathUnits="userSpaceOnUse">
      <use xlink:href="#b"/>
    </clipPath>
    <clipPath id="q" clipPathUnits="userSpaceOnUse">
      <use xlink:href="#b"/>
    </clipPath>
    <clipPath id="r" clipPathUnits="userSpaceOnUse">
      <use xlink:href="#c"/>
    </clipPath>
    <clipPath id="s" clipPathUnits="userSpaceOnUse">
      <use xlink:href="#c"/>
    </clipPath>
  </defs>
  <path fill="#d3d3d3" fill-rule="evenodd" d="M0 282.25V0h328.82v282.25Zm.8-.8V.8h327.23v280.65Z"/>
  <path fill="#ededed" d="M.8 77.53V.8h327.23v76.73z"/>
  <path fill="#fff" d="M.8 281.45V77.15h327.23v204.3Z"/>
  <path fill="#f8f8f8" d="M.8 75.5v4.06h327.23V75.5z"/>
  <path fill="none" stroke="#dcdcdc" stroke-miterlimit="10" stroke-width=".8" d="M.8 75.9h327.23M.8 79.16h327.23"/>
  <path fill="#f8f8f8" d="M.8.8v26.86h327.23V.8z"/>
  <path fill="none" stroke="#dcdcdc" stroke-miterlimit="10" stroke-width=".8" d="M.8 28.06h327.23"/>
  <g clip-path="url(#d)" transform="matrix(.04224 0 0 -.04224 305.96 22.34)">
    <g clip-path="url(#e)" opacity=".5">
      <path fill="#999" d="M260.29 248.97V195.4l100.46 70.09-100.46 70.05v-53.27h-57.77c-113.55 0-179.27-18.96-179.27-116.93 0-97.95 65.72-116.9 179.27-116.9h130.03v33.1H202.52c-96.74 0-144 18.91-144 83.8 0 67.08 47.26 83.81 144 83.81h57.77z"/>
    </g>
  </g>
  <g clip-path="url(#f)" transform="matrix(.04224 0 0 -.04224 281.6 22.34)">
    <g clip-path="url(#g)" opacity=".5">
      <path fill="#999" d="M123.71 248.97V195.4L23.25 265.5l100.46 70.05v-53.27h57.77c113.55 0 179.27-18.96 179.27-116.93 0-97.95-65.72-116.9-179.27-116.9H51.45v33.1h130.03c96.74 0 144 18.91 144 83.8 0 67.08-47.26 83.81-144 83.81h-57.77z"/>
    </g>
  </g>
  <path fill="#fff" stroke="#6161ff" stroke-miterlimit="10" stroke-width="1.01" d="M21.58 4.1H6.38a2.53 2.53 0 0 0-2.54 2.53v15.2c0 1.4 1.13 2.54 2.53 2.54h15.2c1.4 0 2.54-1.14 2.54-2.54V6.63c0-1.4-1.13-2.54-2.53-2.54z"/>
  <g clip-path="url(#h)" transform="matrix(.04224 0 0 -.04224 5.87 22.34)">
    <g clip-path="url(#i)">
      <path fill="#fff" stroke="#000" stroke-miterlimit="10" stroke-width="9.75" d="m224.08 64.37 30.84 15.42-51.4 105.4 64.25 6.42L126.4 314.99l-2.57-194.07 47.55 48.84z"/>
    </g>
  </g>
  <path fill="#fff" stroke="#dcdcdc" stroke-miterlimit="10" stroke-width=".51" d="M45.15 4.1h-15.2a2.53 2.53 0 0 0-2.54 2.53v15.2c0 1.4 1.13 2.54 2.53 2.54h15.2c1.4 0 2.54-1.14 2.54-2.54V6.63c0-1.4-1.13-2.54-2.53-2.54z"/>
  <g clip-path="url(#j)" transform="matrix(.04224 0 0 -.04224 29.43 22.34)">
    <g clip-path="url(#k)">
      <path d="M282.13-9.99C244.52 135.93 137.09 259.82-12.6 329.91l4.14 8.84C143.87 267.4 253.23 141.19 291.57-7.55Z"/>
      <path fill="none" stroke="#000" stroke-miterlimit="10" stroke-width="9.75" d="m-6.97 89.48 401.49 183.86"/>
      <path fill="red" d="M215.93 179.38a26.25 26.25 0 1 0-52.5 0 26.25 26.25 0 0 0 52.5 0z"/>
      <path d="M189.68 199.63a20.28 20.28 0 0 0 20.25-20.25 20.27 20.27 0 0 0-20.25-20.25 20.27 20.27 0 0 0-20.25 20.25 20.27 20.27 0 0 0 20.25 20.25m0 9.75a30 30 0 1 1 0-60 30 30 0 0 1 0 60z"/>
    </g>
  </g>
  <path fill="#fff" stroke="#dcdcdc" stroke-miterlimit="10" stroke-width=".51" d="M68.47 4.1H53.26a2.53 2.53 0 0 0-2.54 2.53v15.2c0 1.4 1.14 2.54 2.54 2.54h15.2c1.4 0 2.54-1.14 2.54-2.54V6.63c0-1.4-1.13-2.54-2.53-2.54z"/>
  <g clip-path="url(#l)" transform="matrix(.04224 0 0 -.04224 52.75 22.34)">
    <g clip-path="url(#m)">
      <path fill="none" stroke="#000" stroke-width="9.75" d="M391.67 331.8 90 120.59"/>
      <path fill="#00f" d="M297.75 247.53a26.25 26.25 0 1 0-52.5 0 26.25 26.25 0 0 0 52.5 0z"/>
      <path d="M271.5 267.78a20.28 20.28 0 0 0 20.25-20.25 20.27 20.27 0 0 0-20.25-20.25 20.27 20.27 0 0 0-20.25 20.25 20.27 20.27 0 0 0 20.25 20.25m0 9.75a30 30 0 1 1 0-60 30 30 0 0 1 0 60z"/>
      <path fill="#00f" d="M116.25 121.27a26.25 26.25 0 1 0-52.5 0 26.25 26.25 0 0 0 52.5 0z"/>
      <path d="M90 141.52a20.27 20.27 0 0 0 20.25-20.25A20.28 20.28 0 0 0 90 101.02a20.28 20.28 0 0 0-20.25 20.25A20.27 20.27 0 0 0 90 141.52m0 9.75a30 30 0 1 1 0-60 30 30 0 0 1 0 60z"/>
    </g>
  </g>
  <path fill="#fff" stroke="#dcdcdc" stroke-miterlimit="10" stroke-width=".51" d="M91.78 4.1h-15.2a2.53 2.53 0 0 0-2.54 2.53v15.2c0 1.4 1.14 2.54 2.54 2.54h15.2c1.4 0 2.54-1.14 2.54-2.54V6.63c0-1.4-1.14-2.54-2.54-2.54z"/>
  <g clip-path="url(#n)" transform="matrix(.04224 0 0 -.04224 76.07 22.34)">
    <g clip-path="url(#o)">
      <path fill="none" stroke="#000" stroke-width="9.75" d="M330.08 192c0-76.13-61.82-137.84-138.08-137.84-76.26 0-138.08 61.72-138.08 137.84 0 76.13 61.82 137.84 138.08 137.84 76.26 0 138.08-61.71 138.08-137.84z"/>
      <path fill="#00f" d="M331 271.91a26.25 26.25 0 1 0-52.5 0 26.25 26.25 0 0 0 52.5 0z"/>
      <path d="M321.34 283.53a20.27 20.27 0 0 0-4.98-28.2 20.27 20.27 0 0 0-28.2 4.97 20.28 20.28 0 0 0 4.97 28.2 20.28 20.28 0 0 0 28.2-4.97m7.99 5.6a30 30 0 1 1-49.15-34.42 30 30 0 0 1 49.15 34.41z"/>
      <path fill="#00f" d="M218.25 192a26.25 26.25 0 1 0-52.5 0 26.25 26.25 0 0 0 52.5 0z"/>
      <path d="M208.59 203.62a20.28 20.28 0 0 0-4.97-28.2 20.27 20.27 0 0 0-28.21 4.97 20.28 20.28 0 0 0 4.97 28.2 20.28 20.28 0 0 0 28.21-4.97m7.98 5.59a30 30 0 1 1-49.14-34.41 30 30 0 0 1 49.14 34.4z"/>
    </g>
  </g>
  <g clip-path="url(#p)" transform="matrix(.84387 0 0 -.84387 .8 75.5)">
    <g clip-path="url(#q)">
      <path d="M7.82 43.04c-2.17 0-3.25 1.17-3.25 3.5 0 .76.11 1.4.33 1.95.22.53.57.95 1.05 1.24.48.3 1.1.44 1.87.44.76 0 1.38-.15 1.86-.44.48-.3.83-.7 1.05-1.24a6.13 6.13 0 0 0 .21-3.13 3.25 3.25 0 0 0-.4-1.05c-.2-.32-.45-.58-.78-.79l.72-.94a.2.2 0 0 0 .05-.14.2.2 0 0 0-.06-.15.22.22 0 0 0-.15-.06H9.25a.38.38 0 0 0-.33.17l-.46.68c-.19-.03-.4-.04-.64-.04Zm-.48 1.74a.21.21 0 0 0-.05.12c0 .07.03.12.07.16.04.05.1.07.16.07h.9c.08 0 .13-.03.17-.09l.51-.66c.16.18.28.39.35.62.08.24.12.48.14.7.03.24.04.52.04.85 0 .83-.12 1.52-.36 2.04-.23.52-.72.79-1.45.79-.74 0-1.23-.27-1.46-.79a6.4 6.4 0 0 1-.23-3.39c.08-.4.26-.72.53-.98s.65-.39 1.16-.39l.14.01zm4.88-.34v2.9c.02.2.13.32.32.34h.7a.37.37 0 0 0 .23-.1c.06-.06.1-.14.1-.23v-2.88c0-.22.01-.38.04-.46a.26.26 0 0 1 .16-.18c.08-.04.23-.05.44-.05.19 0 .35.05.5.15.13.11.25.25.33.41.07.17.11.35.11.54v2.47c.03.2.13.3.33.33h.7c.2-.02.3-.13.33-.33v-3.77c-.03-.2-.13-.3-.33-.33h-.67c-.2.02-.3.13-.32.33v.35a1.7 1.7 0 0 0-.56-.57 1.4 1.4 0 0 0-.75-.21c-.27 0-.5.01-.7.05-.18.03-.35.1-.5.18a.89.89 0 0 0-.34.4c-.08.17-.12.4-.12.66zm5.16 1.06c0 .36.05.7.15 1a1.86 1.86 0 0 0 1.16 1.19c.29.1.62.15 1 .15 1.35 0 2.02-.71 2.02-2.15 0-.1-.03-.18-.1-.25a.38.38 0 0 0-.23-.12h-2.72c0-.43.09-.78.28-1.04.19-.27.49-.4.9-.4.6 0 1.12.2 1.56.62a.2.2 0 0 0 .08.02.1.1 0 0 0 .07-.03.09.09 0 0 0 .04-.07l.06-.68c0-.06-.02-.1-.06-.12a3.46 3.46 0 0 0-3.08-.21c-.37.17-.65.43-.85.78-.19.35-.29.78-.29 1.3zm1.28.37h1.93c0 .83-.3 1.24-.9 1.24a.87.87 0 0 1-.76-.36 1.41 1.41 0 0 1-.27-.88zm3.73-2.26a.12.12 0 0 0-.07.11l.15.86c.01.07.05.11.12.11.04 0 .07-.01.1-.04a1.78 1.78 0 0 1 1.43-.7c.22-.01.4.02.54.1.13.06.2.2.2.4 0 .13-.06.23-.17.32-.12.08-.24.13-.38.16l-.57.11c-.38.08-.7.24-.97.48-.26.24-.4.54-.4.9 0 .35.08.64.23.85.15.21.34.36.6.45a3 3 0 0 0 .91.12c.23 0 .54-.03.95-.12.4-.08.61-.19.61-.32l-.12-.72c-.02-.09-.06-.12-.13-.12a.09.09 0 0 0-.07.03 1.9 1.9 0 0 1-1.32.53c-.21 0-.37-.03-.5-.1-.1-.05-.17-.17-.17-.35 0-.11.05-.2.15-.29a.7.7 0 0 1 .33-.15l.62-.12a2 2 0 0 0 .69-.27c.2-.14.38-.3.5-.5.13-.21.2-.44.2-.7 0-.53-.16-.92-.46-1.15-.3-.23-.73-.34-1.28-.34a3.4 3.4 0 0 0-1.72.46zm5.51-.46c-.65 0-.97.52-.97 1.56v2.23h-.3c-.2.03-.32.14-.34.33v.08c.02.2.13.3.33.33h.34v.94c.01.2.13.3.32.33h.61c.1-.02.18-.05.23-.1.06-.06.1-.14.1-.23v-.94h.98c.2-.02.3-.13.33-.33v-.08c-.03-.2-.14-.3-.34-.33h-.97v-2.08c0-.62.12-.92.34-.92.14 0 .27.02.4.07.12.05.23.1.33.17l.17.1a.1.1 0 0 0 .06-.02c.03 0 .04-.03.05-.06l.13-.48v-.03c0-.05-.02-.09-.06-.1a3.79 3.79 0 0 0-1.75-.44zm2.67.43v3.77c.02.2.13.3.33.33h.67a.37.37 0 0 0 .22-.1.38.38 0 0 0 .1-.23v-3.77c-.02-.2-.13-.3-.32-.33h-.67c-.2.02-.3.13-.33.33Zm.26 5.1c-.2.02-.3.13-.33.34v.62c.03.2.14.31.33.33h.8a.3.3 0 0 0 .23-.1.4.4 0 0 0 .1-.23v-.62c-.03-.2-.14-.32-.33-.34zm1.94-3.27c0 .52.09.97.26 1.33.18.36.44.64.79.82.34.2.79.28 1.31.28.53 0 .96-.09 1.31-.28.35-.18.61-.46.78-.82.18-.36.26-.8.26-1.33 0-.38-.05-.71-.15-1a1.81 1.81 0 0 0-1.2-1.13 3.35 3.35 0 0 0-1-.13 3 3 0 0 0-1.28.24c-.35.17-.62.42-.8.76a2.5 2.5 0 0 0-.28 1.26zm2.36-1.47c.31 0 .54.07.68.23.15.15.24.33.27.55a5.41 5.41 0 0 1 0 1.65.9.9 0 0 1-.27.53c-.15.14-.38.21-.68.21-.3 0-.53-.07-.68-.21a.93.93 0 0 1-.27-.53 6.06 6.06 0 0 1 0-1.65c.03-.22.12-.4.27-.55.14-.16.37-.23.68-.23zm3.22-.36v3.83c.01.1.05.17.1.22.06.06.14.1.23.1h.64a.3.3 0 0 0 .23-.1.36.36 0 0 0 .1-.22v-.58a1.68 1.68 0 0 0 1.53.96c.34 0 .62-.05.84-.14a.9.9 0 0 0 .48-.45 2 2 0 0 0 .14-.85v-2.77c-.02-.2-.13-.3-.33-.33h-.69c-.2.02-.3.13-.33.33v2.75c0 .26-.03.44-.1.55-.07.12-.22.17-.46.17a.9.9 0 0 1-.53-.16 1.1 1.1 0 0 1-.36-.43 1.27 1.27 0 0 1-.13-.55v-2.33a.36.36 0 0 0-.1-.22.37.37 0 0 0-.23-.1h-.7c-.2.01-.3.12-.33.32z"/>
      <path stroke="#000" stroke-miterlimit="10" stroke-width="1.13" d="M47 51.66h8.71v-10.1H47Z"/>
      <path fill="#fff" d="m49.08 44.11-.02.06c0 .03 0 .05.02.06l.41.67c.03.03.06.04.1.04.05 0 .08-.02.1-.06a1.45 1.45 0 0 1 1.33-.89c.3 0 .52.06.66.18a.8.8 0 0 1 .28.46 7.13 7.13 0 0 1 .03 1.43c-.02.2-.08.4-.16.56-.09.17-.21.26-.38.26-.26 0-.45-.05-.57-.15a1.9 1.9 0 0 1-.36-.39c-.12-.17-.23-.26-.34-.26h-.35c-.2.01-.3.12-.33.33v3.22c.02.2.13.31.33.33h2.96a.3.3 0 0 0 .23-.1.44.44 0 0 0 .1-.23v-.34c-.03-.2-.14-.31-.33-.34h-2V47.5a2.44 2.44 0 0 0 1.57-.04c.27-.1.47-.26.63-.45.17-.19.28-.42.37-.7a3.33 3.33 0 0 0-.05-1.96 1.85 1.85 0 0 0-1.25-1.17c-.3-.1-.65-.14-1.04-.14s-.76.1-1.1.29c-.35.2-.63.45-.84.78z"/>
      <path d="m61.15 49.99-3.64-8.87c-.08-.19-.19-.28-.32-.28a.3.3 0 0 0-.2.08.27.27 0 0 0-.09.21c0 .04.02.12.07.22l3.63 8.86.06.15.1.1c.04.03.1.04.16.04.07 0 .14-.03.2-.08a.3.3 0 0 0 .1-.22.73.73 0 0 0-.08-.21zm1.07-5.88-.02.06c0 .03 0 .05.02.06l.41.67c.03.03.06.04.1.04.05 0 .08-.02.1-.06a1.45 1.45 0 0 1 1.33-.89c.3 0 .52.06.66.18.15.12.24.27.28.46a7.15 7.15 0 0 1 .03 1.43c-.03.2-.08.4-.16.56-.08.17-.21.26-.38.26-.26 0-.45-.05-.57-.15a2.3 2.3 0 0 1-.36-.39c-.12-.17-.23-.26-.33-.26h-.36c-.2.01-.3.12-.33.33v3.22c.02.2.13.31.33.33h2.96a.3.3 0 0 0 .23-.1.37.37 0 0 0 .1-.23v-.34c-.03-.2-.13-.31-.33-.34h-2V47.5a2.45 2.45 0 0 0 1.57-.04c.27-.1.47-.26.63-.45.17-.19.28-.42.37-.7a3.33 3.33 0 0 0-.05-1.96 1.83 1.83 0 0 0-1.25-1.17c-.3-.1-.65-.14-1.04-.14s-.76.1-1.1.29c-.35.2-.63.45-.84.78zM9 32.39a2.09 2.09 0 0 0 1.67-2.05c0-.55-.19-1.03-.55-1.44-.37-.41-.91-.62-1.65-.62-.81 0-1.45.17-1.93.53l-.45-.45c-.06-.05-.12-.08-.18-.08-.08 0-.13.02-.14.05a.5.5 0 0 0-.03.22v1.76c0 .12 0 .2.03.23.02.03.09.05.2.05l.12-.01c.03 0 .05-.02.07-.04l.02-.06.01-.12c.02-.33.11-.62.27-.85.17-.24.38-.4.63-.5a3.63 3.63 0 0 1 1.38-.28c.45 0 .78.12.97.35.2.23.29.5.29.78 0 .3-.13.59-.39.84a.7.7 0 0 1-.34.2c-.13.05-.42.12-.89.22-.58.13-.98.24-1.2.32a1.91 1.91 0 0 0-.61 3.12c.37.37.9.56 1.6.56.66 0 1.2-.17 1.66-.53l.43.42c.08.08.14.11.2.11.07 0 .12-.02.14-.05.02-.04.02-.1.02-.22v-1.77c0-.11 0-.19-.03-.22-.02-.03-.09-.05-.2-.05-.1 0-.15.01-.18.03a.68.68 0 0 0-.06.22 2 2 0 0 1-.44 1 1.6 1.6 0 0 1-.72.52c-.25.09-.52.13-.81.13-.44 0-.75-.1-.95-.32a1 1 0 0 1-.29-.7c0-.27.1-.5.3-.67.19-.17.4-.28.63-.34zm5.77-.07c-.16.04-.37.06-.62.06a1.19 1.19 0 0 1-.99-.47 1.36 1.36 0 0 1-.18-.48 3.7 3.7 0 0 1-.08-.85c0-1.24.45-1.87 1.34-1.87.59 0 .99.27 1.2.8l.08.12.16.02c.16 0 .23-.04.23-.13a.66.66 0 0 0-.07-.22c-.05-.1-.14-.24-.26-.4a1.4 1.4 0 0 0-.58-.4 2.38 2.38 0 0 0-.94-.17c-.74 0-1.32.2-1.75.6-.43.42-.65.95-.65 1.6 0 .62.2 1.15.61 1.58.41.43 1.02.65 1.84.65 1.12 0 1.68-.3 1.68-.89a.58.58 0 0 0-.18-.45.63.63 0 0 0-.84 0 .56.56 0 0 0-.19.45c0 .19.06.33.2.45zm6.7-1.83c0-.63-.21-1.14-.65-1.55a2.55 2.55 0 0 0-1.81-.61c-.78 0-1.39.2-1.82.6-.43.42-.65.93-.65 1.56 0 .66.22 1.21.66 1.64a2.5 2.5 0 0 0 1.8.63c.77 0 1.37-.21 1.82-.63.43-.43.65-.98.65-1.64zm-2.46-1.78c.2 0 .37.03.51.08.15.04.27.12.35.23.1.11.16.22.21.31.05.1.09.23.11.41a4.16 4.16 0 0 1 .04.86c0 .66-.06 1.1-.2 1.32-.2.33-.55.5-1.02.5-.52 0-.87-.2-1.06-.56a3.22 3.22 0 0 1-.17-1.26 13.02 13.02 0 0 1 .04-.86c.02-.18.06-.31.11-.41l.21-.3c.09-.12.2-.2.35-.24.14-.05.32-.08.52-.08zm5.69-.33c-.23.02-.68.03-1.33.03-.14 0-.55 0-1.22-.03v.46h.67v2.99c0 .17-.04.28-.1.32-.07.03-.26.05-.57.05v.46l1.6.08v-1.1c.27.73.7 1.1 1.29 1.1.27 0 .5-.08.71-.22a.66.66 0 0 0 .31-.58.55.55 0 0 0-.17-.43.62.62 0 0 0-.82 0 .56.56 0 0 0-.19.43c0 .17.07.32.19.45a.94.94 0 0 1-.59-.2c-.17-.12-.3-.28-.38-.49a3.12 3.12 0 0 1-.24-1.17v-1.7h.84zm6.14 2.11h-2.92c0-1.18.46-1.78 1.37-1.78.32 0 .6.07.86.22.25.14.42.32.53.56.03.08.05.14.08.16.02.03.08.04.16.04.15 0 .23-.06.23-.17a.6.6 0 0 0-.1-.27 1.59 1.59 0 0 0-.9-.77 2.6 2.6 0 0 0-.95-.15c-.76 0-1.37.2-1.83.62-.46.41-.69.95-.69 1.61 0 .63.21 1.16.64 1.57.42.42 1 .63 1.75.63.66 0 1.18-.17 1.53-.52.37-.36.55-.86.55-1.49 0-.12-.02-.2-.06-.22a.56.56 0 0 0-.25-.04zm-2.92.32h2.31c-.03 1.07-.42 1.6-1.16 1.6-.4 0-.7-.16-.92-.5-.13-.2-.2-.57-.23-1.1zm9.06 1.11c0-.2-.08-.38-.23-.53a.72.72 0 0 0-.53-.22c-.2 0-.38.07-.53.22a.72.72 0 0 0-.22.53c0 .2.07.39.22.53.15.15.33.23.53.23a.7.7 0 0 0 .53-.23.73.73 0 0 0 .23-.53zm0-2.78c0-.2-.08-.39-.23-.53a.73.73 0 0 0-.53-.23c-.2 0-.38.08-.53.23a.72.72 0 0 0-.22.53c0 .2.07.38.22.53.15.15.33.22.53.22a.7.7 0 0 0 .53-.22.73.73 0 0 0 .23-.53z"/>
      <path fill="#ff3b21" stroke="#ff3b21" stroke-miterlimit="10" stroke-width="1.13" d="M41.55 36.31h8.96v-9.63h-8.95z"/>
      <path fill="#fff" d="M47.55 29.9v-1.06h.94v-.46c-.22.02-.74.03-1.56.03-.87 0-1.42 0-1.66-.03v.46h1.08v1.05h-2.79v.45l3.38 4.23.13.13c.04.02.1.02.2.02.12 0 .2-.01.24-.05.03-.03.04-.12.04-.25v-4.08h.94v-.45zm-1.1.44v3l-2.38-3z"/>
      <path fill="#0fe3ff" stroke="#0fe3ff" stroke-miterlimit="10" stroke-width="1.13" d="M162.62 38.02h114.26V23.27H162.62Z"/>
      <path fill="#fff" d="M167.08 26.1c-.26.03-.42.19-.44.45v8.19c.02.26.17.41.44.44h5.51a.5.5 0 0 0 .3-.14.48.48 0 0 0 .15-.3v-.52c-.03-.27-.18-.42-.45-.45l-3.97.04v-2.36h3.57a.5.5 0 0 0 .3-.14.5.5 0 0 0 .14-.31v-.4c-.03-.27-.18-.42-.44-.44h-3.57v-2.62l4.11.05c.14 0 .25-.03.34-.11a.51.51 0 0 0 .16-.33v-.6a.48.48 0 0 0-.14-.3.49.49 0 0 0-.3-.14zm7.36 0a.3.3 0 0 0-.2.09.28.28 0 0 0-.09.2c0 .08.03.15.07.19l2.1 2.62-2 2.42a.32.32 0 0 0-.08.19c0 .08.03.15.09.2.06.06.13.08.2.08h.96c.2 0 .36-.07.47-.23l1.1-1.41 1.06 1.41a.5.5 0 0 0 .45.23h.95a.3.3 0 0 0 .21-.07.27.27 0 0 0 .09-.21.3.3 0 0 0-.07-.19l-1.94-2.42 2.17-2.62c.04-.04.06-.1.06-.18a.27.27 0 0 0-.09-.22.28.28 0 0 0-.2-.07h-.95c-.2 0-.35.07-.46.23l-1.28 1.87-1.23-1.87a.48.48 0 0 0-.43-.23zm6.34 3.04c0 .5.07.95.2 1.35.15.4.34.74.6 1 .27.27.6.48.98.62.39.14.84.21 1.35.21 1.82 0 2.74-.97 2.74-2.92a.5.5 0 0 0-.45-.5h-3.69c0-.58.13-1.05.39-1.4.25-.37.66-.55 1.22-.55a3 3 0 0 1 2.1.84l.11.03c.04 0 .08-.01.1-.05a.12.12 0 0 0 .05-.1l.09-.91c0-.08-.03-.13-.09-.16a4.67 4.67 0 0 0-2.36-.64c-.7 0-1.3.12-1.8.35-.5.24-.88.6-1.14 1.07a3.6 3.6 0 0 0-.4 1.76zm1.75.51h2.6c0 1.11-.4 1.67-1.22 1.67a1.2 1.2 0 0 1-1.03-.49 1.95 1.95 0 0 1-.35-1.18zm5.31-3.1v5.18c.01.13.06.23.14.3a.5.5 0 0 0 .3.14h.84a.5.5 0 0 0 .3-.13.48.48 0 0 0 .14-.3v-.97c.2.43.46.79.81 1.06.35.28.74.41 1.18.41.11 0 .17-.05.17-.15v-1.07a.2.2 0 0 0-.04-.1.12.12 0 0 0-.1-.06c-.32 0-.64-.07-.94-.2-.3-.14-.55-.33-.73-.58a1.4 1.4 0 0 1-.28-.88v-2.65c-.03-.27-.18-.42-.44-.44h-.9c-.27.02-.42.18-.45.44zm7.68-.59c-1.02 0-1.8.27-2.32.81a3.24 3.24 0 0 0-.79 2.33 4 4 0 0 0 .35 1.74c.23.48.57.85 1.04 1.1.46.25 1.03.38 1.72.38a3.6 3.6 0 0 0 1.5-.23l.73-.3c.05-.05.08-.1.08-.17l-.19-1.01c0-.08-.06-.12-.16-.12a.11.11 0 0 0-.08.03c-.32.29-.6.48-.86.57-.25.1-.6.16-1.02.16-.54 0-.89-.2-1.04-.59-.16-.39-.24-.9-.24-1.55v-.02a6 6 0 0 1 .08-1.01c.06-.3.18-.55.37-.75.19-.2.47-.3.83-.3.8 0 1.47.27 2.04.81a.18.18 0 0 0 .2-.01.13.13 0 0 0 .06-.1l.09-1.01c0-.08-.03-.13-.08-.15a4.6 4.6 0 0 0-2.3-.61zm3.58.59v5.1c.03.27.17.41.44.44h.9a.49.49 0 0 0 .31-.13.52.52 0 0 0 .14-.31v-5.1c-.03-.27-.18-.42-.44-.44h-.91c-.27.02-.41.18-.44.44zm.35 6.9c-.27.03-.41.18-.45.45v.85c.04.27.18.42.45.44h1.09a.48.48 0 0 0 .3-.13.52.52 0 0 0 .14-.3v-.86c-.04-.27-.2-.42-.44-.45zm5.82-7.49c-1.02 0-1.8.27-2.32.81-.53.54-.79 1.32-.79 2.33a4 4 0 0 0 .34 1.74c.23.48.58.85 1.04 1.1a3.6 3.6 0 0 0 1.73.38 3.63 3.63 0 0 0 1.5-.23c.21-.08.46-.18.72-.3a.2.2 0 0 0 .08-.17l-.18-1.01c-.01-.08-.07-.12-.16-.12a.13.13 0 0 0-.09.03c-.32.29-.6.48-.85.57-.26.1-.6.16-1.02.16-.54 0-.9-.2-1.05-.59-.16-.39-.24-.9-.24-1.55v-.02c0-.38.03-.72.09-1.01.06-.3.18-.55.37-.75.19-.2.46-.3.83-.3.79 0 1.46.27 2.03.81a.2.2 0 0 0 .1.03c.04 0 .08-.01.1-.04a.12.12 0 0 0 .06-.1l.1-1.01c0-.08-.03-.13-.09-.15a4.6 4.6 0 0 0-2.3-.61zm3.2 3.18c0 .5.06.95.2 1.35.14.4.34.74.6 1 .27.27.59.48.98.62s.84.21 1.35.21c1.82 0 2.73-.97 2.73-2.92a.48.48 0 0 0-.12-.33.5.5 0 0 0-.33-.17h-3.68c0-.58.12-1.05.38-1.4.26-.37.67-.55 1.22-.55a3 3 0 0 1 2.1.84l.12.03c.04 0 .07-.01.1-.05a.12.12 0 0 0 .05-.1l.08-.91c0-.08-.02-.13-.08-.16a4.8 4.8 0 0 0-4.16-.29c-.5.24-.89.6-1.15 1.07a3.6 3.6 0 0 0-.4 1.76zm1.74.51h2.61c0 1.11-.4 1.67-1.22 1.67-.45 0-.8-.16-1.03-.49a1.95 1.95 0 0 1-.36-1.18zm11.33-3.69c-.87 0-1.31.7-1.31 2.12v3.02h-.41c-.27.03-.42.18-.45.45v.1c.03.27.18.41.45.44h.45v1.27c.03.27.17.42.45.45h.82a.48.48 0 0 0 .3-.14.46.46 0 0 0 .14-.3v-1.28h1.32c.27-.03.42-.17.45-.44v-.1c-.03-.27-.18-.42-.45-.45h-1.32v-2.82c0-.83.16-1.25.46-1.25.2 0 .37.03.54.1.17.07.32.14.45.24l.23.13c.03 0 .06 0 .09-.03a.2.2 0 0 0 .06-.08l.17-.64v-.06c0-.06-.02-.11-.07-.14-.77-.4-1.56-.6-2.37-.6zm3.26 3.18c0 .5.06.95.2 1.35a2.5 2.5 0 0 0 1.57 1.62c.4.14.84.21 1.35.21 1.82 0 2.73-.97 2.73-2.92a.48.48 0 0 0-.12-.33.5.5 0 0 0-.32-.17h-3.69c0-.58.13-1.05.39-1.4.25-.37.66-.55 1.22-.55.8 0 1.5.29 2.1.84l.11.03c.04 0 .07-.01.1-.05a.12.12 0 0 0 .06-.1l.08-.91c0-.08-.03-.13-.08-.16a4.8 4.8 0 0 0-4.17-.29c-.5.24-.89.6-1.15 1.07a3.6 3.6 0 0 0-.39 1.76zm1.73.51h2.61c0 1.11-.4 1.67-1.22 1.67-.45 0-.8-.16-1.03-.49a1.94 1.94 0 0 1-.35-1.18zm5.31-3.1v5.18c.01.13.06.23.14.3a.5.5 0 0 0 .3.14h.84a.5.5 0 0 0 .31-.13.48.48 0 0 0 .14-.3v-.97c.19.43.46.79.8 1.06.35.28.74.41 1.18.41.12 0 .18-.05.18-.15v-1.07a.2.2 0 0 0-.05-.1.12.12 0 0 0-.1-.06c-.32 0-.64-.07-.94-.2-.3-.14-.55-.33-.73-.58a1.41 1.41 0 0 1-.28-.88v-2.65c-.03-.27-.18-.42-.44-.44h-.9c-.27.02-.42.18-.45.44zm4.86 0v5.18c.01.13.05.23.14.3a.5.5 0 0 0 .3.14h.87a.5.5 0 0 0 .3-.13.48.48 0 0 0 .13-.3v-.8c.21.4.5.7.87.94s.78.36 1.22.36c.56 0 .99-.08 1.29-.24.3-.17.51-.5.64-1 .2.38.5.68.86.9.36.23.76.34 1.2.34.7 0 1.21-.14 1.52-.43.31-.3.46-.8.46-1.5v-3.76c-.02-.26-.17-.42-.44-.44h-.94c-.27.02-.42.18-.45.44v3.71c0 .36-.05.61-.14.76-.09.15-.3.23-.63.23-.27 0-.5-.08-.72-.23a1.65 1.65 0 0 1-.67-1.32v-3.15c-.03-.26-.17-.42-.44-.44h-.94c-.27.02-.42.17-.45.44v3.71c0 .36-.04.61-.14.76-.09.15-.3.23-.63.23-.26 0-.5-.08-.71-.23-.2-.14-.37-.34-.5-.58a1.7 1.7 0 0 1-.17-.74v-3.15a.51.51 0 0 0-.14-.3.49.49 0 0 0-.3-.14h-.95c-.26.02-.41.18-.44.44zm11.35 0v5.1c.03.27.17.41.44.44h.9a.47.47 0 0 0 .3-.13.5.5 0 0 0 .15-.31v-5.1c-.03-.27-.18-.42-.44-.44h-.91c-.27.02-.41.18-.44.44zm.35 6.9c-.27.03-.42.18-.45.45v.85c.03.27.18.42.45.44h1.08a.47.47 0 0 0 .45-.44v-.85c-.04-.27-.2-.42-.45-.45zm2.98-6.9v5.18c.02.13.06.23.14.3.08.08.18.13.3.14h.88a.5.5 0 0 0 .3-.13.48.48 0 0 0 .13-.3v-.8c.2.4.5.7.87.94s.77.36 1.2.36c.47 0 .85-.06 1.14-.18.3-.13.52-.33.65-.61.13-.28.2-.67.2-1.15v-3.75c-.03-.26-.18-.42-.45-.44h-.94c-.27.02-.41.18-.45.44v3.71c0 .35-.04.6-.13.76-.1.15-.3.23-.62.23-.27 0-.5-.08-.71-.23a1.58 1.58 0 0 1-.67-1.32v-3.15a.5.5 0 0 0-.45-.44h-.95c-.26.02-.4.18-.44.44zm9.62 6.58c-.1 0-.15.05-.15.17 0 .03 0 .06.03.08l1.26 1.73c.01.05.06.07.12.07h1.53c.04 0 .07-.01.1-.05a.14.14 0 0 0 .04-.1c0-.06-.02-.1-.06-.14l-2.1-1.72c-.02-.03-.04-.04-.07-.04zm-2.38-3.99c0 .5.06.95.2 1.35.14.4.34.74.6 1 .26.27.6.48.98.62s.83.21 1.35.21c1.82 0 2.73-.97 2.73-2.92a.5.5 0 0 0-.45-.5h-3.68c0-.58.13-1.05.38-1.4.26-.37.66-.55 1.23-.55.8 0 1.5.29 2.1.84a.3.3 0 0 0 .1.03c.04 0 .08-.01.11-.05a.12.12 0 0 0 .05-.1l.08-.91c0-.08-.02-.13-.08-.16a4.74 4.74 0 0 0-4.16-.29c-.5.24-.89.6-1.15 1.07a3.6 3.6 0 0 0-.4 1.76zm1.74.51h2.61c0 1.11-.4 1.67-1.22 1.67-.45 0-.8-.16-1.03-.49a1.94 1.94 0 0 1-.36-1.18zm10.85-3.55c-.26.03-.4.18-.44.45v.88a.5.5 0 0 0 .14.3c.07.08.17.13.3.14h.88a.49.49 0 0 0 .3-.14.46.46 0 0 0 .14-.3v-.88c-.03-.26-.17-.42-.44-.44zm-.26 2.76-.18 6.15c0 .05.02.08.04.12.03.04.06.05.12.05h1.47c.03 0 .06-.01.09-.05a.11.11 0 0 0 .04-.09l-.17-6.18a.15.15 0 0 0-.05-.1.15.15 0 0 0-.1-.05h-1.11a.14.14 0 0 0-.1.05.16.16 0 0 0-.05.1z"/>
      <path d="M6.77 20.34v-5.72h1.1v-.45c-.26.02-.85.03-1.78.03s-1.53-.01-1.8-.03v.45H5.4v5.72H4.3v.46a39.22 39.22 0 0 1 3.58 0v-.46zm3.59.54v-6.26h.67v-.45l-1.2.03-1.18-.03v.45h.67v5.35c0 .18-.04.29-.1.32-.07.04-.26.05-.57.05v.46zm7.04-6.71a20.26 20.26 0 0 1-2.54 0v.45h.66v3c0 .17-.03.28-.1.31-.07.04-.26.06-.57.06v.45l1.6.08v-1.1c.27.73.7 1.1 1.3 1.1.27 0 .5-.07.71-.21.2-.14.31-.34.31-.58a.54.54 0 0 0-.18-.43.58.58 0 0 0-.41-.16.6.6 0 0 0-.41.15.54.54 0 0 0-.18.44c0 .17.06.32.18.44a.94.94 0 0 1-.59-.19 1.14 1.14 0 0 1-.37-.49 2.84 2.84 0 0 1-.24-1.18v-1.69h.84zm6.14 2.1h-2.92c0-1.18.46-1.77 1.38-1.77.31 0 .6.07.85.21.25.14.43.33.53.56.03.09.06.14.08.16.03.03.08.04.16.04.16 0 .23-.05.23-.17a.65.65 0 0 0-.1-.26 1.6 1.6 0 0 0-.9-.77c-.27-.1-.58-.16-.94-.16-.77 0-1.38.21-1.84.63-.45.41-.68.95-.68 1.6 0 .63.2 1.16.63 1.58.42.42 1 .63 1.76.63.66 0 1.17-.18 1.53-.52.36-.36.55-.86.55-1.5 0-.11-.03-.19-.07-.22a.54.54 0 0 0-.25-.04zm-2.92.32h2.32c-.04 1.08-.42 1.61-1.16 1.61-.4 0-.7-.17-.92-.5a2.6 2.6 0 0 1-.24-1.1zm5.59.42c.42-.07.72-.13.9-.19.2-.05.37-.14.54-.27.36-.29.53-.63.53-1.03 0-.22-.03-.42-.1-.6a.91.91 0 0 0-.3-.4c-.12-.09-.25-.17-.37-.23s-.27-.1-.43-.12a4.46 4.46 0 0 0-.59-.06c-.46 0-.84.1-1.14.31a2.89 2.89 0 0 0-.54-.3c-.07 0-.12.01-.14.05a.53.53 0 0 0-.03.21v1.05c0 .13.01.2.03.24.03.03.1.05.2.05l.16-.02c.03-.02.05-.05.07-.12l.13-.36c.05-.1.13-.22.23-.35.1-.13.23-.23.41-.3.18-.08.39-.11.63-.11.73 0 1.1.24 1.1.72 0 .14-.04.25-.1.35a.68.68 0 0 1-.32.23 3.36 3.36 0 0 1-.65.18l-.66.12c-.13.03-.27.08-.42.14-.16.07-.3.16-.42.27-.26.22-.4.49-.4.81 0 .2.04.38.11.53.08.16.18.28.3.37.13.08.25.15.37.2.13.06.26.1.42.12l.35.04h.24c.4 0 .73-.05.97-.18.26.13.4.19.44.19.08 0 .12-.02.14-.06.02-.03.03-.1.03-.21v-.78c0-.12 0-.2-.03-.22-.02-.03-.09-.04-.2-.04-.1 0-.15 0-.18.03a.4.4 0 0 0-.04.16c-.05.54-.43.81-1.14.81-.72 0-1.08-.2-1.08-.6 0-.11.03-.2.09-.28a.6.6 0 0 1 .28-.18 3.24 3.24 0 0 1 .61-.17zm4.45.99v-2.66c0-.56.18-.84.56-.84.16 0 .29.07.4.22.12.14.18.36.18.67v.49h.45v-.51c0-.36-.1-.66-.3-.9-.22-.24-.5-.36-.87-.36-1.01 0-1.52.42-1.52 1.25V18h-.8v.34c.45.02.8.22 1.06.6.25.38.38.84.38 1.36h.46v-1.85h1.41V18zm6.69-1.73h-2.92c0-1.18.46-1.77 1.37-1.77.32 0 .6.07.85.21.25.14.43.33.53.56.03.09.07.14.09.16.03.03.08.04.16.04.15 0 .23-.05.23-.17a.62.62 0 0 0-.1-.26 1.6 1.6 0 0 0-.9-.77c-.28-.1-.6-.16-.95-.16a2.6 2.6 0 0 0-1.83.63c-.46.41-.69.95-.69 1.6 0 .63.21 1.16.63 1.58a2.4 2.4 0 0 0 1.76.63c.66 0 1.17-.18 1.53-.52a2 2 0 0 0 .55-1.5c0-.11-.02-.19-.07-.22a.57.57 0 0 0-.24-.04zm-2.92.32h2.3c-.02 1.08-.41 1.61-1.15 1.61-.4 0-.7-.17-.92-.5-.13-.2-.2-.57-.23-1.1z"/>
      <path fill="gray" stroke="gray" stroke-miterlimit="10" stroke-width="1.13" d="M41.76 22.1h8.96v-9.63h-8.96z"/>
      <path fill="#fff" d="M46.88 20.2v-5.58h1.35v-.45c-.28.02-.92.03-1.92.03-1 0-1.64-.01-1.92-.03v.45h1.34v5c-.4-.13-.82-.2-1.25-.2h-.2v.46h.2c.8 0 1.44.18 1.94.55a.3.3 0 0 0 .2.07c.13 0 .2-.02.22-.06.03-.04.04-.13.04-.25z"/>
      <path d="M58.97 16.27h-2.92c0-1.18.46-1.77 1.37-1.77.32 0 .6.07.85.21.25.14.43.33.54.56.03.09.06.14.08.16.03.03.08.04.16.04.15 0 .23-.05.23-.17a.62.62 0 0 0-.1-.26 1.6 1.6 0 0 0-.9-.77 2.8 2.8 0 0 0-.94-.16c-.77 0-1.38.21-1.84.63-.46.41-.69.95-.69 1.6 0 .63.21 1.16.64 1.58.42.42 1 .63 1.75.63.66 0 1.17-.18 1.54-.52.36-.36.54-.86.54-1.5 0-.11-.02-.19-.07-.22a.57.57 0 0 0-.24-.04zm-2.92.32h2.3c-.02 1.08-.4 1.61-1.15 1.61-.4 0-.7-.17-.92-.5-.13-.2-.2-.57-.23-1.1zm5.59.42c.42-.07.72-.13.9-.19.19-.05.37-.14.54-.27.35-.29.53-.63.53-1.03 0-.22-.04-.42-.1-.6a.94.94 0 0 0-.3-.4 2.3 2.3 0 0 0-.37-.23c-.13-.06-.27-.1-.43-.12a4.38 4.38 0 0 0-.59-.06c-.46 0-.84.1-1.14.31a2.7 2.7 0 0 0-.25-.17c-.13-.09-.23-.14-.29-.14-.08 0-.12.02-.14.06a.53.53 0 0 0-.04.21v1.05c0 .13.02.2.04.24.02.03.09.05.2.05l.16-.02c.03-.02.05-.05.07-.12a2.18 2.18 0 0 1 .35-.71c.1-.13.24-.23.42-.3.17-.08.39-.11.62-.11.74 0 1.1.24 1.1.72 0 .14-.03.25-.1.35a.68.68 0 0 1-.31.23 3.03 3.03 0 0 1-.66.18l-.66.12-.42.14c-.15.07-.3.16-.42.27-.26.22-.38.49-.38.81 0 .2.03.38.1.53a.9.9 0 0 0 .3.37c.13.08.25.15.37.2.12.06.26.1.42.12l.35.04h.24c.4 0 .73-.05.97-.18.25.13.4.19.44.19.07 0 .12-.02.14-.06.02-.03.03-.1.03-.21v-.78c0-.12-.01-.2-.03-.22-.03-.03-.1-.04-.2-.04s-.16 0-.18.03a.28.28 0 0 0-.04.16c-.06.54-.43.81-1.15.81-.71 0-1.08-.2-1.08-.6 0-.11.03-.2.1-.28a.56.56 0 0 1 .28-.18 3.34 3.34 0 0 1 .61-.17zm4.38 0c.42-.07.72-.13.9-.19.19-.05.37-.14.55-.27.35-.29.53-.63.53-1.03 0-.22-.04-.42-.11-.6a.95.95 0 0 0-.3-.4 2.3 2.3 0 0 0-.37-.23 1.3 1.3 0 0 0-.42-.12 4.66 4.66 0 0 0-.6-.06c-.46 0-.84.1-1.13.31a2.78 2.78 0 0 0-.55-.3c-.07 0-.12.01-.14.05a.53.53 0 0 0-.03.21v1.05c0 .13.01.2.03.24.03.03.1.05.2.05l.16-.02c.03-.02.06-.05.07-.12l.13-.36c.05-.1.13-.22.23-.35.1-.13.24-.23.41-.3.18-.08.39-.11.63-.11.73 0 1.1.24 1.1.72 0 .14-.04.25-.1.35a.7.7 0 0 1-.31.23 3.13 3.13 0 0 1-.67.18l-.65.12-.42.14c-.16.07-.3.16-.42.27-.26.22-.39.49-.39.81 0 .2.04.38.1.53.08.16.18.28.3.37a2.32 2.32 0 0 0 .79.32l.36.04h.23c.4 0 .73-.05.98-.18.25.13.4.19.43.19.08 0 .13-.02.14-.06.02-.03.03-.1.03-.21v-.78c0-.12 0-.2-.03-.22-.02-.03-.09-.04-.2-.04-.1 0-.15 0-.17.03-.03.03-.04.08-.05.16-.05.54-.43.81-1.14.81-.72 0-1.08-.2-1.08-.6 0-.11.03-.2.09-.28a.6.6 0 0 1 .28-.18 3.34 3.34 0 0 1 .61-.17zm5.97-2.09c-.28-.54-.76-.8-1.44-.8-.2 0-.39 0-.58.03-.2.03-.4.09-.6.16-.21.07-.37.19-.5.34a.85.85 0 0 0-.19.56c0 .92 1.05 1.43 3.14 1.52v.33c0 .76-.35 1.14-1.06 1.14-.25 0-.48-.02-.7-.07.15-.1.22-.25.22-.47 0-.2-.07-.35-.19-.45a.63.63 0 0 0-.83 0 .56.56 0 0 0-.19.45c0 .6.57.89 1.73.89.7 0 1.22-.14 1.58-.4.37-.28.55-.64.55-1.09v-2.08l.01-.2c.02-.03.07-.07.16-.1.1-.04.23-.06.42-.06h.12a.16.16 0 0 0 .08-.06c.03-.04.05-.09.05-.16s-.02-.12-.05-.16c-.02-.03-.06-.06-.1-.06a.85.85 0 0 0-.16-.01h-.47c-.24 0-.43.02-.58.07-.14.04-.25.1-.3.2a.84.84 0 0 0-.1.23l-.02.25zm-.17 1.51a5.85 5.85 0 0 1-.9-.14c-.22-.05-.4-.12-.55-.2a1.23 1.23 0 0 1-.39-.34.87.87 0 0 1-.17-.53.7.7 0 0 1 .26-.54.92.92 0 0 1 .62-.22c.09 0 .18.01.29.04a2 2 0 0 1 .36.13c.14.07.26.18.35.33.09.15.13.34.13.55zm4.12 2.09v-3.9h.6v-.45l-1.13.03-1.18-.03v.45h.66v3c0 .17-.03.28-.1.31-.06.04-.24.06-.53.06v.45Zm.1 1.61a.72.72 0 0 0-.22-.53.75.75 0 0 0-1.07 0 .73.73 0 0 0-.22.53c0 .21.07.39.22.54a.75.75 0 0 0 1.29-.53z"/>
    </g>
  </g>
  <g clip-path="url(#r)" transform="matrix(.84387 0 0 -.84387 .8 281.45)">
    <g clip-path="url(#s)">
      <path fill="#e1ffe1" d="M.1 239.24h388.7V-.56H.1Z"/>
      <path fill="none" stroke="#c60" stroke-linecap="round" stroke-linejoin="round" stroke-miterlimit="10" stroke-opacity=".5" stroke-width="1.42" d="M295.64 136.39a94.93 94.93 0 1 0-189.87 0 94.93 94.93 0 0 0 189.87 0z"/>
      <path fill="none" stroke="#c90" stroke-dasharray="3.69 2.27" stroke-linejoin="round" stroke-miterlimit="10" stroke-opacity=".7" stroke-width="1.42" d="M123.42 191.51 388.81 2.23"/>
      <path fill="none" stroke="#069" stroke-linecap="square" stroke-miterlimit="10" stroke-width="1.42" d="m120.58 194.35 5.69-5.68m-5.69 0 5.69 5.68M275.15 84.1l5.69-5.68m-5.69 0 5.69 5.68"/>
      <path fill="#fff" fill-opacity=".65" d="M0 239.24h388v-240H0Z"/>
      <path fill="none" stroke="#fff" stroke-linecap="round" stroke-linejoin="round" stroke-miterlimit="10" stroke-opacity=".7" stroke-width="1.42" d="M-.46 239.81h389.84V-1.13H-.46Z"/>
      <path fill="none" stroke="#039" stroke-linecap="square" stroke-miterlimit="10" stroke-width="1.42" d="m120.58 194.35 5.69-5.68m-5.69 0 5.69 5.68"/>
      <path fill="#039" d="m103.6 198.3 4.55 7.63c.09.13.2.2.34.22.13 0 .2-.05.22-.13l.03-.19.8-8.16c.02-.22.07-.36.15-.4h.01v-.01c.1-.04.34-.07.68-.07.2 0 .3-.04.3-.14 0-.17-.07-.26-.23-.26l-1.47.04-1.63-.04h-.01c-.12 0-.18.05-.18.14.07.17.17.26.3.26.64 0 .95.15.95.44l-.21 2.18h-3.28l-.99-1.67a1.13 1.13 0 0 1-.18-.49c0-.27.2-.42.6-.46.15 0 .22-.05.22-.15 0-.17-.09-.25-.25-.25l-1.26.04h-.05l-1.1-.04h-.02c-.12 0-.17.05-.17.14 0 .16.07.24.2.25v.01h.07c.55.04 1 .27 1.35.71.09.11.18.24.26.4zm1.57 1.91h2.99l-.42 4.32z"/>
      <path fill="none" stroke="#006400" stroke-linecap="square" stroke-miterlimit="10" stroke-width="1.42" d="m197.87 139.23 5.68-5.68m-5.68 0 5.68 5.68"/>
      <path fill="#006400" d="M215.5 150.2c0-1.35-.48-2.6-1.44-3.74a6.07 6.07 0 0 0-3.04-2.07c-.4-.11-.8-.17-1.21-.17-1.09 0-1.95.38-2.58 1.15-.5.63-.76 1.4-.76 2.34 0 1.3.46 2.54 1.4 3.71a6.2 6.2 0 0 0 3.02 2.1c.43.13.86.2 1.27.2a3.1 3.1 0 0 0 2.6-1.2c.49-.63.74-1.4.74-2.31zm-5.61-5.64c.82 0 1.6.36 2.36 1.1a7.56 7.56 0 0 1 2.08 5.06c0 1.19-.4 2-1.2 2.43h-.03c-.31.17-.65.25-1.01.25-.82 0-1.62-.36-2.38-1.06-.32-.28-.6-.6-.84-.98a7.53 7.53 0 0 1-1.19-4.02c0-1.11.34-1.91 1-2.4.36-.25.76-.38 1.2-.38z"/>
      <path fill="none" stroke="#606060" stroke-linecap="round" stroke-linejoin="round" stroke-miterlimit="10" stroke-opacity=".7" stroke-width="1.42" d="m200.71 136.39-77.29 55.12m37.82-31.16 3.96 5.55m-6.27-3.9 3.96 5.55m37.82-31.16L278 81.26m-37.82 31.17-3.97-5.55m6.28 3.9-3.96-5.56"/>
      <path fill="none" stroke="#c00" stroke-linecap="square" stroke-miterlimit="10" stroke-width="1.42" d="m275.15 84.1 5.69-5.68m-5.69 0 5.69 5.68"/>
      <path fill="#c00" d="m291.7 83.08 4.55 7.63c.09.14.2.21.34.23.13 0 .2-.05.22-.14a.8.8 0 0 0 .03-.18l.8-8.17c.02-.22.07-.35.15-.39h.02v-.01c.1-.05.32-.07.67-.07.2 0 .3-.05.3-.14 0-.18-.08-.26-.23-.26l-1.47.04h-.01l-1.62-.04h-.01c-.12 0-.19.04-.19.14.07.17.18.25.32.26.63 0 .94.14.94.43l-.2 2.19h-3.29l-1-1.68a1.2 1.2 0 0 1-.18-.48c0-.27.2-.42.62-.46.14 0 .2-.05.2-.15 0-.17-.07-.25-.24-.25l-1.26.04h-.05l-1.1-.04H290c-.11 0-.17.04-.17.14 0 .16.06.24.2.25h.07c.55.05 1 .28 1.35.72.09.1.17.24.26.39zm1.57 1.92h3l-.43 4.31zm8.23 6.36-1.64-3.85c-.04-.08-.08-.12-.12-.12a.4.4 0 0 0-.28.1l-.03.06c0 .01 0 .06.03.13l1.1 3.99c.08.25.22.39.4.41h.09c.2 0 .36-.08.45-.26a.4.4 0 0 0 .06-.2.6.6 0 0 0-.06-.26z"/>
      <path fill="#ededed" d="M1.25 239.24h92.63V218.8H1.25Z"/>
      <path fill="#039" d="M3.79 234.3h3.25c.64 0 1.12-.02 1.44-.07a2.09 2.09 0 0 0 1.46-1.01c.17-.29.26-.6.26-.96a1.91 1.91 0 0 0-1.14-1.77 1.96 1.96 0 0 0 1.54-1.96 2.44 2.44 0 0 0-.96-1.92c-.3-.2-.67-.33-1.1-.38a27.9 27.9 0 0 0-1.98-.06H3.78Zm1.64-1.34v-1.88H6.5c.64 0 1.04 0 1.2.02.28.04.5.14.66.3.16.15.24.36.24.63a.9.9 0 0 1-.21.61.95.95 0 0 1-.62.3c-.16 0-.63.02-1.4.02Zm0-3.24v-2.18h1.52c.59 0 .96.02 1.12.06.25.04.44.15.6.32a1 1 0 0 1 .23.69c0 .25-.06.45-.18.62a.98.98 0 0 1-.51.37c-.23.08-.71.12-1.46.12Zm6.18-.52c0 .52.13 1.02.39 1.5.25.5.62.87 1.08 1.12.47.26.99.38 1.57.38a2.95 2.95 0 0 0 3.04-3.06c0-.9-.28-1.63-.86-2.22a2.92 2.92 0 0 0-2.17-.88c-.54 0-1.06.12-1.55.37-.48.24-.86.6-1.11 1.07a3.54 3.54 0 0 0-.4 1.72zm1.6-.08c0-.58.14-1.03.41-1.34.28-.31.63-.47 1.04-.47.4 0 .75.16 1.02.47.28.3.41.76.41 1.35 0 .58-.13 1.02-.41 1.34a1.3 1.3 0 0 1-1.02.46c-.41 0-.76-.15-1.03-.46a1.96 1.96 0 0 1-.42-1.35zm11.07-2.95h-1.57v3.02c0 .63-.03 1.04-.1 1.22a.85.85 0 0 1-.31.44.96.96 0 0 1-.55.16c-.27 0-.5-.08-.72-.23a1.1 1.1 0 0 1-.45-.58c-.08-.24-.12-.7-.12-1.35v-2.68h-1.55v5.9h1.44v-.87c.52.67 1.17 1 1.95 1 .35 0 .66-.06.94-.18.28-.13.5-.29.64-.48.15-.2.25-.4.31-.65s.1-.6.1-1.05zm6.94 0h-1.56v3.02c0 .63-.04 1.04-.1 1.22a.88.88 0 0 1-.32.44.96.96 0 0 1-.55.16c-.26 0-.5-.08-.72-.23a1.12 1.12 0 0 1-.45-.58 5.1 5.1 0 0 1-.12-1.35v-2.68h-1.55v5.9h1.45v-.87c.51.67 1.16 1 1.94 1 .35 0 .66-.06.94-.18.29-.13.5-.29.65-.48.14-.2.24-.4.3-.65s.1-.6.1-1.05zm5 1.88 1.55-.26c-.2-.57-.52-1-.95-1.3-.43-.3-.97-.45-1.61-.45-1.03 0-1.8.34-2.28 1a3.4 3.4 0 0 0-.58 2.04c0 .97.25 1.74.76 2.3.51.55 1.16.82 1.94.82a2.6 2.6 0 0 0 2.07-.87c.5-.58.75-1.46.73-2.66h-3.9c0-.46.14-.82.37-1.08.24-.26.54-.38.9-.38.24 0 .45.06.62.2.16.13.29.34.37.64zm.08 1.58c-.01.45-.13.79-.35 1.02-.22.24-.49.36-.8.36a1.1 1.1 0 0 1-.85-.37 1.44 1.44 0 0 1-.33-1.01zm7.47-3.46h-1.56v5.9h1.45v-.85c.25.4.47.67.67.79.2.13.42.2.68.2.35 0 .7-.1 1.02-.3l-.48-1.36c-.27.17-.5.25-.73.25a.9.9 0 0 1-.56-.18c-.15-.11-.28-.33-.36-.65a9.81 9.81 0 0 1-.13-1.98zm6.34 1.88 1.56-.26c-.2-.57-.51-1-.94-1.3a2.8 2.8 0 0 0-1.62-.45c-1.03 0-1.79.34-2.28 1a3.4 3.4 0 0 0-.58 2.04c0 .97.25 1.74.77 2.3.5.55 1.15.82 1.93.82a2.6 2.6 0 0 0 2.07-.87c.5-.58.75-1.46.73-2.66h-3.9c0-.46.13-.82.38-1.08.23-.26.53-.38.89-.38.25 0 .45.06.62.2.17.13.3.34.37.64zm.1 1.58c-.02.45-.14.79-.36 1.02-.22.24-.5.36-.8.36a1.1 1.1 0 0 1-.85-.37 1.44 1.44 0 0 1-.33-1.01zm-1.9 3.36.76 1.66h1.75L49.3 233zm4.67-.92h1.46v-.87c.18.3.44.54.76.72.32.2.68.28 1.07.28.68 0 1.26-.26 1.74-.8.48-.53.72-1.28.72-2.24 0-.99-.25-1.76-.73-2.3a2.24 2.24 0 0 0-2.63-.62c-.26.13-.54.35-.83.66v-2.97h-1.56Zm1.54-2.85c0-.66.14-1.16.4-1.47.26-.32.58-.47.95-.47.36 0 .67.14.91.43.24.3.36.77.36 1.43 0 .62-.12 1.08-.37 1.38a1.2 1.2 0 0 1-1.87 0c-.25-.28-.38-.72-.38-1.3zm5.08-.02c0 .52.13 1.02.39 1.5.26.5.62.87 1.09 1.12.46.26.99.38 1.56.38a2.95 2.95 0 0 0 3.05-3.06c0-.9-.3-1.63-.87-2.22a2.91 2.91 0 0 0-2.17-.88c-.54 0-1.06.12-1.55.37-.48.24-.85.6-1.11 1.07a3.54 3.54 0 0 0-.39 1.72Zm1.6-.08c0-.58.14-1.03.42-1.34.27-.31.62-.47 1.03-.47.4 0 .75.16 1.03.47.27.3.4.76.4 1.35a2 2 0 0 1-.4 1.34c-.28.3-.62.46-1.03.46-.41 0-.75-.15-1.03-.46a1.97 1.97 0 0 1-.42-1.35zm11.07-2.95h-1.56v3.02c0 .63-.03 1.04-.1 1.22a.88.88 0 0 1-.32.44.95.95 0 0 1-.54.16c-.27 0-.52-.08-.73-.23a1.11 1.11 0 0 1-.45-.58c-.08-.24-.12-.7-.12-1.35v-2.68H66.9v5.9h1.45v-.87c.51.67 1.16 1 1.94 1 .34 0 .66-.06.94-.18a1.56 1.56 0 0 0 .95-1.13c.06-.25.1-.6.1-1.05zm1.03 1.68 1.56.24c.08-.3.21-.53.41-.69.2-.15.49-.23.86-.23.4 0 .7.07.9.22.15.1.22.24.22.42 0 .12-.04.22-.13.29-.07.07-.24.14-.5.2a8.46 8.46 0 0 0-2.4.77c-.47.31-.7.75-.7 1.32 0 .51.2.94.6 1.29.4.35 1.03.52 1.88.52.8 0 1.4-.13 1.8-.4a2 2 0 0 0 .8-1.16l-1.46-.27a.93.93 0 0 1-.36.53 1.3 1.3 0 0 1-.75.18c-.4 0-.7-.05-.88-.17-.12-.09-.18-.19-.18-.31s.05-.21.15-.29c.15-.1.63-.25 1.45-.44.84-.2 1.41-.42 1.75-.7.33-.27.49-.66.49-1.15 0-.55-.23-1.01-.68-1.4-.45-.38-1.12-.58-2-.58-.8 0-1.44.17-1.9.49a2.2 2.2 0 0 0-.93 1.32zm10.28.2 1.55-.26c-.19-.57-.5-1-.93-1.3-.44-.3-.98-.45-1.63-.45-1.02 0-1.78.34-2.27 1a3.4 3.4 0 0 0-.58 2.04c0 .97.25 1.74.76 2.3.51.55 1.16.82 1.94.82a2.6 2.6 0 0 0 2.07-.87c.51-.58.75-1.46.73-2.66h-3.9c.01-.46.14-.82.38-1.08.23-.26.53-.38.89-.38.25 0 .45.06.62.2.16.13.29.34.37.64zm.1 1.58c-.02.45-.14.79-.36 1.02-.22.24-.5.36-.8.36a1.1 1.1 0 0 1-.85-.37 1.44 1.44 0 0 1-.33-1.01zm6.59-1.36-.41 4.13v1.9h1.68v-1.9l-.4-4.13zm-.35-2.1v1.57h1.56v-1.57z"/>
    </g>
  </g>
</svg>
