<svg xmlns="http://www.w3.org/2000/svg" xmlns:xlink="http://www.w3.org/1999/xlink" xml:space="preserve" viewBox="0 0 328.82 282.25">
  <defs>
    <path id="a" d="M0 0h384v384H0Z"/>
    <path id="b" d="M0 0h387.78v56.7H0Z"/>
    <path id="c" d="M0 0h387.78v239.24H0Z"/>
  </defs>
  <defs>
    <clipPath id="d" clipPathUnits="userSpaceOnUse">
      <use xlink:href="#a"/>
    </clipPath>
    <clipPath id="e" clipPathUnits="userSpaceOnUse">
      <use xlink:href="#a"/>
    </clipPath>
    <clipPath id="f" clipPathUnits="userSpaceOnUse">
      <use xlink:href="#a"/>
    </clipPath>
    <clipPath id="g" clipPathUnits="userSpaceOnUse">
      <use xlink:href="#a"/>
    </clipPath>
    <clipPath id="h" clipPathUnits="userSpaceOnUse">
      <use xlink:href="#a"/>
    </clipPath>
    <clipPath id="i" clipPathUnits="userSpaceOnUse">
      <use xlink:href="#a"/>
    </clipPath>
    <clipPath id="j" clipPathUnits="userSpaceOnUse">
      <use xlink:href="#a"/>
    </clipPath>
    <clipPath id="k" clipPathUnits="userSpaceOnUse">
      <use xlink:href="#a"/>
    </clipPath>
    <clipPath id="l" clipPathUnits="userSpaceOnUse">
      <use xlink:href="#a"/>
    </clipPath>
    <clipPath id="m" clipPathUnits="userSpaceOnUse">
      <use xlink:href="#a"/>
    </clipPath>
    <clipPath id="n" clipPathUnits="userSpaceOnUse">
      <use xlink:href="#a"/>
    </clipPath>
    <clipPath id="o" clipPathUnits="userSpaceOnUse">
      <use xlink:href="#a"/>
    </clipPath>
    <clipPath id="p" clipPathUnits="userSpaceOnUse">
      <use xlink:href="#b"/>
    </clipPath>
    <clipPath id="q" clipPathUnits="userSpaceOnUse">
      <use xlink:href="#b"/>
    </clipPath>
    <clipPath id="s" clipPathUnits="userSpaceOnUse">
      <path d="M0 0h388v57H0Z"/>
    </clipPath>
    <clipPath id="t" clipPathUnits="userSpaceOnUse">
      <use xlink:href="#c"/>
    </clipPath>
    <clipPath id="u" clipPathUnits="userSpaceOnUse">
      <use xlink:href="#c"/>
    </clipPath>
    <radialGradient id="r" cx="230" cy="324.27" r="190" fx="230" fy="324.27" gradientTransform="rotate(-45 188.07 -398.36) scale(.06564)" gradientUnits="userSpaceOnUse" spreadMethod="pad">
      <stop offset="0" stop-color="#8c8c8c"/>
      <stop offset=".43" stop-color="#9cbdcc"/>
      <stop offset=".52" stop-color="#8c8c8c"/>
      <stop offset=".71" stop-color="#fff"/>
      <stop offset=".89" stop-color="#8c8c8c"/>
      <stop offset="1" stop-color="#9cbdcc"/>
    </radialGradient>
  </defs>
  <path fill="#d3d3d3" fill-rule="evenodd" d="M0 282.25V0h328.82v282.25Zm.8-.8V.8h327.23v280.65Z"/>
  <path fill="#ededed" d="M.8 77.53V.8h327.23v76.73z"/>
  <path fill="#fff" d="M.8 281.45V77.15h327.23v204.3Z"/>
  <path fill="#f8f8f8" d="M.8 75.5v4.06h327.23V75.5z"/>
  <path fill="none" stroke="#dcdcdc" stroke-miterlimit="10" stroke-width=".8" d="M.8 75.9h327.23M.8 79.16h327.23"/>
  <path fill="#f8f8f8" d="M.8.8v26.86h327.23V.8z"/>
  <path fill="none" stroke="#dcdcdc" stroke-miterlimit="10" stroke-width=".8" d="M.8 28.06h327.23"/>
  <g clip-path="url(#d)" transform="matrix(.04224 0 0 -.04224 305.96 22.34)">
    <g clip-path="url(#e)" opacity=".5">
      <path fill="#999" d="M260.29 248.97V195.4l100.46 70.09-100.46 70.05v-53.27h-57.77c-113.55 0-179.27-18.96-179.27-116.93 0-97.95 65.72-116.9 179.27-116.9h130.03v33.1H202.52c-96.74 0-144 18.91-144 83.8 0 67.08 47.26 83.81 144 83.81h57.77z"/>
    </g>
  </g>
  <g clip-path="url(#f)" transform="matrix(.04224 0 0 -.04224 281.6 22.34)">
    <g clip-path="url(#g)" opacity=".5">
      <path fill="#999" d="M123.71 248.97V195.4L23.25 265.5l100.46 70.05v-53.27h57.77c113.55 0 179.27-18.96 179.27-116.93 0-97.95-65.72-116.9-179.27-116.9H51.45v33.1h130.03c96.74 0 144 18.91 144 83.8 0 67.08-47.26 83.81-144 83.81h-57.77z"/>
    </g>
  </g>
  <path fill="#fff" stroke="#6161ff" stroke-miterlimit="10" stroke-width="1.01" d="M21.58 4.1H6.38a2.53 2.53 0 0 0-2.54 2.53v15.2c0 1.4 1.13 2.54 2.53 2.54h15.2c1.4 0 2.54-1.14 2.54-2.54V6.63c0-1.4-1.13-2.54-2.53-2.54z"/>
  <g clip-path="url(#h)" transform="matrix(.04224 0 0 -.04224 5.87 22.34)">
    <g clip-path="url(#i)">
      <path fill="#fff" stroke="#000" stroke-miterlimit="10" stroke-width="9.75" d="m224.08 64.37 30.84 15.42-51.4 105.4 64.25 6.42L126.4 314.99l-2.57-194.07 47.55 48.84z"/>
    </g>
  </g>
  <path fill="#fff" stroke="#dcdcdc" stroke-miterlimit="10" stroke-width=".51" d="M45.15 4.1h-15.2a2.53 2.53 0 0 0-2.54 2.53v15.2c0 1.4 1.13 2.54 2.53 2.54h15.2c1.4 0 2.54-1.14 2.54-2.54V6.63c0-1.4-1.13-2.54-2.53-2.54z"/>
  <g clip-path="url(#j)" transform="matrix(.04224 0 0 -.04224 29.43 22.34)">
    <g clip-path="url(#k)">
      <path d="M282.13-9.99C244.52 135.93 137.09 259.82-12.6 329.91l4.14 8.84C143.87 267.4 253.23 141.19 291.57-7.55Z"/>
      <path fill="none" stroke="#000" stroke-miterlimit="10" stroke-width="9.75" d="m-6.97 89.48 401.49 183.86"/>
      <path fill="red" d="M215.93 179.38a26.25 26.25 0 1 0-52.5 0 26.25 26.25 0 0 0 52.5 0z"/>
      <path d="M189.68 199.63a20.28 20.28 0 0 0 20.25-20.25 20.27 20.27 0 0 0-20.25-20.25 20.27 20.27 0 0 0-20.25 20.25 20.27 20.27 0 0 0 20.25 20.25m0 9.75a30 30 0 1 1 0-60 30 30 0 0 1 0 60z"/>
    </g>
  </g>
  <path fill="#fff" stroke="#dcdcdc" stroke-miterlimit="10" stroke-width=".51" d="M68.47 4.1H53.26a2.53 2.53 0 0 0-2.54 2.53v15.2c0 1.4 1.14 2.54 2.54 2.54h15.2c1.4 0 2.54-1.14 2.54-2.54V6.63c0-1.4-1.13-2.54-2.53-2.54z"/>
  <g clip-path="url(#l)" transform="matrix(.04224 0 0 -.04224 52.75 22.34)">
    <g clip-path="url(#m)">
      <path fill="none" stroke="#000" stroke-width="9.75" d="M391.67 331.8 90 120.59"/>
      <path fill="#00f" d="M297.75 247.53a26.25 26.25 0 1 0-52.5 0 26.25 26.25 0 0 0 52.5 0z"/>
      <path d="M271.5 267.78a20.28 20.28 0 0 0 20.25-20.25 20.27 20.27 0 0 0-20.25-20.25 20.27 20.27 0 0 0-20.25 20.25 20.27 20.27 0 0 0 20.25 20.25m0 9.75a30 30 0 1 1 0-60 30 30 0 0 1 0 60z"/>
      <path fill="#00f" d="M116.25 121.27a26.25 26.25 0 1 0-52.5 0 26.25 26.25 0 0 0 52.5 0z"/>
      <path d="M90 141.52a20.27 20.27 0 0 0 20.25-20.25A20.28 20.28 0 0 0 90 101.02a20.28 20.28 0 0 0-20.25 20.25A20.27 20.27 0 0 0 90 141.52m0 9.75a30 30 0 1 1 0-60 30 30 0 0 1 0 60z"/>
    </g>
  </g>
  <path fill="#fff" stroke="#dcdcdc" stroke-miterlimit="10" stroke-width=".51" d="M91.78 4.1h-15.2a2.53 2.53 0 0 0-2.54 2.53v15.2c0 1.4 1.14 2.54 2.54 2.54h15.2c1.4 0 2.54-1.14 2.54-2.54V6.63c0-1.4-1.14-2.54-2.54-2.54z"/>
  <g clip-path="url(#n)" transform="matrix(.04224 0 0 -.04224 76.07 22.34)">
    <g clip-path="url(#o)">
      <path fill="none" stroke="#000" stroke-width="9.75" d="M330.08 192c0-76.13-61.82-137.84-138.08-137.84-76.26 0-138.08 61.72-138.08 137.84 0 76.13 61.82 137.84 138.08 137.84 76.26 0 138.08-61.71 138.08-137.84z"/>
      <path fill="#00f" d="M331 271.91a26.25 26.25 0 1 0-52.5 0 26.25 26.25 0 0 0 52.5 0z"/>
      <path d="M321.34 283.53a20.27 20.27 0 0 0-4.98-28.2 20.27 20.27 0 0 0-28.2 4.97 20.28 20.28 0 0 0 4.97 28.2 20.28 20.28 0 0 0 28.2-4.97m7.99 5.6a30 30 0 1 1-49.15-34.42 30 30 0 0 1 49.15 34.41z"/>
      <path fill="#00f" d="M218.25 192a26.25 26.25 0 1 0-52.5 0 26.25 26.25 0 0 0 52.5 0z"/>
      <path d="M208.59 203.62a20.28 20.28 0 0 0-4.97-28.2 20.27 20.27 0 0 0-28.21 4.97 20.28 20.28 0 0 0 4.97 28.2 20.28 20.28 0 0 0 28.21-4.97m7.98 5.59a30 30 0 1 1-49.14-34.41 30 30 0 0 1 49.14 34.4z"/>
    </g>
  </g>
  <g clip-path="url(#p)" transform="matrix(.84387 0 0 -.84387 .8 75.5)">
    <g clip-path="url(#q)">
      <path fill="url(#r)" d="M355.35 13.54a11.28 11.28 0 1 0 15.96 15.96 11.28 11.28 0 0 0-15.96-15.96zm3.36 3.36a6.53 6.53 0 1 1 9.24 9.25 6.53 6.53 0 0 1-9.24-9.25z" transform="matrix(1 0 0 -1 0 56.7)"/>
      <path fill="none" stroke="#a0a0a0" stroke-width=".18" d="M355.35 43.15a11.28 11.28 0 1 1 15.96-15.96 11.28 11.28 0 0 1-15.96 15.96zm3.36-3.36a6.53 6.53 0 1 0 9.24-9.24 6.53 6.53 0 0 0-9.24 9.24z"/>
      <g clip-path="url(#s)" opacity=".81" transform="matrix(1 0 0 -1 0 56.7)">
        <path fill="red" stroke="red" stroke-linecap="round" stroke-linejoin="round" stroke-width=".18" d="M355.35 13.54c-.88.89-1.58 1.88-2.12 2.94l4.25 2.12a6.57 6.57 0 0 1 2.93-2.92l-2.13-4.25a11.26 11.26 0 0 0-2.93 2.11zm-2.12 13.03a11.15 11.15 0 0 0 5.05 5.05l2.13-4.25a6.61 6.61 0 0 1-2.92-2.93zm15.15-15.14-2.13 4.25a6.6 6.6 0 0 1 2.92 2.92l4.26-2.12a11.24 11.24 0 0 0-5.05-5.05zm-2.13 15.94 2.13 4.25a11.2 11.2 0 0 0 5.05-5.05l-4.26-2.13a6.38 6.38 0 0 1-2.92 2.93z"/>
      </g>
      <path d="M7.82 43.04c-2.17 0-3.25 1.17-3.25 3.5 0 .76.11 1.4.33 1.95.22.53.57.95 1.05 1.24.48.3 1.1.44 1.87.44.76 0 1.38-.15 1.86-.44.48-.3.83-.7 1.05-1.24a6.13 6.13 0 0 0 .21-3.13 3.25 3.25 0 0 0-.4-1.05c-.2-.32-.45-.58-.78-.79l.72-.94a.2.2 0 0 0 .05-.14.2.2 0 0 0-.06-.15.22.22 0 0 0-.15-.06H9.25a.38.38 0 0 0-.33.17l-.46.68c-.19-.03-.4-.04-.64-.04Zm-.48 1.74a.21.21 0 0 0-.05.12c0 .07.03.12.07.16.04.05.1.07.16.07h.9c.08 0 .13-.03.17-.09l.51-.66c.16.18.28.39.35.62.08.24.12.48.14.7.03.24.04.52.04.85 0 .83-.12 1.52-.36 2.04-.23.52-.72.79-1.45.79-.74 0-1.23-.27-1.46-.79a6.4 6.4 0 0 1-.23-3.39c.08-.4.26-.72.53-.98s.65-.39 1.16-.39l.14.01zm4.88-.34v2.9c.02.2.13.32.32.34h.7a.37.37 0 0 0 .23-.1c.06-.06.1-.14.1-.23v-2.88c0-.22.01-.38.04-.46a.26.26 0 0 1 .16-.18c.08-.04.23-.05.44-.05.19 0 .35.05.5.15.13.11.25.25.33.41.07.17.11.35.11.54v2.47c.03.2.13.3.33.33h.7c.2-.02.3-.13.33-.33v-3.77c-.03-.2-.13-.3-.33-.33h-.67c-.2.02-.3.13-.32.33v.35a1.7 1.7 0 0 0-.56-.57 1.4 1.4 0 0 0-.75-.21c-.27 0-.5.01-.7.05-.18.03-.35.1-.5.18a.89.89 0 0 0-.34.4c-.08.17-.12.4-.12.66zm5.16 1.06c0 .36.05.7.15 1a1.86 1.86 0 0 0 1.16 1.19c.29.1.62.15 1 .15 1.35 0 2.02-.71 2.02-2.15 0-.1-.03-.18-.1-.25a.38.38 0 0 0-.23-.12h-2.72c0-.43.09-.78.28-1.04.19-.27.49-.4.9-.4.6 0 1.12.2 1.56.62a.2.2 0 0 0 .08.02.1.1 0 0 0 .07-.03.09.09 0 0 0 .04-.07l.06-.68c0-.06-.02-.1-.06-.12a3.46 3.46 0 0 0-3.08-.21c-.37.17-.65.43-.85.78-.19.35-.29.78-.29 1.3zm1.28.37h1.93c0 .83-.3 1.24-.9 1.24a.87.87 0 0 1-.76-.36 1.41 1.41 0 0 1-.27-.88zm3.73-2.26a.12.12 0 0 0-.07.11l.15.86c.01.07.05.11.12.11.04 0 .07-.01.1-.04a1.78 1.78 0 0 1 1.43-.7c.22-.01.4.02.54.1.13.06.2.2.2.4 0 .13-.06.23-.17.32-.12.08-.24.13-.38.16l-.57.11c-.38.08-.7.24-.97.48-.26.24-.4.54-.4.9 0 .35.08.64.23.85.15.21.34.36.6.45a3 3 0 0 0 .91.12c.23 0 .54-.03.95-.12.4-.08.61-.19.61-.32l-.12-.72c-.02-.09-.06-.12-.13-.12a.09.09 0 0 0-.07.03 1.9 1.9 0 0 1-1.32.53c-.21 0-.37-.03-.5-.1-.1-.05-.17-.17-.17-.35 0-.11.05-.2.15-.29a.7.7 0 0 1 .33-.15l.62-.12a2 2 0 0 0 .69-.27c.2-.14.38-.3.5-.5.13-.21.2-.44.2-.7 0-.53-.16-.92-.46-1.15-.3-.23-.73-.34-1.28-.34a3.4 3.4 0 0 0-1.72.46zm5.51-.46c-.65 0-.97.52-.97 1.56v2.23h-.3c-.2.03-.32.14-.34.33v.08c.02.2.13.3.33.33h.34v.94c.01.2.13.3.32.33h.61c.1-.02.18-.05.23-.1.06-.06.1-.14.1-.23v-.94h.98c.2-.02.3-.13.33-.33v-.08c-.03-.2-.14-.3-.34-.33h-.97v-2.08c0-.62.12-.92.34-.92.14 0 .27.02.4.07.12.05.23.1.33.17l.17.1a.1.1 0 0 0 .06-.02c.03 0 .04-.03.05-.06l.13-.48v-.03c0-.05-.02-.09-.06-.1a3.79 3.79 0 0 0-1.75-.44zm2.67.43v3.77c.02.2.13.3.33.33h.67a.37.37 0 0 0 .22-.1.38.38 0 0 0 .1-.23v-3.77c-.02-.2-.13-.3-.32-.33h-.67c-.2.02-.3.13-.33.33Zm.26 5.1c-.2.02-.3.13-.33.34v.62c.03.2.14.31.33.33h.8a.3.3 0 0 0 .23-.1.4.4 0 0 0 .1-.23v-.62c-.03-.2-.14-.32-.33-.34zm1.94-3.27c0 .52.09.97.26 1.33.18.36.44.64.79.82.34.2.79.28 1.31.28.53 0 .96-.09 1.31-.28.35-.18.61-.46.78-.82.18-.36.26-.8.26-1.33 0-.38-.05-.71-.15-1a1.81 1.81 0 0 0-1.2-1.13 3.35 3.35 0 0 0-1-.13 3 3 0 0 0-1.28.24c-.35.17-.62.42-.8.76a2.5 2.5 0 0 0-.28 1.26zm2.36-1.47c.31 0 .54.07.68.23.15.15.24.33.27.55a5.41 5.41 0 0 1 0 1.65.9.9 0 0 1-.27.53c-.15.14-.38.21-.68.21-.3 0-.53-.07-.68-.21a.93.93 0 0 1-.27-.53 6.06 6.06 0 0 1 0-1.65c.03-.22.12-.4.27-.55.14-.16.37-.23.68-.23zm3.22-.36v3.83c.01.1.05.17.1.22.06.06.14.1.23.1h.64a.3.3 0 0 0 .23-.1.36.36 0 0 0 .1-.22v-.58a1.68 1.68 0 0 0 1.53.96c.34 0 .62-.05.84-.14a.9.9 0 0 0 .48-.45 2 2 0 0 0 .14-.85v-2.77c-.02-.2-.13-.3-.33-.33h-.69c-.2.02-.3.13-.33.33v2.75c0 .26-.03.44-.1.55-.07.12-.22.17-.46.17a.9.9 0 0 1-.53-.16 1.1 1.1 0 0 1-.36-.43 1.27 1.27 0 0 1-.13-.55v-2.33a.36.36 0 0 0-.1-.22.37.37 0 0 0-.23-.1h-.7c-.2.01-.3.12-.33.32z"/>
      <path stroke="#000" stroke-miterlimit="10" stroke-width="1.13" d="M47 51.66h8.71v-10.1H47Z"/>
      <path fill="#fff" d="M49.2 43.81c-.04.03-.05.06-.05.11l.13.72c0 .02.01.04.04.06l.07.02c.02 0 .05 0 .08-.02.22-.23.5-.4.8-.52.3-.13.61-.19.93-.19.37 0 .61.1.73.33a2 2 0 0 1 .17.92c0 .41-.06.72-.17.94-.12.22-.36.33-.73.33h-.62a.1.1 0 0 0-.08.03c-.02.02-.03.05-.03.09v.5c0 .03.01.06.03.08.03.03.06.04.08.04l.47.03c.26 0 .46.14.61.4.15.26.22.52.22.8 0 .27-.04.47-.14.6-.09.13-.26.2-.53.2a1.57 1.57 0 0 1-1.3-.73c-.03-.03-.07-.05-.1-.05a.11.11 0 0 0-.1.05l-.4.58c-.01 0-.02.02-.02.05 0 .03.01.06.03.07a2.38 2.38 0 0 0 1.89.92c.3 0 .58-.03.82-.08.24-.06.45-.16.65-.3.19-.12.33-.3.44-.52.1-.21.15-.48.15-.8 0-.32-.1-.63-.28-.9a2.1 2.1 0 0 0-.73-.67c.41-.1.74-.3.96-.58.23-.29.34-.64.34-1.07 0-.75-.2-1.3-.6-1.66-.41-.37-1-.55-1.75-.55a3 3 0 0 0-2.02.77z"/>
      <path d="m61.15 49.99-3.64-8.87c-.08-.19-.19-.28-.32-.28a.3.3 0 0 0-.2.08.27.27 0 0 0-.09.21c0 .04.02.12.07.22l3.63 8.86.06.15.1.1c.04.03.1.04.16.04.07 0 .14-.03.2-.08a.3.3 0 0 0 .1-.22.73.73 0 0 0-.08-.21zm1.07-5.88-.02.06c0 .03 0 .05.02.06l.41.67c.03.03.06.04.1.04.05 0 .08-.02.1-.06a1.45 1.45 0 0 1 1.33-.89c.3 0 .52.06.66.18.15.12.24.27.28.46a7.15 7.15 0 0 1 .03 1.43c-.03.2-.08.4-.16.56-.08.17-.21.26-.38.26-.26 0-.45-.05-.57-.15a2.3 2.3 0 0 1-.36-.39c-.12-.17-.23-.26-.33-.26h-.36c-.2.01-.3.12-.33.33v3.22c.02.2.13.31.33.33h2.96a.3.3 0 0 0 .23-.1.37.37 0 0 0 .1-.23v-.34c-.03-.2-.13-.31-.33-.34h-2V47.5a2.45 2.45 0 0 0 1.57-.04c.27-.1.47-.26.63-.45.17-.19.28-.42.37-.7a3.33 3.33 0 0 0-.05-1.96 1.83 1.83 0 0 0-1.25-1.17c-.3-.1-.65-.14-1.04-.14s-.76.1-1.1.29c-.35.2-.63.45-.84.78zM9 32.39a2.09 2.09 0 0 0 1.67-2.05c0-.55-.19-1.03-.55-1.44-.37-.41-.91-.62-1.65-.62-.81 0-1.45.17-1.93.53l-.45-.45c-.06-.05-.12-.08-.18-.08-.08 0-.13.02-.14.05a.5.5 0 0 0-.03.22v1.76c0 .12 0 .2.03.23.02.03.09.05.2.05l.12-.01c.03 0 .05-.02.07-.04l.02-.06.01-.12c.02-.33.11-.62.27-.85.17-.24.38-.4.63-.5a3.63 3.63 0 0 1 1.38-.28c.45 0 .78.12.97.35.2.23.29.5.29.78 0 .3-.13.59-.39.84a.7.7 0 0 1-.34.2c-.13.05-.42.12-.89.22-.58.13-.98.24-1.2.32a1.91 1.91 0 0 0-.61 3.12c.37.37.9.56 1.6.56.66 0 1.2-.17 1.66-.53l.43.42c.08.08.14.11.2.11.07 0 .12-.02.14-.05.02-.04.02-.1.02-.22v-1.77c0-.11 0-.19-.03-.22-.02-.03-.09-.05-.2-.05-.1 0-.15.01-.18.03a.68.68 0 0 0-.06.22 2 2 0 0 1-.44 1 1.6 1.6 0 0 1-.72.52c-.25.09-.52.13-.81.13-.44 0-.75-.1-.95-.32a1 1 0 0 1-.29-.7c0-.27.1-.5.3-.67.19-.17.4-.28.63-.34zm5.77-.07c-.16.04-.37.06-.62.06a1.19 1.19 0 0 1-.99-.47 1.36 1.36 0 0 1-.18-.48 3.7 3.7 0 0 1-.08-.85c0-1.24.45-1.87 1.34-1.87.59 0 .99.27 1.2.8l.08.12.16.02c.16 0 .23-.04.23-.13a.66.66 0 0 0-.07-.22c-.05-.1-.14-.24-.26-.4a1.4 1.4 0 0 0-.58-.4 2.38 2.38 0 0 0-.94-.17c-.74 0-1.32.2-1.75.6-.43.42-.65.95-.65 1.6 0 .62.2 1.15.61 1.58.41.43 1.02.65 1.84.65 1.12 0 1.68-.3 1.68-.89a.58.58 0 0 0-.18-.45.63.63 0 0 0-.84 0 .56.56 0 0 0-.19.45c0 .19.06.33.2.45zm6.7-1.83c0-.63-.21-1.14-.65-1.55a2.55 2.55 0 0 0-1.81-.61c-.78 0-1.39.2-1.82.6-.43.42-.65.93-.65 1.56 0 .66.22 1.21.66 1.64a2.5 2.5 0 0 0 1.8.63c.77 0 1.37-.21 1.82-.63.43-.43.65-.98.65-1.64zm-2.46-1.78c.2 0 .37.03.51.08.15.04.27.12.35.23.1.11.16.22.21.31.05.1.09.23.11.41a4.16 4.16 0 0 1 .04.86c0 .66-.06 1.1-.2 1.32-.2.33-.55.5-1.02.5-.52 0-.87-.2-1.06-.56a3.22 3.22 0 0 1-.17-1.26 13.02 13.02 0 0 1 .04-.86c.02-.18.06-.31.11-.41l.21-.3c.09-.12.2-.2.35-.24.14-.05.32-.08.52-.08zm5.69-.33c-.23.02-.68.03-1.33.03-.14 0-.55 0-1.22-.03v.46h.67v2.99c0 .17-.04.28-.1.32-.07.03-.26.05-.57.05v.46l1.6.08v-1.1c.27.73.7 1.1 1.29 1.1.27 0 .5-.08.71-.22a.66.66 0 0 0 .31-.58.55.55 0 0 0-.17-.43.62.62 0 0 0-.82 0 .56.56 0 0 0-.19.43c0 .17.07.32.19.45a.94.94 0 0 1-.59-.2c-.17-.12-.3-.28-.38-.49a3.12 3.12 0 0 1-.24-1.17v-1.7h.84zm6.14 2.11h-2.92c0-1.18.46-1.78 1.37-1.78.32 0 .6.07.86.22.25.14.42.32.53.56.03.08.05.14.08.16.02.03.08.04.16.04.15 0 .23-.06.23-.17a.6.6 0 0 0-.1-.27 1.59 1.59 0 0 0-.9-.77 2.6 2.6 0 0 0-.95-.15c-.76 0-1.37.2-1.83.62-.46.41-.69.95-.69 1.61 0 .63.21 1.16.64 1.57.42.42 1 .63 1.75.63.66 0 1.18-.17 1.53-.52.37-.36.55-.86.55-1.49 0-.12-.02-.2-.06-.22a.56.56 0 0 0-.25-.04zm-2.92.32h2.31c-.03 1.07-.42 1.6-1.16 1.6-.4 0-.7-.16-.92-.5-.13-.2-.2-.57-.23-1.1zm9.06 1.11c0-.2-.08-.38-.23-.53a.72.72 0 0 0-.53-.22c-.2 0-.38.07-.53.22a.72.72 0 0 0-.22.53c0 .2.07.39.22.53.15.15.33.23.53.23a.7.7 0 0 0 .53-.23.73.73 0 0 0 .23-.53zm0-2.78c0-.2-.08-.39-.23-.53a.73.73 0 0 0-.53-.23c-.2 0-.38.08-.53.23a.72.72 0 0 0-.22.53c0 .2.07.38.22.53.15.15.33.22.53.22a.7.7 0 0 0 .53-.22.73.73 0 0 0 .23-.53z"/>
      <path fill="#ff3b21" stroke="#ff3b21" stroke-miterlimit="10" stroke-width="1.13" d="M41.55 36.31h8.96v-9.63h-8.95z"/>
      <path fill="#fff" d="M46.68 34.4v-5.56h1.35v-.46c-.28.02-.93.03-1.93.03-1 0-1.64 0-1.92-.03v.46h1.35v5c-.4-.13-.82-.2-1.26-.2h-.2v.45h.2c.8 0 1.45.19 1.94.56.06.04.13.07.22.07.1 0 .18-.02.2-.07.03-.04.05-.12.05-.24z"/>
      <path d="M104.97 46.78v-2.81c0-.17-.02-.28-.05-.31-.04-.04-.14-.06-.3-.06-.15 0-.24.02-.28.05-.03.02-.06.1-.07.23a3.2 3.2 0 0 1-1.04 1.93 2.8 2.8 0 0 1-1.9.72 3.57 3.57 0 0 1-2.67-1c-.58-.6-.87-1.6-.87-3 0-1.32.26-2.29.77-2.92.63-.73 1.56-1.1 2.8-1.1.74 0 1.42.22 2.02.66.6.44.94 1.07.98 1.89 0 .1.03.16.08.18a.5.5 0 0 0 .22.04.5.5 0 0 0 .25-.05c.04-.03.06-.1.06-.23 0-.8-.36-1.52-1.1-2.16a4.15 4.15 0 0 0-2.82-.95c-1.6 0-2.88.43-3.83 1.3a4.3 4.3 0 0 0-1.43 3.33 4.3 4.3 0 0 0 1.43 3.34 5.5 5.5 0 0 0 3.83 1.29c.98 0 1.84-.3 2.57-.9l.87.78c.09.08.17.12.25.12.1 0 .17-.02.2-.07a.76.76 0 0 0 .03-.3zm7.94-5.9c0-.84-.3-1.54-.88-2.1a3.42 3.42 0 0 0-2.46-.83c-1.05 0-1.87.28-2.46.84a2.77 2.77 0 0 0-.87 2.1c0 .9.3 1.63.88 2.2.6.58 1.4.87 2.45.87 1.04 0 1.86-.29 2.45-.87.6-.57.89-1.3.89-2.2zm-3.34-2.4c.27 0 .5.03.7.1a1 1 0 0 1 .47.32 1.64 1.64 0 0 1 .43.98c.04.23.05.42.06.55v.6c0 .9-.08 1.5-.27 1.79-.28.44-.74.67-1.39.67-.7 0-1.17-.25-1.43-.76a4.3 4.3 0 0 1-.23-1.7v-.6l.06-.56a1.59 1.59 0 0 1 .43-.97 1 1 0 0 1 .48-.32c.19-.07.43-.1.7-.1zm4.36.17h.9v4.04c0 .24-.04.39-.13.44-.1.05-.35.07-.77.07v.61l2.25.11V42.5a2.4 2.4 0 0 0 2.29 1.42c.67 0 1.18-.15 1.51-.44.34-.3.5-.77.5-1.44v-3.39h.9v-.62a48.2 48.2 0 0 1-3.29 0v.62h.9v3.53c0 .47-.06.8-.18.99a.6.6 0 0 1-.54.28c-.48 0-.92-.18-1.33-.55-.4-.36-.62-.86-.62-1.52v-2.73h.9v-.62a47.97 47.97 0 0 1-3.29 0zm10.52 3.23c.57-.1.98-.18 1.23-.26.25-.07.49-.2.72-.37.48-.38.72-.85.72-1.39 0-.3-.05-.57-.14-.8-.1-.23-.23-.41-.4-.54a3.36 3.36 0 0 0-.5-.32 1.81 1.81 0 0 0-.58-.17 9.9 9.9 0 0 0-.47-.06l-.33-.02c-.63 0-1.14.14-1.54.42a5.53 5.53 0 0 0-.73-.42c-.1 0-.17.03-.2.08a.8.8 0 0 0-.04.3v1.42c0 .16.02.27.05.31.03.04.12.07.27.07.1 0 .17-.01.21-.03.04-.02.07-.07.1-.16a3.01 3.01 0 0 1 .48-.96c.13-.18.32-.31.56-.4.24-.1.52-.15.84-.15 1 0 1.5.32 1.5.98 0 .18-.05.34-.15.47a.92.92 0 0 1-.42.3 4 4 0 0 1-.89.25c-.42.07-.72.13-.89.17a2.88 2.88 0 0 0-1.14.55c-.34.3-.52.66-.52 1.1 0 .27.05.5.15.71.1.21.23.38.4.5.17.11.33.21.5.28.17.08.35.12.57.15a8.98 8.98 0 0 0 .79.07c.55 0 .99-.08 1.32-.25a3 3 0 0 0 .59.25c.1 0 .17-.03.2-.07a.72.72 0 0 0 .03-.3v-1.05c0-.16-.01-.26-.04-.3-.03-.04-.12-.06-.27-.06-.13 0-.21.02-.24.05-.03.04-.05.1-.06.21-.07.73-.59 1.1-1.54 1.1-.98 0-1.47-.27-1.47-.81a.6.6 0 0 1 .13-.38.8.8 0 0 1 .37-.25 6.78 6.78 0 0 1 .83-.22zm6.03 1.35V39.6c0-.75.25-1.13.75-1.13.22 0 .4.1.56.3.15.19.23.5.23.9v.67h.61v-.7c0-.48-.14-.89-.42-1.21a1.46 1.46 0 0 0-1.16-.49c-1.38 0-2.07.57-2.07 1.7v3.58h-1.07v.47c.61.01 1.09.28 1.43.8.34.52.51 1.13.52 1.84h.62v-2.5h1.9v-.61zm6.94-5.2c-.31.03-.92.04-1.8.04l-1.65-.04v.62h.9v4.04c0 .24-.05.39-.14.44a2.2 2.2 0 0 1-.76.07v.61l2.17.11v-1.48c.36.99.93 1.48 1.74 1.48.36 0 .69-.1.96-.29a.9.9 0 0 0 .42-.79.74.74 0 0 0-.24-.58.82.82 0 0 0-1.11 0 .74.74 0 0 0-.24.58c0 .24.08.44.25.61-.3 0-.58-.09-.8-.26-.23-.17-.4-.39-.51-.67a4.2 4.2 0 0 1-.33-1.58v-2.29h1.14zm7.98.94a2.02 2.02 0 0 0-1.87-1.02c-.74 0-1.32.13-1.74.37-.41.24-.62.68-.62 1.32v3.05c0 .24-.04.39-.13.44-.1.05-.35.07-.77.07v.61l2.39.11v-4.46c0-.4.06-.67.17-.82.11-.14.4-.21.88-.21s.87.16 1.17.48c.3.32.45.75.45 1.28v2.5c0 .24-.05.39-.14.44a2.2 2.2 0 0 1-.76.07v.61l2.39.11v-4.76c0-.24.05-.4.14-.44.1-.05.35-.07.76-.07v-.62l-2.31-.08zm5.57 4.95v-5.27h.8v-.62l-1.52.04-1.6-.04v.62h.9v4.04c0 .24-.04.39-.12.44-.1.05-.34.07-.74.07v.61zm.13 2.18c0-.29-.1-.52-.3-.72a.99.99 0 0 0-.72-.3c-.28 0-.52.1-.72.3a1 1 0 0 0-.3.72c0 .28.1.52.3.72.2.2.44.3.72.3a1.01 1.01 0 0 0 1.02-1.02zm5.04-8.07c-.31.03-.91.04-1.8.04l-1.65-.04v.62h.9v4.04c0 .24-.04.39-.14.44a2.2 2.2 0 0 1-.76.07v.61l2.17.11v-1.48c.36.99.94 1.48 1.74 1.48.36 0 .69-.1.97-.29a.9.9 0 0 0 .42-.79.75.75 0 0 0-.24-.58.84.84 0 0 0-1.12 0 .74.74 0 0 0-.24.58c0 .24.08.44.25.61-.3 0-.57-.09-.8-.26-.22-.17-.4-.39-.5-.67a4.51 4.51 0 0 1-.34-1.58v-2.29h1.14zm8.31 2.85h-3.95c0-1.6.62-2.4 1.86-2.4.42 0 .8.1 1.15.29.34.19.58.44.72.75a.7.7 0 0 0 .12.23c.03.03.1.05.2.05.22 0 .32-.08.32-.24a.8.8 0 0 0-.13-.35 2.14 2.14 0 0 0-1.22-1.04 3.5 3.5 0 0 0-1.28-.22c-1.04 0-1.87.29-2.48.85a2.8 2.8 0 0 0-.93 2.18c0 .85.28 1.56.85 2.13.57.56 1.37.85 2.38.85.9 0 1.59-.24 2.08-.7.48-.5.73-1.17.73-2.02 0-.17-.03-.27-.09-.3a.77.77 0 0 0-.33-.06zm-3.95.43h3.13c-.04 1.45-.57 2.18-1.57 2.18a1.4 1.4 0 0 1-1.24-.68 3.26 3.26 0 0 1-.32-1.5zm12.09 5.8v-8.46h.9v-.62l-1.61.04-1.61-.04v.62h.9v7.23c0 .24-.04.4-.14.44a2.2 2.2 0 0 1-.76.07V47Zm7.28-6.23h-3.95c0-1.6.61-2.4 1.85-2.4.43 0 .81.1 1.16.29.34.19.57.44.71.75a.7.7 0 0 0 .12.23c.04.03.1.05.2.05.22 0 .32-.08.32-.24 0-.07-.04-.2-.12-.35a2.14 2.14 0 0 0-1.23-1.04 3.5 3.5 0 0 0-1.27-.22c-1.04 0-1.87.29-2.49.85a2.8 2.8 0 0 0-.93 2.18c0 .85.29 1.56.86 2.13.57.56 1.36.85 2.37.85.9 0 1.6-.24 2.08-.7.49-.5.73-1.17.73-2.02 0-.17-.02-.27-.08-.3a.77.77 0 0 0-.33-.06zm-3.95.43h3.12c-.04 1.45-.56 2.18-1.57 2.18-.53 0-.94-.23-1.24-.68a3.31 3.31 0 0 1-.31-1.5zm11.91.57c.56-.1.97-.18 1.22-.26.25-.07.5-.2.73-.37.48-.38.72-.85.72-1.39 0-.3-.05-.57-.14-.8-.1-.23-.23-.41-.4-.54a3.36 3.36 0 0 0-.5-.32 1.81 1.81 0 0 0-.58-.17 9.9 9.9 0 0 0-.47-.06l-.33-.02c-.63 0-1.14.14-1.54.42a5.53 5.53 0 0 0-.74-.42c-.1 0-.17.03-.2.08a.8.8 0 0 0-.03.3v1.42c0 .16.01.27.04.31.04.04.12.07.27.07.1 0 .18-.01.22-.03.04-.02.07-.07.1-.16a2.68 2.68 0 0 1 .47-.96c.14-.18.33-.31.56-.4.25-.1.53-.15.85-.15 1 0 1.49.32 1.49.98 0 .18-.05.34-.14.47a.92.92 0 0 1-.42.3 4 4 0 0 1-.9.25c-.42.07-.71.13-.88.17a2.83 2.83 0 0 0-1.14.55c-.35.3-.52.66-.52 1.1 0 .27.05.5.14.71.1.21.23.38.4.5.17.11.34.21.5.28.17.08.36.12.57.15a9.48 9.48 0 0 0 .8.07c.54 0 .99-.08 1.31-.25a3 3 0 0 0 .6.25c.1 0 .17-.03.19-.07a.72.72 0 0 0 .04-.3v-1.05c0-.16-.02-.26-.05-.3-.03-.04-.12-.06-.27-.06-.12 0-.2.02-.24.05-.03.04-.05.1-.06.21-.07.73-.58 1.1-1.54 1.1-.98 0-1.46-.27-1.46-.81a.6.6 0 0 1 .12-.38c.08-.1.2-.19.38-.25l.4-.13.43-.09zm9.8 1.07-2.81-5.98c-.2-.42-.5-.79-.86-1.1-.38-.3-.8-.45-1.26-.45-.4 0-.72.12-1 .35-.26.24-.4.52-.4.85 0 .24.07.43.22.56.15.13.32.2.53.2.22 0 .4-.07.54-.21a.7.7 0 0 0 .21-.54c0-.34-.14-.57-.41-.69a1.26 1.26 0 0 1 1.38.49 5.99 5.99 0 0 1 .57.98l.3.62-2.45 5.2h-.84v.61a37.39 37.39 0 0 0 1.5-.04c.64 0 1.18.01 1.62.04v-.61h-.71l1.66-3.53 1.5 3.21c.05.04.07.1.07.16 0 .1-.2.16-.61.16v.61a12.13 12.13 0 0 1 2.22 0v-.61c-.27 0-.47-.01-.61-.04-.14-.02-.22-.04-.26-.08a.5.5 0 0 1-.1-.16zm1.91-4.3h.9v4.04c0 .24-.05.39-.14.44a2.2 2.2 0 0 1-.76.07v.61l2.25.11V42.5a2.41 2.41 0 0 0 2.3 1.42c1.12 0 1.78-.42 1.96-1.25.47.83 1.2 1.25 2.21 1.25.69 0 1.2-.15 1.53-.45.32-.3.48-.77.48-1.43v-3.39h.91v-.62a48.36 48.36 0 0 1-3.3 0v.62h.9v3.53c0 .48-.06.81-.18 1a.62.62 0 0 1-.55.27c-.47 0-.9-.18-1.32-.55a1.9 1.9 0 0 1-.62-1.52v-2.73h.9v-.62a47.74 47.74 0 0 1-3.3 0v.62h.9v3.53c0 .48-.06.81-.18 1a.61.61 0 0 1-.55.27 2 2 0 0 1-1.33-.55 1.9 1.9 0 0 1-.62-1.52v-2.73h.9v-.62a48.31 48.31 0 0 1-3.3 0zm17.42 7.1-1.98-1.06-.39.48.68.82.78.91c.21.23.42.34.62.34s.39-.08.55-.25a.8.8 0 0 0 .23-.56.6.6 0 0 0-.1-.34.64.64 0 0 0-.16-.2l-.23-.14zm.87-4.87h-3.95c0-1.6.62-2.4 1.86-2.4.42 0 .8.1 1.15.29.34.19.58.44.72.75.04.12.08.2.12.23.03.03.1.05.2.05.21 0 .32-.08.32-.24a.8.8 0 0 0-.13-.35 2.14 2.14 0 0 0-1.23-1.04 3.5 3.5 0 0 0-1.27-.22c-1.04 0-1.87.29-2.48.85a2.8 2.8 0 0 0-.93 2.18c0 .85.28 1.56.85 2.13.58.56 1.37.85 2.38.85.9 0 1.59-.24 2.08-.7.48-.5.73-1.17.73-2.02 0-.17-.03-.27-.09-.3a.78.78 0 0 0-.33-.06zm-3.95.43h3.13c-.05 1.45-.57 2.18-1.57 2.18-.53 0-.95-.23-1.25-.68a3.3 3.3 0 0 1-.3-1.5zm7.64 1.92V39.6c0-.75.25-1.13.76-1.13.2 0 .39.1.55.3.15.19.23.5.23.9v.67h.62v-.7c0-.48-.14-.89-.43-1.21a1.46 1.46 0 0 0-1.16-.49c-1.37 0-2.06.57-2.06 1.7v3.58h-1.08v.47c.62.01 1.09.28 1.43.8.34.52.51 1.13.52 1.84h.62v-2.5h1.9v-.61zm6.94-5.2c-.31.03-.91.04-1.8.04l-1.65-.04v.62h.9v4.04c0 .24-.04.39-.14.44a2.2 2.2 0 0 1-.76.07v.61l2.17.11v-1.48c.36.99.94 1.48 1.74 1.48.37 0 .69-.1.97-.29a.9.9 0 0 0 .42-.79.74.74 0 0 0-.25-.58.82.82 0 0 0-1.1 0 .74.74 0 0 0-.25.58c0 .24.08.44.25.61a1.4 1.4 0 0 1-1.3-.93 3.94 3.94 0 0 1-.34-1.58v-2.29h1.14zm5.2 5.89v-5.27h.8v-.62l-1.52.04-1.6-.04v.62h.9v4.04c0 .24-.04.39-.13.44a2 2 0 0 1-.73.07v.61zm.13 2.18c0-.29-.1-.52-.3-.72a.99.99 0 0 0-.72-.3c-.28 0-.52.1-.72.3a1 1 0 0 0-.3.72c0 .28.1.52.3.72.2.2.44.3.72.3a1 1 0 0 0 .72-.29c.2-.2.3-.44.3-.73zm6.65-6.2v1.8c0 .38-.15.76-.46 1.13-.31.38-.7.57-1.16.57-.46 0-.87-.2-1.22-.6-.36-.4-.53-1.03-.53-1.88 0-.82.15-1.44.46-1.86.31-.42.69-.63 1.13-.63.65 0 1.18.3 1.59.91.12.18.2.37.2.55zm2.31-4.4a47.74 47.74 0 0 1-3.29 0v.61h.9v2.55a2.73 2.73 0 0 0-1.83-.7 3.2 3.2 0 0 0-2.26.8 2.8 2.8 0 0 0-.88 2.18c0 .9.3 1.62.9 2.16.6.55 1.4.82 2.36.82a2.4 2.4 0 0 0 1.97-1.04l.7 1.04h.53v-7.8h.9zm5.81 3.47a2.03 2.03 0 0 0-1.88-1.02c-.74 0-1.32.13-1.74.37-.4.24-.62.68-.62 1.32v3.05c0 .24-.04.39-.13.44a2.2 2.2 0 0 1-.77.07v.61l2.4.11v-4.46c0-.4.05-.67.16-.82.12-.14.41-.21.88-.21.48 0 .87.16 1.17.48.3.32.45.75.45 1.28v2.5c0 .24-.04.39-.13.44-.1.05-.35.07-.77.07v.61l2.4.11v-4.76c0-.24.04-.4.13-.44.1-.05.35-.07.76-.07v-.62l-2.3-.08zm8.67 1.91h-3.95c0-1.6.62-2.4 1.86-2.4.43 0 .81.1 1.15.29.34.19.58.44.72.75a.7.7 0 0 0 .12.23c.03.03.1.05.21.05.2 0 .31-.08.31-.24a.8.8 0 0 0-.13-.35 2.17 2.17 0 0 0-1.22-1.04c-.37-.14-.8-.22-1.28-.22-1.03 0-1.86.29-2.48.85a2.82 2.82 0 0 0-.93 2.18c0 .85.29 1.56.86 2.13.57.56 1.36.85 2.37.85.9 0 1.6-.24 2.08-.7.49-.5.73-1.17.73-2.02 0-.17-.03-.27-.08-.3a.76.76 0 0 0-.34-.06zm-3.95.43h3.13c-.04 1.45-.57 2.18-1.57 2.18a1.4 1.4 0 0 1-1.24-.68 3.3 3.3 0 0 1-.32-1.5zm17.02-2.66v-.62l-2.4-.08v.64a2.86 2.86 0 0 0-1.83-.64 3.1 3.1 0 0 0-2.28.84 2.85 2.85 0 0 0-.85 2.13c0 .91.3 1.64.91 2.18.61.55 1.4.82 2.37.82.67 0 1.26-.2 1.76-.59v2.55c0 .24-.04.4-.13.44-.1.05-.35.07-.77.07V47l2.32.11v-7.95c0-.24.04-.4.13-.44.1-.05.35-.07.77-.07zm-2.4 4c-.4.53-.91.8-1.55.8a1.6 1.6 0 0 1-1.4-.68c-.23-.34-.34-.96-.34-1.85a15.95 15.95 0 0 1 .05-1.04c.03-.23.07-.41.15-.56.07-.14.16-.3.27-.44a1 1 0 0 1 .46-.34c.19-.08.41-.11.67-.11.67 0 1.24.31 1.7.95zm8.62-3.68a2.02 2.02 0 0 0-1.87-1.02c-.75 0-1.33.13-1.74.37-.41.24-.62.68-.62 1.32v3.05c0 .24-.05.39-.14.44-.1.05-.34.07-.76.07v.61l2.39.11v-4.46c0-.4.06-.67.17-.82.11-.14.4-.21.87-.21.49 0 .88.16 1.18.48.3.32.45.75.45 1.28v2.5c0 .24-.05.39-.14.44a2.2 2.2 0 0 1-.77.07v.61l2.4.11v-4.76c0-.24.04-.4.13-.44.1-.05.35-.07.77-.07v-.62l-2.32-.08zm9.86 3.37v-2.78a1 1 0 0 1 .02-.24 1.75 1.75 0 0 1 1.51-.9c.48 0 .9.21 1.25.63.34.41.52 1.04.52 1.9a3 3 0 0 1-.46 1.81c-.3.42-.69.64-1.15.64a2.02 2.02 0 0 1-1.66-.82.67.67 0 0 1-.03-.24zm.9-6.84a47.87 47.87 0 0 1-3.3 0v.61h.91v6.6c0 .24-.05.38-.14.42a2.5 2.5 0 0 1-.76.07v.61l2.31.11v-.64c.55.42 1.21.64 1.98.64.93 0 1.68-.27 2.24-.83.55-.54.83-1.26.83-2.14 0-.9-.3-1.63-.9-2.18a3.47 3.47 0 0 0-2.4-.82c-.63 0-1.19.2-1.67.6V36.1h.9zm12.09 5.38a2.8 2.8 0 0 0-.87-2.1 3.43 3.43 0 0 0-2.46-.83 3.4 3.4 0 0 0-2.46.84 2.77 2.77 0 0 0-.88 2.1c0 .9.3 1.63.89 2.2.59.58 1.4.87 2.45.87 1.03 0 1.85-.29 2.44-.87.6-.57.9-1.3.9-2.2zm-3.33-2.4c.27 0 .5.03.7.1a1 1 0 0 1 .47.32c.11.14.2.28.28.41.07.14.12.32.15.56a6.97 6.97 0 0 1 .06 1.16c0 .9-.1 1.5-.28 1.79-.27.44-.74.67-1.38.67-.7 0-1.18-.25-1.44-.76a4.3 4.3 0 0 1-.22-1.7v-.6c0-.13.03-.32.05-.56a2 2 0 0 1 .16-.56c.07-.13.16-.27.28-.41a.88.88 0 0 1 .47-.32c.2-.07.43-.1.7-.1zm6.69 5.44v-5.27h.8v-.62l-1.52.04-1.6-.04v.62h.9v4.04c0 .24-.04.39-.12.44-.1.05-.33.07-.73.07v.61zm.13 2.18c0-.29-.1-.52-.3-.72a1 1 0 0 0-.72-.3 1 1 0 0 0-.72.3 1 1 0 0 0-.3.72c0 .28.1.52.3.72.2.2.44.3.72.3a1 1 0 0 0 1.02-1.02zm1.7-7.45h.9v4.04c0 .24-.04.39-.13.44a2.2 2.2 0 0 1-.77.07v.61l2.25.11V42.5a2.4 2.4 0 0 0 2.3 1.42c.66 0 1.17-.15 1.5-.44.33-.3.5-.77.5-1.44v-3.39h.9v-.62a48 48 0 0 1-3.29 0v.62h.9v3.53c0 .47-.06.8-.18.99a.6.6 0 0 1-.53.28c-.48 0-.93-.18-1.34-.55a1.92 1.92 0 0 1-.61-1.52v-2.73h.9v-.62a48.1 48.1 0 0 1-3.3 0zm10.19 4.58V39.6c0-.75.25-1.13.76-1.13.2 0 .4.1.55.3.15.19.23.5.23.9v.67h.62v-.7c0-.48-.14-.89-.43-1.21a1.48 1.48 0 0 0-1.16-.49c-1.37 0-2.06.57-2.06 1.7v3.58h-1.07v.47c.6.01 1.08.28 1.42.8.34.52.52 1.13.53 1.84h.61v-2.5h1.91v-.61z"/>
      <path fill="#039" d="m330.55 46.95 1.23-8.04c.01-.11.03-.18.06-.2.02-.03.07-.04.15-.05a8.26 8.26 0 0 1 .8-.02.3.3 0 0 0 .16-.06c.05-.03.07-.09.07-.16 0-.12-.02-.2-.08-.27-.05-.06-.1-.1-.13-.1a12.25 12.25 0 0 1-1.07.01h-.46l-.44.01a34 34 0 0 1-.98-.02c-.5 0-.83-.02-.97-.02-.2 0-.3.08-.3.24 0 .12.04.21.09.27.05.05.1.09.16.1l.24.01c.36 0 .64.02.85.07l-.3 1.9h-3.53l-1.2-1.83c.19-.1.44-.14.76-.14.22 0 .34-.08.34-.23 0-.26-.12-.39-.36-.39a25.03 25.03 0 0 0-1.45.04c-.14 0-.35 0-.62-.02l-.62-.02a.23.23 0 0 0-.18.08.23.23 0 0 0-.07.16c0 .11.03.2.08.26s.1.1.15.1c.04.02.1.02.2.02.28 0 .53.03.71.09.18.05.3.1.36.16l.2.25 5.13 7.85c.09.15.16.24.24.27.07.04.19.06.33.06.17 0 .28-.02.33-.06.05-.05.1-.15.12-.32zM328.97 45l-2.46-3.76h3.03z"/>
      <path d="M97.83 25.09V22.3c0-.13.01-.2.02-.24.01-.04.06-.1.13-.19.39-.47.85-.7 1.38-.7.48 0 .9.2 1.24.62.35.41.53 1.04.53 1.9a3 3 0 0 1-.46 1.81c-.3.42-.69.64-1.15.64a2 2 0 0 1-1.66-.82.67.67 0 0 1-.03-.24zm.9-6.84a47.87 47.87 0 0 1-3.3 0v.61h.91v6.6c0 .24-.05.38-.14.42a2.5 2.5 0 0 1-.76.07v.61l2.31.11v-.64a3.2 3.2 0 0 0 1.98.64 2.85 2.85 0 0 0 3.07-2.97c0-.9-.3-1.63-.9-2.18a3.49 3.49 0 0 0-2.4-.81c-.63 0-1.19.2-1.67.58v-2.43h.9zm9.47 3.55c-.37-.73-1.02-1.1-1.95-1.1a5.25 5.25 0 0 0-1.59.27c-.28.1-.5.26-.67.47-.17.21-.26.46-.26.76 0 1.24 1.42 1.93 4.25 2.05v.45c0 1.02-.48 1.54-1.44 1.54a4.4 4.4 0 0 1-.94-.1c.2-.12.3-.34.3-.64a.76.76 0 0 0-.26-.6.85.85 0 0 0-1.13 0 .76.76 0 0 0-.26.6c0 .8.78 1.2 2.34 1.2.95 0 1.66-.18 2.15-.54.49-.37.73-.85.73-1.46v-2.82c0-.12.01-.2.03-.26.02-.05.09-.1.2-.15.13-.05.32-.07.57-.07l.17-.01a.23.23 0 0 0 .11-.08.33.33 0 0 0 .06-.21c0-.1-.02-.17-.06-.22a.21.21 0 0 0-.13-.08 1.8 1.8 0 0 0-.23-.01h-.63c-.32 0-.58.02-.78.09-.2.06-.34.15-.41.27-.08.12-.12.23-.14.3-.02.1-.03.2-.03.34zm-.22 2.04a5.29 5.29 0 0 1-1.96-.45c-.2-.1-.37-.26-.53-.47-.15-.2-.23-.44-.23-.7 0-.3.12-.54.35-.74.23-.2.51-.3.84-.3.12 0 .24.01.39.05.14.03.3.1.5.18.18.09.34.24.46.45.12.2.18.45.18.74zm6.58-3.05c-.32.02-.92.03-1.81.03l-1.65-.03v.61h.9v4.04c0 .24-.04.39-.13.44a2.3 2.3 0 0 1-.77.07v.61l2.17.11v-1.48c.36.99.94 1.48 1.74 1.48.37 0 .7-.1.97-.29a.9.9 0 0 0 .42-.79.72.72 0 0 0-.24-.57.82.82 0 0 0-1.1 0 .74.74 0 0 0-.25.57c0 .24.08.44.25.61-.31 0-.58-.09-.8-.26-.23-.17-.4-.39-.51-.66a4.33 4.33 0 0 1-.33-1.6V21.4h1.14zm10.55 0c-.3.02-.91.03-1.8.03l-1.65-.03v.61h.9v4.04c0 .24-.04.39-.13.44a2.3 2.3 0 0 1-.77.07v.61l2.17.11v-1.48c.36.99.94 1.48 1.74 1.48.37 0 .7-.1.97-.29a.9.9 0 0 0 .42-.79.73.73 0 0 0-.24-.57.82.82 0 0 0-1.11-.01.74.74 0 0 0-.25.58c0 .24.09.44.25.61-.3 0-.57-.09-.8-.26a1.5 1.5 0 0 1-.5-.66 4.19 4.19 0 0 1-.33-1.6V21.4h1.13zm7.16 1.01c-.38-.73-1.03-1.1-1.95-1.1a5.33 5.33 0 0 0-1.6.27c-.28.1-.5.26-.67.47-.17.21-.26.46-.26.76 0 1.24 1.42 1.93 4.26 2.05v.45c0 1.02-.48 1.54-1.44 1.54-.34 0-.66-.03-.95-.1.2-.12.3-.34.3-.64a.76.76 0 0 0-.26-.6.84.84 0 0 0-1.13 0 .75.75 0 0 0-.25.6c0 .8.78 1.2 2.34 1.2.94 0 1.66-.18 2.14-.54.49-.37.73-.85.73-1.46v-2.82c0-.12.01-.2.03-.26.02-.05.09-.1.21-.15.12-.05.31-.07.56-.07l.17-.01a.24.24 0 0 0 .11-.08.33.33 0 0 0 .06-.21c0-.1-.02-.17-.06-.22a.21.21 0 0 0-.13-.08l-.23-.01h-.63c-.32 0-.58.02-.78.09-.2.06-.34.15-.41.27-.07.12-.12.23-.14.3l-.02.34zm-.22 2.04a5.31 5.31 0 0 1-1.97-.45c-.2-.1-.37-.26-.53-.47-.15-.2-.23-.44-.23-.7 0-.3.12-.54.35-.74.23-.2.51-.3.85-.3.1 0 .24.01.38.05.14.03.31.1.5.18.19.09.34.24.46.45.12.2.19.45.19.74zm5.51 1.25V22.3c0-.13 0-.2.02-.24a1.76 1.76 0 0 1 1.51-.9c.48 0 .9.21 1.24.63.35.41.52 1.04.52 1.9 0 .79-.15 1.39-.45 1.81-.3.42-.69.64-1.15.64a2 2 0 0 1-1.66-.82.65.65 0 0 1-.03-.24zm.9-6.84a47.93 47.93 0 0 1-3.3 0v.61h.9v6.6c0 .24-.04.38-.13.42a2.2 2.2 0 0 1-.76.07v.61l2.31.11v-.64c.55.42 1.2.64 1.98.64a2.85 2.85 0 0 0 3.07-2.97c0-.9-.3-1.63-.9-2.18a3.5 3.5 0 0 0-2.4-.81c-.63 0-1.2.2-1.67.58v-2.43h.9zm7.46 6.84V22.3c0-.13 0-.2.02-.24 0-.04.05-.1.12-.19.4-.47.85-.7 1.39-.7.48 0 .89.2 1.24.62.35.41.53 1.04.53 1.9 0 .79-.16 1.39-.46 1.81-.31.42-.7.64-1.15.64a2 2 0 0 1-1.66-.82.67.67 0 0 1-.03-.24zm.9-6.84a47.87 47.87 0 0 1-3.3 0v.61h.9v6.6c0 .24-.04.38-.13.42a2.5 2.5 0 0 1-.77.07v.61l2.32.11v-.64c.55.42 1.2.64 1.97.64.94 0 1.68-.27 2.24-.83.56-.54.84-1.26.84-2.14 0-.9-.3-1.63-.91-2.18-.6-.54-1.4-.81-2.39-.81-.64 0-1.2.2-1.67.58v-2.43h.9zm12.08 5.38c0-.84-.3-1.54-.87-2.1a3.43 3.43 0 0 0-2.46-.82c-1.06 0-1.88.27-2.46.83a2.76 2.76 0 0 0-.88 2.1c0 .9.3 1.63.89 2.2.58.58 1.4.87 2.45.87 1.04 0 1.85-.29 2.44-.87.6-.57.9-1.3.9-2.2zm-3.33-2.4c.27 0 .5.03.7.1.2.06.35.17.47.32.11.14.2.28.28.41.07.14.12.32.15.56a6.13 6.13 0 0 1 .06 1.16c0 .9-.1 1.5-.28 1.8-.27.44-.74.66-1.38.66-.7 0-1.18-.25-1.44-.76a4.3 4.3 0 0 1-.22-1.7v-.6c0-.13.02-.32.05-.56a2 2 0 0 1 .16-.56c.07-.13.16-.27.28-.41a.96.96 0 0 1 .47-.32c.2-.07.43-.1.7-.1zm7.7-.44c-.31.02-.92.03-1.8.03l-1.65-.03v.61h.9v4.04c0 .24-.04.39-.13.44-.1.05-.35.07-.77.07v.61l2.17.11v-1.48c.36.99.94 1.48 1.74 1.48.37 0 .69-.1.97-.29a.9.9 0 0 0 .42-.79.74.74 0 0 0-.25-.57.83.83 0 0 0-1.11 0 .74.74 0 0 0-.24.57c0 .24.09.44.25.61-.3 0-.57-.09-.8-.26a1.5 1.5 0 0 1-.5-.66 4.3 4.3 0 0 1-.33-1.6V21.4h1.13zm5.1 5.19v-3.62c0-.75.26-1.13.76-1.13.21 0 .4.1.55.3.16.19.23.5.23.9v.67h.62v-.7c0-.48-.14-.89-.42-1.21a1.47 1.47 0 0 0-1.16-.48c-1.38 0-2.07.56-2.07 1.68v3.59h-1.07v.47c.6.02 1.09.28 1.42.8.34.52.52 1.13.53 1.84h.61v-2.5h1.91v-.61zm12.26-4.18c-.38-.73-1.03-1.1-1.95-1.1a5.3 5.3 0 0 0-1.6.27c-.28.1-.5.26-.67.47-.17.21-.26.46-.26.76 0 1.24 1.42 1.93 4.25 2.05v.45c0 1.02-.47 1.54-1.43 1.54-.34 0-.66-.03-.95-.1.2-.12.3-.34.3-.64a.76.76 0 0 0-.26-.6.85.85 0 0 0-1.13 0 .76.76 0 0 0-.25.6c0 .8.78 1.2 2.34 1.2.94 0 1.66-.18 2.14-.54.49-.37.74-.85.74-1.46v-2.82c0-.12 0-.2.02-.26.02-.05.09-.1.2-.15.13-.05.32-.07.57-.07l.17-.01a.24.24 0 0 0 .11-.08.33.33 0 0 0 .06-.21c0-.1-.02-.17-.06-.22a.21.21 0 0 0-.13-.08 1.8 1.8 0 0 0-.23-.01h-.63c-.32 0-.58.02-.78.09-.2.06-.34.15-.41.27-.07.12-.12.23-.14.3l-.02.34zm-.23 2.04a5.33 5.33 0 0 1-1.96-.45c-.2-.1-.37-.26-.53-.47-.15-.2-.23-.44-.23-.7 0-.3.12-.54.35-.74.23-.2.51-.3.85-.3.1 0 .23.01.38.05.14.03.3.1.5.18.19.09.34.24.46.45.12.2.18.45.18.74zm8.37-2.11c-.4-.68-1.02-1.02-1.88-1.02-.74 0-1.32.12-1.73.36-.41.24-.62.68-.62 1.32v3.05c0 .24-.05.39-.14.44-.1.05-.35.07-.76.07v.61l2.39.11v-4.46c0-.4.06-.67.17-.82.11-.14.4-.21.87-.21.48 0 .87.16 1.18.48.3.33.44.75.44 1.28v2.5c0 .24-.04.39-.13.44-.1.05-.35.07-.77.07v.61l2.4.11v-4.76c0-.24.04-.4.13-.44.1-.05.35-.07.77-.07v-.61l-2.32-.08zm9.86 3.36V22.3c0-.13 0-.2.02-.24a1.76 1.76 0 0 1 1.51-.9c.48 0 .9.21 1.25.63.34.41.52 1.04.52 1.9 0 .79-.16 1.39-.46 1.81-.3.42-.69.64-1.15.64a2 2 0 0 1-1.66-.82.67.67 0 0 1-.03-.24zm.9-6.84a48.1 48.1 0 0 1-3.3 0v.61h.91v6.6c0 .24-.05.38-.14.42a2.2 2.2 0 0 1-.76.07v.61l2.31.11v-.64c.55.42 1.21.64 1.98.64.93 0 1.68-.27 2.24-.83.55-.54.83-1.26.83-2.14 0-.9-.3-1.63-.9-2.18a3.49 3.49 0 0 0-2.4-.81c-.63 0-1.19.2-1.67.58v-2.43h.9zm12.09 5.38c0-.84-.3-1.54-.87-2.1a3.43 3.43 0 0 0-2.46-.82c-1.06 0-1.88.27-2.46.83a2.78 2.78 0 0 0-.88 2.1c0 .9.3 1.63.89 2.2.59.58 1.4.87 2.45.87 1.03 0 1.85-.29 2.44-.87.6-.57.9-1.3.9-2.2zm-3.33-2.4c.27 0 .5.03.7.1.2.06.35.17.47.32.11.14.2.28.28.41.07.14.12.32.15.56a5.73 5.73 0 0 1 .06 1.16c0 .9-.1 1.5-.28 1.8-.27.44-.74.66-1.38.66-.7 0-1.18-.25-1.44-.76a4.3 4.3 0 0 1-.22-1.7v-.6c0-.13.02-.32.05-.56a1.7 1.7 0 0 1 .44-.97.96.96 0 0 1 .47-.32c.2-.07.43-.1.7-.1zm6.69 5.44V21.4h.8v-.61l-1.52.03-1.6-.03v.61h.9v4.04c0 .24-.04.39-.12.44-.1.05-.34.07-.74.07v.61zm.13 2.18c0-.28-.1-.52-.3-.72a.98.98 0 0 0-.72-.3 1 1 0 0 0-.72.3 1 1 0 0 0-.3.72c0 .28.1.52.3.72.2.2.44.3.72.3a1 1 0 0 0 .72-.29c.2-.2.3-.44.3-.73zm1.7-7.45h.9v4.04c0 .24-.04.39-.13.44-.1.05-.35.07-.77.07v.61l2.25.11v-1.41a2.4 2.4 0 0 0 2.3 1.41c.66 0 1.17-.15 1.5-.44.33-.3.5-.77.5-1.44V21.4h.9v-.61a57.75 57.75 0 0 1-3.29 0v.61h.9v3.53c0 .47-.06.8-.18.99a.6.6 0 0 1-.53.28 2 2 0 0 1-1.34-.54 1.93 1.93 0 0 1-.61-1.53V21.4h.9v-.61a57.92 57.92 0 0 1-3.3 0zM227 25.98v-3.62c0-.75.25-1.13.76-1.13.2 0 .4.1.55.3.15.19.23.5.23.9v.67h.62v-.7c0-.48-.14-.89-.43-1.21a1.47 1.47 0 0 0-1.16-.48c-1.37 0-2.06.56-2.06 1.68v3.59h-1.08v.47c.62.02 1.09.28 1.43.8.34.52.51 1.13.53 1.84h.61v-2.5h1.91v-.61z"/>
      <path fill="#006400" d="M245.02 26.6c0-.68-.13-1.38-.4-2.08a6.86 6.86 0 0 0-1.16-1.94 6.16 6.16 0 0 0-4.59-2.02c-1.15 0-2.07.28-2.77.85-.7.56-1.04 1.39-1.04 2.49a6.28 6.28 0 0 0 1.01 3.27c.34.53.75 1 1.23 1.42a6.19 6.19 0 0 0 3.92 1.39c1.16 0 2.08-.3 2.77-.87.69-.58 1.03-1.42 1.03-2.5zM239 21.11c1.16 0 2.14.58 2.92 1.73.39.56.7 1.3.95 2.22.25.91.37 1.63.37 2.14 0 .77-.2 1.34-.62 1.7a2.2 2.2 0 0 1-1.53.55 3.4 3.4 0 0 1-2.73-1.37 6.36 6.36 0 0 1-1.08-2.33 9.68 9.68 0 0 1-.38-2.28c0-.79.19-1.38.57-1.76.4-.4.9-.6 1.53-.6z"/>
      <path d="M248.83 21.8a1 1 0 0 0-.3-.72.98.98 0 0 0-.72-.3c-.28 0-.52.1-.72.3-.2.2-.3.44-.3.73 0 .27.1.51.3.71.2.2.44.3.72.3a1 1 0 0 0 .72-.3c.2-.2.3-.44.3-.71zM6.77 20.34v-5.72h1.1v-.45c-.26.02-.85.03-1.78.03s-1.53-.01-1.8-.03v.45H5.4v5.72H4.3v.46a39.22 39.22 0 0 1 3.58 0v-.46zm3.59.54v-6.26h.67v-.45l-1.2.03-1.18-.03v.45h.67v5.35c0 .18-.04.29-.1.32-.07.04-.26.05-.57.05v.46zm7.04-6.71a20.26 20.26 0 0 1-2.54 0v.45h.66v3c0 .17-.03.28-.1.31-.07.04-.26.06-.57.06v.45l1.6.08v-1.1c.27.73.7 1.1 1.3 1.1.27 0 .5-.07.71-.21.2-.14.31-.34.31-.58a.54.54 0 0 0-.18-.43.58.58 0 0 0-.41-.16.6.6 0 0 0-.41.15.54.54 0 0 0-.18.44c0 .17.06.32.18.44a.94.94 0 0 1-.59-.19 1.14 1.14 0 0 1-.37-.49 2.84 2.84 0 0 1-.24-1.18v-1.69h.84zm6.14 2.1h-2.92c0-1.18.46-1.77 1.38-1.77.31 0 .6.07.85.21.25.14.43.33.53.56.03.09.06.14.08.16.03.03.08.04.16.04.16 0 .23-.05.23-.17a.65.65 0 0 0-.1-.26 1.6 1.6 0 0 0-.9-.77c-.27-.1-.58-.16-.94-.16-.77 0-1.38.21-1.84.63-.45.41-.68.95-.68 1.6 0 .63.2 1.16.63 1.58.42.42 1 .63 1.76.63.66 0 1.17-.18 1.53-.52.36-.36.55-.86.55-1.5 0-.11-.03-.19-.07-.22a.54.54 0 0 0-.25-.04zm-2.92.32h2.32c-.04 1.08-.42 1.61-1.16 1.61-.4 0-.7-.17-.92-.5a2.6 2.6 0 0 1-.24-1.1zm5.59.42c.42-.07.72-.13.9-.19.2-.05.37-.14.54-.27.36-.29.53-.63.53-1.03 0-.22-.03-.42-.1-.6a.91.91 0 0 0-.3-.4c-.12-.09-.25-.17-.37-.23s-.27-.1-.43-.12a4.46 4.46 0 0 0-.59-.06c-.46 0-.84.1-1.14.31a2.89 2.89 0 0 0-.54-.3c-.07 0-.12.01-.14.05a.53.53 0 0 0-.03.21v1.05c0 .13.01.2.03.24.03.03.1.05.2.05l.16-.02c.03-.02.05-.05.07-.12l.13-.36c.05-.1.13-.22.23-.35.1-.13.23-.23.41-.3.18-.08.39-.11.63-.11.73 0 1.1.24 1.1.72 0 .14-.04.25-.1.35a.68.68 0 0 1-.32.23 3.36 3.36 0 0 1-.65.18l-.66.12c-.13.03-.27.08-.42.14-.16.07-.3.16-.42.27-.26.22-.4.49-.4.81 0 .2.04.38.11.53.08.16.18.28.3.37.13.08.25.15.37.2.13.06.26.1.42.12l.35.04h.24c.4 0 .73-.05.97-.18.26.13.4.19.44.19.08 0 .12-.02.14-.06.02-.03.03-.1.03-.21v-.78c0-.12 0-.2-.03-.22-.02-.03-.09-.04-.2-.04-.1 0-.15 0-.18.03a.4.4 0 0 0-.04.16c-.05.54-.43.81-1.14.81-.72 0-1.08-.2-1.08-.6 0-.11.03-.2.09-.28a.6.6 0 0 1 .28-.18 3.24 3.24 0 0 1 .61-.17zm4.45.99v-2.66c0-.56.18-.84.56-.84.16 0 .29.07.4.22.12.14.18.36.18.67v.49h.45v-.51c0-.36-.1-.66-.3-.9-.22-.24-.5-.36-.87-.36-1.01 0-1.52.42-1.52 1.25V18h-.8v.34c.45.02.8.22 1.06.6.25.38.38.84.38 1.36h.46v-1.85h1.41V18zm6.69-1.73h-2.92c0-1.18.46-1.77 1.37-1.77.32 0 .6.07.85.21.25.14.43.33.53.56.03.09.07.14.09.16.03.03.08.04.16.04.15 0 .23-.05.23-.17a.62.62 0 0 0-.1-.26 1.6 1.6 0 0 0-.9-.77c-.28-.1-.6-.16-.95-.16a2.6 2.6 0 0 0-1.83.63c-.46.41-.69.95-.69 1.6 0 .63.21 1.16.63 1.58a2.4 2.4 0 0 0 1.76.63c.66 0 1.17-.18 1.53-.52a2 2 0 0 0 .55-1.5c0-.11-.02-.19-.07-.22a.57.57 0 0 0-.24-.04zm-2.92.32h2.3c-.02 1.08-.41 1.61-1.15 1.61-.4 0-.7-.17-.92-.5-.13-.2-.2-.57-.23-1.1z"/>
      <path fill="gray" stroke="gray" stroke-miterlimit="10" stroke-width="1.13" d="M41.76 22.1h8.96v-9.63h-8.96z"/>
      <path fill="#fff" d="m48.46 16.31-.3-2.14H44v.17l.02.2c.01.03.05.07.1.13l1.95 1.98c.7.71 1.05 1.38 1.05 2.02 0 .38-.12.7-.35.98-.22.26-.53.4-.93.4s-.73-.12-1-.34l.22-.08a.64.64 0 0 0 .21-.22.67.67 0 0 0 .12-.4c0-.22-.07-.4-.22-.52a.74.74 0 0 0-.47-.17.78.78 0 0 0-.47.17c-.15.1-.23.29-.23.54 0 .43.2.79.6 1.06.4.27.89.41 1.48.41.7 0 1.26-.17 1.7-.5.44-.34.67-.78.67-1.33 0-.22-.03-.42-.1-.6a1.56 1.56 0 0 0-.37-.54c-.18-.2-.35-.35-.5-.47l-.75-.57c-.3-.22-.77-.59-1.4-1.11h1.43c.58 0 .91.02.98.05.09.05.17.34.25.88z"/>
      <path d="M58.97 16.27h-2.92c0-1.18.46-1.77 1.37-1.77.32 0 .6.07.85.21.25.14.43.33.54.56.03.09.06.14.08.16.03.03.08.04.16.04.15 0 .23-.05.23-.17a.62.62 0 0 0-.1-.26 1.6 1.6 0 0 0-.9-.77 2.8 2.8 0 0 0-.94-.16c-.77 0-1.38.21-1.84.63-.46.41-.69.95-.69 1.6 0 .63.21 1.16.64 1.58.42.42 1 .63 1.75.63.66 0 1.17-.18 1.54-.52.36-.36.54-.86.54-1.5 0-.11-.02-.19-.07-.22a.57.57 0 0 0-.24-.04zm-2.92.32h2.3c-.02 1.08-.4 1.61-1.15 1.61-.4 0-.7-.17-.92-.5-.13-.2-.2-.57-.23-1.1zm5.59.42c.42-.07.72-.13.9-.19.19-.05.37-.14.54-.27.35-.29.53-.63.53-1.03 0-.22-.04-.42-.1-.6a.94.94 0 0 0-.3-.4 2.3 2.3 0 0 0-.37-.23c-.13-.06-.27-.1-.43-.12a4.38 4.38 0 0 0-.59-.06c-.46 0-.84.1-1.14.31a2.7 2.7 0 0 0-.25-.17c-.13-.09-.23-.14-.29-.14-.08 0-.12.02-.14.06a.53.53 0 0 0-.04.21v1.05c0 .13.02.2.04.24.02.03.09.05.2.05l.16-.02c.03-.02.05-.05.07-.12a2.18 2.18 0 0 1 .35-.71c.1-.13.24-.23.42-.3.17-.08.39-.11.62-.11.74 0 1.1.24 1.1.72 0 .14-.03.25-.1.35a.68.68 0 0 1-.31.23 3.03 3.03 0 0 1-.66.18l-.66.12-.42.14c-.15.07-.3.16-.42.27-.26.22-.38.49-.38.81 0 .2.03.38.1.53a.9.9 0 0 0 .3.37c.13.08.25.15.37.2.12.06.26.1.42.12l.35.04h.24c.4 0 .73-.05.97-.18.25.13.4.19.44.19.07 0 .12-.02.14-.06.02-.03.03-.1.03-.21v-.78c0-.12-.01-.2-.03-.22-.03-.03-.1-.04-.2-.04s-.16 0-.18.03a.28.28 0 0 0-.04.16c-.06.54-.43.81-1.15.81-.71 0-1.08-.2-1.08-.6 0-.11.03-.2.1-.28a.56.56 0 0 1 .28-.18 3.34 3.34 0 0 1 .61-.17zm4.38 0c.42-.07.72-.13.9-.19.19-.05.37-.14.55-.27.35-.29.53-.63.53-1.03 0-.22-.04-.42-.11-.6a.95.95 0 0 0-.3-.4 2.3 2.3 0 0 0-.37-.23 1.3 1.3 0 0 0-.42-.12 4.66 4.66 0 0 0-.6-.06c-.46 0-.84.1-1.13.31a2.78 2.78 0 0 0-.55-.3c-.07 0-.12.01-.14.05a.53.53 0 0 0-.03.21v1.05c0 .13.01.2.03.24.03.03.1.05.2.05l.16-.02c.03-.02.06-.05.07-.12l.13-.36c.05-.1.13-.22.23-.35.1-.13.24-.23.41-.3.18-.08.39-.11.63-.11.73 0 1.1.24 1.1.72 0 .14-.04.25-.1.35a.7.7 0 0 1-.31.23 3.13 3.13 0 0 1-.67.18l-.65.12-.42.14c-.16.07-.3.16-.42.27-.26.22-.39.49-.39.81 0 .2.04.38.1.53.08.16.18.28.3.37a2.32 2.32 0 0 0 .79.32l.36.04h.23c.4 0 .73-.05.98-.18.25.13.4.19.43.19.08 0 .13-.02.14-.06.02-.03.03-.1.03-.21v-.78c0-.12 0-.2-.03-.22-.02-.03-.09-.04-.2-.04-.1 0-.15 0-.17.03-.03.03-.04.08-.05.16-.05.54-.43.81-1.14.81-.72 0-1.08-.2-1.08-.6 0-.11.03-.2.09-.28a.6.6 0 0 1 .28-.18 3.34 3.34 0 0 1 .61-.17zm5.97-2.09c-.28-.54-.76-.8-1.44-.8-.2 0-.39 0-.58.03-.2.03-.4.09-.6.16-.21.07-.37.19-.5.34a.85.85 0 0 0-.19.56c0 .92 1.05 1.43 3.14 1.52v.33c0 .76-.35 1.14-1.06 1.14-.25 0-.48-.02-.7-.07.15-.1.22-.25.22-.47 0-.2-.07-.35-.19-.45a.63.63 0 0 0-.83 0 .56.56 0 0 0-.19.45c0 .6.57.89 1.73.89.7 0 1.22-.14 1.58-.4.37-.28.55-.64.55-1.09v-2.08l.01-.2c.02-.03.07-.07.16-.1.1-.04.23-.06.42-.06h.12a.16.16 0 0 0 .08-.06c.03-.04.05-.09.05-.16s-.02-.12-.05-.16c-.02-.03-.06-.06-.1-.06a.85.85 0 0 0-.16-.01h-.47c-.24 0-.43.02-.58.07-.14.04-.25.1-.3.2a.84.84 0 0 0-.1.23l-.02.25zm-.17 1.51a5.85 5.85 0 0 1-.9-.14c-.22-.05-.4-.12-.55-.2a1.23 1.23 0 0 1-.39-.34.87.87 0 0 1-.17-.53.7.7 0 0 1 .26-.54.92.92 0 0 1 .62-.22c.09 0 .18.01.29.04a2 2 0 0 1 .36.13c.14.07.26.18.35.33.09.15.13.34.13.55zm4.12 2.09v-3.9h.6v-.45l-1.13.03-1.18-.03v.45h.66v3c0 .17-.03.28-.1.31-.06.04-.24.06-.53.06v.45Zm.1 1.61a.72.72 0 0 0-.22-.53.75.75 0 0 0-1.07 0 .73.73 0 0 0-.22.53c0 .21.07.39.22.54a.75.75 0 0 0 1.29-.53zm2.86-3.12c.42-.07.72-.13.9-.19.19-.05.37-.14.54-.27.36-.29.54-.63.54-1.03 0-.22-.04-.42-.11-.6a.95.95 0 0 0-.3-.4 2.3 2.3 0 0 0-.37-.23 1.3 1.3 0 0 0-.42-.12 4.72 4.72 0 0 0-.6-.06c-.46 0-.84.1-1.13.31a2.54 2.54 0 0 0-.26-.17c-.13-.09-.23-.14-.29-.14-.07 0-.12.02-.14.06a.53.53 0 0 0-.03.21v1.05c0 .13.01.2.03.24.02.03.1.05.2.05l.16-.02c.03-.02.05-.05.07-.12l.13-.36c.05-.1.12-.22.23-.35.1-.13.23-.23.41-.3.18-.08.39-.11.63-.11.73 0 1.1.24 1.1.72 0 .14-.04.25-.1.35a.7.7 0 0 1-.32.23 3.37 3.37 0 0 1-.66.18l-.65.12-.43.14c-.15.07-.3.16-.41.27-.26.22-.39.49-.39.81 0 .2.04.38.1.53.08.16.17.28.3.37.13.08.25.15.37.2.12.06.27.1.42.12l.35.04h.24c.4 0 .73-.05.97-.18.25.13.4.19.44.19.08 0 .12-.02.14-.06.02-.03.03-.1.03-.21v-.78c0-.12 0-.2-.03-.22-.02-.03-.09-.04-.2-.04-.1 0-.15 0-.18.03a.28.28 0 0 0-.04.16c-.05.54-.43.81-1.14.81-.72 0-1.08-.2-1.08-.6 0-.11.02-.2.09-.28a.6.6 0 0 1 .28-.18 3.34 3.34 0 0 1 .61-.17z"/>
      <path fill="#c00" d="M345.81 16.97h-.9l-.36.93h-1.62l-.34-.93h-.87l1.58 4.07h.88zm-1.52 1.61-.56 1.51-.55-1.5zm1.95 1.75v.71h.78v-.71zm0-3.36v2.95h.78v-2.95zm4.28 0h-.72v.44c-.12-.17-.27-.3-.43-.38a1.1 1.1 0 0 0-.5-.13c-.33 0-.62.14-.86.42-.24.27-.37.65-.37 1.14 0 .5.12.88.36 1.14a1.16 1.16 0 0 0 1.75-.02v1.46h.77zm-2.08 1.54c0-.31.04-.54.13-.68a.6.6 0 0 1 .99-.08c.12.15.19.38.19.69 0 .34-.06.58-.18.73a.6.6 0 0 1-.48.22.6.6 0 0 1-.47-.22c-.12-.14-.18-.36-.18-.66zm4.56-.6.78-.13c-.1-.28-.26-.5-.47-.65a1.37 1.37 0 0 0-.82-.23c-.51 0-.89.17-1.13.51-.2.27-.3.6-.3 1.01 0 .5.13.88.39 1.15.25.28.58.42.97.42.44 0 .78-.15 1.03-.43.26-.3.38-.73.36-1.33h-1.95c0-.23.07-.42.2-.55a.58.58 0 0 1 .44-.19.5.5 0 0 1 .31.1.6.6 0 0 1 .19.33zm.04.79c0 .23-.06.4-.17.52a.52.52 0 0 1-.4.17.55.55 0 0 1-.43-.19.76.76 0 0 1-.16-.5zm5.7-1.73h-.72v.44c-.13-.17-.27-.3-.44-.38a1.1 1.1 0 0 0-.49-.13c-.34 0-.63.14-.87.42-.24.27-.37.65-.37 1.14 0 .5.12.88.36 1.14.23.26.53.39.89.39.33 0 .62-.14.86-.41v1.46h.77zm-2.08 1.54c0-.31.04-.54.13-.68.12-.2.3-.3.52-.3.18 0 .33.07.46.22s.2.38.2.69c0 .34-.07.58-.19.73a.59.59 0 0 1-.48.22.58.58 0 0 1-.46-.22c-.12-.14-.18-.36-.18-.66zm4.55-.6.78-.13c-.1-.28-.26-.5-.47-.65a1.38 1.38 0 0 0-.82-.23c-.5 0-.88.17-1.13.51-.2.27-.3.6-.3 1.01 0 .5.14.88.4 1.15.25.28.58.42.97.42.43 0 .78-.15 1.03-.43.25-.3.37-.73.36-1.33h-1.95a.8.8 0 0 1 .19-.55.62.62 0 0 1 .45-.19c.12 0 .23.03.3.1.09.07.15.18.2.33zm.04.79c0 .23-.05.4-.16.52a.54.54 0 0 1-.41.17.54.54 0 0 1-.43-.19.76.76 0 0 1-.16-.5zm1.36 1.22h.71v-.4c.27.31.58.47.93.47a1 1 0 0 0 .5-.12c.13-.08.25-.2.34-.35a1.08 1.08 0 0 0 .9.47c.2 0 .39-.05.54-.13a.76.76 0 0 0 .33-.39c.06-.13.1-.33.1-.61v-1.89h-.8v1.7c0 .28-.02.47-.07.55a.38.38 0 0 1-.34.17.57.57 0 0 1-.3-.1.56.56 0 0 1-.22-.29 2.16 2.16 0 0 1-.06-.61v-1.42h-.78v1.62c0 .29-.01.47-.04.55a.35.35 0 0 1-.13.19.42.42 0 0 1-.24.06.6.6 0 0 1-.32-.1.56.56 0 0 1-.21-.28 2.04 2.04 0 0 1-.06-.6v-1.44h-.78zm5.7-.9-.7.13c.07.28.2.5.4.63.2.14.48.2.87.2.34 0 .6-.03.77-.12a.75.75 0 0 0 .36-.3c.07-.13.1-.36.1-.7v-.92c0-.26.01-.45.04-.57.03-.12.07-.25.14-.4h-.77a2.31 2.31 0 0 0-.1.32 1.5 1.5 0 0 0-.44-.29c-.15-.07-.31-.1-.48-.1a1 1 0 0 0-.72.25.84.84 0 0 0-.26.63c0 .17.04.31.12.45.08.13.2.23.34.3.14.06.34.12.61.18.37.07.62.13.76.2v.06c0 .16-.04.27-.11.33-.08.06-.21.1-.42.1a.52.52 0 0 1-.32-.09c-.08-.05-.14-.15-.19-.29zm1.04-.63-.47-.12a1.43 1.43 0 0 1-.43-.13c-.1-.08-.15-.17-.15-.28 0-.1.04-.2.13-.28a.4.4 0 0 1 .3-.13.7.7 0 0 1 .4.14c.1.08.16.16.2.26l.02.39zm4.22-1.42h-.78v1.5c0 .32-.02.53-.05.63a.42.42 0 0 1-.17.21.46.46 0 0 1-.26.08.62.62 0 0 1-.36-.11.6.6 0 0 1-.23-.3 2.38 2.38 0 0 1-.06-.67v-1.34h-.78v2.95h.73v-.43c.25.33.57.5.96.5.18 0 .33-.04.48-.1a.83.83 0 0 0 .32-.23.8.8 0 0 0 .15-.33c.04-.12.05-.3.05-.52zm3.5 0h-.73v.44c-.12-.17-.27-.3-.43-.38a1.04 1.04 0 0 0-.5-.13c-.33 0-.62.14-.86.42-.24.27-.37.65-.37 1.14 0 .5.12.88.36 1.14a1.17 1.17 0 0 0 1.75-.02v1.46h.77zm-2.09 1.54c0-.31.05-.54.14-.68.12-.2.3-.3.52-.3.18 0 .33.07.45.22.13.15.2.38.2.69 0 .34-.06.58-.19.73a.59.59 0 0 1-.47.22.58.58 0 0 1-.46-.22c-.13-.14-.19-.36-.19-.66zm4.56-.6.78-.13c-.1-.28-.26-.5-.47-.65a1.38 1.38 0 0 0-.81-.23c-.52 0-.9.17-1.14.51-.2.27-.3.6-.3 1.01 0 .5.13.88.39 1.15.26.28.58.42.97.42.44 0 .79-.15 1.04-.43.25-.3.37-.73.36-1.33h-1.96a.8.8 0 0 1 .19-.55.6.6 0 0 1 .45-.19c.12 0 .23.03.31.1a.6.6 0 0 1 .19.33zm.04.79c0 .23-.06.4-.17.52a.53.53 0 0 1-.4.17.56.56 0 0 1-.43-.19.76.76 0 0 1-.16-.5zm-.95 1.68.4.83h.87l-.77-.83zm4.07-2.46.78-.14c-.1-.28-.25-.5-.47-.65a1.37 1.37 0 0 0-.81-.23c-.52 0-.9.17-1.14.51-.2.27-.3.6-.3 1.01 0 .5.13.88.39 1.15.26.28.58.42.97.42.44 0 .79-.15 1.04-.43.25-.3.37-.73.36-1.33h-1.95a.8.8 0 0 1 .18-.55.64.64 0 0 1 .45-.19.5.5 0 0 1 .32.1c.08.07.14.18.18.33zm.05.78a.8.8 0 0 1-.18.52.52.52 0 0 1-.4.17.55.55 0 0 1-.43-.19.76.76 0 0 1-.16-.5z"/>
      <path fill="#606060" d="M273.5 23.23V10.15c0-.94.75-1.7 1.7-1.7h58.56c.95 0 1.7.76 1.7 1.7v13.08c0 .94-.75 1.7-1.7 1.7H275.2a1.7 1.7 0 0 1-1.7-1.7z"/>
      <path fill="none" stroke="#000" stroke-linecap="round" stroke-linejoin="round" stroke-miterlimit="10" stroke-width=".57" d="M273.78 22.94V9.87c0-.95.76-1.7 1.7-1.7h58.57c.94 0 1.7.75 1.7 1.7v13.07a1.7 1.7 0 0 1-1.7 1.71h-58.57a1.7 1.7 0 0 1-1.7-1.7z"/>
      <path fill="#fff" d="m291.17 11.86-2.34 6.5h1.44l1.65-4.8 1.59 4.8h1.4l-2.34-6.5zm7.12 1.5 1.25-.2a2.03 2.03 0 0 0-.76-1.05 2.2 2.2 0 0 0-1.3-.36c-.8 0-1.41.27-1.81.81a2.7 2.7 0 0 0-.46 1.62c0 .79.2 1.4.61 1.84a2 2 0 0 0 1.54.66c.7 0 1.26-.23 1.67-.69.4-.47.6-1.18.58-2.13h-3.12c0-.37.1-.66.3-.87.19-.2.42-.3.71-.3.2 0 .37.05.5.15.13.11.23.28.3.52zm.08 1.26c-.01.36-.1.63-.28.83a.87.87 0 0 1-.65.28c-.27 0-.5-.1-.67-.3-.18-.2-.27-.47-.27-.81zm-1.97 2.92.6 1.34h1.4l-1.21-1.34zm5.42-5.68h-1.25v4.72h1.16v-.67c.2.31.38.52.54.62.16.1.33.15.54.15.28 0 .55-.08.82-.23l-.39-1.1c-.2.14-.4.21-.58.21a.7.7 0 0 1-.44-.14c-.12-.1-.22-.27-.29-.52a6.97 6.97 0 0 1-.11-1.59zm2.35 5.36v1.15h1.24v-1.15zm0-5.36v4.72h1.24v-4.72zm1.98 4.72h.69v.35c0 .4.04.7.13.89a1 1 0 0 0 .47.48c.22.12.5.19.86.19.35 0 .7-.06 1.04-.16l-.17-.88c-.2.05-.39.07-.57.07-.19 0-.32-.04-.4-.12-.07-.09-.11-.25-.11-.49v-.33h.93v-.98h-.93v-3.74h-1.25v3.74h-.7zm3.58.64v1.15h1.24v-1.15zm0-5.36v4.72h1.24v-4.72zm5.25 1.5 1.25-.2a2.09 2.09 0 0 0-.76-1.05 2.21 2.21 0 0 0-1.3-.36c-.81 0-1.42.27-1.82.81-.3.43-.46.97-.46 1.62 0 .79.2 1.4.61 1.84.41.44.93.66 1.55.66.7 0 1.26-.23 1.67-.69.4-.47.6-1.18.58-2.13h-3.13c0-.37.1-.66.3-.87.19-.2.43-.3.72-.3.2 0 .36.05.5.15a1 1 0 0 1 .3.52zm.07 1.26c0 .36-.1.63-.27.83a.86.86 0 0 1-.65.28c-.27 0-.5-.1-.68-.3-.18-.2-.26-.47-.26-.81zm3.45-2.76h-1.24v4.72h1.16v-.67a2 2 0 0 0 .53.62 1 1 0 0 0 .54.15c.29 0 .56-.08.83-.23l-.4-1.1c-.2.14-.4.21-.58.21a.72.72 0 0 1-.44-.14 1.1 1.1 0 0 1-.3-.52 7.4 7.4 0 0 1-.1-1.59z"/>
    </g>
  </g>
  <g clip-path="url(#t)" transform="matrix(.84387 0 0 -.84387 .8 281.45)">
    <g clip-path="url(#u)">
      <path fill="#ff4775" d="M.1 239.24h388.7V-.56H.1Z"/>
      <path fill="none" stroke="#c60" stroke-linecap="round" stroke-linejoin="round" stroke-miterlimit="10" stroke-opacity=".5" stroke-width="1.42" d="M268.78 127.3c0-56.43-45.74-102.17-102.17-102.17-56.42 0-102.16 45.74-102.16 102.17 0 56.42 45.74 102.16 102.16 102.16 56.42 0 102.17-45.74 102.17-102.16z"/>
      <path fill="none" stroke="#039" stroke-linecap="square" stroke-miterlimit="10" stroke-width="1.42" d="m255.26 175.6 5.69-5.68m-5.69 0 5.69 5.68"/>
      <path fill="#039" d="m269.54 177.26 4.55 7.64c.08.14.2.21.34.22.12 0 .2-.04.22-.13l.03-.18.79-8.17c.03-.22.08-.35.16-.4h.01c.1-.05.33-.07.68-.07.2 0 .3-.05.3-.14 0-.18-.08-.27-.23-.27l-1.47.04h-.01l-1.62-.04h-.02c-.12 0-.18.05-.18.14.07.17.18.26.32.27.62 0 .94.14.94.43l-.21 2.18h-3.28l-1-1.67a1.18 1.18 0 0 1-.18-.49c0-.27.2-.42.62-.45.13 0 .2-.05.2-.16 0-.16-.08-.25-.24-.25l-1.26.04h-.05l-1.1-.04h-.03c-.1 0-.16.05-.16.14 0 .16.06.25.2.25v.02h.07c.55.03 1 .27 1.35.7l.26.4zm1.56 1.93h3l-.42 4.31z"/>
      <path fill="none" stroke="#006400" stroke-linecap="square" stroke-miterlimit="10" stroke-width="1.42" d="m163.77 130.14 5.68-5.69m-5.68 0 5.68 5.69"/>
      <path fill="#006400" d="M172.3 143.39a5.7 5.7 0 0 0-1.43-3.75 6.08 6.08 0 0 0-3.03-2.07 4.56 4.56 0 0 0-1.22-.17c-1.09 0-1.95.38-2.57 1.15a3.57 3.57 0 0 0-.77 2.34c0 1.3.46 2.55 1.4 3.71a6.19 6.19 0 0 0 3.03 2.1c.42.14.84.2 1.26.2a3.1 3.1 0 0 0 2.6-1.2c.5-.63.74-1.4.74-2.31zm-5.6-5.65c.82 0 1.6.37 2.37 1.1a7.54 7.54 0 0 1 2.08 5.06c0 1.2-.4 2-1.2 2.43l-.04.01c-.3.16-.65.24-1.02.24a3.5 3.5 0 0 1-2.37-1.06c-.32-.28-.6-.6-.84-.98a7.52 7.52 0 0 1-1.19-4.01c0-1.12.34-1.92 1-2.41a2 2 0 0 1 1.2-.38z"/>
      <path fill="#fff" d="M145.26 226.74v8.14h2.46l1.47-5.55 1.46 5.55h2.47v-8.14h-1.53v6.4l-1.62-6.4h-1.57l-1.61 6.4v-6.4zm12.89 1.88 1.55-.26c-.2-.57-.5-1-.94-1.3-.43-.3-.97-.45-1.62-.45-1.03 0-1.8.33-2.28 1a3.41 3.41 0 0 0-.58 2.04c0 .97.26 1.74.76 2.29.52.55 1.16.83 1.94.83.88 0 1.57-.29 2.08-.87.5-.58.75-1.47.73-2.66h-3.91c.01-.46.14-.82.38-1.08.24-.26.53-.39.9-.39.24 0 .44.07.61.2.17.13.3.35.38.65zm.08 1.58c-.01.45-.12.79-.35 1.02-.22.24-.49.35-.8.35a1.1 1.1 0 0 1-.85-.36 1.4 1.4 0 0 1-.32-1.01zm4.32-3.46H161v5.9h1.45v-.84c.24.39.46.65.66.78s.43.2.68.2c.36 0 .7-.1 1.02-.3l-.48-1.36c-.26.17-.5.25-.73.25a.86.86 0 0 1-.55-.18c-.16-.12-.28-.34-.36-.65a9.48 9.48 0 0 1-.13-1.98zm8.07 4.16-1.53-.29a1.2 1.2 0 0 1-.36.7c-.19.16-.42.24-.71.24-.4 0-.7-.14-.93-.4-.24-.28-.35-.73-.35-1.35 0-.7.11-1.2.35-1.49.23-.28.55-.43.94-.43.3 0 .55.08.74.25.19.17.32.46.4.87l1.52-.26a2.66 2.66 0 0 0-.91-1.6 2.82 2.82 0 0 0-1.82-.53 2.7 2.7 0 0 0-2.06.81 3.2 3.2 0 0 0-.77 2.26c0 .98.26 1.74.77 2.28.52.54 1.21.81 2.1.81a2.8 2.8 0 0 0 1.7-.46c.42-.32.73-.78.92-1.41zm1.18 2.54v1.44h1.56v-1.44zm0-6.7v5.9h1.56v-5.9zm11.72 0h-1.45v.87a2.36 2.36 0 0 0-.85-.75 2.22 2.22 0 0 0-1-.25c-.66 0-1.25.27-1.73.81a3.36 3.36 0 0 0-.72 2.29c0 1 .23 1.76.7 2.28a2.3 2.3 0 0 0 3.5-.05v2.94h1.55zm-4.16 3.07c0-.62.08-1.08.25-1.35a1.2 1.2 0 0 1 1.98-.16c.25.3.38.76.38 1.36 0 .69-.13 1.17-.37 1.47-.25.3-.56.44-.94.44-.37 0-.68-.14-.93-.43-.25-.3-.37-.74-.37-1.33zm5.69 2.18-.3 1.5v1.39h1.7v-1.38l-.25-1.51zm3.87-1.16-1.4.26c.15.57.42 1 .81 1.27.39.28.96.41 1.73.41.7 0 1.22-.08 1.56-.25.34-.16.58-.37.72-.62s.2-.72.2-1.4l-.01-1.82a3.77 3.77 0 0 1 .35-1.94h-1.54c-.04.1-.1.26-.16.47l-.05.18a2.87 2.87 0 0 0-.85-.59c-.3-.13-.63-.2-.97-.2a2 2 0 0 0-1.43.5c-.36.33-.53.75-.53 1.25 0 .34.08.64.24.9.15.26.38.46.66.6.29.14.7.25 1.25.36.73.13 1.23.26 1.5.38v.16c0 .3-.07.5-.21.63-.15.13-.43.2-.84.2-.27 0-.5-.06-.65-.17-.16-.1-.28-.3-.38-.58zm2.09-1.25c-.2-.07-.52-.15-.95-.25a2.68 2.68 0 0 1-.84-.27.66.66 0 0 1-.31-.55c0-.21.08-.4.24-.56a.87.87 0 0 1 .63-.24c.27 0 .54.1.8.28.19.14.31.3.36.51.05.14.07.4.07.76zm5.77 3.06v-1.24h-1.06V229c0-.47 0-.75.03-.83a.3.3 0 0 1 .14-.2.44.44 0 0 1 .26-.08c.14 0 .35.06.63.16l.13-1.22a3.19 3.19 0 0 0-1.23-.23c-.28 0-.54.05-.77.14-.22.1-.38.22-.48.37-.11.15-.19.35-.23.6a8.1 8.1 0 0 0-.05 1.1v2.58h-.72v1.24h.72v1.17l1.57.9v-2.07zm3.79 0v-1.24h-1.07V229c0-.47.01-.75.03-.83a.3.3 0 0 1 .15-.2.43.43 0 0 1 .26-.08c.14 0 .35.06.63.16l.13-1.22a3.19 3.19 0 0 0-1.23-.23c-.29 0-.54.05-.77.14-.23.1-.39.22-.5.37-.1.15-.17.35-.21.6-.04.18-.05.55-.05 1.1v2.58h-.72v1.24h.72v1.17l1.56.9v-2.07zm4.5-4.02 1.54-.26c-.19-.57-.5-1-.94-1.3a2.8 2.8 0 0 0-1.61-.45c-1.03 0-1.8.33-2.28 1a3.41 3.41 0 0 0-.58 2.04c0 .97.25 1.74.76 2.29s1.16.83 1.94.83a2.6 2.6 0 0 0 2.07-.87c.5-.58.75-1.47.73-2.66h-3.9c0-.46.13-.82.38-1.08.23-.26.53-.39.89-.39a1 1 0 0 1 .62.2c.17.13.29.35.37.65zm.08 1.58a1.5 1.5 0 0 1-.35 1.02c-.22.24-.5.35-.8.35a1.1 1.1 0 0 1-.85-.36 1.4 1.4 0 0 1-.33-1.01zm8.19-3.46h-1.57v3.01a4.4 4.4 0 0 1-.1 1.23.84.84 0 0 1-.32.44.92.92 0 0 1-.55.15c-.27 0-.5-.07-.72-.22a1.1 1.1 0 0 1-.44-.59 4.95 4.95 0 0 1-.12-1.34v-2.68h-1.56v5.9h1.45v-.87c.52.67 1.16 1 1.94 1 .35 0 .66-.06.95-.19.28-.12.5-.28.64-.47.14-.2.24-.41.3-.66.06-.24.1-.6.1-1.04zm6.98 0h-1.45v.87a2.38 2.38 0 0 0-.85-.75 2.23 2.23 0 0 0-1-.25c-.67 0-1.25.27-1.73.81a3.36 3.36 0 0 0-.72 2.29c0 1 .23 1.76.7 2.28a2.3 2.3 0 0 0 3.49-.05v2.94h1.56zm-4.16 3.07c0-.62.08-1.08.26-1.35a1.19 1.19 0 0 1 1.97-.16c.25.3.38.76.38 1.36 0 .69-.13 1.17-.37 1.47-.25.3-.56.44-.94.44-.37 0-.68-.14-.93-.43-.25-.3-.37-.74-.37-1.33zm7.19-3.07h-1.56v5.9h1.45v-.84c.24.39.46.65.66.78s.43.2.68.2c.36 0 .7-.1 1.03-.3l-.49-1.36c-.26.17-.5.25-.72.25a.85.85 0 0 1-.56-.18c-.16-.12-.28-.34-.37-.65a9.78 9.78 0 0 1-.12-1.98zm6.34 1.88 1.55-.26c-.2-.57-.51-1-.94-1.3a2.8 2.8 0 0 0-1.62-.45c-1.02 0-1.79.33-2.28 1a3.44 3.44 0 0 0-.57 2.04c0 .97.25 1.74.76 2.29s1.16.83 1.94.83c.87 0 1.56-.29 2.07-.87.5-.58.75-1.47.73-2.66h-3.9c0-.46.13-.82.37-1.08a1.17 1.17 0 0 1 1.52-.19c.16.13.29.35.37.65zm.09 1.58a1.5 1.5 0 0 1-.35 1.02c-.22.24-.5.35-.8.35a1.1 1.1 0 0 1-.85-.36 1.4 1.4 0 0 1-.33-1.01zm5.98-3.46v8.14h1.56v-8.14zm3.15 5.25-.3 1.5v1.39h1.7v-1.38l-.26-1.51zm2.71 1.45v1.44h1.56v-1.44zm0-6.7v5.9h1.56v-5.9zm8.52 0h-1.57v3.01a4.7 4.7 0 0 1-.1 1.23.83.83 0 0 1-.31.44.94.94 0 0 1-.55.15 1.24 1.24 0 0 1-1.17-.8 5.1 5.1 0 0 1-.12-1.35v-2.68h-1.55v5.9h1.45v-.87a2.36 2.36 0 0 0 2.88.81c.28-.12.5-.28.65-.47.14-.2.24-.41.3-.66.06-.24.09-.6.09-1.04zm4.28 5.9v-1.24h-1.06V229c0-.47 0-.75.02-.83a.34.34 0 0 1 .14-.2.47.47 0 0 1 .27-.08c.14 0 .35.06.63.16l.14-1.22a3.2 3.2 0 0 0-1.25-.23c-.28 0-.53.05-.75.14-.23.1-.4.22-.5.37-.1.15-.18.35-.22.6a8.1 8.1 0 0 0-.05 1.1v2.58h-.72v1.24h.72v1.17l1.57.9v-2.07zm4.49-4.02 1.56-.26c-.2-.57-.51-1-.94-1.3a2.8 2.8 0 0 0-1.62-.45c-1.03 0-1.79.33-2.28 1a3.4 3.4 0 0 0-.58 2.04c0 .97.26 1.74.77 2.29.5.55 1.15.83 1.93.83.88 0 1.57-.29 2.07-.87.5-.58.75-1.47.73-2.66h-3.9c.01-.46.14-.82.37-1.08.25-.26.54-.39.9-.39.25 0 .45.07.62.2.17.13.29.35.37.65zm.1 1.58c-.02.45-.13.79-.36 1.02-.22.24-.49.35-.8.35a1.1 1.1 0 0 1-.85-.36 1.42 1.42 0 0 1-.33-1.01zm4.3-3.46h-1.56v5.9h1.46v-.84c.24.39.46.65.66.78s.43.2.68.2c.36 0 .7-.1 1.02-.3l-.48-1.36c-.26.17-.5.25-.73.25a.88.88 0 0 1-.56-.18 1.28 1.28 0 0 1-.36-.65 9.38 9.38 0 0 1-.12-1.98zm4.55 0-2.37 5.9h1.64l1.1-3.01.34-1a26.48 26.48 0 0 0 .32 1l1.12 3h1.6l-2.33-5.89zm8.12 1.88 1.56-.26c-.2-.57-.52-1-.95-1.3-.43-.3-.97-.45-1.61-.45-1.03 0-1.8.33-2.29 1a3.41 3.41 0 0 0-.58 2.04c0 .97.26 1.74.77 2.29.5.55 1.15.83 1.93.83a2.6 2.6 0 0 0 2.08-.87c.5-.58.75-1.47.73-2.66h-3.9c0-.46.13-.82.37-1.08.24-.26.54-.39.9-.39.24 0 .45.07.61.2.17.13.3.35.38.65zm.09 1.58c-.01.45-.13.79-.35 1.02-.23.24-.5.35-.8.35a1.1 1.1 0 0 1-.85-.36 1.45 1.45 0 0 1-.33-1.01zm8.18-3.46h-1.56v3.01a4.4 4.4 0 0 1-.1 1.23.86.86 0 0 1-.87.6 1.24 1.24 0 0 1-1.17-.82 4.95 4.95 0 0 1-.12-1.34v-2.68h-1.55v5.9h1.45v-.87c.51.67 1.16 1 1.94 1 .34 0 .66-.06.94-.19.29-.12.5-.28.65-.47.14-.2.24-.41.3-.66.06-.24.09-.6.09-1.04zm4.28 5.9v-1.24h-1.06V229c0-.47 0-.75.03-.83a.34.34 0 0 1 .14-.2.47.47 0 0 1 .26-.08c.14 0 .35.06.63.16l.14-1.22a3.2 3.2 0 0 0-1.24-.23c-.28 0-.54.05-.76.14-.23.1-.4.22-.5.37-.1.15-.17.35-.21.6-.04.18-.05.55-.05 1.1v2.58h-.73v1.24h.73v1.17l1.56.9v-2.07zm1.09.8v1.44h1.56v-1.44zm0-6.7v5.9h1.56v-5.9zm2.79 3.03c0 .52.13 1.03.39 1.5.26.5.62.87 1.08 1.12.47.25 1 .38 1.57.38a2.94 2.94 0 0 0 3.04-3.06c0-.9-.29-1.64-.86-2.22a2.91 2.91 0 0 0-2.17-.88c-.55 0-1.06.12-1.54.37-.49.24-.86.6-1.12 1.07a3.52 3.52 0 0 0-.39 1.72zm1.6-.08c0-.59.14-1.04.41-1.34.28-.32.63-.47 1.04-.47.4 0 .74.15 1.02.47.28.3.42.76.42 1.35 0 .58-.14 1.02-.42 1.34-.28.3-.62.46-1.02.46-.41 0-.76-.15-1.04-.46a1.99 1.99 0 0 1-.41-1.35zm11.07-2.95h-1.56v3.01c0 .64-.04 1.05-.1 1.23a.82.82 0 0 1-.33.44.92.92 0 0 1-.54.15 1.24 1.24 0 0 1-1.17-.8 5.1 5.1 0 0 1-.12-1.35v-2.68h-1.55v5.9h1.45v-.87a2.37 2.37 0 0 0 2.88.81c.28-.12.5-.28.65-.47.14-.2.24-.41.3-.66.06-.24.09-.6.09-1.04zm10.14 0h-1.44v.87a2.36 2.36 0 0 0-.86-.75 2.22 2.22 0 0 0-.99-.25c-.67 0-1.25.27-1.74.81a3.36 3.36 0 0 0-.72 2.29c0 1 .23 1.76.7 2.28a2.3 2.3 0 0 0 3.49-.05v2.94h1.56zm-4.16 3.07c0-.62.09-1.08.26-1.35a1.2 1.2 0 0 1 1.98-.16c.25.3.37.76.37 1.36 0 .69-.12 1.17-.37 1.47-.24.3-.56.44-.94.44-.37 0-.68-.14-.93-.43-.24-.3-.37-.74-.37-1.33zm9.58-3.07v.88a2.42 2.42 0 0 0-1.95-1.02c-.4 0-.76.1-1.07.27a1.6 1.6 0 0 0-.68.73 3.1 3.1 0 0 0-.22 1.3v3.74h1.57v-2.71c0-.83.02-1.34.08-1.52a.81.81 0 0 1 .31-.45.96.96 0 0 1 .58-.16 1.23 1.23 0 0 1 1.15.76c.08.22.11.75.11 1.59v2.49h1.57v-5.9zm6.18 5.9h1.45v-.87a2.2 2.2 0 0 0 1.84 1c.68 0 1.26-.27 1.73-.8.48-.54.72-1.28.72-2.25 0-.98-.24-1.75-.72-2.3a2.24 2.24 0 0 0-2.63-.62c-.26.14-.54.36-.83.67v-2.98h-1.56zm1.54-2.85c0-.67.13-1.15.4-1.47a1.16 1.16 0 0 1 1.85-.04c.25.3.37.77.37 1.43 0 .62-.13 1.08-.38 1.38-.24.3-.55.45-.92.45s-.7-.15-.95-.44c-.25-.3-.37-.73-.37-1.31zm6.93-3.05h-1.56v5.9h1.46v-.84c.24.39.46.65.66.78s.42.2.68.2c.35 0 .7-.1 1.02-.3l-.48-1.36c-.26.17-.5.25-.73.25a.89.89 0 0 1-.56-.18 1.2 1.2 0 0 1-.35-.65 9.02 9.02 0 0 1-.14-1.98zm2.57 3.03c0 .52.13 1.03.39 1.5.26.5.62.87 1.09 1.12.47.25.98.38 1.56.38a2.92 2.92 0 0 0 3.04-3.07c0-.89-.28-1.63-.85-2.21a2.93 2.93 0 0 0-2.18-.88c-.54 0-1.05.12-1.54.37-.5.24-.86.6-1.12 1.07a3.52 3.52 0 0 0-.39 1.72zm1.6-.08c0-.59.14-1.04.42-1.34a1.3 1.3 0 0 1 1.03-.47c.4 0 .75.15 1.02.47.28.3.42.76.42 1.35 0 .58-.14 1.02-.42 1.34-.27.3-.61.46-1.02.46-.41 0-.75-.15-1.03-.46a1.97 1.97 0 0 1-.42-1.35zm5.02 2.95h.87v.44c0 .5.06.87.16 1.11.1.25.3.44.58.6.29.15.64.23 1.07.23.45 0 .88-.07 1.31-.2l-.21-1.1a2.9 2.9 0 0 1-.72.1c-.23 0-.39-.06-.48-.16-.1-.1-.15-.31-.15-.6v-.42h1.16v-1.23h-1.16v-4.67h-1.56v4.67h-.87zm7.88-4.02 1.56-.26c-.2-.57-.51-1-.95-1.3a2.8 2.8 0 0 0-1.61-.45c-1.03 0-1.8.33-2.29 1a3.43 3.43 0 0 0-.57 2.04c0 .97.25 1.74.76 2.29s1.16.83 1.94.83a2.6 2.6 0 0 0 2.07-.87c.5-.58.75-1.47.74-2.66h-3.91c0-.46.13-.82.37-1.08.25-.26.55-.39.9-.39.25 0 .45.07.62.2.17.13.3.35.37.65zm.09 1.58c-.01.45-.13.79-.35 1.02-.22.24-.5.35-.8.35-.35 0-.63-.12-.84-.36a1.4 1.4 0 0 1-.33-1.01zm2.27-1.78 1.57.24c.07-.3.2-.53.4-.69.2-.16.49-.23.86-.23.4 0 .7.07.91.22.14.1.2.24.2.42a.4.4 0 0 1-.11.29c-.08.07-.25.14-.51.2a8.21 8.21 0 0 0-2.4.77c-.47.31-.7.75-.7 1.32 0 .51.2.94.6 1.29.4.35 1.04.52 1.88.52.8 0 1.4-.13 1.8-.4.4-.26.66-.65.81-1.16l-1.47-.27a.93.93 0 0 1-.36.53 1.3 1.3 0 0 1-.75.18c-.4 0-.7-.06-.88-.18a.37.37 0 0 1-.17-.3c0-.12.04-.21.14-.29.15-.1.63-.25 1.46-.44.83-.2 1.4-.43 1.74-.7.33-.27.49-.66.49-1.15a1.8 1.8 0 0 0-.67-1.4c-.46-.39-1.13-.58-2.01-.58-.8 0-1.44.16-1.9.49a2.2 2.2 0 0 0-.93 1.32zm6.32 0 1.57.24c.07-.3.2-.53.4-.69.2-.16.49-.23.86-.23.4 0 .7.07.91.22.14.1.2.24.2.42a.4.4 0 0 1-.1.29c-.09.07-.26.14-.52.2a8.18 8.18 0 0 0-2.4.77c-.47.31-.7.75-.7 1.32 0 .51.2.94.6 1.29.41.35 1.04.52 1.88.52.8 0 1.4-.13 1.8-.4.4-.26.67-.65.81-1.16l-1.47-.27a.95.95 0 0 1-.36.53 1.3 1.3 0 0 1-.75.18c-.41 0-.7-.06-.88-.18a.37.37 0 0 1-.18-.3c0-.12.06-.21.16-.29.14-.1.62-.25 1.45-.44a4.36 4.36 0 0 0 1.74-.7c.33-.27.5-.66.5-1.15 0-.54-.24-1.01-.69-1.4-.44-.39-1.11-.58-2-.58-.8 0-1.44.16-1.9.49-.48.32-.78.77-.93 1.32zm10.28.2 1.56-.26c-.2-.57-.51-1-.94-1.3a2.8 2.8 0 0 0-1.62-.45c-1.03 0-1.79.33-2.28 1a3.43 3.43 0 0 0-.57 2.04c0 .97.25 1.74.76 2.29.5.55 1.15.83 1.93.83a2.6 2.6 0 0 0 2.08-.87c.5-.58.74-1.47.73-2.66h-3.9c0-.46.13-.82.37-1.08.24-.26.54-.39.89-.39.25 0 .46.07.62.2.17.13.3.35.37.65zm.1 1.58c-.02.45-.13.79-.36 1.02-.22.24-.49.35-.8.35-.35 0-.63-.12-.84-.36a1.4 1.4 0 0 1-.33-1.01zm6.7-3.46v.88a2.4 2.4 0 0 0-1.95-1.02c-.4 0-.76.1-1.07.27-.32.18-.54.42-.69.73a3.2 3.2 0 0 0-.21 1.3v3.74h1.56v-2.71c0-.83.03-1.34.09-1.52a.81.81 0 0 1 .31-.45.95.95 0 0 1 .58-.16c.27 0 .5.07.71.22.22.14.36.32.44.54.07.22.11.75.11 1.59v2.49h1.56v-5.9zm4.55 0h-1.56v5.9h1.45v-.84c.25.39.47.65.67.78.2.13.42.2.67.2.36 0 .7-.1 1.03-.3l-.48-1.36c-.26.17-.5.25-.73.25a.86.86 0 0 1-.56-.18c-.16-.12-.27-.34-.36-.65a9.38 9.38 0 0 1-.13-1.98zm2.93 0v1.57h1.56v-1.57z"/>
      <path fill="#fff" fill-opacity=".05" d="M0 239.24h388v-240H0Z"/>
      <path fill="none" stroke="#fff" stroke-linecap="round" stroke-linejoin="round" stroke-miterlimit="10" stroke-opacity=".7" stroke-width="1.42" d="M-.46 239.81h389.84V-1.13H-.46Z"/>
    </g>
  </g>
</svg>
