<svg xmlns="http://www.w3.org/2000/svg" xmlns:xlink="http://www.w3.org/1999/xlink" xml:space="preserve" viewBox="0 0 96.69 181.14">
  <defs>
    <path id="a" d="M0 0h397.73v271.12H0Z"/>
  </defs>
  <defs>
    <clipPath id="b" clipPathUnits="userSpaceOnUse">
      <use xlink:href="#a"/>
    </clipPath>
    <clipPath id="c" clipPathUnits="userSpaceOnUse">
      <use xlink:href="#a"/>
    </clipPath>
    <clipPath id="d" clipPathUnits="userSpaceOnUse">
      <path d="M0 0h398v272H0Z"/>
    </clipPath>
  </defs>
  <path fill="#00c0c0" fill-opacity=".4" stroke="#000" stroke-miterlimit="10" stroke-width=".53" d="M.27 180.71V47.4L96.42.43v133.31Z"/>
  <path fill="#d3d3d3" fill-rule="evenodd" d="M15.83 151.09V61.81l65.03-31.76v89.28Zm.46-.97V62.33L80.4 31.02v87.78Z"/>
  <path fill="#ededed" d="M16.29 77.86V62.33L80.4 31.02v15.53Z"/>
  <path fill="none" d="M16.29 150.12V77.5L80.4 46.19v72.61Z"/>
  <path fill="#f8f8f8" d="M16.29 77.2v1.32L80.4 47.2v-1.3z"/>
  <path fill="none" stroke="#dcdcdc" stroke-miterlimit="10" stroke-width=".6" d="M.6 58.5h83.84M.6 58.05h83.84" transform="matrix(.76465 -.3735 0 -1.25275 15.83 151.09)"/>
  <g clip-path="url(#b)" transform="matrix(.16119 -.07873 0 -.26408 16.29 150.12)">
    <g clip-path="url(#c)">
      <g clip-path="url(#d)" opacity=".7" transform="matrix(1 0 0 -1 0 271.12)">
        <path fill="#fff" fill-opacity=".65" fill-rule="evenodd" d="M3.84 3.85H393.9V267.3H3.84Z"/>
      </g>
      <path fill="#069" d="m369.91 12.35 1.08-.26a3.63 3.63 0 0 0-1.22-2.03c-.58-.46-1.3-.7-2.15-.7-.88 0-1.59.19-2.14.55-.54.35-.96.87-1.25 1.54a5.52 5.52 0 0 0 .06 4.4 3.3 3.3 0 0 0 1.37 1.43c.6.33 1.26.5 1.97.5.82 0 1.5-.21 2.06-.62.55-.42.94-1 1.16-1.75l-1.06-.25a2.51 2.51 0 0 1-.82 1.29c-.36.27-.81.4-1.35.4-.63 0-1.15-.15-1.58-.44-.41-.3-.7-.7-.88-1.22a4.77 4.77 0 0 1-.25-1.55c0-.7.1-1.3.3-1.81.2-.52.52-.9.94-1.16a2.7 2.7 0 0 1 1.38-.38c.6 0 1.12.17 1.53.52.42.35.71.87.85 1.54zm1.9.1c0 1.09.3 1.9.9 2.42.52.44 1.13.66 1.86.66a2.6 2.6 0 0 0 1.99-.8c.51-.53.76-1.26.76-2.2a3.9 3.9 0 0 0-.34-1.78 2.33 2.33 0 0 0-.98-1.02 2.92 2.92 0 0 0-1.43-.36c-.82 0-1.5.27-2 .8-.5.52-.75 1.29-.75 2.28zm1.03 0c0-.76.16-1.32.49-1.7.33-.36.74-.55 1.24-.55s.91.19 1.24.56c.33.38.5.95.5 1.73 0 .72-.17 1.28-.5 1.65-.33.38-.75.57-1.24.57-.5 0-.91-.19-1.24-.57-.33-.37-.5-.94-.5-1.69zm5.66 4.04v1.14h1V16.5zm0-6.98v5.9h1V9.5zm2.52 0v5.9h.9v-.86a2.1 2.1 0 0 0 1.87.98c.36 0 .69-.07.98-.19.3-.13.53-.3.68-.5.14-.21.25-.46.3-.74.04-.19.06-.51.06-.97V9.5h-1v3.58c0 .41-.04.71-.12.91a.94.94 0 0 1-.42.49 1.61 1.61 0 0 1-1.8-.23c-.3-.27-.45-.78-.45-1.53V9.5zm11.28.95v-.95h-5.37a2 2 0 0 0 .12.69c.13.37.35.73.65 1.08.3.35.74.77 1.3 1.24a9.8 9.8 0 0 1 1.8 1.71c.31.43.47.82.47 1.2 0 .4-.14.73-.43 1-.28.28-.65.41-1.1.41-.49 0-.87-.14-1.16-.43-.29-.29-.43-.7-.43-1.2l-1.03.1c.07.77.34 1.35.8 1.75.45.4 1.07.61 1.85.61a2.6 2.6 0 0 0 1.84-.65c.45-.43.68-.97.68-1.6 0-.33-.06-.65-.2-.97a3.8 3.8 0 0 0-.66-1c-.3-.34-.82-.81-1.53-1.42-.6-.5-1-.85-1.16-1.02a2.98 2.98 0 0 1-.42-.55zM12.8 12.35l1.07-.26a3.6 3.6 0 0 0-1.22-2.03c-.58-.46-1.3-.7-2.15-.7-.88 0-1.59.19-2.14.55-.54.35-.96.87-1.25 1.54a5.52 5.52 0 0 0 .05 4.4c.33.63.78 1.1 1.38 1.43.6.33 1.26.5 1.97.5.82 0 1.5-.21 2.06-.62.55-.42.94-1 1.16-1.75l-1.06-.25a2.51 2.51 0 0 1-.82 1.29c-.36.27-.81.4-1.35.4-.63 0-1.16-.15-1.57-.44a2.3 2.3 0 0 1-.89-1.22 5.03 5.03 0 0 1 .05-3.37c.2-.5.52-.9.94-1.15a2.7 2.7 0 0 1 1.38-.38c.6 0 1.11.17 1.53.52.42.35.7.87.85 1.54zm1.9.1c0 1.09.3 1.9.9 2.42.5.44 1.13.66 1.85.66a2.6 2.6 0 0 0 1.99-.8c.5-.53.76-1.26.76-2.2 0-.75-.1-1.35-.33-1.78a2.35 2.35 0 0 0-1-1.02 2.93 2.93 0 0 0-1.42-.36c-.82 0-1.49.27-2 .8-.5.52-.75 1.29-.75 2.28zm1.01 0c0-.76.17-1.32.5-1.7a1.6 1.6 0 0 1 1.24-.55c.5 0 .91.19 1.24.56.33.38.5.95.5 1.73 0 .72-.17 1.28-.5 1.65a1.6 1.6 0 0 1-1.24.57c-.5 0-.92-.19-1.24-.57-.33-.37-.5-.94-.5-1.69zm5.67 4.04v1.14h1V16.5zm0-6.98v5.9h1V9.5zm2.52 0v5.9h.9v-.86a2.1 2.1 0 0 0 1.87.98c.36 0 .68-.07.98-.19.3-.13.53-.3.67-.5.15-.21.25-.46.31-.74.04-.19.06-.51.06-.97V9.5h-1v3.58c0 .41-.05.71-.12.91a.97.97 0 0 1-.41.49 1.62 1.62 0 0 1-1.8-.23c-.3-.27-.46-.78-.46-1.53V9.5zm9.8 0h-1v6.36a6.91 6.91 0 0 0-2-1.2v.96a6.1 6.1 0 0 1 1.47.95c.42.38.7.74.88 1.1h.65zM369.91 258.2l1.08-.27a3.63 3.63 0 0 0-1.22-2.03c-.58-.46-1.3-.7-2.15-.7-.88 0-1.59.18-2.14.54-.54.36-.96.88-1.25 1.55a5.5 5.5 0 0 0 .06 4.4c.32.63.78 1.1 1.37 1.43.6.33 1.26.5 1.97.5.82 0 1.5-.21 2.06-.63.55-.41.94-1 1.16-1.74l-1.06-.25a2.51 2.51 0 0 1-.82 1.29c-.36.27-.81.4-1.35.4-.63 0-1.15-.15-1.58-.45-.41-.3-.7-.7-.88-1.2a4.83 4.83 0 0 1-.25-1.56c0-.7.1-1.3.3-1.81.2-.52.52-.9.94-1.16.43-.26.89-.38 1.38-.38.6 0 1.12.17 1.53.52.42.35.71.87.85 1.54zm1.9.1c0 1.08.3 1.89.9 2.41.52.44 1.13.66 1.86.66.82 0 1.48-.27 1.99-.8s.76-1.27.76-2.2c0-.76-.1-1.35-.34-1.78a2.32 2.32 0 0 0-.98-1.02 2.87 2.87 0 0 0-1.43-.36c-.82 0-1.5.27-2 .8-.5.52-.75 1.29-.75 2.28zm1.03 0c0-.77.16-1.33.49-1.7.33-.37.74-.56 1.24-.56s.91.19 1.24.56c.33.38.5.95.5 1.73 0 .72-.17 1.27-.5 1.65a1.6 1.6 0 0 1-1.24.56c-.5 0-.91-.19-1.24-.56-.33-.38-.5-.94-.5-1.69zm5.66 4.03v1.14h1v-1.14zm0-6.98v5.89h1v-5.9zm2.52 0v5.89h.9v-.85a2.1 2.1 0 0 0 1.87.98c.36 0 .69-.07.98-.19.3-.13.53-.3.68-.5.14-.2.25-.45.3-.74.04-.19.06-.51.06-.98v-3.61h-1v3.58c0 .41-.04.71-.12.91a.92.92 0 0 1-.42.48 1.6 1.6 0 0 1-1.8-.23c-.3-.26-.45-.77-.45-1.52v-3.22zm6.05 2.14 1 .13c.11-.56.3-.97.58-1.22.28-.25.6-.37 1-.37.47 0 .87.16 1.19.49.32.32.48.73.48 1.2 0 .46-.14.84-.44 1.14-.3.3-.68.44-1.15.44a2.9 2.9 0 0 1-.7-.1l.11.87a2.07 2.07 0 0 1 1.31.32c.34.22.51.56.51 1.02 0 .37-.12.68-.37.92a1.3 1.3 0 0 1-.96.36c-.38 0-.7-.12-.97-.37a1.8 1.8 0 0 1-.5-1.1l-1 .19c.13.66.4 1.18.84 1.55.43.36.97.55 1.6.55.46 0 .87-.1 1.24-.29a2.04 2.04 0 0 0 1.15-1.82c0-.35-.1-.67-.28-.96-.2-.3-.47-.52-.84-.7.48-.1.86-.33 1.12-.68.26-.35.4-.79.4-1.31 0-.71-.26-1.31-.78-1.8a2.73 2.73 0 0 0-1.96-.75 2.45 2.45 0 0 0-2.58 2.29zm-374.27.71 1.07-.27a3.6 3.6 0 0 0-1.22-2.03c-.58-.46-1.3-.7-2.15-.7-.88 0-1.59.18-2.14.54-.54.36-.96.88-1.25 1.55a5.5 5.5 0 0 0 .05 4.4c.33.63.79 1.1 1.38 1.43.6.33 1.26.5 1.97.5.82 0 1.5-.21 2.06-.63.55-.41.94-1 1.16-1.74l-1.06-.25a2.5 2.5 0 0 1-.82 1.29c-.36.27-.81.4-1.35.4a2.6 2.6 0 0 1-1.57-.45c-.43-.3-.72-.7-.89-1.2a5.02 5.02 0 0 1 .05-3.37c.2-.52.52-.9.94-1.16.43-.26.89-.38 1.38-.38.6 0 1.11.17 1.53.52.42.35.7.87.85 1.54zm1.9.1c0 1.08.3 1.89.9 2.41.5.44 1.13.66 1.85.66.82 0 1.48-.27 1.99-.8.5-.53.76-1.27.76-2.2 0-.76-.1-1.35-.33-1.78a2.34 2.34 0 0 0-1-1.02 2.89 2.89 0 0 0-1.42-.36c-.82 0-1.49.27-2 .8-.5.52-.75 1.29-.75 2.28zm1.01 0c0-.77.17-1.33.5-1.7a1.6 1.6 0 0 1 1.24-.56c.5 0 .91.19 1.24.56.33.38.5.95.5 1.73 0 .72-.17 1.27-.5 1.65-.34.37-.75.56-1.24.56-.5 0-.92-.19-1.24-.56-.33-.38-.5-.94-.5-1.69zm5.67 4.03v1.14h1v-1.14zm0-6.98v5.89h1v-5.9zm2.52 0v5.89h.9v-.85c.43.65 1.06.98 1.87.98.36 0 .68-.07.98-.19.3-.13.53-.3.67-.5.15-.2.25-.45.31-.74.04-.19.06-.51.06-.98v-3.61h-1v3.58c0 .41-.05.71-.12.91a.95.95 0 0 1-.41.48 1.62 1.62 0 0 1-1.8-.23c-.3-.26-.46-.77-.46-1.52v-3.22zm9.24 0v1.94h-3.53v.92l3.7 5.26h.82v-5.26h1.1v-.92h-1.1v-1.94zm0 2.86v3.66l-2.55-3.66z"/>
      <path fill="none" stroke="#000" stroke-dasharray="4.26 4.26" stroke-linecap="round" stroke-linejoin="round" stroke-miterlimit="10" stroke-width="1.42" d="M3.84 267.27H393.9V3.83H3.84Z"/>
      <path d="m200.28 120.76-4.55 11.95h2.15l2.56-7.15c.28-.78.54-1.58.77-2.42.18.64.43 1.4.75 2.28l2.64 7.3h2.1l-4.53-11.96zm7.45 5.98c0 2.22.62 3.86 1.86 4.94a5.59 5.59 0 0 0 3.75 1.31c1.65 0 3-.54 4.04-1.62 1.03-1.08 1.56-2.57 1.56-4.46a7.9 7.9 0 0 0-.7-3.63 4.99 4.99 0 0 0-2-2.06 5.8 5.8 0 0 0-2.9-.74c-1.68 0-3.03.54-4.06 1.61-1.04 1.08-1.55 2.63-1.55 4.65zm2.09 0c0-1.53.33-2.68 1-3.44a3.2 3.2 0 0 1 2.52-1.14c1 0 1.84.38 2.5 1.15.68.77 1.02 1.93 1.02 3.5 0 1.47-.34 2.6-1.01 3.35a3.22 3.22 0 0 1-2.51 1.14 3.22 3.22 0 0 1-2.53-1.14c-.66-.76-1-1.9-1-3.42zm11.51 8.19v2.34h2.02v-2.34zm0-14.17v11.95h2.02v-11.95zm5.06 0v16.51h2.03v-16.51zm13.35 3.84 2.1-.25a5.21 5.21 0 0 0-1.83-2.85 5.53 5.53 0 0 0-3.43-1.02c-1.74 0-3.13.54-4.17 1.62-1.02 1.08-1.53 2.6-1.53 4.54 0 2 .52 3.56 1.55 4.68a5.24 5.24 0 0 0 4.03 1.67 5.1 5.1 0 0 0 3.92-1.64c1.02-1.08 1.53-2.61 1.53-4.58l-.01-.54h-8.92a4.5 4.5 0 0 1 1.11-3.02 3.3 3.3 0 0 1 2.49-1.05c.75 0 1.39.2 1.92.59.52.38.93 1 1.24 1.85zm-6.66 3.28h6.69c-.1 1-.35 1.76-.76 2.27a3.15 3.15 0 0 1-2.52 1.18 3.2 3.2 0 0 1-2.33-.94 3.8 3.8 0 0 1-1.08-2.5zm-77.25-.68v18.39h2.06v-1.73a5.07 5.07 0 0 0 1.64 1.51c.6.34 1.34.51 2.2.51a5.23 5.23 0 0 0 4.97-3.36c.46-1.06.68-2.22.68-3.48 0-1.36-.24-2.6-.73-3.68a5.4 5.4 0 0 0-2.14-2.5 5.44 5.44 0 0 0-2.93-.86c-.75 0-1.42.15-2.01.47-.6.32-1.09.72-1.48 1.2v-6.47zm2.04 11.65c0-1.7.35-2.97 1.04-3.78a3.2 3.2 0 0 1 2.53-1.22c1 0 1.86.42 2.57 1.26.71.84 1.07 2.16 1.07 3.94 0 1.68-.35 2.95-1.05 3.8a3.15 3.15 0 0 1-2.49 1.26c-.97 0-1.82-.45-2.56-1.34-.73-.9-1.1-2.22-1.1-3.92zm12.2-6.56v13.3h2.02v-2.03c.51.95 1 1.57 1.43 1.87.44.3.92.45 1.45.45.76 0 1.53-.24 2.31-.72l-.78-2.1c-.54.34-1.09.5-1.64.5-.49 0-.93-.15-1.33-.45a2.5 2.5 0 0 1-.84-1.24 9.02 9.02 0 0 1-.36-2.61v-6.97zm8.56 15.76v2.57h2.27v-2.57zm0-15.76v13.3h2.27v-13.3zm9.38 0-5.06 13.3h2.38l2.86-7.97c.3-.85.59-1.75.84-2.67.2.7.48 1.54.84 2.53l2.94 8.1h2.32l-5.02-13.3z"/>
      <path fill="none" stroke="#069" stroke-linecap="square" stroke-miterlimit="10" stroke-width="1.42" d="m391.06 264.43 5.67 5.68m-5.67-.01 5.67-5.67M391.06 6.67l5.67-5.68m-5.67.01 5.67 5.67M1 1l5.68 5.67M1 6.67 6.68.99M1 270.1l5.68-5.67m-5.68 0 5.68 5.68"/>
    </g>
  </g>
  <g font-family="Utopia" font-weight="700">
    <text font-size="10.04" style="-inkscape-font-specification:Utopia-Bold" transform="matrix(.76465 -.3735 0 1.25275 4.99 58.79)"><tspan x="0 6.75 12.2 15.31 21.3 27.61 34.92" y="0">Calquen</tspan></text>
    <text font-size="6.52" style="-inkscape-font-specification:Utopia-Bold" transform="matrix(.76465 -.3735 0 1.25275 36.59 39.73)"><tspan x="0" y="0">o</tspan></text>
    <text font-size="10.04" style="-inkscape-font-specification:Utopia-Bold" transform="matrix(.76465 -.3735 0 1.25275 40.97 41.21)"><tspan x="0" y="0">2</tspan></text>
  </g>
</svg>
