<svg xmlns="http://www.w3.org/2000/svg" xmlns:xlink="http://www.w3.org/1999/xlink" xml:space="preserve" viewBox="0 0 328.8 287.9">
  <defs>
    <path id="a" d="M0 0h414.4v57.3H0Z"/>
    <path id="b" d="M0 0h414.4v300.5H0Z"/>
  </defs>
  <defs>
    <clipPath id="c" clipPathUnits="userSpaceOnUse">
      <use xlink:href="#a"/>
    </clipPath>
    <clipPath id="d" clipPathUnits="userSpaceOnUse">
      <use xlink:href="#a"/>
    </clipPath>
    <clipPath id="f" clipPathUnits="userSpaceOnUse">
      <path d="M0 0h415v58H0Z"/>
    </clipPath>
    <clipPath id="g" clipPathUnits="userSpaceOnUse">
      <use xlink:href="#b"/>
    </clipPath>
    <clipPath id="h" clipPathUnits="userSpaceOnUse">
      <use xlink:href="#b"/>
    </clipPath>
    <radialGradient id="e" cx="230" cy="324.3" r="190" fx="230" fy="324.3" gradientTransform="matrix(.05 -.05 .05 .05 343 20.9)" gradientUnits="userSpaceOnUse" spreadMethod="pad">
      <stop offset="0" stop-color="#8c8c8c"/>
      <stop offset=".4" stop-color="#9cbdcc"/>
      <stop offset=".5" stop-color="#8c8c8c"/>
      <stop offset=".7" stop-color="#fff"/>
      <stop offset=".9" stop-color="#8c8c8c"/>
      <stop offset="1" stop-color="#9cbdcc"/>
    </radialGradient>
  </defs>
  <path fill="#d3d3d3" fill-rule="evenodd" d="M0 287.9V0h328.8v287.9Zm.8-.8V.8H328v286.3Z"/>
  <path fill="#ededed" d="M.8 48V.7H328v47.1z"/>
  <path fill="#fff" d="M.8 287V47.6H328v239.6Z"/>
  <path fill="#f8f8f8" d="M.8 46v3.8H328V46z"/>
  <path fill="none" stroke="#dcdcdc" stroke-miterlimit="10" stroke-width=".8" d="M.8 46.4H328M.8 49.4H328"/>
  <g clip-path="url(#c)" transform="matrix(.79 0 0 -.79 .8 46)">
    <g clip-path="url(#d)">
      <path fill="url(#e)" d="M361.6 18.1a11.3 11.3 0 1 0 16 16 11.3 11.3 0 0 0-16-16zm3.3 3.4a6.5 6.5 0 1 1 9.3 9.2 6.5 6.5 0 0 1-9.3-9.2z" transform="matrix(1 0 0 -1 0 57.3)"/>
      <path fill="none" stroke="#a0a0a0" stroke-width=".2" d="M361.6 39.1a11.3 11.3 0 1 1 16-16 11.3 11.3 0 0 1-16 16zm3.3-3.3a6.5 6.5 0 1 0 9.3-9.3 6.5 6.5 0 0 0-9.3 9.3z"/>
      <g clip-path="url(#f)" opacity=".8" transform="matrix(1 0 0 -1 0 57.3)">
        <path fill="red" stroke="red" stroke-linecap="round" stroke-linejoin="round" stroke-width=".2" d="M361.6 18.1c-.9.9-1.6 1.9-2.1 3l4.2 2a6.6 6.6 0 0 1 3-2.9l-2.2-4.2c-1 .5-2 1.2-3 2.1zm-2.1 13a11.2 11.2 0 0 0 5 5l2.1-4.2a6.6 6.6 0 0 1-2.9-2.9zM374.6 16l-2.1 4.2a6.5 6.5 0 0 1 2.9 3l4.3-2.2a11.3 11.3 0 0 0-5.1-5zm-2.1 16 2.1 4.2a11.2 11.2 0 0 0 5-5l-4.2-2.2a6.5 6.5 0 0 1-3 3z"/>
      </g>
      <path d="M7.8 43.9c-2.2 0-3.2 1.1-3.2 3.5 0 .7 0 1.4.3 2 .2.4.6.9 1 1.2.5.2 1.1.4 1.9.4.8 0 1.4-.2 1.9-.4.4-.3.8-.8 1-1.3.2-.5.3-1.2.3-2v-1.1l-.5-1c-.2-.4-.4-.6-.8-.9l.8-.9v-.3H9.3l-.4.1-.5.7h-.6Zm-.5 1.7v.4h1.2l.6-.7.3.6.2.7v.9a5 5 0 0 1-.3 2c-.3.5-.8.8-1.5.8s-1.2-.3-1.5-.8a6.4 6.4 0 0 1-.2-3.4c.1-.4.3-.7.6-1 .2-.2.6-.3 1.1-.3H8zm4.9-.3v2.9c0 .2.1.3.3.3h.7l.2-.1.2-.2v-3.4l.1-.1.5-.1c.2 0 .3 0 .5.2l.3.4.1.5v2.5c0 .2.2.3.4.3h.7c.2 0 .3-.1.3-.3v-3.8c0-.2-.1-.3-.3-.3h-.7c-.2 0-.3.1-.3.3v.4l-.6-.6c-.2-.2-.5-.2-.7-.2h-.7l-.5.2a1 1 0 0 0-.4.4l-.1.7zm5.1 1 .2 1a1.8 1.8 0 0 0 1.2 1.2l1 .2c1.3 0 2-.8 2-2.2a.4.4 0 0 0-.4-.4h-2.7c0-.4.1-.7.3-1 .2-.3.5-.4 1-.4s1 .2 1.5.6h.1l.1-.7v-.2a3.6 3.6 0 0 0-1.8-.4c-.5 0-1 0-1.3.2-.4.2-.7.5-.9.8-.2.4-.3.8-.3 1.3zm1.3.4h2c0 .8-.3 1.2-1 1.2a.9.9 0 0 1-.7-.3l-.3-.9zm3.8-2.3-.1.2.1.8.2.1a1.8 1.8 0 0 1 1.5-.7h.5l.2.5c0 .1 0 .2-.2.3a1 1 0 0 1-.3.2h-.6a2 2 0 0 0-1 .5c-.2.3-.4.6-.4 1 0 .3.1.6.3.8.1.2.3.4.6.4l.9.2 1-.2c.3 0 .5-.1.5-.3v-.7l-.2-.1c-.5.4-1 .5-1.4.5a1 1 0 0 1-.5 0l-.2-.4c0-.1 0-.2.2-.3l.3-.1.6-.2.7-.2.5-.5.2-.7c0-.6-.1-1-.4-1.2A2 2 0 0 0 24 44a3.4 3.4 0 0 0-1.7.4zm5.5-.4c-.7 0-1 .5-1 1.5v2.3h-.3c-.2 0-.3.1-.4.3 0 .3.2.4.4.4h.3v1l.3.3h.7a.3.3 0 0 0 .3-.4v-.9h1c.1 0 .3-.1.3-.3V48c0-.2-.2-.3-.3-.3h-1v-2.1c0-.6 0-1 .3-1l.4.1.3.2.2.1h.1l.2-.5-.1-.2c-.6-.3-1.2-.4-1.7-.4zm2.6.4v3.8c0 .2.2.3.4.3h.6l.2-.1.1-.2v-3.8c0-.2 0-.3-.3-.3H31c-.2 0-.4.1-.4.3Zm.3 5.1c-.2 0-.3.1-.3.3v.7c0 .2 0 .3.3.3h.8l.2-.1.1-.2v-.7c0-.2-.1-.3-.3-.3zm1.9-3.3c0 .6.1 1 .3 1.4.2.3.4.6.8.8.3.2.8.3 1.3.3s1-.1 1.3-.3l.8-.8.2-1.4-.1-1-.5-.7a2 2 0 0 0-.7-.4l-1-.1c-.5 0-1 0-1.3.2-.4.2-.6.4-.8.8-.2.3-.3.7-.3 1.2zm2.4-1.4c.3 0 .5 0 .7.2l.2.5a5.8 5.8 0 0 1 0 1.7c0 .2-.1.4-.3.5-.1.2-.3.2-.6.2s-.6 0-.7-.2a.9.9 0 0 1-.3-.5v-1.7c0-.2.1-.4.3-.5.1-.2.4-.2.7-.2zm3.2-.4v3.8l.1.3h1.1v-.8c.2.2.4.5.7.6.3.2.6.3 1 .3l.8-.1.4-.5.2-.8v-2.8c0-.2-.2-.3-.4-.3h-.6c-.2 0-.4.1-.4.3v3.3l-.5.2c-.2 0-.4 0-.6-.2l-.3-.4-.2-.6v-2.3a.4.4 0 0 0-.3-.3h-.7c-.2 0-.3.1-.3.3z"/>
      <path stroke="#000" stroke-miterlimit="10" stroke-width="1.1" d="M47 52.5h8.6V42.4H47z"/>
      <path fill="#fff" d="m49.5 44.4.1.3.2.1h1v5c-.4-.2-.7-.2-1-.2h-.3l-.1.3c0 .3.1.4.3.4.7 0 1.2.2 1.6.6h.7v-6.1h1.1v-.3c0-.3 0-.4-.2-.4h-3c-.3 0-.4.1-.4.3z"/>
      <path d="M61 50.8 57.4 42l-.3-.2h-.2v.5l3.6 8.8v.2h.2l.1.1h.2l.1-.3v-.2zm1.1-5.8.4.7h.2c.2-.3.3-.5.6-.6.2-.2.5-.3.8-.3.3 0 .5 0 .6.2.2.1.3.3.3.5v1.4l-.1.5c-.1.2-.2.3-.4.3l-.6-.1a2 2 0 0 1-.3-.4l-.4-.3H63c-.2 0-.3.1-.4.3v3.3c0 .2.2.3.4.3h3l.2-.1V50c0-.2 0-.3-.3-.3h-2v-1.5l.7.1 1-.1.5-.5.4-.7a3.4 3.4 0 0 0 0-2 1.8 1.8 0 0 0-1.3-1c-.3-.2-.6-.2-1-.2s-.8 0-1.1.3c-.4.1-.7.4-.9.7z"/>
      <path fill="#039" d="M134.8 43.2h-1.4v.7h5.6a4.4 4.4 0 0 0 4.5-4.6c0-1.4-.4-2.4-1.3-3.2a4.4 4.4 0 0 0-3.2-1.2h-5.6v.6h1.4zm1.7-7.7h2c1.1 0 2 .4 2.5 1.1l.5 1v1.7c0 1.3 0 2.2-.5 2.8-.5.8-1.4 1.1-2.6 1.1h-1.9zm13.3 7.1-2-1-.3.4.7.8a47.5 47.5 0 0 0 1.3 1.3c.3 0 .4 0 .6-.3l.2-.5v-.4l-.2-.2-.3-.1zm.9-4.9h-4c0-1.6.7-2.4 2-2.4.3 0 .7.1 1 .3.4.2.6.5.8.8l.1.2h.2c.2 0 .3 0 .3-.2l-.1-.3c0-.2-.2-.4-.4-.6l-.8-.5-1.3-.2c-1 0-1.9.3-2.5.9-.6.5-1 1.2-1 2.1a3 3 0 0 0 1 2.2c.5.5 1.3.8 2.3.8 1 0 1.6-.2 2.1-.7.5-.5.7-1.2.7-2v-.3h-.4zm-4 .5h3.2c0 1.4-.6 2.1-1.6 2.1-.5 0-1-.2-1.2-.6-.2-.3-.3-.8-.3-1.5zm11.5 1.6-2.2-4.6a.5.5 0 0 0-.5-.4c-.2 0-.4.2-.5.4l-2.3 4.9h-.8v.6a19.7 19.7 0 0 0 1.5 0h1.6V40h-.7l1.7-3.6 1.5 3.3v.1c0 .1-.2.2-.6.2v.6a25.4 25.4 0 0 1 2.2 0V40h-.7a.4.4 0 0 1-.2-.3zm6.8-2.1h-3.9c0-1.6.7-2.4 1.9-2.4l1.2.3.7.8v.2h.3c.2 0 .3 0 .3-.2l-.1-.3a2.2 2.2 0 0 0-1.2-1c-.4-.2-.8-.3-1.3-.3-1 0-1.9.3-2.5.9-.6.5-1 1.2-1 2.1a3 3 0 0 0 1 2.2c.5.5 1.3.8 2.3.8.9 0 1.6-.2 2-.7.6-.5.8-1.2.8-2v-.3h-.4zm-3.9.5h3.2c0 1.4-.6 2.1-1.6 2.1-.5 0-1-.2-1.2-.6a4 4 0 0 1-.4-1.5zm7.8 5.8v-8.5h.9V35a77.3 77.3 0 0 1-3.2 0v.6h.9v7.2c0 .3 0 .4-.2.5h-.7v.7zm8.3-6.3c0-.8-.3-1.5-.9-2-.6-.6-1.4-.9-2.4-.9-1.1 0-2 .3-2.5.8-.6.6-.9 1.3-.9 2.1 0 1 .3 1.7 1 2.2a3 3 0 0 0 2.4 1c1 0 1.8-.4 2.4-1a3 3 0 0 0 .9-2.2zm-3.3-2.4.7.1.4.4.3.4.2.5a6.4 6.4 0 0 1 0 1.2c0 .9 0 1.5-.3 1.8-.2.4-.7.6-1.3.6-.7 0-1.2-.2-1.5-.7l-.2-1.7a20.5 20.5 0 0 1 0-1.2l.2-.5c0-.2.2-.3.3-.4l.5-.4h.7zm6.6 3.9v-3l.1-.2c.4-.5.9-.7 1.4-.7.5 0 1 .2 1.3.6.3.4.5 1 .5 2a3 3 0 0 1-.5 1.7c-.3.4-.7.6-1.1.6a2 2 0 0 1-1.7-.8v-.2zm.9-6.8a50.2 50.2 0 0 1-3.3 0v.6h.9v6.6l-.1.4h-.8v.7h2.3v-.6c.6.5 1.2.7 2 .7a3 3 0 0 0 2.2-.8 3 3 0 0 0-.1-4.4c-.6-.5-1.4-.8-2.3-.8-.7 0-1.2.2-1.7.6V33h.9zm7.4 6.8v-3l.2-.2c.4-.5.8-.7 1.4-.7.4 0 .8.2 1.2.6.3.4.5 1 .5 2a3 3 0 0 1-.4 1.7c-.3.4-.7.6-1.2.6a2 2 0 0 1-1.6-.8v-.2zm1-6.8a50.1 50.1 0 0 1-3.4 0v.6h1v6.6l-.2.4h-.8v.7h2.4v-.6c.5.5 1.2.7 2 .7a3 3 0 0 0 2.2-.8c.5-.6.8-1.3.8-2.2 0-.9-.3-1.6-1-2.2-.5-.5-1.3-.8-2.3-.8-.6 0-1.2.2-1.7.6V33h1zm11 5.3h-4c0-1.6.6-2.4 1.9-2.4.4 0 .8.1 1.1.3.4.2.6.5.7.8l.2.2h.2c.2 0 .3 0 .3-.2 0 0 0-.2-.2-.3a2.2 2.2 0 0 0-1.2-1c-.3-.2-.8-.3-1.3-.3-1 0-1.8.3-2.4.9-.7.5-1 1.2-1 2.1 0 .9.3 1.6.9 2.2.6.5 1.4.8 2.4.8.9 0 1.6-.2 2-.7.5-.5.8-1.2.8-2l-.1-.3h-.3zm-4 .5h3.1c0 1.4-.5 2.1-1.5 2.1-.6 0-1-.2-1.3-.6-.1-.3-.3-.8-.3-1.5zm8.7-3.3a25.8 25.8 0 0 1-3.4 0v.6h.9v4l-.1.5h-.8v.7h2.2v-1.4c.3 1 .9 1.5 1.7 1.5.4 0 .7-.1 1-.3.2-.2.4-.5.4-.8l-.3-.6a.8.8 0 0 0-1.1 0l-.2.6c0 .2 0 .4.2.6-.3 0-.5 0-.8-.3a1 1 0 0 1-.5-.6 4 4 0 0 1-.3-1.6v-2.3h1.1z"/>
      <path d="M218.2 37.7h-4c0-1.6.6-2.4 1.9-2.4.4 0 .8.1 1.1.3.4.2.6.5.7.8l.2.2h.2c.2 0 .3 0 .3-.2l-.1-.3a2.2 2.2 0 0 0-1.2-1 3 3 0 0 0-1.3-.3c-1 0-1.9.3-2.5.9-.6.5-1 1.2-1 2.1 0 .9.3 1.6 1 2.2.5.5 1.3.8 2.3.8.9 0 1.6-.2 2-.7.5-.5.8-1.2.8-2l-.1-.3h-.3zm-4 .5h3.2c0 1.4-.6 2.1-1.6 2.1-.5 0-1-.2-1.3-.6l-.3-1.5zm7.7 1.8v-3.5c0-.8.2-1.2.7-1.2l.6.3.2 1v.6h.6v-.7c0-.5-.1-.9-.4-1.2-.3-.3-.7-.5-1.2-.5-1.3 0-2 .6-2 1.7v3.6h-1.1v.4c.6 0 1 .3 1.4.9.4.5.5 1 .5 1.8h.7v-2.5h1.9V40z"/>
      <path fill="#039" d="M233.1 34.9a26 26 0 0 1-3.4 0v.6h.9v4l-.1.5h-.8v.7h2.2v-1.4c.3 1 .9 1.5 1.7 1.5.4 0 .7-.1 1-.3.2-.2.4-.5.4-.8l-.3-.6a.8.8 0 0 0-.5-.2c-.2 0-.4 0-.6.2l-.2.6c0 .2 0 .4.2.6-.3 0-.5 0-.8-.3a1 1 0 0 1-.5-.6 4.2 4.2 0 0 1-.3-1.6v-2.3h1.1zm7.8 7.7-2-1-.4.4.7.8.8 1 .6.3c.2 0 .4 0 .5-.3.2-.1.3-.3.3-.5l-.1-.4-.2-.2-.2-.1zm.8-4.9h-4c0-1.6.7-2.4 2-2.4.4 0 .8.1 1.1.3.3.2.6.5.7.8l.1.2h.2c.3 0 .4 0 .4-.2 0 0 0-.2-.2-.3 0-.2-.2-.4-.4-.6l-.8-.5-1.3-.2c-1 0-1.8.3-2.4.9-.7.5-1 1.2-1 2.1 0 .9.3 1.6.9 2.2.5.5 1.3.8 2.3.8 1 0 1.6-.2 2.1-.7.5-.5.8-1.2.8-2l-.1-.3h-.4zm-4 .5h3.2c0 1.4-.5 2.1-1.6 2.1-.5 0-.9-.2-1.2-.6-.2-.3-.3-.8-.3-1.5zm12.7-2.7V35h-2.3v.6c-.6-.5-1.2-.7-1.9-.7-1 0-1.7.3-2.3.8-.5.6-.8 1.3-.8 2.2 0 .9.3 1.6.9 2.2.6.5 1.4.8 2.4.8.6 0 1.2-.2 1.7-.6v2.5l-.1.5h-.8v.7h2.3v-8c0-.2 0-.4.2-.4h.7zm-2.3 4c-.5.5-1 .8-1.6.8-.6 0-1-.2-1.4-.7-.2-.3-.3-1-.3-1.8a15.9 15.9 0 0 1 0-1c0-.3 0-.5.2-.6l.2-.5.5-.3.7-.1c.6 0 1.2.3 1.7 1zm8.5-3.7c-.3-.6-1-1-1.8-1s-1.3.1-1.8.4c-.4.2-.6.7-.6 1.3v3l-.1.5h-.8v.7h2.4v-4.4c0-.4 0-.7.2-.8 0-.1.4-.2.9-.2.4 0 .8.1 1.1.5.3.3.5.7.5 1.2v2.5c0 .3 0 .4-.2.5h-.7v.7h2.4V36l.1-.4h.8v-.7h-2.4zm5.6 5v-5.3h.8V35a128.5 128.5 0 0 1-3.1 0v.6h.9v4l-.1.5h-.8v.7zm.1 2.2a1 1 0 0 0-.3-.8 1 1 0 0 0-.7-.3 1 1 0 0 0-.7.3 1 1 0 0 0-.3.8c0 .2.1.5.3.7.2.2.4.3.7.3.3 0 .5-.1.7-.3.2-.2.3-.5.3-.7zm5.1-8.1a26 26 0 0 1-3.5 0v.6h1v4c0 .3-.1.4-.2.5h-.8v.7h2.2v-1.4c.4 1 1 1.5 1.7 1.5.4 0 .7-.1 1-.3.3-.2.4-.5.4-.8 0-.2 0-.4-.2-.6a.8.8 0 0 0-.6-.2c-.2 0-.4 0-.5.2-.2.2-.3.3-.3.6l.3.6c-.3 0-.6 0-.8-.3-.3-.1-.4-.3-.5-.6a4.1 4.1 0 0 1-.4-1.6v-2.3h1.2zm8.3 2.8h-4c0-1.6.6-2.4 1.9-2.4.4 0 .8.1 1.1.3.4.2.6.5.7.8l.2.2h.2c.2 0 .3 0 .3-.2l-.1-.3-.4-.6-.9-.5-1.2-.2c-1 0-2 .3-2.5.9-.6.5-1 1.2-1 2.1 0 .9.3 1.6 1 2.2.5.5 1.3.8 2.3.8.9 0 1.6-.2 2-.7.5-.5.8-1.2.8-2l-.1-.3h-.3zm-4 .5h3.1c0 1.4-.5 2.1-1.5 2.1-.6 0-1-.2-1.3-.6l-.3-1.5z"/>
      <path d="M135.8 26.7v-8.4h.9v-.6a77.5 77.5 0 0 1-3.2 0v.6h.9v7.2c0 .3 0 .4-.2.4l-.7.1v.6zm4-1.7a1 1 0 0 0-.7-.3 1 1 0 0 0-.8.3 1 1 0 0 0-.2.7c0 .3 0 .5.2.7a1.2 1.2 0 0 0 1.7-.1c.2-.3.3-.7.3-1.2a3.5 3.5 0 0 0-1.3-2.7c-.1-.2-.2-.2-.3-.2h-.2v.4c.9.6 1.3 1.4 1.3 2.4zm7.4-4.5h-4c0-1.6.7-2.4 2-2.4.3 0 .7.1 1 .3.4.2.6.4.8.8l.1.2h.2c.2 0 .3 0 .3-.2l-.1-.4-.4-.5-.8-.5-1.3-.2a4 4 0 0 0-2.5.8 3 3 0 0 0-1 2.2c0 .9.4 1.6 1 2.1.5.6 1.3.9 2.3.9 1 0 1.6-.2 2-.7.6-.5.8-1.2.8-2v-.3h-.4zm-4 .5h3.2c0 1.4-.6 2.1-1.6 2.1-.5 0-1-.2-1.2-.7-.2-.2-.3-.7-.3-1.4zm9.4-.1 2.2-2.6h.9v-.6a95 95 0 0 1-3 0v.6h.5l-1.4 1.7-1.3-1.4v-.2l.4-.1v-.6a26.3 26.3 0 0 1-2.6 0v.6a19.2 19.2 0 0 1 1 0l.4.2 1.7 2-2 2.4h-1v.6a92.8 92.8 0 0 1 3 0v-.6h-.5l1.3-1.5 1 1.2.2.1a1 1 0 0 1-.5.2v.6a51.3 51.3 0 0 1 2.5 0v-.6a7.8 7.8 0 0 1-1.1-.2l-.2-.1zm6.3 1.1v-3l.1-.2c.4-.5.9-.7 1.4-.7.5 0 .9.2 1.2.6.4.4.5 1 .5 1.9a3 3 0 0 1-.4 1.8c-.3.4-.7.6-1.2.6a2 2 0 0 1-1.6-.8V22zm.9-6.9a50.3 50.3 0 0 1-3.3 0v.7h.9v6.5c0 .3 0 .4-.2.5h-.7v.6l2.3.1V23c.5.4 1.2.6 2 .6a3 3 0 0 0 2.2-.8c.5-.5.8-1.2.8-2.1 0-1-.3-1.6-.9-2.2-.6-.5-1.4-.8-2.4-.8-.6 0-1.2.2-1.6.6v-2.4h.9zm8.5 2.6a25.8 25.8 0 0 1-3.5 0v.6h1v4c0 .3-.1.4-.2.5h-.8v.6l2.2.1v-1.4c.3 1 1 1.4 1.7 1.4.4 0 .7 0 1-.2.3-.2.4-.5.4-.8 0-.3 0-.5-.2-.6a.8.8 0 0 0-.6-.2c-.2 0-.4 0-.6.2l-.2.6c0 .2 0 .4.3.6-.4 0-.6-.1-.8-.3-.3-.1-.4-.4-.6-.6a4.2 4.2 0 0 1-.3-1.6v-2.3h1.2zm8.3 2.8h-4c0-1.6.6-2.4 1.9-2.4.4 0 .8.1 1.1.3.3.2.6.4.7.8l.1.2h.3c.2 0 .3 0 .3-.2l-.2-.4-.4-.5c-.1-.2-.4-.3-.8-.5l-1.3-.2c-1 0-1.8.3-2.4.8-.7.6-1 1.3-1 2.2 0 .9.3 1.6.9 2.1a3 3 0 0 0 2.4.9c.9 0 1.5-.2 2-.7.5-.5.8-1.2.8-2l-.1-.3h-.3zm-4 .5h3.1c0 1.4-.5 2.1-1.5 2.1-.6 0-1-.2-1.3-.7-.2-.2-.3-.7-.3-1.4zm7.6.5 1.2-.2.7-.4c.5-.4.7-.9.7-1.4l-.1-.8-.4-.5-.5-.4-.6-.1a8.4 8.4 0 0 0-.8-.1c-.6 0-1.1.1-1.5.4a5 5 0 0 0-.8-.4h-.2v2.2h.5l.1-.1.2-.5.3-.5c.1-.2.3-.3.6-.4l.8-.1c1 0 1.5.3 1.5 1 0 .1 0 .3-.2.4a1 1 0 0 1-.4.3 4 4 0 0 1-.9.3 38.4 38.4 0 0 0-1.4.3l-.6.4c-.3.3-.5.6-.5 1l.1.8.4.5.5.3.6.1h.5a4 4 0 0 0 1.6-.2l.6.3h.2V22h-.5v.2c-.1.7-.7 1-1.6 1-1 0-1.5-.2-1.5-.7l.1-.4.4-.3a4.8 4.8 0 0 1 .9-.2zm5.8 0 1.3-.2.7-.4c.5-.4.7-.9.7-1.4l-.1-.8-.4-.5a3 3 0 0 0-.5-.4 2 2 0 0 0-.6-.1 7.6 7.6 0 0 0-.8-.1c-.6 0-1.1.1-1.5.4l-.4-.2-.3-.2h-.2v2.2h.4l.1-.1.2-.5.3-.5.6-.4.8-.1c1 0 1.5.3 1.5 1l-.1.4-.4.3a4 4 0 0 1-1 .3l-.8.1-.6.2-.6.4c-.3.3-.5.6-.5 1 0 .3 0 .6.2.8 0 .2.2.4.4.5l.5.3.5.1h.8c.6 0 1 0 1.3-.2l.6.3h.2V22h-.5v.2c-.1.7-.6 1-1.6 1s-1.5-.2-1.5-.7c0-.2 0-.3.2-.4l.4-.3a5 5 0 0 1 .8-.2zm6.2 2v-5.2h.8v-.6a128.7 128.7 0 0 1-3.1 0v.6h.9v4c0 .3 0 .4-.2.5h-.7v.6zm.1 2.2a1 1 0 0 0-.3-.7 1 1 0 0 0-.7-.3 1 1 0 0 0-.7.3 1 1 0 0 0-.3.7c0 .3 0 .5.3.7.2.3.4.3.7.3.3 0 .5 0 .7-.2.2-.2.3-.5.3-.8zm8.2-5.2c0-.8-.3-1.5-.9-2-.6-.6-1.4-.9-2.4-.9s-2 .3-2.5.8c-.6.6-.9 1.3-.9 2.1 0 1 .3 1.7 1 2.2.5.6 1.3.9 2.4.9 1 0 1.8-.3 2.4-.9a3 3 0 0 0 .9-2.2zm-3.3-2.4.7.1c.2 0 .3.2.4.3l.3.5.2.5a5.8 5.8 0 0 1 0 1.2c0 .9 0 1.5-.3 1.8-.2.4-.7.6-1.3.6-.7 0-1.2-.2-1.5-.7l-.2-1.7v-1.2l.2-.5c0-.2.2-.3.3-.5l.5-.3h.7zm4.3.2h1v4c0 .3-.1.4-.2.5h-.8v.6l2.3.1v-1.4c.4 1 1.2 1.4 2.2 1.4.7 0 1.2-.1 1.6-.4.3-.3.5-.8.5-1.4v-3.4h.9v-.6a48 48 0 0 1-3.3 0v.6h.9v3.5l-.2 1c-.1.2-.3.3-.6.3a2 2 0 0 1-1.9-2v-2.8h.9v-.6a48 48 0 0 1-3.3 0zm15 3.7v-3l.1-.2c.4-.5.9-.7 1.4-.7.5 0 1 .2 1.3.6.3.4.5 1 .5 1.9a3 3 0 0 1-.5 1.8c-.3.4-.7.6-1.1.6a2 2 0 0 1-1.7-.8V22zm.9-6.9a50.5 50.5 0 0 1-3.3 0v.7h.9v6.5l-.1.5h-.8v.6l2.3.1V23c.6.4 1.2.6 2 .6a3 3 0 0 0 2.2-.8c.6-.5.8-1.2.8-2.1 0-1-.3-1.6-.9-2.2-.6-.5-1.4-.8-2.3-.8-.7 0-1.2.2-1.7.6v-2.4h.9zm8.5 2.6a25.9 25.9 0 0 1-3.5 0v.6h1v4c0 .3-.1.4-.2.5h-.8v.6l2.2.1v-1.4c.4 1 1 1.4 1.7 1.4.4 0 .7 0 1-.2.3-.2.4-.5.4-.8 0-.3 0-.5-.2-.6a.8.8 0 0 0-1.1 0c-.2.1-.3.3-.3.6l.3.6c-.3 0-.6-.1-.8-.3l-.5-.6a4.2 4.2 0 0 1-.3-1.6v-2.3h1zm9.3 2.8c0-.8-.3-1.5-.8-2-.6-.6-1.5-.9-2.5-.9s-1.9.3-2.5.8c-.5.6-.8 1.3-.8 2.1 0 1 .3 1.7.8 2.2.6.6 1.5.9 2.5.9s1.8-.3 2.4-.9a3 3 0 0 0 1-2.2zm-3.3-2.4.7.1c.2 0 .3.2.5.3l.2.5.2.5a8.2 8.2 0 0 1 0 1.2c0 .9 0 1.5-.2 1.8-.3.4-.8.6-1.4.6-.7 0-1.2-.2-1.4-.7-.2-.3-.3-.9-.3-1.7a20.4 20.4 0 0 1 .1-1.2l.1-.5.3-.5.5-.3h.7zm6.6 3.9v-3l.2-.2c.4-.5.8-.7 1.4-.7.4 0 .8.2 1.2.6.3.4.5 1 .5 1.9a3 3 0 0 1-.4 1.8c-.3.4-.7.6-1.2.6a2 2 0 0 1-1.6-.8V22zm1-6.9a50.7 50.7 0 0 1-3.4 0v.7h1v6.5c0 .3-.1.4-.2.5h-.8v.6l2.3.1V23c.6.4 1.3.6 2 .6a3 3 0 0 0 2.3-.8c.5-.5.8-1.2.8-2.1 0-1-.3-1.6-1-2.2-.5-.5-1.3-.8-2.3-.8-.6 0-1.2.2-1.7.6v-2.4h1zm12 5.4c0-.8-.3-1.5-.9-2-.6-.6-1.4-.9-2.4-.9s-2 .3-2.5.8c-.6.6-.9 1.3-.9 2.1 0 1 .3 1.7 1 2.2.5.6 1.3.9 2.4.9 1 0 1.8-.3 2.4-.9a3 3 0 0 0 .9-2.2zm-3.3-2.4.7.1c.2 0 .3.2.4.3l.3.5.2.5v1.2c0 .9 0 1.5-.3 1.8-.2.4-.7.6-1.3.6-.7 0-1.2-.2-1.5-.7l-.2-1.7v-1.2l.2-.5c0-.2.2-.3.3-.5l.5-.3h.7zm6.5 3.4 1.2-.2.7-.4c.5-.4.7-.9.7-1.4l-.1-.8c0-.2-.2-.4-.4-.5a3 3 0 0 0-.5-.4 2 2 0 0 0-.6-.1 7.6 7.6 0 0 0-.8-.1c-.6 0-1.1.1-1.5.4l-.4-.2-.3-.2h-.2v2.2h.4l.1-.1.2-.5.3-.5.6-.4.8-.1c1 0 1.5.3 1.5 1l-.1.4-.4.3a4 4 0 0 1-1 .3l-.8.1-.6.2-.6.4c-.3.3-.5.6-.5 1 0 .3 0 .6.2.8 0 .2.2.4.4.5l.5.3.5.1h.8c.6 0 1 0 1.3-.2l.6.3h.2V22h-.5v.2c-.1.7-.6 1-1.6 1s-1.5-.2-1.5-.7c0-.2 0-.3.2-.4l.4-.3a4.8 4.8 0 0 1 .8-.2zm8.6 3.9-2-1-.3.4.6.8A79.8 79.8 0 0 0 263 27l.6-.3.2-.5v-.4l-.2-.2-.3-.1zm.9-4.9h-4c0-1.6.7-2.4 2-2.4.3 0 .7.1 1 .3.4.2.6.4.8.8v.2h.3c.2 0 .3 0 .3-.2l-.1-.4-.4-.5-.8-.5-1.3-.2a4 4 0 0 0-2.5.8 3 3 0 0 0-1 2.2c0 .9.4 1.6 1 2.1.5.6 1.3.9 2.3.9.9 0 1.6-.2 2-.7.6-.5.8-1.2.8-2v-.3h-.4zm-4 .5h3.2c0 1.4-.6 2.1-1.6 2.1-.5 0-1-.2-1.2-.7-.2-.2-.3-.7-.3-1.4zm10.8-.5h-3.9c0-1.6.7-2.4 1.9-2.4.4 0 .8.1 1.1.3.4.2.6.4.8.8v.2h.3c.2 0 .3 0 .3-.2l-.1-.4a3 3 0 0 0-.4-.5l-.9-.5-1.2-.2a4 4 0 0 0-2.5.8 3 3 0 0 0-1 2.2c0 .9.3 1.6 1 2.1.5.6 1.3.9 2.3.9.9 0 1.6-.2 2-.7.6-.5.8-1.2.8-2v-.3h-.4zm-3.9.5h3.2c0 1.4-.6 2.1-1.6 2.1-.5 0-1-.2-1.3-.7l-.3-1.4zm7.9-2.3a1 1 0 0 0-.3-.7 1 1 0 0 0-.7-.3 1 1 0 0 0-.7.3 1 1 0 0 0-.3.7c0 .3 0 .5.3.7.2.2.4.3.7.3.3 0 .5 0 .7-.3.2-.2.3-.4.3-.7zM6.8 21.2v-5.7h1V15a31.2 31.2 0 0 1-3.5 0v.5h1v5.7h-1v.5a33.7 33.7 0 0 1 3.6 0v-.5zm3.5.5v-6.2h.7V15a66 66 0 0 1-2.4 0v.5h.7v5.3l-.1.4h-.6v.5zm7.1-6.7a18.7 18.7 0 0 1-2.6 0v.5h.7v3l-.1.3h-.6v.5h1.6v-1c.3.7.7 1 1.3 1l.7-.1.3-.6-.1-.4a.6.6 0 0 0-.9 0l-.1.4.1.4a1 1 0 0 1-.5-.2c-.2 0-.3-.2-.4-.4a3 3 0 0 1-.3-1.2v-1.7h.9zm6.1 2.1h-3c0-1.1.6-1.7 1.5-1.7.3 0 .6 0 .8.2.3.1.4.3.5.5l.1.2h.2l.2-.1v-.3a1.6 1.6 0 0 0-.9-.8l-1-.1c-.8 0-1.4.2-1.9.6a2 2 0 0 0-.6 1.6c0 .6.2 1.2.6 1.6.4.4 1 .6 1.7.6s1.2-.2 1.6-.5c.3-.4.5-.9.5-1.5v-.2h-.3zm-3 .4H23c0 1-.4 1.6-1.2 1.6a1 1 0 0 1-.9-.5l-.2-1.1zm5.7.4.9-.2c.2 0 .3-.2.5-.3.4-.3.5-.6.5-1v-.6a1 1 0 0 0-.4-.4l-.3-.2-.5-.2h-.5a2 2 0 0 0-1.2.3 3 3 0 0 0-.5-.3h-.2v1.5h.4l.2-.4.2-.4.4-.3h.7c.7 0 1 .2 1 .7v.3l-.4.2a2.8 2.8 0 0 1-.6.2 14.7 14.7 0 0 0-1 .3c-.3 0-.4.1-.5.2a1 1 0 0 0-.4.9l.1.5.3.3.4.3h.4l.3.1a2.6 2.6 0 0 0 1.2-.2l.5.2h.1V18h-.4v.2c0 .5-.4.8-1.1.8-.8 0-1.1-.2-1.1-.6v-.3l.4-.2a3.7 3.7 0 0 1 .6-.1zm4.4 1v-2.7c0-.5.2-.8.6-.8.1 0 .3 0 .4.2l.1.7v.5h.5v-.6l-.3-.9a1 1 0 0 0-.9-.3c-1 0-1.5.4-1.5 1.2V19h-.8v.3c.5 0 .8.2 1 .6.3.4.5.9.5 1.4h.4v-1.9H32V19zm6.7-1.8h-3c0-1.1.5-1.7 1.4-1.7.4 0 .6 0 .9.2l.5.5.1.2h.2l.2-.1-.1-.3-.3-.4-.6-.4-1-.1c-.7 0-1.3.2-1.8.6a2 2 0 0 0-.7 1.6c0 .6.3 1.2.7 1.6.4.4 1 .6 1.7.6s1.2-.2 1.6-.5c.3-.4.5-.9.5-1.5v-.2h-.3zm-3 .4h2.4c0 1-.4 1.6-1.2 1.6a1 1 0 0 1-.9-.5l-.2-1.1z"/>
      <path fill="gray" stroke="gray" stroke-miterlimit="10" stroke-width="1.1" d="M41.7 23h9v-9.7h-9z"/>
      <path fill="#fff" d="M48.4 17.2 48 15h-4.2v.4l.2.1 2 2c.6.7 1 1.4 1 2 0 .4-.2.7-.4 1-.2.3-.5.4-1 .4l-1-.3.3-.1.2-.2.1-.4c0-.2 0-.4-.2-.5a.7.7 0 0 0-1 0s-.2.2-.2.5c0 .4.2.8.6 1 .4.3 1 .5 1.5.5.7 0 1.3-.2 1.7-.5.5-.4.7-.8.7-1.4l-.1-.6-.4-.5-.5-.5a39.4 39.4 0 0 0-2.1-1.7h1.4l1 .1.2.9z"/>
      <path d="M58.9 17.1h-3c0-1.1.5-1.7 1.4-1.7.3 0 .6 0 .9.2l.5.5.1.2h.2l.2-.1-.1-.3-.3-.4-.6-.4-1-.1c-.7 0-1.3.2-1.8.6a2 2 0 0 0-.7 1.6c0 .6.2 1.2.7 1.6.4.4 1 .6 1.7.6s1.2-.2 1.5-.5c.4-.4.6-.9.6-1.5v-.2h-.3zm-3 .4h2.4c0 1-.4 1.6-1.2 1.6a1 1 0 0 1-1-.5l-.1-1.1zm5.6.4 1-.2.5-.3c.3-.3.5-.6.5-1v-.6a1 1 0 0 0-.4-.4l-.4-.2-.4-.2h-.6a2 2 0 0 0-1.1.3l-.3-.2-.3-.1v1.5h.4a2.2 2.2 0 0 1 .4-.8l.4-.3h.6c.8 0 1.1.2 1.1.7v.3l-.4.2a2.8 2.8 0 0 1-.6.2 14.7 14.7 0 0 0-1.1.3l-.4.2a1 1 0 0 0-.4.9v.5c.2.1.2.3.4.3l.3.3h.5l.3.1h.2c.5 0 .8 0 1-.2l.5.2h.1V18h-.4v.2c0 .5-.5.8-1.2.8s-1-.2-1-.6v-.3l.3-.2a3.7 3.7 0 0 1 .6-.1zm4.5 0 .8-.2.6-.3c.3-.3.5-.6.5-1l-.1-.6a1 1 0 0 0-.3-.4l-.4-.2-.4-.2H66a2 2 0 0 0-1.1.3 4.1 4.1 0 0 0-.6-.3h-.1v1.5h.4l.1-.4.3-.4.4-.3h.6c.7 0 1.1.2 1.1.7l-.1.3-.3.2a3 3 0 0 1-.7.2 12.7 12.7 0 0 0-1 .3l-.5.2a1 1 0 0 0-.4.9c0 .1 0 .3.2.5 0 .1.1.3.3.3l.3.3h.4l.4.1h.2c.4 0 .8 0 1-.2l.4.2h.2V18h-.4v.2c-.1.5-.5.8-1.2.8s-1-.2-1-.6v-.3l.3-.2a3.7 3.7 0 0 1 .6-.1zm5.9-2.1c-.3-.5-.8-.8-1.5-.8a3.5 3.5 0 0 0-1.1.2 1 1 0 0 0-.5.3c-.2.2-.2.4-.2.6 0 1 1 1.4 3.1 1.5v.3c0 .8-.3 1.2-1 1.2L70 19l.2-.5c0-.2 0-.3-.2-.4a.6.6 0 0 0-.4-.2c-.2 0-.3 0-.5.2l-.1.4c0 .6.5 1 1.7 1 .7 0 1.2-.2 1.6-.5.3-.3.5-.6.5-1v-2.4l.2-.2h.6V15h-.7a2 2 0 0 0-.6 0l-.3.2a.7.7 0 0 0-.1.5zm-.2 1.5a6.3 6.3 0 0 1-.9-.1l-.5-.2-.4-.4a.8.8 0 0 1-.2-.5c0-.2 0-.4.3-.5.1-.2.3-.3.6-.3h.3l.3.2c.2 0 .3.2.4.3l.1.6zm4.1 2.1v-3.9h.6V15h-2.3v.5h.7v3l-.1.3H74v.5zM76 21c0-.2 0-.4-.2-.5a.7.7 0 0 0-.5-.3l-.6.3-.2.5c0 .2 0 .4.2.5l.6.3c.2 0 .3-.1.5-.3l.2-.5zm2.8-3.1.9-.2c.2 0 .3-.2.5-.3.4-.3.5-.6.5-1v-.6a1 1 0 0 0-.4-.4l-.3-.2-.4-.2H79a2 2 0 0 0-1.2.3l-.2-.2-.3-.1H77v1.5h.4l.2-.4.2-.4.4-.3h.7c.7 0 1 .2 1 .7v.3l-.4.2a2.8 2.8 0 0 1-.6.2 13 13 0 0 0-1 .3l-.5.2a1 1 0 0 0-.4.9l.1.5.3.3.4.3h.4l.3.1h.3c.4 0 .7 0 1-.2l.4.2h.1V18h-.2v.2c-.1.5-.5.8-1.2.8s-1.1-.2-1.1-.6v-.3l.4-.2a4.5 4.5 0 0 1 .6-.1zm267.9-1.1h2.3l.6-.5c.2-.1.3-.4.4-.6l.1-1-.1-.8-.4-.8-.6-.3h-2.3zm.8-.7v-2.7h1.1l.4.2.2.4v1.5l-.2.4-.4.2h-.7zm5-2.4.8-.2-.5-.6c-.2-.2-.5-.2-.8-.2-.5 0-.9.1-1.1.5-.2.2-.3.6-.3 1 0 .5.1.9.4 1.1.2.3.5.4 1 .4.4 0 .7-.1 1-.4.2-.3.3-.7.3-1.3h-2l.3-.6.4-.2.3.1.2.4zm0 .8-.1.5-.4.1-.4-.1a.7.7 0 0 1-.2-.5zm1.4 1.2h.7v-.4c.3.3.6.4 1 .4h.4l.4-.4.4.3.5.1h.5l.4-.5v-2.5h-.7v1.7l-.1.6-.4.1h-.3l-.2-.3v-2.1h-.8V15l-.2.2h-.5l-.3-.3v-2.1h-.8zm5.7-1-.7.2c0 .3.2.5.4.6.2.2.5.2.9.2h.7l.4-.4.1-.7v-1.5l.2-.4h-.8v.3h-.1l-.4-.2-.5-.1a1 1 0 0 0-.7.2l-.3.6a.8.8 0 0 0 .5.8l.6.2.7.2v.4h-.8l-.2-.3zm1-.6h-.4l-.5-.2-.1-.3.1-.3h.7l.2.3v.4zm4.2-1.4h-.7V15l-.2.2h-.7a.6.6 0 0 1-.2-.4v-2h-.8v3h.7v-.5c.2.4.6.5 1 .5h.4l.3-.3.2-.3v-.5zm3.5 0h-.7v.5l-.4-.4-.5-.1c-.3 0-.6.1-.9.4-.2.2-.3.6-.3 1.1 0 .5 0 .9.3 1.2a1.2 1.2 0 0 0 1.8 0v1.4h.7zm-2 1.6v-.7l.6-.3c.2 0 .3 0 .5.2l.2.7-.2.7c-.1.2-.3.2-.5.2s-.3 0-.5-.2l-.1-.6zm4.5-.6.8-.2-.5-.6c-.2-.2-.5-.2-.8-.2-.5 0-.9.1-1.1.5-.2.2-.3.6-.3 1 0 .5.1.9.4 1.1.2.3.5.4 1 .4.4 0 .7-.1 1-.4.2-.3.3-.7.3-1.3h-2l.3-.6.4-.2.3.1.2.4zm0 .8-.1.5-.4.1-.5-.1a.7.7 0 0 1-.1-.5zm2.2-1.8h-.8v3h.8v-.4c0 .2.2.3.3.3l.3.1.5-.1-.2-.7-.4.1h-.2l-.2-.4v-1zm6.7 0h-.9l-.3 1h-1.7l-.3-1h-.9l1.6 4h.9zm-1.5 1.6-.6 1.5-.5-1.5zm2 1.8v.7h.7V16zm0-3.4v3h.7v-3zm4.2 0h-.7v.5l-.4-.4a1 1 0 0 0-.5-.1c-.4 0-.6.1-.9.4-.2.2-.3.6-.3 1.1 0 .5 0 .9.3 1.2a1.1 1.1 0 0 0 1.7 0v1.4h.8zm-2 1.6v-.7a.6.6 0 0 1 1 0c.2 0 .2.3.2.6l-.1.7c-.2.2-.3.2-.5.2s-.3 0-.5-.2l-.1-.6zm4.5-.6.8-.2-.5-.6c-.2-.2-.5-.2-.8-.2-.5 0-.9.1-1.1.5-.2.2-.3.6-.3 1 0 .5 0 .9.4 1.1.2.3.5.4 1 .4.4 0 .7-.1 1-.4.2-.3.3-.7.3-1.3h-2l.3-.6.4-.2.3.1.2.4zm0 .8-.1.5-.4.1-.5-.1a.7.7 0 0 1-.1-.5zM9 33.2a2 2 0 0 0 1.6-2c0-.6-.1-1-.5-1.5-.4-.4-1-.6-1.6-.6a3 3 0 0 0-2 .6l-.4-.5h-.3v2.2H6v-.2l.4-.8c.1-.3.3-.4.6-.5a3.7 3.7 0 0 1 1.4-.3c.4 0 .7.1 1 .3l.2.8c0 .3-.1.6-.4.9a1 1 0 0 1-.3.2L8 32l-1.2.3a2 2 0 0 0-.7.4c-.3.4-.5.8-.5 1.3 0 .6.2 1 .6 1.4.4.4.9.6 1.6.6.6 0 1.2-.2 1.6-.6l.5.5h.4v-2.2h-.4v.2l-.5 1c-.2.3-.4.4-.7.5l-.8.1c-.4 0-.8 0-1-.3a1 1 0 0 1-.2-.7c0-.2 0-.5.3-.6.1-.2.4-.3.6-.4zm5.8 0H14a1.2 1.2 0 0 1-1-.4l-.1-.5a3.4 3.4 0 0 1-.1-.9c0-1.2.4-1.8 1.3-1.8.6 0 1 .2 1.2.8h.1l.2.1.2-.1V30l-.3-.3-.6-.5-1-.1c-.7 0-1.3.2-1.7.6a2 2 0 0 0-.7 1.6c0 .6.2 1.1.7 1.6.4.4 1 .6 1.8.6 1.1 0 1.7-.3 1.7-.9l-.2-.4a.6.6 0 0 0-.8 0c-.2 0-.2.2-.2.4s0 .3.2.5zm6.6-1.9a2 2 0 0 0-.6-1.5c-.4-.4-1-.6-1.8-.6s-1.4.2-1.8.6a2 2 0 0 0-.7 1.5c0 .7.2 1.2.7 1.7.4.4 1 .6 1.8.6.7 0 1.3-.2 1.8-.6.4-.5.6-1 .6-1.7zM19 29.6h.5l.3.3.2.3.2.4v.8c0 .7 0 1.1-.2 1.4-.2.3-.5.5-1 .5s-.9-.2-1-.6c-.2-.2-.2-.6-.2-1.3a13 13 0 0 1 0-.8 1.2 1.2 0 0 1 .3-.7l.4-.3h.5zm5.7-.4a20 20 0 0 1-2.6 0v.5h.7v3l-.1.3H22v.5h1.6v-1c.3.7.7 1 1.3 1l.7-.1.3-.6c0-.2 0-.3-.2-.4a.6.6 0 0 0-.4-.2c-.1 0-.3 0-.4.2l-.2.4.2.4a1 1 0 0 1-.6-.2c-.1 0-.3-.2-.3-.4a3.3 3.3 0 0 1-.3-1.2v-1.7h.9zm6.1 2.1h-3c0-1.1.5-1.7 1.4-1.7.4 0 .6 0 .9.2l.5.5.1.2h.2l.2-.1-.1-.3-.3-.4-.6-.4-1-.1c-.7 0-1.3.2-1.8.6a2 2 0 0 0-.7 1.6c0 .6.3 1.2.7 1.6.4.4 1 .6 1.7.6s1.2-.2 1.6-.5c.3-.4.5-.9.5-1.5v-.2h-.3zm-3 .4h2.4c0 1-.4 1.6-1.2 1.6a1 1 0 0 1-.9-.5l-.2-1.1zm9.2 1.1-.3-.6a.7.7 0 0 0-.5-.2c-.2 0-.4 0-.6.2l-.2.6c0 .2 0 .4.2.5l.6.2c.2 0 .3 0 .5-.2l.2-.5zm0-2.8c0-.2-.2-.4-.3-.5a.7.7 0 0 0-.5-.3l-.6.3-.2.5c0 .2 0 .4.2.5.2.2.4.2.6.2.2 0 .3 0 .5-.2l.2-.5z"/>
      <path fill="#ff3b21" stroke="#ff3b21" stroke-miterlimit="10" stroke-width="1.1" d="M41.5 37.1h9v-9.6h-9z"/>
      <path fill="#fff" d="M48.3 32.3v-.5a6 6 0 0 0-.2-1.1 3 3 0 0 0-.3-.6c0-.2-.2-.4-.4-.5a2 2 0 0 0-.6-.3L46 29c-.4 0-.7 0-1 .2-.2 0-.4.2-.5.3l-.4.5-.3.6-.1.6v1a17 17 0 0 0 0 1l.1.7.3.6a1.7 1.7 0 0 0 1 .8l.9.2a2.5 2.5 0 0 0 1.4-.5l.4-.5a3.5 3.5 0 0 0 .5-1.8v-.5zM46 29.5h.3c.2 0 .3.2.4.3.2.2.2.4.3.7a17 17 0 0 1-.1 4.1c0 .2-.2.4-.4.5a1 1 0 0 1-.5.1h-.4a1 1 0 0 1-.4-.3 1 1 0 0 1-.3-.6v-3.9c.1-.3.2-.6.4-.7.2-.2.4-.2.7-.2z"/>
    </g>
  </g>
  <g clip-path="url(#g)" transform="matrix(.79 0 0 -.79 .8 287)">
    <g clip-path="url(#h)">
      <path fill="#6bbe66" fill-rule="evenodd" d="M360.2 213.8a11.4 11.4 0 1 0 0-22.7 11.4 11.4 0 0 0 0 22.7zm-5-11.6a1.3 1.3 0 0 0 2.1.7l1.2-1 .3-.3 4 4.2.8.5c1.3.2 2.1-1.3 1.3-2.2l-5-5.3c-.5-.5-1.4-.5-1.9 0a67 67 0 0 1-2.5 2.3c-.3.2-.4.7-.3 1z"/>
      <path fill="#fff" d="M3 83.5v-30c0-.9.7-1.6 1.5-1.6h26.2c.8 0 1.5.7 1.5 1.5v30.1c0 .9-.7 1.5-1.5 1.5H4.5c-.8 0-1.5-.6-1.5-1.5z"/>
      <path d="M2.8 83.5v-30c0-1 .8-1.8 1.7-1.8h26.2c1 0 1.7.8 1.7 1.7v30.1c0 1-.8 1.7-1.7 1.7H4.5c-.9 0-1.7-.7-1.7-1.7zm.4 0c0 .7.6 1.3 1.3 1.3h26.2c.7 0 1.3-.6 1.3-1.3v-30c0-.8-.6-1.4-1.3-1.4H4.5c-.7 0-1.3.6-1.3 1.3z"/>
      <path fill="#fafafa" d="M5.8 81.5v-5.6c0-.3.2-.6.6-.6H11c.4 0 .6.3.6.6v5.6c0 .3-.2.6-.6.6H6.4a.6.6 0 0 1-.6-.6z"/>
      <path d="M5.7 81.5v-5.6c0-.4.3-.7.7-.7H11c.4 0 .7.3.7.7v5.6c0 .4-.3.7-.7.7H6.4a.7.7 0 0 1-.7-.7zm.2 0c0 .2.2.5.5.5H11c.3 0 .5-.3.5-.5v-5.6c0-.3-.2-.5-.5-.5H6.4c-.3 0-.5.2-.5.5z"/>
      <path fill="#fafafa" d="M14.6 81.5v-5.6c0-.3.3-.6.6-.6H20c.3 0 .6.3.6.6v5.6c0 .3-.3.6-.6.6h-4.8a.6.6 0 0 1-.6-.6z"/>
      <path d="M14.5 81.5v-5.6c0-.4.3-.7.7-.7H20c.4 0 .7.3.7.7v5.6c0 .4-.3.7-.7.7h-4.8a.7.7 0 0 1-.7-.7zm.2 0c0 .2.3.5.5.5H20c.3 0 .5-.3.5-.5v-5.6c0-.3-.2-.5-.5-.5h-4.8c-.2 0-.5.2-.5.5z"/>
      <path fill="#09c" d="M23.5 81.5V76c0-.4.3-.6.6-.6H29c.3 0 .6.2.6.6v5.5c0 .4-.3.6-.6.6h-5a.6.6 0 0 1-.6-.6z"/>
      <path d="M23.4 81.5V76c0-.4.3-.7.7-.7H29c.4 0 .7.3.7.7v5.5c0 .4-.3.7-.7.7h-5a.7.7 0 0 1-.7-.7zm.2 0c0 .3.2.5.5.5H29c.3 0 .5-.2.5-.5V76c0-.3-.2-.5-.5-.5h-5c-.3 0-.5.2-.5.5z"/>
      <path fill="#fafafa" d="M5.8 71.2v-5.5c0-.4.2-.6.6-.6H11c.4 0 .6.2.6.6v5.5c0 .4-.2.6-.6.6H6.4a.6.6 0 0 1-.6-.6z"/>
      <path d="M5.7 71.2v-5.5c0-.4.3-.7.7-.7H11c.4 0 .7.3.7.7v5.5c0 .4-.3.7-.7.7H6.4a.7.7 0 0 1-.7-.7zm.2 0c0 .3.2.5.5.5H11c.3 0 .5-.2.5-.5v-5.5c0-.3-.2-.5-.5-.5H6.4c-.3 0-.5.2-.5.5z"/>
      <path fill="#fafafa" d="M5.8 61v-5.6c0-.3.2-.6.6-.6H11c.4 0 .6.3.6.6V61c0 .3-.2.6-.6.6H6.4a.6.6 0 0 1-.6-.6z"/>
      <path d="M5.7 61v-5.6c0-.4.3-.7.7-.7H11c.4 0 .7.3.7.7V61c0 .4-.3.7-.7.7H6.4a.7.7 0 0 1-.7-.7zm.2 0c0 .3.2.5.5.5H11c.3 0 .5-.2.5-.5v-5.6c0-.3-.2-.5-.5-.5H6.4c-.3 0-.5.2-.5.5z"/>
      <path fill="#fafafa" d="M14.6 71.2v-5.5c0-.4.3-.6.6-.6H20c.3 0 .6.2.6.6v5.5c0 .4-.3.6-.6.6h-4.8a.6.6 0 0 1-.6-.6z"/>
      <path d="M14.5 71.2v-5.5c0-.4.3-.7.7-.7H20c.4 0 .7.3.7.7v5.5c0 .4-.3.7-.7.7h-4.8a.7.7 0 0 1-.7-.7zm.2 0c0 .3.3.5.5.5H20c.3 0 .5-.2.5-.5v-5.5c0-.3-.2-.5-.5-.5h-4.8c-.2 0-.5.2-.5.5z"/>
      <path fill="#09c" d="M23.5 71.2v-5.5c0-.4.3-.6.6-.6H29c.3 0 .6.2.6.6v5.5c0 .4-.3.6-.6.6h-5a.6.6 0 0 1-.6-.6z"/>
      <path d="M23.4 71.2v-5.5c0-.4.3-.7.7-.7H29c.4 0 .7.3.7.7v5.5c0 .4-.3.7-.7.7h-5a.7.7 0 0 1-.7-.7zm.2 0c0 .3.2.5.5.5H29c.3 0 .5-.2.5-.5v-5.5c0-.3-.2-.5-.5-.5h-5c-.3 0-.5.2-.5.5z"/>
      <path fill="#069" d="M14.6 61v-5.6c0-.3.3-.6.6-.6H20c.3 0 .6.3.6.6V61c0 .3-.3.6-.6.6h-4.8a.6.6 0 0 1-.6-.6z"/>
      <path d="M14.5 61v-5.6c0-.4.3-.7.7-.7H20c.4 0 .7.3.7.7V61c0 .4-.3.7-.7.7h-4.8a.7.7 0 0 1-.7-.7zm.2 0c0 .3.3.5.5.5H20c.3 0 .5-.2.5-.5v-5.6c0-.3-.2-.5-.5-.5h-4.8c-.2 0-.5.2-.5.5z"/>
      <path fill="#069" d="M23.5 61v-5.6c0-.3.3-.6.6-.6H29c.3 0 .6.3.6.6V61c0 .3-.3.6-.6.6h-5a.6.6 0 0 1-.6-.6z"/>
      <path d="M23.4 61v-5.6c0-.4.3-.7.7-.7H29c.4 0 .7.3.7.7V61c0 .4-.3.7-.7.7h-5a.7.7 0 0 1-.7-.7zm.2 0c0 .3.2.5.5.5H29c.3 0 .5-.2.5-.5v-5.6c0-.3-.2-.5-.5-.5h-5c-.3 0-.5.2-.5.5z"/>
      <path fill="#069" fill-opacity=".2" fill-rule="evenodd" d="M35.2 85.2H411V5.5H35.2Z"/>
      <path fill="none" stroke="#069" stroke-linecap="round" stroke-linejoin="round" stroke-miterlimit="10" stroke-opacity=".7" stroke-width="1.4" d="M35.2 85.2H411V5.5H35.2Z"/>
      <path fill="#f0f0f0" fill-rule="evenodd" d="M58.5 218H343v-31H58.5Z"/>
      <path fill="none" stroke="#f0f0f0" stroke-linecap="round" stroke-linejoin="round" stroke-miterlimit="10" stroke-opacity=".7" stroke-width="1.4" d="M58.5 218H343v-31H58.5Z"/>
      <path fill="#fffacd" fill-rule="evenodd" d="M58.5 155H343v-31.2H58.5Z"/>
      <path fill="none" stroke="#fffacd" stroke-linecap="round" stroke-linejoin="round" stroke-miterlimit="10" stroke-opacity=".7" stroke-width="1.4" d="M58.5 155H343v-31.2H58.5Z"/>
      <path fill="gray" d="M61.7 168.7h-1.2l1.2 5.7H64c.4 0 .7 0 1-.2.2 0 .4-.2.5-.5.2-.2.3-.4.3-.8a2.2 2.2 0 0 0-.6-1.4l-.5-.4-.8-.2h-1.8zm.6 3.1h.4l1.2.1a1 1 0 0 1 .7 1l-.1.3-.3.2h-1.5zm3.7-1.4c0 .8.2 1.4.6 1.8.4.5 1 .7 1.7.7.6 0 1-.2 1.4-.5.4-.3.5-.8.5-1.4 0-.6-.2-1.2-.6-1.7-.4-.5-1-.7-1.7-.7-.4 0-.7 0-1 .2-.3.2-.6.4-.7.7a2 2 0 0 0-.2.9zm3.1.8c0 .3 0 .5-.2.6l-.6.3a1 1 0 0 1-.6-.3 1 1 0 0 1-.5-.6l-.1-.8c0-.3 0-.5.2-.7l.6-.3c.3 0 .6.2.8.4.3.4.4.9.4 1.4zm2.4 1.6h1.1l-.5-2.4v-.9l.4-.1h.3l.3.2.2.3.3.4.1.5.4 2h1.2l-.9-4.1h-1v.5a2 2 0 0 0-1.4-.6c-.4 0-.6 0-.8.3a1 1 0 0 0-.3.8l.1.8zm4.8 0h1l-.1-.8c.4.6.8 1 1.2 1l.6-.2-.5-1a1 1 0 0 1-.9 0l-.4-.7c-.2-.2-.3-.6-.4-1.1l-.2-1.3h-1.2zm4.8-.8.2.8h.5l.1.7 1.3.7-.3-1.4h.7l-.2-.8h-.7l-.3-1.7-.1-.6v-.2h.7l-.1-.8-.6-.1c-.4 0-.7 0-.9.2l-.3.6.2 1 .3 1.6zm6.4-1.6h-2.8v-.1c0-.3 0-.5.2-.7l.6-.2c.3 0 .6.2.8.6l1-.2-.7-1a2 2 0 0 0-1.1-.2c-.6 0-1 .2-1.4.5-.3.4-.5.8-.5 1.4 0 .6.2 1 .5 1.5.4.6 1 1 1.8 1 .5 0 .9-.2 1.2-.6.3-.3.4-.7.4-1.3v-.7zm-1 .7v.1c0 .3 0 .5-.2.7l-.5.2c-.2 0-.5 0-.6-.3-.2-.1-.3-.4-.4-.7zm1.2-1.3 1.1.2.4-.5.6-.1c.2 0 .4 0 .6.2l.1.2v.2l-.5.2-1.3.6a1 1 0 0 0-.4.8c0 .3.2.6.4.8.4.3.9.5 1.5.5s1 0 1.2-.3c.3-.2.5-.4.5-.8l-1-.2-.2.4-.6.1h-.5l-.2-.3c0-.2 0-.2.2-.3l.6-.2c.5-.2.9-.3 1-.5.3-.2.5-.5.5-.8 0-.4-.2-.7-.5-1a2 2 0 0 0-1.4-.4c-.6 0-1 .1-1.4.3-.3.2-.6.5-.7 1zm7.6 3h1l-.1-.8c.4.6.8 1 1.2 1l.6-.2-.5-1a1 1 0 0 1-.3.1 1 1 0 0 1-.6-.2c-.2-.1-.3-.3-.4-.6-.2-.2-.3-.6-.4-1.1l-.2-1.3h-1.2zm6.3-2.4h-2.8v-.1c0-.3 0-.5.2-.7l.6-.2c.4 0 .7.2.9.6l1-.2-.8-1a2 2 0 0 0-1-.2 2 2 0 0 0-1.4.5c-.4.4-.6.8-.6 1.4 0 .6.2 1 .5 1.5.4.6 1 1 1.8 1 .5 0 1-.2 1.2-.6.3-.3.5-.7.5-1.3v-.7zm-1 .7v.1l-.1.7-.6.2c-.2 0-.4 0-.6-.3-.2-.1-.3-.4-.4-.7zm4.2-.9 1.1-.1c-.2-.5-.4-.9-.8-1.1a2 2 0 0 0-1.2-.4c-.5 0-1 .1-1.3.5-.3.3-.4.7-.4 1.3 0 .4 0 .8.3 1.2.1.4.4.7.8 1l1.2.3c.5 0 1-.1 1.2-.4.3-.2.4-.6.5-1h-1l-.3.4-.4.2a1 1 0 0 1-.6-.3c-.2-.1-.4-.4-.5-.7l-.1-.9c0-.2 0-.4.2-.5 0-.2.2-.2.4-.2s.4 0 .5.2c.2 0 .3.3.4.5zm2.8-1.5h-1.1l1.1 5.7h1.2l-.5-2 .7.4.7.1c.4 0 .6 0 .8-.3.2-.2.3-.4.3-.7l-.1-.8-.5-2.4h-1.1l.5 2.4v.9l-.4.1c-.2 0-.4 0-.5-.2-.3-.2-.4-.4-.5-.6l-.3-1zm7.7 1.7h-2.8v-.1c0-.3 0-.5.2-.7l.6-.2c.4 0 .7.2.9.6l1-.2-.8-1a2 2 0 0 0-1.1-.2c-.5 0-1 .2-1.3.5-.4.4-.6.8-.6 1.4 0 .6.2 1 .5 1.5.4.6 1 1 1.8 1 .5 0 1-.2 1.2-.6.3-.3.5-.7.5-1.3l-.1-.7zm-1 .7v.1l-.1.7-.6.2c-.2 0-.4 0-.6-.3-.2-.1-.3-.4-.4-.7zm2.2 1.7h1l-.1-.8c.4.6.8 1 1.3 1l.5-.2-.5-1a1 1 0 0 1-.9 0l-.4-.7-.4-1.1-.2-1.3h-1.2zm5.1-2.6 1-.1c-.1-.5-.4-.9-.7-1.1a2 2 0 0 0-1.2-.4c-.5 0-1 .1-1.3.5-.3.3-.4.7-.4 1.3 0 .4 0 .8.2 1.2.2.4.5.7.9 1l1.2.3c.5 0 .9-.1 1.2-.4.3-.2.4-.6.5-1h-1l-.3.4-.4.2a1 1 0 0 1-.7-.3l-.4-.7-.1-.9c0-.2 0-.4.2-.5 0-.2.2-.2.4-.2s.3 0 .5.2c.2 0 .3.3.4.5zm2.8-1.5h-1.2l1.2 5.7h1.1l-.4-2 .7.4.7.1c.4 0 .6 0 .8-.3.2-.2.3-.4.3-.7l-.1-.8-.5-2.4h-1.1l.5 2.4v.9l-.4.1c-.2 0-.4 0-.5-.2-.3-.2-.4-.4-.5-.6l-.3-1zm7.7 1.7h-2.8v-.1c0-.3 0-.5.2-.7l.6-.2c.4 0 .7.2.9.6l1-.2-.8-1a2 2 0 0 0-1.1-.2c-.6 0-1 .2-1.4.5-.3.4-.5.8-.5 1.4 0 .6.2 1 .5 1.5.4.6 1 1 1.8 1 .5 0 1-.2 1.2-.6.3-.3.5-.7.5-1.3l-.1-.7zm-1 .7v.1l-.1.7-.6.2c-.2 0-.4 0-.6-.3-.2-.1-.3-.4-.4-.7zm1.3-1.3 1 .2.4-.5.6-.1c.2 0 .4 0 .6.2l.1.2v.2c0 .1-.2.2-.5.2l-1.2.6a1 1 0 0 0-.4.8c0 .3 0 .6.3.8.4.3.9.5 1.6.5.5 0 .9 0 1.2-.3.2-.2.4-.4.5-.8l-1-.2-.3.4-.6.1h-.5l-.2-.3c0-.2 0-.2.2-.3l.6-.2c.5-.2 1-.3 1-.5.3-.2.5-.5.5-.8 0-.4-.2-.7-.5-1a2 2 0 0 0-1.4-.4c-.6 0-1 .1-1.4.3-.3.2-.5.5-.6 1zm4.8 0h1l-.1-1.1h-1.2zm-76.5-62.3h1l.3-.6c.1-.2.5-.3 1-.3.3 0 .6 0 .8.2l.2.5c0 .1 0 .3-.2.4l-.8.4-1 .5-.5.5-.1.7c0 .5.1.9.5 1.2.3.3.8.5 1.5.5s1.2-.2 1.6-.5c.3-.3.5-.7.6-1.3h-1.2c0 .3-.1.5-.3.6-.1.2-.4.2-.7.2l-.7-.1a.5.5 0 0 1-.2-.5c0-.1 0-.3.2-.4l.8-.4 1.3-.7c.2-.3.4-.6.4-1 0-.5-.2-1-.6-1.3-.4-.3-1-.5-1.7-.5-.5 0-.9 0-1.3.2-.3.2-.6.4-.7.7a2 2 0 0 0-.2 1zm9.1-.1H67v-.1c0-.3 0-.5.2-.7l.6-.2c.4 0 .7.2.9.5l1-.1-.8-1a2 2 0 0 0-1-.2c-.6 0-1.1.1-1.4.5-.4.4-.6.8-.6 1.4 0 .6.2 1 .5 1.5.4.6 1 .9 1.8.9.5 0 1-.2 1.2-.5.3-.3.5-.7.5-1.3l-.1-.7zm-1 .7-.1.8-.6.2c-.2 0-.4 0-.6-.3-.2-.1-.3-.4-.4-.7zm2.3 1.7h1l-.4-2.5-.1-.5.1-.3.4-.1h.2l.3.2a1.6 1.6 0 0 1 .5.6l.2.6.4 2h1.1l-.8-4.1h-1v.5c-.4-.4-1-.6-1.5-.6-.3 0-.6 0-.8.3a1 1 0 0 0-.2.7v.9zm4-4.1 1.2 5.7h1l-1.1-5.7zm6.2 1.7h-2.8v-.1c0-.3 0-.5.2-.7l.6-.2c.4 0 .7.2.9.5l1-.1-.8-1a2 2 0 0 0-1.1-.2c-.6 0-1 .1-1.4.5a2 2 0 0 0-.5 1.4c0 .6.2 1 .5 1.5.4.6 1 .9 1.8.9.5 0 1-.2 1.2-.5.3-.3.5-.7.5-1.3l-.1-.7zm-1 .7c0 .4 0 .6-.2.8l-.5.2c-.2 0-.4 0-.6-.3-.2-.1-.3-.4-.4-.7zm6.4-.9 1-.2c-.1-.4-.4-.8-.7-1a2 2 0 0 0-1.2-.4c-.5 0-1 .1-1.3.4-.3.4-.4.8-.4 1.3s0 .9.3 1.3c.1.4.4.7.8 1l1.2.3c.5 0 .9-.1 1.2-.4.3-.2.4-.6.5-1l-1-.1-.3.5-.4.2a1 1 0 0 1-.7-.3l-.4-.7-.1-.9c0-.2 0-.4.2-.6l.4-.1.5.1.4.6zm5.6.2h-2.8v-.1c0-.3.1-.5.3-.7l.6-.2c.3 0 .6.2.8.5l1-.1a2 2 0 0 0-.8-1 2 2 0 0 0-1-.2c-.6 0-1 .1-1.4.5-.4.4-.5.8-.5 1.4 0 .6.1 1 .4 1.5.5.6 1 .9 1.9.9.5 0 .9-.2 1.2-.5.3-.3.4-.7.4-1.3v-.7zm-.9.7c0 .4 0 .6-.2.8l-.5.2c-.3 0-.5 0-.7-.3-.1-.1-.3-.4-.3-.7zm1.6.9.2.8h.5l.2.7 1.3.7-.3-1.4h.6l-.1-.8h-.7l-.4-1.8v-.7h.7l-.2-.9h-.6c-.4 0-.7 0-.9.2l-.2.6.1 1 .4 1.6zm2.7 0 .1.8h.6l.1.7 1.3.7-.3-1.4h.7l-.2-.8h-.7l-.3-1.8-.1-.5v-.2h.7l-.2-.9H97c-.4 0-.7 0-1 .2l-.2.6.2 1 .3 1.6zm6.4-1.6h-2.8v-.1c0-.3 0-.5.2-.7l.6-.2c.3 0 .6.2.8.5l1-.1c-.2-.4-.4-.7-.8-1a2 2 0 0 0-1-.2c-.6 0-1 .1-1.4.5-.3.4-.5.8-.5 1.4 0 .6.1 1 .5 1.5.4.6 1 .9 1.8.9.5 0 .9-.2 1.2-.5.3-.3.4-.7.4-1.3v-.7zm-1 .7c0 .4 0 .6-.2.8l-.5.2c-.3 0-.5 0-.7-.3-.1-.1-.3-.4-.3-.7zm7.4-2.4h-1v.4l-.6-.4-.6-.1c-.5 0-.8.1-1 .4-.3.3-.5.7-.5 1.3 0 .7.2 1.3.6 1.8.4.5.8.8 1.5.8.5 0 1-.2 1.2-.7l.4 2.2h1.2zm-2.6 1.6c0-.2 0-.5.2-.6l.6-.3c.2 0 .4 0 .5.2l.5.6.1.9c0 .3 0 .5-.2.7l-.6.3c-.3 0-.6-.2-.8-.6-.2-.3-.3-.7-.3-1.2zm7.6 0h-2.8c0-.3.1-.5.3-.7l.5-.2c.4 0 .7.2 1 .5l1-.1-.9-1a2 2 0 0 0-1-.2c-.6 0-1 .1-1.4.5-.4.4-.5.8-.5 1.4 0 .6.1 1 .4 1.5.5.6 1 .9 1.9.9.5 0 .9-.2 1.2-.5.3-.3.4-.7.4-1.3v-.7zm-1 .8h.1c0 .4 0 .6-.2.8l-.6.2c-.2 0-.4 0-.6-.3-.2-.1-.3-.4-.3-.7zm2.2 1.7h1v-.8c.3.6.7.9 1.2.9l.5-.1-.4-1a1 1 0 0 1-.4.1 1 1 0 0 1-.5-.2c-.2-.2-.4-.3-.5-.6l-.3-1.1-.3-1.3h-1.1zm3.2 0h1v-.5l.7.4.7.2c.4 0 .6-.1.8-.3.2-.2.3-.5.3-.8l-.1-.8-.5-2.3h-1.1l.5 2.3.1.6-.1.4h-.4a1 1 0 0 1-.5-.1 1 1 0 0 1-.5-.6l-.3-1-.3-1.6H117zm5.2 1.6h1l-.1-1h-1.1zm-.3-1.6h1l-.8-4.1h-1.1zm5.3-2.4h-2.8v-.1c0-.3.1-.5.3-.7l.5-.2c.4 0 .7.2.9.5l1-.1-.8-1a2 2 0 0 0-1-.2c-.6 0-1 .1-1.4.5-.4.4-.6.8-.6 1.4 0 .6.2 1 .5 1.5.4.6 1 .9 1.8.9.5 0 1-.2 1.2-.5.3-.3.5-.7.5-1.3v-.7zm-1 .7-.1.8-.6.2c-.2 0-.4 0-.6-.3-.2-.1-.3-.4-.4-.7zm-1.6 3.8h1.1l.5-1.1h-.7zm3.8-2.1h1l-.1-.8c.4.6.8.9 1.3.9l.5-.1-.5-1a1 1 0 0 1-.3.1 1 1 0 0 1-.6-.2l-.4-.6-.4-1.1-.2-1.3h-1.1zm6.3-2.4h-2.8v-.1c0-.3.1-.5.3-.7l.5-.2c.4 0 .7.2.9.5l1-.1-.8-1a2 2 0 0 0-1-.2c-.6 0-1 .1-1.4.5-.4.4-.5.8-.5 1.4 0 .6.1 1 .4 1.5.5.6 1 .9 1.9.9.5 0 .9-.2 1.2-.5.3-.3.4-.7.4-1.3v-.7zm-1 .7-.1.8-.6.2c-.2 0-.4 0-.6-.3-.2-.1-.3-.4-.4-.7zm4.4 1.7h1v-.8c.3.6.7.9 1.2.9l.5-.1-.4-1a1 1 0 0 1-.4.1 1 1 0 0 1-.5-.2c-.2-.2-.4-.3-.5-.6l-.3-1.1-.3-1.3h-1.1zm6.3-2.4h-2.7v-.1c0-.3 0-.5.2-.7l.6-.2c.3 0 .6.2.8.5l1-.1c-.2-.4-.4-.7-.8-1a2 2 0 0 0-1-.2c-.6 0-1 .1-1.4.5-.3.4-.5.8-.5 1.4 0 .6.1 1 .4 1.5.5.6 1 .9 1.9.9.5 0 .9-.2 1.2-.5.3-.3.4-.7.4-1.3v-.7zm-.9.7c0 .4 0 .6-.2.8l-.5.2c-.3 0-.5 0-.7-.3-.1-.1-.3-.4-.3-.7zm-.5 3.8h1.1l-1.2-1.1h-.7zm2.7-2.1h1v-.4l.6.4h.6c.4 0 .8 0 1-.4.3-.3.5-.7.5-1.3 0-.7-.3-1.4-.7-1.9a2 2 0 0 0-1.4-.6c-.6 0-1 .2-1.2.6l-.5-2.1h-1.1zm.7-2.4c0-.3 0-.5.2-.7.1-.2.3-.3.5-.3s.4 0 .6.2l.4.7.2.8c0 .3-.1.6-.3.7-.1.2-.3.3-.5.3s-.4 0-.6-.2l-.4-.7-.1-.8zm3.5 0c0 .7.2 1.4.6 1.8.5.5 1 .7 1.7.7a2 2 0 0 0 1.4-.5c.4-.3.6-.8.6-1.4 0-.6-.3-1.2-.7-1.7-.4-.5-1-.7-1.7-.7-.4 0-.7 0-1 .2-.3.2-.6.4-.7.7a2 2 0 0 0-.2.9zm3.1.8c0 .2 0 .5-.2.6-.1.2-.3.3-.6.3a1 1 0 0 1-.6-.3 1 1 0 0 1-.5-.6l-.1-.8c0-.3 0-.5.2-.7l.6-.3c.3 0 .6.2.8.4.3.4.4.9.4 1.4zm2.4 1.6h1.1l-.1-.5.7.4.7.2c.4 0 .7-.1.9-.3l.2-.8v-.8l-.6-2.3h-1l.4 2.3.1.6-.1.4h-.4a1 1 0 0 1-.5-.1 1 1 0 0 1-.5-.6l-.3-1-.3-1.6h-1.1zm3.9-3 1 .2.4-.5.6-.1.6.1.2.3-.1.2-.5.2a5 5 0 0 0-1.2.6 1 1 0 0 0-.4.8c0 .3.1.6.4.8.3.3.8.5 1.5.5.5 0 .9-.1 1.2-.3l.5-.8-1-.2-.3.4-.6.1h-.5l-.2-.4s0-.2.2-.2l.6-.2c.6-.2 1-.3 1.1-.5.3-.2.4-.5.4-.8 0-.4-.2-.7-.5-1a2 2 0 0 0-1.4-.4c-.6 0-1 0-1.4.3-.3.2-.5.5-.6 1zm8.5.6H166v-.1c0-.3 0-.5.2-.7l.6-.2c.3 0 .6.2.8.5l1-.1c-.2-.4-.4-.7-.8-1a2 2 0 0 0-1-.2c-.6 0-1 .1-1.4.5a2 2 0 0 0-.5 1.4c0 .6.1 1 .5 1.5.4.6 1 .9 1.8.9.5 0 .9-.2 1.2-.5.3-.3.4-.7.4-1.3v-.7zm-.9.7c0 .4 0 .6-.2.8l-.5.2c-.3 0-.5 0-.7-.3-.1-.1-.3-.4-.3-.7zm7.6-.7h-2.8v-.1c0-.3 0-.5.2-.7l.6-.2c.4 0 .6.2.8.5l1-.1c-.1-.4-.4-.7-.7-1a2 2 0 0 0-1.1-.2c-.6 0-1 .1-1.4.5-.3.4-.5.8-.5 1.4 0 .6.2 1 .5 1.5.4.6 1 .9 1.8.9.5 0 1-.2 1.2-.5.3-.3.5-.7.5-1.3l-.1-.7zm-1 .7c0 .4 0 .6-.2.8l-.5.2c-.2 0-.4 0-.6-.3-.2-.1-.3-.4-.4-.7zm1.2-1.3 1.1.2.4-.5.6-.1.6.1.1.3v.2l-.5.2-1.3.6a1 1 0 0 0-.3.8c0 .3 0 .6.3.8.4.3.9.5 1.5.5s1-.1 1.2-.3c.3-.2.5-.5.6-.8l-1-.2-.3.4-.6.1h-.5l-.2-.4s0-.2.2-.2l.6-.2c.5-.2.9-.3 1-.5.3-.2.5-.5.5-.8 0-.4-.2-.7-.5-1a2 2 0 0 0-1.4-.4c-.6 0-1 0-1.4.3-.3.2-.5.5-.7 1zm4.9 2.2.2.8h.5l.1.7 1.3.7-.3-1.4h.7l-.2-.8h-.7l-.3-1.8-.1-.5v-.2h.7l-.2-.9h-.5c-.4 0-.7 0-.9.2-.2.1-.3.4-.3.6l.2 1 .3 1.6zm5.4.8h1v-.4l.6.4h.6c.5 0 .8 0 1-.4.3-.3.5-.7.5-1.3 0-.7-.3-1.4-.7-1.9a2 2 0 0 0-1.4-.6c-.5 0-1 .2-1.2.6l-.5-2.1h-1.1zm.7-2.4c0-.3 0-.5.2-.7.2-.2.3-.3.6-.3.1 0 .3 0 .5.2.2.1.3.4.4.7l.2.8-.2.7-.6.3c-.2 0-.4 0-.6-.2l-.4-.7-.1-.8zm4.1 2.4h1l-.1-.8c.4.6.8.9 1.3.9l.5-.1-.5-1a1 1 0 0 1-.3.1 1 1 0 0 1-.6-.2l-.4-.6-.4-1.1-.2-1.3h-1.1zm3.5 1.6h1.1l-.2-1H194zm-.3-1.6h1l-.8-4.1h-1zm1.2-3 1 .2.4-.5.6-.1.6.1.2.3-.1.2-.5.2-1.2.6a1 1 0 0 0-.4.8c0 .3.1.6.4.8.3.3.8.5 1.5.5.5 0 .9-.1 1.2-.3l.5-.8-1-.2-.3.4-.6.1h-.5l-.2-.4s0-.2.2-.2l.6-.2c.6-.2 1-.3 1.1-.5.3-.2.4-.5.4-.8 0-.4-.2-.7-.5-1a2 2 0 0 0-1.4-.4c-.6 0-1 0-1.4.3-.3.2-.5.5-.6 1zm8.6.6h-2.8v-.1c0-.3 0-.5.2-.7l.6-.2c.3 0 .6.2.8.5l1-.1c-.2-.4-.4-.7-.8-1a2 2 0 0 0-1-.2c-.6 0-1 .1-1.4.5-.3.4-.5.8-.5 1.4 0 .6.1 1 .5 1.5.4.6 1 .9 1.8.9.5 0 .9-.2 1.2-.5.3-.3.4-.7.4-1.3v-.7zm-1 .7c0 .4 0 .6-.2.8l-.5.2c-.3 0-.5 0-.7-.3-.1-.1-.3-.4-.3-.7zm7.6-.7h-2.8v-.1c0-.3 0-.5.2-.7l.6-.2c.4 0 .6.2.9.5l1-.1-.8-1a2 2 0 0 0-1.1-.2c-.6 0-1 .1-1.4.5-.3.4-.5.8-.5 1.4 0 .6.2 1 .5 1.5.4.6 1 .9 1.8.9.5 0 1-.2 1.2-.5.3-.3.5-.7.5-1.3l-.1-.7zm-1 .7c0 .4 0 .6-.2.8l-.5.2c-.2 0-.4 0-.6-.3-.2-.1-.3-.4-.4-.7zm2.3 1.7h1v-.5l.7.4.7.2c.3 0 .6-.1.8-.3.2-.2.3-.5.3-.8l-.2-.8-.4-2.3h-1.2l.5 2.3.1.6v.4h-.4a1 1 0 0 1-.6-.1c-.2-.1-.3-.3-.4-.6l-.3-1-.4-1.6h-1zm9-2.6 1-.2c-.1-.4-.4-.8-.8-1a2 2 0 0 0-1.2-.4c-.5 0-1 .1-1.2.4-.3.4-.5.8-.5 1.3s.1.9.3 1.3l.8 1c.4.2.8.3 1.3.3s.8-.1 1.1-.4c.3-.2.5-.6.5-1l-1-.1c0 .2-.1.4-.3.5l-.4.2a1 1 0 0 1-.6-.3c-.2-.1-.3-.4-.4-.7l-.2-.9c0-.2 0-.4.2-.6l.4-.1.6.1.3.6zm1.7.2c0 .7.3 1.4.7 1.8.4.5 1 .7 1.7.7.6 0 1-.2 1.4-.5.3-.3.5-.8.5-1.4 0-.6-.2-1.2-.6-1.7-.5-.5-1-.7-1.7-.7-.4 0-.8 0-1 .2-.4.2-.6.4-.7.7a2 2 0 0 0-.3.9zm3.2.8c0 .2 0 .5-.2.6l-.6.3a1 1 0 0 1-.7-.3l-.4-.6-.2-.8c0-.3.1-.5.3-.7l.6-.3c.3 0 .6.2.8.4.3.4.4.9.4 1.4zm2.4 1.6h1l-.1-.5c.4.4.8.6 1.3.6.3 0 .5 0 .7-.2.2-.1.3-.3.3-.5l.6.5.9.2c.3 0 .6-.1.7-.3.2-.2.3-.4.3-.7l-.1-.7-.5-2.5h-1.1l.5 2.5v.8h-.3c-.3 0-.5 0-.8-.3a3 3 0 0 1-.4-1.2l-.4-1.8h-1l.4 2.5.1.5v.3h-.8l-.3-.3-.2-.5-.2-.6-.4-2H227zm7 0h1v-.4l.6.4h.7c.4 0 .7 0 1-.4.3-.3.4-.7.4-1.3 0-.7-.2-1.4-.7-1.9-.4-.4-.8-.6-1.4-.6-.5 0-1 .2-1.2.6l-.5-2.1h-1zm.7-2.4c0-.3 0-.5.2-.7l.6-.3c.2 0 .3 0 .5.2.2.1.3.4.4.7l.2.8c0 .3 0 .6-.2.7-.2.2-.3.3-.6.3-.2 0-.4 0-.6-.2l-.4-.7-.1-.8zm3.6 1.6.2.8h.5l.2.7 1.3.7-.3-1.4h.6l-.1-.8h-.7l-.4-1.8v-.7h.7l-.2-.9a3 3 0 0 0-.6 0c-.4 0-.7 0-.9.2l-.2.6.1 1 .4 1.6zm6.4-1.6h-2.8v-.1c0-.3 0-.5.2-.7l.6-.2c.4 0 .7.2.9.5l1-.1a2 2 0 0 0-.8-1 2 2 0 0 0-1-.2c-.6 0-1 .1-1.4.5-.4.4-.6.8-.6 1.4 0 .6.2 1 .5 1.5.4.6 1 .9 1.8.9.5 0 1-.2 1.2-.5.3-.3.5-.7.5-1.3v-.7zm-1 .7-.1.8-.6.2c-.2 0-.4 0-.6-.3-.2-.1-.3-.4-.4-.7zm1.7-1.4h1l-.1-1H246zM64.2 95H62l-.7-1.3h-1.2l3.2 5.7h1.3l1-5.7h-1.2zm-.1 1-.3 2.2-1.4-2.2zm2.4 1 .2.9h.5l.2.6 1.2.8-.3-1.4h.7V97h-.7l-.4-1.7v-.7h.7l-.2-.9h-.6c-.4 0-.7 0-.9.2l-.2.6.1.9.4 1.6zm2.7 0 .1.9h.6l.1.6 1.3.8-.3-1.4h.7l-.2-.9h-.7l-.3-1.7-.1-.5v-.2h.7l-.2-.9h-.6c-.4 0-.6 0-.8.2-.2.1-.3.3-.3.6l.2.9.3 1.6zm6.3-1.5h-2.8v-.1c0-.3.1-.5.3-.7.1-.2.3-.3.6-.3s.6.2.8.6l1-.1c-.2-.4-.4-.7-.8-1a2 2 0 0 0-1-.2c-.6 0-1 .1-1.4.5-.4.3-.5.8-.5 1.4 0 .5.1 1 .4 1.5.5.6 1 .9 1.9.9.5 0 .9-.2 1.2-.5.3-.3.4-.8.4-1.3v-.7zm-.9.6v.2c0 .3 0 .5-.2.6-.1.2-.3.3-.5.3a1 1 0 0 1-.7-.3c-.2-.2-.3-.4-.3-.8zm2.2 1.8h1v-.6c.2.3.5.4.7.5l.7.2c.4 0 .6-.1.8-.3.2-.2.3-.5.3-.8l-.1-.8-.5-2.4h-1l.4 2.4.1.6-.1.3-.4.2a1 1 0 0 1-.5-.2l-.5-.6-.3-1-.3-1.7H76zm4.3-.9.2.9h.5l.1.6 1.3.8-.3-1.4h.7l-.2-.9h-.7l-.3-1.7-.1-.5v-.2h.7l-.2-.9h-.5c-.4 0-.7 0-.9.2-.2.1-.3.3-.3.6l.2.9.3 1.6zm3.5 2.4h1.1l-.2-1h-1Zm-.3-1.5h1.1l-.8-4.2h-1.1zm1.5-2.4a2.4 2.4 0 0 0 2.4 2.5c.6 0 1-.2 1.4-.5.3-.4.5-.8.5-1.4 0-.7-.2-1.2-.6-1.7-.5-.5-1-.7-1.8-.7-.3 0-.7 0-1 .2-.3.1-.5.4-.7.7a2 2 0 0 0-.2.9zm3.2.8c0 .2 0 .4-.2.6l-.6.2a1 1 0 0 1-.7-.2c-.2-.1-.3-.4-.4-.6l-.2-.8c0-.3.1-.6.3-.7.1-.2.3-.3.6-.3s.5.1.8.4c.2.4.4.8.4 1.4zm2.4 1.6h1v-.6c.2.3.4.4.7.5l.7.2c.3 0 .6-.1.8-.3.2-.2.3-.5.3-.8l-.1-.8-.5-2.4h-1.1l.5 2.4v.9l-.4.2a1 1 0 0 1-.6-.2l-.4-.6-.3-1-.4-1.7h-1zm4.2-3h1.1l-.1-1c-.2-.5-.3-.8-.6-1-.2-.3-.5-.4-.9-.4l.1.5.5.2.2.5h-.5zm4.2-1.2 1.2 5.7h1l-1.1-5.7zm3 3.7.1 1 .2 1h1.2l-.2-1-.4-1zm5-2h-2.7c0-.3 0-.5.2-.7l.6-.3c.4 0 .7.2.9.6l1-.1-.8-1a2 2 0 0 0-1.1-.2c-.6 0-1 .1-1.4.5a2 2 0 0 0-.5 1.4c0 .5.2 1 .5 1.5.4.6 1 .9 1.8.9.5 0 1-.2 1.2-.5.3-.3.5-.8.5-1.3l-.1-.7zm-.9.7v.2l-.1.6-.6.3-.6-.3-.4-.8zm3.3-1.2-1-1.2h-1.4l2 2.2-1.1 2h1.1l.7-1.2 1 1.2h1.4l-2-2.2 1-2h-1.1zm3.3 3h1.1v-.5c.1.2.3.4.5.4l.7.2c.4 0 .8-.2 1-.5.3-.3.4-.7.4-1.3 0-.8-.2-1.4-.7-1.9-.4-.4-.8-.6-1.3-.6-.6 0-1 .2-1.3.6l-.4-2.1h-1.1zm.7-2.4c0-.3.1-.6.3-.7.1-.2.3-.3.5-.3s.4 0 .5.2c.2.1.4.4.5.7l.1.8c0 .3 0 .6-.2.7-.1.2-.3.3-.5.3-.3 0-.5-.1-.6-.3-.2-.1-.3-.3-.4-.6l-.2-.8zm4.2 2.4h1l-.2-.8c.4.6.9.9 1.3.9.2 0 .3 0 .5-.2l-.4-.9a1 1 0 0 1-.3 0 1 1 0 0 1-.6-.1l-.5-.6-.3-1.2-.3-1.3h-1zm6.3-2.4h-2.8v-.1c0-.3 0-.5.2-.7l.6-.3c.4 0 .6.2.9.6l1-.1-.8-1a2 2 0 0 0-1.1-.2c-.6 0-1 .1-1.4.5a2 2 0 0 0-.5 1.4c0 .5.2 1 .5 1.5.4.6 1 .9 1.8.9.5 0 1-.2 1.2-.5.3-.3.5-.8.5-1.3l-.1-.7zm-1 .6v.2c0 .3 0 .5-.2.6-.1.2-.3.3-.5.3l-.6-.3-.4-.8zM125 95l1 .2c.1-.3.2-.4.4-.5l.6-.2.6.2.1.3v.2l-.5.2-1.3.5a1 1 0 0 0-.3.8c0 .4 0 .6.3.9.4.3.9.5 1.5.5s1-.1 1.2-.3c.3-.2.5-.5.6-.8l-1-.2-.3.3-.6.2-.5-.1-.2-.3s0-.2.2-.2l.6-.3 1-.4c.3-.2.5-.5.5-.8 0-.4-.2-.7-.5-1a2 2 0 0 0-1.4-.4c-.6 0-1 0-1.4.3-.3.2-.5.5-.6.9zm4.4 0 1 .2c.1-.3.3-.4.4-.5l.6-.2.6.2.2.3-.1.2-.5.2-1.2.5a1 1 0 0 0-.4.8c0 .4.1.6.3.9.4.3.9.5 1.6.5.5 0 .9-.1 1.2-.3l.5-.8-1-.2-.3.3-.6.2-.5-.1-.2-.3s0-.2.2-.2l.6-.3a3 3 0 0 0 1.1-.4c.3-.2.4-.5.4-.8 0-.4-.2-.7-.5-1a2 2 0 0 0-1.4-.4c-.6 0-1 0-1.4.3-.3.2-.5.5-.6.9zm5.7 4.5h1.1l-.2-1h-1zm-.3-1.5h1.1l-.9-4.2h-1zm1.5-2.4c0 .7.2 1.3.6 1.8.5.4 1 .7 1.8.7.6 0 1-.2 1.4-.5.3-.4.5-.8.5-1.4 0-.7-.2-1.2-.7-1.7-.4-.5-1-.7-1.7-.7-.4 0-.7 0-1 .2-.3.1-.5.4-.7.7a2 2 0 0 0-.2.9zm3.2.8-.3.6-.5.2a1 1 0 0 1-.7-.2c-.2-.1-.3-.4-.4-.6l-.2-.8c0-.3.1-.6.3-.7.1-.2.3-.3.6-.3s.5.1.7.4c.3.4.5.8.5 1.4zm2.4 1.6h1v-.6c.2.3.4.4.7.5l.7.2c.3 0 .6-.1.8-.3.2-.2.3-.5.3-.8l-.2-.8-.4-2.4h-1.2l.5 2.4.2.6c0 .2 0 .3-.2.3l-.3.2a1 1 0 0 1-.6-.2l-.4-.6-.3-1-.4-1.7h-1zm10-4.2h-1v.5l-.6-.4-.7-.1c-.4 0-.7.1-1 .4-.3.3-.4.7-.4 1.3 0 .6.2 1.2.6 1.8.3.5.8.8 1.5.8.5 0 1-.2 1.2-.7l.4 2.1h1.2zm-2.6 1.7c0-.3 0-.5.2-.7l.6-.2c.2 0 .4 0 .5.2l.5.6.1.8c0 .3 0 .6-.2.8-.2.2-.4.2-.6.2a.8.8 0 0 1-.8-.5l-.3-1.2zm3.8 0c0 .8.2 1.4.6 1.9.5.4 1 .7 1.7.7a2 2 0 0 0 1.4-.5c.4-.4.6-.8.6-1.4 0-.7-.3-1.2-.7-1.7-.4-.5-1-.7-1.7-.7-.4 0-.7 0-1 .2-.3.1-.6.4-.7.7a2 2 0 0 0-.2.9zm3.2.9-.3.6-.6.2a1 1 0 0 1-.6-.2l-.5-.6-.1-.8c0-.3 0-.6.2-.7l.6-.3c.3 0 .6.1.8.4.3.4.5.8.5 1.4zm2.7 3.1h1l-.1-1h-1.2zm-.4-1.5h1.1l-.8-4.2h-1.1zm1.7-.9.1.9h.6l.1.6 1.3.8-.3-1.4h.7l-.2-.9h-.7l-.4-1.7v-.7h.7l-.2-.9h-.6c-.4 0-.7 0-.8.2-.2.1-.3.3-.3.6l.1.9.4 1.6zm8.5-1.5H166v-.1c0-.3.1-.5.3-.7.1-.2.3-.3.6-.3s.6.2.8.6l1-.1c-.2-.4-.4-.7-.8-1a2 2 0 0 0-1-.2c-.6 0-1 .1-1.4.5-.4.3-.5.8-.5 1.4 0 .5.1 1 .4 1.5.5.6 1 .9 1.9.9.5 0 .9-.2 1.2-.5.3-.3.4-.8.4-1.3v-.7zm-.9.6v.2c0 .3 0 .5-.2.6-.1.2-.3.3-.5.3a1 1 0 0 1-.7-.3c-.1-.2-.3-.4-.3-.8zm-1.1 3.5-.7-.7h-1l1.2 1.1h1l.5-1.1h-.7zm2.7-2.6.2.9h.5l.2.6 1.3.8-.3-1.4h.6l-.1-.9h-.7l-.4-1.7v-.7h.7l-.2-.9h-.6c-.4 0-.7 0-.9.2l-.2.6.1.9.4 1.6zm3.2.9h1l-.1-.8c.4.6.8.9 1.2.9.2 0 .4 0 .5-.2l-.4-.9a1 1 0 0 1-.3 0 1 1 0 0 1-.6-.1l-.5-.6-.3-1.2-.3-1.3h-1zm6.3-2.4h-2.8v-.1c0-.3 0-.5.2-.7l.6-.3c.4 0 .7.2.9.6l1-.1-.8-1a2 2 0 0 0-1.1-.2c-.6 0-1 .1-1.3.5-.4.3-.6.8-.6 1.4 0 .5.2 1 .5 1.5.4.6 1 .9 1.8.9.5 0 1-.2 1.2-.5.3-.3.5-.8.5-1.3l-.1-.7zm-1 .6v.2l-.1.6-.6.3-.6-.3-.4-.8zm4.4 1.8h1l-.1-.8c.4.6.8.9 1.3.9.1 0 .3 0 .5-.2l-.5-.9a1 1 0 0 1-.3 0 1 1 0 0 1-.6-.1l-.4-.6-.4-1.2-.2-1.3h-1.1zm6.3-2.4H186v-.1c0-.3.1-.5.3-.7.1-.2.3-.3.5-.3.4 0 .7.2.9.6l1-.1-.8-1a2 2 0 0 0-1-.2c-.6 0-1 .1-1.4.5-.4.3-.5.8-.5 1.4 0 .5.1 1 .4 1.5.5.6 1 .9 1.8.9.6 0 1-.2 1.3-.5.3-.3.4-.8.4-1.3v-.7zm-1 .6v.2l-.1.6c-.2.2-.3.3-.6.3l-.6-.3-.4-.8zm-.5 4h1.2l-1.2-1.2h-.8zm5.7-6.4h-1v.5l-.5-.4-.7-.1c-.4 0-.8.1-1 .4-.3.3-.4.7-.4 1.3 0 .6.2 1.2.5 1.8.4.5 1 .8 1.5.8.6 0 1-.2 1.3-.7l.4 2.1h1.1zm-2.5 1.7c0-.3 0-.5.2-.7l.5-.2c.2 0 .4 0 .6.2.2.1.3.3.4.6l.2.8c0 .3-.1.6-.3.8-.1.2-.3.2-.5.2a.8.8 0 0 1-.8-.5l-.3-1.2zm4.4 2.5h1.2l-.6-2.5v-.8l.4-.2.3.1c.1 0 .2 0 .3.2l.3.2.2.4.2.6.4 2h1l-.8-4.2h-1l.1.6c-.4-.4-1-.6-1.5-.6a1 1 0 0 0-.8.2 1 1 0 0 0-.3.8l.2.9zm5.2 1.5h1.1l-.2-1h-1zm-.3-1.5h1.1l-.8-4.2h-1.2zm1.6-.9.2.9h.5l.2.6 1.3.8-.3-1.4h.6l-.1-.9h-.7l-.4-1.7v-.7h.7l-.2-.9h-.6c-.4 0-.7 0-.9.2l-.2.6.1.9.4 1.6zm6.4-1.5H205v-.1c0-.3 0-.5.2-.7l.6-.3c.4 0 .7.2.9.6l1-.1-.8-1a2 2 0 0 0-1-.2c-.6 0-1 .1-1.4.5a2 2 0 0 0-.6 1.4c0 .5.2 1 .5 1.5.4.6 1 .9 1.8.9.5 0 1-.2 1.2-.5.3-.3.5-.8.5-1.3v-.7zm-1 .6v.2l-.1.6-.6.3-.6-.3-.4-.8zm1.7-1.3h1l-.1-1H208z"/>
      <path d="m72 207-2.4-3.3a7 7 0 0 1-1.1-3l-.2-2.9v-.9c0-.6-.3-1-.8-1-.6 0-.8.4-.8 1 0 2 .6 4 1.7 5.9l.4.7 2 2.8h-3.6a6 6 0 0 1-1.8-.1l-.4-1.6h-.4l.6 3.6h.4c0-.2.1-.3.3-.4l2-.1H72l-.1-.7zm11.6-6.3 3.6-3.5.2-.4c0-.2-.1-.3-.4-.3l-.4.2-3.5 3.5-3.5-3.5-.4-.2c-.1 0-.3 0-.3.2v.1c0 .1 0 .3.2.4l3.5 3.5-3.5 3.5-.2.4c0 .2 0 .3.3.3l.4-.2 3.5-3.5 3.6 3.5.3.3c.2 0 .3-.1.4-.3 0-.2 0-.3-.2-.5zm13.2 3.7 2.1-1.4c1.2.6 1.8 1.5 1.8 2.4a2 2 0 0 1-1 1.8c-.5.3-1 .4-1.4.4-.9 0-1.5-.3-2-.8-.3-.3-.4-.7-.4-1 0-.6.3-1 .9-1.4zm2.5-1.7a10.7 10.7 0 0 0 1.8-1.3 3.1 3.1 0 0 0-.5-4.7c-.6-.5-1.4-.8-2.3-.8-1.1 0-2 .4-2.8 1-.6.6-.9 1.3-.9 2 0 1.4.9 2.5 2.6 3.3l-1.3 1a2.8 2.8 0 0 0 .4 4.2c.6.4 1.2.6 2 .6 1 0 1.8-.3 2.5-1 .4-.4.7-1 .7-1.6 0-1-.7-2-2.2-2.7zm-1.7-.8c-1.3-.8-2-1.8-2-3 0-.8.3-1.5 1-2 .5-.3 1-.5 1.7-.5 1 0 1.6.3 2.2.9.4.4.6.8.6 1.3 0 .7-.4 1.3-1.2 1.9h-.2zm11-.3-.6-2.4-.3-1.5c0-.6.2-1 .6-1.1h.3c.6 0 1.2.2 1.7.8l.7 1.4.2.2c.2 0 .2 0 .2-.2 0-.3-.2-.7-.5-1.2-.7-1-1.4-1.5-2.3-1.5-.8 0-1.4.4-1.7 1l-.2.4c-.3-.6-.7-1-1.1-1.2l-.7-.2c-.7 0-1.2.2-1.5.6l-.2.6c0 .4.2.7.6.9l.4.1c.3 0 .5-.1.6-.4v-.2c0-.4-.2-.7-.6-.9h-.2c.2-.2.5-.3.9-.3.6 0 1.1.4 1.5 1.3l.2.5a30 30 0 0 1 .9 4.2c0 .8-.4 1.1-1 1.2-.6 0-1.1-.3-1.6-1a4.5 4.5 0 0 1-.7-1.2v-.1l-.2-.2c-.2 0-.2 0-.2.2 0 .3.1.7.5 1.3.6 1 1.4 1.4 2.3 1.4.9 0 1.5-.5 1.9-1.3.4.7.9 1.1 1.5 1.3h.3c.7 0 1.2-.2 1.5-.6l.2-.6a1 1 0 0 0-.7-1 1 1 0 0 0-.3 0c-.3 0-.6.2-.6.5v.1c0 .4.1.7.5.9h.3c-.2.2-.5.3-.9.3-.8 0-1.3-.6-1.7-1.9v-.2zm15.3-1.2v-5c0-.3-.1-.5-.4-.5-.2 0-.3.2-.3.5v5h-5c-.3 0-.5 0-.5.3s.2.4.5.4h5v4.9c0 .4 0 .6.3.6s.4-.2.4-.6v-5h4.9c.4 0 .6 0 .6-.3 0-.2-.2-.3-.6-.3zm18.7 6.6-2.3-3.3a7 7 0 0 1-1.1-3l-.2-2.9v-.9c0-.6-.3-1-.8-1-.6 0-.8.4-.8 1 0 2 .5 4 1.7 5.9l.4.7 2 2.8h-3.6a6 6 0 0 1-1.8-.1l-.4-1.6h-.4l.5 3.6h.5c0-.2.1-.3.3-.4l2-.1h4.2c0-.3 0-.5-.2-.7zm11.7-6.3 3.5-3.5.3-.4c0-.2-.1-.3-.4-.3l-.4.2-3.5 3.5-3.5-3.5-.4-.2c-.2 0-.3 0-.3.2v.1c0 .1 0 .3.2.4l3.5 3.5-3.5 3.5-.2.4c0 .2 0 .3.3.3l.4-.2 3.5-3.5 3.6 3.5.3.3c.2 0 .3-.1.4-.3 0-.2-.1-.3-.3-.5zM167 202c.4 1.2 1.1 1.8 2.1 1.8a3.4 3.4 0 0 0 3.4-3l.1-.9a4 4 0 0 0-1.3-3.1c-.7-.6-1.4-.9-2.3-.9-1.2 0-2.1.6-2.8 1.7-.6 1-.9 2.5-.9 4.3 0 2 .6 3.6 1.8 4.8a4 4 0 0 0 2.9 1.3c1 0 1.7-.3 2-1l.2-.9c0-.4-.2-.7-.7-.8h-.1c-.4 0-.6.2-.8.5v.3c0 .5.3.8 1 .8-.4.5-.9.7-1.6.7-.8 0-1.5-.4-2-1.1-.8-.9-1-2.2-1-4zm2-5.6c.8 0 1.4.4 1.7 1.2.2.4.3 1.2.3 2.3 0 1.2 0 2-.3 2.4-.3.8-.9 1.1-1.6 1.1-1 0-1.6-.5-2-1.6l-.2-1.5c0-1.2.2-2 .4-2.6.2-.5.5-.9 1-1.1l.7-.2zm-146 .3 6.1 10.3c.2.2.3.3.5.3s.3 0 .3-.2v-.2l1.1-11c0-.3.1-.5.2-.5l1-.2.4-.1c0-.3-.1-.4-.4-.4h-4.1c-.2 0-.3 0-.3.2.1.2.2.3.4.3.9 0 1.3.2 1.3.6l-.3 3h-4.4l-1.3-2.3-.3-.6c0-.4.3-.6.8-.7.2 0 .3 0 .3-.2s0-.3-.3-.3h-3.3c-.1 0-.2 0-.2.2s0 .3.2.3h.2c.7.1 1.3.4 1.8 1 0 .2.2.3.3.5zm2.1 2.6h4l-.5 5.8zm24.9 1.2H39.5c-.3 0-.5 0-.6.3 0 .2.2.4.6.4h10.6c.3 0 .5-.2.5-.4s-.2-.3-.6-.3zm0-3.5H39.6c-.4 0-.5.2-.6.4 0 .2.2.3.6.3H50c.4 0 .6 0 .6-.3 0-.2-.1-.4-.5-.4zm21.5-60.2a3.9 3.9 0 0 0-3.9-3.9 3 3 0 0 0-2.5 1.4 3 3 0 0 0-.6 1.8c0 .6.2.9.7 1h.1c.5 0 .7-.2.9-.6v-.3c0-.4-.2-.6-.5-.8h-.4a1 1 0 0 0-.3 0c.2-.8.7-1.3 1.4-1.7l1.2-.3c.8 0 1.4.4 1.9 1.2.3.4.4 1.2.4 2.4a6 6 0 0 1-.3 2.2c-.3.7-.8 1.1-1.5 1.1-1 0-1.7-.4-2.3-1.2l-.2-.2c-.1 0-.2.1-.2.3v5.4l.1.4h.2a5.7 5.7 0 0 1 4.8 0h.1c.1 0 .2 0 .2-.2 0-.1-.2-.4-.6-.7a4 4 0 0 0-2.8-1.1c-.5 0-1 0-1.5.2v-3.4a3 3 0 0 0 2.2.9 3 3 0 0 0 2.6-1.4 4 4 0 0 0 .8-2.5zm3.2 2.2c.5 1.2 1.2 1.8 2.2 1.8 1 0 2-.4 2.7-1.3.3-.5.6-1 .7-1.7l.1-1a4 4 0 0 0-1.3-3c-.7-.6-1.4-.9-2.3-.9-1.2 0-2.1.6-2.8 1.7-.6 1-.9 2.5-.9 4.3 0 2 .6 3.6 1.7 4.8a4 4 0 0 0 3 1.3c1 0 1.7-.3 2-1l.2-.9c0-.4-.2-.7-.7-.8h-.1c-.4 0-.7.1-.8.5v.3c0 .5.3.8 1 .8-.4.4-.9.7-1.6.7-.8 0-1.5-.4-2-1.1-.8-1-1-2.2-1-4zm2.1-5.6c.8 0 1.4.4 1.7 1.2.2.4.3 1.2.3 2.3 0 1.2 0 2-.3 2.4-.3.8-.9 1.1-1.6 1.1-1 0-1.6-.5-2-1.6l-.2-1.5c0-1.2.1-2 .4-2.6.2-.5.5-.9 1-1.1l.7-.2zm10.2 5.2-.5-2.4-.3-1.5c0-.7.2-1 .6-1.1l.3-.1a2 2 0 0 1 1.6.9c.3.3.6.8.8 1.4 0 .1 0 .2.2.2.1 0 .2 0 .2-.2 0-.3-.2-.7-.5-1.2-.7-1-1.4-1.5-2.3-1.5-.8 0-1.4.3-1.7 1l-.2.3c-.3-.5-.7-1-1.2-1.1l-.7-.2c-.7 0-1.2.2-1.4.6l-.2.6c0 .4.2.7.6.9h.4c.3 0 .5 0 .6-.3v-.2c0-.4-.2-.7-.6-1h-.2l.9-.2c.6 0 1 .4 1.4 1.2l.2.6c.7 2.4 1 3.8 1 4.2 0 .7-.4 1.1-1 1.2-.6 0-1.1-.3-1.6-1a4.4 4.4 0 0 1-.7-1.2v-.1c0-.1-.1-.2-.3-.2 0 0-.2 0-.2.2 0 .3.2.7.6 1.2.6 1 1.4 1.5 2.3 1.5.9 0 1.5-.5 1.9-1.4.3.8.8 1.2 1.5 1.3h.3c.7 0 1.2-.1 1.5-.5l.2-.6c0-.5-.3-.8-.7-1a1 1 0 0 0-.3 0c-.4 0-.6.2-.6.5v.1c0 .4.1.6.4.8l.4.2-.9.2c-.8 0-1.4-.6-1.7-1.9v-.2zm15.4-1.3v-4.9c0-.4-.2-.5-.4-.6-.2 0-.3.2-.3.6v5h-5c-.3 0-.5 0-.6.3 0 .2.2.4.6.4h5v4.9c0 .4 0 .6.3.6.2 0 .4-.2.4-.6v-5h4.9c.3 0 .5 0 .5-.3 0-.2-.1-.4-.5-.4zm10.9-1.1v.5l5.4 8.3.3.2c.2 0 .3 0 .3-.2v-8.3h1.8v-.5h-1.8v-1.5c0-.4 0-.6.2-.7.2-.1.5-.2 1.1-.2h.4v-.5a37 37 0 0 1-4.8 0v.5h.4c.7 0 1.2.1 1.3.3v2.1zm4.7.5v6.6l-4.3-6.6zm11.5-.3-.5-3.1h-6.6l.1.6h.1l3.4 3.8c1.2 1.4 1.9 2.7 1.9 4a3 3 0 0 1-1 2.3 2 2 0 0 1-1.4.5c-.8 0-1.5-.4-2-1.1l-.4-.7h.3c.4 0 .7-.2.9-.6v-.3c0-.5-.2-.8-.7-1h-.2c-.5 0-.7.2-.9.6v.4a3 3 0 0 0 1 2.4c.6.5 1.4.8 2.2.8 1.3 0 2.3-.4 3-1.3a3.2 3.2 0 0 0 .8-2c0-1-.4-1.8-1-2.5l-1.6-1.6-1-1-.2-.1-1.9-1.8h3.2l1.6.1c.2.2.3.7.4 1.6zm-102.8 7.2 1.6-10.8.1-.3h.2a10.4 10.4 0 0 1 1 0l.3-.1.1-.3-.1-.3-.2-.1h-.2a10.4 10.4 0 0 0-1.2 0H27a74.1 74.1 0 0 1-2.7 0c-.2 0-.3 0-.3.2v.4l.3.1h.3l1.2.1-.5 2.6h-4.7l-1.6-2.4c.2-.2.6-.2 1-.2.3 0 .5-.1.5-.4 0-.3-.2-.5-.5-.5a23.6 23.6 0 0 0-2 0 21.6 21.6 0 0 1-1.6 0l-.3.1v.6l.2.1h.3l1 .2.4.2.3.3 7 10.6.2.4h.9l.2-.5zm-2.1-2.6-3.4-5h4.1zm24.8-3.5h-12c-.5 0-.8.2-.8.5 0 .4.3.5.8.5h11.9c.5 0 .8-.1.8-.5 0-.3-.2-.5-.7-.5zm-.1-4H37.4c-.5 0-.8.2-.8.6 0 .3.3.5.8.5h12c.5 0 .7-.2.7-.5 0-.4-.3-.6-.8-.6zm83 150.2h6.5a5 5 0 0 0 3.7-1.7 6.9 6.9 0 0 0 1.7-4.4 6 6 0 0 0-1.7-4.2 5 5 0 0 0-3.7-1.7h-6.5v.6h.4c.8 0 1.2 0 1.4.3v9.8c0 .3 0 .5-.2.6-.1.1-.5.2-1.2.2h-.4zm4.2-11.4h1.8c1.2 0 2.2.4 3 1.3l.1.2c.6.8 1 2 1 3.5v.3c0 1.8-.3 3.1-1 4-.7 1-1.8 1.6-3.1 1.6h-1.8c-.4 0-.7 0-.8-.2v-10l.1-.6.7-.1zm15.3 10.5-2.7-2.1-.3.3 2 2.7.6.3c.3 0 .5-.1.6-.4v-.2c0-.2 0-.4-.2-.6zm.7-7h-4.9c0-1.2.2-2 .5-2.7.6-.7 1.3-1 2-1.1.8 0 1.5.3 2 1l.4.8.2.2c.2 0 .2 0 .2-.2s-.1-.6-.4-1c-.5-.7-1.2-1-2-1.2h-.5c-1 0-2 .3-2.8 1.2a4 4 0 0 0-1 2.8 4 4 0 0 0 1.2 3c.7.7 1.5 1 2.4 1 1.3 0 2.3-.6 2.8-1.7.2-.5.3-1.1.3-1.7v-.4h-.4zm-4.9.4h4.2c0 1-.3 2-.8 2.5-.3.3-.7.5-1.2.5-.6 0-1.1-.3-1.5-.8-.4-.5-.6-1.3-.7-2.2zm13.2 1.4-2.3-5.7c-.1-.3-.2-.4-.4-.4-.1 0-.2 0-.3.2v.2l-2.6 6.2-.4.6h-1v.6a26 26 0 0 1 3.6 0v-.5c-.6 0-1-.2-1-.5l.1-.3 2-5 1.8 4.6.1.4c0 .4-.2.7-.6.7h-.2v.6a26.6 26.6 0 0 1 2.8 0v-.5c-.8 0-1.3-.4-1.6-1.1v-.1zm8.3-1.8h-4.9c0-1.2.2-2 .5-2.7.6-.7 1.3-1 2-1.1.8 0 1.5.3 2 1l.4.8.2.2c.2 0 .3 0 .3-.2l-.5-1c-.5-.7-1.1-1-2-1.2h-.5c-1 0-2 .3-2.8 1.2a4 4 0 0 0-1 2.8 4 4 0 0 0 1.2 3c.7.7 1.5 1 2.4 1 1.3 0 2.3-.6 2.8-1.7.2-.5.4-1.1.4-1.7 0-.2 0-.4-.2-.4h-.3zm-4.9.4h4.2c0 1-.2 2-.7 2.5-.4.3-.8.5-1.3.5-.6 0-1-.3-1.5-.8-.4-.5-.6-1.3-.7-2.2zm9 7.8v-11c0-.3 0-.6.3-.6l1-.1v-.6h-3.9v.6l1.3.1.1.7v9.1c0 .5 0 .7-.2.9h-1.1v.6zm10.1-8.5c0-1.2-.5-2.2-1.4-3-.7-.7-1.6-1-2.5-1-1.2 0-2.1.4-2.9 1.3-.7.8-1 1.6-1 2.7a4 4 0 0 0 1.2 3 4 4 0 0 0 2.7 1.1c1.1 0 2-.5 2.8-1.4a4 4 0 0 0 1-2.7zm-4-3.5c.9 0 1.5.3 2 1l.1.3c.3.5.4 1.3.4 2.3a5 5 0 0 1-.5 2.5c-.5.7-1.1 1-2 1.1a2 2 0 0 1-1.7-.9l-.3-.3c-.2-.5-.4-1.3-.4-2.4 0-1.1.2-2 .5-2.5.5-.7 1.1-1.1 2-1.1zm7.5 5.6v-3.9l.2-.6v-.1c.6-.7 1.2-1 2-1 .7 0 1.3.3 1.8 1 .4.8.7 1.6.7 2.5a4 4 0 0 1-1 2.9c-.4.4-.9.7-1.4.7-.8 0-1.5-.4-2-1.2a3 3 0 0 1-.3-.3zm0-4.8v-3.2c0-.4.1-.6.3-.7h1.1v-.6a142.5 142.5 0 0 1-4 0v.5c.8 0 1.2.1 1.3.2l.1.6v8.3c0 .4 0 .6-.2.7a3 3 0 0 1-1.1.2v.5l2.5.2v-1.2c.7.8 1.5 1.2 2.5 1.2s2-.4 2.6-1.3a4 4 0 0 0 1-2.7 3.8 3.8 0 0 0-4-4c-.7 0-1.4.3-1.9 1l-.2.3zm9.8 4.8v-3.9c0-.2 0-.4.2-.6v-.1c.5-.7 1.2-1 2-1 .7 0 1.3.3 1.8 1 .4.8.7 1.6.7 2.5a4 4 0 0 1-1 2.9c-.4.4-.9.7-1.4.7-.8 0-1.5-.4-2-1.2-.2 0-.2-.1-.3-.3zm0-4.8v-3.2c0-.4.1-.6.3-.7h1.1v-.6a142.7 142.7 0 0 1-4 0v.5a3 3 0 0 1 1.3.2l.1.6v8.3c0 .4 0 .6-.2.7a3 3 0 0 1-1.2.2v.5l2.6.2v-1.2a3.2 3.2 0 0 0 5.1-.1 4 4 0 0 0 1-2.7 3.8 3.8 0 0 0-4-4c-.7 0-1.4.3-1.9 1l-.2.3zm14.1 3h-5c0-1.2.3-2 .6-2.7.6-.7 1.2-1 2-1.1.8 0 1.5.3 2 1l.4.8c0 .1 0 .2.2.2s.2 0 .2-.2-.1-.6-.5-1c-.4-.7-1-1-1.9-1.2h-.5c-1.1 0-2 .3-2.8 1.2a4 4 0 0 0-1 2.8 4 4 0 0 0 1.2 3c.7.7 1.5 1 2.4 1a3 3 0 0 0 2.8-1.7c.2-.5.3-1.1.3-1.7v-.4h-.4zm-4.9.4h4.2c0 1-.3 2-.8 2.5-.3.3-.7.5-1.2.5-.6 0-1.1-.3-1.5-.8-.4-.5-.7-1.3-.7-2.2zm8.9-3.2c0-.3 0-.5.2-.6l1.1-.1h.4v-.6H212v.6l1.2.1c.2.2.2.3.2.7v4.7c0 .4 0 .7-.3.8l-.7.2h-.4v.5l2.5.2v-2c.3 1 .8 1.7 1.5 2h.6c.6 0 1-.2 1.2-.6l.1-.5c0-.4-.1-.6-.5-.7h-.2c-.4 0-.6.1-.7.4v.3c0 .3 0 .6.3.7h-.2c-.7 0-1.3-.5-1.7-1.4a5 5 0 0 1-.3-1.9zm12.8 11v-11c0-.3.1-.6.3-.6l1-.1v-.6H225v.6l1.3.1c.1.2.2.3.2.7v9.1c0 .5-.1.7-.3.9H225v.6zm5.5-2c0-1-.5-2-1.2-3l-.5-.3c-.1 0-.2 0-.2.2l.2.3a4 4 0 0 1 1.2 3.2 1 1 0 0 0-.8-.3c-.4 0-.7.2-.9.6v.3c0 .4.2.7.5.9h.4c.6 0 1-.3 1.1-1l.1-.8zm8-6.2h-4.9c0-1.2.2-2 .6-2.7.5-.7 1.2-1 2-1.1.8 0 1.4.3 2 1l.3.8c0 .1.1.2.3.2.1 0 .2 0 .2-.2l-.5-1c-.5-.7-1.1-1-2-1.2h-.5c-1 0-2 .3-2.8 1.2a4 4 0 0 0-1 2.8 4 4 0 0 0 1.2 3c.7.7 1.5 1 2.4 1 1.4 0 2.3-.6 2.8-1.7.3-.5.4-1.1.4-1.7l-.1-.4h-.4zm-4.8.4h4.1c0 1-.2 2-.7 2.5-.3.3-.8.5-1.3.5-.6 0-1-.3-1.5-.8-.4-.5-.6-1.3-.6-2.2zm10.8-.3 2.4-3c.3-.4.6-.6 1-.6h.7v-.6a25.6 25.6 0 0 1-3.6 0v.6c.4 0 .6.1.6.4l-.3.6-1.4 1.7c-.9-1-1.4-1.7-1.5-2v-.2c0-.3.1-.5.4-.5v-.6a49.9 49.9 0 0 1-3 0v.6c.8 0 1.6.3 2.2 1l1.6 2.1-1.7 2.3a4 4 0 0 1-.9 1h-1.2v.6a23.4 23.4 0 0 1 3.6 0v-.5c-.4 0-.6-.2-.6-.5l.1-.3 1.4-1.8 1 1.4c.3.2.3.4.3.6 0 .3-.1.5-.5.6v.5a22.8 22.8 0 0 1 3.2 0v-.5c-1 0-1.6-.4-2.1-1-.3-.2-.8-.9-1.6-2zm7.4 1.7v-3.9l.1-.6.1-.1c.5-.7 1.1-1 1.9-1 .7 0 1.3.3 1.8 1 .5.8.7 1.6.7 2.5a4 4 0 0 1-1 2.9c-.4.4-.9.7-1.4.7-.8 0-1.5-.4-2-1.2-.1 0-.2-.1-.2-.3zm0-4.8v-3.2c0-.4 0-.6.3-.7h1v-.6a142.2 142.2 0 0 1-4 0v.5c.8 0 1.2.1 1.3.2l.2.6v8.3c0 .4-.1.6-.3.7a3 3 0 0 1-1.1.2v.5l2.5.2v-1.2c.7.8 1.5 1.2 2.5 1.2s2-.4 2.7-1.3a4 4 0 0 0 1-2.7c0-1.2-.5-2.2-1.4-3-.7-.7-1.6-1-2.6-1-.8 0-1.4.3-2 1l-.1.3zm9.7.2c0-.3 0-.5.2-.6l1.1-.1h.4v-.6h-4.2v.6l1.2.1.1.7v4.7c0 .4 0 .7-.2.8l-.8.2h-.3v.5l2.4.2v-2a3 3 0 0 0 1.6 2h.6c.5 0 1-.2 1.2-.6v-.5c0-.4-.1-.6-.5-.7h-.2c-.3 0-.6.1-.7.4v.3c0 .3.1.6.4.7h-.2c-.8 0-1.4-.5-1.8-1.4a5 5 0 0 1-.3-1.9zm10.7 2.8H270c0-1.2.2-2 .6-2.7.5-.7 1.2-1 2-1.1.8 0 1.4.3 1.9 1l.4.8c0 .1.1.2.3.2.1 0 .2 0 .2-.2l-.5-1c-.5-.7-1.1-1-2-1.2h-.5c-1 0-2 .3-2.8 1.2a4 4 0 0 0-1 2.8 4 4 0 0 0 1.2 3c.7.7 1.5 1 2.4 1 1.4 0 2.3-.6 2.8-1.7.3-.5.4-1.1.4-1.7l-.1-.4h-.4zm-4.9.4h4.2c0 1-.2 2-.7 2.5-.3.3-.8.5-1.3.5-.6 0-1-.3-1.5-.8-.4-.5-.6-1.3-.7-2.2zm9.6-1.1c-1 .2-1.7.4-2 .6l-.4.2a2 2 0 0 0-.7 1.5c0 .9.3 1.5 1 1.8.5.3 1.1.4 1.8.4.6 0 1.2-.2 1.6-.5l.3.3.4.2.2-.4v-1.8l-.1-.4h-.1l-.3.1c0 1.2-.5 2-1.4 2.1h-.6c-1.1 0-1.8-.3-2-1v-.3c0-.6.5-1 1.4-1.2l.8-.2a4.2 4.2 0 0 0 2-.9c.5-.5.7-1 .7-1.6 0-1-.4-1.7-1.2-2.1a3 3 0 0 0-1.6-.4 3 3 0 0 0-2 .8l-.3-.4-.4-.4c-.2.1-.2.3-.2.4v2.4l.1.4h.1c.1 0 .2 0 .2-.2.4-1.4 1-2.3 1.8-2.5h.7c1 0 1.7.3 2 1v.5c0 .9-.6 1.4-1.8 1.6zm6.9 0c-1 .2-1.7.4-2 .6l-.3.2c-.5.5-.8 1-.8 1.5 0 .9.4 1.5 1 1.8a3.7 3.7 0 0 0 3.5-.1l.3.3.3.2.2-.4V277h-.2l-.2.1c-.1 1.2-.6 2-1.5 2.1h-.6c-1 0-1.7-.3-2-1v-.3c0-.6.5-1 1.4-1.2l.8-.2a4.2 4.2 0 0 0 2-.9c.5-.5.8-1 .8-1.6 0-1-.5-1.7-1.3-2.1-.4-.3-1-.4-1.6-.4-.7 0-1.4.3-2 .8l-.3-.4-.4-.4-.2.4v2.4l.1.4h.1c.1 0 .2 0 .3-.2.3-1.4.9-2.3 1.7-2.5h.7c1 0 1.7.3 2 1v.5c0 .9-.6 1.4-1.8 1.6zm6.4 4.4V273c0-.3 0-.5.2-.6l1-.1v-.6a363.3 363.3 0 0 1-3.8 0v.6l1.3.1.1.7v4.7c0 .5 0 .7-.3.8l-1 .2v.5zm0 3c0-.4-.1-.7-.5-.8a1 1 0 0 0-.4 0c-.4 0-.7.1-.8.5l-.1.4c0 .3.1.6.5.8h.4c.4 0 .7 0 .9-.4v-.4zm10-7c0-1.2-.4-2.2-1.3-3-.7-.7-1.6-1-2.6-1s-2 .4-2.8 1.3c-.7.8-1 1.6-1 2.7a4 4 0 0 0 1.2 3c.8.7 1.6 1.1 2.6 1.1 1.2 0 2.1-.5 3-1.4a4 4 0 0 0 1-2.7zM299 272c.8 0 1.5.3 2 1v.3c.3.5.5 1.3.5 2.3a5 5 0 0 1-.5 2.5c-.5.7-1.1 1-2 1.1-.7 0-1.3-.3-1.8-.9l-.2-.3c-.3-.5-.4-1.3-.4-2.4 0-1.1.1-2 .4-2.5.5-.7 1.2-1.1 2-1.1zm6.3 5.8c0 .4-.1.7-.3.8l-.7.2h-.4v.5l2.5.2v-1.9c.5 1.3 1.4 1.9 2.6 1.9.9 0 1.5-.2 1.8-.7.4-.3.5-.8.6-1.5v-4.5c0-.3.2-.5.5-.5h.9v-.6a152.4 152.4 0 0 1-4 0v.6l1.2.1c.1.2.2.3.2.7v4c0 1.2-.4 1.9-1 2h-.3c-.7 0-1.3-.3-1.8-1a3 3 0 0 1-.6-1.8V273c0-.4 0-.7.3-.7l1-.1v-.6a151 151 0 0 1-3.9 0v.6l1.2.1c.1.2.2.3.2.7zm17.1.6c0-.4-.2-.7-.6-.9a1 1 0 0 0-.4 0c-.3 0-.6.1-.8.5v.4c0 .4 0 .6.4.8l.4.1c.4 0 .7-.2.9-.5v-.4zm0-5.8c0-.3-.2-.6-.6-.8a1 1 0 0 0-.4 0c-.3 0-.6 0-.8.4v.4c0 .4 0 .7.4.9h.4c.4 0 .7 0 .9-.4v-.5zM31.2 245.3l1.7-10.9v-.2h.3a9.8 9.8 0 0 1 1-.1l.2-.1.1-.2v-.4l-.2-.1H34a16 16 0 0 0-1.3 0H29c-.3 0-.4 0-.4.3l.1.3.2.2h1.5l-.4 2.6h-4.8l-1.6-2.4 1-.2c.3 0 .5-.1.5-.3 0-.4-.2-.5-.5-.5h-1a22.5 22.5 0 0 1-1.8 0h-1l-.1.3v.3l.3.2h.2l1 .1.5.2.2.4 7 10.5c0 .2.2.3.3.4h.9l.1-.4zm-2.1-2.7-3.3-5h4zm24.9-3.5H41.8c-.5 0-.7.2-.7.5 0 .4.2.6.8.6h11.8c.6 0 .8-.2.8-.6 0-.3-.2-.5-.7-.5zm-.2-4H42c-.6 0-.8.2-.8.6 0 .4.2.5.7.5h12c.5 0 .7-.1.7-.5s-.2-.5-.8-.5zm16.5 8.6-2.7-3.1a6 6 0 0 1-1.2-3l-.1-2.5v-.8c0-.3-.1-.6-.3-.8l-.4-.4h-.7l-.3.1c-.2 0-.3.2-.4.4l-.1.7c0 2.3 1 4.7 3 7l.9 1.1h-3l-1.9-.1c-.2-.1-.3-.6-.5-1.6h-.8l.6 4.5h.8v-.2l.2-.1.3-.1 1.5-.2h5.3v-.6l-.2-.3zm12.1-14.4v-.2c0-.1-.1-.2-.3-.2-.2 0-.7.3-1.3.9a10.4 10.4 0 0 0-3.2 7.9c0 3.1 1 5.7 3.1 7.8.7.6 1.2 1 1.4 1 .2 0 .3-.1.3-.3 0 0 0-.2-.3-.4-1.9-1.9-2.8-4.6-2.8-8.1 0-1.7.2-3.2.7-4.6a8.8 8.8 0 0 1 2.4-3.8zm4.6 12.4 2.7-1.5c.8.6 1.2 1.2 1.2 2 0 .6-.2 1-.6 1.4-.4.3-1 .5-1.7.5a4.6 4.6 0 0 1-1.4-.2c-.3 0-.5-.2-.7-.4l-.2-.8c0-.4.2-.7.8-1zm3.5-2a15.6 15.6 0 0 0 1.4-1l.7-1 .2-1.1c0-1-.4-1.9-1.1-2.6-.7-.6-1.8-1-3.1-1s-2.3.3-3 .8c-.8.5-1.2 1.3-1.2 2.3 0 1.3.7 2.3 2.2 3-1 .6-1.6 1.5-1.6 2.6 0 .9.3 1.6 1 2.2.6.6 1.5.9 2.6.9s2-.2 2.6-.7c.7-.4 1-1 1-1.9 0-1-.5-1.8-1.7-2.4zm-3-1.1c-1-.6-1.6-1.4-1.6-2.5 0-.7.2-1.2.7-1.7a3 3 0 0 1 2-.6l1.2.1c.3.1.7.3 1 .6.3.3.5.6.5 1s0 .6-.2.8a2 2 0 0 1-.5.5l-.7.4-2.4 1.4zm20.5 1.7c-.3.2-.5.3-.9.3-.3 0-.6-.2-.8-.4-.3-.3-.5-.7-.7-1.2a33.6 33.6 0 0 1-1-4.4c0-.5.4-.8 1-.8.5 0 1 .1 1.4.5.5.3.9.9 1.1 1.6l.4.2c.3 0 .5 0 .5-.2l-.3-.7-.6-1-1.1-.7c-.5-.3-1-.4-1.5-.4-1.2 0-2 .4-2.4 1.1-.5-.7-1.1-1-1.9-1-.5 0-1 0-1.4.4-.4.2-.6.6-.6 1 0 .5.2.8.4 1 .3.3.6.4.9.4.3 0 .5 0 .6-.2l.3-.6a1 1 0 0 0-.3-.7l-.7-.5c.3-.2.5-.2.9-.2.3 0 .6 0 .9.4l.6 1.2.6 2.4.4 1.9c0 .6-.4.9-1 .9-.5 0-1-.2-1.4-.5a3 3 0 0 1-1.1-1.6c0-.2-.2-.3-.4-.3-.3 0-.5.1-.5.3l.3.7.6.9a3.4 3.4 0 0 0 2.6 1.1c1.2 0 2-.3 2.4-1 .5.7 1.1 1 1.9 1 .5 0 1-.1 1.4-.4.4-.3.6-.7.6-1.1 0-.4-.1-.8-.4-1-.3-.3-.6-.4-.9-.4-.3 0-.5 0-.6.2l-.3.6c0 .3.1.5.3.7.2.3.4.4.7.5zm14.5-3.2v-5.4c0-.5-.2-.8-.6-.8-.3 0-.5.3-.5.8v5.4h-5.5c-.5 0-.7.2-.7.6 0 .3.2.5.7.5h5.5v5.5c0 .5.2.7.5.7.4 0 .6-.2.6-.7v-5.5h5.4c.5 0 .8-.2.8-.5 0-.4-.3-.6-.8-.6zm14.5 2.2a2 2 0 0 0 2 1.3 4 4 0 0 0 2.9-1c.7-.6 1-1.5 1-2.7 0-1.2-.3-2.1-1-2.8-.8-.7-1.8-1-3-1a4 4 0 0 0-3.5 1.7 8 8 0 0 0-.8 4c0 1.1.1 2 .4 2.8a4.6 4.6 0 0 0 3 2.9c.6.2 1.2.3 1.9.3.8 0 1.5-.2 2-.7.3-.4.6-.9.6-1.5 0-.4-.1-.6-.3-.8a1 1 0 0 0-.8-.3 1 1 0 0 0-.8.3 1 1 0 0 0-.3.8c0 .2 0 .5.2.7.2.2.4.3.7.3-.3.3-.7.5-1.3.5a2.7 2.7 0 0 1-2.4-1.5c-.4-.7-.6-1.7-.6-3zm1.8-5.5c.3 0 .6 0 .9.2l.5.4.3.7a6.5 6.5 0 0 1 0 1.8v1.8c0 .4-.2.6-.3.7l-.5.4-.8.2c-.5 0-1-.3-1.4-.8-.3-.5-.5-1.2-.5-2.2 0-1.1 0-1.8.3-2.2.3-.7.8-1 1.5-1zm11 3.9c0-3.2-1-5.8-3.2-7.9-.6-.6-1-1-1.3-1-.2 0-.3.2-.3.3l.2.4c2 1.9 2.9 4.6 2.9 8.2 0 3.5-1 6.2-2.8 8.1l-.3.4c0 .2 0 .3.3.3a9.6 9.6 0 0 0 3-3.2 11 11 0 0 0 1.5-5.6z"/>
      <path fill="#606060" d="M326.4 109V96c0-1 .8-1.7 1.7-1.7h58.5c1 0 1.7.8 1.7 1.7v13c0 1-.7 1.8-1.7 1.8h-58.5c-1 0-1.7-.8-1.7-1.7z"/>
      <path fill="none" stroke="#000" stroke-linecap="round" stroke-linejoin="round" stroke-miterlimit="10" stroke-width=".6" d="M326.7 108.8v-13c0-1 .8-1.8 1.7-1.8H387c1 0 1.7.8 1.7 1.7v13c0 1-.8 1.8-1.7 1.8h-58.5c-1 0-1.7-.8-1.7-1.7z"/>
      <path fill="#fff" d="m344 97.7-2.3 6.5h1.5l1.6-4.8 1.6 4.8h1.4l-2.3-6.5zm7.2 1.5 1.2-.2a2 2 0 0 0-.7-1 2 2 0 0 0-1.3-.4c-.8 0-1.4.3-1.8.8-.3.4-.5 1-.5 1.6 0 .8.2 1.4.6 1.9.4.4 1 .6 1.6.6.7 0 1.2-.2 1.6-.6.4-.5.6-1.2.6-2.2h-3.1c0-.3 0-.6.3-.8.2-.2.4-.4.7-.4l.5.2.3.5zm0 1.3c0 .3 0 .6-.2.8a1 1 0 0 1-.7.3.9.9 0 0 1-.6-.3c-.2-.2-.3-.5-.3-.8zm-1.9 2.9.6 1.3h1.4l-1.2-1.3zm5.4-5.7h-1.2v4.7h1.1v-.6l.6.6.5.1c.3 0 .6 0 .8-.2l-.4-1-.6.1-.4-.1-.3-.5v-1.6zm2.4 5.4v1.1h1.2v-1.1zm0-5.4v4.7h1.2v-4.7zm2 4.7h.6v.4c0 .4 0 .7.2.9 0 .2.2.3.4.5l.9.1 1-.1-.2-.9h-.9l-.1-.5v-.4h1v-1h-1v-3.7h-1.3v3.8h-.7zm3.5.7v1.1h1.2v-1.1zm0-5.4v4.7h1.2v-4.7zm5.3 1.5 1.2-.2a2 2 0 0 0-.8-1c-.3-.3-.7-.4-1.2-.4-.9 0-1.5.3-1.9.8-.3.4-.4 1-.4 1.6 0 .8.2 1.4.6 1.9.4.4.9.6 1.5.6.7 0 1.3-.2 1.7-.6.4-.5.6-1.2.6-2.2H366c0-.3.2-.6.3-.8.2-.2.5-.4.8-.4l.5.2.3.5zm0 1.3c0 .3 0 .6-.2.8a1 1 0 0 1-.7.3.9.9 0 0 1-.7-.3l-.2-.8zm3.5-2.8H370v4.7h1.2v-.6l.5.6.6.1c.2 0 .5 0 .8-.2l-.4-1a1 1 0 0 1-.6.1l-.4-.1c-.2-.1-.2-.3-.3-.5l-.1-1.6z"/>
      <path fill="#fafafa" d="M41 76.3V52a3 3 0 0 1 3-3h24.5a3 3 0 0 1 3.1 3v24.4c0 1.8-1.4 3.2-3.1 3.2H44.1a3.1 3.1 0 0 1-3.1-3.2z"/>
      <path fill="none" stroke="#000" stroke-linecap="round" stroke-linejoin="round" stroke-miterlimit="10" stroke-width=".6" d="M41.2 76.2V51.7a3 3 0 0 1 3-3h24.5a3 3 0 0 1 3.1 3v24.5a3 3 0 0 1-3.1 3H44.3a3.1 3.1 0 0 1-3.1-3z"/>
      <path fill="#069" d="M56.4 58.4c-1 0-1.8.2-2.3.8-.5.5-.8 1.1-1 2l-.2 2.7V66l.5 1.8c.3.6.6 1 1.1 1.4.5.3 1.1.5 2 .5.8 0 1.4-.2 1.9-.5a3 3 0 0 0 1-1.4c.3-.5.4-1 .5-1.7a22 22 0 0 0-.1-5c-.2-.8-.5-1.4-1-2-.5-.5-1.3-.7-2.4-.7zm-1.1 2.2c0-.3.2-.6.4-.8a1 1 0 0 1 1.5 0l.4.8.2 1.4a53 53 0 0 1 0 4c0 .7-.2 1.2-.4 1.8-.2.5-.5.7-1 .7-.6 0-1-.4-1.1-1.3a51.5 51.5 0 0 1 0-6.6z"/>
      <path fill="#fafafa" d="M77.9 76.3V52a3 3 0 0 1 3-3h24.5a3 3 0 0 1 3.1 3v24.4c0 1.8-1.4 3.2-3.1 3.2H81a3.1 3.1 0 0 1-3.1-3.2z"/>
      <path fill="none" stroke="#000" stroke-linecap="round" stroke-linejoin="round" stroke-miterlimit="10" stroke-width=".6" d="M78 76.2V51.7c0-1.7 1.5-3 3.2-3h24.4a3 3 0 0 1 3.1 3v24.5a3 3 0 0 1-3.1 3H81.2a3.1 3.1 0 0 1-3.1-3z"/>
      <path fill="#069" d="M90.5 59.2v.1l.2.4.4.2h1.3v7.8c-.4-.2-1-.3-1.5-.3l-.4.2-.2.4c0 .4.2.6.5.6 1.2 0 2 .3 2.6 1h1l.2-.4v-9.3h1.3l.3-.2.2-.4c0-.4-.2-.6-.5-.6H91c-.3 0-.5.2-.6.5z"/>
      <path fill="#fafafa" d="M114.8 76.3V52a3 3 0 0 1 3-3h24.5a3 3 0 0 1 3.1 3v24.4c0 1.8-1.4 3.2-3.1 3.2h-24.4a3.1 3.1 0 0 1-3.1-3.2z"/>
      <path fill="none" stroke="#000" stroke-linecap="round" stroke-linejoin="round" stroke-miterlimit="10" stroke-width=".6" d="M115 76.2V51.7a3 3 0 0 1 3-3h24.5a3 3 0 0 1 3.1 3v24.5a3 3 0 0 1-3.1 3H118a3.1 3.1 0 0 1-3.1-3z"/>
      <path fill="#069" d="M126.9 59.2v.7l2.1 2.3.9 1 .7.8c.3.3.4.7.6 1l.2 1.1c0 .3 0 .6-.2 1l-.5.7c-.3.2-.6.3-1 .3-.8 0-1.4-.6-1.7-1.8l-.2-.2-.2.1-.8 1.1v.2a4 4 0 0 0 1.2 1.6c.6.4 1.2.6 2 .6.5 0 1-.1 1.4-.3a3.3 3.3 0 0 0 2-1.9l.2-1.4c0-.4 0-.9-.3-1.2-.2-.4-.4-.8-.7-1l-1.1-1.1-1-.9-1.6-1.5h4.1l.4-.1.2-.4v-.7c0-.3-.2-.5-.5-.5h-5.7c-.3 0-.5.2-.5.5z"/>
      <path fill="#fafafa" d="M152.2 76.3V52c0-1.7 1.4-3 3.2-3h24.4a3 3 0 0 1 3 3v24.4c0 1.8-1.3 3.2-3 3.2h-24.4a3.1 3.1 0 0 1-3.2-3.2z"/>
      <path fill="none" stroke="#000" stroke-linecap="round" stroke-linejoin="round" stroke-miterlimit="10" stroke-width=".6" d="M152.4 76.2V51.7c0-1.7 1.4-3 3.2-3H180a3 3 0 0 1 3 3v24.5a3 3 0 0 1-3 3h-24.4a3.1 3.1 0 0 1-3.2-3z"/>
      <path fill="#069" d="m164.3 59.6-.1.2.2 1v.2h.4c.4-.4.8-.6 1.3-.8l1.5-.3c.6 0 1 .1 1.1.5.2.3.3.8.3 1.5 0 .6-.1 1-.3 1.4-.2.4-.6.6-1.1.6h-1.1l-.1.2v.8l.2.1h.7c.4 0 .8.3 1 .7.2.4.3.9.3 1.3s0 .7-.2 1l-.8.2c-.4 0-.8 0-1.2-.3-.4-.2-.7-.4-.9-.8h-.4l-.6 1v.1c.3.5.8.8 1.3 1 .5.3 1.1.5 1.7.5.5 0 .9 0 1.3-.2.4 0 .7-.2 1-.4.3-.2.5-.5.7-.9a3 3 0 0 0-.2-2.7 3 3 0 0 0-1.2-1 3 3 0 0 0 1.6-1c.3-.4.5-1 .5-1.6 0-1.2-.3-2.1-1-2.7-.6-.6-1.5-.8-2.7-.8a4.8 4.8 0 0 0-3.2 1.2z"/>
      <path fill="#fafafa" d="M189.1 76.3V52c0-1.7 1.4-3 3.2-3h24.4a3 3 0 0 1 3 3v24.4c0 1.8-1.3 3.2-3 3.2h-24.4a3.1 3.1 0 0 1-3.2-3.2z"/>
      <path fill="none" stroke="#000" stroke-linecap="round" stroke-linejoin="round" stroke-miterlimit="10" stroke-width=".6" d="M189.3 76.2V51.7c0-1.7 1.4-3 3.2-3h24.4a3 3 0 0 1 3 3v24.5a3 3 0 0 1-3 3h-24.4a3.1 3.1 0 0 1-3.2-3z"/>
      <path fill="#069" d="M201.4 61c-.3 0-.5.2-.5.5v1.1l3.5 6.5.5.2h1.5l.4-.1.2-.4v-6.3h.8c.3 0 .5-.2.5-.5v-.5c0-.3-.2-.5-.5-.5h-.8v-1.8c0-.3-.2-.5-.5-.5h-1c-.3 0-.4.2-.5.5V61zm1.1 1.5h2.6v5.2a102.4 102.4 0 0 0-2.6-5.2z"/>
      <path fill="#fafafa" d="M226 76.3V52c0-1.7 1.4-3 3.2-3h24.4a3 3 0 0 1 3 3v24.4c0 1.8-1.3 3.2-3 3.2h-24.4a3.1 3.1 0 0 1-3.2-3.2z"/>
      <path fill="none" stroke="#000" stroke-linecap="round" stroke-linejoin="round" stroke-miterlimit="10" stroke-width=".6" d="M226.2 76.2V51.7c0-1.7 1.4-3 3.2-3h24.4a3 3 0 0 1 3 3v24.5a3 3 0 0 1-3 3h-24.4a3.1 3.1 0 0 1-3.2-3z"/>
      <path fill="#069" d="M237.9 60v.2l.7 1.1h.3c.2-.5.4-.8.8-1 .4-.3.8-.4 1.3-.4s.8 0 1 .2c.3.2.4.5.5.8V63l-.2 1-.6.3c-.4 0-.7 0-1-.2a3 3 0 0 1-.5-.6c-.2-.3-.4-.4-.5-.4h-.6c-.3 0-.5.2-.5.5v5.1c0 .3.2.5.5.5h4.7l.3-.1.2-.4v-.5c0-.4-.2-.5-.5-.6h-3.2v-2.3c.4.2.7.2 1 .2.6 0 1.1 0 1.5-.2.4-.2.8-.4 1-.7.3-.3.5-.7.6-1.1l.2-1.5c0-.6-.1-1.2-.3-1.7l-.7-1.1c-.4-.3-.8-.6-1.3-.7-.4-.2-1-.2-1.6-.2a4 4 0 0 0-1.8.4c-.5.3-1 .7-1.3 1.3z"/>
      <path fill="#fafafa" d="M263 76.3V52a3 3 0 0 1 3-3h24.5a3 3 0 0 1 3 3v24.4c0 1.8-1.3 3.2-3 3.2H266a3.1 3.1 0 0 1-3.2-3.2z"/>
      <path fill="none" stroke="#000" stroke-linecap="round" stroke-linejoin="round" stroke-miterlimit="10" stroke-width=".6" d="M263.1 76.2V51.7c0-1.7 1.4-3 3.2-3h24.4a3 3 0 0 1 3 3v24.5a3 3 0 0 1-3 3h-24.4a3.1 3.1 0 0 1-3.2-3z"/>
      <path fill="#069" d="M278.4 58.4a3 3 0 0 0-1.8.5c-.5.3-.9.8-1.1 1.3L275 62a16.1 16.1 0 0 0 .1 4.2l.7 1.8c.4.5.8 1 1.4 1.2a4.7 4.7 0 0 0 3 .3c.4 0 .6-.2.6-.3v-1.3h-.2l-1.2.3c-.7 0-1.1-.1-1.5-.5-.3-.3-.5-.7-.6-1.2l-.2-1.7.8 1c.3.2.6.3 1 .3 2 0 3-1.3 3-3.8 0-.8-.1-1.5-.3-2.1-.3-.6-.6-1-1.2-1.4a4 4 0 0 0-2-.4zm0 1.5c.4 0 .7 0 .9.3.2.3.3.5.3.9a9.7 9.7 0 0 1 0 2.5l-.3 1c-.2.2-.4.3-.8.3-.5 0-.8-.2-1-.7a4 4 0 0 1-.4-1.6v-.3c0-1.6.5-2.4 1.3-2.4z"/>
      <path fill="#fafafa" d="M299.8 76.3V52c0-1.7 1.4-3 3.2-3h24.4a3 3 0 0 1 3.1 3v24.4c0 1.8-1.4 3.2-3.1 3.2H303a3.1 3.1 0 0 1-3.2-3.2z"/>
      <path fill="none" stroke="#000" stroke-linecap="round" stroke-linejoin="round" stroke-miterlimit="10" stroke-width=".6" d="M300 76.2V51.7c0-1.7 1.4-3 3.2-3h24.4a3 3 0 0 1 3 3v24.5a3 3 0 0 1-3 3h-24.4a3.1 3.1 0 0 1-3.2-3z"/>
      <path fill="#069" d="M313.3 59.1a11.8 11.8 0 0 0 .9 4.6 12.5 12.5 0 0 0 2.5 4h-4.3c-.3 0-.5.1-.6.4v.7c0 .3.2.5.5.6h6l.4-.2.1-.4V68a13.8 13.8 0 0 1-3.3-9s0-.2-.2-.3l-.3-.2h-1.2c-.4 0-.5.3-.5.6z"/>
      <path fill="#fafafa" d="M336.7 76.3V52c0-1.7 1.4-3 3.2-3h24.4a3 3 0 0 1 3.1 3v24.4c0 1.8-1.4 3.2-3.1 3.2h-24.4a3.1 3.1 0 0 1-3.2-3.2z"/>
      <path fill="none" stroke="#000" stroke-linecap="round" stroke-linejoin="round" stroke-miterlimit="10" stroke-width=".6" d="M337 76.2V51.7a3 3 0 0 1 3-3h24.5a3 3 0 0 1 3 3v24.5a3 3 0 0 1-3 3H340a3.1 3.1 0 0 1-3.2-3z"/>
      <path fill="#069" d="M348.7 61.9c0 .6.2 1.2.5 1.6.3.5.8.8 1.4 1-.6.1-1 .4-1.2.8-.3.3-.5.8-.5 1.3 0 2 1.1 3 3.3 3 2.2 0 3.3-1 3.3-3 0-.5-.2-1-.4-1.3-.3-.4-.7-.7-1.2-.9.4 0 .7-.3 1-.5.2-.2.5-.5.6-.9l.2-1.1c0-.6 0-1.1-.2-1.5-.1-.5-.4-.8-.7-1.1-.2-.3-.6-.6-1-.7-.5-.2-1-.2-1.6-.2a4 4 0 0 0-2.6.8c-.6.6-.9 1.5-.9 2.7zm3.5-2c.4 0 .7 0 1 .2l.3.7v2.1c0 .3-.2.5-.4.7-.2.2-.5.3-.9.3s-.7-.1-.9-.3a1 1 0 0 1-.3-.7 7 7 0 0 1 0-2.5l.5-.4.7-.1zm0 5.1c.4 0 .7 0 .8.2l.4.5v1c0 .5 0 1-.2 1.2-.1.2-.4.3-1 .3-.5 0-.9 0-1-.3-.2-.3-.2-.7-.2-1.3v-.9c0-.2.2-.4.4-.5l.8-.2z"/>
      <path fill="#fafafa" d="M374.2 76.3V52a3 3 0 0 1 3.1-3h24.4c1.8 0 3.2 1.3 3.2 3v24.4c0 1.8-1.4 3.2-3.2 3.2h-24.4a3.1 3.1 0 0 1-3-3.2z"/>
      <path fill="none" stroke="#000" stroke-linecap="round" stroke-linejoin="round" stroke-miterlimit="10" stroke-width=".6" d="M374.4 76.2V51.7a3 3 0 0 1 3.1-3H402c1.8 0 3.2 1.3 3.2 3v24.5c0 1.7-1.4 3-3.2 3h-24.4a3.1 3.1 0 0 1-3.1-3z"/>
      <path fill="#069" d="m386.8 59.2-.1.1v.1l.6 1 .1.1s.2 0 .3-.2l.6-.3.7-.1c.8 0 1.3.3 1.6 1 .2.6.4 1.4.4 2.3l-.8-.9a2 2 0 0 0-1-.3c-.8 0-1.4.1-1.8.5-.5.3-.8.7-1 1.3l-.2 2c0 .6 0 1.1.2 1.6.1.5.3.9.6 1.2.3.4.7.6 1.1.8.5.2 1 .3 1.7.3a3 3 0 0 0 1.8-.5 3 3 0 0 0 1-1.4c.3-.5.4-1.1.5-1.7v-2c0-1.1 0-2-.3-2.9a4 4 0 0 0-1.3-2c-.6-.6-1.5-.8-2.5-.8-.9 0-1.6.2-2.2.8zm2.8 4c.5 0 .8.2 1 .7a4.2 4.2 0 0 1 .4 1.9c0 1.6-.4 2.4-1.2 2.4-.6 0-1-.2-1.2-.6l-.2-1.9c0-.7 0-1.4.2-1.8a1 1 0 0 1 1-.8zM41 39.4V15a3 3 0 0 1 3-3h24.5a3 3 0 0 1 3.1 3v24.4c0 1.8-1.4 3.2-3.1 3.2H44.1a3.1 3.1 0 0 1-3.1-3.2z"/>
      <path fill="none" stroke="#000" stroke-linecap="round" stroke-linejoin="round" stroke-miterlimit="10" stroke-width=".6" d="M41.2 39.2V14.8a3 3 0 0 1 3-3h24.5a3 3 0 0 1 3.1 3v24.4c0 1.8-1.4 3.2-3.1 3.2H44.3a3.1 3.1 0 0 1-3.1-3.2z"/>
      <path fill="#fff" d="M51.5 26.8c-.4 0-.6.3-.6.6v.1c0 .4.2.6.6.6h4.3v4.3c0 .2 0 .3.2.4l.4.2c.2 0 .4 0 .5-.2l.2-.4v-4.3h4.3c.1 0 .3 0 .4-.2l.1-.4c0-.4-.2-.6-.5-.7H57v-4.3l-.2-.4a.8.8 0 0 0-.4-.2h-.1c-.4 0-.6.3-.6.6v4.3z"/>
      <path fill="#069" d="M77.9 39.4V15a3 3 0 0 1 3-3h24.5a3 3 0 0 1 3.1 3v24.4c0 1.8-1.4 3.2-3.1 3.2H81a3.1 3.1 0 0 1-3.1-3.2z"/>
      <path fill="none" stroke="#000" stroke-linecap="round" stroke-linejoin="round" stroke-miterlimit="10" stroke-width=".6" d="M78 39.2V14.8c0-1.7 1.5-3 3.2-3h24.4a3 3 0 0 1 3.1 3v24.4c0 1.8-1.4 3.2-3.1 3.2H81.2a3.1 3.1 0 0 1-3.1-3.2z"/>
      <path fill="#fff" d="M97.6 26.8h-9.2c-.4 0-.7.1-.7.4 0 .3.3.5.7.5h9.2c.5 0 .7-.2.7-.5s-.2-.4-.7-.4z"/>
      <path fill="#069" d="M114.8 39.4V15a3 3 0 0 1 3-3h24.5a3 3 0 0 1 3.1 3v24.4c0 1.8-1.4 3.2-3.1 3.2h-24.4a3.1 3.1 0 0 1-3.1-3.2z"/>
      <path fill="none" stroke="#000" stroke-linecap="round" stroke-linejoin="round" stroke-miterlimit="10" stroke-width=".6" d="M115 39.2V14.8a3 3 0 0 1 3-3h24.5a3 3 0 0 1 3.1 3v24.4c0 1.8-1.4 3.2-3.1 3.2H118a3.1 3.1 0 0 1-3.1-3.2z"/>
      <path fill="#fff" d="m130.6 27.2 3.3-3.3.3-.4c0-.2 0-.3-.2-.4h-.3l-.4.1-3.4 3.4-3.3-3.4-.4-.2-.3.1-.2.4.2.4 3.4 3.3-3.4 3.4-.2.4c0 .1 0 .2.2.3l.3.1c.1 0 .3 0 .4-.2l3.3-3.3 3.4 3.3c.1.2.3.2.4.2h.3l.2-.4c0-.2-.1-.3-.3-.5z"/>
      <path fill="#069" d="M152.2 39.4V15c0-1.7 1.4-3 3.2-3h24.4a3 3 0 0 1 3 3v24.4c0 1.8-1.3 3.2-3 3.2h-24.4a3.1 3.1 0 0 1-3.2-3.2z"/>
      <path fill="none" stroke="#000" stroke-linecap="round" stroke-linejoin="round" stroke-miterlimit="10" stroke-width=".6" d="M152.4 39.2V14.8c0-1.7 1.4-3 3.2-3H180a3 3 0 0 1 3 3v24.4c0 1.8-1.3 3.2-3 3.2h-24.4a3.1 3.1 0 0 1-3.2-3.2z"/>
      <path fill="#fff" d="M170.5 34 165 20c-.2-.2-.3-.4-.5-.4l-.4.1-.1.4.1.3 5.7 13.9v.2l.2.1.3.1.3-.1.1-.4V34z"/>
      <path fill="#069" d="M189.1 39.4V15c0-1.7 1.4-3 3.2-3h24.4a3 3 0 0 1 3 3v24.4c0 1.8-1.3 3.2-3 3.2h-24.4a3.1 3.1 0 0 1-3.2-3.2z"/>
      <path fill="none" stroke="#000" stroke-linecap="round" stroke-linejoin="round" stroke-miterlimit="10" stroke-width=".6" d="M189.3 39.2V14.8c0-1.7 1.4-3 3.2-3h24.4a3 3 0 0 1 3 3v24.4c0 1.8-1.3 3.2-3 3.2h-24.4a3.1 3.1 0 0 1-3.2-3.2z"/>
      <path fill="#fff" d="m205.4 19.6-1.4 1.6c-.4.5-.8 1.1-1 1.8a10.6 10.6 0 0 0-.8 4.2 12.4 12.4 0 0 0 .8 4.1 8.7 8.7 0 0 0 2.4 3.4h1l.1-.2a10.3 10.3 0 0 1-2-4.7 19.5 19.5 0 0 1 0-5.3c.1-.9.4-1.7.7-2.5.3-.8.7-1.5 1.3-2v-.4h-1z"/>
      <path fill="#069" d="M226 39.4V15c0-1.7 1.4-3 3.2-3h24.4a3 3 0 0 1 3 3v24.4c0 1.8-1.3 3.2-3 3.2h-24.4a3.1 3.1 0 0 1-3.2-3.2z"/>
      <path fill="none" stroke="#000" stroke-linecap="round" stroke-linejoin="round" stroke-miterlimit="10" stroke-width=".6" d="M226.2 39.2V14.8c0-1.7 1.4-3 3.2-3h24.4a3 3 0 0 1 3 3v24.4c0 1.8-1.3 3.2-3 3.2h-24.4a3.1 3.1 0 0 1-3.2-3.2z"/>
      <path fill="#fff" d="M239 19.6h-.2v.4c.5.5.8 1 1 1.6a9.8 9.8 0 0 1 1 3.7 21.4 21.4 0 0 1-.3 5.8c-.1.7-.3 1.3-.6 1.8l-1 1.6-.1.1v.2h1l1.5-1.5a8.7 8.7 0 0 0 1.6-4 12.6 12.6 0 0 0-.6-6.2 8.5 8.5 0 0 0-2.4-3.4h-.1z"/>
      <path fill="#069" d="M263 39.4V15a3 3 0 0 1 3-3h24.5a3 3 0 0 1 3 3v24.4c0 1.8-1.3 3.2-3 3.2H266a3.1 3.1 0 0 1-3.2-3.2z"/>
      <path fill="none" stroke="#000" stroke-linecap="round" stroke-linejoin="round" stroke-miterlimit="10" stroke-width=".6" d="M263.1 39.2V14.8c0-1.7 1.4-3 3.2-3h24.4a3 3 0 0 1 3 3v24.4c0 1.8-1.3 3.2-3 3.2h-24.4a3.1 3.1 0 0 1-3.2-3.2z"/>
      <path fill="#fff" d="m279.3 29-.8-3.4v-.4c0-.5.2-.7.7-.7.4 0 .8.1 1.2.4.3.3.6.8.8 1.4l.1.1h.3l.5-.1-.2-.6-.6-.8a2.8 2.8 0 0 0-2.1-1c-1 0-1.6.3-2 .8-.4-.5-.9-.8-1.5-.8-.4 0-.8.1-1.1.4-.3.2-.5.5-.5 1 0 .3.1.6.3.8.2.2.5.3.8.3.2 0 .4 0 .5-.2.2-.1.2-.3.2-.5 0-.5-.2-.8-.7-1 .1-.2.3-.2.6-.2.5 0 1 .5 1.2 1.5l.5 2 .3 1.6c0 .5-.3.7-.8.7-.3 0-.7-.1-1-.4a5 5 0 0 1-1-1.4v-.2h-.3c-.3 0-.5 0-.5.2l.2.6.6.8a2.9 2.9 0 0 0 2.1 1c.9 0 1.5-.3 1.9-.8.5.5 1 .8 1.5.8s.9-.2 1.2-.4c.3-.3.5-.6.5-1 0-.3-.1-.6-.3-.8a1 1 0 0 0-.8-.4c-.2 0-.4.1-.5.3-.2 0-.3.3-.3.4 0 .5.3.9.8 1-.1.2-.3.3-.6.3s-.5-.1-.7-.4l-.5-1z"/>
      <path fill="#069" d="M299.8 39.4V15c0-1.7 1.4-3 3.2-3h24.4a3 3 0 0 1 3.1 3v24.4c0 1.8-1.4 3.2-3.1 3.2H303a3.1 3.1 0 0 1-3.2-3.2z"/>
      <path fill="none" stroke="#000" stroke-linecap="round" stroke-linejoin="round" stroke-miterlimit="10" stroke-width=".6" d="M300 39.2V14.8c0-1.7 1.4-3 3.2-3h24.4a3 3 0 0 1 3 3v24.4c0 1.8-1.3 3.2-3 3.2h-24.4a3.1 3.1 0 0 1-3.2-3.2z"/>
      <path fill="#fff" d="m314.2 29-.8-3.5V25c0-.5.2-.7.7-.7.4 0 .8.1 1.2.5.4.3.7.7.8 1.3l.2.2h.3c.3 0 .4 0 .4-.2 0-.1 0-.3-.2-.5a5 5 0 0 0-.5-.8 3 3 0 0 0-2.2-1c-1 0-1.6.2-2 .8-.4-.6-1-.9-1.5-.9s-1 .2-1.2.4c-.4.3-.5.6-.5 1 0 .3 0 .6.3.9.2.2.5.3.8.3.2 0 .4 0 .5-.2.2-.1.3-.3.3-.5a1 1 0 0 0-.8-1c.1-.2.3-.3.6-.3.6 0 1 .5 1.2 1.5l.5 2 .4 1.7c0 .5-.3.8-.8.8a2 2 0 0 1-1.2-.5 3 3 0 0 1-.8-1.4l-.1-.1h-.4l-.4.1c0 .2 0 .4.2.6l.5.8a3 3 0 0 0 2.2 1c1 0 1.6-.2 2-.8.5.6 1 .9 1.6.9a2 2 0 0 0 1.2-.4c.3-.3.5-.6.5-1s-.1-.6-.4-.9a1 1 0 0 0-.7-.3c-.3 0-.5 0-.6.2l-.2.5c0 .5.2.9.8 1a1 1 0 0 1-.7.3.9.9 0 0 1-.7-.4l-.5-1zm6.5 1.6h1.2l1.2-.2c.3 0 .6.1.8.3l.5.6v.1h.3l.3-.1-.1-.3a3.2 3.2 0 0 0-.7-1 2 2 0 0 0-.5-.5l-.8-.2c-.3 0-.7.1-1.2.4l-1 .5c-.3 0-.5-.3-.6-.8h-.1l-.3-.1-.3.1.2.4.3.7c.1.3.4.6.7.9.4.3.7.6 1.2.8.7.4 1.3.8 1.6 1.3l.4.8a4.5 4.5 0 0 1 .2 1c0 .4-.1.6-.3.7a1 1 0 0 1-.6.3c-.6 0-1.1-.3-1.5-.9a2 2 0 0 1-.7-1.5c0-.2 0-.3.2-.3.3 0 .5.2.7.5.3.3.4.6.4.8l-.1.3-.1.1v.2h.2c.1 0 .2 0 .3-.2V35c0-.3 0-.7-.4-1-.3-.5-.6-.7-1-.7-.3 0-.5.1-.6.3l-.2.5c0 .3 0 .5.2.8l.6.9a2.8 2.8 0 0 0 2 1c.6 0 1.1-.2 1.5-.5.4-.3.6-.8.6-1.3 0-.6-.2-1.2-.6-1.6-.4-.4-1.2-1-2.3-1.5-.7-.3-1.3-.7-1.6-1.2z"/>
      <path fill="#09c" d="M336.7 39.4V15c0-1.7 1.4-3 3.2-3h24.4a3 3 0 0 1 3.1 3v24.4c0 1.8-1.4 3.2-3.1 3.2h-24.4a3.1 3.1 0 0 1-3.2-3.2z"/>
      <path fill="none" stroke="#000" stroke-linecap="round" stroke-linejoin="round" stroke-miterlimit="10" stroke-width=".6" d="M337 39.2V14.8a3 3 0 0 1 3-3h24.5a3 3 0 0 1 3 3v24.4c0 1.8-1.3 3.2-3 3.2H340a3.1 3.1 0 0 1-3.2-3.2z"/>
      <path fill="#fff" d="M343.4 23c-.3 0-.5.2-.5.4v8c0 .3.2.4.5.5h5.3c.2 0 .3 0 .3-.2.1 0 .2-.1.2-.3V31c0-.2-.2-.4-.5-.4H345v-2.3h3.4l.3-.1.2-.3v-.4c0-.3-.2-.4-.5-.4H345v-2.6h4.3l.2-.4v-.6s0-.2-.2-.3l-.3-.1zm7.6.4V28h-.2c-.3 0-.4.2-.5.4v.1l.2.3.3.2h.2v1c0 .7.3 1.3.7 1.6.5.3 1.1.5 1.9.5h.8c.3 0 .4-.2.4-.3v-1.1h-.3c-.1.2-.3.3-.4.3l-.5.1c-.6 0-.9-.2-.9-.7V29h.9c.2 0 .4-.2.4-.5s-.2-.5-.4-.5h-.8v-4.5c0-.2-.2-.4-.4-.4h-1c-.2 0-.3.2-.4.4zm4 0V30c0 .7.2 1.3.6 1.6.5.3 1.1.5 1.9.5h.8c.3 0 .4-.2.4-.3v-1.1h-.3c-.1.2-.3.3-.4.3l-.5.1c-.6 0-.9-.2-.9-.7V29h.9c.2 0 .4-.2.4-.5s-.2-.5-.4-.5h-.8v-4.5c0-.2-.2-.4-.5-.4h-.8c-.3 0-.4.2-.5.4zm4.4-.4h-.1v1.6l.1.1h1.5V23z"/>
      <path fill="#09c" d="M374.2 39.4V15a3 3 0 0 1 3.1-3h24.4c1.8 0 3.2 1.3 3.2 3v24.4c0 1.8-1.4 3.2-3.2 3.2h-24.4a3.1 3.1 0 0 1-3-3.2z"/>
      <path fill="none" stroke="#000" stroke-linecap="round" stroke-linejoin="round" stroke-miterlimit="10" stroke-width=".6" d="M374.4 39.2V14.8a3 3 0 0 1 3.1-3H402c1.8 0 3.2 1.3 3.2 3v24.4c0 1.8-1.4 3.2-3.2 3.2h-24.4a3.1 3.1 0 0 1-3.1-3.2z"/>
      <path fill="#fff" d="M384.3 28.9c-.2 0-.3.1-.3.3v4.7c0 .1.1.2.3.2h3.3v-.5c0-.2 0-.3-.2-.3h-2.3V32h2.1l.2-.1v-.4c0-.2 0-.2-.2-.3h-2v-1.5h2.5l.1-.2V29l-.2-.1zm4.5.3v2.6h-.2c-.1 0-.2 0-.2.2v.3h.4v.7c0 .4.1.7.4 1l1 .2h.6l.2-.1v-.7h-.2l-.2.2h-.3c-.3 0-.5-.1-.5-.4v-.8h.5c.1 0 .2-.1.2-.3 0-.2 0-.3-.2-.3h-.5v-2.6c0-.2 0-.3-.2-.3h-.5c-.2 0-.3.1-.3.3zm2.3 0V33c0 .4.1.7.4 1l1 .2h.6l.2-.1v-.7h-.2l-.2.2h-.3c-.3 0-.5-.1-.5-.4v-.8h.5c.1 0 .2-.1.2-.3 0-.2 0-.3-.2-.3h-.5v-2.6c0-.2 0-.3-.2-.3h-.5c-.2 0-.3.1-.3.3zm2.6-.3v1h.9v-1zm-11.9-8.2v4.1H380c-.1 0-.2.1-.2.3v.3c0 .1 0 .2.2.2h4.6l.1-.2v-.5h-1.9v-4.2c0-.2 0-.3-.2-.3h-.7c-.1 0-.2.1-.2.3zm3.6 1.3c0 .5 0 .8.2 1.1 0 .3.3.5.6.7l1 .2c.4 0 .7 0 1-.2.3-.2.5-.4.6-.7.2-.3.2-.6.2-1v-.8l-.4-.6-.6-.3h-.8l-1 .1c-.3.1-.5.3-.6.6a2 2 0 0 0-.2 1zm1.8-1 .5.1.2.4a4.3 4.3 0 0 1 0 1.3c0 .2 0 .3-.2.4-.1.2-.3.2-.5.2s-.4 0-.5-.2a.7.7 0 0 1-.3-.4v-1.3l.3-.4.5-.2zm2.5.3v2.3l.3.3h.5a.3.3 0 0 0 .3-.3V21l.1-.2h.4l.4.1.2.3.1.5v1.9l.3.3h.5c.2 0 .3-.2.3-.3v-3c0-.1-.1-.2-.3-.2h-.5c-.2 0-.2.1-.3.3v.2c0-.2-.2-.3-.4-.4l-.6-.2a3 3 0 0 0-.5 0l-.4.2-.3.3v.5zm5.3-1c-.6 0-.8.4-.8 1.2v1.8h-.3c-.1 0-.2 0-.2.2v.1c0 .1 0 .2.2.3h.3v.7c0 .1 0 .2.2.2h.7v-.9h.8c.2 0 .3-.2.3-.3 0-.2-.1-.3-.3-.3h-.7v-1.6c0-.5 0-.8.2-.8h.3l.3.2.1.1h.1l.1-.4v-.1a3 3 0 0 0-1.4-.4z"/>
    </g>
  </g>
</svg>
