<svg xmlns="http://www.w3.org/2000/svg" xmlns:xlink="http://www.w3.org/1999/xlink" version="1.2" viewBox="0 0 246.62 211.69">
  <defs>
    <path id="C" fill-opacity=".5" d="M0 0h595.28v841.89H0z"/>
    <path id="a" d="M0 0h13v13H0z"/>
    <path id="b" fill-opacity=".81" d="M0 0h247v37H0z"/>
    <path id="c" d="M.74.1h245.42v151.43H.74Zm0 0"/>
  </defs>
  <defs>
    <clipPath id="D">
      <path d="M535.61 57.03h12.17V69.2H535.6zm0 0"/>
    </clipPath>
    <clipPath id="d">
      <path d="M1 1h11.78v10H1Zm0 0"/>
    </clipPath>
    <clipPath id="G">
      <path d="M517.35 57.03h12.16V69.2h-12.16zm0 0"/>
    </clipPath>
    <clipPath id="e">
      <use xlink:href="#a"/>
    </clipPath>
    <clipPath id="J">
      <path d="M310.54 57.03h12.17V69.2h-12.17zm0 0"/>
    </clipPath>
    <clipPath id="g">
      <path d="M.54.03H12.7V12.2H.54Zm0 0"/>
    </clipPath>
    <clipPath id="f">
      <use xlink:href="#a"/>
    </clipPath>
    <clipPath id="L">
      <path d="M328.22 57.03h12.16V69.2h-12.16zm0 0"/>
    </clipPath>
    <clipPath id="i">
      <path d="M.22 1H10v11.2H.22Zm0 0"/>
    </clipPath>
    <clipPath id="j">
      <path d="M.22.03h12.16V12.2H.22Zm0 0"/>
    </clipPath>
    <clipPath id="h">
      <use xlink:href="#a"/>
    </clipPath>
    <clipPath id="N">
      <path d="M345.7 57.03h12.17V69.2h-12.16zm0 0"/>
    </clipPath>
    <clipPath id="l">
      <path d="M1 .03h11.87V11H1Zm0 0"/>
    </clipPath>
    <clipPath id="k">
      <use xlink:href="#a"/>
    </clipPath>
    <clipPath id="P">
      <path d="M363.2 57.03h12.16V69.2h-12.17zm0 0"/>
    </clipPath>
    <clipPath id="n">
      <path d="M.2.03h12.16V12.2H.19Zm0 0"/>
    </clipPath>
    <clipPath id="m">
      <use xlink:href="#a"/>
    </clipPath>
    <clipPath id="R">
      <path d="M306.74 73.19h245.42v35.88H306.74Zm0 0"/>
    </clipPath>
    <clipPath id="q">
      <path d="M223 6h15v15h-15zm0 0"/>
    </clipPath>
    <clipPath id="r">
      <path d="M225.64 8.76a7.14 7.14 0 1 0 10.1 10.1 7.14 7.14 0 0 0-10.1-10.1zm2.13 2.12a4.13 4.13 0 1 1 5.84 5.85 4.13 4.13 0 0 1-5.84-5.85zm0 0"/>
    </clipPath>
    <clipPath id="t">
      <path d="M.74.19h245.42v35.88H.74Zm0 0"/>
    </clipPath>
    <clipPath id="o">
      <use xlink:href="#b"/>
    </clipPath>
    <clipPath id="p">
      <use xlink:href="#b"/>
    </clipPath>
    <clipPath id="T">
      <path d="M306.74 112.1h245.42v151.43H306.74Zm0 0"/>
    </clipPath>
    <clipPath id="x">
      <use xlink:href="#c"/>
    </clipPath>
    <clipPath id="y">
      <path d="M.74 31H169v61H.74Zm0 0"/>
    </clipPath>
    <clipPath id="z">
      <use xlink:href="#c"/>
    </clipPath>
    <clipPath id="A">
      <path d="M1 .1h60V14H1Zm0 0"/>
    </clipPath>
    <clipPath id="w">
      <path d="M0 0h247v152H0z"/>
    </clipPath>
    <g id="E" clip-path="url(#d)">
      <path fill="#979797" d="M8.86 4.3V6l3.18-2.21-3.18-2.22v1.68H7.03c-3.6 0-5.68.6-5.68 3.7s2.08 3.71 5.68 3.71h4.12V9.61H7.03c-3.07 0-4.57-.6-4.57-2.65 0-2.13 1.5-2.66 4.57-2.66h1.83zm0 0"/>
    </g>
    <g id="H" clip-path="url(#e)">
      <path fill="#979797" d="M4.27 4.3V6L1.08 3.8l3.19-2.22v1.68H6.1c3.6 0 5.68.6 5.68 3.7S9.7 10.67 6.1 10.67H1.98V9.61H6.1c3.06 0 4.56-.6 4.56-2.65 0-2.13-1.5-2.66-4.56-2.66H4.27Zm0 0"/>
    </g>
    <g id="K" clip-path="url(#f)">
      <path fill="#fff" d="m7.64 10.16.98-.5-1.63-3.33 2.03-.2L4.55 2.2l-.09 6.15 1.5-1.54Zm0 0"/>
      <g clip-path="url(#g)">
        <path fill="none" stroke="#000" stroke-miterlimit="10" stroke-width=".31" d="m7.64 10.16.98-.5-1.63-3.33 2.03-.2L4.55 2.2l-.09 6.15 1.5-1.54Zm0 0"/>
      </g>
    </g>
    <g id="M" clip-path="url(#h)">
      <g clip-path="url(#i)">
        <path d="M9.16 12.51C7.96 7.9 4.56 3.96-.18 1.74l.13-.28c4.83 2.26 8.3 6.26 9.5 10.97Zm0 0"/>
      </g>
      <g clip-path="url(#j)">
        <path fill="none" stroke="#000" stroke-miterlimit="10" stroke-width=".31" d="m0 9.36 12.7-5.82"/>
      </g>
      <path fill="red" d="M7.06 6.51a.83.83 0 1 1-1.66 0 .83.83 0 0 1 1.66 0zm0 0"/>
      <path d="M6.23 5.87a.64.64 0 1 1 0 1.28.64.64 0 0 1 0-1.28m0-.3a.95.95 0 1 0 0 1.9.95.95 0 0 0 0-1.9zm0 0"/>
    </g>
    <g id="O" clip-path="url(#k)">
      <g clip-path="url(#l)">
        <path fill="none" stroke="#000" stroke-width=".31" d="m13.11 1.68-9.55 6.7"/>
      </g>
      <path fill="#00f" d="M10.14 4.35a.83.83 0 0 1-1.66 0 .83.83 0 0 1 1.41-.58.8.8 0 0 1 .25.58zm0 0"/>
      <path d="M9.3 3.71A.64.64 0 0 1 9.3 5a.65.65 0 0 1-.64-.65c0-.35.3-.64.65-.64m0-.3a.95.95 0 1 0 0 1.9.95.95 0 0 0 0-1.9zm0 0"/>
      <path fill="#00f" d="M4.4 8.35a.83.83 0 0 1-1.67 0 .83.83 0 0 1 1.66 0zm0 0"/>
      <path d="M3.56 7.71a.64.64 0 0 1 0 1.29.65.65 0 0 1-.65-.65c0-.35.3-.64.65-.64m0-.3a.95.95 0 1 0 0 1.9.95.95 0 0 0 0-1.9zm0 0"/>
    </g>
    <g id="Q" clip-path="url(#m)">
      <g clip-path="url(#n)">
        <path fill="none" stroke="#000" stroke-width=".31" d="M10.65 6.11a4.37 4.37 0 1 1-8.74 0 4.37 4.37 0 0 1 8.74 0zm0 0"/>
      </g>
      <path fill="#00f" d="M10.68 3.58a.83.83 0 1 1-1.67 0 .83.83 0 0 1 1.67 0zm0 0"/>
      <path d="M10.37 3.21a.64.64 0 0 1-1.05.74.64.64 0 0 1 .16-.9c.29-.2.7-.13.9.16m.24-.17a.95.95 0 1 0-1.55 1.09.95.95 0 0 0 1.55-1.1Zm0 0"/>
      <path fill="#00f" d="M7.1 6.11a.83.83 0 1 1-1.66 0 .83.83 0 0 1 1.67 0zm0 0"/>
      <path d="M6.8 5.75a.64.64 0 0 1-1.05.73.64.64 0 1 1 1.05-.73m.25-.18A.95.95 0 1 0 5.5 6.66a.95.95 0 0 0 1.55-1.1Zm0 0"/>
    </g>
    <g id="u" clip-path="url(#o)">
      <path fill="red" stroke="red" stroke-linecap="round" stroke-linejoin="round" stroke-width=".11" d="M225.64 8.76c-.56.56-1 1.19-1.34 1.86l2.7 1.34a4.13 4.13 0 0 1 1.84-1.85l-1.34-2.69c-.67.33-1.3.78-1.86 1.34zM224.3 17a7.18 7.18 0 0 0 3.2 3.2l1.34-2.7a4.21 4.21 0 0 1-1.84-1.84zm9.59-9.58-1.35 2.69a4.24 4.24 0 0 1 1.85 1.85l2.7-1.34a7.05 7.05 0 0 0-3.2-3.2zm-1.35 10.09 1.35 2.69a7.12 7.12 0 0 0 3.2-3.2l-2.7-1.34a4.1 4.1 0 0 1-1.85 1.85zm0 0"/>
    </g>
    <g id="S" clip-path="url(#p)">
      <g clip-path="url(#q)">
        <g clip-path="url(#r)">
          <path fill="url(#s)" d="m215.02 13.8 15.67 15.69 15.68-15.68L230.7-1.87zm0 0"/>
        </g>
      </g>
      <path fill="none" stroke="#9e9e9e" stroke-width=".11" d="M225.64 8.76a7.14 7.14 0 1 0 10.1 10.1 7.14 7.14 0 0 0-10.1-10.1zm2.13 2.12a4.13 4.13 0 1 1 5.84 5.85 4.13 4.13 0 0 1-5.84-5.85zm0 0"/>
      <g clip-path="url(#t)">
        <use xlink:href="#u" width="100%" height="100%" mask="url(#v)"/>
      </g>
      <path d="M5.69 8.83c-1.37 0-2.06-.74-2.06-2.22 0-.48.07-.89.21-1.23.14-.34.36-.6.66-.79.3-.18.7-.28 1.19-.28.48 0 .87.1 1.18.28.3.19.52.45.66.8a3.95 3.95 0 0 1 .14 1.98c-.05.23-.14.45-.26.65s-.29.37-.5.5l.46.6c.03.02.04.05.04.09 0 .04-.02.07-.04.1a.14.14 0 0 1-.1.03H6.6a.24.24 0 0 1-.2-.11l-.3-.43a2.6 2.6 0 0 1-.4.03Zm-.3-1.1a.16.16 0 0 1-.03-.08c0-.04.01-.07.04-.1a.13.13 0 0 1 .1-.04h.57c.05 0 .09.01.1.05l.33.42c.1-.11.17-.25.22-.4.05-.15.08-.3.1-.44l.01-.53c0-.53-.07-.97-.22-1.3-.15-.33-.46-.5-.92-.5-.47 0-.78.17-.93.5a4.29 4.29 0 0 0-.14 2.14c.05.26.17.47.34.63.17.16.4.24.73.24h.1zm3.08.21V6.1c.01-.12.08-.2.21-.2h.44c.06 0 .1.02.15.06a.3.3 0 0 1 .06.14v1.82c0 .14 0 .24.02.3.02.05.05.08.1.1a.8.8 0 0 0 .28.04.5.5 0 0 0 .32-.1.64.64 0 0 0 .2-.26c.05-.1.08-.21.08-.34V6.1c.01-.12.08-.2.2-.2h.45c.13 0 .2.08.2.2v2.38c0 .13-.07.2-.2.22h-.42c-.13-.02-.2-.1-.2-.22v-.21c-.1.14-.22.27-.36.36a.9.9 0 0 1-.48.13c-.17 0-.32-.01-.43-.03a.93.93 0 0 1-.32-.12.52.52 0 0 1-.22-.25 1 1 0 0 1-.08-.42Zm3.27-.67a2 2 0 0 1 .1-.63 1.18 1.18 0 0 1 .73-.75c.18-.07.4-.1.63-.1.85 0 1.28.45 1.28 1.36 0 .06-.02.12-.06.16a.24.24 0 0 1-.15.07h-1.72c0 .28.06.5.18.66.11.17.3.26.57.26.38 0 .7-.14.98-.4h.05l.05.01c.02.02.03.03.03.05l.04.43c0 .04-.02.06-.04.07a2.28 2.28 0 0 1-1.1.3c-.34 0-.62-.05-.85-.17-.24-.1-.42-.27-.54-.5a1.63 1.63 0 0 1-.18-.82Zm.81-.23h1.22c0-.53-.19-.79-.57-.79a.55.55 0 0 0-.48.23.88.88 0 0 0-.17.56zm2.36 1.42a.07.07 0 0 1-.05-.07l.1-.54c0-.05.04-.07.08-.07l.06.03a1.14 1.14 0 0 0 .9.45.8.8 0 0 0 .34-.06c.09-.05.13-.13.13-.26a.24.24 0 0 0-.1-.2.63.63 0 0 0-.25-.11l-.35-.07a1.28 1.28 0 0 1-.62-.3.74.74 0 0 1-.25-.57c0-.23.05-.4.14-.54.1-.13.22-.23.38-.28.16-.06.36-.08.58-.08.14 0 .34.02.6.08.26.05.39.11.39.2l-.08.46c-.01.05-.04.07-.08.07-.02 0-.03 0-.04-.02a1.2 1.2 0 0 0-.84-.33.68.68 0 0 0-.31.05c-.08.04-.11.12-.11.23 0 .07.03.13.1.18.05.05.12.08.2.1l.4.07c.14.03.29.1.42.17.14.1.25.2.33.32a.8.8 0 0 1 .12.44c0 .34-.1.58-.3.73-.18.15-.45.22-.8.22a2.09 2.09 0 0 1-1.09-.3Zm3.49.3c-.41 0-.62-.33-.62-.99V6.36h-.19c-.13-.02-.2-.09-.21-.21V6.1c.01-.12.08-.2.21-.2h.21v-.6c.01-.13.08-.2.2-.21h.4c.05 0 .1.03.14.06.03.04.06.09.06.15v.6h.62c.12 0 .2.08.2.2v.05c0 .12-.08.2-.2.2h-.62v1.33c0 .39.08.58.22.58a.7.7 0 0 0 .25-.05l.21-.1.1-.07.05.01.03.04.08.3v.03c0 .03-.01.05-.04.06-.36.19-.73.28-1.1.28zm1.69-.28V6.1c.01-.12.08-.2.2-.2h.43c.06 0 .1.02.14.05.04.04.06.1.07.15v2.38c-.02.13-.09.2-.21.22h-.42c-.13-.02-.2-.1-.21-.22Zm.16-3.23c-.12 0-.2-.08-.2-.2v-.4c0-.13.08-.2.2-.2h.51a.2.2 0 0 1 .15.06c.03.03.05.08.06.14v.4c-.02.12-.09.2-.2.2zm1.23 2.08c0-.33.06-.62.16-.85.12-.22.28-.4.5-.52.22-.11.5-.17.84-.17.33 0 .6.06.82.17.22.12.4.3.5.52.11.23.16.52.16.85 0 .24-.03.45-.1.63a1.1 1.1 0 0 1-.29.45c-.12.12-.28.2-.46.27a2.47 2.47 0 0 1-1.45-.07 1.1 1.1 0 0 1-.5-.48 1.65 1.65 0 0 1-.18-.8Zm1.5.93c.2 0 .33-.05.43-.14.09-.1.14-.22.16-.35.03-.14.04-.31.04-.53 0-.22-.01-.4-.04-.52a.58.58 0 0 0-.17-.33c-.1-.1-.23-.14-.42-.14-.2 0-.34.05-.44.14-.1.09-.15.2-.17.33a3.51 3.51 0 0 0 0 1.05c.02.13.08.25.17.35.1.1.24.14.44.14zm2.04.22V6.06c0-.06.02-.1.06-.14a.2.2 0 0 1 .14-.06h.4a.2.2 0 0 1 .15.06c.03.04.06.08.06.14v.37a1.13 1.13 0 0 1 .97-.61c.22 0 .4.03.54.09a.6.6 0 0 1 .3.29c.06.12.09.3.09.53v1.75c-.02.13-.09.2-.21.22h-.44c-.12-.02-.2-.1-.2-.22V6.75a.72.72 0 0 0-.07-.36c-.04-.07-.14-.1-.29-.1a.57.57 0 0 0-.34.1.74.74 0 0 0-.3.62v1.47a.28.28 0 0 1-.08.15.25.25 0 0 1-.14.07h-.44c-.12-.02-.2-.1-.2-.22Zm0 0"/>
      <path stroke="#000" stroke-miterlimit="10" stroke-width=".72" d="M30.48 3.37H36v6.4h-5.52zm0 0"/>
      <path fill="#fff" d="M31.9 8.48v-.25c0-.01 0-.03.02-.04l.83-.9.35-.36a3.47 3.47 0 0 0 .52-.75 1.18 1.18 0 0 0 .01-.82.69.69 0 0 0-.22-.3.59.59 0 0 0-.36-.11c-.35 0-.6.24-.71.71-.02.04-.04.06-.07.06-.03 0-.06 0-.07-.03l-.34-.44-.02-.04v-.04c.13-.28.3-.49.52-.63a1.52 1.52 0 0 1 1.36-.12 1.36 1.36 0 0 1 .76.75c.07.18.1.37.1.57 0 .17-.03.34-.1.49a3.82 3.82 0 0 1-.75.84l-.37.32-.65.63L34.35 8c.06 0 .12.02.16.06.04.03.07.08.08.14v.27c-.02.13-.09.2-.22.22h-2.26c-.13-.02-.2-.1-.21-.22zm0 0"/>
      <path d="m39.44 4.43-2.3 5.61c-.05.12-.12.18-.2.18a.21.21 0 0 1-.13-.05.16.16 0 0 1-.06-.13.4.4 0 0 1 .05-.14l2.3-5.61.03-.1a.18.18 0 0 1 .07-.05.17.17 0 0 1 .1-.03.2.2 0 0 1 .12.05c.04.03.06.08.06.13l-.04.14zm.68 3.72-.01-.04v-.04l.27-.42c.01-.02.03-.03.06-.03s.06.02.07.04a.9.9 0 0 0 .84.56c.19 0 .33-.03.42-.1a.56.56 0 0 0 .17-.3 4.75 4.75 0 0 0 .02-.9.98.98 0 0 0-.1-.36c-.05-.1-.13-.16-.24-.16-.16 0-.28.03-.36.1-.08.05-.15.14-.23.24-.07.1-.14.16-.21.17h-.23c-.12-.02-.2-.09-.2-.21V4.66c0-.13.08-.2.2-.21h1.87c.07 0 .11.03.15.06.04.04.06.09.07.15v.21c-.02.13-.09.2-.22.22h-1.25V6c.13-.05.27-.08.4-.08.23 0 .43.03.59.1.16.07.3.16.4.28a1.8 1.8 0 0 1 .3 1.04c0 .24-.03.46-.1.65a1.16 1.16 0 0 1-.8.73c-.19.07-.4.1-.65.1s-.48-.06-.7-.19c-.22-.12-.4-.28-.53-.5zM6.44 15.57a1.32 1.32 0 0 1 1.05 1.3c0 .34-.11.65-.35.91-.23.26-.57.4-1.04.4-.51 0-.92-.12-1.22-.34l-.28.28c-.05.03-.08.05-.12.05-.05 0-.08-.01-.09-.03L4.37 18v-1.11c0-.08 0-.13.02-.15.02-.02.06-.03.13-.03h.07c.02 0 .04.02.05.03l.01.04a.3.3 0 0 1 .01.07c.01.2.07.4.17.54.1.15.24.25.4.32a2.4 2.4 0 0 0 .87.17c.29 0 .49-.07.61-.22a.73.73 0 0 0-.06-1.03.54.54 0 0 0-.21-.12 8.7 8.7 0 0 0-.57-.14 5.99 5.99 0 0 1-.76-.2 1.25 1.25 0 0 1-.41-.29c-.22-.23-.33-.5-.33-.81 0-.35.12-.64.36-.87.23-.24.57-.36 1.01-.36.42 0 .76.1 1.05.34l.27-.27c.05-.05.1-.07.12-.07.05 0 .09.01.1.04l.01.13v1.12c0 .07 0 .12-.02.14-.01.02-.05.03-.12.03-.06 0-.1 0-.11-.02-.02-.01-.03-.06-.04-.14a1.3 1.3 0 0 0-.29-.63c-.14-.17-.3-.28-.45-.33a1.57 1.57 0 0 0-.51-.08c-.28 0-.48.07-.6.2a.63.63 0 0 0-.19.44c0 .18.06.32.19.43.12.1.26.18.4.21zm3.65.04c-.1-.02-.24-.03-.4-.03a.77.77 0 0 0-.39.09.77.77 0 0 0-.23.2.87.87 0 0 0-.12.3 2.47 2.47 0 0 0-.05.54c0 .79.29 1.18.85 1.18.38 0 .63-.16.77-.5a.2.2 0 0 1 .05-.07c0-.01.04-.02.1-.02.1 0 .14.03.14.09l-.05.13a1.5 1.5 0 0 1-.16.26c-.08.1-.2.18-.37.25-.16.08-.37.11-.6.11-.46 0-.83-.13-1.1-.39-.28-.26-.4-.6-.4-1s.12-.73.38-1c.26-.28.64-.42 1.16-.42.7 0 1.06.19 1.06.56 0 .13-.03.22-.11.29a.4.4 0 0 1-.53 0 .36.36 0 0 1-.12-.29c0-.1.04-.2.12-.28zm4.24 1.16c0 .4-.13.72-.41.98-.27.26-.66.4-1.15.4-.5 0-.88-.14-1.15-.4a1.3 1.3 0 0 1-.4-.98c0-.42.13-.77.4-1.04.28-.26.66-.4 1.15-.4.48 0 .87.14 1.14.4.28.27.42.62.42 1.04zm-1.56 1.12c.12 0 .23-.01.33-.04a.43.43 0 0 0 .22-.15c.05-.07.1-.13.13-.2a.83.83 0 0 0 .07-.26c.02-.1.02-.2.02-.26v-.28c0-.42-.04-.7-.12-.84-.13-.2-.35-.3-.65-.3-.32 0-.55.11-.67.35-.07.14-.1.4-.1.8v.27c0 .06 0 .15.02.26.02.12.04.2.07.26.03.07.08.13.13.2.06.07.13.12.22.15.1.03.2.04.33.04zm3.6.21a10.18 10.18 0 0 0-1.61 0v-.28h.42v-1.9c0-.1-.02-.18-.06-.2a1.2 1.2 0 0 0-.36-.03v-.3l1.01-.04v.7c.17-.47.44-.7.82-.7.17 0 .32.04.45.13.13.1.2.22.2.37a.4.4 0 0 1-.11.28.4.4 0 0 1-.53 0 .36.36 0 0 1-.11-.28c0-.1.04-.2.12-.28a.59.59 0 0 0-.38.12.7.7 0 0 0-.23.31 1.8 1.8 0 0 0-.16.75v1.07h.53zm3.89-1.33H18.4c0 .75.29 1.12.87 1.12.2 0 .38-.04.54-.13a.82.82 0 0 0 .34-.35c.02-.06.03-.1.05-.1.01-.02.05-.03.1-.03.1 0 .14.04.14.1 0 .04-.02.1-.06.17-.04.07-.1.16-.18.25-.09.1-.22.17-.39.24-.17.07-.37.1-.6.1-.48 0-.87-.13-1.16-.4a1.3 1.3 0 0 1-.43-1.01c0-.4.13-.73.4-1s.64-.4 1.1-.4c.43 0 .75.11.98.33.23.23.34.55.34.95 0 .07 0 .12-.04.14a.35.35 0 0 1-.15.02zm-1.85-.2h1.46c-.02-.68-.26-1.02-.73-1.02a.66.66 0 0 0-.58.32c-.08.13-.13.36-.15.7zm5.73-.71c0 .14-.05.25-.14.34-.1.1-.2.14-.34.14a.46.46 0 0 1-.33-.14.45.45 0 0 1-.14-.34c0-.13.04-.24.14-.33.1-.1.2-.14.33-.14.14 0 .25.04.34.14.1.1.14.2.14.33zm0 1.77c0 .13-.05.24-.14.33a.46.46 0 0 1-.67 0 .45.45 0 0 1-.14-.34c0-.12.04-.24.14-.33.1-.1.2-.14.33-.14.14 0 .25.05.34.14.1.1.14.2.14.33zm0 0"/>
      <path fill="#ff3a1e" stroke="#ff3a1e" stroke-miterlimit="10" stroke-width=".72" d="M27.04 13.09h5.67v6.09h-5.67zm0 0"/>
      <path fill="#fff" d="M30.28 14.3v3.52h.86v.29c-.18-.02-.59-.02-1.22-.02s-1.04 0-1.22.02v-.3h.85v-3.16c-.25.08-.51.13-.8.13h-.12v-.3h.13c.5 0 .91-.1 1.23-.34a.2.2 0 0 1 .13-.04c.08 0 .12 0 .14.04a.4.4 0 0 1 .02.15zm0 0"/>
      <path d="M67.18 6.46v1.78a.4.4 0 0 1-.04.2c-.02.02-.08.03-.19.03-.1 0-.15 0-.17-.02-.02-.02-.04-.07-.05-.15-.09-.51-.3-.93-.65-1.23-.35-.3-.76-.45-1.21-.45-.71 0-1.27.2-1.69.63-.36.38-.55 1.02-.55 1.9 0 .83.17 1.45.5 1.85.39.46.98.7 1.76.7.47 0 .9-.14 1.28-.42.38-.28.6-.68.62-1.2 0-.06.02-.1.05-.12a.3.3 0 0 1 .14-.02c.07 0 .13.01.16.03.02.02.04.07.04.15 0 .5-.23.96-.7 1.36-.46.4-1.05.6-1.79.6a3.48 3.48 0 0 1-2.42-.81c-.6-.55-.9-1.25-.9-2.11 0-.86.3-1.57.9-2.11.6-.55 1.41-.82 2.42-.82.63 0 1.17.18 1.63.56l.55-.49c.06-.05.11-.07.16-.07.06 0 .1.01.12.04.02.03.03.1.03.2zm5.02 3.74c0 .53-.18.97-.56 1.32-.36.35-.88.53-1.55.53s-1.19-.18-1.56-.53c-.37-.35-.55-.8-.55-1.33 0-.56.18-1.03.56-1.4.37-.36.89-.54 1.55-.54s1.17.18 1.55.54c.37.37.56.84.56 1.4zm-2.11 1.51c.17 0 .32-.02.44-.06a.6.6 0 0 0 .3-.2l.18-.26c.04-.09.07-.2.1-.36l.03-.35v-.38c0-.57-.06-.95-.17-1.13-.18-.28-.47-.43-.88-.43-.44 0-.75.16-.91.49-.1.18-.14.54-.14 1.07a9.7 9.7 0 0 0 .03.73 1.03 1.03 0 0 0 .28.62c.07.1.17.16.3.2.12.04.27.06.44.06zm2.76-.11h.57V9.06c0-.16-.03-.25-.09-.28a1.4 1.4 0 0 0-.48-.04v-.39l1.42-.07v.9c.3-.6.78-.9 1.45-.9.42 0 .74.1.96.28.2.18.32.49.32.91v2.15h.57V12a34.02 34.02 0 0 0-2.09 0v-.4h.57V9.38c0-.3-.04-.5-.12-.62a.38.38 0 0 0-.34-.18 1.24 1.24 0 0 0-1.23 1.31v1.73h.57V12a34.02 34.02 0 0 0-2.08 0zm6.65-2.04c.36.06.62.12.78.17.16.04.31.12.46.23.3.24.46.54.46.88 0 .2-.04.36-.1.5a.88.88 0 0 1-.24.35c-.11.08-.22.15-.32.2-.11.06-.23.09-.37.11a4.53 4.53 0 0 1-.5.05c-.4 0-.73-.1-.98-.27a2.99 2.99 0 0 1-.47.27c-.06 0-.1-.02-.12-.05a.6.6 0 0 1-.03-.19v-.9c0-.1.02-.17.04-.2.02-.02.07-.04.16-.04.07 0 .12 0 .14.02.03 0 .05.04.06.1.03.12.08.21.12.3.03.1.1.2.18.3.1.12.21.2.36.27.15.06.33.09.53.09.63 0 .95-.2.95-.62a.5.5 0 0 0-.09-.3.62.62 0 0 0-.27-.2 2.67 2.67 0 0 0-.56-.15l-.56-.1a1.8 1.8 0 0 1-.36-.13 1.37 1.37 0 0 1-.36-.22.89.89 0 0 1-.34-.7c0-.17.04-.32.1-.45a.73.73 0 0 1 .25-.31 1.5 1.5 0 0 1 .68-.29 3.52 3.52 0 0 1 .5-.03c.35 0 .63.05.83.15.22-.1.34-.15.38-.15.07 0 .1.01.12.04.02.03.02.1.02.19v.66c0 .1 0 .17-.02.2-.02.02-.08.03-.17.03-.08 0-.13 0-.15-.03-.02-.02-.04-.07-.04-.13-.05-.47-.37-.7-.98-.7-.62 0-.93.17-.93.52 0 .1.03.17.08.24.05.06.14.11.24.15l.25.08.28.06zm3.82-.85V11c0 .48.16.71.48.71.13 0 .25-.06.35-.18.1-.13.15-.32.15-.58v-.42h.38v.44c0 .31-.09.57-.27.77-.18.2-.42.3-.73.3-.87 0-1.3-.35-1.3-1.06V8.71h-.68v-.3c.38 0 .68-.18.9-.5.22-.34.32-.72.33-1.17h.39v1.58h1.2v.4zM87.71 12a17.64 17.64 0 0 0-2.18 0v-.4h.57V9.06c0-.16-.03-.25-.09-.28a1.4 1.4 0 0 0-.48-.04v-.39l1.37-.07v.94c.23-.63.6-.94 1.1-.94.23 0 .44.06.61.18.18.12.27.3.27.5 0 .16-.05.28-.15.37a.52.52 0 0 1-.36.14.53.53 0 0 1-.35-.14.47.47 0 0 1-.15-.37.5.5 0 0 1 .16-.38.8.8 0 0 0-.51.16.97.97 0 0 0-.32.42 2.78 2.78 0 0 0-.2 1v1.46h.71zm5.06-.6c-.25.43-.65.65-1.2.65a2.2 2.2 0 0 1-1.09-.23c-.26-.16-.4-.43-.4-.84V9.05c0-.16-.02-.25-.08-.28a1.4 1.4 0 0 0-.48-.04v-.39l1.51-.07v2.82c0 .26.04.43.1.52.08.1.26.14.56.14.3 0 .55-.1.74-.3.2-.21.29-.49.29-.82V9.05c0-.16-.03-.25-.09-.28a1.42 1.42 0 0 0-.48-.04v-.39l1.51-.07v3.02c0 .15.03.24.09.27.06.03.22.05.48.05V12l-1.46.05zm3.52-3.13v3.34h.51V12l-.97-.03-1.01.03v-.4h.57V9.06c0-.16-.02-.25-.08-.28a1.31 1.31 0 0 0-.46-.04v-.39Zm.08-1.38a.6.6 0 0 1-.19.46.62.62 0 0 1-.46.19.63.63 0 0 1-.45-.2.62.62 0 0 1-.2-.45c0-.18.07-.33.2-.46a.64.64 0 0 1 .91 0c.13.12.2.28.2.46zM99.56 12a17.79 17.79 0 0 0-2.18 0v-.4h.57V9.06c0-.16-.03-.25-.1-.28a1.36 1.36 0 0 0-.47-.04v-.39l1.37-.07v.94c.23-.63.6-.94 1.1-.94.23 0 .44.06.61.18.18.12.27.3.27.5 0 .16-.05.28-.15.37a.53.53 0 0 1-.7 0 .48.48 0 0 1-.16-.37.5.5 0 0 1 .16-.38.8.8 0 0 0-.5.16.97.97 0 0 0-.33.42 2.8 2.8 0 0 0-.2 1v1.46h.71zm5.26-1.8h-2.5c0 1 .4 1.51 1.18 1.51.27 0 .5-.06.73-.18.21-.12.36-.28.45-.48a.54.54 0 0 1 .07-.14c.03-.02.07-.03.14-.03.13 0 .2.05.2.15 0 .05-.03.12-.09.22a1.33 1.33 0 0 1-.77.66c-.23.09-.5.14-.8.14-.66 0-1.19-.18-1.58-.54-.4-.35-.59-.81-.59-1.38 0-.54.18-.99.54-1.34.36-.36.87-.54 1.5-.54.58 0 1.01.14 1.32.45.31.3.47.73.47 1.27 0 .1-.02.17-.06.19a.48.48 0 0 1-.2.03zm-2.5-.28h1.98c-.03-.92-.36-1.38-1-1.38-.33 0-.6.15-.78.44-.11.16-.18.48-.2.94zm7.65-3.67v5.36h.57V12l-1.02-.03-1.02.03v-.4h.57V7.04c0-.16-.02-.25-.08-.28a1.4 1.4 0 0 0-.49-.04v-.39Zm4.61 3.95h-2.5c0 1 .39 1.51 1.17 1.51.27 0 .52-.06.73-.18.22-.12.37-.28.46-.48a.44.44 0 0 1 .07-.14.23.23 0 0 1 .13-.03c.14 0 .2.05.2.15 0 .05-.02.12-.08.22s-.14.21-.25.34c-.12.12-.3.23-.53.32-.23.09-.5.14-.8.14-.66 0-1.18-.18-1.57-.54-.4-.35-.59-.81-.59-1.38 0-.54.18-.99.54-1.34.36-.36.86-.54 1.5-.54.57 0 1.01.14 1.32.45.3.3.46.73.46 1.27 0 .1-.02.17-.05.19a.52.52 0 0 1-.21.03zm-2.5-.28h1.97c-.02-.92-.35-1.38-.99-1.38-.33 0-.6.15-.78.44-.11.16-.18.48-.2.94zm7.54-.36a6 6 0 0 1 .77.17c.16.04.31.12.46.23.3.24.46.54.46.88 0 .2-.04.36-.1.5a.88.88 0 0 1-.25.35 1.55 1.55 0 0 1-.68.31 4.24 4.24 0 0 1-.5.05c-.4 0-.73-.1-.98-.27a2.98 2.98 0 0 1-.47.27c-.06 0-.1-.02-.12-.05a.47.47 0 0 1-.03-.19v-.9c0-.1.02-.17.03-.2.02-.02.08-.04.18-.04.06 0 .1 0 .13.02.03 0 .05.04.06.1.03.12.08.21.12.3.04.1.1.2.18.3.1.12.21.2.36.27.15.06.33.09.53.09.64 0 .95-.2.95-.62a.5.5 0 0 0-.1-.3.6.6 0 0 0-.26-.2 2.65 2.65 0 0 0-.28-.1l-.28-.05-.56-.1a1.66 1.66 0 0 1-.72-.35.89.89 0 0 1-.34-.7c0-.17.04-.32.1-.45a.76.76 0 0 1 .25-.31 1.5 1.5 0 0 1 .68-.29 3.88 3.88 0 0 1 .5-.03c.34 0 .63.05.83.15.22-.1.34-.15.38-.15.06 0 .1.01.12.04.02.03.03.1.03.19v.66c0 .1-.02.17-.03.2-.02.02-.08.03-.17.03-.08 0-.14 0-.16-.03a.3.3 0 0 1-.03-.13c-.05-.47-.38-.7-.98-.7-.62 0-.93.17-.93.52 0 .1.03.17.08.24.06.06.13.11.24.15l.25.08.28.06zm6.2-.68-1.78 3.79a2 2 0 0 1-.54.7c-.24.18-.5.28-.8.28a.93.93 0 0 1-.63-.22.71.71 0 0 1-.26-.54c0-.16.05-.27.14-.35a.5.5 0 0 1 .34-.13c.14 0 .25.04.34.13.1.09.14.2.14.34 0 .22-.1.36-.27.44.06.02.13.04.2.04.14 0 .26-.04.38-.09.1-.06.2-.15.3-.26a4.26 4.26 0 0 0 .35-.62l.2-.4-1.55-3.28h-.53v-.39a20.72 20.72 0 0 1 .94.03c.4 0 .75-.01 1.03-.03v.4h-.45l1.05 2.23.96-2.04a.14.14 0 0 0 .03-.1c0-.07-.12-.1-.38-.1v-.39a14.42 14.42 0 0 0 1.4 0v.4l-.38.01c-.09.01-.14.03-.16.05a.27.27 0 0 0-.07.1zm1.21 2.72h.57V9.06c0-.16-.03-.25-.09-.28a1.4 1.4 0 0 0-.48-.04v-.39l1.42-.07v.9c.3-.6.8-.9 1.46-.9.71 0 1.13.27 1.24.8.3-.53.76-.8 1.4-.8.43 0 .75.1.96.28.2.2.31.5.31.91v2.15h.57V12a34.02 34.02 0 0 0-2.08 0v-.4h.57V9.38c0-.3-.04-.51-.11-.63a.4.4 0 0 0-.36-.17c-.3 0-.57.11-.83.34-.26.23-.4.55-.4.97v1.73h.57V12a33.77 33.77 0 0 0-2.08 0v-.4h.57V9.38c0-.3-.04-.51-.11-.63a.4.4 0 0 0-.35-.17c-.3 0-.58.11-.85.34-.26.23-.39.55-.39.97v1.73h.57V12a34.02 34.02 0 0 0-2.08 0zm11.02-4.49-1.25.67-.25-.3.43-.52.5-.57c.13-.15.26-.22.4-.22.12 0 .24.05.34.15.1.11.15.23.15.36 0 .09-.02.16-.07.22a.4.4 0 0 1-.1.12l-.15.1zm.55 3.09h-2.5c0 1 .4 1.51 1.18 1.51.27 0 .51-.06.73-.18a.95.95 0 0 0 .45-.48.44.44 0 0 1 .08-.14c.02-.02.07-.03.13-.03.13 0 .2.05.2.15a.6.6 0 0 1-.08.22c-.06.1-.14.21-.25.34-.12.12-.3.23-.53.32-.23.09-.5.14-.8.14-.66 0-1.19-.18-1.58-.54a1.76 1.76 0 0 1-.58-1.38c0-.54.18-.99.54-1.34.36-.36.86-.54 1.5-.54.57 0 1 .14 1.32.45.3.3.46.73.46 1.27 0 .1-.02.17-.05.19a.5.5 0 0 1-.21.03zm-2.5-.28h1.99c-.03-.92-.36-1.38-1-1.38a.9.9 0 0 0-.79.44c-.1.16-.17.48-.2.94zm4.84-1.21V11c0 .48.16.71.48.71.13 0 .25-.06.35-.18.1-.13.15-.32.15-.58v-.42h.38v.44c0 .31-.09.57-.26.77-.18.2-.43.3-.74.3-.87 0-1.3-.35-1.3-1.06V8.71h-.68v-.3c.38 0 .68-.18.9-.5.22-.34.32-.72.33-1.17h.4v1.58h1.2v.4zm4.39 3.29a17.64 17.64 0 0 0-2.18 0v-.4h.57V9.06c0-.16-.03-.25-.09-.28a1.4 1.4 0 0 0-.48-.04v-.39l1.37-.07v.94c.23-.63.6-.94 1.1-.94.24 0 .44.06.61.18.18.12.27.3.27.5 0 .16-.05.28-.15.37a.52.52 0 0 1-.35.14.53.53 0 0 1-.36-.14.47.47 0 0 1-.15-.37.5.5 0 0 1 .16-.38c-.2 0-.36.05-.5.16a.92.92 0 0 0-.33.42 2.5 2.5 0 0 0-.2 1v1.46h.71zm3.3-3.73v3.34h.5V12l-.96-.03-1.01.03v-.4h.57V9.06c0-.16-.03-.25-.09-.28-.05-.03-.2-.04-.46-.04v-.39Zm.07-1.38c0 .18-.06.33-.18.46a.63.63 0 0 1-.46.19.62.62 0 0 1-.45-.2.6.6 0 0 1-.2-.45c0-.18.07-.33.2-.46a.63.63 0 0 1 .91 0c.12.12.18.28.18.46zm4.21 3.93V9.67c0-.24-.09-.47-.29-.71a.92.92 0 0 0-.73-.36 1 1 0 0 0-.77.38c-.23.26-.34.65-.34 1.19 0 .52.1.9.3 1.18.19.26.43.4.7.4.42 0 .75-.2 1.01-.58a.6.6 0 0 0 .12-.35zm1.47 2.78a33.52 33.52 0 0 0-2.09 0v-.39h.58V11.6c-.35.3-.73.45-1.16.45-.59 0-1.07-.18-1.44-.52a1.8 1.8 0 0 1-.55-1.37c0-.57.19-1.03.57-1.37.38-.34.88-.52 1.5-.52a1.51 1.51 0 0 1 1.24.66l.44-.66h.34v4.94h.57zm3.67-2.2c-.25.43-.64.65-1.19.65a2.2 2.2 0 0 1-1.1-.23c-.26-.16-.39-.43-.39-.84V9.05c0-.16-.03-.25-.08-.28a1.4 1.4 0 0 0-.49-.04v-.39l1.52-.07v2.82c0 .26.03.43.1.52.08.1.26.14.56.14.3 0 .55-.1.74-.3.19-.21.28-.49.28-.82V9.05c0-.16-.02-.25-.08-.28a1.4 1.4 0 0 0-.49-.04v-.39l1.52-.07v3.02c0 .15.03.24.09.27.05.03.21.05.48.05V12l-1.47.05zm5.49-1.2h-2.5c0 1 .4 1.51 1.18 1.51.27 0 .51-.06.73-.18.21-.12.36-.28.45-.48a.44.44 0 0 1 .08-.14c.02-.02.06-.03.13-.03.13 0 .2.05.2.15a.6.6 0 0 1-.08.22 1.4 1.4 0 0 1-.78.66c-.23.09-.5.14-.8.14-.66 0-1.19-.18-1.58-.54a1.77 1.77 0 0 1-.59-1.38c0-.54.19-.99.55-1.34.36-.36.86-.54 1.5-.54.57 0 1 .14 1.32.45.3.3.46.73.46 1.27 0 .1-.02.17-.06.19a.49.49 0 0 1-.2.03zm-2.5-.28h1.98c-.02-.92-.36-1.38-.99-1.38a.9.9 0 0 0-.79.44c-.1.16-.17.48-.2.94zm10.77 1.68v.4l-1.51.05v-.4c-.34.26-.73.4-1.16.4-.6 0-1.1-.18-1.45-.53a1.8 1.8 0 0 1-.54-1.35c0-.58.2-1.04.58-1.38a2.2 2.2 0 0 1 1.5-.52c.43 0 .8.12 1.12.37v-1.6c0-.17-.03-.26-.09-.29a1.42 1.42 0 0 0-.48-.04v-.39l1.46-.07v5.04c0 .15.03.24.09.27.06.03.22.05.48.05zm-1.51-2.53c-.26-.33-.59-.5-.99-.5a1 1 0 0 0-.88.43c-.15.21-.22.6-.22 1.17v.32l.04.34a1 1 0 0 0 .09.35c.04.1.1.19.17.28.07.1.17.17.3.22a1 1 0 0 0 .41.07c.42 0 .79-.2 1.08-.6zm5.45 2.33c-.25.43-.65.65-1.19.65a2.2 2.2 0 0 1-1.1-.23c-.26-.16-.39-.43-.39-.84V9.05c0-.16-.03-.25-.09-.28a1.4 1.4 0 0 0-.48-.04v-.39l1.51-.07v2.82c0 .26.04.43.11.52.08.1.26.14.56.14.3 0 .55-.1.74-.3.19-.21.28-.49.28-.82V9.05c0-.16-.02-.25-.08-.28a1.42 1.42 0 0 0-.49-.04v-.39l1.52-.07v3.02c0 .15.03.24.08.27.06.03.22.05.49.05V12l-1.47.05zM182 9.27v1.91l.08.12c.25.3.54.45.88.45a1 1 0 0 0 .79-.4c.22-.26.33-.66.33-1.2 0-.5-.1-.88-.3-1.15a.87.87 0 0 0-.72-.4 1.29 1.29 0 0 0-1.05.52.43.43 0 0 0-.02.15zm.56 4.33a33.77 33.77 0 0 0-2.08 0v-.39h.57V9.04c0-.15-.03-.24-.09-.27a1.57 1.57 0 0 0-.48-.04v-.39l1.46-.07v.4c.35-.26.77-.4 1.25-.4.6 0 1.06.18 1.42.52.35.35.53.8.53 1.36 0 .57-.2 1.03-.58 1.38-.38.35-.88.52-1.5.52-.41 0-.76-.13-1.07-.38v1.54h.57zm7.65-3.4c0 .53-.18.97-.55 1.32-.37.35-.89.53-1.56.53s-1.18-.18-1.55-.53c-.37-.35-.56-.8-.56-1.33 0-.56.19-1.03.56-1.4.38-.36.9-.54 1.55-.54.66 0 1.17.18 1.55.54.38.37.56.84.56 1.4zm-2.1 1.51c.16 0 .3-.02.44-.06.12-.04.22-.1.3-.2.07-.1.13-.18.17-.26.05-.09.08-.2.1-.36l.03-.35v-.38c0-.57-.05-.95-.17-1.13-.18-.28-.47-.43-.88-.43-.44 0-.74.16-.9.49-.1.18-.15.54-.15 1.07a9.46 9.46 0 0 0 .04.73c.02.15.05.27.1.36.04.08.1.17.17.26.07.1.18.16.3.2.13.04.27.06.44.06zm4.23-3.44v3.34h.51V12l-.97-.03-1 .03v-.4h.56V9.06c0-.16-.03-.25-.08-.28a1.31 1.31 0 0 0-.46-.04v-.39Zm.08-1.38a.6.6 0 0 1-.19.46.63.63 0 0 1-.46.19.63.63 0 0 1-.45-.2.62.62 0 0 1-.2-.45.67.67 0 0 1 .65-.65c.18 0 .33.06.46.19.13.12.2.28.2.46zm1.08 4.71h.57V9.06c0-.16-.03-.25-.09-.28a1.4 1.4 0 0 0-.48-.04v-.39l1.42-.07v.9c.3-.6.79-.9 1.45-.9.43 0 .74.1.96.28.2.18.31.49.31.91v2.15h.57V12a33.77 33.77 0 0 0-2.08 0v-.4h.57V9.38c0-.3-.04-.5-.11-.62a.38.38 0 0 0-.34-.18c-.3 0-.59.11-.85.34-.26.23-.39.55-.39.97v1.73h.57V12a33.52 33.52 0 0 0-2.08 0zm6.45-2.89V11c0 .48.16.71.48.71.13 0 .25-.06.34-.18.1-.13.15-.32.15-.58v-.42h.4v.44c0 .31-.1.57-.28.77-.18.2-.42.3-.73.3-.87 0-1.31-.35-1.31-1.06V8.71h-.68v-.3a1 1 0 0 0 .9-.5c.22-.34.33-.72.34-1.17h.39v1.58h1.2v.4zm0 0"/>
      <path fill="#003097" d="m209.94 6.35.78 5.1.04.12c.01.02.04.02.1.03a3.64 3.64 0 0 0 .5.01c.04 0 .07.01.1.04.03.02.05.06.05.1 0 .08-.02.13-.05.17a.18.18 0 0 1-.09.07h-.39l-.28-.01h-.57a33.57 33.57 0 0 0-1.24.02c-.12 0-.18-.05-.18-.15 0-.08.02-.14.05-.17.03-.04.06-.06.1-.06l.16-.01c.22 0 .4-.02.53-.04l-.19-1.21h-2.23l-.76 1.16c.12.06.28.09.48.09.14 0 .21.05.21.14 0 .16-.07.25-.22.25a13.04 13.04 0 0 1-.92-.03 9.75 9.75 0 0 0-.79.03.15.15 0 0 1-.1-.05.13.13 0 0 1-.05-.1c0-.07.01-.13.05-.17.03-.04.06-.06.1-.06l.11-.01c.19 0 .34-.02.46-.06.11-.03.2-.07.23-.1a.94.94 0 0 0 .12-.16l3.25-4.97c.06-.09.1-.15.15-.17a.43.43 0 0 1 .21-.04c.11 0 .18.01.21.04s.06.1.07.2zm-1 1.24-1.55 2.38h1.91zm0 0"/>
      <path d="M62.66 20.2v1.75l.01.15c0 .03.03.06.08.12.25.3.54.44.88.44a1 1 0 0 0 .78-.39c.22-.26.34-.66.34-1.2 0-.5-.1-.88-.3-1.15-.2-.27-.43-.4-.72-.4a1.26 1.26 0 0 0-1.05.52.44.44 0 0 0-.02.15zm.57 4.32a24.72 24.72 0 0 0-2.09 0v-.39h.57v-4.17c0-.16-.03-.25-.08-.27a1.54 1.54 0 0 0-.49-.05v-.39l1.47-.06v.4c.35-.27.76-.4 1.25-.4.59 0 1.06.17 1.41.52.36.35.53.8.53 1.36 0 .57-.19 1.03-.57 1.38-.39.34-.89.51-1.52.51-.4 0-.75-.12-1.05-.37v1.54h.57zm5.99-2.24c-.24.45-.65.68-1.23.68a2.42 2.42 0 0 1-1-.17.9.9 0 0 1-.44-.29.73.73 0 0 1-.16-.48c0-.79.9-1.22 2.7-1.3v-.28c0-.65-.31-.98-.92-.98-.21 0-.41.02-.6.06.13.08.19.22.19.4a.5.5 0 0 1-.16.4.55.55 0 0 1-.37.13.55.55 0 0 1-.35-.14.5.5 0 0 1-.16-.38c0-.51.5-.77 1.48-.77.6 0 1.05.12 1.36.35.31.23.47.54.47.93v1.78l.01.16c.01.04.06.07.13.1.08.03.2.04.36.04a.6.6 0 0 1 .1.01c.03 0 .05.02.08.05a.2.2 0 0 1 .04.13c0 .07-.02.11-.04.14a.14.14 0 0 1-.08.06h-.55c-.2 0-.37-.02-.5-.05a.5.5 0 0 1-.26-.18.76.76 0 0 1-.08-.2l-.02-.2zm-.14-1.3a3.12 3.12 0 0 0-.78.12c-.18.04-.33.1-.46.17a.98.98 0 0 0-.33.29.74.74 0 0 0-.15.45c0 .18.07.34.22.47a.8.8 0 0 0 .53.18c.08 0 .16 0 .25-.03.09-.02.2-.06.31-.11a.68.68 0 0 0 .3-.29.94.94 0 0 0 .11-.47zm4.16 1.93-1.14-.02-1.04.02v-.39h.57v-2.55c0-.16-.03-.25-.1-.28a1.52 1.52 0 0 0-.47-.05v-.39l1.37-.06v.93c.23-.62.6-.93 1.1-.93.23 0 .44.06.61.18.18.12.27.29.27.5 0 .15-.05.27-.16.36a.51.51 0 0 1-.7 0 .46.46 0 0 1-.15-.36c0-.15.05-.28.16-.39-.2 0-.36.06-.5.17a.94.94 0 0 0-.33.42 2.67 2.67 0 0 0-.2 1v1.45h.71zm6.69 0a23 23 0 0 0-1.15-.02l-1.04.02v-.39h.57v-2.55c0-.16-.03-.25-.09-.28a1.54 1.54 0 0 0-.48-.05v-.39l1.37-.06v.93c.23-.62.6-.93 1.1-.93.24 0 .44.06.62.18.17.12.26.29.26.5 0 .15-.05.27-.15.36a.54.54 0 0 1-.35.14.52.52 0 0 1-.36-.13.47.47 0 0 1-.15-.37c0-.15.05-.28.16-.39-.2 0-.36.06-.5.17a.94.94 0 0 0-.33.42 2.53 2.53 0 0 0-.2 1v1.45h.72zm4.52-.63c-.24.45-.65.68-1.23.68a2.45 2.45 0 0 1-1.01-.17.92.92 0 0 1-.42-.29.73.73 0 0 1-.17-.48c0-.79.9-1.22 2.7-1.3v-.28c0-.65-.31-.98-.92-.98-.22 0-.41.02-.6.06.13.08.19.22.19.4a.5.5 0 0 1-.16.4.53.53 0 0 1-.72 0 .48.48 0 0 1-.16-.4c0-.5.5-.76 1.48-.76.6 0 1.05.12 1.36.35.3.23.46.54.46.93v1.78c0 .07 0 .13.02.16.01.04.05.07.13.1s.2.04.36.04l.1.01c.03 0 .05.02.08.05.02.03.03.08.03.13 0 .07 0 .11-.03.14a.17.17 0 0 1-.08.06h-.55c-.2 0-.37-.02-.5-.05a.5.5 0 0 1-.26-.18.64.64 0 0 1-.08-.2 1.03 1.03 0 0 1-.02-.2zm-.14-1.3a3.1 3.1 0 0 0-1.24.29 1 1 0 0 0-.34.29.73.73 0 0 0-.14.45c0 .18.07.34.22.47a.8.8 0 0 0 .53.18c.07 0 .16 0 .25-.03.09-.02.2-.06.31-.11a.67.67 0 0 0 .3-.29.9.9 0 0 0 .11-.47zm3.49-.78v1.75l.01.15.08.12c.25.3.54.44.88.44a1 1 0 0 0 .78-.39c.23-.26.34-.66.34-1.2 0-.5-.1-.88-.3-1.15a.86.86 0 0 0-.72-.4 1.26 1.26 0 0 0-1.05.52.47.47 0 0 0-.02.15zm.57 4.32a24.46 24.46 0 0 0-2.08 0v-.39h.57v-4.17c0-.16-.03-.25-.09-.27a1.54 1.54 0 0 0-.48-.05v-.39l1.46-.06v.4a2 2 0 0 1 1.25-.4c.6 0 1.06.17 1.42.52.35.35.53.8.53 1.36 0 .57-.2 1.03-.58 1.38a2.2 2.2 0 0 1-1.51.51c-.4 0-.75-.12-1.06-.37v1.54h.57zm4.72-4.32v1.75c0 .08 0 .13.02.15 0 .03.03.06.07.12.25.3.54.44.88.44a1 1 0 0 0 .79-.39c.22-.26.33-.66.33-1.2 0-.5-.1-.88-.29-1.15a.88.88 0 0 0-.73-.4 1.26 1.26 0 0 0-1.05.52.44.44 0 0 0-.02.15zm.57 4.32a24.72 24.72 0 0 0-2.09 0v-.39h.58v-4.17c0-.16-.03-.25-.1-.27a1.55 1.55 0 0 0-.48-.05v-.39l1.47-.06v.4c.35-.27.76-.4 1.25-.4.6 0 1.06.17 1.42.52.35.35.53.8.53 1.36 0 .57-.2 1.03-.58 1.38a2.2 2.2 0 0 1-1.51.51c-.4 0-.76-.12-1.06-.37v1.54h.57zm7.64-3.42c0 .54-.18.99-.55 1.34-.37.35-.88.52-1.55.52s-1.19-.17-1.56-.52c-.37-.35-.55-.8-.55-1.33 0-.57.18-1.04.56-1.4.37-.36.89-.55 1.55-.55s1.17.19 1.55.55c.37.36.56.83.56 1.4zm-2.1 1.53c.17 0 .32-.02.44-.06a.6.6 0 0 0 .3-.2l.18-.26c.04-.09.07-.2.1-.36l.03-.36v-.37c0-.57-.06-.95-.18-1.14-.17-.28-.46-.42-.87-.42-.44 0-.75.16-.91.48-.1.19-.14.55-.14 1.08v.37l.03.36c.02.15.06.27.1.36l.18.26c.07.1.17.16.3.2.12.04.27.06.44.06zm4.87.28-1.14-.02-1.04.02v-.39h.57v-2.55c0-.16-.03-.25-.08-.28a1.57 1.57 0 0 0-.49-.05v-.39l1.38-.06v.93c.22-.62.59-.93 1.1-.93.23 0 .43.06.6.18.18.12.27.29.27.5 0 .15-.05.27-.15.36a.52.52 0 0 1-.7 0 .46.46 0 0 1-.16-.36c0-.15.06-.28.16-.39a.8.8 0 0 0-.5.17.95.95 0 0 0-.33.42 2.5 2.5 0 0 0-.2 1v1.45h.71zm3.23-3.28v2.28c0 .48.16.72.48.72.13 0 .25-.06.35-.18.1-.13.15-.32.15-.58v-.42h.39v.44c0 .3-.1.56-.27.77-.18.2-.42.3-.74.3-.86 0-1.3-.35-1.3-1.07v-2.27h-.68v-.3c.39 0 .69-.17.9-.5.22-.33.33-.71.33-1.16h.4v1.58h1.2v.39Zm7.76 2.65c-.24.45-.65.68-1.24.68l-.5-.03a2.42 2.42 0 0 1-.5-.14.94.94 0 0 1-.43-.29.75.75 0 0 1-.16-.48c0-.79.9-1.22 2.69-1.3v-.28c0-.65-.3-.98-.91-.98-.22 0-.42.02-.6.06.12.08.18.22.18.4 0 .17-.05.3-.15.4a.55.55 0 0 1-.37.13.55.55 0 0 1-.35-.14.5.5 0 0 1-.16-.38c0-.51.5-.77 1.48-.77.6 0 1.05.12 1.35.35.31.23.47.54.47.93v1.78c0 .07 0 .13.02.16 0 .04.05.07.13.1s.2.04.35.04l.11.01c.03 0 .05.02.07.05a.2.2 0 0 1 .04.13c0 .07-.01.11-.04.14a.14.14 0 0 1-.08.06h-.54c-.2 0-.37-.02-.5-.05a.44.44 0 0 1-.26-.18.76.76 0 0 1-.09-.2l-.01-.2zm-.14-1.3a3.03 3.03 0 0 0-.78.12c-.18.04-.34.1-.46.17a.93.93 0 0 0-.34.29.76.76 0 0 0-.14.45c0 .18.07.34.21.47a.8.8 0 0 0 .54.18c.07 0 .15 0 .24-.03.1-.02.2-.06.32-.11a.68.68 0 0 0 .3-.29.94.94 0 0 0 .1-.47zm5.29 1.34c-.25.43-.65.64-1.19.64-.47 0-.83-.07-1.09-.23-.27-.15-.4-.43-.4-.84v-1.92c0-.16-.03-.25-.08-.28a1.59 1.59 0 0 0-.49-.05v-.39l1.52-.06V22c0 .26.04.43.1.52.08.1.26.13.56.13.3 0 .55-.1.74-.3.19-.2.28-.48.28-.81v-1.58c0-.16-.02-.25-.08-.28a1.57 1.57 0 0 0-.49-.05v-.39l1.52-.06v3.01c0 .16.03.25.09.28.05.03.22.04.48.04v.39l-1.47.05zm6.24-2.12v1.75c0 .08 0 .13.02.15 0 .03.03.06.07.12.25.3.55.44.88.44a1 1 0 0 0 .8-.39c.21-.26.32-.66.32-1.2 0-.5-.1-.88-.29-1.15a.86.86 0 0 0-.73-.4 1.26 1.26 0 0 0-1.05.52.44.44 0 0 0-.02.15zm.58 4.32a24.72 24.72 0 0 0-2.1 0v-.39h.58v-4.17c0-.16-.03-.25-.08-.27a1.62 1.62 0 0 0-.5-.05v-.39l1.48-.06v.4c.34-.27.76-.4 1.24-.4.6 0 1.07.17 1.42.52.35.35.53.8.53 1.36 0 .57-.2 1.03-.58 1.38-.38.34-.88.51-1.5.51-.41 0-.76-.12-1.07-.37v1.54h.58zm7.65-3.42c0 .54-.2.99-.56 1.34-.37.35-.89.52-1.56.52s-1.19-.17-1.55-.52c-.37-.35-.56-.8-.56-1.33 0-.57.2-1.04.56-1.4.38-.36.9-.55 1.56-.55.65 0 1.17.19 1.54.55.38.36.57.83.57 1.4zm-2.12 1.53c.18 0 .32-.02.45-.06a.6.6 0 0 0 .3-.2l.17-.26c.05-.09.08-.2.1-.36l.03-.36v-.37c0-.57-.05-.95-.17-1.14-.17-.28-.47-.42-.87-.42-.44 0-.75.16-.92.48-.1.19-.14.55-.14 1.08a8.08 8.08 0 0 0 .04.73 1.02 1.02 0 0 0 .27.62c.08.1.18.16.3.2.13.04.27.06.44.06zm4.24-3.44v3.33h.51v.39l-.96-.02-1.01.02v-.39h.57v-2.55c0-.16-.03-.25-.09-.28a1.45 1.45 0 0 0-.46-.05v-.39zm.09-1.38c0 .18-.07.33-.2.46a.64.64 0 0 1-.91 0 .63.63 0 0 1-.19-.46c0-.18.07-.33.2-.46a.58.58 0 0 1 .45-.19.6.6 0 0 1 .45.19c.13.12.2.27.2.46zm1.07 4.71h.57v-2.55c0-.16-.03-.25-.08-.28a1.57 1.57 0 0 0-.49-.05v-.39l1.43-.06v.9c.3-.6.78-.9 1.44-.9.43 0 .75.1.96.27.21.2.32.5.32.92v2.14h.57v.39a47.91 47.91 0 0 0-2.09 0v-.39h.57V20.3c0-.3-.04-.5-.11-.63a.38.38 0 0 0-.34-.18c-.3 0-.58.12-.85.35-.25.23-.38.55-.38.97v1.72h.57v.39a48.08 48.08 0 0 0-2.09 0zm6.45-2.89v2.28c0 .48.16.72.48.72.13 0 .25-.06.35-.18.1-.13.15-.32.15-.58v-.42h.38v.44c0 .3-.09.56-.27.77-.18.2-.42.3-.73.3-.87 0-1.3-.35-1.3-1.07v-2.27h-.68v-.3c.38 0 .68-.17.9-.5.21-.33.32-.71.33-1.16h.39v1.58h1.2v.39Zm0 0"/>
      <path fill="#006300" d="M155.81 19.23a4.3 4.3 0 0 1-.98 2.55 3.86 3.86 0 0 1-2.9 1.27c-.73 0-1.32-.18-1.76-.53-.44-.36-.66-.88-.66-1.57 0-.34.05-.69.15-1.04a4.06 4.06 0 0 1 2.36-2.57c.43-.16.9-.25 1.39-.25.73 0 1.32.19 1.75.55.43.37.65.9.65 1.59zm-3.8 3.48c.73 0 1.35-.37 1.84-1.1.24-.35.44-.82.6-1.4.16-.58.24-1.03.24-1.36 0-.49-.13-.85-.4-1.08a1.42 1.42 0 0 0-.97-.34c-.67 0-1.25.28-1.72.86a6.04 6.04 0 0 0-.93 2.92c0 .5.12.88.37 1.11.25.26.57.39.96.39zm0 0"/>
      <path d="M158.22 22.27a.6.6 0 0 1-.19.45.61.61 0 0 1-.45.19.6.6 0 0 1-.46-.19.62.62 0 0 1-.19-.45c0-.18.07-.33.2-.46a.63.63 0 0 1 .9 0c.13.13.2.28.2.46zM5.03 23.2v3.61h.7v.3c-.17-.02-.55-.03-1.14-.03-.59 0-.96 0-1.13.02v-.29h.7V23.2h-.7v-.28a28.97 28.97 0 0 0 2.26 0v.28zm2.27-.35v3.96h.42v.3a24.04 24.04 0 0 0-1.5 0v-.3h.42v-3.38c0-.11-.03-.18-.07-.2a1.15 1.15 0 0 0-.36-.04v-.28Zm4.46 4.25a10.36 10.36 0 0 0-1.62 0v-.29h.42v-1.89c0-.11-.02-.18-.06-.2a1.04 1.04 0 0 0-.36-.04v-.29l1.02-.04v.69c.16-.46.43-.7.8-.7.18 0 .33.05.47.14.12.09.2.22.2.37 0 .11-.05.2-.13.27a.38.38 0 0 1-.25.1.4.4 0 0 1-.26-.1.35.35 0 0 1-.12-.27c0-.11.04-.2.12-.28a.58.58 0 0 0-.37.12.68.68 0 0 0-.24.31 1.87 1.87 0 0 0-.15.74v1.07h.53zm3.88-1.33H13.8c0 .75.3 1.12.87 1.12.2 0 .38-.04.54-.13a.75.75 0 0 0 .34-.36c.02-.05.03-.09.05-.1.02-.02.05-.03.1-.03.1 0 .15.04.15.11 0 .04-.02.1-.06.17a1.06 1.06 0 0 1-.57.49c-.18.06-.38.1-.6.1-.49 0-.88-.14-1.16-.4-.3-.26-.44-.6-.44-1.02 0-.4.13-.73.4-1 .27-.26.64-.4 1.11-.4.42 0 .75.12.98.34.22.23.34.54.34.94 0 .08-.02.13-.04.14a.33.33 0 0 1-.16.03zm-1.85-.2h1.47c-.03-.68-.27-1.02-.74-1.02-.25 0-.44.1-.58.32-.08.12-.13.36-.15.7zm3.54-.27.57.12c.12.04.23.1.34.17.22.18.34.4.34.65 0 .15-.03.27-.07.38-.05.1-.1.2-.19.25a1.5 1.5 0 0 1-.23.15 1.7 1.7 0 0 1-.64.11c-.3 0-.54-.06-.73-.19l-.15.1c-.1.07-.15.1-.19.1a.13.13 0 0 1-.1-.04.36.36 0 0 1-.01-.14v-.66c0-.08 0-.13.02-.15.02-.02.06-.03.13-.03a.3.3 0 0 1 .1.01c.02.01.03.03.05.08l.08.22c.03.07.08.14.14.23.06.08.15.14.26.19.11.04.24.07.4.07.46 0 .7-.15.7-.46a.36.36 0 0 0-.08-.22.4.4 0 0 0-.2-.15 1.8 1.8 0 0 0-.41-.11l-.41-.08a1.94 1.94 0 0 1-.27-.09.93.93 0 0 1-.26-.17.65.65 0 0 1-.25-.51c0-.13.02-.24.07-.34.04-.1.1-.17.18-.23.09-.05.16-.1.24-.13a.88.88 0 0 1 .27-.07 6.64 6.64 0 0 1 .37-.03c.25 0 .46.04.62.12l.27-.12c.05 0 .08.01.1.03V25l-.01.14c-.02.02-.06.03-.13.03-.06 0-.1 0-.1-.02-.02-.02-.03-.05-.04-.1-.03-.34-.27-.52-.72-.52-.46 0-.68.13-.68.38 0 .07.02.13.05.18.04.05.1.09.18.12a1.72 1.72 0 0 0 .39.1zm2.81-.63v1.69c0 .35.12.53.36.53.1 0 .18-.05.25-.14.08-.09.12-.23.12-.42v-.31h.28v.32a.8.8 0 0 1-.2.57.7.7 0 0 1-.54.23c-.64 0-.96-.27-.96-.8v-1.67h-.5v-.22c.28 0 .5-.13.66-.38.16-.24.24-.53.25-.86h.28v1.17h.9v.3zm4.24 1.1h-1.85c0 .75.29 1.12.87 1.12.2 0 .38-.04.54-.13a.77.77 0 0 0 .33-.36c.02-.05.04-.09.06-.1.01-.02.05-.03.1-.03.1 0 .14.04.14.11 0 .04-.02.1-.06.17-.04.08-.1.15-.19.25a1 1 0 0 1-.38.24c-.17.06-.37.1-.6.1-.48 0-.87-.14-1.16-.4a1.3 1.3 0 0 1-.43-1.02c0-.4.13-.73.4-1 .26-.26.64-.4 1.1-.4.43 0 .75.12.98.34.23.23.34.54.34.94 0 .08-.01.13-.03.14a.35.35 0 0 1-.16.03zm-1.85-.2H24c-.02-.68-.26-1.02-.73-1.02-.25 0-.44.1-.58.32-.09.12-.13.36-.15.7zm0 0"/>
      <path fill="#7f7f7f" stroke="#7f7f7f" stroke-miterlimit="10" stroke-width=".72" d="M27.17 22.09h5.67v6.09h-5.67zm0 0"/>
      <path fill="#fff" d="M30.41 23.29v3.52h.86v.3c-.18-.02-.59-.03-1.22-.03s-1.04 0-1.22.02v-.29h.85v-3.16c-.25.08-.51.12-.79.12h-.12v-.29h.12a2 2 0 0 0 1.23-.34.22.22 0 0 1 .13-.05c.07 0 .12.02.14.04.02.03.02.08.02.16zm0 0"/>
      <path d="M38.06 25.77h-1.85c0 .75.3 1.12.87 1.12.2 0 .38-.04.54-.13a.77.77 0 0 0 .34-.36l.05-.1c.02-.02.05-.03.1-.03.1 0 .15.04.15.11 0 .04-.02.1-.06.17a.99.99 0 0 1-.2.25 1 1 0 0 1-.37.24c-.18.06-.38.1-.6.1-.49 0-.87-.14-1.16-.4-.3-.26-.44-.6-.44-1.02 0-.4.13-.73.4-1 .27-.26.64-.4 1.11-.4.42 0 .74.12.97.34.23.23.35.54.35.94 0 .08-.01.13-.04.14a.35.35 0 0 1-.16.03zm-1.85-.2h1.47c-.02-.68-.27-1.02-.74-1.02-.24 0-.44.1-.58.32-.08.12-.13.36-.15.7zm3.54-.27.57.12c.12.04.23.1.34.17.23.18.34.4.34.65 0 .15-.02.27-.07.38-.04.1-.1.2-.18.25l-.24.15a.9.9 0 0 1-.27.08l-.22.03h-.15c-.3 0-.53-.06-.72-.19l-.17.1c-.08.07-.14.1-.18.1-.05 0-.08-.02-.09-.04a.36.36 0 0 1-.02-.14v-.66c0-.08 0-.13.02-.15.02-.02.06-.03.13-.03a.3.3 0 0 1 .1.01c.02.01.03.03.04.08l.09.22c.03.07.08.14.14.23a.6.6 0 0 0 .26.19c.12.04.25.07.4.07.46 0 .7-.15.7-.46a.38.38 0 0 0-.07-.22.46.46 0 0 0-.2-.15 1.76 1.76 0 0 0-.41-.11l-.42-.08a1.64 1.64 0 0 1-.27-.09.99.99 0 0 1-.26-.17.65.65 0 0 1-.25-.51c0-.13.02-.24.07-.34a.6.6 0 0 1 .19-.23l.23-.13a.88.88 0 0 1 .27-.07 6.64 6.64 0 0 1 .37-.03c.25 0 .46.04.62.12.15-.08.25-.12.27-.12.05 0 .08.01.1.03l.01.14v.49c0 .08 0 .12-.02.14-.01.02-.06.03-.12.03-.07 0-.1 0-.12-.02l-.02-.1c-.04-.34-.28-.52-.73-.52-.45 0-.69.13-.69.38 0 .07.03.13.07.18.03.05.1.09.17.12a1.48 1.48 0 0 0 .4.1zm2.78 0 .57.12c.11.04.23.1.34.17.22.18.33.4.33.65 0 .15-.02.27-.06.38-.05.1-.11.2-.19.25l-.23.15a.9.9 0 0 1-.27.08l-.22.03h-.16c-.3 0-.53-.06-.72-.19a1.9 1.9 0 0 1-.34.2.13.13 0 0 1-.1-.04.38.38 0 0 1-.01-.14v-.66c0-.08 0-.13.02-.15.01-.02.06-.03.12-.03l.1.01c.02.01.04.03.05.08l.08.22c.03.07.08.14.14.23a.6.6 0 0 0 .27.19c.1.04.24.07.4.07.46 0 .69-.15.69-.46a.38.38 0 0 0-.07-.22.47.47 0 0 0-.2-.15 1.79 1.79 0 0 0-.41-.11l-.41-.08a1.8 1.8 0 0 1-.27-.09.99.99 0 0 1-.27-.17.66.66 0 0 1-.24-.51c0-.13.02-.24.07-.34.04-.1.1-.17.18-.23.08-.05.16-.1.24-.13a.91.91 0 0 1 .26-.07 6.62 6.62 0 0 1 .37-.03c.26 0 .46.04.62.12l.27-.12c.06 0 .09.01.1.03l.02.14v.49c0 .08-.01.12-.03.14 0 .02-.05.03-.12.03-.06 0-.1 0-.11-.02-.02-.02-.03-.05-.03-.1-.04-.34-.27-.52-.72-.52-.46 0-.69.13-.69.38 0 .07.02.13.06.18.04.05.1.09.18.12a1.72 1.72 0 0 0 .39.1zm3.77 1.33c-.17.34-.48.5-.9.5a2.32 2.32 0 0 1-.76-.12.7.7 0 0 1-.31-.22.54.54 0 0 1-.12-.35c0-.58.66-.9 1.99-.96v-.21c0-.48-.23-.72-.68-.72-.16 0-.3.01-.43.04.09.06.13.16.13.3 0 .13-.04.22-.12.29a.4.4 0 0 1-.53 0 .35.35 0 0 1-.12-.29c0-.37.37-.56 1.1-.56.44 0 .77.08 1 .26.23.17.34.4.34.68v1.32c0 .05 0 .1.02.12 0 .02.04.05.1.07a.7.7 0 0 0 .26.03h.08l.05.05c.02.01.03.05.03.1 0 .04-.01.07-.03.1a.1.1 0 0 1-.06.03l-.11.01h-.3c-.14 0-.27-.01-.36-.04-.1-.03-.16-.07-.2-.13a.5.5 0 0 1-.06-.14.82.82 0 0 1 0-.16zm-.1-.96-.26.02a2.35 2.35 0 0 0-.66.2.76.76 0 0 0-.25.2c-.07.1-.1.22-.1.34 0 .14.05.25.16.35.1.1.24.14.39.14a1.1 1.1 0 0 0 .41-.11.5.5 0 0 0 .22-.21.7.7 0 0 0 .09-.35zm2.6-1.32v2.46h.38v.3a30.8 30.8 0 0 0-1.46 0v-.3h.42v-1.89c0-.11-.02-.18-.06-.2a.91.91 0 0 0-.34-.04v-.29zm.06-1.03c0 .14-.04.25-.14.34a.47.47 0 0 1-.67 0 .46.46 0 0 1 0-.67c.1-.1.2-.14.34-.14a.47.47 0 0 1 .47.47zm168.42-.57h.95c.22 0 .38.02.49.05.15.04.28.12.38.24.11.1.2.25.25.41.06.17.08.37.08.6 0 .22-.02.4-.07.56-.07.19-.16.34-.28.46a.95.95 0 0 1-.37.2 1.6 1.6 0 0 1-.46.05h-.97zm.52.43v1.71h.38c.16 0 .26 0 .32-.03a.42.42 0 0 0 .2-.1.5.5 0 0 0 .15-.25c.03-.12.05-.28.05-.47 0-.2-.02-.35-.05-.46a.63.63 0 0 0-.15-.25.46.46 0 0 0-.25-.12 1.9 1.9 0 0 0-.42-.03zm3.15 1.55.5.08a.88.88 0 0 1-.3.42.86.86 0 0 1-.52.14c-.32 0-.56-.1-.72-.32a1.04 1.04 0 0 1-.18-.64c0-.31.08-.55.24-.73a.8.8 0 0 1 .62-.26c.28 0 .5.1.66.27.16.18.23.46.22.84h-1.24c0 .15.05.26.13.34.07.09.17.13.28.13a.3.3 0 0 0 .2-.07.4.4 0 0 0 .11-.2zm.03-.5a.49.49 0 0 0-.1-.32.34.34 0 0 0-.26-.12c-.11 0-.2.05-.27.12a.47.47 0 0 0-.1.32zm.86-.77h.45v.25c.17-.2.36-.3.58-.3.13 0 .23.04.32.08.09.05.16.12.22.22a.68.68 0 0 1 .56-.29.7.7 0 0 1 .35.08c.1.05.16.14.21.25.04.07.06.2.06.38v1.2h-.5v-1.07c0-.19-.02-.3-.05-.36a.26.26 0 0 0-.22-.1.36.36 0 0 0-.19.06c-.06.04-.1.1-.13.18a1.5 1.5 0 0 0-.04.39v.9h-.5V24.3c0-.18 0-.3-.02-.35-.02-.05-.04-.1-.08-.11a.25.25 0 0 0-.15-.05.35.35 0 0 0-.34.24c-.03.08-.04.2-.04.4v.9h-.5zm3.6.57-.44-.08a.71.71 0 0 1 .25-.4.95.95 0 0 1 .55-.13c.22 0 .39.03.5.08.1.04.18.11.22.2.05.07.07.22.07.43v.58a2 2 0 0 0 .02.36.9.9 0 0 0 .08.25h-.48a1.45 1.45 0 0 1-.05-.14l-.02-.06a1 1 0 0 1-.27.19.8.8 0 0 1-.3.06.63.63 0 0 1-.46-.16.51.51 0 0 1-.16-.4c0-.1.02-.2.07-.28a.5.5 0 0 1 .21-.19c.1-.04.22-.08.4-.11l.48-.12v-.05c0-.1-.03-.17-.07-.2-.05-.04-.14-.07-.27-.07a.35.35 0 0 0-.2.06.3.3 0 0 0-.12.18zm.67.4-.3.07c-.14.04-.23.06-.27.09-.07.05-.1.1-.1.18 0 .06.02.12.08.18.05.05.11.07.2.07.08 0 .17-.03.25-.09.06-.05.1-.1.12-.16l.02-.24zm2.66.9h-.49v-.95c0-.2-.01-.34-.03-.4a.24.24 0 0 0-.1-.14.3.3 0 0 0-.17-.05.43.43 0 0 0-.24.08.35.35 0 0 0-.13.18c-.03.08-.04.22-.04.43v.84h-.5v-1.86h.46v.27a.75.75 0 0 1 .61-.31.7.7 0 0 1 .3.06c.1.04.16.09.2.14a.5.5 0 0 1 .1.21c.03.08.03.19.03.33zm2.21 0h-.45v-.28a.77.77 0 0 1-.58.32.73.73 0 0 1-.56-.26 1.07 1.07 0 0 1-.23-.72c0-.32.08-.56.23-.73a.72.72 0 0 1 .56-.24c.21 0 .39.08.54.26v-.93h.49zm-1.31-.98c0 .2.03.35.08.44a.37.37 0 0 0 .62.04c.08-.1.12-.24.12-.43 0-.22-.03-.37-.11-.47a.37.37 0 0 0-.3-.14.36.36 0 0 0-.3.14.7.7 0 0 0-.11.42zm2.88.38.5.08a.86.86 0 0 1-.3.42.86.86 0 0 1-.52.14c-.32 0-.56-.1-.72-.32a1.06 1.06 0 0 1-.18-.64c0-.31.08-.55.24-.73a.79.79 0 0 1 .62-.26c.27 0 .5.1.65.27.16.18.24.46.23.84h-1.24c0 .15.05.26.12.34.08.09.18.13.29.13a.3.3 0 0 0 .2-.07.4.4 0 0 0 .11-.2zm.03-.5a.49.49 0 0 0-.1-.32.34.34 0 0 0-.27-.12c-.1 0-.2.05-.26.12a.48.48 0 0 0-.1.32zm1.37 1.1h-.5v-1.87h.46v.26c.08-.12.15-.2.21-.24a.39.39 0 0 1 .22-.06c.1 0 .21.03.32.09l-.15.43a.46.46 0 0 0-.23-.08.27.27 0 0 0-.18.05.43.43 0 0 0-.11.21c-.03.1-.04.31-.04.63zm4.25 0h-.57l-.22-.6h-1.03l-.21.6h-.56l1-2.58h.56zm-.96-1.03-.35-.95-.35.95zm1.23-1.1v-.45h.5v.45zm0 2.12v-1.86h.5v1.86zm2.71 0h-.45v-.27a.87.87 0 0 1-.27.24.72.72 0 0 1-.32.08.72.72 0 0 1-.55-.26 1.07 1.07 0 0 1-.23-.72c0-.32.08-.56.23-.73a.72.72 0 0 1 1.1.02v-.93h.5zm-1.31-.97c0 .2.02.35.08.44.08.12.2.19.33.19a.4.4 0 0 0 .3-.15c.07-.1.11-.24.11-.43a.81.81 0 0 0-.11-.47.37.37 0 0 0-.3-.14.37.37 0 0 0-.3.14.7.7 0 0 0-.11.42zm2.88.38.5.08a.83.83 0 0 1-.3.42.86.86 0 0 1-.52.14c-.32 0-.56-.1-.72-.32a1.06 1.06 0 0 1-.18-.64c0-.31.08-.55.24-.73a.8.8 0 0 1 .62-.26c.27 0 .5.1.65.27.16.18.24.46.23.84h-1.24c0 .15.05.26.12.34.08.09.17.13.29.13a.3.3 0 0 0 .2-.07c.05-.04.09-.1.11-.2zm.03-.5a.49.49 0 0 0-.1-.32.36.36 0 0 0-.53 0 .48.48 0 0 0-.11.32zm0 0"/>
    </g>
    <g id="U" clip-path="url(#w)">
      <g clip-path="url(#x)">
        <path fill="#e1ffe1" d="M.8.1h246.02v151.8H.8Zm0 0"/>
      </g>
      <path fill="none" stroke="#ca6300" stroke-linecap="round" stroke-linejoin="round" stroke-miterlimit="10" stroke-opacity=".5" stroke-width=".9" d="M171.4 71.68a58.01 58.01 0 1 1-116.03.01 58.01 58.01 0 0 1 116.03-.01zm0 0"/>
      <g clip-path="url(#y)">
        <path fill="none" stroke="#ca9700" stroke-dasharray="2.34 1.44" stroke-linejoin="round" stroke-miterlimit="10" stroke-opacity=".7" stroke-width=".9" d="M168.05 91.1.81 31.7"/>
      </g>
      <path fill="none" stroke="#006397" stroke-linecap="square" stroke-miterlimit="10" stroke-width=".9" d="m56.91 50.46 3.6 3.6m-3.6 0 3.6-3.6"/>
      <g clip-path="url(#z)">
        <path fill="#fff" fill-opacity=".65" d="M.74.1H246.3V152H.74Zm0 0"/>
        <path fill="none" stroke="#fff" stroke-linecap="round" stroke-linejoin="round" stroke-miterlimit="10" stroke-opacity=".7" stroke-width=".9" d="M.45-.25h246.73v152.5H.45Zm0 0"/>
      </g>
      <path fill="none" stroke="#003097" stroke-linecap="square" stroke-miterlimit="10" stroke-width=".9" d="m166.25 89.3 3.6 3.6m-3.6 0 3.6-3.6"/>
      <path fill="#003097" d="m175.29 88.25 2.87-4.83a.29.29 0 0 1 .22-.14c.08 0 .13.02.14.08l.02.12.5 5.16c.02.15.05.23.1.25v.01c.08.03.22.05.44.05.12 0 .19.03.19.09 0 .1-.05.16-.15.16l-.92-.02h-.01l-1.03.02c-.09 0-.13-.03-.13-.1.05-.1.12-.15.2-.15.4 0 .6-.1.6-.28l-.13-1.38h-2.08l-.62 1.06a.7.7 0 0 0-.12.3c0 .18.13.27.39.3.08 0 .13.03.13.1 0 .1-.05.15-.16.15l-.8-.02h-.03l-.7.02c-.08 0-.12-.03-.12-.1 0-.1.05-.14.13-.15h.05c.35-.03.63-.18.85-.45.06-.07.11-.16.17-.25zm.99-1.21h1.9l-.27-2.74zm0 0"/>
      <path fill="none" stroke="#006300" stroke-linecap="square" stroke-miterlimit="10" stroke-width=".9" d="m111.59 69.88 3.59 3.6m-3.59 0 3.59-3.6"/>
      <path fill="#006300" d="M116.98 61.5c0 .86-.3 1.64-.9 2.37a3.84 3.84 0 0 1-1.92 1.31c-.26.07-.52.1-.77.1a2 2 0 0 1-1.63-.72c-.33-.4-.49-.9-.49-1.48 0-.83.3-1.62.89-2.35a3.9 3.9 0 0 1 1.91-1.33c.27-.09.54-.13.8-.13a2 2 0 0 1 1.65.76c.31.4.46.89.46 1.47zm-3.54 3.57c.51 0 1.01-.23 1.5-.7.1-.09.18-.19.27-.3a4.8 4.8 0 0 0 1.04-2.9c0-.75-.25-1.26-.76-1.53l-.02-.02a1.4 1.4 0 0 0-.64-.14 2.2 2.2 0 0 0-1.51.67c-.2.17-.37.38-.53.62a4.8 4.8 0 0 0-.74 2.27l-.01.27c0 .7.21 1.21.64 1.52.22.16.47.24.76.24zm0 0"/>
      <path fill="none" stroke="#5e5e5e" stroke-linecap="round" stroke-linejoin="round" stroke-miterlimit="10" stroke-opacity=".7" stroke-width=".9" d="m113.38 71.68 54.67 19.42m-27.46-12.04-1.44 4.07m3.14-3.47-1.45 4.07m-27.46-12.05L58.71 52.26M86.18 64.3l1.44-4.06m-3.14 3.46 1.44-4.06"/>
      <path fill="none" stroke="#ca0000" stroke-linecap="square" stroke-miterlimit="10" stroke-width=".9" d="m56.91 50.46 3.6 3.6m-3.6 0 3.6-3.6"/>
      <path fill="#ca0000" d="m52.47 43.82 2.88-4.84a.26.26 0 0 1 .21-.13c.09 0 .14.02.14.08l.02.12.5 5.16c.02.14.05.22.1.25h.01v.01c.07.03.21.05.44.05.12 0 .18.02.18.08 0 .11-.05.17-.15.17l-.92-.03h-.01l-1.03.03c-.08 0-.12-.03-.12-.09.05-.1.11-.16.2-.16.4 0 .6-.1.6-.28l-.14-1.38H53.3l-.62 1.06a.76.76 0 0 0-.12.3c0 .17.13.27.39.3.09 0 .13.03.13.09 0 .1-.05.16-.15.16l-.8-.03h-.03l-.7.03h-.01c-.07 0-.11-.03-.11-.09 0-.1.04-.15.12-.16h.05c.35-.03.64-.18.85-.45.06-.07.11-.16.17-.25zm1-1.22h1.89l-.27-2.73Zm5.2-4.02L57.63 41c-.02.06-.04.08-.07.08a.25.25 0 0 1-.18-.06l-.02-.04.02-.08.7-2.53c.05-.16.13-.24.25-.26h.06a.3.3 0 0 1 .29.17c.02.03.03.08.03.13 0 .04-.01.1-.04.16zm0 0"/>
      <g clip-path="url(#A)">
        <path fill="#ebebeb" d="M1.53.1h58.62v12.96H1.53zm0 0"/>
      </g>
      <path fill="#003097" d="M3.14 3.23h2.05c.41 0 .72.02.92.06a1.26 1.26 0 0 1 .93.64c.1.18.15.37.15.6 0 .24-.06.46-.2.66-.12.2-.3.35-.52.45.32.1.55.25.72.47.17.22.26.48.26.78a1.53 1.53 0 0 1-.61 1.22c-.19.12-.42.2-.7.24a15 15 0 0 1-1.25.03H3.14zm1.04.86v1.19h.68c.4 0 .65 0 .75-.02a.71.71 0 0 0 .42-.18c.1-.1.15-.24.15-.4 0-.16-.04-.3-.13-.4-.09-.1-.22-.15-.4-.17-.1-.02-.39-.02-.88-.02Zm0 2.05v1.38h.96c.37 0 .61-.02.71-.04.15-.03.28-.1.38-.2a.7.7 0 0 0 .14-.44.65.65 0 0 0-.11-.4.63.63 0 0 0-.33-.23 3.47 3.47 0 0 0-.92-.07Zm3.9.32a2 2 0 0 1 .25-.95c.17-.3.4-.54.69-.7a2 2 0 0 1 1-.24 1.86 1.86 0 0 1 1.92 1.93 1.9 1.9 0 0 1-.55 1.41c-.36.37-.82.55-1.37.55a2.1 2.1 0 0 1-.98-.23 1.54 1.54 0 0 1-.7-.68c-.17-.3-.25-.66-.25-1.09Zm1.02.06c0 .37.09.65.26.85a.85.85 0 0 0 1.3 0c.18-.2.27-.48.27-.86 0-.37-.09-.65-.27-.85a.83.83 0 0 0-.64-.29c-.26 0-.48.1-.66.3-.17.2-.26.47-.26.85Zm7 1.86h-.98v-1.9c0-.4-.02-.66-.07-.78a.55.55 0 0 0-.2-.28.63.63 0 0 0-.35-.1.79.79 0 0 0-.45.14.72.72 0 0 0-.28.38c-.06.15-.08.43-.08.85v1.7h-.98V4.64h.91v.55a1.5 1.5 0 0 1 1.24-.63c.21 0 .41.04.59.11a.98.98 0 0 1 .6.72c.04.15.06.38.06.66zm4.4 0h-.99v-1.9c0-.4-.02-.66-.06-.78a.57.57 0 0 0-.2-.28.63.63 0 0 0-.35-.1.79.79 0 0 0-.46.14.72.72 0 0 0-.28.38c-.05.15-.08.43-.08.85v1.7h-.98V4.64h.92v.55a1.5 1.5 0 0 1 1.23-.63c.21 0 .41.04.6.11a.98.98 0 0 1 .6.72c.03.15.05.38.05.66Zm3.16-1.18.98.16c-.12.36-.32.63-.6.82-.27.2-.61.28-1.02.28-.65 0-1.13-.2-1.44-.63a2.15 2.15 0 0 1-.37-1.29c0-.61.16-1.1.49-1.45.32-.35.73-.52 1.22-.52.56 0 1 .18 1.31.55.32.36.48.93.47 1.68h-2.48c.01.3.1.52.24.68.15.17.34.25.57.25a.6.6 0 0 0 .4-.13c.1-.08.18-.22.23-.4zm.05-1c0-.29-.08-.5-.22-.65a.67.67 0 0 0-.5-.23c-.22 0-.4.08-.54.23a.9.9 0 0 0-.2.65zm4.74 2.18h-1V4.65h.93v.53c.15-.25.29-.41.42-.5a.75.75 0 0 1 .43-.11c.22 0 .43.06.64.18l-.3.86a.9.9 0 0 0-.46-.16.57.57 0 0 0-.36.12c-.1.07-.17.2-.23.4-.05.21-.07.63-.07 1.26zm4-1.18 1 .16a1.6 1.6 0 0 1-.6.82c-.28.2-.62.28-1.03.28-.65 0-1.13-.2-1.44-.63A2.15 2.15 0 0 1 30 6.54c0-.61.16-1.1.49-1.45.32-.35.73-.52 1.22-.52.55 0 1 .18 1.31.55.32.36.48.93.47 1.68h-2.48a1 1 0 0 0 .24.68c.15.17.34.25.56.25a.6.6 0 0 0 .4-.13c.1-.08.19-.22.24-.4zm.06-1c0-.29-.08-.5-.22-.65a.69.69 0 0 0-.5-.23.7.7 0 0 0-.54.23.92.92 0 0 0-.21.65zm-1.2-2.13.5-1.05h1.1l-.97 1.05zm2.96.58h.93v.55a1.39 1.39 0 0 1 1.16-.63c.43 0 .8.16 1.1.5.3.34.45.82.45 1.42 0 .63-.16 1.12-.46 1.46a1.41 1.41 0 0 1-1.66.4 1.8 1.8 0 0 1-.53-.43V9.8h-.99zm.98 1.8c0 .42.08.73.25.94.16.2.36.3.6.3a.7.7 0 0 0 .58-.28c.15-.19.23-.49.23-.9 0-.4-.08-.69-.24-.88a.73.73 0 0 0-.58-.29c-.24 0-.45.1-.6.28-.16.2-.24.47-.24.83zm3.21.01a2 2 0 0 1 .25-.95c.16-.3.39-.54.68-.7.3-.17.63-.24 1-.24A1.85 1.85 0 0 1 42.3 6.5a1.85 1.85 0 0 1-1.92 1.96 2.1 2.1 0 0 1-.98-.23c-.3-.15-.54-.38-.7-.68-.17-.3-.25-.66-.25-1.09Zm1.02.06c0 .37.08.65.26.85.17.2.39.3.65.3s.47-.1.65-.3c.17-.2.26-.48.26-.86 0-.37-.09-.65-.26-.85a.84.84 0 0 0-.65-.29c-.26 0-.48.1-.65.3-.18.2-.26.47-.26.85zm7 1.86h-.99v-1.9c0-.4-.02-.66-.06-.78a.55.55 0 0 0-.2-.28.62.62 0 0 0-.35-.1.8.8 0 0 0-.46.14.72.72 0 0 0-.28.38c-.05.15-.08.43-.08.85v1.7h-.98V4.64H44v.55a1.5 1.5 0 0 1 1.23-.63c.22 0 .41.04.6.11a1 1 0 0 1 .4.3c.1.13.16.26.2.42.03.15.05.38.05.66zm.65-1.06 1-.15a.7.7 0 0 0 .25.43c.13.1.3.15.54.15.26 0 .45-.05.58-.14a.3.3 0 0 0 .13-.26.22.22 0 0 0-.08-.19.84.84 0 0 0-.32-.13 5.4 5.4 0 0 1-1.52-.48.95.95 0 0 1-.44-.84 1 1 0 0 1 .38-.81c.26-.22.65-.33 1.19-.33.51 0 .89.08 1.14.25.25.16.42.41.51.73l-.93.17a.58.58 0 0 0-.22-.33.8.8 0 0 0-.48-.12c-.26 0-.45.04-.56.12a.22.22 0 0 0-.1.2c0 .07.02.12.09.18.08.06.4.16.91.27.53.12.9.27 1.1.44.22.18.32.42.32.73 0 .35-.15.64-.43.89-.29.24-.71.36-1.27.36-.5 0-.9-.1-1.2-.3-.3-.2-.5-.49-.59-.84Zm6.51-.12.98.16c-.12.36-.32.63-.6.82-.27.2-.61.28-1.02.28-.64 0-1.13-.2-1.44-.63a2.18 2.18 0 0 1-.36-1.29c0-.61.16-1.1.48-1.45.32-.35.73-.52 1.22-.52.56 0 1 .18 1.31.55.33.36.48.93.47 1.68H52.2c0 .3.08.52.24.68.15.17.34.25.56.25a.6.6 0 0 0 .4-.13c.1-.08.18-.22.23-.4zm.06-1a.96.96 0 0 0-.23-.65.68.68 0 0 0-.5-.23.7.7 0 0 0-.54.23.9.9 0 0 0-.2.65zm4.17.85-.26-2.6V3.23h1.07v1.22l-.25 2.6zm-.22 1.33V7.4h.99v1zm0 0"/>
      <path fill="#63ba4c" d="M161.22 135.7v11.15c0 .8.64 1.44 1.44 1.44h79.48c.8 0 1.44-.64 1.44-1.44V135.7c0-.8-.64-1.43-1.44-1.43h-79.48c-.8 0-1.44.64-1.44 1.43zm0 0"/>
      <path fill="none" stroke="#000" stroke-linecap="round" stroke-linejoin="round" stroke-miterlimit="10" stroke-width=".36" d="M161.4 135.88v11.15c0 .8.64 1.44 1.44 1.44h79.48c.8 0 1.44-.64 1.44-1.44v-11.15c0-.79-.64-1.44-1.44-1.44h-79.48c-.8 0-1.44.65-1.44 1.44zm0 0"/>
      <path fill="#fff" d="M165.81 145.77v-6.18h1.22l2.53 4.13v-4.13h1.15v6.18h-1.24l-2.5-4.03v4.03zm5.95-2.3c0-.4.1-.77.29-1.14.19-.37.46-.65.82-.85.36-.2.75-.28 1.2-.28.67 0 1.22.21 1.66.65.43.44.64 1 .64 1.67a2.3 2.3 0 0 1-.65 1.68c-.44.45-1 .67-1.65.67-.41 0-.8-.09-1.18-.27a1.9 1.9 0 0 1-.84-.82 2.7 2.7 0 0 1-.3-1.32zm1.2.07c0 .44.11.78.33 1.01a1 1 0 0 0 .78.36c.3 0 .56-.12.77-.36.21-.23.31-.58.31-1.02 0-.44-.1-.78-.3-1.01a1.01 1.01 0 0 0-.78-.36 1 1 0 0 0-.78.36c-.22.23-.32.57-.32 1.02zm7.29 2.23v-.67c-.17.24-.38.43-.65.56a1.8 1.8 0 0 1-.83.21c-.3 0-.58-.06-.82-.2a1.19 1.19 0 0 1-.51-.55 2.45 2.45 0 0 1-.16-1v-2.82h1.18v2.05c0 .63.02 1.02.06 1.16a.6.6 0 0 0 .24.33.7.7 0 0 0 .44.13c.2 0 .39-.06.55-.17.16-.1.27-.25.32-.4.07-.17.1-.58.1-1.22v-1.88h1.17v4.47zm3.55 0-1.8-4.47h1.25l.84 2.28.24.76.12-.38.13-.38.85-2.28h1.22l-1.78 4.47zm6.17-1.43 1.18.2c-.15.44-.4.77-.72 1-.33.22-.74.33-1.23.33-.78 0-1.36-.25-1.73-.76a2.6 2.6 0 0 1-.44-1.54c0-.74.2-1.32.58-1.75.39-.41.88-.62 1.47-.62a2 2 0 0 1 1.58.65c.38.44.56 1.12.55 2.02h-2.97c.01.36.1.63.3.82a.85.85 0 0 0 1.14.14 1 1 0 0 0 .29-.49zm.07-1.2c-.02-.34-.1-.6-.27-.77a.8.8 0 0 0-.62-.26.84.84 0 0 0-.64.27c-.17.19-.25.44-.24.77zm2.13 2.63v-6.18h1.19v6.18zm2.4 0v-6.18h1.18v6.18zm5-1.43 1.17.2c-.15.44-.39.77-.72 1-.32.22-.73.33-1.22.33-.78 0-1.36-.25-1.73-.76-.3-.41-.45-.92-.45-1.54 0-.74.2-1.32.59-1.75.38-.41.87-.62 1.47-.62a2 2 0 0 1 1.57.65c.39.44.57 1.12.55 2.02h-2.96c0 .36.1.63.28.82.2.2.42.3.68.3.2 0 .35-.06.48-.16.12-.1.22-.26.28-.49zm.06-1.2c0-.34-.1-.6-.27-.77a.8.8 0 0 0-.61-.26.84.84 0 0 0-.64.27 1.1 1.1 0 0 0-.25.77zm7.46 4.33v-2.25a1.64 1.64 0 0 1-1.32.65c-.5 0-.93-.19-1.25-.57a2.66 2.66 0 0 1-.59-1.82c0-.71.18-1.28.55-1.68.36-.4.82-.6 1.36-.6.29 0 .55.06.77.18.21.13.41.32.58.58v-.66h1.1v6.17zm.04-4c0-.45-.1-.79-.27-1.01a.88.88 0 0 0-.7-.34.91.91 0 0 0-.73.34c-.19.23-.28.6-.28 1.09 0 .49.09.84.27 1.06a.9.9 0 0 0 .69.32.9.9 0 0 0 .71-.36c.21-.24.31-.6.31-1.1zm5.26 2.3v-.67c-.16.24-.38.43-.65.56a1.78 1.78 0 0 1-1.64.02 1.22 1.22 0 0 1-.52-.56 2.5 2.5 0 0 1-.16-1v-2.82h1.18v2.05c0 .63.02 1.02.07 1.16.04.14.12.26.24.33.1.09.25.13.44.13.2 0 .38-.06.54-.17.16-.1.27-.25.33-.4.06-.17.08-.58.08-1.22v-1.88h1.18v4.47zm4.92-1.43 1.18.2c-.15.44-.4.77-.72 1-.33.22-.74.33-1.23.33-.78 0-1.35-.25-1.73-.76a2.6 2.6 0 0 1-.44-1.54c0-.74.2-1.32.58-1.75.39-.41.88-.62 1.47-.62.67 0 1.2.21 1.58.65.38.44.57 1.12.55 2.02h-2.96c0 .36.1.63.28.82.18.2.41.3.68.3.19 0 .34-.06.47-.16.12-.1.22-.26.3-.49zm.07-1.2c-.02-.34-.1-.6-.27-.77a.8.8 0 0 0-.61-.26.8.8 0 0 0-.64.27c-.17.19-.26.44-.25.77zm1.72 1.36 1.19-.19a.9.9 0 0 0 .3.53c.16.12.38.18.65.18.31 0 .54-.06.7-.17a.4.4 0 0 0 .15-.32.29.29 0 0 0-.08-.22c-.06-.06-.2-.1-.4-.16-.96-.2-1.56-.4-1.82-.58a1.14 1.14 0 0 1-.53-1c0-.39.15-.71.46-.98.31-.27.78-.4 1.43-.4.6 0 1.06.1 1.36.3.3.2.5.5.62.89l-1.12.2a.66.66 0 0 0-.27-.4 1 1 0 0 0-.58-.13c-.3 0-.53.04-.66.13a.28.28 0 0 0-.14.24c0 .08.04.15.12.21.11.08.48.19 1.1.34.64.14 1.08.32 1.33.52.24.2.37.5.37.88 0 .41-.17.76-.52 1.06-.34.3-.84.44-1.52.44-.6 0-1.09-.12-1.45-.37a1.7 1.7 0 0 1-.7-1zm7.27-3.2v.94h-.8v1.8l.01.64a.3.3 0 0 0 .1.15c.06.04.13.06.21.06.1 0 .27-.04.48-.11l.1.92a2.4 2.4 0 0 1-.94.17c-.21 0-.4-.03-.58-.1a.81.81 0 0 1-.37-.28 1.05 1.05 0 0 1-.17-.47 5.36 5.36 0 0 1-.04-.83v-1.95h-.55v-.94h.55v-.9l1.2-.69v1.59zm.82-.61v-1.1h1.19v1.1zm0 5.08v-4.47h1.19v4.47zm2.13-2.3c0-.4.1-.77.29-1.14a2 2 0 0 1 .82-.85c.36-.2.75-.28 1.2-.28a2.23 2.23 0 0 1 2.3 2.32 2.3 2.3 0 0 1-2.3 2.35c-.41 0-.8-.09-1.17-.27a1.9 1.9 0 0 1-.85-.82c-.2-.36-.3-.8-.3-1.32zm1.21.07c0 .44.1.78.31 1.01.21.24.48.36.79.36.3 0 .57-.12.77-.36.2-.23.32-.58.32-1.02 0-.44-.11-.78-.32-1.01a.98.98 0 0 0-.77-.36 1 1 0 0 0-.79.36c-.2.23-.3.57-.3 1.02zm8.4 2.23h-1.18v-2.29c0-.48-.03-.79-.08-.93a.64.64 0 0 0-.24-.33.7.7 0 0 0-.41-.11c-.21 0-.4.05-.56.16a.8.8 0 0 0-.33.45c-.06.18-.1.53-.1 1.02v2.03h-1.18v-4.47h1.1v.65c.4-.5.89-.75 1.48-.75.26 0 .5.04.71.14.22.09.38.21.5.36.1.14.18.31.23.5.04.18.06.45.06.8zm0 0"/>
    </g>
    <mask id="F">
      <g filter="url(#B)">
        <use xlink:href="#C" fill-opacity=".5"/>
      </g>
    </mask>
    <mask id="I">
      <g filter="url(#B)">
        <use xlink:href="#C" fill-opacity=".5"/>
      </g>
    </mask>
    <mask id="v">
      <g filter="url(#B)">
        <use xlink:href="#b" fill-opacity=".81"/>
      </g>
    </mask>
    <radialGradient id="s" cx="9.55" cy="13.47" r="7.89" fx="9.55" fy="13.47" gradientTransform="rotate(-45 119.62 -252.92)" gradientUnits="userSpaceOnUse">
      <stop offset="0" stop-color="#8c8c8c"/>
      <stop offset="0" stop-color="#8c8d8d"/>
      <stop offset=".01" stop-color="#8c8d8d"/>
      <stop offset=".01" stop-color="#8d8e8e"/>
      <stop offset=".02" stop-color="#8d8e8f"/>
      <stop offset=".02" stop-color="#8d8e8f"/>
      <stop offset=".02" stop-color="#8d8f90"/>
      <stop offset=".03" stop-color="#8d8f90"/>
      <stop offset=".03" stop-color="#8d9091"/>
      <stop offset=".04" stop-color="#8d9092"/>
      <stop offset=".04" stop-color="#8e9192"/>
      <stop offset=".04" stop-color="#8e9193"/>
      <stop offset=".05" stop-color="#8e9293"/>
      <stop offset=".05" stop-color="#8e9294"/>
      <stop offset=".05" stop-color="#8e9294"/>
      <stop offset=".06" stop-color="#8e9395"/>
      <stop offset=".06" stop-color="#8e9396"/>
      <stop offset=".07" stop-color="#8f9496"/>
      <stop offset=".07" stop-color="#8f9497"/>
      <stop offset=".07" stop-color="#8f9597"/>
      <stop offset=".08" stop-color="#8f9598"/>
      <stop offset=".08" stop-color="#8f9699"/>
      <stop offset=".09" stop-color="#8f9699"/>
      <stop offset=".09" stop-color="#8f969a"/>
      <stop offset=".09" stop-color="#90979a"/>
      <stop offset=".1" stop-color="#90979b"/>
      <stop offset=".1" stop-color="#90989b"/>
      <stop offset=".11" stop-color="#90989c"/>
      <stop offset=".11" stop-color="#90999d"/>
      <stop offset=".11" stop-color="#90999d"/>
      <stop offset=".12" stop-color="#909a9e"/>
      <stop offset=".12" stop-color="#919a9e"/>
      <stop offset=".13" stop-color="#919b9f"/>
      <stop offset=".13" stop-color="#919ba0"/>
      <stop offset=".13" stop-color="#919ba0"/>
      <stop offset=".14" stop-color="#919ca1"/>
      <stop offset=".14" stop-color="#919ca1"/>
      <stop offset=".14" stop-color="#919da2"/>
      <stop offset=".15" stop-color="#929da2"/>
      <stop offset=".15" stop-color="#929ea3"/>
      <stop offset=".16" stop-color="#929ea4"/>
      <stop offset=".16" stop-color="#929fa4"/>
      <stop offset=".16" stop-color="#929fa5"/>
      <stop offset=".17" stop-color="#929fa5"/>
      <stop offset=".17" stop-color="#92a0a6"/>
      <stop offset=".18" stop-color="#93a0a7"/>
      <stop offset=".18" stop-color="#93a1a7"/>
      <stop offset=".18" stop-color="#93a1a8"/>
      <stop offset=".19" stop-color="#93a2a8"/>
      <stop offset=".19" stop-color="#93a2a9"/>
      <stop offset=".2" stop-color="#93a3a9"/>
      <stop offset=".2" stop-color="#94a3aa"/>
      <stop offset=".2" stop-color="#94a3ab"/>
      <stop offset=".21" stop-color="#94a4ab"/>
      <stop offset=".21" stop-color="#94a4ac"/>
      <stop offset=".21" stop-color="#94a5ac"/>
      <stop offset=".22" stop-color="#94a5ad"/>
      <stop offset=".22" stop-color="#94a6ae"/>
      <stop offset=".23" stop-color="#95a6ae"/>
      <stop offset=".23" stop-color="#95a7af"/>
      <stop offset=".23" stop-color="#95a7af"/>
      <stop offset=".24" stop-color="#95a7b0"/>
      <stop offset=".24" stop-color="#95a8b0"/>
      <stop offset=".25" stop-color="#95a8b1"/>
      <stop offset=".25" stop-color="#95a9b2"/>
      <stop offset=".25" stop-color="#96a9b2"/>
      <stop offset=".26" stop-color="#96aab3"/>
      <stop offset=".26" stop-color="#96aab3"/>
      <stop offset=".27" stop-color="#96abb4"/>
      <stop offset=".27" stop-color="#96abb5"/>
      <stop offset=".27" stop-color="#96abb5"/>
      <stop offset=".28" stop-color="#96acb6"/>
      <stop offset=".28" stop-color="#97acb6"/>
      <stop offset=".29" stop-color="#97adb7"/>
      <stop offset=".29" stop-color="#97adb7"/>
      <stop offset=".29" stop-color="#97aeb8"/>
      <stop offset=".3" stop-color="#97aeb9"/>
      <stop offset=".3" stop-color="#97afb9"/>
      <stop offset=".3" stop-color="#97afba"/>
      <stop offset=".31" stop-color="#98b0ba"/>
      <stop offset=".31" stop-color="#98b0bb"/>
      <stop offset=".32" stop-color="#98b0bc"/>
      <stop offset=".32" stop-color="#98b1bc"/>
      <stop offset=".32" stop-color="#98b1bd"/>
      <stop offset=".33" stop-color="#98b2bd"/>
      <stop offset=".33" stop-color="#98b2be"/>
      <stop offset=".34" stop-color="#99b3be"/>
      <stop offset=".34" stop-color="#99b3bf"/>
      <stop offset=".34" stop-color="#99b4c0"/>
      <stop offset=".35" stop-color="#99b4c0"/>
      <stop offset=".35" stop-color="#99b4c1"/>
      <stop offset=".36" stop-color="#99b5c1"/>
      <stop offset=".36" stop-color="#99b5c2"/>
      <stop offset=".36" stop-color="#9ab6c3"/>
      <stop offset=".37" stop-color="#9ab6c3"/>
      <stop offset=".37" stop-color="#9ab7c4"/>
      <stop offset=".38" stop-color="#9ab7c4"/>
      <stop offset=".38" stop-color="#9ab8c5"/>
      <stop offset=".38" stop-color="#9ab8c5"/>
      <stop offset=".39" stop-color="#9bb8c6"/>
      <stop offset=".39" stop-color="#9bb9c7"/>
      <stop offset=".39" stop-color="#9bb9c7"/>
      <stop offset=".4" stop-color="#9bbac8"/>
      <stop offset=".4" stop-color="#9bbac8"/>
      <stop offset=".41" stop-color="#9bbbc9"/>
      <stop offset=".41" stop-color="#9bbbca"/>
      <stop offset=".41" stop-color="#9cbcca"/>
      <stop offset=".42" stop-color="#9cbccb"/>
      <stop offset=".42" stop-color="#9cbccb"/>
      <stop offset=".43" stop-color="#9bbbca"/>
      <stop offset=".43" stop-color="#9bb9c7"/>
      <stop offset=".44" stop-color="#9ab7c5"/>
      <stop offset=".44" stop-color="#9ab5c2"/>
      <stop offset=".45" stop-color="#99b3bf"/>
      <stop offset=".45" stop-color="#98b1bd"/>
      <stop offset=".45" stop-color="#98afba"/>
      <stop offset=".46" stop-color="#97adb8"/>
      <stop offset=".46" stop-color="#96abb5"/>
      <stop offset=".46" stop-color="#96a9b2"/>
      <stop offset=".47" stop-color="#95a7b0"/>
      <stop offset=".47" stop-color="#94a5ad"/>
      <stop offset=".48" stop-color="#94a3aa"/>
      <stop offset=".48" stop-color="#93a1a8"/>
      <stop offset=".48" stop-color="#929fa5"/>
      <stop offset=".49" stop-color="#929da3"/>
      <stop offset=".49" stop-color="#919ba0"/>
      <stop offset=".5" stop-color="#90999d"/>
      <stop offset=".5" stop-color="#90979b"/>
      <stop offset=".5" stop-color="#8f9598"/>
      <stop offset=".51" stop-color="#8e9395"/>
      <stop offset=".51" stop-color="#8e9193"/>
      <stop offset=".52" stop-color="#8d8f90"/>
      <stop offset=".52" stop-color="#8c8d8e"/>
      <stop offset=".52" stop-color="#8d8d8d"/>
      <stop offset=".53" stop-color="#8f8f8f"/>
      <stop offset=".53" stop-color="#929292"/>
      <stop offset=".54" stop-color="#949494"/>
      <stop offset=".54" stop-color="#969696"/>
      <stop offset=".54" stop-color="#999"/>
      <stop offset=".55" stop-color="#9b9b9b"/>
      <stop offset=".55" stop-color="#9d9d9d"/>
      <stop offset=".55" stop-color="#a0a0a0"/>
      <stop offset=".56" stop-color="#a2a2a2"/>
      <stop offset=".56" stop-color="#a5a5a5"/>
      <stop offset=".57" stop-color="#a7a7a7"/>
      <stop offset=".57" stop-color="#a9a9a9"/>
      <stop offset=".57" stop-color="#acacac"/>
      <stop offset=".58" stop-color="#aeaeae"/>
      <stop offset=".58" stop-color="#b0b0b0"/>
      <stop offset=".59" stop-color="#b3b3b3"/>
      <stop offset=".59" stop-color="#b5b5b5"/>
      <stop offset=".59" stop-color="#b7b7b7"/>
      <stop offset=".6" stop-color="#bababa"/>
      <stop offset=".6" stop-color="#bcbcbc"/>
      <stop offset=".61" stop-color="#bebebe"/>
      <stop offset=".61" stop-color="#c1c1c1"/>
      <stop offset=".61" stop-color="#c3c3c3"/>
      <stop offset=".62" stop-color="#c6c6c6"/>
      <stop offset=".62" stop-color="#c8c8c8"/>
      <stop offset=".63" stop-color="#cacaca"/>
      <stop offset=".63" stop-color="#cdcdcd"/>
      <stop offset=".63" stop-color="#cfcfcf"/>
      <stop offset=".64" stop-color="#d1d1d1"/>
      <stop offset=".64" stop-color="#d4d4d4"/>
      <stop offset=".64" stop-color="#d6d6d6"/>
      <stop offset=".65" stop-color="#d8d8d8"/>
      <stop offset=".65" stop-color="#dbdbdb"/>
      <stop offset=".66" stop-color="#ddd"/>
      <stop offset=".66" stop-color="#dfdfdf"/>
      <stop offset=".66" stop-color="#e2e2e2"/>
      <stop offset=".67" stop-color="#e4e4e4"/>
      <stop offset=".67" stop-color="#e7e7e7"/>
      <stop offset=".68" stop-color="#e9e9e9"/>
      <stop offset=".68" stop-color="#ebebeb"/>
      <stop offset=".68" stop-color="#eee"/>
      <stop offset=".69" stop-color="#f0f0f0"/>
      <stop offset=".69" stop-color="#f2f2f2"/>
      <stop offset=".7" stop-color="#f5f5f5"/>
      <stop offset=".7" stop-color="#f7f7f7"/>
      <stop offset=".7" stop-color="#f9f9f9"/>
      <stop offset=".71" stop-color="#fcfcfc"/>
      <stop offset=".71" stop-color="#fefefe"/>
      <stop offset=".71" stop-color="#fdfdfd"/>
      <stop offset=".72" stop-color="#fbfbfb"/>
      <stop offset=".72" stop-color="#f8f8f8"/>
      <stop offset=".73" stop-color="#f6f6f6"/>
      <stop offset=".73" stop-color="#f3f3f3"/>
      <stop offset=".73" stop-color="#f1f1f1"/>
      <stop offset=".74" stop-color="#eee"/>
      <stop offset=".74" stop-color="#ececec"/>
      <stop offset=".75" stop-color="#e9e9e9"/>
      <stop offset=".75" stop-color="#e7e7e7"/>
      <stop offset=".75" stop-color="#e5e5e5"/>
      <stop offset=".76" stop-color="#e2e2e2"/>
      <stop offset=".76" stop-color="#e0e0e0"/>
      <stop offset=".77" stop-color="#ddd"/>
      <stop offset=".77" stop-color="#dbdbdb"/>
      <stop offset=".77" stop-color="#d8d8d8"/>
      <stop offset=".78" stop-color="#d6d6d6"/>
      <stop offset=".78" stop-color="#d3d3d3"/>
      <stop offset=".79" stop-color="#d1d1d1"/>
      <stop offset=".79" stop-color="#cecece"/>
      <stop offset=".79" stop-color="#ccc"/>
      <stop offset=".8" stop-color="#c9c9c9"/>
      <stop offset=".8" stop-color="#c7c7c7"/>
      <stop offset=".8" stop-color="#c4c4c4"/>
      <stop offset=".81" stop-color="#c2c2c2"/>
      <stop offset=".81" stop-color="#bfbfbf"/>
      <stop offset=".82" stop-color="#bdbdbd"/>
      <stop offset=".82" stop-color="#bababa"/>
      <stop offset=".82" stop-color="#b8b8b8"/>
      <stop offset=".83" stop-color="#b5b5b5"/>
      <stop offset=".83" stop-color="#b3b3b3"/>
      <stop offset=".84" stop-color="#b0b0b0"/>
      <stop offset=".84" stop-color="#aeaeae"/>
      <stop offset=".84" stop-color="#ababab"/>
      <stop offset=".85" stop-color="#a9a9a9"/>
      <stop offset=".85" stop-color="#a6a6a6"/>
      <stop offset=".86" stop-color="#a4a4a4"/>
      <stop offset=".86" stop-color="#a1a1a1"/>
      <stop offset=".86" stop-color="#9f9f9f"/>
      <stop offset=".87" stop-color="#9c9c9c"/>
      <stop offset=".87" stop-color="#9a9a9a"/>
      <stop offset=".88" stop-color="#979797"/>
      <stop offset=".88" stop-color="#959595"/>
      <stop offset=".88" stop-color="#929292"/>
      <stop offset=".89" stop-color="#909090"/>
      <stop offset=".89" stop-color="#8d8d8d"/>
      <stop offset=".89" stop-color="#8c8d8d"/>
      <stop offset=".9" stop-color="#8d8f8f"/>
      <stop offset=".9" stop-color="#8d9092"/>
      <stop offset=".91" stop-color="#8e9294"/>
      <stop offset=".91" stop-color="#8f9497"/>
      <stop offset=".91" stop-color="#8f9699"/>
      <stop offset=".92" stop-color="#90989b"/>
      <stop offset=".92" stop-color="#909a9e"/>
      <stop offset=".93" stop-color="#919ba0"/>
      <stop offset=".93" stop-color="#929da2"/>
      <stop offset=".93" stop-color="#929fa5"/>
      <stop offset=".94" stop-color="#93a1a7"/>
      <stop offset=".94" stop-color="#93a3aa"/>
      <stop offset=".95" stop-color="#94a4ac"/>
      <stop offset=".95" stop-color="#95a6ae"/>
      <stop offset=".95" stop-color="#95a8b1"/>
      <stop offset=".96" stop-color="#96aab3"/>
      <stop offset=".96" stop-color="#96acb5"/>
      <stop offset=".96" stop-color="#97aeb8"/>
      <stop offset=".97" stop-color="#98afba"/>
      <stop offset=".97" stop-color="#98b1bd"/>
      <stop offset=".98" stop-color="#99b3bf"/>
      <stop offset=".98" stop-color="#99b5c1"/>
      <stop offset=".98" stop-color="#9ab7c4"/>
      <stop offset=".99" stop-color="#9bb8c6"/>
      <stop offset=".99" stop-color="#9bbac8"/>
      <stop offset="1" stop-color="#9cbccb"/>
      <stop offset="1" stop-color="#9cbdcc"/>
    </radialGradient>
    <filter id="B" width="1" height="1" x="0" y="0" filterUnits="objectBoundingBox">
      <feColorMatrix in="SourceGraphic" values="0 0 0 0 1 0 0 0 0 1 0 0 0 0 1 0 0 0 1 0"/>
    </filter>
  </defs>
  <path fill="#d1d1d1" fill-rule="evenodd" d="M0 211.69V0h246.62v211.69Zm.6-.6V.59h245.42v210.5Zm0 0"/>
  <path fill="#ebebeb" d="M.6 58.15V.6h245.42v57.55zm0 0"/>
  <path fill="#fff" d="M.6 211.09V57.87h245.42v153.22zm0 0"/>
  <path fill="#f8f8f8" d="M.6 56.63v3.04h245.42v-3.04zm0 0"/>
  <path fill="none" stroke="#dcdcdc" stroke-miterlimit="10" stroke-width=".6" d="M.6 56.93h245.42M.6 59.37h245.42"/>
  <path fill="#f8f8f8" d="M.6.6v20.15h245.42V.6Zm0 0"/>
  <path fill="none" stroke="#dcdcdc" stroke-miterlimit="10" stroke-width=".6" d="M.6 21.05h245.42"/>
  <g clip-path="url(#D)" transform="translate(-306.14 -52.44)">
    <use xlink:href="#E" width="100%" height="100%" mask="url(#F)" transform="translate(535 57)"/>
  </g>
  <g clip-path="url(#G)" transform="translate(-306.14 -52.44)">
    <use xlink:href="#H" width="100%" height="100%" mask="url(#I)" transform="translate(517 57)"/>
  </g>
  <path fill="#fff" stroke="#6161ff" stroke-miterlimit="10" stroke-width=".76" d="M16.19 3.07H4.79a1.9 1.9 0 0 0-1.91 1.9v11.4c0 1.06.85 1.9 1.9 1.9h11.4a1.9 1.9 0 0 0 1.9-1.9V4.97a1.9 1.9 0 0 0-1.9-1.9zm0 0"/>
  <g clip-path="url(#J)" transform="translate(-306.14 -52.44)">
    <use xlink:href="#K" width="100%" height="100%" transform="translate(310 57)"/>
  </g>
  <path fill="#fff" stroke="#dcdcdc" stroke-miterlimit="10" stroke-width=".38" d="M33.86 3.07h-11.4a1.9 1.9 0 0 0-1.9 1.9v11.4c0 1.06.85 1.9 1.9 1.9h11.4a1.9 1.9 0 0 0 1.9-1.9V4.97a1.9 1.9 0 0 0-1.9-1.9zm0 0"/>
  <g clip-path="url(#L)" transform="translate(-306.14 -52.44)">
    <use xlink:href="#M" width="100%" height="100%" transform="translate(328 57)"/>
  </g>
  <path fill="#fff" stroke="#dcdcdc" stroke-miterlimit="10" stroke-width=".38" d="M51.35 3.07h-11.4a1.9 1.9 0 0 0-1.9 1.9v11.4c0 1.06.84 1.9 1.9 1.9h11.4a1.9 1.9 0 0 0 1.9-1.9V4.97a1.9 1.9 0 0 0-1.9-1.9zm0 0"/>
  <g clip-path="url(#N)" transform="translate(-306.14 -52.44)">
    <use xlink:href="#O" width="100%" height="100%" transform="translate(345 57)"/>
  </g>
  <path fill="#fff" stroke="#dcdcdc" stroke-miterlimit="10" stroke-width=".38" d="M68.84 3.07h-11.4a1.9 1.9 0 0 0-1.9 1.9v11.4c0 1.06.84 1.9 1.9 1.9h11.4a1.9 1.9 0 0 0 1.9-1.9V4.97a1.9 1.9 0 0 0-1.9-1.9zm0 0"/>
  <g clip-path="url(#P)" transform="translate(-306.14 -52.44)">
    <use xlink:href="#Q" width="100%" height="100%" transform="translate(363 57)"/>
  </g>
  <g clip-path="url(#R)" transform="translate(-306.14 -52.44)">
    <use xlink:href="#S" width="100%" height="100%" transform="translate(306 73)"/>
  </g>
  <g clip-path="url(#T)" transform="translate(-306.14 -52.44)">
    <use xlink:href="#U" width="100%" height="100%" transform="translate(306 112)"/>
  </g>
</svg>
