<?xml version="1.0" encoding="UTF-8" standalone="no"?>
<!-- Created with Inkscape (http://www.inkscape.org/) -->

<svg
   xmlns:dc="http://purl.org/dc/elements/1.1/"
   xmlns:cc="http://creativecommons.org/ns#"
   xmlns:rdf="http://www.w3.org/1999/02/22-rdf-syntax-ns#"
   xmlns:svg="http://www.w3.org/2000/svg"
   xmlns="http://www.w3.org/2000/svg"
   xmlns:sodipodi="http://sodipodi.sourceforge.net/DTD/sodipodi-0.dtd"
   xmlns:inkscape="http://www.inkscape.org/namespaces/inkscape"
   width="14.488626mm"
   height="10.455604mm"
   viewBox="0 0 14.488626 10.455604"
   version="1.1"
   id="svg2260"
   inkscape:version="0.92.4 (5da689c313, 2019-01-14)"
   sodipodi:docname="img_help.svg">
  <defs
     id="defs2254">
    <radialGradient
       id="radialGradient3841"
       gradientUnits="userSpaceOnUse"
       cy="324.26999"
       cx="230"
       gradientTransform="matrix(0.78156511,-0.78156514,0.78156514,0.78156511,-255.83608,103.67282)"
       r="190"
       inkscape:collect="always">
      <stop
         id="stop4206"
         style="stop-color:#8c8c8c"
         offset="0" />
      <stop
         id="stop4208"
         style="stop-color:#9cbdcc"
         offset=".42857" />
      <stop
         id="stop4214"
         style="stop-color:#8c8c8c"
         offset=".52381" />
      <stop
         id="stop4210"
         style="stop-color:#ffffff"
         offset=".71429" />
      <stop
         id="stop4216"
         style="stop-color:#8c8c8c"
         offset=".89474" />
      <stop
         id="stop4212"
         style="stop-color:#9cbdcc"
         offset="1" />
    </radialGradient>
  </defs>
  <sodipodi:namedview
     id="base"
     pagecolor="#ffffff"
     bordercolor="#666666"
     borderopacity="1.0"
     inkscape:pageopacity="0.0"
     inkscape:pageshadow="2"
     inkscape:zoom="5.6"
     inkscape:cx="13.927847"
     inkscape:cy="-4.6421733"
     inkscape:document-units="mm"
     inkscape:current-layer="layer1"
     showgrid="false"
     fit-margin-top="0"
     fit-margin-left="0"
     fit-margin-right="0"
     fit-margin-bottom="0"
     inkscape:window-width="1920"
     inkscape:window-height="1017"
     inkscape:window-x="-8"
     inkscape:window-y="-8"
     inkscape:window-maximized="1" />
  <metadata
     id="metadata2257">
    <rdf:RDF>
      <cc:Work
         rdf:about="">
        <dc:format>image/svg+xml</dc:format>
        <dc:type
           rdf:resource="http://purl.org/dc/dcmitype/StillImage" />
        <dc:title></dc:title>
      </cc:Work>
    </rdf:RDF>
  </metadata>
  <g
     inkscape:label="Layer 1"
     inkscape:groupmode="layer"
     id="layer1"
     transform="translate(-106.14854,-129.99839)">
    <g
       transform="matrix(0.20058651,0,0,0.20058651,-14.54837,126.58845)"
       style="stroke-width:1;stroke-linecap:square;stroke-linejoin:miter;stroke-miterlimit:10;stroke-dasharray:none;stroke-dashoffset:0"
       clip-path="url(#clip89)"
       id="g1336">
      <g
         id="g1334"
         style="fill:#000000;fill-opacity:1;fill-rule:nonzero;stroke:none">
        <path
           d="m 601.72,61.844 h 2.64 q 0.91,0 1.37,0.14 0.63,0.172 1.07,0.649 0.45,0.476 0.68,1.164 0.24,0.687 0.24,1.687 0,0.891 -0.22,1.532 -0.27,0.781 -0.77,1.265 -0.37,0.36 -1.01,0.563 Q 605.25,69 604.44,69 h -2.72 z m 1.45,1.203 v 4.75 h 1.08 q 0.61,0 0.87,-0.078 0.35,-0.078 0.58,-0.289 0.24,-0.211 0.39,-0.696 0.14,-0.484 0.14,-1.312 0,-0.828 -0.14,-1.274 -0.15,-0.445 -0.42,-0.695 -0.26,-0.25 -0.67,-0.328 -0.3,-0.078 -1.19,-0.078 z m 8.77,4.297 1.38,0.234 q -0.27,0.75 -0.84,1.149 -0.57,0.398 -1.43,0.398 -1.34,0 -2,-0.891 -0.52,-0.703 -0.52,-1.781 0,-1.297 0.68,-2.023 0.68,-0.727 1.71,-0.727 1.16,0 1.83,0.758 0.66,0.758 0.63,2.336 h -3.44 q 0.02,0.609 0.34,0.953 0.32,0.344 0.79,0.344 0.32,0 0.54,-0.18 0.22,-0.18 0.33,-0.57 z m 0.08,-1.375 Q 612,65.359 611.71,65.055 611.42,64.75 611,64.75 q -0.45,0 -0.75,0.328 -0.28,0.328 -0.28,0.891 z m 2.37,-2.157 h 1.27 v 0.704 q 0.69,-0.813 1.62,-0.813 0.5,0 0.87,0.203 0.37,0.203 0.6,0.61 0.33,-0.407 0.73,-0.61 0.4,-0.203 0.85,-0.203 0.56,0 0.96,0.227 0.4,0.226 0.59,0.679 0.15,0.329 0.15,1.079 V 69 h -1.37 v -2.969 q 0,-0.765 -0.14,-0.984 -0.21,-0.297 -0.6,-0.297 -0.28,0 -0.54,0.172 -0.25,0.172 -0.36,0.516 -0.11,0.343 -0.11,1.078 V 69 h -1.38 v -2.844 q 0,-0.75 -0.07,-0.968 -0.07,-0.219 -0.22,-0.329 -0.16,-0.109 -0.43,-0.109 -0.31,0 -0.57,0.172 -0.25,0.172 -0.36,0.492 -0.11,0.32 -0.11,1.07 V 69 h -1.38 z m 10.03,1.579 -1.25,-0.219 q 0.21,-0.75 0.72,-1.11 0.52,-0.359 1.53,-0.359 0.91,0 1.36,0.211 0.46,0.211 0.64,0.547 0.18,0.336 0.18,1.227 l -0.02,1.609 q 0,0.687 0.07,1.008 0.07,0.32 0.24,0.695 h -1.34 q -0.06,-0.141 -0.14,-0.406 -0.03,-0.125 -0.05,-0.156 -0.36,0.343 -0.76,0.515 -0.39,0.172 -0.85,0.172 -0.79,0 -1.25,-0.437 -0.47,-0.438 -0.47,-1.11 0,-0.437 0.22,-0.781 0.21,-0.344 0.58,-0.524 0.38,-0.179 1.09,-0.32 0.96,-0.187 1.33,-0.344 v -0.125 q 0,-0.406 -0.19,-0.57 -0.2,-0.164 -0.74,-0.164 -0.36,0 -0.57,0.141 -0.2,0.14 -0.33,0.5 z m 1.83,1.125 q -0.26,0.078 -0.83,0.203 -0.57,0.125 -0.75,0.234 -0.26,0.203 -0.26,0.485 0,0.296 0.21,0.507 0.21,0.211 0.54,0.211 0.37,0 0.72,-0.25 0.25,-0.187 0.33,-0.453 0.04,-0.172 0.04,-0.672 z M 633.67,69 h -1.37 v -2.641 q 0,-0.843 -0.09,-1.093 -0.08,-0.25 -0.29,-0.383 -0.2,-0.133 -0.46,-0.133 -0.36,0 -0.65,0.195 -0.28,0.196 -0.39,0.516 -0.11,0.32 -0.11,1.195 V 69 h -1.37 v -5.188 h 1.28 v 0.766 q 0.67,-0.875 1.7,-0.875 0.46,0 0.83,0.164 0.38,0.164 0.57,0.414 0.2,0.25 0.28,0.571 0.07,0.32 0.07,0.929 z m 6.14,0 h -1.26 v -0.766 q -0.33,0.454 -0.76,0.672 -0.43,0.219 -0.87,0.219 -0.89,0 -1.53,-0.727 -0.64,-0.726 -0.64,-2.007 0,-1.329 0.63,-2.008 0.62,-0.68 1.56,-0.68 0.87,0 1.51,0.719 v -2.578 h 1.36 z m -3.65,-2.703 q 0,0.828 0.23,1.203 0.33,0.531 0.92,0.531 0.47,0 0.81,-0.398 0.33,-0.399 0.33,-1.211 0,-0.891 -0.32,-1.281 -0.32,-0.391 -0.83,-0.391 -0.49,0 -0.81,0.383 -0.33,0.383 -0.33,1.164 z m 8.01,1.047 1.38,0.234 q -0.27,0.75 -0.84,1.149 -0.57,0.398 -1.43,0.398 -1.34,0 -2,-0.891 -0.51,-0.703 -0.51,-1.781 0,-1.297 0.68,-2.023 0.67,-0.727 1.71,-0.727 1.15,0 1.82,0.758 0.66,0.758 0.63,2.336 h -3.44 q 0.02,0.609 0.34,0.953 0.32,0.344 0.79,0.344 0.32,0 0.54,-0.18 0.22,-0.18 0.33,-0.57 z m 0.08,-1.375 q -0.02,-0.61 -0.3,-0.914 -0.29,-0.305 -0.72,-0.305 -0.45,0 -0.75,0.328 -0.28,0.328 -0.28,0.891 z m 3.8,3.031 h -1.38 v -5.188 h 1.28 v 0.735 q 0.33,-0.516 0.59,-0.68 0.26,-0.164 0.58,-0.164 0.47,0 0.91,0.25 l -0.42,1.203 q -0.35,-0.234 -0.64,-0.234 -0.3,0 -0.49,0.164 -0.2,0.164 -0.32,0.578 -0.11,0.414 -0.11,1.727 z m 11.82,0 h -1.58 l -0.62,-1.625 h -2.86 L 654.22,69 h -1.54 l 2.79,-7.156 H 657 Z m -2.67,-2.828 -0.98,-2.656 -0.97,2.656 z m 3.42,-3.063 V 61.844 H 662 v 1.265 z m 0,5.891 V 63.812 H 662 V 69 Z m 7.53,0 h -1.26 v -0.766 q -0.33,0.454 -0.76,0.672 -0.43,0.219 -0.87,0.219 -0.89,0 -1.53,-0.727 -0.64,-0.726 -0.64,-2.007 0,-1.329 0.63,-2.008 0.62,-0.68 1.56,-0.68 0.87,0 1.51,0.719 v -2.578 h 1.36 z m -3.65,-2.703 q 0,0.828 0.23,1.203 0.33,0.531 0.92,0.531 0.47,0 0.81,-0.398 0.33,-0.399 0.33,-1.211 0,-0.891 -0.32,-1.281 -0.32,-0.391 -0.83,-0.391 -0.49,0 -0.81,0.383 -0.33,0.383 -0.33,1.164 z m 8.01,1.047 1.38,0.234 q -0.27,0.75 -0.84,1.149 -0.57,0.398 -1.43,0.398 -1.34,0 -2,-0.891 -0.51,-0.703 -0.51,-1.781 0,-1.297 0.68,-2.023 0.67,-0.727 1.71,-0.727 1.15,0 1.82,0.758 0.66,0.758 0.63,2.336 h -3.44 q 0.02,0.609 0.34,0.953 0.32,0.344 0.79,0.344 0.32,0 0.54,-0.18 0.22,-0.18 0.33,-0.57 z m 0.08,-1.375 q -0.02,-0.61 -0.3,-0.914 -0.29,-0.305 -0.72,-0.305 -0.45,0 -0.75,0.328 -0.28,0.328 -0.28,0.891 z"
           id="path1328"
           inkscape:connector-curvature="0" />
        <title
           id="title1330">Demander Aide</title>
        <desc
           id="desc1332">Texte priv_{txtBoutonAide}: Si(priv_{AideDemandee}, &quot;Aide demandée&quot;, &quot;Demander Aide&quot;)</desc>
      </g>
      <!-- drawing style -->
    </g>
    <g
       id="g830"
       transform="matrix(0.02095016,0,0,0.02095016,109.61443,129.99818)">
      <path
         d="m 57.149885,57.15014 c -74.196718,74.19672 -74.19954,194.50104 7e-6,268.70058 74.199538,74.19955 194.501028,74.19955 268.700578,0 74.19954,-74.19954 74.19954,-194.50103 0,-268.700573 -74.19955,-74.199547 -194.50104,-74.19955 -268.700585,-7e-6 z m 56.568545,56.56855 c 42.95744,-42.957441 112.60605,-42.957445 155.5635,0 42.95744,42.95744 42.95743,112.60605 0,155.56349 -42.95745,42.95745 -112.60606,42.95745 -155.5635,0 -42.957443,-42.95744 -42.957443,-112.60605 0,-155.56349 z"
         inkscape:connector-curvature="0"
         style="fill:url(#radialGradient3841);stroke:#a0a0a0;stroke-width:3"
         id="path2987" />
      <path
         d="M 57.149885,57.15014 C 42.299228,72.000796 30.413463,88.687816 21.507107,106.49311 l 71.587494,35.79375 c 5.155445,-10.30474 12.020819,-19.97577 20.616409,-28.57136 8.59559,-8.59559 18.26661,-15.460957 28.57135,-20.616401 L 106.48437,21.504533 C 88.686494,30.407008 71.998774,42.300544 57.149531,57.149786 Z m -35.645246,219.3516 c 8.907424,17.80707 20.790354,34.49126 35.646667,49.34757 14.850657,14.85066 31.53767,26.73641 49.342974,35.64278 l 35.79798,-71.59456 c -10.31669,-5.15481 -19.98284,-12.02082 -28.57418,-20.61216 -8.59559,-8.59559 -15.460963,-18.26662 -20.616408,-28.57136 L 21.507107,276.51199 Z M 276.50149,21.504894 240.7035,93.099456 c 10.30474,5.155444 19.97577,12.020814 28.57136,20.616404 8.59559,8.59559 15.46096,18.26662 20.6164,28.57136 l 71.59456,-35.79799 C 352.58335,88.691352 340.70395,72.003632 325.85471,57.15439 311.00405,42.303733 294.31704,30.417975 276.51174,21.511612 Z m -35.79375,268.389446 35.79798,71.59457 c 17.80531,-8.90637 34.49232,-20.79213 49.34297,-35.64278 14.85067,-14.85066 26.73642,-31.53766 35.64279,-49.34297 l -71.60163,-35.79375 c -5.15545,10.30474 -12.02082,19.97577 -20.61641,28.57136 -8.59559,8.59559 -18.26662,15.46096 -28.57136,20.6164 z"
         inkscape:connector-curvature="0"
         style="opacity:0.81400003;fill:#ff0000;fill-opacity:1;stroke:#ff0000;stroke-width:3;stroke-linecap:round;stroke-linejoin:round;stroke-opacity:1"
         id="path3772" />
    </g>
  </g>
</svg>
