<?xml version="1.0" encoding="UTF-8" standalone="no"?>
<!-- Generator: Adobe Illustrator 15.1.0, SVG Export Plug-In  -->

<svg
   xmlns:a="http://ns.adobe.com/AdobeSVGViewerExtensions/3.0/"
   xmlns:dc="http://purl.org/dc/elements/1.1/"
   xmlns:cc="http://creativecommons.org/ns#"
   xmlns:rdf="http://www.w3.org/1999/02/22-rdf-syntax-ns#"
   xmlns:svg="http://www.w3.org/2000/svg"
   xmlns="http://www.w3.org/2000/svg"
   xmlns:sodipodi="http://sodipodi.sourceforge.net/DTD/sodipodi-0.dtd"
   xmlns:inkscape="http://www.inkscape.org/namespaces/inkscape"
   version="1.1"
   x="0px"
   y="0px"
   width="260.00772"
   height="66.400002"
   viewBox="0 0 260.00772 66.400002"
   style="overflow:visible"
   xml:space="preserve"
   id="svg153"
   sodipodi:docname="moodle-logo.svg"
   inkscape:version="0.92.4 (5da689c313, 2019-01-14)"><metadata
   id="metadata157"><rdf:RDF><cc:Work
       rdf:about=""><dc:format>image/svg+xml</dc:format><dc:type
         rdf:resource="http://purl.org/dc/dcmitype/StillImage" /><dc:title></dc:title></cc:Work></rdf:RDF></metadata><sodipodi:namedview
   pagecolor="#ffffff"
   bordercolor="#666666"
   borderopacity="1"
   objecttolerance="10"
   gridtolerance="10"
   guidetolerance="10"
   inkscape:pageopacity="0"
   inkscape:pageshadow="2"
   inkscape:window-width="1920"
   inkscape:window-height="1017"
   id="namedview155"
   showgrid="false"
   inkscape:zoom="4.7647219"
   inkscape:cx="100.59178"
   inkscape:cy="0.27623762"
   inkscape:window-x="-8"
   inkscape:window-y="-8"
   inkscape:window-maximized="1"
   inkscape:current-layer="svg153"
   fit-margin-top="0"
   fit-margin-left="0"
   fit-margin-right="0"
   fit-margin-bottom="0" />
<defs
   id="defs2">
</defs>
<radialGradient
   id="SVGID_1_"
   cx="138.24319"
   cy="48.0928"
   r="123.3346"
   gradientUnits="userSpaceOnUse"
   gradientTransform="translate(-1.1922718)">
	<stop
   offset="0"
   style="stop-color:#FAAF40"
   id="stop4" />
	<stop
   offset="4.321454e-02"
   style="stop-color:#F9A538"
   id="stop6" />
	<stop
   offset="0.1116"
   style="stop-color:#F89D31"
   id="stop8" />
	<stop
   offset="0.2269"
   style="stop-color:#F89A2F"
   id="stop10" />
	<stop
   offset="0.5276"
   style="stop-color:#F7922D"
   id="stop12" />
	<stop
   offset="1"
   style="stop-color:#F37B28"
   id="stop14" />
	<a:midPointStop
   offset="0"
   style="stop-color:#FAAF40" />
	<a:midPointStop
   offset="0.1982"
   style="stop-color:#FAAF40" />
	<a:midPointStop
   offset="0.2269"
   style="stop-color:#F89A2F" />
	<a:midPointStop
   offset="0.6064"
   style="stop-color:#F89A2F" />
	<a:midPointStop
   offset="1"
   style="stop-color:#F37B28" />
</radialGradient>
<path
   style="fill:url(#SVGID_1_)"
   d="M 61.207728,65.2 V 42.4 c 0,-4.8 -2,-7.2 -5.9,-7.2 -3.9,0 -5.9,2.4 -5.9,7.2 v 22.8 h -11.7 V 42.4 c 0,-4.8 -1.9,-7.2 -5.8,-7.2 -3.9,0 -5.9,2.4 -5.9,7.2 v 22.8 h -11.6 V 41.1 c 0,-5 1.7,-8.7 5.2,-11.3 3,-2.3 7.2,-3.4 12.3,-3.4 5.3,0 9.1,1.3 11.6,4 2.1,-2.7 6,-4 11.7,-4 5.2,0 9.3,1.1 12.3,3.4 3.5,2.6 5.2,6.3 5.2,11.3 v 24.2 h -11.5 z"
   id="path17"
   inkscape:connector-curvature="0" />
<radialGradient
   id="SVGID_2_"
   cx="138.24319"
   cy="48.0928"
   r="123.3347"
   gradientUnits="userSpaceOnUse"
   gradientTransform="translate(-1.1922718)">
	<stop
   offset="0"
   style="stop-color:#FAAF40"
   id="stop19" />
	<stop
   offset="4.321454e-02"
   style="stop-color:#F9A538"
   id="stop21" />
	<stop
   offset="0.1116"
   style="stop-color:#F89D31"
   id="stop23" />
	<stop
   offset="0.2269"
   style="stop-color:#F89A2F"
   id="stop25" />
	<stop
   offset="0.5276"
   style="stop-color:#F7922D"
   id="stop27" />
	<stop
   offset="1"
   style="stop-color:#F37B28"
   id="stop29" />
	<a:midPointStop
   offset="0"
   style="stop-color:#FAAF40" />
	<a:midPointStop
   offset="0.1982"
   style="stop-color:#FAAF40" />
	<a:midPointStop
   offset="0.2269"
   style="stop-color:#F89A2F" />
	<a:midPointStop
   offset="0.6064"
   style="stop-color:#F89A2F" />
	<a:midPointStop
   offset="1"
   style="stop-color:#F37B28" />
</radialGradient>
<path
   style="fill:url(#SVGID_2_)"
   d="m 94.807728,66.2 c -5.9,0 -10.7,-1.9 -14.6,-5.6 -3.8,-3.7 -5.8,-8.5 -5.8,-14.4 0,-5.9 1.9,-10.7 5.8,-14.4 3.8,-3.7 8.7,-5.6 14.6,-5.6 5.900002,0 10.800002,1.9 14.600002,5.6 3.9,3.7 5.8,8.5 5.8,14.4 0,5.9 -1.9,10.7 -5.8,14.4 -3.9,3.7 -8.8,5.6 -14.600002,5.6 z m 0,-30.7 c -2.8,0 -5,1.1 -6.5,3.2 -1.5,2.1 -2.3,4.6 -2.3,7.6 0,2.9 0.7,5.4 2.1,7.4 1.6,2.3 3.8,3.4 6.6,3.4 2.8,0 5,-1.1 6.600002,-3.4 1.5,-2 2.2,-4.5 2.2,-7.4 0,-2.9 -0.7,-5.4 -2.1,-7.4 -1.500002,-2.3 -3.800002,-3.4 -6.600002,-3.4 z"
   id="path32"
   inkscape:connector-curvature="0" />
<radialGradient
   id="SVGID_3_"
   cx="138.24319"
   cy="48.0928"
   r="123.3348"
   gradientUnits="userSpaceOnUse"
   gradientTransform="translate(-1.1922718)">
	<stop
   offset="0"
   style="stop-color:#FAAF40"
   id="stop34" />
	<stop
   offset="4.321454e-02"
   style="stop-color:#F9A538"
   id="stop36" />
	<stop
   offset="0.1116"
   style="stop-color:#F89D31"
   id="stop38" />
	<stop
   offset="0.2269"
   style="stop-color:#F89A2F"
   id="stop40" />
	<stop
   offset="0.5276"
   style="stop-color:#F7922D"
   id="stop42" />
	<stop
   offset="1"
   style="stop-color:#F37B28"
   id="stop44" />
	<a:midPointStop
   offset="0"
   style="stop-color:#FAAF40" />
	<a:midPointStop
   offset="0.1982"
   style="stop-color:#FAAF40" />
	<a:midPointStop
   offset="0.2269"
   style="stop-color:#F89A2F" />
	<a:midPointStop
   offset="0.6064"
   style="stop-color:#F89A2F" />
	<a:midPointStop
   offset="1"
   style="stop-color:#F37B28" />
</radialGradient>
<path
   style="fill:url(#SVGID_3_)"
   d="m 136.80773,66.2 c -5.9,0 -10.7,-1.9 -14.6,-5.6 -3.8,-3.7 -5.8,-8.5 -5.8,-14.4 0,-5.9 1.9,-10.7 5.8,-14.4 3.8,-3.7 8.7,-5.6 14.6,-5.6 5.9,0 10.8,1.9 14.6,5.6 3.9,3.7 5.8,8.5 5.8,14.4 0,5.9 -1.9,10.7 -5.8,14.4 -3.9,3.7 -8.8,5.6 -14.6,5.6 z m 0,-30.7 c -2.8,0 -5,1.1 -6.5,3.2 -1.5,2.1 -2.3,4.6 -2.3,7.6 0,2.9 0.7,5.4 2.1,7.4 1.6,2.3 3.8,3.4 6.6,3.4 2.8,0 5,-1.1 6.6,-3.4 1.5,-2 2.2,-4.5 2.2,-7.4 0,-2.9 -0.7,-5.4 -2.1,-7.4 -1.5,-2.3 -3.8,-3.4 -6.6,-3.4 z"
   id="path47"
   inkscape:connector-curvature="0" />
<radialGradient
   id="SVGID_4_"
   cx="138.24271"
   cy="48.0928"
   r="123.3356"
   gradientUnits="userSpaceOnUse"
   gradientTransform="translate(-1.1922718)">
	<stop
   offset="0"
   style="stop-color:#FAAF40"
   id="stop49" />
	<stop
   offset="4.321454e-02"
   style="stop-color:#F9A538"
   id="stop51" />
	<stop
   offset="0.1116"
   style="stop-color:#F89D31"
   id="stop53" />
	<stop
   offset="0.2269"
   style="stop-color:#F89A2F"
   id="stop55" />
	<stop
   offset="0.5276"
   style="stop-color:#F7922D"
   id="stop57" />
	<stop
   offset="1"
   style="stop-color:#F37B28"
   id="stop59" />
	<a:midPointStop
   offset="0"
   style="stop-color:#FAAF40" />
	<a:midPointStop
   offset="0.1982"
   style="stop-color:#FAAF40" />
	<a:midPointStop
   offset="0.2269"
   style="stop-color:#F89A2F" />
	<a:midPointStop
   offset="0.6064"
   style="stop-color:#F89A2F" />
	<a:midPointStop
   offset="1"
   style="stop-color:#F37B28" />
</radialGradient>
<path
   style="fill:url(#SVGID_4_)"
   d="m 188.60773,65.1 v -3.8 c -1,1.4 -2.8,2.5 -5.3,3.3 -2.2,0.8 -4.3,1.1 -6.3,1.1 -5.5,0 -10,-1.9 -13.3,-5.7 -3.4,-3.8 -5,-8.5 -5,-14.1 0,-5.5 1.6,-10.2 4.9,-13.9 3.3,-3.7 7.7,-5.6 13.1,-5.6 6.2,0 10.1,1.7 11.9,5 V 0 h 11.3 v 65.1 z m 0,-21.6 c 0,-2.1 -1,-4.1 -3,-6 -2,-1.9 -4,-2.9 -6.1,-2.9 -3,0 -5.3,1.2 -7.1,3.6 -1.5,2.1 -2.3,4.8 -2.3,7.9 0,3 0.8,5.6 2.3,7.8 1.7,2.5 4.1,3.7 7.1,3.7 1.8,0 3.7,-0.8 5.9,-2.5 2.1,-1.7 3.2,-3.4 3.2,-5.2 z"
   id="path62"
   inkscape:connector-curvature="0" />
<radialGradient
   id="SVGID_5_"
   cx="138.2437"
   cy="48.0928"
   r="123.3342"
   gradientUnits="userSpaceOnUse"
   gradientTransform="translate(-1.1922718)">
	<stop
   offset="0"
   style="stop-color:#FAAF40"
   id="stop64" />
	<stop
   offset="4.321454e-02"
   style="stop-color:#F9A538"
   id="stop66" />
	<stop
   offset="0.1116"
   style="stop-color:#F89D31"
   id="stop68" />
	<stop
   offset="0.2269"
   style="stop-color:#F89A2F"
   id="stop70" />
	<stop
   offset="0.5276"
   style="stop-color:#F7922D"
   id="stop72" />
	<stop
   offset="1"
   style="stop-color:#F37B28"
   id="stop74" />
	<a:midPointStop
   offset="0"
   style="stop-color:#FAAF40" />
	<a:midPointStop
   offset="0.1982"
   style="stop-color:#FAAF40" />
	<a:midPointStop
   offset="0.2269"
   style="stop-color:#F89A2F" />
	<a:midPointStop
   offset="0.6064"
   style="stop-color:#F89A2F" />
	<a:midPointStop
   offset="1"
   style="stop-color:#F37B28" />
</radialGradient>
<path
   style="fill:url(#SVGID_5_)"
   d="M 204.00773,65.1 V 0 h 11.6 v 65.1 z"
   id="path77"
   inkscape:connector-curvature="0" />
<radialGradient
   id="SVGID_6_"
   cx="138.24271"
   cy="48.0928"
   r="123.335"
   gradientUnits="userSpaceOnUse"
   gradientTransform="translate(-1.1922718)">
	<stop
   offset="0"
   style="stop-color:#FAAF40"
   id="stop79" />
	<stop
   offset="4.321454e-02"
   style="stop-color:#F9A538"
   id="stop81" />
	<stop
   offset="0.1116"
   style="stop-color:#F89D31"
   id="stop83" />
	<stop
   offset="0.2269"
   style="stop-color:#F89A2F"
   id="stop85" />
	<stop
   offset="0.5276"
   style="stop-color:#F7922D"
   id="stop87" />
	<stop
   offset="1"
   style="stop-color:#F37B28"
   id="stop89" />
	<a:midPointStop
   offset="0"
   style="stop-color:#FAAF40" />
	<a:midPointStop
   offset="0.1982"
   style="stop-color:#FAAF40" />
	<a:midPointStop
   offset="0.2269"
   style="stop-color:#F89A2F" />
	<a:midPointStop
   offset="0.6064"
   style="stop-color:#F89A2F" />
	<a:midPointStop
   offset="1"
   style="stop-color:#F37B28" />
</radialGradient>
<path
   style="fill:url(#SVGID_6_)"
   d="m 229.50773,49.7 c 0.5,2.4 1.7,4.4 3.5,6.1 1.9,1.7 3.9,2.6 6.2,2.6 1.6,0 3.3,-0.4 5.2,-1.2 2.3,-1 3.4,-2.1 3.4,-3.4 l 12.2,-0.1 c -1.7,4.1 -4.7,7.3 -8.8,9.5 -3.9,2.1 -8.1,3.2 -12.8,3.2 -5.9,0 -10.9,-1.9 -14.8,-5.5 -3.9,-3.7 -5.9,-8.5 -5.9,-14.5 0,-6.2 2,-11 5.9,-14.7 3.9,-3.6 9,-5.4 15.2,-5.4 6.8,0 12.1,2.2 15.9,6.7 3.5,4.1 5.3,9.7 5.3,16.7 z m 19,-7.2 c -0.5,-2.5 -1.5,-4.5 -3.1,-6.1 -1.8,-1.7 -3.9,-2.6 -6.2,-2.6 -2.4,0 -4.4,0.8 -6.1,2.5 -1.6,1.7 -2.7,3.7 -3.3,6.2 z"
   id="path92"
   inkscape:connector-curvature="0" />
<path
   style="fill:#58595b"
   d="m 15.507728,32.2 c -0.4,2 -0.8,4 -1.2,6 11,3.7 21.4,0.1 26.9,-9.5 -8.1,-5.6 -15.6,0.1 -25.7,3.5"
   id="path94"
   inkscape:connector-curvature="0" />
<linearGradient
   id="SVGID_7_"
   gradientUnits="userSpaceOnUse"
   x1="15.5879"
   y1="31.877001"
   x2="41.848598"
   y2="31.877001"
   gradientTransform="translate(-1.1922718)">
	<stop
   offset="0"
   style="stop-color:#929497"
   id="stop96" />
	<stop
   offset="0.1245"
   style="stop-color:#757578"
   id="stop98" />
	<stop
   offset="0.2792"
   style="stop-color:#575658"
   id="stop100" />
	<stop
   offset="0.4403"
   style="stop-color:#403E3F"
   id="stop102" />
	<stop
   offset="0.6085"
   style="stop-color:#302D2E"
   id="stop104" />
	<stop
   offset="0.7884"
   style="stop-color:#262223"
   id="stop106" />
	<stop
   offset="1"
   style="stop-color:#231F20"
   id="stop108" />
	<a:midPointStop
   offset="0"
   style="stop-color:#929497" />
	<a:midPointStop
   offset="0.2606"
   style="stop-color:#929497" />
	<a:midPointStop
   offset="1"
   style="stop-color:#231F20" />
</linearGradient>
<path
   style="fill:url(#SVGID_7_)"
   d="m 15.507728,30.7 c -0.4,2.3 -0.7,4.5 -1.1,6.8 10.5,3.6 20.8,0.5 26.3,-8.9 -7,-8.1 -14.8,-1.4 -25.2,2.1"
   id="path111"
   inkscape:connector-curvature="0" />
<linearGradient
   id="SVGID_8_"
   gradientUnits="userSpaceOnUse"
   x1="20.6187"
   y1="23.1113"
   x2="31.5222"
   y2="38.683201"
   gradientTransform="translate(-1.1922718)">
	<stop
   offset="0"
   style="stop-color:#231F20"
   id="stop113" />
	<stop
   offset="1"
   style="stop-color:#231F20;stop-opacity:0"
   id="stop115" />
	<a:midPointStop
   offset="0"
   style="stop-color:#231F20" />
	<a:midPointStop
   offset="0.5"
   style="stop-color:#231F20" />
	<a:midPointStop
   offset="1"
   style="stop-color:#231F20;stop-opacity:0" />
</linearGradient>
<path
   style="fill:url(#SVGID_8_)"
   d="m 28.007728,33.4 c -4.8,-1 -10,1.5 -13.6,4.1 -2.3,-16.8 8.1,-16.4 21.7,-12.2 -0.9,4.1 -2.4,9.6 -5,12.9 -0.1,-2.2 -1.1,-3.7 -3.1,-4.8"
   id="path118"
   inkscape:connector-curvature="0" />
<linearGradient
   id="SVGID_9_"
   gradientUnits="userSpaceOnUse"
   x1="1.1670001"
   y1="23.5879"
   x2="49.166"
   y2="23.5879"
   gradientTransform="translate(-1.1922718)">
	<stop
   offset="0"
   style="stop-color:#929497"
   id="stop120" />
	<stop
   offset="0.1245"
   style="stop-color:#757578"
   id="stop122" />
	<stop
   offset="0.2792"
   style="stop-color:#575658"
   id="stop124" />
	<stop
   offset="0.4403"
   style="stop-color:#403E3F"
   id="stop126" />
	<stop
   offset="0.6085"
   style="stop-color:#302D2E"
   id="stop128" />
	<stop
   offset="0.7884"
   style="stop-color:#262223"
   id="stop130" />
	<stop
   offset="1"
   style="stop-color:#231F20"
   id="stop132" />
	<a:midPointStop
   offset="0"
   style="stop-color:#929497" />
	<a:midPointStop
   offset="0.2606"
   style="stop-color:#929497" />
	<a:midPointStop
   offset="1"
   style="stop-color:#231F20" />
</linearGradient>
<path
   style="fill:url(#SVGID_9_)"
   d="M 0.00772823,30.7 C 17.607728,20.1 27.507728,18.1 48.007728,16 c -23.8,18.8 -24.4,14.7 -47.99999977,14.7"
   id="path135"
   inkscape:connector-curvature="0" />
<line
   style="fill:#383738;stroke:#4a4a4c;stroke-width:0.5"
   x1="48.007729"
   y1="16.1"
   x2="29.107727"
   y2="29.799999"
   id="line137" />
<path
   style="opacity:0.22999998;fill:#231f20"
   d="m 25.507728,23.4 c 0.2,2.2 -0.3,-2.1 0,0"
   id="path139"
   inkscape:connector-curvature="0" />
<line
   style="fill:#ffffff;stroke:#a8abad;stroke-width:0.5"
   x1="0.0077282768"
   y1="30.700001"
   x2="29.107727"
   y2="29.799999"
   id="line141" />
<path
   style="display:none;fill:none;stroke:#f16922;stroke-width:0.5"
   d="m 23.707728,23.6 c -12,3.3 -27.5999998,2.2 -23.39999977,18.4"
   id="path143"
   inkscape:connector-curvature="0" />
<path
   style="display:none;fill:#f16922"
   d="m 1.4077282,55.7 c -1.79999997,-4.5 -4,-9.5 -1.39999997,-15.7 1.69999997,5.8 1.39999997,10.2 1.39999997,15.7"
   id="path145"
   inkscape:connector-curvature="0" />
<path
   style="fill:none;stroke:#f16922;stroke-width:0.5"
   d="m 23.707728,23.6 c -5,1.4 -21.3999998,5 -21.5999998,7.1 -0.5,3.9 -0.1,10.1 -0.1,10.1"
   id="path147"
   inkscape:connector-curvature="0" />
<path
   style="fill:#f16922"
   d="m 3.5077282,55.7 c -1.8,-4.5 -3.99999997,-9.5 -1.4,-15.7 1.7,5.8 1.4,10.2 1.4,15.7"
   id="path149"
   inkscape:connector-curvature="0" />
<ellipse
   transform="rotate(-19.609116)"
   style="fill:#6d6e70;stroke-width:0.99999571"
   cx="13.861105"
   cy="29.667904"
   rx="0.79999655"
   ry="0.39999828"
   id="ellipse151" />
</svg>